<?xml version="1.0" standalone="no"?>
<!DOCTYPE svg PUBLIC "-//W3C//DTD SVG 1.1//EN" "http://www.w3.org/Graphics/SVG/1.1/DTD/svg11.dtd">
<svg version="1.1" xmlns="http://www.w3.org/2000/svg" xmlns:xlink="http://www.w3.org/1999/xlink"><metadata>This SVG WebFont was generated by YouWorkForThem.
</metadata><defs><font horiz-adv-x="0" id="ywftsvg"><font-face ascent="800" bbox="-520.022 -282.778 1436 1075" cap-height="703" descent="-200" font-family="" font-stretch="normal" font-weight="400" panose-1="0 0 0 0 0 0 0 0 0 0" underline-position="0" underline-thickness="0" unicode-range="U+0020-E063" units-per-em="1000" x-height="502"/><missing-glyph d="M422 780v-1030h-326v1030h326zM343 78h-171v-117h171v117zM309 44v-49h-103v49h103zM343 256h-103v-58h35v24h34v-49h-103v83h-34v-117h171v117zM343 381h-34v-68h-137v-35h171v103zM343 443h-171v-34h68v-38h-68v-34h103v72h68v34zM240 543v-37h-34v37h34zM275 578h-103 v-107h171v35h-68v72zM343 711h-170v-34h67v-38h-68v-34h171v34h-68v38h68v34zM343 -63h-171v-34h72l-72 -48v-34h171v34h-105l72 48h33v34z" horiz-adv-x="515"/><glyph d="M37 -3q-17 0 -17 15v1q0 13 15 17q26 7 36.5 43.5t10.5 115.5v153q0 62 -9.5 92t-34.5 36q-15 4 -15 16t16 15q19 3 28.5 17.5t11 28t1.5 39.5v37q0 76 45 124.5t118 48.5q65 0 101 -44q7 -10 19 -9q55 6 151 32q18 5 18 -14v-336q0 -7 2 -10.5t5.5 -1.5t7.5 9 q23 42 63.5 67t86.5 25q95 0 155 -68.5t60 -175.5q0 -119 -67.5 -202t-183.5 -83q-32 0 -70 13t-62.5 24.5t-48 11.5t-36.5 -22q-7 -12 -19 -12q-13 0 -13 16v581q0 55 -6 78.5t-21 30.5q-8 4 -13 -0.5t-4 -12.5q1 -6 1 -19q0 -29 -19.5 -49t-48.5 -20q-30 0 -50 19.5 t-20 49.5q0 29 20 49t50 20q-7 14 -10 16q-18 5 -35 5q-42 0 -65 -45t-9 -136q8 -53 17.5 -68t41.5 -15h54q16 0 16 -15t-16 -15h-77q-16 0 -16 -16v-265q0 -79 10.5 -115.5t36.5 -43.5q15 -4 15 -17q0 -16 -17 -16q-43 4 -106 4q-59 0 -104 -4zM532 174q5 -76 39 -117.5 t90 -41.5q44 0 71.5 39.5t36 87.5t8.5 104q0 96 -27 160t-85 63q-51 -1 -89 -55.5t-44 -138.5v-101z" glyph-name="uniE046" horiz-adv-x="937" unicode="fb"/><glyph d="M349 -3q-17 0 -17 15v1q0 13 15 17q26 7 36.5 43.5t10.5 115.5v153q0 69 -12.5 98.5t-46.5 29.5h-117q-16 0 -16 -16v-265q0 -79 10.5 -115.5t36.5 -43.5q15 -4 15 -17q0 -16 -17 -16q-43 4 -106 4q-59 0 -104 -4q-17 0 -17 15v1q0 13 15 17q26 7 36.5 43.5t10.5 115.5 v153q0 62 -9.5 92t-34.5 36q-15 4 -15 16t16 15q19 3 28.5 17.5t11 28t1.5 39.5v37q0 76 45 124.5t117 48.5q58 0 94.5 -34t35.5 -88q0 -29 -19.5 -49t-48.5 -20q-30 0 -50 19.5t-20 49.5q0 29 20 49t50 20q-8 13 -15 16q-17 5 -34 5q-41 0 -64 -45t-9 -136q8 -53 17.5 -68 t41.5 -15h94q26 0 39.5 13.5t15.5 28.5t2 44v37q0 76 45 124.5t118 48.5q59 0 95.5 -34t35.5 -88q0 -29 -19.5 -49t-48.5 -20q-30 0 -50 19.5t-20 49.5q0 29 20 49t50 20q-9 13 -15 16q-18 5 -35 5q-42 0 -65 -45t-9 -136q8 -53 17.5 -68t41.5 -15h54q16 0 16 -15t-16 -15 h-77q-16 0 -16 -16v-265q0 -79 10.5 -115.5t36.5 -43.5q15 -4 15 -17q0 -16 -17 -16q-43 4 -106 4q-59 0 -104 -4z" glyph-name="uniE047" horiz-adv-x="636" unicode="ff"/><glyph d="M755 593q-35 0 -55 20.5t-20 54.5t20 54t55 20t54.5 -20t19.5 -54q0 -35 -20 -55t-54 -20zM37 -3q-17 0 -17 15v1q0 13 15 17q26 7 36.5 43.5t10.5 115.5v153q0 62 -9.5 92t-34.5 36q-15 4 -15 16t16 15q19 3 28.5 17.5t11 28t1.5 39.5v37q0 76 44 124.5t116 48.5 q58 0 94.5 -34t35.5 -88q0 -29 -19.5 -49t-48.5 -20q-30 0 -50 19.5t-20 49.5q0 29 20 49t50 20q-8 13 -15 16q-17 5 -34 5q-41 0 -63 -45t-8 -136q8 -53 17.5 -68t41.5 -15h81q26 0 39.5 13.5t15.5 28.5t2 44v37q0 77 42.5 125t114.5 48q58 0 94.5 -34t35.5 -88 q0 -29 -19.5 -49t-48.5 -20q-30 0 -50 19.5t-20 49.5q0 29 20 49t50 20q-8 13 -15 16q-17 5 -34 5q-41 0 -61.5 -45t-6.5 -136q8 -53 17.5 -68t41.5 -15h94q99 0 163 12q18 3 18 -14v-309q0 -79 10.5 -115.5t36.5 -43.5q15 -4 15 -17q0 -16 -17 -16q-43 4 -106 4 q-59 0 -104 -4q-17 0 -17 15v1q0 13 15 17q26 7 36.5 43.5t10.5 115.5v144q0 80 -12.5 107.5t-48.5 27.5h-117q-16 0 -16 -16v-263q0 -79 10.5 -115.5t36.5 -43.5q15 -4 15 -17q0 -16 -17 -16q-43 4 -106 4q-59 0 -104 -4q-17 0 -17 15v1q0 13 15 17q26 7 36.5 43.5 t10.5 115.5v153q0 69 -12.5 98.5t-46.5 29.5h-104q-16 0 -16 -16v-265q0 -79 10.5 -115.5t36.5 -43.5q15 -4 15 -17q0 -16 -17 -16q-43 4 -106 4q-59 0 -104 -4z" glyph-name="uniE048" horiz-adv-x="897" unicode="ffi"/><glyph d="M37 -3q-17 0 -17 15v1q0 13 15 17q26 7 36.5 43.5t10.5 115.5v153q0 62 -9.5 92t-34.5 36q-15 4 -15 16t16 15q19 3 28.5 17.5t11 28t1.5 39.5v37q0 76 45 124.5t118 48.5q56 0 91.5 -34t34.5 -88q0 -29 -19.5 -49t-48.5 -20q-30 0 -50 19.5t-20 49.5q0 29 20 49t50 20 q-7 14 -10 16q-18 5 -35 5q-42 0 -65 -45t-9 -136q8 -53 17.5 -68t41.5 -15h92q26 0 39.5 13.5t15.5 28.5t2 44v37q0 76 45 124.5t118 48.5q65 0 101 -44q7 -10 19 -9q55 6 151 32q18 5 18 -14v-572q0 -79 10.5 -115.5t36.5 -43.5q15 -4 15 -17q0 -16 -17 -16q-43 4 -106 4 q-59 0 -104 -4q-17 0 -17 15v1q0 13 15 17q26 7 36.5 43.5t10.5 115.5v408q0 55 -6 78.5t-21 30.5q-8 4 -13 -0.5t-4 -12.5q1 -6 1 -19q0 -29 -19.5 -49t-48.5 -20q-30 0 -50 19.5t-20 49.5q0 29 20 49t50 20q-7 14 -10 16q-18 5 -35 5q-42 0 -65 -45t-9 -136 q8 -53 17.5 -68t41.5 -15h54q16 0 16 -15t-16 -15h-77q-16 0 -16 -16v-265q0 -79 10.5 -115.5t36.5 -43.5q15 -4 15 -17q0 -16 -17 -16q-43 4 -106 4q-59 0 -104 -4q-17 0 -17 15v1q0 13 15 17q26 7 36.5 43.5t10.5 115.5v153q0 69 -12.5 98.5t-46.5 29.5h-115 q-16 0 -16 -16v-265q0 -79 10.5 -115.5t36.5 -43.5q15 -4 15 -17q0 -16 -17 -16q-43 4 -106 4q-59 0 -104 -4z" glyph-name="uniE04A" horiz-adv-x="924" unicode="ffl"/><glyph d="M37 -3q-17 0 -17 15v1q0 13 15 17q26 7 36.5 43.5t10.5 115.5v153q0 62 -9.5 92t-34.5 36q-15 4 -15 16t16 15q19 3 28.5 17.5t11 28t1.5 39.5v37q0 76 45 124.5t118 48.5q65 0 101 -44q7 -10 19 -9q55 6 151 32q18 5 18 -14v-298q0 -11 5 -12.5t12 7.5q50 58 133 58 q80 0 126.5 -43.5t46.5 -115.5v-168q0 -79 10.5 -115.5t36.5 -43.5q15 -4 15 -17q0 -16 -17 -16q-43 4 -107 4q-59 0 -104 -4q-17 0 -17 15v1q0 13 15 17q26 7 36.5 43.5t10.5 115.5v167q0 120 -83 120q-49 0 -83.5 -44.5t-35.5 -103.5v-139q0 -79 10.5 -115.5t36.5 -43.5 q15 -4 15 -17q0 -16 -17 -16q-43 4 -106 4q-59 0 -104 -4q-17 0 -17 15v1q0 13 15 17q26 7 36.5 43.5t10.5 115.5v408q0 55 -6 78.5t-21 30.5q-8 4 -13 -0.5t-4 -12.5q1 -6 1 -19q0 -29 -19.5 -49t-48.5 -20q-30 0 -50 19.5t-20 49.5q0 29 20 49t50 20q-7 14 -10 16 q-18 5 -35 5q-42 0 -65 -45t-9 -136q8 -53 17.5 -68t41.5 -15h54q16 0 16 -15t-16 -15h-77q-16 0 -16 -16v-265q0 -79 10.5 -115.5t36.5 -43.5q15 -4 15 -17q0 -16 -17 -16q-43 4 -106 4q-59 0 -104 -4z" glyph-name="uniE04B" horiz-adv-x="937" unicode="fh"/><glyph d="M37 -3q-17 0 -17 15v1q0 13 15 17q26 7 36.5 43.5t10.5 115.5v153q0 62 -9.5 92t-34.5 36q-15 4 -15 16t16 15q19 3 28.5 17.5t11 28t1.5 39.5q0 92 63 151t169 59q73 0 122 -27t64 -69q5 -15 5 -32q0 -35 -20 -55t-54 -20q-35 0 -55 20.5t-20 54.5q0 51 41 68q18 6 1 14 q-27 11 -68 11q-70 0 -109.5 -50t-30.5 -136q5 -47 17.5 -61t47.5 -14h63q99 0 163 12q18 3 18 -14v-309q0 -79 10.5 -115.5t36.5 -43.5q15 -4 15 -17q0 -16 -17 -16q-43 4 -106 4q-59 0 -104 -4q-17 0 -17 15v1q0 13 15 17q26 7 36.5 43.5t10.5 115.5v144q0 80 -13 108.5 t-48 28.5h-98q-16 0 -16 -16v-265q0 -79 10.5 -115.5t36.5 -43.5q15 -4 15 -17q0 -16 -17 -16q-43 4 -106 4q-59 0 -104 -4z" glyph-name="uniE04C" horiz-adv-x="589" unicode="fi"/><glyph d="M497 -92q0 -78 -40.5 -125.5t-112.5 -47.5q-61 0 -100.5 34t-38.5 88q0 29 20 49t50 20q29 0 48.5 -20t19.5 -49t-19.5 -49t-48.5 -20q-1 0 2 -3.5t9 -7.5t12 -6q12 -4 33 -4q76 0 77 99q1 44 -15.5 97.5t-16.5 79.5v333q-3 53 -16.5 73.5t-43.5 20.5h-98q-16 0 -16 -16 v-265q0 -79 10.5 -115.5t36.5 -43.5q15 -4 15 -17q0 -16 -17 -16q-43 4 -106 4q-59 0 -104 -4q-17 0 -17 15v1q0 13 15 17q26 7 36.5 43.5t10.5 115.5v153q0 62 -9.5 92t-34.5 36q-15 4 -15 16t16 15q19 3 28.5 17.5t11 28t1.5 39.5q0 92 63 151t169 59q73 0 122 -27t64 -69 q5 -15 5 -32q0 -35 -20 -55t-54 -20q-35 0 -55 20.5t-20 54.5q0 52 42 68q16 7 2 14q-30 11 -70 11q-70 0 -110.5 -50t-31.5 -136q5 -47 17.5 -61t47.5 -14h65q99 0 163 12q18 3 18 -14v-590z" glyph-name="uniE04D" horiz-adv-x="563" unicode="fj"/><glyph d="M37 -3q-17 0 -17 15v1q0 13 15 17q26 7 36.5 43.5t10.5 115.5v153q0 62 -9.5 92t-34.5 36q-15 4 -15 16t16 15q19 3 28.5 17.5t11 28t1.5 39.5v37q0 76 45 124.5t118 48.5q65 0 101 -44q7 -10 19 -9q55 6 151 32q18 5 18 -14v-388q0 -18 18 -13q105 27 164 60q17 9 -2 20 q-29 18 -29 52q0 25 18.5 42.5t45.5 17.5q25 0 43.5 -17.5t18.5 -42.5q0 -9 -1 -13q-11 -63 -156 -113q-19 -7 -1 -15q66 -24 101 -96l87 -179q19 -39 44 -51q14 -7 14 -14q0 -11 -14 -14q-57 -10 -103 10t-67 63l-91 189q-36 75 -78 68q-12 -3 -12 -18v-120 q0 -79 10.5 -115.5t36.5 -43.5q15 -4 15 -17q0 -16 -17 -16q-43 4 -106 4q-59 0 -104 -4q-17 0 -17 15v1q0 13 15 17q26 7 36.5 43.5t10.5 115.5v408q0 55 -6 78.5t-21 30.5q-8 4 -13 -0.5t-4 -12.5q1 -6 1 -19q0 -29 -19.5 -49t-48.5 -20q-30 0 -50 19.5t-20 49.5 q0 29 20 49t50 20q-7 14 -10 16q-18 5 -35 5q-42 0 -65 -45t-9 -136q8 -53 17.5 -68t41.5 -15h54q16 0 16 -15t-16 -15h-77q-16 0 -16 -16v-265q0 -79 10.5 -115.5t36.5 -43.5q15 -4 15 -17q0 -16 -17 -16q-43 4 -106 4q-59 0 -104 -4z" glyph-name="uniE04E" horiz-adv-x="888" unicode="fk"/><glyph d="M37 -3q-17 0 -17 15v1q0 13 15 17q26 7 36.5 43.5t10.5 115.5v153q0 62 -9.5 92t-34.5 36q-15 4 -15 16t16 15q19 3 28.5 17.5t11 28t1.5 39.5v37q0 76 45 124.5t118 48.5q65 0 101 -44q7 -10 19 -9q55 6 151 32q18 5 18 -14v-572q0 -79 10.5 -115.5t36.5 -43.5 q15 -4 15 -17q0 -16 -17 -16q-43 4 -106 4q-59 0 -104 -4q-17 0 -17 15v1q0 13 15 17q26 7 36.5 43.5t10.5 115.5v408q0 55 -6 78.5t-21 30.5q-8 4 -13 -0.5t-4 -12.5q1 -6 1 -19q0 -29 -19.5 -49t-48.5 -20q-30 0 -50 19.5t-20 49.5q0 29 20 49t50 20q-7 14 -10 16 q-18 5 -35 5q-42 0 -65 -45t-9 -136q8 -53 17.5 -68t41.5 -15h54q16 0 16 -15t-16 -15h-77q-16 0 -16 -16v-265q0 -79 10.5 -115.5t36.5 -43.5q15 -4 15 -17q0 -16 -17 -16q-43 4 -106 4q-59 0 -104 -4z" glyph-name="uniE04F" horiz-adv-x="614" unicode="fl"/><glyph d="M37 -3q-17 0 -17 15v1q0 13 15 17q26 7 36.5 43.5t10.5 115.5v153q0 62 -9.5 92t-34.5 36q-15 4 -15 16t16 15q19 3 28.5 17.5t11 28t1.5 39.5v37q0 77 45 125t119 48q58 0 93.5 -34t34.5 -88q0 -29 -19.5 -49t-48.5 -20q-30 0 -50 19.5t-20 49.5q0 28 18 46.5t42 22.5 q19 3 4 11q-19 10 -41 10q-42 0 -65 -45t-9 -136q8 -53 17.5 -68t41.5 -15h54h3q1 0 3 0.5t3 0.5q76 4 117 52.5t44 162.5q0 17 16 17h3q16 0 16 -16l-1 -201q0 -16 16 -16h55q16 0 16 -16v-2q0 -16 -16 -16h-55q-16 0 -16 -16v-347q0 -47 18.5 -63t49.5 -9q19 5 19 -9v-1 q0 -15 -13 -19q-73 -24 -134 3.5t-61 97.5v284q0 78 -74 83q-3 0 -4 1q-1 -1 -5 -1h-77q-16 0 -16 -16v-265q0 -79 10.5 -115.5t36.5 -43.5q15 -4 15 -17q0 -16 -17 -16q-43 4 -107 4q-59 0 -104 -4z" glyph-name="uniE050" horiz-adv-x="607" unicode="ft"/><glyph d="M80 387q0 77 -72 82q-16 0 -16 16q0 15 16 16q77 4 117 49.5t44 151.5q0 16 16 16h5q16 0 16 -16l-1 -186q0 -16 16 -16h68q83 1 128 46.5t49 155.5q0 16 16 16h5q16 0 16 -16l-1 -186q0 -16 16 -16h51q16 0 16 -16v-2q0 -16 -16 -16h-51q-16 0 -16 -16v-347 q0 -47 16.5 -63t47.5 -9q19 5 19 -9v-1q0 -15 -13 -19q-73 -24 -134 3.5t-61 97.5v284q0 26 -7.5 43t-21 24.5t-24.5 9.5t-26 2h-77q-16 0 -16 -16v-347q0 -47 16.5 -63t47.5 -9q19 5 19 -9v-1q0 -15 -13 -19q-73 -24 -134 3.5t-61 97.5v284z" glyph-name="uniE058" horiz-adv-x="605" unicode="tt"/><glyph d="M422 780v-1030h-326v1030h326zM343 78h-171v-117h171v117zM309 44v-49h-103v49h103zM343 256h-103v-58h35v24h34v-49h-103v83h-34v-117h171v117zM343 381h-34v-68h-137v-35h171v103zM343 443h-171v-34h68v-38h-68v-34h103v72h68v34zM240 543v-37h-34v37h34zM275 578h-103 v-107h171v35h-68v72zM343 711h-170v-34h67v-38h-68v-34h171v34h-68v38h68v34zM343 -63h-171v-34h72l-72 -48v-34h171v34h-105l72 48h33v34z" glyph-name=".notdef" horiz-adv-x="515"/><glyph glyph-name="glyph1"/><glyph glyph-name="glyph2" horiz-adv-x="333"/><glyph glyph-name="space" horiz-adv-x="370" unicode=" "/><glyph glyph-name="space" horiz-adv-x="370" unicode=" "/><glyph d="M145 -7q-31 0 -48 17t-17 48q0 30 17 47t48 17q30 0 47 -17t17 -47q0 -31 -17 -48t-47 -17zM82 637q-3 30 12 46.5t43 16.5h18q28 0 43 -16.5t12 -46.5l-43 -411q-3 -28 -22 -28t-22 28z" glyph-name="exclam" horiz-adv-x="289" unicode="!"/><glyph d="M336 652q5 -33 -16.5 -74.5t-62.5 -64.5q-15 -7 -18 0t9 16q22 15 34 39q9 17 2 19h-5h-7q-31 0 -48 17t-17 48q0 30 17 47t48 17q30 0 47 -17t17 -47zM189 652q5 -33 -16.5 -74.5t-62.5 -64.5q-15 -7 -18 0t9 16q22 15 34 39q9 17 2 19h-5h-7q-31 0 -48 17t-17 48 q0 30 17 47t48 17q30 0 47 -17t17 -47z" glyph-name="quotedbl" horiz-adv-x="397" unicode="&quot;"/><glyph d="M396 700q19 0 13 -18l-58 -164q-6 -18 13 -18h128q14 0 19 13l61 174q5 13 19 13h88q19 0 13 -18l-58 -164q-6 -18 13 -18h66q8 0 12 -3.5t3 -10.5q-2 -15 -17 -15h-80q-14 0 -19 -13l-70 -200q-6 -18 13 -18h58q8 0 12 -3.5t3 -10.5q-2 -15 -17 -15h-71q-14 0 -19 -13 l-64 -185q-5 -13 -19 -13h-89q-19 0 -13 18l62 175q6 18 -14 18l-127 -1q-14 0 -19 -13l-64 -184q-5 -13 -19 -13h-89q-19 0 -13 18l62 174q6 18 -13 18h-65q-17 0 -15 15t17 15h79q14 0 19 13l70 199q6 18 -13 18h-57q-17 0 -15 15t17 15h70q14 0 19 13l61 174q5 13 19 13 h88zM259 258q-6 -18 13 -18h129q14 0 19 13l70 200q6 18 -13 18l-129 -1q-14 0 -19 -13z" glyph-name="numbersign" horiz-adv-x="750" unicode="#"/><glyph d="M306 801q16 0 16 -16v-59q0 -15 15 -18q22 -4 46 -12t34 -11.5t21 -0.5t19 17q7 12 19 12h4q16 0 17 -15l22 -220q2 -17 -10 -17t-16 13q-28 81 -62.5 131t-90.5 69q-8 3 -13 -1t-5 -13v-235q0 -13 12 -18q35 -16 53.5 -25t49 -26.5t47 -34t34.5 -39.5t26 -51.5t8 -61.5 q0 -78 -60 -128.5t-154 -55.5q-16 0 -16 -16v-61q0 -16 -16 -16h-3q-16 0 -16 16v64q0 14 -15 17q-23 4 -51.5 12t-44.5 13t-34 3.5t-31 -14.5q-9 -9 -20 -9h-4q-15 0 -17 15l-23 239q-2 17 11 17q12 0 16 -13q26 -85 76 -147.5t119 -82.5q18 -5 18 14v250q0 14 -12 18 q-34 16 -46.5 21.5t-43 21.5t-43.5 26.5t-34 29.5t-30.5 37.5t-17 43.5t-7.5 54q0 77 58 127t151 50h9q16 0 16 15v55q0 16 16 16h3zM160 572q0 -45 28 -76.5t80 -57.5q8 -4 13.5 -1t5.5 12v219q0 16 -16 16q-46 0 -78.5 -30t-32.5 -82zM322 31l1 -16h1q54 0 86.5 36.5 t32.5 90.5q0 44 -26.5 74.5t-75.5 56.5q-8 4 -13.5 1t-5.5 -12v-231z" glyph-name="dollar" horiz-adv-x="597" unicode="$"/><glyph d="M518 716q9 0 12 -5.5t-1 -13.5l-406 -701q-5 -11 -19 -11h-10q-9 0 -12 5.5t1 13.5l407 701q6 11 19 11h9zM40 599q0 49 36 81.5t90 32.5t90 -32.5t36 -81.5t-36 -81.5t-90 -32.5t-90 32.5t-36 81.5zM94 663q-28 -31 46 -94q75 -66 100 -34q26 29 -46 93q-75 63 -100 35z M326 98q0 49 36 81.5t90 32.5t90 -32.5t36 -81.5t-36 -81.5t-90 -32.5t-90 32.5t-36 81.5zM381 163q-27 -32 45 -94q71 -65 99 -36q27 30 -45 94q-71 64 -99 36z" glyph-name="percent" horiz-adv-x="618" unicode="%"/><glyph d="M427 240q-3 -11 -18 -7q-32 8 -52 32.5t-17 55.5q4 46 51.5 69.5t121.5 18.5q124 42 152 63q-12 -5 -23 -5q-26 0 -44.5 17t-18.5 42q0 24 18.5 41t44.5 17q24 0 42 -18q23 -18 26.5 -56t-24.5 -80.5t-87 -63.5q-18 -6 -1 -14q39 -20 63 -56.5t24 -85.5 q0 -98 -88.5 -161.5t-224.5 -63.5q-159 0 -251 69.5t-91 192.5q1 98 57.5 164t153.5 86q19 5 0 12q-49 20 -72 45t-23 60q0 52 39 77.5t106 25.5q31 0 72.5 -6.5t57.5 -9.5t36 3q13 9 19 9h2q16 0 17 -15l11 -101q2 -17 -8 -17q-9 0 -15 13q-40 90 -143 90q-39 0 -60 -24 t-9 -64q19 -67 133 -95q14 -5 14 -18v-1q0 -8 -3.5 -12.5t-9.5 -3.5l-12 3q-91 13 -154.5 -45t-72.5 -167q-8 -104 48.5 -170t157.5 -66q93 0 149 51.5t56 135.5q-1 42 -15.5 72.5t-35.5 43t-44.5 16t-43 -4t-29.5 -21.5q-8 -15 -5 -30.5t14 -25.5q10 -10 9 -17z" glyph-name="ampersand" horiz-adv-x="745" unicode="&amp;"/><glyph d="M189 654q5 -37 -20.5 -81.5t-73.5 -64.5l-7 15q16 7 34.5 29t19.5 37h-10h-7q-31 0 -48 17t-17 48q0 30 17 47t48 17q30 0 47 -17t17 -47z" glyph-name="quotesingle" horiz-adv-x="250" unicode="'"/><glyph d="M316 771q0 -10 -8 -20q-58 -56 -107 -193.5t-49 -315.5q0 -153 49 -276t106 -179q9 -9 9 -20q0 -18 -18 -13q-104 38 -191 172.5t-87 315.5q0 106 26 201.5t67.5 163t89 113t95.5 64.5q18 7 18 -13z" glyph-name="parenleft" horiz-adv-x="326" unicode="("/><glyph d="M18 751q-8 10 -8 20q0 8 5 12t13 1q48 -19 95.5 -64.5t89 -113t67.5 -163t26 -201.5q0 -181 -87 -315.5t-191 -171.5q-18 -5 -18 10v3q0 11 9 20q57 55 106 178t49 276q0 178 -49 315.5t-107 193.5z" glyph-name="parenright" horiz-adv-x="326" unicode=")"/><glyph d="M243 541q-13 -13 -22 3q-2 3 -5.5 8.5t-5.5 7.5q-7 10 -14 7t-5 -15l3 -20q3 -17 -14 -17h-24q-17 0 -14 17l3 19q2 12 -5 15.5t-14 -6.5q-9 -13 -11 -16q-9 -16 -22 -3l-17 17q-13 13 3 22l16 12q10 8 7 14.5t-15 4.5l-19 -3q-18 -5 -18 13v24q0 16 18 13l20 -3 q12 -2 15 5t-7 14q-11 9 -17 12q-15 10 -3 22l17 17q13 13 22 -3q6 -9 12 -17q7 -10 14 -6.5t5 15.5l-3 19q-5 18 13 18h24q16 0 13 -18l-3 -20q-2 -12 5 -15t14 7q9 10 12 17q10 15 22 3l17 -17q12 -12 -3 -22q-3 -2 -8.5 -5.5t-7.5 -5.5q-10 -7 -7 -14t15 -6l10 2.5t9 1.5 q18 3 18 -14v-24q0 -17 -17 -14l-19 3q-11 2 -14.5 -5t6.5 -14l15 -11q16 -9 3 -22z" glyph-name="asterisk" horiz-adv-x="336" unicode="*"/><glyph d="M100 313q0 16 16 16h129q16 0 16 16v119q0 16 16 16h11q16 0 16 -16v-119q0 -16 16 -16h129q16 0 16 -16v-11q0 -16 -16 -16h-129q-16 0 -16 -16v-119q0 -16 -16 -16h-11q-16 0 -16 16v119q0 16 -16 16h-129q-16 0 -16 16v11z" glyph-name="plus" horiz-adv-x="565" unicode="+"/><glyph d="M189 58q5 -33 -16.5 -74.5t-62.5 -64.5q-15 -7 -18 0t9 16q22 15 34 39q9 17 2 19h-5h-7q-31 0 -48 17t-17 48q0 30 17 47t48 17q30 0 47 -17t17 -47z" glyph-name="comma" horiz-adv-x="250" unicode=","/><glyph d="M100 313q0 16 16 16h333q16 0 16 -16v-11q0 -16 -16 -16h-333q-16 0 -16 16v11z" glyph-name="hyphen" horiz-adv-x="565" unicode="-"/><glyph d="M125 -6q-31 0 -48 17t-17 48q0 30 17 47t48 17q30 0 47 -17t17 -47q0 -31 -17 -48t-47 -17z" glyph-name="period" horiz-adv-x="249" unicode="."/><glyph d="M375 780q19 0 13 -18l-360 -999q-5 -13 -19 -13h-9q-19 0 -13 18l361 999q5 13 19 13h8z" glyph-name="slash" horiz-adv-x="405" unicode="/"/><glyph d="M308 -15q-128 -1 -200.5 69t-72.5 196t72.5 196t200.5 69t200.5 -71t72.5 -194t-72.5 -194t-200.5 -71zM165 235q12 -113 56.5 -171t111.5 -51q67 8 98.5 74.5t19.5 177.5q-11 111 -55.5 170t-112.5 52q-67 -7 -98.5 -73.5t-19.5 -178.5z" glyph-name="zero" horiz-adv-x="616" unicode="0"/><glyph d="M212 189q0 -79 10.5 -115.5t36.5 -43.5q15 -4 15 -17q0 -16 -17 -16q-43 4 -106 4q-59 0 -104 -4q-17 0 -17 15v1q0 13 15 17q26 7 36.5 43.5t10.5 115.5v144q0 69 -9.5 94t-36.5 28q-15 1 -15 17v2q0 16 16 16q68 5 147 22q18 3 18 -14v-309z" glyph-name="one" horiz-adv-x="304" unicode="1"/><glyph d="M56 0q-16 0 -16 16q3 96 40 146.5t128 83.5t125 70t33 87q-1 39 -29.5 61t-69.5 21q-61 -1 -103 -51t-79 -159q-4 -14 -15 -14q-12 0 -10 17l19 216q1 15 16 15h2q12 0 19 -12q9 -17 19 -17.5t24 8t53 18t90 9.5q88 0 142 -35t54 -96q0 -59 -52 -98.5t-167 -66.5 q-74 -18 -116.5 -40t-62.5 -53q-5 -8 -1 -13.5t13 -5.5l255 2q54 1 73.5 17.5t28.5 71.5q1 8 5 12t9 3q12 -2 10 -17l-18 -185q-1 -15 -18 -15q-43 4 -106 4h-295z" glyph-name="two" horiz-adv-x="543" unicode="2"/><glyph d="M172 176q-13 -3 -18 8q-5 12 -2 12l4 1q87 29 130 69t41 110q-3 108 -100 108q-49 0 -79.5 -34t-61.5 -126q-6 -14 -16 -14q-12 0 -10 17l11 167q1 15 16 15h2q9 0 19 -10q17 -7 29 -3.5t47.5 11.5t68.5 8q95 0 151 -37.5t57 -103.5q2 -100 -159 -161q91 -10 150 -63.5 t60 -132.5q2 -99 -69.5 -165.5t-186.5 -66.5q-31 0 -61 6.5t-46.5 12.5t-32 6t-25.5 -10q-9 -10 -19 -10h-1q-16 0 -17 15l-13 218q-2 16 12 16q12 0 15 -15q41 -205 167 -205q68 0 107 51.5t37 132.5q-2 99 -51 145.5t-143 30.5z" glyph-name="three" horiz-adv-x="552" unicode="3"/><glyph d="M510 -72q0 -16 -13 -16q-14 0 -15 16q-3 22 -16.5 32t-45.5 11q-17 2 -17 -16q2 -67 12.5 -98.5t34.5 -37.5q15 -5 15 -17q0 -16 -17 -16q-43 4 -106 4q-59 0 -104 -4q-17 0 -17 15v1q0 12 15 17q24 6 34.5 37.5t12.5 98.5q0 17 -16 17h-245q-9 0 -12 5.5t1 13.5l282 498 q5 11 19 11h75q16 0 16 -16v-468q0 -17 17 -15q32 1 45.5 11t16.5 32q1 16 15 16q13 0 13 -16v-116zM61 19q-4 -8 -1 -13.5t12 -5.5h195q16 0 16 16v358q0 12 -6.5 13.5t-12.5 -8.5z" glyph-name="four" horiz-adv-x="540" unicode="4"/><glyph d="M117 490q1 14 17 14q44 -4 108 -4h105q62 0 105 4q18 0 16 -16l-9 -191q0 -16 -12 -16q-11 0 -14 15q-6 60 -28 83t-85 23l-163 1q-15 0 -17 -15l-23 -142q-1 -10 3.5 -13.5t14.5 -0.5q104 30 187 11.5t134 -78t51 -138.5q0 -102 -70 -172t-181 -70q-31 0 -61 6 t-46.5 11.5t-31.5 5t-25 -10.5q-9 -10 -19 -10h-1q-16 0 -17 15l-14 220q-2 17 11 17q12 0 15 -15q41 -205 168 -205q64 0 102.5 56.5t36.5 137.5q-2 106 -71 159.5t-185 20.5q-12 -4 -21 5l-9 8q-8 8 -7 20z" glyph-name="five" horiz-adv-x="547" unicode="5"/><glyph d="M325 14q66 2 96.5 66t22.5 179q-8 111 -48 170.5t-105 56.5q-61 -3 -94.5 -68t-25.5 -175t48.5 -170.5t105.5 -58.5zM61 158q-20 58 -25 130t9.5 147t46 137.5t93 102.5t142.5 40q27 0 54 -6.5t34 -9.5t19 3q11 11 18 11h3q15 0 18 -14l30 -150q3 -17 -10 -17h-1 q-14 0 -18 12q-30 64 -70 102.5t-82 38.5q-62 0 -104 -48t-58 -138q-2 -11 3.5 -14.5t15.5 1.5q57 31 129 31q116 0 188.5 -75.5t72.5 -190.5q0 -116 -72.5 -191.5t-188.5 -75.5q-91 0 -156 47t-91 127z" glyph-name="six" horiz-adv-x="604" unicode="6"/><glyph d="M127 -211q-9 0 -12.5 5.5t0.5 13.5l279 575q4 8 0.5 13.5t-12.5 5.5h-195q-62 0 -91.5 -24.5t-41.5 -81.5q-3 -15 -16 -15q-14 0 -12 17l16 191q1 15 17 15q43 -4 106 -4h305q19 0 13 -18l-252 -680q-5 -13 -19 -13h-85z" glyph-name="seven" horiz-adv-x="490" unicode="7"/><glyph d="M97 565q0 64 58 107.5t139 43.5q80 0 134 -36.5t55 -91.5q3 -82 -103 -128q-21 -9 -1 -19q43 -22 72.5 -41.5t60.5 -48t46.5 -65.5t15.5 -82q0 -95 -76.5 -157t-199.5 -62q-122 0 -195.5 56.5t-72.5 145.5q1 70 48 125t123 85q21 8 1 20q-50 31 -77.5 65t-27.5 83z M146 183q2 -72 42.5 -120.5t110.5 -48.5q77 0 120.5 47.5t43.5 109.5q0 24 -7 45.5t-14.5 37t-27 33.5t-30 27t-38.5 25t-38 21.5t-42 21.5q-11 6 -21 0q-48 -30 -74.5 -82.5t-24.5 -116.5zM194 594q0 -20 9.5 -37.5t30.5 -33.5t40 -27t52 -28q12 -6 22 4q55 55 54 125 q-1 43 -29 66.5t-79 23.5q-45 0 -72.5 -25.5t-27.5 -67.5z" glyph-name="eight" horiz-adv-x="604" unicode="8"/><glyph d="M279 485q-66 -2 -96.5 -66t-22.5 -179q8 -111 48 -170.5t105 -56.5q61 3 94.5 68t25.5 175t-48.5 170.5t-105.5 58.5zM35 248q0 116 72.5 191.5t188.5 75.5q91 0 156 -47t91 -127q20 -58 25 -130t-9.5 -147t-46 -137.5t-93 -102.5t-142.5 -40q-27 0 -54 6.5t-34 9.5 t-19 -3q-11 -11 -18 -11h-3q-15 0 -18 14l-30 150q-3 17 11 17t18 -12q30 -64 70 -102.5t82 -38.5q62 0 104 48t58 138q2 11 -3.5 14.5t-15.5 -1.5q-57 -31 -129 -31q-116 0 -188.5 75.5t-72.5 190.5z" glyph-name="nine" horiz-adv-x="604" unicode="9"/><glyph d="M165 -6q-31 0 -48 17t-17 48q0 30 17 47t48 17q30 0 47 -17t17 -47q0 -31 -17 -48t-47 -17zM100 337q0 30 17 47t48 17q30 0 47 -17t17 -47q0 -31 -17 -48t-47 -17q-31 0 -48 17t-17 48z" glyph-name="colon" horiz-adv-x="329" unicode=":"/><glyph d="M165 272q-31 0 -48 17t-17 48q0 30 17 47t48 17q30 0 47 -17t17 -47q0 -31 -17 -48t-47 -17zM100 60q0 30 17 47t48 17q30 0 47 -17t17 -47q5 -33 -16.5 -74.5t-62.5 -64.5q-15 -7 -18 0t9 16q22 15 34 39q9 17 2 19h-5h-7q-31 0 -48 17t-17 48z" glyph-name="semicolon" horiz-adv-x="330" unicode=";"/><glyph d="M289 456q4 -13 -8 -21q-50 -28 -86.5 -74t-36.5 -91q0 -41 36.5 -85t86.5 -71q12 -8 8 -20q-5 -14 -21 -8q-95 41 -156.5 92.5t-61.5 91.5q0 44 61.5 98t156.5 96q16 6 21 -8z" glyph-name="less" horiz-adv-x="344" unicode="&lt;"/><glyph d="M100 373q0 16 16 16h333q16 0 16 -16v-11q0 -16 -16 -16h-333q-16 0 -16 16v11zM116 196q-16 0 -16 16v11q0 16 16 16h333q16 0 16 -16v-11q0 -16 -16 -16h-333z" glyph-name="equal" horiz-adv-x="565" unicode="="/><glyph d="M45 94q-4 13 8 21q50 28 86.5 74t36.5 91q0 41 -36.5 85t-86.5 71q-12 8 -8 21t20 7q95 -41 157 -92.5t62 -91.5q0 -44 -61.5 -98t-156.5 -96q-16 -6 -21 8z" glyph-name="greater" horiz-adv-x="324" unicode=">"/><glyph d="M210 175q-16 0 -16 16q0 51 17.5 91.5t43.5 68.5t51.5 55t43.5 64t18 83q0 62 -29.5 95.5t-87.5 33.5q-57 0 -99.5 -50t-75.5 -160q-3 -11 -14 -11q-12 0 -10 18l19 215q2 15 13 15h3q8 0 13 -8q8 -15 21 -16t29 6t48 15t67 8q100 0 159.5 -45.5t59.5 -128.5 q0 -49 -24.5 -86.5t-60 -62t-71.5 -49.5t-64 -63.5t-33 -88.5q-2 -15 -16 -15h-5zM151 59q0 30 17 47t48 17q30 0 47 -17t17 -47q0 -31 -17 -48t-47 -17q-31 0 -48 17t-17 48z" glyph-name="question" horiz-adv-x="524" unicode="?"/><glyph d="M401 -14q-64 0 -100 35.5t-36 88.5q0 150 282 211q16 3 14 18l-3 19q-15 111 -78 111q-84 0 -130 -131q-6 -13 -16 -13q-11 0 -9 17l13 136q2 15 15 15q12 0 20 -11q6 -8 11.5 -8.5t14.5 3.5t20 9t32 9.5t47 4.5q79 0 125 -38.5t56 -107.5l38 -269q7 -50 34 -50 q45 0 92.5 65.5t47.5 155.5q0 161 -115 271.5t-281 110.5q-172 0 -291.5 -118t-119.5 -291q0 -171 120 -289t291 -118q151 0 268 100q12 11 22 -2l3 -3q11 -12 -2 -23q-130 -108 -291 -108q-124 0 -228 57t-165.5 159.5t-61.5 227.5q0 189 133 316t322 127q182 0 311 -119.5 t129 -297.5q0 -106 -64 -188t-166 -82q-43 0 -72 26t-36 71l-4 26q-1 7 -4 10t-7.5 0t-7.5 -11q-24 -57 -69.5 -89.5t-103.5 -32.5zM382 130q0 -39 17.5 -61.5t49.5 -22.5q51 0 88.5 65.5t30.5 166.5q-2 19 -32 9q-77 -24 -115.5 -65t-38.5 -92z" glyph-name="at" horiz-adv-x="975" unicode="@"/><glyph d="M295 687q5 13 19 13h23q14 0 19 -13l197 -508q33 -86 51 -115.5t45 -34.5q15 -3 15 -16q0 -16 -17 -16q-47 3 -99 3q-68 0 -130 -3q-16 -2 -16 15q0 16 15 17q34 4 38 31.5t-21 95.5l-24 61q-4 13 -18 13h-214q-14 0 -19 -13l-13 -38q-51 -137 9 -150q15 -3 15 -16 q0 -16 -17 -16q-45 3 -78 3q-19 0 -63 -2q-17 -2 -17 14v1q0 13 15 16q28 5 48 36t52 114zM183 279q-6 -18 13 -18h178q19 0 13 18l-94 247q-4 10 -10.5 10t-10.5 -10z" glyph-name="A" horiz-adv-x="659" unicode="A"/><glyph d="M218 47q0 -16 16 -16h86q85 0 138.5 63.5t53.5 164.5q0 73 -32 121t-88 48q-49 0 -91 -30q-3 -3 -5 -4q-78 -61 -78 -199v-148zM51 0q-16 0 -16 16v1q0 13 15 16q26 6 36.5 39t10.5 111v334q0 78 -10.5 111t-36.5 39q-15 3 -15 16v1q0 16 16 16h200q90 0 142.5 -31 t52.5 -87q0 -57 -57 -114q-4 -4 -3 -5.5t5 -0.5q15 3 32 3q97 0 156.5 -58.5t59.5 -153.5q0 -109 -87.5 -181t-231.5 -72h-269zM218 375q0 -11 5 -12.5t11 8.5q14 23 37 47q76 77 73 163q-3 92 -102 92h-8q-16 0 -16 -16v-282z" glyph-name="B" horiz-adv-x="664" unicode="B"/><glyph d="M380 686q-101 0 -157.5 -79t-55.5 -218q1 -91 30.5 -170t88.5 -130t136 -51q64 0 120.5 27.5t89.5 70.5q11 14 19 6q9 -9 2 -21q-41 -65 -106.5 -101t-144.5 -36q-163 0 -265.5 107t-101.5 275q1 162 96 255.5t267 93.5q30 0 65 -7t56 -13t40 -4.5t28 14.5q8 11 19 11h4 q14 0 16 -15l20 -250q2 -17 -12 -17t-18 16q-31 115 -86 175.5t-150 60.5z" glyph-name="C" horiz-adv-x="695" unicode="C"/><glyph d="M534 366q-2 141 -74.5 223t-195.5 82h-35q-16 0 -16 -16v-608q0 -16 16 -16h35q129 0 201 89.5t69 245.5zM46 0q-16 0 -16 16v1q0 13 15 16q26 6 36.5 39t10.5 111v334q0 78 -10.5 111t-36.5 39q-15 3 -15 16v1q0 16 16 16h219q184 0 291.5 -86t107.5 -248 q0 -176 -108.5 -271t-288.5 -95h-221z" glyph-name="D" horiz-adv-x="699" unicode="D"/><glyph d="M419 700q47 0 67 9q12 5 20 5q14 0 15 -15l24 -238q2 -17 -10 -17q-13 0 -15 15q-18 112 -57.5 162t-136.5 50h-97q-16 0 -16 -16v-254q0 -16 16 -16h43q93 0 83 98q-2 17 11 17q12 0 15 -14l44 -236q3 -17 -9 -17q-13 0 -17 14q-17 56 -46.5 81t-80.5 25h-43 q-16 0 -16 -16v-290q0 -16 16 -16h127q50 0 82 12.5t49 42t24 63t12 91.5q1 16 14 16q12 0 12 -16v-232q0 -17 -18 -14q-11 2 -82 6h-403q-16 0 -16 16v1q0 13 15 16q26 6 36.5 39t10.5 111v334q0 78 -10.5 111t-36.5 39q-15 3 -15 16v1q0 16 16 16h373z" glyph-name="E" horiz-adv-x="599" unicode="E"/><glyph d="M424 700q48 0 67 9q12 5 20 5q13 0 15 -15l24 -238q2 -17 -10 -17q-14 0 -15 15q-18 112 -57.5 162t-136.5 50h-97q-16 0 -16 -16v-254q0 -16 16 -16h43q93 0 83 98q-2 17 11 17q12 0 15 -14l44 -236q3 -17 -9 -17q-13 0 -17 14q-17 56 -46.5 81t-80.5 25h-43 q-16 0 -16 -16v-143q0 -81 10.5 -117t36.5 -42q15 -4 15 -17v-5q0 -15 -16 -15l-46 2h-121l-46 -2q-16 0 -16 15v5q0 12 15 17q26 6 36.5 42t10.5 117v323q0 78 -10.5 111t-36.5 39q-15 3 -15 16v1q0 16 16 16h373z" glyph-name="F" horiz-adv-x="567" unicode="F"/><glyph d="M553 146q0 89 -18 118t-53 31q-16 0 -16 16v2q0 16 16 16h161q16 0 16 -16l1 -148v-21q0 -11 -5 -20q-41 -66 -107 -103t-146 -37q-163 0 -265.5 107t-101.5 275q1 162 96 255.5t267 93.5q30 0 65 -7t56 -13t40 -4.5t28 14.5q8 11 19 11h4q14 0 16 -15l20 -250 q2 -17 -12 -17q-13 0 -18 14q-30 116 -85 177t-151 61q-101 0 -158 -78.5t-56 -218.5q1 -92 31 -171t89 -129.5t136 -50.5q64 0 120 27q11 5 11 19v62z" glyph-name="G" horiz-adv-x="710" unicode="G"/><glyph d="M35 688q0 15 17 15q51 -3 104 -3q56 0 107 3q16 0 16 -15v-1q0 -13 -15 -17q-26 -7 -36.5 -44t-10.5 -119v-109q0 -16 16 -16h263q16 0 16 16v109q0 82 -10.5 119t-36.5 44q-15 4 -15 17q0 16 17 16q51 -3 104 -3q56 0 107 3q16 0 16 -15v-1q0 -13 -15 -17 q-26 -7 -36.5 -44t-10.5 -119v-313q0 -82 10.5 -119t36.5 -44q15 -4 15 -17q0 -16 -16 -16q-51 3 -107 3q-53 0 -104 -3q-17 0 -17 15v1q0 12 15 17q26 7 36.5 44t10.5 119v141q0 16 -16 16h-263q-16 0 -16 -16v-141q0 -82 10.5 -119t36.5 -44q15 -4 15 -17q0 -16 -16 -16 q-51 3 -107 3q-53 0 -104 -3q-17 0 -17 15v1q0 12 15 17q26 7 36.5 44t10.5 119v313q0 82 -10.5 119t-36.5 44q-15 4 -15 17v1z" glyph-name="H" horiz-adv-x="729" unicode="H"/><glyph d="M40 688q0 15 17 15q51 -3 104 -3q55 0 106 3q16 0 16 -15v-1q0 -13 -15 -17q-26 -7 -36.5 -44t-10.5 -119v-313q0 -82 10.5 -119t36.5 -44q15 -4 15 -17q0 -16 -16 -16q-51 3 -106 3q-53 0 -104 -3q-17 0 -17 15v1q0 12 15 17q26 7 36.5 44t10.5 119v313q0 82 -10.5 119 t-36.5 44q-15 4 -15 17v1z" glyph-name="I" horiz-adv-x="323" unicode="I"/><glyph d="M180 688q0 15 17 15q51 -3 104 -3q56 0 107 3q16 0 16 -15v-1q0 -13 -15 -17q-26 -7 -36.5 -44t-10.5 -119v-341q0 -83 -55 -132t-142 -49q-66 0 -110.5 36.5t-44.5 92.5q0 29 19.5 48.5t48.5 19.5q28 0 47 -19.5t19 -48.5q0 -40 -32 -58q-18 -10 -5 -20q22 -17 54 -17 q35 0 58 32.5t23 88.5v367q0 82 -10.5 119t-36.5 44q-15 4 -15 17v1z" glyph-name="J" horiz-adv-x="439" unicode="J"/><glyph d="M430 -3q-7 -1 -11.5 3.5t-4.5 12.5v1q0 13 15 16q34 4 16 47q-14 33 -62 102l-106 154q-11 16 -23 1l-30 -37q-7 -10 -7 -20v-83q0 -82 10.5 -119t36.5 -44q15 -4 15 -17q0 -16 -16 -16q-51 3 -107 3q-53 0 -104 -3q-17 0 -17 15v1q0 12 15 17q26 7 36.5 44t10.5 119v313 q0 82 -10.5 119t-36.5 44q-15 4 -15 17q0 16 17 16q51 -3 104 -3q56 0 107 3q16 0 16 -15v-1q0 -13 -15 -17q-26 -7 -36.5 -44t-10.5 -119v-139q0 -11 6.5 -13.5t13.5 6.5l150 186q25 32 38 50.5t22 36t6.5 26t-14.5 11.5q-15 3 -15 16q0 16 17 16q45 -3 79 -3q19 0 63 2 q17 2 17 -14v-1q0 -15 -15 -16q-40 -6 -80 -40t-98 -105l-54 -69q-9 -11 -1 -22l177 -263q69 -100 90 -120q19 -17 39 -21q15 -3 15 -17v-1q0 -16 -16 -16q-51 3 -107 3q-62 0 -120 -3z" glyph-name="K" horiz-adv-x="673" unicode="K"/><glyph d="M156 0q-70 0 -105 -2q-16 0 -16 15v1q0 12 15 17q26 7 36.5 44t10.5 119v313q0 82 -10.5 119.5t-36.5 44.5q-15 5 -15 17q0 15 17 15q52 -3 106 -3q55 0 106 3q16 0 16 -14v-1q0 -12 -15 -17q-26 -7 -36.5 -44.5t-10.5 -119.5v-459q0 -16 16 -16h115q40 0 68.5 9.5 t45.5 25t27.5 44t15 56.5t8.5 73q1 16 15 16q12 0 12 -16l-8 -227q0 -17 -17 -15q-39 2 -115 2h-245z" glyph-name="L" horiz-adv-x="572" unicode="L"/><glyph d="M422 0q-13 0 -17 13l-178 454q-3 7 -7 9.5t-8 -0.5t-5 -10l-68 -287q-18 -77 -15 -110.5t31 -38.5q15 -3 14 -17v-1q-1 -15 -17 -15q-42 3 -73 3q-18 0 -62 -2q-8 -1 -12.5 3t-3.5 12v1q1 13 15 16q29 6 49 39.5t39 109.5l86 363q3 11 -1 21q-41 94 -86 105q-15 5 -15 17 v1q0 17 17 15q38 -2 78 -2q15 0 69 3q15 1 19 -12l180 -463q4 -11 10.5 -10.5t10.5 11.5l108 330q3 12 -1 22q-29 78 -77 89q-15 1 -15 16v1q0 16 17 16q33 -3 82 -3q27 0 40 1h6q5 0 15 0.5t15 1.5h15v-2l45 -180l85 -341q19 -74 39 -108.5t50 -40.5q15 -3 15 -16v-1 q0 -16 -17 -16q-48 3 -104 3q-66 0 -124 -3q-15 -2 -17 15v1q-1 13 14 18q52 11 21 144l-76 305q-2 8 -6 11t-8 0t-6 -10l-151 -468q-4 -13 -15 -13z" glyph-name="M" horiz-adv-x="911" unicode="M"/><glyph d="M213 13q0 -15 -17 -15q-39 3 -68 3q-21 0 -67 -2q-17 -2 -17 14v1q0 13 15 16q29 7 40.5 43t11.5 117v405q0 10 -7 20q-41 46 -74 54q-15 1 -15 16v1q0 16 17 16q34 -3 66 -3q42 0 88 3q13 1 20 -9l335 -471q7 -9 13.5 -6.5t6.5 13.5v281q0 81 -11.5 117t-40.5 43 q-15 3 -15 16q0 17 17 15q46 -2 66 -2q30 0 69 3q17 0 17 -15v-1q0 -13 -15 -16q-29 -7 -40.5 -43t-11.5 -117v-494q0 -16 -16 -16h-19q-12 0 -19 10l-369 516l-8 9q-7 9 -13 7t-6 -13v-339q0 -81 11.5 -117t40.5 -43q15 -3 15 -16v-1z" glyph-name="N" horiz-adv-x="688" unicode="N"/><glyph d="M388 -15q-156 -1 -254.5 103t-98.5 262t98.5 262t254.5 103t254.5 -104.5t98.5 -260.5t-98.5 -260.5t-254.5 -104.5zM176 328q17 -159 81.5 -242t164.5 -72q101 11 148 105.5t30 252.5q-17 159 -81.5 241.5t-164.5 72.5q-102 -10 -148.5 -104.5t-29.5 -253.5z" glyph-name="O" horiz-adv-x="776" unicode="O"/><glyph d="M470 505q0 77 -40 121t-112 44h-85q-16 0 -16 -16v-307q0 -16 16 -16h85q72 0 112 46.5t40 127.5zM52 -2q-17 0 -17 15v1q0 12 15 17q26 7 36.5 44t10.5 119v323q0 78 -10.5 111t-36.5 39q-15 3 -15 16v1q0 16 16 16h296q123 0 188.5 -50.5t65.5 -144.5q0 -99 -65.5 -152 t-188.5 -53h-114q-16 0 -16 -16v-90q0 -82 10.5 -119t36.5 -44q15 -4 15 -17q0 -16 -16 -16q-51 3 -107 3q-53 0 -104 -3z" glyph-name="P" horiz-adv-x="631" unicode="P"/><glyph d="M422 14q101 11 148 105.5t30 252.5q-17 159 -81.5 241.5t-164.5 72.5q-102 -10 -148.5 -104.5t-29.5 -253.5t81.5 -242t164.5 -72zM35 350q0 158 98.5 262t254.5 103t254.5 -104.5t98.5 -260.5q0 -141 -80 -240.5t-212 -119.5q-21 -3 -3 -15q21 -12 54 -37t57 -39.5 t45 -14.5q30 0 42 17.5t11.5 38.5t12.5 38.5t45 17.5q23 0 37 -16.5t13 -42.5q-2 -42 -49 -70.5t-116 -28.5q-60 0 -116 19t-91.5 41t-79.5 41t-83 19q-37 0 -83 -25q-18 -12 -18 0q0 1 1 3l3 10q3 11 12 17q38 28 86 41q7 1 10 3.5t1 5.5t-7 5q-92 42 -145 130.5t-53 201.5 z" glyph-name="Q" horiz-adv-x="776" unicode="Q"/><glyph d="M638 30q18 -4 19 -16q2 -13 -12 -15q-153 -20 -211 106l-35 77q-42 93 -77.5 135.5t-84.5 42.5h-4q-16 0 -16 -16v-150q0 -82 10.5 -119t36.5 -44q15 -4 15 -17q0 -16 -16 -16q-51 3 -107 3q-53 0 -104 -3q-17 0 -17 15v1q0 12 15 17q26 7 36.5 44t10.5 119v323 q0 78 -10.5 111t-36.5 39q-15 3 -15 16v1q0 16 16 16h311q100 0 157 -47.5t57 -122.5q0 -73 -55 -120.5t-152 -49.5q62 -25 100.5 -71.5t65.5 -116.5q51 -130 103 -142zM217 407q0 -16 16 -16h98q55 0 84.5 38t29.5 101t-29.5 101.5t-84.5 38.5h-98q-16 0 -16 -16v-247z" glyph-name="R" horiz-adv-x="662" unicode="R"/><glyph d="M318 -15q-34 0 -69.5 8.5t-56.5 16.5t-43 8t-38 -15q-9 -9 -20 -9h-4q-15 0 -17 15l-23 239q-2 17 11 17t17 -13q30 -100 95 -167t154 -67q54 0 86 37.5t32 91.5q0 37 -21.5 66.5t-56 49.5t-76 38t-83 38.5t-75.5 45.5t-55.5 64t-21.5 89q0 77 58 127t151 50 q45 0 84 -8.5t56 -16.5t31 -7t24 18q7 12 19 12h4q16 0 17 -15l22 -220q2 -17 -11 -17t-17 13q-34 102 -84.5 156t-135.5 54q-46 0 -77.5 -30t-31.5 -82q0 -41 29 -73t72 -51t94 -44t94 -50.5t72 -72t29 -107.5q0 -82 -67 -135.5t-167 -53.5z" glyph-name="S" horiz-adv-x="587" unicode="S"/><glyph d="M458 700q49 3 65 9q12 5 20 5h1q16 0 16 -16v-173q0 -16 -11 -16q-13 0 -14 15q-5 32 -12 54t-21.5 46t-41 36t-65.5 12h-25q-16 0 -16 -16v-463q0 -82 10.5 -119t36.5 -44q15 -4 15 -17q0 -16 -17 -16q-48 3 -104 3q-51 0 -102 -3q-17 0 -17 15v1q0 13 15 17 q24 6 34.5 36.5t12.5 95.5l-2 494q0 16 -16 16h-9q-44 0 -74 -12t-46 -35.5t-23.5 -45.5t-12.5 -55q-1 -15 -13 -15t-12 16v173q0 16 14 16h3q8 0 20 -5q16 -6 65 -9h326z" glyph-name="T" horiz-adv-x="590" unicode="T"/><glyph d="M585 234q0 -113 -66.5 -177.5t-178.5 -64.5q-120 0 -189 64t-69 178v272q0 82 -10.5 119t-36.5 44q-15 5 -15 17q0 16 16 16q51 -3 108 -3q53 0 104 3q17 0 17 -15v-1q0 -12 -15 -17q-26 -7 -36.5 -44t-10.5 -119v-267q0 -94 45.5 -147t117.5 -53q86 0 135.5 53.5 t49.5 146.5v271q0 79 -10.5 115.5t-36.5 43.5q-15 5 -15 17q0 16 17 16q39 -3 63 -3q17 0 61 2q17 2 17 -14v-1q0 -12 -15 -17q-26 -7 -36.5 -43.5t-10.5 -115.5v-276z" glyph-name="U" horiz-adv-x="657" unicode="U"/><glyph d="M240 702q15 2 17 -15v-1q1 -13 -14 -18q-25 -5 -24.5 -38.5t28.5 -109.5l127 -339q4 -11 10.5 -11t10.5 11l119 351q23 69 23 99.5t-22 36.5q-15 5 -14 17v2q1 15 17 15q40 -3 69 -3q17 0 61 2q8 1 12.5 -2.5t3.5 -11.5v-2q-2 -15 -16 -16q-30 -5 -54 -39t-50 -110 l-172 -507q-5 -13 -18 -13h-26q-14 0 -19 13l-192 507q-31 79 -53.5 111.5t-53.5 37.5q-15 1 -15 16v1q0 16 16 16q51 -3 106 -3q64 0 123 3z" glyph-name="V" horiz-adv-x="655" unicode="V"/><glyph d="M240 702q15 2 17 -15v-1q1 -13 -14 -18q-25 -5 -24.5 -38.5t28.5 -109.5l127 -339q4 -11 10.5 -11t10.5 11l58 171q4 13 0 21l-56 147q-31 79 -53.5 111.5t-53.5 37.5q-15 1 -15 16v1q0 16 16 16q51 -3 106 -3q32 0 106 2v2q3 0 8 -0.5t7 -0.5h2q16 0 16 -1q18 -2 51 -2 q17 0 61 2q8 1 12.5 -2.5t3.5 -11.5v-2q-2 -15 -16 -16q-30 -5 -54 -39t-50 -110l-6 -19q-1 -4 0 -10l116 -310q4 -11 10.5 -11t10.5 11l119 351q23 70 23.5 100t-21.5 36q-15 5 -14 17v2q1 15 17 15q39 -3 68 -3q17 0 61 2q8 1 12.5 -2.5t3.5 -11.5v-2q-2 -15 -16 -16 q-30 -5 -54 -39t-50 -110l-172 -507q-5 -13 -18 -13h-26q-14 0 -19 13l-103 273q-4 11 -10.5 11t-10.5 -11l-93 -273q-5 -13 -18 -13h-26q-14 0 -19 13l-192 507q-31 79 -53.5 111.5t-53.5 37.5q-15 1 -15 16v1q0 16 16 16q51 -3 106 -3q64 0 123 3zM512 565q1 -4 3.5 -5.5 t5 0t3.5 5.5q15 49 14 72.5t-19 29.5q-35 -12 -7 -102z" glyph-name="W" horiz-adv-x="935" unicode="W"/><glyph d="M449 687q1 15 17 15q44 -3 78 -3q19 0 63 2q8 1 12.5 -2.5t3.5 -11.5v-2q-1 -15 -16 -16q-36 -5 -67.5 -37.5t-78.5 -108.5l-80 -133q-7 -12 -1 -22l107 -194q45 -75 72 -106.5t55 -37.5q15 -3 15 -16v-1q0 -16 -16 -16q-53 3 -112 3q-63 0 -120 -3q-16 0 -17 15v1 q-1 14 15 17q25 4 24 28t-28 76l-25 45q0 1 -0.5 1t-0.5 1l-49 90q-4 9 -11 9t-11 -8l-62 -104q-22 -37 -33.5 -60t-16.5 -40.5t0.5 -26t20.5 -11.5q16 -3 15 -17v-1q-1 -15 -17 -15q-43 3 -79 3q-20 0 -66 -2q-8 -1 -12.5 3t-3.5 12v1q2 15 16 16q31 5 59 32.5t68 90.5 l97 160q7 12 1 22l-100 183q-41 73 -70.5 108.5t-59.5 41.5q-15 5 -15 17v1q0 16 16 16q55 -3 114 -3q64 0 123 3q15 2 17 -15v-1q1 -14 -15 -17q-27 -4 -27.5 -29.5t24.5 -74.5l73 -134q5 -9 11 -8.5t11 8.5l85 140q28 49 31 70.5t-19 27.5q-16 3 -15 17v1z" glyph-name="X" horiz-adv-x="649" unicode="X"/><glyph d="M439 687q1 15 17 15q41 -3 72 -3q18 0 60 2q8 1 12.5 -2.5t3.5 -11.5v-2q-2 -15 -15 -16q-29 -6 -54.5 -39t-61.5 -111l-98 -210q-4 -8 -4 -19v-76q0 -167 48 -183q14 -5 14 -17v-1q0 -15 -16 -15l-46 2h-120l-46 -2q-16 0 -16 15v1q0 12 14 17q48 16 48 183v49 q0 7 -5 19l-116 238h-1q-40 80 -62.5 111.5t-50.5 37.5q-14 3 -15 16v1q-2 16 16 16q49 -3 106 -3q67 0 125 3q15 2 17 -15v-1q1 -15 -15 -17q-34 -5 -31.5 -38t42.5 -111l82 -159q5 -9 10.5 -9.5t10.5 9.5l74 158q65 137 15 149q-15 5 -14 18v1z" glyph-name="Y" horiz-adv-x="610" unicode="Y"/><glyph d="M523 191q11 0 9 -17l-13 -174q-1 -15 -14 -15h-2q-8 0 -20 5q-27 10 -108 10h-328q-9 0 -12.5 5.5t0.5 13.5l338 630q4 8 0.5 13.5t-12.5 5.5h-167q-64 0 -93.5 -37.5t-40.5 -97.5q-3 -14 -13 -14q-12 0 -10 17l13 163q2 15 14 15h2q8 0 20 -5q20 -9 65 -9h354 q9 0 12.5 -5.5t-0.5 -13.5l-339 -630q-6 -12 -3 -16.5t18 -4.5h205q84 0 112 146q2 15 13 15z" glyph-name="Z" horiz-adv-x="563" unicode="Z"/><glyph d="M319 759q0 -16 -16 -16q-60 1 -74 -8q-23 -13 -26 -84q0 -10 3 -280q1 -69 1 -136q0 -95 -3 -229q-3 -166 9 -193.5t90 -26.5q16 0 16 -16v-4q0 -16 -16 -16q-41 0 -66 3t-53 13t-43.5 30.5t-31 54.5t-23 86.5t-12 125.5t-4.5 172q0 80 1.5 144.5t7 116t10 91t15.5 69 t19.5 50t25.5 34.5t29.5 21.5t36 12t41 5.5t47.5 1q16 0 16 -16v-5z" glyph-name="bracketleft" horiz-adv-x="339" unicode="["/><glyph d="M17 762q-6 18 13 18h8q14 0 19 -13l361 -999q6 -18 -13 -18h-9q-14 0 -19 13z" glyph-name="backslash" horiz-adv-x="405" unicode="\"/><glyph d="M36 743q-16 0 -16 16v5q0 16 16 16q30 0 47.5 -1t41 -5.5t36 -12t29.5 -21.5t25.5 -34.5t19.5 -50t15.5 -69t10 -91t7 -116t1.5 -144.5q0 -99 -4.5 -172t-12 -125.5t-23 -86.5t-31 -54.5t-43.5 -30.5t-53 -13t-66 -3q-16 0 -16 16v4q0 16 16 16q45 -1 59.5 2.5t30.5 24 t10 65.5t-1 128q-3 134 -3 229q0 110 3 264q3 184 -8.5 214.5t-83.5 29.5h-7z" glyph-name="bracketright" horiz-adv-x="339" unicode="]"/><glyph d="M50 -22q0 16 16 16h333q16 0 16 -16v-11q0 -16 -16 -16h-333q-16 0 -16 16v11z" glyph-name="underscore" horiz-adv-x="465" unicode="_"/><glyph d="M261 592q-3 -7 -18 -2l-193 61q-16 5 -8 21l13 27q7 15 21 7l175 -100q12 -8 10 -14z" glyph-name="grave" horiz-adv-x="293" unicode="`"/><glyph d="M176 -14q-66 0 -103.5 36.5t-37.5 91.5q0 154 292 218q16 3 14 18l-3 20q-17 113 -81 113q-84 0 -130 -134q-4 -13 -18 -13t-12 17l14 141q1 15 16 15h2q11 0 19 -11q6 -8 12 -9t15 3t20 9.5t33 10t48 4.5q81 0 128 -39.5t58 -111.5l40 -277q5 -34 10.5 -48t16.5 -16 q16 -3 16 -11q0 -13 -14 -16q-63 -12 -104.5 11t-48.5 78l-4 28q-1 7 -4 9.5t-7.5 -0.5t-7.5 -11q-25 -59 -72 -92.5t-107 -33.5zM156 134q0 -40 17.5 -62.5t50.5 -22.5q52 0 90.5 68.5t32.5 170.5q0 19 -31 9q-80 -25 -120 -68t-40 -95z" glyph-name="a" horiz-adv-x="560" unicode="a"/><glyph d="M79 0q-13 0 -13 16v581q0 74 -9 97t-36 25q-16 0 -16 16v3q0 16 16 16q68 5 147 22q18 3 18 -14v-340q0 -7 2 -10.5t5.5 -1.5t6.5 9q23 44 63.5 69.5t88.5 25.5q95 0 155 -68.5t60 -175.5q0 -119 -67.5 -202t-183.5 -83q-32 0 -70 13t-62.5 24.5t-48.5 11.5t-37 -22 q-8 -12 -19 -12zM186 200q1 -89 35 -137t95 -48q44 0 71.5 39.5t36 87.5t8.5 104q0 96 -27 160t-85 63q-56 -1 -95 -64t-39 -158v-47z" glyph-name="b" horiz-adv-x="602" unicode="b"/><glyph d="M420 307q-27 0 -45.5 17.5t-18.5 43.5q0 37 35 54q18 7 6 19q-36 42 -98 42q-56 0 -96.5 -54.5t-40.5 -146.5q0 -106 43.5 -173t114.5 -67q89 0 143 67q9 13 18 8q10 -7 2 -19q-30 -53 -79.5 -82.5t-111.5 -29.5q-112 0 -184.5 74t-72.5 191q0 121 72.5 193t185.5 72 q76 0 132.5 -45t56.5 -103q0 -26 -18.5 -43.5t-43.5 -17.5z" glyph-name="c" horiz-adv-x="510" unicode="c"/><glyph d="M595 11q0 -15 -17 -13q-72 5 -129 -1q-19 -2 -22 16l-3 25q-3 23 -19 4q-49 -58 -140 -58q-102 0 -166 69.5t-64 182.5q0 132 58.5 205t165.5 73q93 0 139 -75q6 -10 10.5 -8.5t4.5 12.5v154q0 69 -9.5 94t-36.5 28q-15 1 -15 17v2q0 16 16 16q68 5 147 22q18 3 18 -14 v-579q0 -78 10.5 -113t36.5 -42q15 -4 15 -17zM163 297q-7 -118 28 -193.5t93 -76.5t93.5 48t35.5 115v67q0 97 -43 160.5t-103 61.5q-42 -1 -70.5 -48.5t-33.5 -133.5z" glyph-name="d" horiz-adv-x="610" unicode="d"/><glyph d="M289 -15q-114 0 -184 75.5t-70 194.5q0 115 66 187.5t182 72.5q89 0 142.5 -44.5t53.5 -105.5q0 -40 -76 -60q-22 -6 -97 -25.5t-128 -33.5q-14 -5 -13 -19q7 -85 50 -137t108 -52q81 0 137 70q10 13 21 7q11 -7 4 -20q-30 -52 -81.5 -81t-114.5 -29zM165 298 q-1 -8 4 -12t14 -2q57 13 94 25q58 17 74.5 32t15.5 58q-1 39 -24 63.5t-54 24.5q-55 0 -86 -53.5t-38 -135.5z" glyph-name="e" horiz-adv-x="517" unicode="e"/><glyph d="M37 -3q-17 0 -17 15v1q0 13 15 17q26 7 36.5 43.5t10.5 115.5v153q0 62 -9.5 92t-34.5 36q-15 4 -15 16t16 15q19 3 28.5 17.5t11 28t1.5 39.5v37q0 77 45 125t119 48q58 0 93.5 -34t34.5 -88q0 -29 -19.5 -49t-48.5 -20q-30 0 -50 19.5t-20 49.5q0 28 18 46.5t42 22.5 q19 3 4 11q-19 10 -41 10q-42 0 -65 -45t-9 -136q8 -53 17.5 -68t41.5 -15h54q16 0 16 -15t-16 -15h-77q-16 0 -16 -16v-265q0 -79 10.5 -115.5t36.5 -43.5q15 -4 15 -17q0 -16 -17 -16q-43 4 -107 4q-59 0 -104 -4z" glyph-name="f" horiz-adv-x="315" unicode="f"/><glyph d="M296 186q46 8 62 55.5t-1 130.5q-13 64 -43.5 94t-75.5 23q-47 -8 -64.5 -54t-2.5 -124q13 -68 45.5 -100.5t79.5 -24.5zM30 -144q0 70 95 117q7 3 9.5 6.5t-1 6t-11.5 2.5h-29q-46 -1 -52 35t30 56l115 65q6 3 7.5 7t-1 7.5t-9.5 5.5q-68 17 -105.5 61.5t-38.5 106.5 q-1 84 60 134t165 50q14 0 40 -2q117 0 152 10q-18 5 -27.5 22t-4.5 36t23 28t36 4q32 -8 35 -42q5 -38 -23.5 -56.5t-81.5 -24.5q-16 -3 -3 -12q81 -48 79 -147q-1 -77 -58 -126t-156 -52q-13 0 -20 -5l-50 -30q-31 -18 -10 -22q4 -1 9 -1h136q105 0 163 -42t58 -113 q0 -91 -100.5 -149t-225.5 -58q-88 0 -146.5 33t-58.5 89zM142 -126q0 -48 36 -77.5t98 -29.5q42 0 86.5 13t81 46.5t36.5 79.5q0 47 -34 66t-120 18l-81 -1q-11 0 -20 -4q-83 -33 -83 -111z" glyph-name="g" horiz-adv-x="556" unicode="g"/><glyph d="M530 189q0 -79 10.5 -115.5t36.5 -43.5q15 -4 15 -17q0 -16 -17 -16q-43 4 -107 4q-59 0 -104 -4q-17 0 -17 15v1q0 13 15 17q26 7 36.5 43.5t10.5 115.5v167q0 120 -83 120q-49 0 -83.5 -44.5t-35.5 -103.5v-139q0 -79 10.5 -115.5t36.5 -43.5q15 -4 15 -17 q0 -16 -17 -16q-43 4 -106 4q-59 0 -104 -4q-17 0 -17 15v1q0 13 15 17q26 7 36.5 43.5t10.5 115.5v408q0 69 -9.5 94t-36.5 28q-15 1 -15 17v2q0 16 16 16q76 5 157 24q4 1 6 -3.5t2 -12.5v-299q0 -11 4.5 -12.5t12.5 7.5q50 58 133 58q80 0 126.5 -43.5t46.5 -115.5v-168z " glyph-name="h" horiz-adv-x="612" unicode="h"/><glyph d="M137 590q-35 0 -55 20t-20 55q0 34 20 54t55 20t54.5 -19.5t19.5 -54.5t-20 -55t-54 -20zM42 -3q-17 0 -17 15v1q0 13 15 17q26 7 36.5 43.5t10.5 115.5v144q0 69 -9.5 94t-36.5 28q-15 1 -15 17v2q0 16 16 16q68 5 147 22q18 3 18 -14v-309q0 -79 10.5 -115.5 t36.5 -43.5q15 -4 15 -17q0 -16 -17 -16q-43 4 -106 4q-59 0 -104 -4z" glyph-name="i" horiz-adv-x="289" unicode="i"/><glyph d="M203 -92q0 -77 -41 -125t-113 -48q-61 0 -100.5 34t-38.5 88q0 29 20 49t50 20q29 0 48.5 -20t19.5 -49q0 -24 -14 -42t-37 -24q-22 -7 -5 -16q19 -8 44 -8q76 0 77 99q1 44 -15.5 97.5t-16.5 79.5v290q0 70 -9 94.5t-36 27.5q-15 1 -15 17v2q0 16 16 16q70 5 148 22 q18 3 18 -14v-590zM59 665q0 34 20 54t55 20q34 0 54 -19.5t20 -54.5t-20 -55t-54 -20t-54.5 20t-20.5 55z" glyph-name="j" horiz-adv-x="268" unicode="j"/><glyph d="M292 259q-36 75 -78 68q-12 -3 -12 -18v-120q0 -79 10.5 -115.5t36.5 -43.5q15 -4 15 -17q0 -16 -17 -16q-43 4 -106 4q-59 0 -104 -4q-17 0 -17 15v1q0 13 15 17q26 7 36.5 43.5t10.5 115.5v408q0 69 -9.5 94t-36.5 28q-15 1 -15 17v2q0 16 16 16q68 5 147 22 q18 3 18 -14v-389q0 -18 18 -13q121 30 185 72q-23 4 -37.5 20.5t-14.5 39.5q0 25 18.5 42.5t45.5 17.5q40 0 57 -36q39 -87 -147 -151q-19 -7 0 -16q62 -26 95 -94l87 -179q19 -39 44 -51q14 -7 14 -14q0 -12 -17 -14q-56 -9 -101 10.5t-66 62.5z" glyph-name="k" horiz-adv-x="572" unicode="k"/><glyph d="M207 189q0 -79 10.5 -115.5t36.5 -43.5q15 -4 15 -17q0 -16 -17 -16q-43 4 -106 4q-59 0 -104 -4q-17 0 -17 15v1q0 13 15 17q26 7 36.5 43.5t10.5 115.5v408q0 69 -9.5 94t-36.5 28q-15 1 -15 17v2q0 16 16 16q76 5 157 24q4 1 6 -3.5t2 -12.5v-573z" glyph-name="l" horiz-adv-x="289" unicode="l"/><glyph d="M382 368q0 47 -19 77.5t-53 30.5q-43 0 -73 -47t-30 -103v-137q0 -79 10.5 -115.5t36.5 -43.5q15 -4 15 -17q0 -16 -17 -16q-43 4 -106 4q-59 0 -104 -4q-17 0 -17 15v1q0 13 15 17q26 7 36.5 43.5t10.5 115.5v144q0 69 -9.5 94t-36.5 28q-15 1 -15 17v2q0 16 16 16 q68 5 147 22q18 3 18 -14v-30q0 -11 4.5 -12.5t12.5 6.5q44 54 117 54q50 0 88.5 -22t57.5 -58q8 -15 16 0q42 80 136 80q71 0 116.5 -42t45.5 -103v-182q0 -79 10.5 -115.5t36.5 -43.5q15 -4 15 -17q0 -16 -17 -16q-43 4 -106 4q-60 0 -105 -4q-17 0 -17 15v1q0 13 15 17 q26 7 36.5 43.5t10.5 115.5v179q0 108 -70 108q-46 0 -76.5 -45.5t-30.5 -104.5v-137q0 -79 10.5 -115.5t36.5 -43.5q15 -4 15 -17q0 -16 -17 -16q-43 4 -106 4q-60 0 -105 -4q-17 0 -17 15v1q0 13 15 17q26 7 36.5 43.5t10.5 115.5v179z" glyph-name="m" horiz-adv-x="883" unicode="m"/><glyph d="M530 189q0 -79 10.5 -115.5t36.5 -43.5q15 -4 15 -17q0 -16 -17 -16q-43 4 -107 4q-59 0 -104 -4q-17 0 -17 15v1q0 13 15 17q26 7 36.5 43.5t10.5 115.5v167q0 120 -83 120q-49 0 -83.5 -46t-35.5 -105v-136q0 -79 10.5 -115.5t36.5 -43.5q15 -4 15 -17q0 -16 -17 -16 q-43 4 -106 4q-59 0 -104 -4q-17 0 -17 15v1q0 13 15 17q26 7 36.5 43.5t10.5 115.5v144q0 69 -9.5 94t-36.5 28q-15 1 -15 17v2q0 16 16 16q68 5 147 22q18 3 18 -14v-35q0 -11 4.5 -12.5t12.5 7.5q50 58 133 58q80 0 126.5 -43.5t46.5 -115.5v-168z" glyph-name="n" horiz-adv-x="612" unicode="n"/><glyph d="M295 -15q-119 0 -189.5 74.5t-70.5 191.5q0 116 70.5 190.5t189.5 74.5t189 -74.5t70 -190.5q0 -117 -70 -191.5t-189 -74.5zM164 236q14 -110 55.5 -168.5t103.5 -52.5q65 6 90.5 71.5t11.5 179.5q-15 111 -54.5 169t-103.5 51q-64 -6 -90.5 -71.5t-12.5 -178.5z" glyph-name="o" horiz-adv-x="589" unicode="o"/><glyph d="M32 -260q-17 0 -17 15v1q0 12 15 17q26 7 36.5 43.5t10.5 115.5v401q0 69 -9.5 94t-36.5 28q-15 1 -15 17v2q0 16 16 16q76 5 157 24q4 1 6 -3.5t2 -12.5v-59q0 -11 4 -12t10 9q47 80 140 80q107 0 167 -71t60 -193q0 -115 -66 -191.5t-167 -76.5q-80 0 -131 49 q-8 7 -12.5 5.5t-4.5 -12.5v-94q0 -79 10.5 -115.5t36.5 -43.5q15 -5 15 -17q0 -16 -17 -16q-43 4 -106 4q-59 0 -104 -4zM197 190q0 -67 35.5 -117.5t92.5 -50.5q61 0 94.5 77t25.5 198q-5 88 -31.5 136t-71.5 49q-63 1 -104 -63.5t-41 -163.5v-65z" glyph-name="p" horiz-adv-x="613" unicode="p"/><glyph d="M370 -260q-17 0 -17 15v1q0 12 15 17q26 6 36.5 42t10.5 115v143q0 7 -2 10.5t-5.5 1.5t-7.5 -9q-23 -42 -62.5 -66.5t-88.5 -24.5q-99 0 -156.5 68t-57.5 176q0 77 26.5 141t84.5 105t139 41q40 0 80.5 -9t62 -17.5t40.5 -8t30 17.5q8 11 19 11h2q16 0 16 -16v-564 q0 -79 10.5 -115t36.5 -42q15 -5 15 -17q0 -16 -17 -16q-43 4 -106 4q-59 0 -104 -4zM160 253q0 -62 11 -111t39 -82.5t71 -33.5q57 1 95.5 65.5t38.5 160.5v47q0 89 -34 138t-96 49q-36 0 -62 -22t-39 -59t-18.5 -74.5t-5.5 -77.5z" glyph-name="q" horiz-adv-x="602" unicode="q"/><glyph d="M206 189q0 -79 10.5 -115.5t36.5 -43.5q15 -4 15 -17q0 -16 -17 -16q-43 4 -106 4q-58 0 -103 -4q-17 0 -17 15v1q0 13 15 17q26 7 36.5 43.5t10.5 115.5v144q0 69 -10 95t-37 29q-15 1 -15 17t16 16q83 6 147 22q18 3 18 -14v-67q0 -7 2.5 -10.5t6.5 -1.5t7 9 q51 88 133 88q33 0 54.5 -20t21.5 -47v-1q0 -26 -17.5 -44t-42.5 -18q-26 0 -44 17.5t-18 44.5q0 17 8 31q-47 -20 -79 -88.5t-32 -135.5v-66z" glyph-name="r" horiz-adv-x="446" unicode="r"/><glyph d="M248 -15q-28 0 -53 5.5t-39 12.5t-25.5 12t-20 4.5t-15.5 -9.5q-9 -10 -20 -10h-2q-15 0 -17 15l-19 158q-2 17 11 17q12 0 16 -14q21 -71 73 -116t114 -45q37 0 61.5 22t24.5 59q0 39 -30 67t-72.5 46t-84.5 37.5t-72 53.5t-30 82q0 57 47.5 95t125.5 38q34 0 62.5 -6 t41 -12t21.5 -5t16 12q8 12 19 12h1q16 0 17 -15l15 -151q2 -17 -10 -17q-11 0 -17 13q-28 72 -66 106t-92 34q-32 0 -52.5 -21.5t-20.5 -51.5q0 -32 30 -55.5t72 -41.5t84.5 -39t72.5 -59t30 -91q0 -63 -53.5 -102.5t-143.5 -39.5z" glyph-name="s" horiz-adv-x="475" unicode="s"/><glyph d="M83 387q0 77 -72 82q-16 0 -16 16q0 15 16 16q77 4 117 49.5t44 151.5q0 16 16 16h5q16 0 16 -16l-1 -186q0 -16 16 -16h53q16 0 16 -16v-2q0 -16 -16 -16h-53q-16 0 -16 -16v-345q0 -47 17.5 -63t48.5 -9q19 5 19 -10v-2q0 -15 -13 -19q-73 -24 -135 3.5t-62 97.5v284z " glyph-name="t" horiz-adv-x="303" unicode="t"/><glyph d="M198 166q0 -139 84 -139q51 0 84 56t37 129l-1 159q-2 46 -12 64t-33 20q-15 1 -15 17v2q0 16 16 16q68 5 147 22q18 3 18 -14v-315q0 -81 8.5 -115t33.5 -40q15 -4 15 -17q0 -15 -17 -13q-42 2 -68 2q-35 0 -61 -3q-17 -1 -24 13t-7 48q0 11 -4.5 12t-10.5 -9 q-47 -77 -139 -77q-79 0 -126 45.5t-47 124.5v179q0 69 -9.5 94t-36.5 28q-15 1 -15 17v2q0 16 16 16q71 5 149 22q18 3 18 -14v-332z" glyph-name="u" horiz-adv-x="600" unicode="u"/><glyph d="M216 502q16 0 17 -15v-1q1 -14 -14 -17q-27 -6 -24.5 -37.5t34.5 -111.5l61 -151q4 -10 10.5 -10t10.5 10l52 150q27 80 26.5 112t-25.5 38q-15 3 -14 17v1q1 15 17 15q42 -3 74 -3q16 0 54 2q9 1 13.5 -2.5t3.5 -11.5v-2q-1 -15 -16 -16q-26 -5 -46.5 -32.5t-45.5 -93.5 l-116 -330q-5 -13 -19 -13h-24q-13 0 -18 12l-133 326q-31 74 -47.5 100t-40.5 31q-14 3 -15 16v1q-2 16 16 16q48 -3 102 -3t107 3z" glyph-name="v" horiz-adv-x="503" unicode="v"/><glyph d="M216 502q16 0 17 -15v-1q1 -14 -14 -17q-27 -6 -24.5 -37.5t34.5 -111.5l61 -151q4 -10 10.5 -10t10.5 10l84 242q5 13 19 13h11q14 0 18 -12l99 -243q4 -10 10.5 -10t10.5 10l52 150q27 80 26.5 112t-25.5 38q-15 3 -14 17v1q1 15 17 15q42 -3 74 -3q16 0 54 2 q9 1 13.5 -2.5t3.5 -11.5v-2q-1 -15 -16 -16q-26 -5 -46.5 -32.5t-45.5 -93.5l-116 -330q-5 -13 -19 -13h-24q-13 0 -18 12l-92 225q-2 6 -6 8.5t-8.5 0t-6.5 -9.5l-78 -223q-5 -13 -19 -13h-24q-13 0 -18 12l-133 326q-31 74 -47.5 100t-40.5 31q-14 3 -15 16v1 q-2 16 16 16q48 -3 102 -3t107 3z" glyph-name="w" horiz-adv-x="756" unicode="w"/><glyph d="M266 344q11 -18 23 1q42 66 50.5 92t-9.5 33q-15 5 -14 18q2 16 17 14q39 -3 67 -3q17 0 61 2q8 1 12.5 -2.5t3.5 -10.5v-1q-1 -15 -16 -16q-32 -4 -61.5 -30t-72.5 -89l-26 -41q-8 -11 0 -22l129 -203q33 -50 67 -60q15 -5 15 -14q0 -13 -13 -16q-55 -15 -110 1.5 t-93 76.5l-63 99q-10 17 -17 8q-25 -39 -40 -65.5t-22 -45t-5 -28t13 -12.5q15 -5 14 -17q-1 -15 -17 -15q-39 3 -67 3q-17 0 -61 -2q-8 -1 -12.5 3t-3.5 11q2 15 16 16q34 5 66 37.5t85 113.5l17 25q8 11 0 22l-112 175q-40 63 -63 71q-14 6 -14 15q0 13 7 14 q49 12 105.5 -4.5t93.5 -75.5z" glyph-name="x" horiz-adv-x="517" unicode="x"/><glyph d="M96 -263q-41 0 -66.5 21t-26.5 48t15 52q20 25 53 25q25 0 42.5 -17t17.5 -42q0 -20 -11 -35.5t-29 -21.5q6 -1 14 -1q37 0 66 48.5t72 165.5q4 10 -1 22l-158 369q-23 53 -37.5 73.5t-34.5 24.5q-15 3 -16 16v1q-2 16 16 16q48 -3 102 -3t107 3q16 0 17 -15v-1 q1 -15 -15 -17q-28 -5 -27.5 -31.5t28.5 -94.5l71 -162q3 -7 7 -9t8 1t6 9l54 152q24 71 22.5 100.5t-25.5 34.5q-15 3 -14 17v1q1 15 17 15q42 -3 74 -3q15 0 53 2q9 1 13.5 -2.5t3.5 -11.5v-2q-1 -13 -16 -16q-27 -5 -47 -36t-50 -111l-115 -321q-23 -65 -36 -98 t-32 -71.5t-35 -55t-38 -28t-49 -11.5z" glyph-name="y" horiz-adv-x="505" unicode="y"/><glyph d="M423 500q9 0 12 -5.5t-1 -13.5l-5 -8l-250 -417q-17 -28 10 -28h94q55 0 80 32t40 90q3 14 15 14q11 0 9 -17l-14 -136q-1 -16 -18 -14q-25 3 -54 3h-299q-9 0 -12 5.5t1 13.5l260 435q10 19 -10 19h-89q-55 0 -80 -32t-40 -91q-3 -14 -14 -14q-12 0 -10 17l14 136 q1 16 17 14q27 -3 55 -3h289z" glyph-name="z" horiz-adv-x="470" unicode="z"/><glyph d="M65 249q-15 0 -15 16t15 16q15 2 20.5 11t4 37t-13.5 84q-18 104 -14.5 173t33.5 111.5t70 61.5t93 21q16 0 16 -16v-1q0 -16 -16 -16q-73 -5 -81.5 -70t22.5 -215q3 -17 4 -25q18 -117 -56 -163q-15 -9 0 -18q74 -46 56 -163q-29 -177 -28 -221q2 -67 47 -82 q15 -6 36 -7q16 0 16 -16v-1q0 -16 -16 -16q-53 2 -93 21t-70 61.5t-33.5 111.5t14.5 173q12 56 13.5 84t-4 37t-20.5 11z" glyph-name="braceleft" horiz-adv-x="304" unicode="{"/><glyph d="M143 780q16 0 16 -16v-996q0 -16 -16 -16h-7q-16 0 -16 16v996q0 16 16 16h7z" glyph-name="bar" horiz-adv-x="279" unicode="|"/><glyph d="M254 265q0 -16 -15 -16q-15 -2 -20.5 -11t-4 -37t13.5 -84q18 -104 14.5 -173t-33.5 -111.5t-70 -61.5t-93 -21q-16 0 -16 16v1q0 16 16 16q73 5 81.5 69t-22.5 215q-3 17 -4 26q-18 117 56 163q15 9 0 18q-74 46 -56 163q29 178 28 222q-2 66 -48 82q-15 5 -35 6 q-16 0 -16 16v1q0 16 16 16q53 -2 93 -21t70 -61.5t33.5 -111.5t-14.5 -173q-12 -56 -13.5 -84t4 -37t20.5 -11q15 0 15 -16z" glyph-name="braceright" horiz-adv-x="304" unicode="}"/><glyph d="M145 509q30 0 47 -17t17 -48q0 -30 -17 -47t-47 -17q-31 0 -48 17t-17 47q0 31 17 48t48 17zM123 276q3 28 22 28t22 -28l43 -411q3 -30 -12 -46.5t-43 -16.5h-18q-28 0 -43 16.5t-12 46.5z" glyph-name="exclamdown" horiz-adv-x="289" unicode="¡"/><glyph d="M311 715q16 0 16 -16v-71q0 -15 15 -18q14 -3 30 -9t24.5 -9t16.5 -3t13 7q8 12 19 12q13 0 15 -15l19 -152q2 -17 -9 -17q-12 0 -16 14q-39 113 -109 139q-8 3 -13 -1t-5 -13v-405q0 -8 4.5 -12.5t11.5 -3.5q79 9 125 66q8 13 18 8q10 -7 2 -19q-49 -90 -146 -108 q-15 -3 -15 -17v-74q0 -16 -16 -16h-3q-16 0 -16 16v71q0 16 -16 17q-104 7 -170 80t-66 184q0 117 63 187t173 77q16 1 16 17v68q0 16 16 16h3zM167 381q0 -85 28.5 -146.5t78.5 -83.5q8 -3 13 1t5 12v403q0 8 -3 13t-7 4q-51 -10 -83 -64t-32 -139z" glyph-name="cent" horiz-adv-x="535" unicode="¢"/><glyph d="M45 0q-10 0 -12.5 6t4.5 14q11 14 36 43.5t35 42t28 35.5t25.5 36.5t17 32t13 34.5t3.5 32q0 15 -1 23q-3 14 -18 14h-98q-16 0 -16 16v3q0 16 16 16h78q9 0 12.5 5.5t-0.5 13.5q-7 11 -25 37t-27.5 41.5t-18.5 43.5t-9 58q0 74 59 121t149 47q40 0 71.5 -8t44 -15.5 t21.5 -6.5t17 16q6 12 18 12h1q15 0 17 -15l22 -220q2 -17 -9 -17q-10 0 -16 13q-37 109 -75 158t-95 49q-40 0 -70 -37t-30 -93q0 -43 22.5 -106t26.5 -83q3 -15 17 -15h77q16 0 16 -16v-3q0 -16 -16 -16h-75q-15 0 -16 -15q-4 -39 -25 -74t-72 -96q-7 -8 -4 -14t13 -6 l215 2q50 1 72.5 35t32.5 101q1 8 5 12t10 3q11 -2 10 -17l-22 -232q-1 -15 -18 -15q-43 4 -106 4h-331z" glyph-name="sterling" horiz-adv-x="564" unicode="£"/><glyph d="M348 72q-66 0 -124 34q-12 8 -22 -2l-101 -101q-11 -11 -22 0l-7 7q-12 12 -1 22l98 99q10 11 0 23q-54 64 -54 146q0 66 38 125q8 12 -2 22l-100 101q-11 10 1 22l7 7q11 11 22 0l98 -98q10 -10 23 -1q63 50 146 50q81 0 145 -49q12 -10 23 1l97 97q11 11 22 0l8 -8 q11 -11 1 -22l-99 -99q-11 -11 -2 -23q38 -57 38 -125q0 -83 -54 -147q-11 -11 0 -22l97 -98q10 -11 -1 -22l-8 -8q-11 -11 -22 0l-100 101q-10 10 -21 3q-55 -35 -124 -35zM245 302q0 -198 103 -198q102 0 102 198q0 194 -102 194q-103 0 -103 -194z" glyph-name="currency" horiz-adv-x="695" unicode="¤"/><glyph d="M444 687q1 15 17 15q41 -3 72 -3q18 0 60 2q8 1 12.5 -2.5t3.5 -11.5v-2q-2 -15 -15 -16q-30 -5 -55 -38t-59 -111l-81 -186q-8 -19 12 -19h99q16 0 16 -16v-4q0 -16 -16 -16h-108q-16 0 -16 -16v-13q0 -16 16 -16h108q16 0 16 -16v-4q0 -16 -16 -16h-108q-16 0 -16 -17 q5 -136 48 -150q14 -5 14 -17v-1q0 -15 -16 -15l-46 2h-120l-46 -2q-16 0 -16 15v1q0 12 14 17q43 15 48 150q0 17 -16 17h-108q-16 0 -16 16v4q0 16 16 16h108q16 0 16 16v13q0 10 -1 13t-14 3h-109q-16 0 -16 16v4q0 16 16 16h82q9 0 12.5 5.5t-0.5 13.5l-87 177l-5 9 q-38 77 -63.5 110t-54.5 39q-14 3 -15 16v1q-2 16 16 16q51 -3 110 -3q62 0 119 3q16 0 17 -15v-1q1 -13 -14 -18q-48 -11 -1 -117l97 -189q5 -10 11.5 -9.5t10.5 10.5l68 157q31 76 34 109t-21 39q-15 5 -14 17v2z" glyph-name="yen" horiz-adv-x="610" unicode="¥"/><glyph d="M143 780q16 0 16 -16v-377q0 -16 -16 -16h-7q-16 0 -16 16v377q0 16 16 16h7zM136 -250q-16 0 -16 16v377q0 16 16 16h7q16 0 16 -16v-377q0 -16 -16 -16h-7z" glyph-name="brokenbar" horiz-adv-x="279" unicode="¦"/><glyph d="M52 109q-2 17 10 17q10 0 15 -14q21 -72 69 -116.5t110 -44.5q37 0 62 23.5t25 60.5q0 39 -30 66.5t-73 45.5t-86 37t-73 53t-30 81q0 38 29 72t77 49q19 6 2 16q-103 53 -103 137q0 58 47 95.5t125 37.5q34 0 62.5 -6t41 -12t21.5 -5t16 12q7 12 19 12q14 0 16 -15 l15 -151q2 -17 -9 -17t-15 14q-47 139 -159 139q-32 0 -53 -21.5t-21 -51.5q0 -32 29.5 -56.5t72 -43.5t85 -40.5t72 -58.5t29.5 -87q0 -80 -80 -119q-18 -8 -2 -19q82 -51 82 -136q0 -63 -53.5 -102.5t-143.5 -39.5q-28 0 -52.5 5.5t-37.5 12.5t-24 12t-18 4.5t-14 -9.5 q-9 -10 -20 -10q-15 0 -16 15zM157 349q0 -24 18.5 -43.5t39 -30.5t60.5 -28q9 -4 14 -6q12 -6 21 1q33 25 33 67q0 36 -25 60t-72 46l-10 4h-1q-32 0 -55 -21t-23 -49z" glyph-name="section" horiz-adv-x="495" unicode="§"/><glyph d="M105 552q-31 0 -48 17t-17 48q0 30 17 47t48 17q30 0 47 -17t17 -47q0 -31 -17 -48t-47 -17zM200 617q0 30 17 47t48 17q30 0 47 -17t17 -47q0 -31 -17 -48t-47 -17q-31 0 -48 17t-17 48z" glyph-name="dieresis" horiz-adv-x="369" unicode="¨"/><glyph d="M784 314q0 -159 -108 -264t-264 -105t-264 105t-108 264t108 264t264 105t264 -105t108 -264zM85 314q0 -141 95 -236.5t232 -95.5t232 95.5t95 236.5t-95 236.5t-232 95.5t-232 -95.5t-95 -236.5zM200 322q0 104 61.5 164.5t172.5 60.5q23 0 52.5 -7t40 -9t26.5 6 q9 11 16 11q9 0 11 -15l13 -150q2 -17 -8 -17q-8 0 -13 14q-19 71 -54.5 108t-95.5 37q-63 0 -101 -49.5t-37 -139.5q2 -92 46 -159.5t118 -67.5q87 0 135 58q11 12 15 9q4 -4 -3 -16q-57 -86 -159 -86q-104 0 -170.5 69.5t-65.5 178.5z" glyph-name="copyright" horiz-adv-x="824" unicode="©"/><glyph d="M302 451q4 -13 -8 -21q-53 -29 -92.5 -72.5t-39.5 -87.5q0 -40 39.5 -81t92.5 -70q12 -8 8 -21l-1 -3q-7 -15 -21 -9q-99 42 -164.5 92.5t-65.5 91.5q0 45 65.5 98.5t164.5 95.5q15 6 21 -9zM206 270q0 45 65.5 98.5t164.5 95.5q16 7 21 -9l1 -4q4 -13 -8 -21 q-53 -29 -92.5 -72.5t-39.5 -87.5q0 -40 39.5 -81t92.5 -70q12 -8 8 -21l-1 -3q-7 -15 -40 0q-92 40 -151.5 88t-59.5 87z" glyph-name="guillemotleft" horiz-adv-x="513" unicode="«"/><glyph d="M201 510q-58 0 -99.5 41.5t-41.5 100.5q0 58 41.5 99.5t99.5 41.5t99.5 -41.5t41.5 -99.5q0 -59 -41.5 -100.5t-99.5 -41.5zM85 651q0 -48 35 -83.5t81 -35.5q47 0 81 35.5t34 83.5t-34 84t-81 36q-46 0 -81 -36t-35 -84zM152 581q-14 0 -14 4q0 1 1.5 1.5t4.5 2t5 4.5 q5 6 5 30v69q0 19 -3 25q-2 3 -4.5 5t-4 2.5t-1.5 1.5q0 4 16 4h49q20 0 34 -10.5t14 -25.5t-14 -25.5t-34 -10.5l2 -1q2 -1 7.5 -4.5t9.5 -7.5q11 -12 15 -30q8 -27 18 -27h1q1 0 4.5 1.5t6.5 2.5t3 0q3 -6 -8 -12q-6 -3 -14 -3q-31 0 -40 43q-5 20 -12 27q-6 6 -12 2 t-6 -13v-13q0 -22 4 -29q2 -3 5 -4.5t4.5 -2.5t1.5 -2q0 -4 -14 -4h-15h-15zM181 682q0 -17 16 -15h3q24 0 24 27t-24 27h-3q-16 2 -16 -15v-24z" glyph-name="registered" horiz-adv-x="382" unicode="®"/><glyph d="M336 676q0 -16 -16 -16h-264q-16 0 -16 16v6q0 16 16 16h264q16 0 16 -16v-6z" glyph-name="macron" horiz-adv-x="376" unicode="¯"/><glyph d="M111 481q-54 0 -87.5 31.5t-33.5 78.5q0 45 33.5 76.5t87.5 31.5t87.5 -31.5t33.5 -76.5q0 -47 -33.5 -78.5t-87.5 -31.5zM71 582q8 -36 24 -58t34 -18q19 4 24.5 31t-2.5 62q-8 36 -24 57.5t-34 17.5q-19 -4 -24.5 -30.5t2.5 -61.5z" glyph-name="degree" horiz-adv-x="222" unicode="°"/><glyph d="M60 587q-14 -6 -18 1q-3 6 9 15l164 114q14 11 23 -5l15 -26q9 -16 -7 -22z" glyph-name="acute" horiz-adv-x="293" unicode="´"/><glyph d="M283 700q16 0 16 -16l-1 -768q0 -16 -16 -16h-13q-16 0 -16 16l1 483q0 16 -16 16q-41 2 -71.5 9t-58.5 22.5t-43 45t-15 70.5q0 64 53 100.5t152 37.5h28zM349 -100q-16 0 -16 16l2 768q0 16 16 16h12q16 0 16 -16l-1 -768q0 -16 -16 -16h-13z" glyph-name="paragraph" horiz-adv-x="459" unicode="¶"/><glyph d="M135 225q-31 0 -48 17t-17 48q0 30 17 47t48 17q30 0 47 -17t17 -47q0 -31 -17 -48t-47 -17z" glyph-name="periodcentered" horiz-adv-x="269" unicode="·"/><glyph d="M40 -184q-15 6 -11 16q2 7 19 5q18 -4 29.5 5t13.5 27q4 19 -6 36t-27 24q-16 6 -9 20l25 51h33l-19 -37q-8 -15 9 -21q32 -12 49.5 -33.5t13.5 -47.5q-6 -35 -44 -48t-76 3z" glyph-name="cedilla" horiz-adv-x="196" unicode="¸"/><glyph d="M219 430q-12 8 -8 21l1 4q6 15 21 9q99 -42 164.5 -95.5t65.5 -98.5q0 -41 -65.5 -91.5t-164.5 -92.5q-14 -6 -21 9l-1 3q-4 13 8 21q53 29 92.5 70t39.5 81q0 44 -39.5 87.5t-92.5 72.5zM55 98q-4 13 8 21q53 29 92.5 70t39.5 81q0 44 -39.5 87.5t-92.5 72.5 q-12 8 -8 21l1 4q6 15 21 9q99 -42 164.5 -95.5t65.5 -98.5q0 -41 -65.5 -91.5t-164.5 -92.5q-14 -6 -21 9z" glyph-name="guillemotright" horiz-adv-x="513" unicode="»"/><glyph d="M314 328q16 0 16 -16q0 -51 -17.5 -91.5t-43.5 -68.5t-51.5 -55t-43.5 -64t-18 -83q0 -62 29.5 -95.5t87.5 -33.5q57 0 99.5 50t75.5 160q3 11 14 11q12 0 10 -18l-19 -215q-2 -15 -13 -15h-3q-8 0 -13 8q-8 15 -21 16t-29 -6t-48 -15t-67 -8q-100 0 -159.5 45.5 t-59.5 128.5q0 49 24.5 86.5t60 62t71.5 49.5t64 63.5t33 88.5q2 15 16 15h5zM244 444q0 31 17 48t47 17q31 0 48 -17t17 -48q0 -30 -17 -47t-48 -17q-30 0 -47 17t-17 47z" glyph-name="questiondown" horiz-adv-x="524" unicode="¿"/><glyph d="M295 687q5 13 19 13h23q14 0 19 -13l197 -508q33 -86 51 -115.5t45 -34.5q15 -3 15 -16q0 -16 -17 -16q-47 3 -99 3q-68 0 -130 -3q-16 -2 -16 15q0 16 15 17q34 4 38 31.5t-21 95.5l-24 61q-4 13 -18 13h-214q-14 0 -19 -13l-13 -38q-51 -137 9 -150q15 -3 15 -16 q0 -16 -17 -16q-45 3 -78 3q-19 0 -63 -2q-17 -2 -17 14v1q0 13 15 16q28 5 48 36t52 114zM183 279q-6 -18 13 -18h178q19 0 13 18l-94 247q-4 10 -10.5 10t-10.5 -10zM223 803q-16 5 -10 20l17 44q6 16 21 8l199 -102q13 -7 9 -19q-5 -12 -20 -9z" glyph-name="Agrave" horiz-adv-x="659" unicode="À"/><glyph d="M295 687q5 13 19 13h23q14 0 19 -13l197 -508q33 -86 51 -115.5t45 -34.5q15 -3 15 -16q0 -16 -17 -16q-47 3 -99 3q-68 0 -130 -3q-16 -2 -16 15q0 16 15 17q34 4 38 31.5t-21 95.5l-24 61q-4 13 -18 13h-214q-14 0 -19 -13l-13 -38q-51 -137 9 -150q15 -3 15 -16 q0 -16 -17 -16q-45 3 -78 3q-19 0 -63 -2q-17 -2 -17 14v1q0 13 15 16q28 5 48 36t52 114zM183 279q-6 -18 13 -18h178q19 0 13 18l-94 247q-4 10 -10.5 10t-10.5 -10zM467 853q8 -15 -8 -21l-206 -83q-14 -6 -19 4q-6 9 7 19l181 126q14 11 22 -5z" glyph-name="Aacute" horiz-adv-x="659" unicode="Á"/><glyph d="M295 687q5 13 19 13h23q14 0 19 -13l197 -508q33 -86 51 -115.5t45 -34.5q15 -3 15 -16q0 -16 -17 -16q-47 3 -99 3q-68 0 -130 -3q-16 -2 -16 15q0 16 15 17q34 4 38 31.5t-21 95.5l-24 61q-4 13 -18 13h-214q-14 0 -19 -13l-13 -38q-51 -137 9 -150q15 -3 15 -16 q0 -16 -17 -16q-45 3 -78 3q-19 0 -63 -2q-17 -2 -17 14v1q0 13 15 16q28 5 48 36t52 114zM183 279q-6 -18 13 -18h178q19 0 13 18l-94 247q-4 10 -10.5 10t-10.5 -10zM187 740q-13 -7 -20 3q-6 9 5 19l142 125q11 11 22 0l142 -125q11 -10 5 -19q-7 -10 -20 -3l-127 61 q-11 5 -22 0z" glyph-name="Acircumflex" horiz-adv-x="659" unicode="Â"/><glyph d="M295 687q5 13 19 13h23q14 0 19 -13l197 -508q33 -86 51 -115.5t45 -34.5q15 -3 15 -16q0 -16 -17 -16q-47 3 -99 3q-68 0 -130 -3q-16 -2 -16 15q0 16 15 17q34 4 38 31.5t-21 95.5l-24 61q-4 13 -18 13h-214q-14 0 -19 -13l-13 -38q-51 -137 9 -150q15 -3 15 -16 q0 -16 -17 -16q-45 3 -78 3q-19 0 -63 -2q-17 -2 -17 14v1q0 13 15 16q28 5 48 36t52 114zM183 279q-6 -18 13 -18h178q19 0 13 18l-94 247q-4 10 -10.5 10t-10.5 -10zM194 752q-8 10 -1 21q19 32 45 52.5t51 20.5q29 0 70.5 -21t57.5 -21q22 0 42 26q12 15 18 6 q7 -10 2 -21q-14 -31 -37.5 -52t-48.5 -21t-67 21t-60 21q-24 0 -53 -29q-13 -13 -19 -3z" glyph-name="Atilde" horiz-adv-x="659" unicode="Ã"/><glyph d="M295 687q5 13 19 13h23q14 0 19 -13l197 -508q33 -86 51 -115.5t45 -34.5q15 -3 15 -16q0 -16 -17 -16q-47 3 -99 3q-68 0 -130 -3q-16 -2 -16 15q0 16 15 17q34 4 38 31.5t-21 95.5l-24 61q-4 13 -18 13h-214q-14 0 -19 -13l-13 -38q-51 -137 9 -150q15 -3 15 -16 q0 -16 -17 -16q-45 3 -78 3q-19 0 -63 -2q-17 -2 -17 14v1q0 13 15 16q28 5 48 36t52 114zM183 279q-6 -18 13 -18h178q19 0 13 18l-94 247q-4 10 -10.5 10t-10.5 -10zM243 739q-31 0 -48 17t-17 48q0 30 17 47t48 17q30 0 47 -17t17 -47q0 -31 -17 -48t-47 -17zM342 804 q0 30 17 47t48 17q30 0 47 -17t17 -47q0 -31 -17 -48t-47 -17q-31 0 -48 17t-17 48z" glyph-name="Adieresis" horiz-adv-x="659" unicode="Ä"/><glyph d="M295 687q5 13 19 13h23q14 0 19 -13l197 -508q33 -86 51 -115.5t45 -34.5q15 -3 15 -16q0 -16 -17 -16q-47 3 -99 3q-68 0 -130 -3q-16 -2 -16 15q0 16 15 17q34 4 38 31.5t-21 95.5l-24 61q-4 13 -18 13h-214q-14 0 -19 -13l-13 -38q-51 -137 9 -150q15 -3 15 -16 q0 -16 -17 -16q-45 3 -78 3q-19 0 -63 -2q-17 -2 -17 14v1q0 13 15 16q28 5 48 36t52 114zM183 279q-6 -18 13 -18h178q19 0 13 18l-94 247q-4 10 -10.5 10t-10.5 -10zM328 746q-43 0 -70.5 24.5t-27.5 59.5t27.5 59.5t70.5 24.5t70.5 -24.5t27.5 -59.5t-27.5 -59.5 t-70.5 -24.5zM303 825q12 -63 39 -59q25 6 11 69q-5 27 -16 44t-23 15q-26 -6 -11 -69z" glyph-name="Aring" horiz-adv-x="659" unicode="Å"/><glyph d="M654 700q48 0 67 9q12 5 20 5q13 0 15 -15l26 -243q2 -17 -10 -17q-14 0 -15 15q-18 114 -59 166t-137 52h-87q-16 0 -16 -16v-255q0 -16 16 -16h34q93 0 83 98q-2 17 11 17q12 0 15 -14l44 -236q3 -17 -9 -17q-13 0 -17 14q-17 56 -46.5 81t-80.5 25h-34q-16 0 -16 -16 v-291q0 -16 16 -16h117q40 0 68.5 10t46 25.5t28.5 45t15.5 59t8.5 75.5q1 16 14 16q12 0 12 -16v-244q0 -16 -10 -16q-8 0 -20 5q-16 7 -70 10h-392q-16 0 -16 16v1q0 13 15 16q26 6 36.5 39t10.5 111v31q0 16 -16 16h-144q-14 0 -19 -13l-20 -54q-43 -123 12 -134 q15 -3 15 -16q0 -17 -17 -15q-42 3 -73 3q-30 0 -64 -3q-17 0 -17 15t15 16q28 5 48.5 36.5t50.5 113.5l171 468q7 18 -11 20l-10 1q-16 0 -16 16t16 16h395zM182 279q-6 -18 13 -18h127q16 0 16 16v240q0 85 -9 111q-2 6 -6.5 8t-8.5 -1t-6 -9z" glyph-name="AE" horiz-adv-x="834" unicode="Æ"/><glyph d="M380 686q-101 0 -157.5 -79t-55.5 -218q1 -91 30.5 -170t88.5 -130t136 -51q64 0 120.5 27.5t89.5 70.5q11 14 19 6q9 -9 2 -21q-41 -65 -106.5 -101t-144.5 -36h-1l-12 -26q-6 -16 10 -20q61 -21 61 -75q0 -42 -44 -61.5t-93 0.5q-14 6 -9 18q4 11 19 9q21 -3 36 7.5 t16 32.5q1 35 -32 49q-14 7 -9 20l21 48q-148 12 -239.5 117t-90.5 263q1 162 96 255.5t267 93.5q30 0 65 -7t56 -13t40 -4.5t28 14.5q8 11 19 11h4q14 0 16 -15l20 -250q2 -17 -12 -17t-18 16q-31 115 -86 175.5t-150 60.5z" glyph-name="Ccedilla" horiz-adv-x="695" unicode="Ç"/><glyph d="M419 700q47 0 67 9q12 5 20 5q14 0 15 -15l24 -238q2 -17 -10 -17q-13 0 -15 15q-18 112 -57.5 162t-136.5 50h-97q-16 0 -16 -16v-254q0 -16 16 -16h43q93 0 83 98q-2 17 11 17q12 0 15 -14l44 -236q3 -17 -9 -17q-13 0 -17 14q-17 56 -46.5 81t-80.5 25h-43 q-16 0 -16 -16v-290q0 -16 16 -16h127q50 0 82 12.5t49 42t24 63t12 91.5q1 16 14 16q12 0 12 -16v-232q0 -17 -18 -14q-11 2 -82 6h-403q-16 0 -16 16v1q0 13 15 16q26 6 36.5 39t10.5 111v334q0 78 -10.5 111t-36.5 39q-15 3 -15 16v1q0 16 16 16h373zM198 819 q-16 5 -10 20l17 44q6 16 21 8l199 -102q13 -7 9 -19q-5 -12 -20 -9z" glyph-name="Egrave" horiz-adv-x="599" unicode="È"/><glyph d="M419 700q47 0 67 9q12 5 20 5q14 0 15 -15l24 -238q2 -17 -10 -17q-13 0 -15 15q-18 112 -57.5 162t-136.5 50h-97q-16 0 -16 -16v-254q0 -16 16 -16h43q93 0 83 98q-2 17 11 17q12 0 15 -14l44 -236q3 -17 -9 -17q-13 0 -17 14q-17 56 -46.5 81t-80.5 25h-43 q-16 0 -16 -16v-290q0 -16 16 -16h127q50 0 82 12.5t49 42t24 63t12 91.5q1 16 14 16q12 0 12 -16v-232q0 -17 -18 -14q-11 2 -82 6h-403q-16 0 -16 16v1q0 13 15 16q26 6 36.5 39t10.5 111v334q0 78 -10.5 111t-36.5 39q-15 3 -15 16v1q0 16 16 16h373zM428 854 q8 -15 -8 -21l-206 -83q-14 -6 -19 4q-6 9 7 19l181 126q14 11 22 -5z" glyph-name="Eacute" horiz-adv-x="599" unicode="É"/><glyph d="M419 700q47 0 67 9q12 5 20 5q14 0 15 -15l24 -238q2 -17 -10 -17q-13 0 -15 15q-18 112 -57.5 162t-136.5 50h-97q-16 0 -16 -16v-254q0 -16 16 -16h43q93 0 83 98q-2 17 11 17q12 0 15 -14l44 -236q3 -17 -9 -17q-13 0 -17 14q-17 56 -46.5 81t-80.5 25h-43 q-16 0 -16 -16v-290q0 -16 16 -16h127q50 0 82 12.5t49 42t24 63t12 91.5q1 16 14 16q12 0 12 -16v-232q0 -17 -18 -14q-11 2 -82 6h-403q-16 0 -16 16v1q0 13 15 16q26 6 36.5 39t10.5 111v334q0 78 -10.5 111t-36.5 39q-15 3 -15 16v1q0 16 16 16h373zM167 761 q-13 -7 -20 3q-6 9 5 19l142 125q11 11 22 0l142 -125q11 -10 5 -19q-7 -10 -20 -3l-127 61q-11 5 -22 0z" glyph-name="Ecircumflex" horiz-adv-x="599" unicode="Ê"/><glyph d="M419 700q47 0 67 9q12 5 20 5q14 0 15 -15l24 -238q2 -17 -10 -17q-13 0 -15 15q-18 112 -57.5 162t-136.5 50h-97q-16 0 -16 -16v-254q0 -16 16 -16h43q93 0 83 98q-2 17 11 17q12 0 15 -14l44 -236q3 -17 -9 -17q-13 0 -17 14q-17 56 -46.5 81t-80.5 25h-43 q-16 0 -16 -16v-290q0 -16 16 -16h127q50 0 82 12.5t49 42t24 63t12 91.5q1 16 14 16q12 0 12 -16v-232q0 -17 -18 -14q-11 2 -82 6h-403q-16 0 -16 16v1q0 13 15 16q26 6 36.5 39t10.5 111v334q0 78 -10.5 111t-36.5 39q-15 3 -15 16v1q0 16 16 16h373zM219 755 q-31 0 -48 17t-17 48q0 30 17 47t48 17q30 0 47 -17t17 -47q0 -31 -17 -48t-47 -17zM318 820q0 30 17 47t48 17q30 0 47 -17t17 -47q0 -31 -17 -48t-47 -17q-31 0 -48 17t-17 48z" glyph-name="Edieresis" horiz-adv-x="599" unicode="Ë"/><glyph d="M40 688q0 15 17 15q51 -3 104 -3q55 0 106 3q16 0 16 -15v-1q0 -13 -15 -17q-26 -7 -36.5 -44t-10.5 -119v-313q0 -82 10.5 -119t36.5 -44q15 -4 15 -17q0 -16 -16 -16q-51 3 -106 3q-53 0 -104 -3q-17 0 -17 15v1q0 12 15 17q26 7 36.5 44t10.5 119v313q0 82 -10.5 119 t-36.5 44q-15 4 -15 17v1zM50 817q-16 5 -10 20l17 44q6 16 21 8l199 -102q13 -7 9 -19q-5 -12 -20 -9z" glyph-name="Igrave" horiz-adv-x="323" unicode="Ì"/><glyph d="M40 688q0 15 17 15q51 -3 104 -3q55 0 106 3q16 0 16 -15v-1q0 -13 -15 -17q-26 -7 -36.5 -44t-10.5 -119v-313q0 -82 10.5 -119t36.5 -44q15 -4 15 -17q0 -16 -16 -16q-51 3 -106 3q-53 0 -104 -3q-17 0 -17 15v1q0 12 15 17q26 7 36.5 44t10.5 119v313q0 82 -10.5 119 t-36.5 44q-15 4 -15 17v1zM280 851q8 -15 -8 -21l-206 -83q-14 -6 -19 4q-6 9 7 19l181 126q14 11 22 -5z" glyph-name="Iacute" horiz-adv-x="323" unicode="Í"/><glyph d="M40 688q0 15 17 15q51 -3 104 -3q55 0 106 3q16 0 16 -15v-1q0 -13 -15 -17q-26 -7 -36.5 -44t-10.5 -119v-313q0 -82 10.5 -119t36.5 -44q15 -4 15 -17q0 -16 -16 -16q-51 3 -106 3q-53 0 -104 -3q-17 0 -17 15v1q0 12 15 17q26 7 36.5 44t10.5 119v313q0 82 -10.5 119 t-36.5 44q-15 4 -15 17v1zM20 758q-14 -7 -20 3q-6 9 5 19l142 125q11 11 22 0l142 -125q11 -10 5 -19q-6 -10 -20 -3l-127 61q-11 5 -22 0z" glyph-name="Icircumflex" horiz-adv-x="323" unicode="Î"/><glyph d="M40 688q0 15 17 15q51 -3 104 -3q55 0 106 3q16 0 16 -15v-1q0 -13 -15 -17q-26 -7 -36.5 -44t-10.5 -119v-313q0 -82 10.5 -119t36.5 -44q15 -4 15 -17q0 -16 -16 -16q-51 3 -106 3q-53 0 -104 -3q-17 0 -17 15v1q0 12 15 17q26 7 36.5 44t10.5 119v313q0 82 -10.5 119 t-36.5 44q-15 4 -15 17v1zM80 764q-31 0 -48 17t-17 48q0 30 17 47t48 17q30 0 47 -17t17 -47q0 -31 -17 -48t-47 -17zM179 829q0 30 17 47t48 17q30 0 47 -17t17 -47q0 -31 -17 -48t-47 -17q-31 0 -48 17t-17 48z" glyph-name="Idieresis" horiz-adv-x="323" unicode="Ï"/><glyph d="M534 366q-2 141 -74.5 223t-195.5 82h-35q-16 0 -16 -16v-273h98q16 0 16 -15q0 -16 -16 -16h-98v-304q0 -16 16 -16h35q129 0 201 89.5t69 245.5zM46 0q-16 0 -16 16v1q0 13 15 16q26 6 36.5 39t10.5 111v168h-51q-16 0 -16 16q0 15 16 15h51v135q0 78 -10.5 111 t-36.5 39q-15 3 -15 16v1q0 16 16 16h219q184 0 291.5 -86t107.5 -248q0 -176 -108.5 -271t-288.5 -95h-221z" glyph-name="Eth" horiz-adv-x="699" unicode="Ð"/><glyph d="M213 13q0 -15 -17 -15q-39 3 -68 3q-21 0 -67 -2q-17 -2 -17 14v1q0 13 15 16q29 7 40.5 43t11.5 117v405q0 10 -7 20q-41 46 -74 54q-15 1 -15 16v1q0 16 17 16q34 -3 66 -3q42 0 88 3q13 1 20 -9l335 -471q7 -9 13.5 -6.5t6.5 13.5v281q0 81 -11.5 117t-40.5 43 q-15 3 -15 16q0 17 17 15q46 -2 66 -2q30 0 69 3q17 0 17 -15v-1q0 -13 -15 -16q-29 -7 -40.5 -43t-11.5 -117v-494q0 -16 -16 -16h-19q-12 0 -19 10l-369 516l-8 9q-7 9 -13 7t-6 -13v-339q0 -81 11.5 -117t40.5 -43q15 -3 15 -16v-1zM230 762q-8 10 -1 21q19 32 45 52.5 t51 20.5q29 0 70.5 -21t57.5 -21q22 0 42 26q12 15 18 6q7 -10 2 -21q-14 -31 -37.5 -52t-48.5 -21t-67 21t-60 21q-24 0 -53 -29q-13 -13 -19 -3z" glyph-name="Ntilde" horiz-adv-x="688" unicode="Ñ"/><glyph d="M388 -15q-156 -1 -254.5 103t-98.5 262t98.5 262t254.5 103t254.5 -104.5t98.5 -260.5t-98.5 -260.5t-254.5 -104.5zM176 328q17 -159 81.5 -242t164.5 -72q101 11 148 105.5t30 252.5q-17 159 -81.5 241.5t-164.5 72.5q-102 -10 -148.5 -104.5t-29.5 -253.5zM288 816 q-16 5 -10 20l17 44q6 16 21 8l199 -102q13 -7 9 -19q-5 -12 -20 -9z" glyph-name="Ograve" horiz-adv-x="776" unicode="Ò"/><glyph d="M388 -15q-156 -1 -254.5 103t-98.5 262t98.5 262t254.5 103t254.5 -104.5t98.5 -260.5t-98.5 -260.5t-254.5 -104.5zM176 328q17 -159 81.5 -242t164.5 -72q101 11 148 105.5t30 252.5q-17 159 -81.5 241.5t-164.5 72.5q-102 -10 -148.5 -104.5t-29.5 -253.5zM517 856 q8 -15 -8 -21l-206 -83q-14 -6 -19 4q-6 9 7 19l181 126q14 11 22 -5z" glyph-name="Oacute" horiz-adv-x="776" unicode="Ó"/><glyph d="M388 -15q-156 -1 -254.5 103t-98.5 262t98.5 262t254.5 103t254.5 -104.5t98.5 -260.5t-98.5 -260.5t-254.5 -104.5zM176 328q17 -159 81.5 -242t164.5 -72q101 11 148 105.5t30 252.5q-17 159 -81.5 241.5t-164.5 72.5q-102 -10 -148.5 -104.5t-29.5 -253.5zM258 758 q-14 -7 -20 3q-6 9 5 19l142 125q11 11 22 0l142 -125q11 -10 5 -19q-6 -10 -20 -3l-127 61q-11 5 -22 0z" glyph-name="Ocircumflex" horiz-adv-x="776" unicode="Ô"/><glyph d="M388 -15q-156 -1 -254.5 103t-98.5 262t98.5 262t254.5 103t254.5 -104.5t98.5 -260.5t-98.5 -260.5t-254.5 -104.5zM176 328q17 -159 81.5 -242t164.5 -72q101 11 148 105.5t30 252.5q-17 159 -81.5 241.5t-164.5 72.5q-102 -10 -148.5 -104.5t-29.5 -253.5zM260 772 q-8 10 -1 21q19 32 45 52.5t51 20.5q29 0 70.5 -21t57.5 -21q22 0 42 26q12 15 18 6q7 -10 2 -21q-14 -31 -37.5 -52t-48.5 -21t-67 21t-60 21q-24 0 -53 -29q-13 -13 -19 -3z" glyph-name="Otilde" horiz-adv-x="776" unicode="Õ"/><glyph d="M388 -15q-156 -1 -254.5 103t-98.5 262t98.5 262t254.5 103t254.5 -104.5t98.5 -260.5t-98.5 -260.5t-254.5 -104.5zM176 328q17 -159 81.5 -242t164.5 -72q101 11 148 105.5t30 252.5q-17 159 -81.5 241.5t-164.5 72.5q-102 -10 -148.5 -104.5t-29.5 -253.5zM309 755 q-31 0 -48 17t-17 48q0 30 17 47t48 17q30 0 47 -17t17 -47q0 -31 -17 -48t-47 -17zM408 820q0 30 17 47t48 17q30 0 47 -17t17 -47q0 -31 -17 -48t-47 -17q-31 0 -48 17t-17 48z" glyph-name="Odieresis" horiz-adv-x="776" unicode="Ö"/><glyph d="M118 442q12 12 23 1l110 -98q11 -11 22 0l109 98q11 11 23 -1l7 -7q12 -12 -1 -23l-104 -94q-13 -11 0 -22l104 -94q12 -12 1 -23l-7 -8q-12 -12 -23 -1l-109 98q-11 11 -22 0l-110 -98q-11 -11 -23 1l-7 8q-11 11 1 23l104 94q13 11 0 22l-104 94q-12 12 -1 23z" glyph-name="multiply" horiz-adv-x="523" unicode="×"/><glyph d="M388 -15q-108 0 -190 51l-83 -136h-35l93 153q-66 49 -102 126.5t-36 170.5q0 158 98.5 262t254.5 103q90 0 164 -38l75 123h34l-83 -137q76 -48 119.5 -130t43.5 -183q0 -157 -98.5 -260.5t-254.5 -104.5zM176 328q12 -113 49 -190l291 479q-64 78 -162 69 q-102 -10 -148.5 -104.5t-29.5 -253.5zM241 108q68 -106 181 -94q101 11 148 105.5t30 252.5q-15 140 -66 219z" glyph-name="Oslash" horiz-adv-x="776" unicode="Ø"/><glyph d="M585 234q0 -113 -66.5 -177.5t-178.5 -64.5q-120 0 -189 64t-69 178v272q0 82 -10.5 119t-36.5 44q-15 5 -15 17q0 16 16 16q51 -3 108 -3q53 0 104 3q17 0 17 -15v-1q0 -12 -15 -17q-26 -7 -36.5 -44t-10.5 -119v-267q0 -94 45.5 -147t117.5 -53q86 0 135.5 53.5 t49.5 146.5v271q0 79 -10.5 115.5t-36.5 43.5q-15 5 -15 17q0 16 17 16q39 -3 63 -3q17 0 61 2q17 2 17 -14v-1q0 -12 -15 -17q-26 -7 -36.5 -43.5t-10.5 -115.5v-276zM261 811q-16 5 -10 20l17 44q6 16 21 8l199 -102q13 -7 9 -19q-5 -12 -20 -9z" glyph-name="Ugrave" horiz-adv-x="657" unicode="Ù"/><glyph d="M585 234q0 -113 -66.5 -177.5t-178.5 -64.5q-120 0 -189 64t-69 178v272q0 82 -10.5 119t-36.5 44q-15 5 -15 17q0 16 16 16q51 -3 108 -3q53 0 104 3q17 0 17 -15v-1q0 -12 -15 -17q-26 -7 -36.5 -44t-10.5 -119v-267q0 -94 45.5 -147t117.5 -53q86 0 135.5 53.5 t49.5 146.5v271q0 79 -10.5 115.5t-36.5 43.5q-15 5 -15 17q0 16 17 16q39 -3 63 -3q17 0 61 2q17 2 17 -14v-1q0 -12 -15 -17q-26 -7 -36.5 -43.5t-10.5 -115.5v-276zM513 850q8 -15 -8 -21l-206 -83q-14 -6 -19 4q-6 9 7 19l181 126q14 11 22 -5z" glyph-name="Uacute" horiz-adv-x="657" unicode="Ú"/><glyph d="M585 234q0 -113 -66.5 -177.5t-178.5 -64.5q-120 0 -189 64t-69 178v272q0 82 -10.5 119t-36.5 44q-15 5 -15 17q0 16 16 16q51 -3 108 -3q53 0 104 3q17 0 17 -15v-1q0 -12 -15 -17q-26 -7 -36.5 -44t-10.5 -119v-267q0 -94 45.5 -147t117.5 -53q86 0 135.5 53.5 t49.5 146.5v271q0 79 -10.5 115.5t-36.5 43.5q-15 5 -15 17q0 16 17 16q39 -3 63 -3q17 0 61 2q17 2 17 -14v-1q0 -12 -15 -17q-26 -7 -36.5 -43.5t-10.5 -115.5v-276zM233 759q-13 -7 -20 3q-6 9 5 19l142 125q11 11 22 0l142 -125q11 -10 5 -19q-7 -10 -20 -3l-127 61 q-11 5 -22 0z" glyph-name="Ucircumflex" horiz-adv-x="657" unicode="Û"/><glyph d="M585 234q0 -113 -66.5 -177.5t-178.5 -64.5q-120 0 -189 64t-69 178v272q0 82 -10.5 119t-36.5 44q-15 5 -15 17q0 16 16 16q51 -3 108 -3q53 0 104 3q17 0 17 -15v-1q0 -12 -15 -17q-26 -7 -36.5 -44t-10.5 -119v-267q0 -94 45.5 -147t117.5 -53q86 0 135.5 53.5 t49.5 146.5v271q0 79 -10.5 115.5t-36.5 43.5q-15 5 -15 17q0 16 17 16q39 -3 63 -3q17 0 61 2q17 2 17 -14v-1q0 -12 -15 -17q-26 -7 -36.5 -43.5t-10.5 -115.5v-276zM301 757q-31 0 -48 17t-17 48q0 30 17 47t48 17q30 0 47 -17t17 -47q0 -31 -17 -48t-47 -17zM400 822 q0 30 17 47t48 17q30 0 47 -17t17 -47q0 -31 -17 -48t-47 -17q-31 0 -48 17t-17 48z" glyph-name="Udieresis" horiz-adv-x="657" unicode="Ü"/><glyph d="M439 687q1 15 17 15q41 -3 72 -3q18 0 60 2q8 1 12.5 -2.5t3.5 -11.5v-2q-2 -15 -15 -16q-29 -6 -54.5 -39t-61.5 -111l-98 -210q-4 -8 -4 -19v-76q0 -167 48 -183q14 -5 14 -17v-1q0 -15 -16 -15l-46 2h-120l-46 -2q-16 0 -16 15v1q0 12 14 17q48 16 48 183v49 q0 7 -5 19l-116 238h-1q-40 80 -62.5 111.5t-50.5 37.5q-14 3 -15 16v1q-2 16 16 16q49 -3 106 -3q67 0 125 3q15 2 17 -15v-1q1 -15 -15 -17q-34 -5 -31.5 -38t42.5 -111l82 -159q5 -9 10.5 -9.5t10.5 9.5l74 158q65 137 15 149q-15 5 -14 18v1zM478 845q8 -15 -8 -21 l-206 -83q-14 -6 -19 4q-6 9 7 19l181 126q14 11 22 -5z" glyph-name="Yacute" horiz-adv-x="610" unicode="Ý"/><glyph d="M470 378q0 77 -39 121t-110 44h-103q-1 -11 -1 -37v-303h104q71 0 110 46.5t39 128.5zM52 -2q-17 0 -17 15v1q0 12 15 17q26 7 36.5 44t10.5 119v312q0 82 -10.5 119t-36.5 44q-15 5 -15 17q0 16 17 16q51 -3 104 -3q56 0 107 3q16 0 16 -15v-1q0 -12 -15 -17 q-38 -10 -45 -96h128q123 0 188.5 -50.5t65.5 -144.5q0 -99 -65.5 -152t-188.5 -53h-130q2 -70 12.5 -103t34.5 -39q15 -4 15 -17q0 -16 -16 -16q-51 3 -107 3q-53 0 -104 -3z" glyph-name="Thorn" horiz-adv-x="631" unicode="Þ"/><glyph d="M204 13q0 -18 -22 -16q-61 7 -145 1q-17 -2 -17 13q0 13 15 17q26 7 36.5 42t10.5 113v159q0 62 -9.5 92t-34.5 36q-15 4 -15 16t16 15q28 5 36.5 26.5t8.5 58.5q0 101 64 155.5t168 54.5q96 0 158.5 -43.5t62.5 -111.5q0 -40 -18.5 -73.5t-40.5 -52.5t-40.5 -46 t-18.5 -56q0 -32 25 -55.5t60.5 -41.5t71.5 -39t61 -59t25 -91q0 -62 -53.5 -102t-132.5 -40q-28 0 -55 8t-39.5 16t-27.5 10.5t-18 -7.5q-8 -12 -19 -12h-6q-15 0 -17 15l-19 158q-2 17 13 17q14 0 18 -14q22 -70 68 -113t97 -43q36 0 57 23t21 55q0 39 -25.5 66.5 t-61.5 45t-72.5 37t-62 53.5t-25.5 82q0 41 15.5 75t37 57t43.5 44t37.5 46.5t15.5 54.5q0 45 -39 74t-90 29q-68 0 -104 -49t-22 -142q2 -16 3.5 -29t2.5 -34.5t1.5 -38.5t0.5 -56.5v-72v-101v-128.5v-98z" glyph-name="germandbls" horiz-adv-x="682" unicode="ß"/><glyph d="M176 -14q-66 0 -103.5 36.5t-37.5 91.5q0 154 292 218q16 3 14 18l-3 20q-17 113 -81 113q-84 0 -130 -134q-4 -13 -18 -13t-12 17l14 141q1 15 16 15h2q11 0 19 -11q6 -8 12 -9t15 3t20 9.5t33 10t48 4.5q81 0 128 -39.5t58 -111.5l40 -277q5 -34 10.5 -48t16.5 -16 q16 -3 16 -11q0 -13 -14 -16q-63 -12 -104.5 11t-48.5 78l-4 28q-1 7 -4 9.5t-7.5 -0.5t-7.5 -11q-25 -59 -72 -92.5t-107 -33.5zM156 134q0 -40 17.5 -62.5t50.5 -22.5q52 0 90.5 68.5t32.5 170.5q0 19 -31 9q-80 -25 -120 -68t-40 -95zM158 626q-16 5 -10 20l17 44 q6 16 21 8l199 -102q13 -7 9 -19q-5 -12 -20 -9z" glyph-name="agrave" horiz-adv-x="560" unicode="à"/><glyph d="M176 -14q-66 0 -103.5 36.5t-37.5 91.5q0 154 292 218q16 3 14 18l-3 20q-17 113 -81 113q-84 0 -130 -134q-4 -13 -18 -13t-12 17l14 141q1 15 16 15h2q11 0 19 -11q6 -8 12 -9t15 3t20 9.5t33 10t48 4.5q81 0 128 -39.5t58 -111.5l40 -277q5 -34 10.5 -48t16.5 -16 q16 -3 16 -11q0 -13 -14 -16q-63 -12 -104.5 11t-48.5 78l-4 28q-1 7 -4 9.5t-7.5 -0.5t-7.5 -11q-25 -59 -72 -92.5t-107 -33.5zM156 134q0 -40 17.5 -62.5t50.5 -22.5q52 0 90.5 68.5t32.5 170.5q0 19 -31 9q-80 -25 -120 -68t-40 -95zM398 658q8 -15 -8 -21l-206 -83 q-14 -6 -19 4q-6 9 7 19l181 126q14 11 22 -5z" glyph-name="aacute" horiz-adv-x="560" unicode="á"/><glyph d="M176 -14q-66 0 -103.5 36.5t-37.5 91.5q0 154 292 218q16 3 14 18l-3 20q-17 113 -81 113q-84 0 -130 -134q-4 -13 -18 -13t-12 17l14 141q1 15 16 15h2q11 0 19 -11q6 -8 12 -9t15 3t20 9.5t33 10t48 4.5q81 0 128 -39.5t58 -111.5l40 -277q5 -34 10.5 -48t16.5 -16 q16 -3 16 -11q0 -13 -14 -16q-63 -12 -104.5 11t-48.5 78l-4 28q-1 7 -4 9.5t-7.5 -0.5t-7.5 -11q-25 -59 -72 -92.5t-107 -33.5zM156 134q0 -40 17.5 -62.5t50.5 -22.5q52 0 90.5 68.5t32.5 170.5q0 19 -31 9q-80 -25 -120 -68t-40 -95zM135 568q-13 -7 -20 3q-6 9 5 19 l142 125q11 11 22 0l142 -125q11 -10 5 -19q-7 -10 -20 -3l-127 61q-11 5 -22 0z" glyph-name="acircumflex" horiz-adv-x="560" unicode="â"/><glyph d="M176 -14q-66 0 -103.5 36.5t-37.5 91.5q0 154 292 218q16 3 14 18l-3 20q-17 113 -81 113q-84 0 -130 -134q-4 -13 -18 -13t-12 17l14 141q1 15 16 15h2q11 0 19 -11q6 -8 12 -9t15 3t20 9.5t33 10t48 4.5q81 0 128 -39.5t58 -111.5l40 -277q5 -34 10.5 -48t16.5 -16 q16 -3 16 -11q0 -13 -14 -16q-63 -12 -104.5 11t-48.5 78l-4 28q-1 7 -4 9.5t-7.5 -0.5t-7.5 -11q-25 -59 -72 -92.5t-107 -33.5zM156 134q0 -40 17.5 -62.5t50.5 -22.5q52 0 90.5 68.5t32.5 170.5q0 19 -31 9q-80 -25 -120 -68t-40 -95zM137 587q-8 10 -1 21q19 32 45 52.5 t51 20.5q29 0 70.5 -21t57.5 -21q22 0 42 26q12 15 18 6q7 -10 2 -21q-14 -31 -37.5 -52t-48.5 -21t-67 21t-60 21q-24 0 -53 -29q-13 -13 -19 -3z" glyph-name="atilde" horiz-adv-x="560" unicode="ã"/><glyph d="M176 -14q-66 0 -103.5 36.5t-37.5 91.5q0 154 292 218q16 3 14 18l-3 20q-17 113 -81 113q-84 0 -130 -134q-4 -13 -18 -13t-12 17l14 141q1 15 16 15h2q11 0 19 -11q6 -8 12 -9t15 3t20 9.5t33 10t48 4.5q81 0 128 -39.5t58 -111.5l40 -277q5 -34 10.5 -48t16.5 -16 q16 -3 16 -11q0 -13 -14 -16q-63 -12 -104.5 11t-48.5 78l-4 28q-1 7 -4 9.5t-7.5 -0.5t-7.5 -11q-25 -59 -72 -92.5t-107 -33.5zM156 134q0 -40 17.5 -62.5t50.5 -22.5q52 0 90.5 68.5t32.5 170.5q0 19 -31 9q-80 -25 -120 -68t-40 -95zM189 574q-31 0 -48 17t-17 48 q0 30 17 47t48 17q30 0 47 -17t17 -47q0 -31 -17 -48t-47 -17zM288 639q0 30 17 47t48 17q30 0 47 -17t17 -47q0 -31 -17 -48t-47 -17q-31 0 -48 17t-17 48z" glyph-name="adieresis" horiz-adv-x="560" unicode="ä"/><glyph d="M176 -14q-66 0 -103.5 36.5t-37.5 91.5q0 154 292 218q16 3 14 18l-3 20q-17 113 -81 113q-84 0 -130 -134q-4 -13 -18 -13t-12 17l14 141q1 15 16 15h2q11 0 19 -11q6 -8 12 -9t15 3t20 9.5t33 10t48 4.5q81 0 128 -39.5t58 -111.5l40 -277q5 -34 10.5 -48t16.5 -16 q16 -3 16 -11q0 -13 -14 -16q-63 -12 -104.5 11t-48.5 78l-4 28q-1 7 -4 9.5t-7.5 -0.5t-7.5 -11q-25 -59 -72 -92.5t-107 -33.5zM156 134q0 -40 17.5 -62.5t50.5 -22.5q52 0 90.5 68.5t32.5 170.5q0 19 -31 9q-80 -25 -120 -68t-40 -95zM282 556q-43 0 -70.5 24.5 t-27.5 59.5t27.5 59.5t70.5 24.5t70.5 -24.5t27.5 -59.5t-27.5 -59.5t-70.5 -24.5zM257 635q12 -63 39 -59q25 6 11 69q-5 27 -16 44t-23 15q-26 -6 -11 -69z" glyph-name="aring" horiz-adv-x="560" unicode="å"/><glyph d="M176 -14q-66 0 -103.5 36.5t-37.5 91.5q0 158 308 221l-5 35q-17 113 -81 113q-84 0 -132 -134q-6 -13 -17 -13q-13 0 -11 17l14 141q1 15 16 15h2q11 0 19 -11q6 -8 12 -9t15 3t20 9.5t33 10t48 4.5q106 0 154 -67q68 66 176 66q89 0 142.5 -44.5t53.5 -105.5 q0 -40 -76 -60q-14 -4 -93.5 -25t-145.5 -38q4 -91 47.5 -147.5t111.5 -56.5q81 0 137 70q10 13 21 7q11 -7 4 -20q-30 -52 -81.5 -81t-114.5 -29q-88 0 -151 46t-88 125q-20 -79 -71.5 -124.5t-125.5 -45.5zM156 134q0 -40 18 -63t51 -23q56 0 94.5 73t26.5 185 q-95 -24 -142.5 -69.5t-47.5 -102.5zM487 279q66 16 113 30q58 17 74.5 32t15.5 58q-1 39 -24 63.5t-54 24.5q-58 0 -89.5 -60t-35.5 -148z" glyph-name="ae" horiz-adv-x="840" unicode="æ"/><glyph d="M420 307q-27 0 -45.5 17.5t-18.5 43.5q0 37 35 54q18 7 6 19q-36 42 -98 42q-56 0 -96.5 -54.5t-40.5 -146.5q0 -106 43.5 -173t114.5 -67q89 0 143 67q9 13 18 8q10 -7 2 -19q-57 -103 -173 -111l-14 -32q-6 -16 10 -20q61 -21 61 -75q0 -42 -44 -61.5t-93 0.5 q-14 6 -9 18q4 11 19 9q21 -3 36 7.5t16 32.5q1 35 -32 49q-14 7 -9 20l23 52q-106 6 -172.5 79t-66.5 185q0 121 72.5 193t185.5 72q76 0 132.5 -45t56.5 -103q0 -26 -18.5 -43.5t-43.5 -17.5z" glyph-name="ccedilla" horiz-adv-x="510" unicode="ç"/><glyph d="M289 -15q-114 0 -184 75.5t-70 194.5q0 115 66 187.5t182 72.5q89 0 142.5 -44.5t53.5 -105.5q0 -40 -76 -60q-22 -6 -97 -25.5t-128 -33.5q-14 -5 -13 -19q7 -85 50 -137t108 -52q81 0 137 70q10 13 21 7q11 -7 4 -20q-30 -52 -81.5 -81t-114.5 -29zM165 298 q-1 -8 4 -12t14 -2q57 13 94 25q58 17 74.5 32t15.5 58q-1 39 -24 63.5t-54 24.5q-55 0 -86 -53.5t-38 -135.5zM180 619q-16 5 -10 20l17 44q6 16 21 8l199 -102q13 -7 9 -19q-5 -12 -20 -9z" glyph-name="egrave" horiz-adv-x="517" unicode="è"/><glyph d="M289 -15q-114 0 -184 75.5t-70 194.5q0 115 66 187.5t182 72.5q89 0 142.5 -44.5t53.5 -105.5q0 -40 -76 -60q-22 -6 -97 -25.5t-128 -33.5q-14 -5 -13 -19q7 -85 50 -137t108 -52q81 0 137 70q10 13 21 7q11 -7 4 -20q-30 -52 -81.5 -81t-114.5 -29zM165 298 q-1 -8 4 -12t14 -2q57 13 94 25q58 17 74.5 32t15.5 58q-1 39 -24 63.5t-54 24.5q-55 0 -86 -53.5t-38 -135.5zM398 647q8 -15 -8 -21l-206 -83q-14 -6 -19 4q-6 9 7 19l181 126q14 11 22 -5z" glyph-name="eacute" horiz-adv-x="517" unicode="é"/><glyph d="M289 -15q-114 0 -184 75.5t-70 194.5q0 115 66 187.5t182 72.5q89 0 142.5 -44.5t53.5 -105.5q0 -40 -76 -60q-22 -6 -97 -25.5t-128 -33.5q-14 -5 -13 -19q7 -85 50 -137t108 -52q81 0 137 70q10 13 21 7q11 -7 4 -20q-30 -52 -81.5 -81t-114.5 -29zM165 298 q-1 -8 4 -12t14 -2q57 13 94 25q58 17 74.5 32t15.5 58q-1 39 -24 63.5t-54 24.5q-55 0 -86 -53.5t-38 -135.5zM140 560q-14 -7 -20 3q-6 9 5 19l142 125q11 11 22 0l142 -125q11 -10 5 -19q-6 -10 -20 -3l-127 61q-11 5 -22 0z" glyph-name="ecircumflex" horiz-adv-x="517" unicode="ê"/><glyph d="M289 -15q-114 0 -184 75.5t-70 194.5q0 115 66 187.5t182 72.5q89 0 142.5 -44.5t53.5 -105.5q0 -40 -76 -60q-22 -6 -97 -25.5t-128 -33.5q-14 -5 -13 -19q7 -85 50 -137t108 -52q81 0 137 70q10 13 21 7q11 -7 4 -20q-30 -52 -81.5 -81t-114.5 -29zM165 298 q-1 -8 4 -12t14 -2q57 13 94 25q58 17 74.5 32t15.5 58q-1 39 -24 63.5t-54 24.5q-55 0 -86 -53.5t-38 -135.5zM205 561q-31 0 -48 17t-17 48q0 30 17 47t48 17q30 0 47 -17t17 -47q0 -31 -17 -48t-47 -17zM304 626q0 30 17 47t48 17q30 0 47 -17t17 -47q0 -31 -17 -48 t-47 -17q-31 0 -48 17t-17 48z" glyph-name="edieresis" horiz-adv-x="517" unicode="ë"/><glyph d="M207 189q0 -79 10.5 -115.5t36.5 -43.5q15 -4 15 -17q0 -16 -17 -16q-43 4 -106 4q-59 0 -104 -4q-17 0 -17 15v1q0 13 15 17q26 7 36.5 43.5t10.5 115.5v144q0 69 -9.5 94t-36.5 28q-15 1 -15 17v2q0 16 16 16q68 5 147 22q18 3 18 -14v-309zM9 630q-16 5 -10 20l17 44 q6 16 21 8l199 -102q13 -7 9 -19q-5 -12 -20 -9z" glyph-name="igrave" horiz-adv-x="289" unicode="ì"/><glyph d="M207 189q0 -79 10.5 -115.5t36.5 -43.5q15 -4 15 -17q0 -16 -17 -16q-43 4 -106 4q-59 0 -104 -4q-17 0 -17 15v1q0 13 15 17q26 7 36.5 43.5t10.5 115.5v144q0 69 -9.5 94t-36.5 28q-15 1 -15 17v2q0 16 16 16q68 5 147 22q18 3 18 -14v-309zM245 660q8 -15 -8 -21 l-206 -83q-14 -6 -19 4q-6 9 7 19l181 126q14 11 22 -5z" glyph-name="iacute" horiz-adv-x="289" unicode="í"/><glyph d="M207 189q0 -79 10.5 -115.5t36.5 -43.5q15 -4 15 -17q0 -16 -17 -16q-43 4 -106 4q-59 0 -104 -4q-17 0 -17 15v1q0 13 15 17q26 7 36.5 43.5t10.5 115.5v144q0 69 -9.5 94t-36.5 28q-15 1 -15 17v2q0 16 16 16q68 5 147 22q18 3 18 -14v-309zM-10 567q-14 -7 -20 3 q-6 9 5 19l142 125q11 11 22 0l142 -125q11 -10 5 -19q-6 -10 -20 -3l-127 61q-11 5 -22 0z" glyph-name="icircumflex" horiz-adv-x="289" unicode="î"/><glyph d="M207 189q0 -79 10.5 -115.5t36.5 -43.5q15 -4 15 -17q0 -16 -17 -16q-43 4 -106 4q-59 0 -104 -4q-17 0 -17 15v1q0 13 15 17q26 7 36.5 43.5t10.5 115.5v144q0 69 -9.5 94t-36.5 28q-15 1 -15 17v2q0 16 16 16q68 5 147 22q18 3 18 -14v-309zM51 577q-31 0 -48 17 t-17 48q0 30 17 47t48 17q30 0 47 -17t17 -47q0 -31 -17 -48t-47 -17zM150 642q0 30 17 47t48 17q30 0 47 -17t17 -47q0 -31 -17 -48t-47 -17q-31 0 -48 17t-17 48z" glyph-name="idieresis" horiz-adv-x="289" unicode="ï"/><glyph d="M475 699q14 6 21 -9t-8 -22l-50 -22q56 -64 84.5 -165.5t24.5 -199.5t-37 -160q-30 -63 -88.5 -99.5t-135.5 -36.5q-113 0 -182 75t-69 191t69 190.5t182 74.5q73 0 128 -32q-15 78 -44 133l-77 -35q-16 -7 -22 9l-1 1q-6 14 9 21l73 32q-36 53 -83 55q-50 1 -82 -33 t-62 -112q-6 -13 -19 -13q-15 0 -12 17l26 149q3 15 17 15h6q10 0 19 -11q12 -6 19 -2.5t34 11t55 7.5q81 0 143 -56zM161 239q10 -113 49 -172.5t98 -52.5q58 7 86 74t18 175q-9 112 -48.5 171.5t-99.5 52.5q-58 -7 -85.5 -73t-17.5 -175z" glyph-name="eth" horiz-adv-x="587" unicode="ð"/><glyph d="M530 189q0 -79 10.5 -115.5t36.5 -43.5q15 -4 15 -17q0 -16 -17 -16q-43 4 -107 4q-59 0 -104 -4q-17 0 -17 15v1q0 13 15 17q26 7 36.5 43.5t10.5 115.5v167q0 120 -83 120q-49 0 -83.5 -46t-35.5 -105v-136q0 -79 10.5 -115.5t36.5 -43.5q15 -4 15 -17q0 -16 -17 -16 q-43 4 -106 4q-59 0 -104 -4q-17 0 -17 15v1q0 13 15 17q26 7 36.5 43.5t10.5 115.5v144q0 69 -9.5 94t-36.5 28q-15 1 -15 17v2q0 16 16 16q68 5 147 22q18 3 18 -14v-35q0 -11 4.5 -12.5t12.5 7.5q50 58 133 58q80 0 126.5 -43.5t46.5 -115.5v-168zM190 577q-8 10 -1 21 q19 32 45 52.5t51 20.5q29 0 70.5 -21t57.5 -21q22 0 42 26q12 15 18 6q7 -10 2 -21q-14 -31 -37.5 -52t-48.5 -21t-67 21t-60 21q-24 0 -53 -29q-13 -13 -19 -3z" glyph-name="ntilde" horiz-adv-x="612" unicode="ñ"/><glyph d="M295 -15q-119 0 -189.5 74.5t-70.5 191.5q0 116 70.5 190.5t189.5 74.5t189 -74.5t70 -190.5q0 -117 -70 -191.5t-189 -74.5zM164 236q14 -110 55.5 -168.5t103.5 -52.5q65 6 90.5 71.5t11.5 179.5q-15 111 -54.5 169t-103.5 51q-64 -6 -90.5 -71.5t-12.5 -178.5z M191 629q-16 5 -10 20l17 44q6 16 21 8l199 -102q13 -7 9 -19q-5 -12 -20 -9z" glyph-name="ograve" horiz-adv-x="589" unicode="ò"/><glyph d="M295 -15q-119 0 -189.5 74.5t-70.5 191.5q0 116 70.5 190.5t189.5 74.5t189 -74.5t70 -190.5q0 -117 -70 -191.5t-189 -74.5zM164 236q14 -110 55.5 -168.5t103.5 -52.5q65 6 90.5 71.5t11.5 179.5q-15 111 -54.5 169t-103.5 51q-64 -6 -90.5 -71.5t-12.5 -178.5z M409 647q8 -15 -8 -21l-206 -83q-14 -6 -19 4q-6 9 7 19l181 126q14 11 22 -5z" glyph-name="oacute" horiz-adv-x="589" unicode="ó"/><glyph d="M295 -15q-119 0 -189.5 74.5t-70.5 191.5q0 116 70.5 190.5t189.5 74.5t189 -74.5t70 -190.5q0 -117 -70 -191.5t-189 -74.5zM164 236q14 -110 55.5 -168.5t103.5 -52.5q65 6 90.5 71.5t11.5 179.5q-15 111 -54.5 169t-103.5 51q-64 -6 -90.5 -71.5t-12.5 -178.5z M153 555q-13 -7 -20 3q-6 9 5 19l142 125q11 11 22 0l142 -125q11 -10 5 -19q-7 -10 -20 -3l-127 61q-11 5 -22 0z" glyph-name="ocircumflex" horiz-adv-x="589" unicode="ô"/><glyph d="M295 -15q-119 0 -189.5 74.5t-70.5 191.5q0 116 70.5 190.5t189.5 74.5t189 -74.5t70 -190.5q0 -117 -70 -191.5t-189 -74.5zM164 236q14 -110 55.5 -168.5t103.5 -52.5q65 6 90.5 71.5t11.5 179.5q-15 111 -54.5 169t-103.5 51q-64 -6 -90.5 -71.5t-12.5 -178.5z M164 574q-8 10 -1 21q19 32 45 52.5t51 20.5q29 0 70.5 -21t57.5 -21q22 0 42 26q12 15 18 6q7 -10 2 -21q-14 -31 -37.5 -52t-48.5 -21t-67 21t-60 21q-24 0 -53 -29q-13 -13 -19 -3z" glyph-name="otilde" horiz-adv-x="589" unicode="õ"/><glyph d="M295 -15q-119 0 -189.5 74.5t-70.5 191.5q0 116 70.5 190.5t189.5 74.5t189 -74.5t70 -190.5q0 -117 -70 -191.5t-189 -74.5zM164 236q14 -110 55.5 -168.5t103.5 -52.5q65 6 90.5 71.5t11.5 179.5q-15 111 -54.5 169t-103.5 51q-64 -6 -90.5 -71.5t-12.5 -178.5z M215 551q-31 0 -48 17t-17 48q0 30 17 47t48 17q30 0 47 -17t17 -47q0 -31 -17 -48t-47 -17zM314 616q0 30 17 47t48 17q30 0 47 -17t17 -47q0 -31 -17 -48t-47 -17q-31 0 -48 17t-17 48z" glyph-name="odieresis" horiz-adv-x="589" unicode="ö"/><glyph d="M100 303q0 16 16 16h343q16 0 16 -16v-11q0 -16 -16 -16h-343q-16 0 -16 16v11zM242 179q0 46 46 46q45 0 45 -46t-45 -46q-46 0 -46 46zM242 416q0 46 46 46q45 0 45 -46t-45 -46q-46 0 -46 46z" glyph-name="divide" horiz-adv-x="575" unicode="÷"/><glyph d="M295 -15q-74 0 -129 29l-71 -121h-37l81 138q-104 73 -104 220q0 116 70.5 190.5t189.5 74.5q64 0 115 -23l72 123h36l-80 -137q56 -35 86 -94t30 -134q0 -117 -70 -191.5t-189 -74.5zM164 236q9 -69 28 -115l181 310q-40 62 -106 55q-64 -6 -90.5 -71.5t-12.5 -178.5z M208 86q44 -78 115 -71q65 6 90.5 71.5t11.5 179.5q-11 82 -34 133z" glyph-name="oslash" horiz-adv-x="589" unicode="ø"/><glyph d="M198 166q0 -139 84 -139q51 0 84 56t37 129l-1 159q-2 46 -12 64t-33 20q-15 1 -15 17v2q0 16 16 16q68 5 147 22q18 3 18 -14v-315q0 -81 8.5 -115t33.5 -40q15 -4 15 -17q0 -15 -17 -13q-42 2 -68 2q-35 0 -61 -3q-17 -1 -24 13t-7 48q0 11 -4.5 12t-10.5 -9 q-47 -77 -139 -77q-79 0 -126 45.5t-47 124.5v179q0 69 -9.5 94t-36.5 28q-15 1 -15 17v2q0 16 16 16q71 5 149 22q18 3 18 -14v-332zM195 628q-16 5 -10 20l17 44q6 16 21 8l199 -102q13 -7 9 -19q-5 -12 -20 -9z" glyph-name="ugrave" horiz-adv-x="600" unicode="ù"/><glyph d="M198 166q0 -139 84 -139q51 0 84 56t37 129l-1 159q-2 46 -12 64t-33 20q-15 1 -15 17v2q0 16 16 16q68 5 147 22q18 3 18 -14v-315q0 -81 8.5 -115t33.5 -40q15 -4 15 -17q0 -15 -17 -13q-42 2 -68 2q-35 0 -61 -3q-17 -1 -24 13t-7 48q0 11 -4.5 12t-10.5 -9 q-47 -77 -139 -77q-79 0 -126 45.5t-47 124.5v179q0 69 -9.5 94t-36.5 28q-15 1 -15 17v2q0 16 16 16q71 5 149 22q18 3 18 -14v-332zM439 661q8 -15 -8 -21l-206 -83q-14 -6 -19 4q-6 9 7 19l181 126q14 11 22 -5z" glyph-name="uacute" horiz-adv-x="600" unicode="ú"/><glyph d="M198 166q0 -139 84 -139q51 0 84 56t37 129l-1 159q-2 46 -12 64t-33 20q-15 1 -15 17v2q0 16 16 16q68 5 147 22q18 3 18 -14v-315q0 -81 8.5 -115t33.5 -40q15 -4 15 -17q0 -15 -17 -13q-42 2 -68 2q-35 0 -61 -3q-17 -1 -24 13t-7 48q0 11 -4.5 12t-10.5 -9 q-47 -77 -139 -77q-79 0 -126 45.5t-47 124.5v179q0 69 -9.5 94t-36.5 28q-15 1 -15 17v2q0 16 16 16q71 5 149 22q18 3 18 -14v-332zM160 576q-14 -7 -20 3q-6 9 5 19l142 125q11 11 22 0l142 -125q11 -10 5 -19q-6 -10 -20 -3l-127 61q-11 5 -22 0z" glyph-name="ucircumflex" horiz-adv-x="600" unicode="û"/><glyph d="M198 166q0 -139 84 -139q51 0 84 56t37 129l-1 159q-2 46 -12 64t-33 20q-15 1 -15 17v2q0 16 16 16q68 5 147 22q18 3 18 -14v-315q0 -81 8.5 -115t33.5 -40q15 -4 15 -17q0 -15 -17 -13q-42 2 -68 2q-35 0 -61 -3q-17 -1 -24 13t-7 48q0 11 -4.5 12t-10.5 -9 q-47 -77 -139 -77q-79 0 -126 45.5t-47 124.5v179q0 69 -9.5 94t-36.5 28q-15 1 -15 17v2q0 16 16 16q71 5 149 22q18 3 18 -14v-332zM218 564q-31 0 -48 17t-17 48q0 30 17 47t48 17q30 0 47 -17t17 -47q0 -31 -17 -48t-47 -17zM317 629q0 30 17 47t48 17q30 0 47 -17 t17 -47q0 -31 -17 -48t-47 -17q-31 0 -48 17t-17 48z" glyph-name="udieresis" horiz-adv-x="600" unicode="ü"/><glyph d="M96 -263q-41 0 -66.5 21t-26.5 48t15 52q20 25 53 25q25 0 42.5 -17t17.5 -42q0 -20 -11 -35.5t-29 -21.5q6 -1 14 -1q37 0 66 48.5t72 165.5q4 10 -1 22l-158 369q-23 53 -37.5 73.5t-34.5 24.5q-15 3 -16 16v1q-2 16 16 16q48 -3 102 -3t107 3q16 0 17 -15v-1 q1 -15 -15 -17q-28 -5 -27.5 -31.5t28.5 -94.5l71 -162q3 -7 7 -9t8 1t6 9l54 152q24 71 22.5 100.5t-25.5 34.5q-15 3 -14 17v1q1 15 17 15q42 -3 74 -3q15 0 53 2q9 1 13.5 -2.5t3.5 -11.5v-2q-1 -13 -16 -16q-27 -5 -47 -36t-50 -111l-115 -321q-23 -65 -36 -98 t-32 -71.5t-35 -55t-38 -28t-49 -11.5zM408 666q8 -15 -8 -21l-206 -83q-14 -6 -19 4q-6 9 7 19l181 126q14 11 22 -5z" glyph-name="yacute" horiz-adv-x="505" unicode="ý"/><glyph d="M27 -265q-17 0 -17 15v1q0 13 15 17q26 7 36.5 43.5t10.5 115.5v588q0 69 -9.5 94t-36.5 28q-15 1 -15 17v2q0 16 16 16q68 5 147 22q18 3 18 -14v-275q18 50 59 80.5t95 30.5q107 0 167 -71t60 -193q0 -115 -66 -191.5t-167 -76.5q-46 0 -86.5 19t-61.5 51v-127 q0 -79 10.5 -115.5t36.5 -43.5q15 -4 15 -17q0 -16 -17 -16q-43 4 -106 4q-59 0 -104 -4zM192 190q0 -67 35.5 -117.5t92.5 -50.5q61 0 94.5 77t25.5 198q-5 88 -31.5 136t-71.5 49q-63 1 -104 -63.5t-41 -163.5v-65z" glyph-name="thorn" horiz-adv-x="608" unicode="þ"/><glyph d="M96 -263q-41 0 -66.5 21t-26.5 48t15 52q20 25 53 25q25 0 42.5 -17t17.5 -42q0 -20 -11 -35.5t-29 -21.5q6 -1 14 -1q37 0 66 48.5t72 165.5q4 10 -1 22l-158 369q-23 53 -37.5 73.5t-34.5 24.5q-15 3 -16 16v1q-2 16 16 16q48 -3 102 -3t107 3q16 0 17 -15v-1 q1 -15 -15 -17q-28 -5 -27.5 -31.5t28.5 -94.5l71 -162q3 -7 7 -9t8 1t6 9l54 152q24 71 22.5 100.5t-25.5 34.5q-15 3 -14 17v1q1 15 17 15q42 -3 74 -3q15 0 53 2q9 1 13.5 -2.5t3.5 -11.5v-2q-1 -13 -16 -16q-27 -5 -47 -36t-50 -111l-115 -321q-23 -65 -36 -98 t-32 -71.5t-35 -55t-38 -28t-49 -11.5zM212 559q-31 0 -48 17t-17 48q0 30 17 47t48 17q30 0 47 -17t17 -47q0 -31 -17 -48t-47 -17zM311 624q0 30 17 47t48 17q30 0 47 -17t17 -47q0 -31 -17 -48t-47 -17q-31 0 -48 17t-17 48z" glyph-name="ydieresis" horiz-adv-x="505" unicode="ÿ"/><glyph d="M295 687q5 13 19 13h23q14 0 19 -13l197 -508q33 -86 51 -115.5t45 -34.5q15 -3 15 -16q0 -16 -17 -16q-47 3 -99 3q-68 0 -130 -3q-16 -2 -16 15q0 16 15 17q34 4 38 31.5t-21 95.5l-24 61q-4 13 -18 13h-214q-14 0 -19 -13l-13 -38q-51 -137 9 -150q15 -3 15 -16 q0 -16 -17 -16q-45 3 -78 3q-19 0 -63 -2q-17 -2 -17 14v1q0 13 15 16q28 5 48 36t52 114zM183 279q-6 -18 13 -18h178q19 0 13 18l-94 247q-4 10 -10.5 10t-10.5 -10zM197 793q0 16 16 16h229q16 0 16 -16v-7q0 -16 -16 -16h-229q-16 0 -16 16v7z" glyph-name="Amacron" horiz-adv-x="659" unicode="Ā"/><glyph d="M176 -14q-66 0 -103.5 36.5t-37.5 91.5q0 154 292 218q16 3 14 18l-3 20q-17 113 -81 113q-84 0 -130 -134q-4 -13 -18 -13t-12 17l14 141q1 15 16 15h2q11 0 19 -11q6 -8 12 -9t15 3t20 9.5t33 10t48 4.5q81 0 128 -39.5t58 -111.5l40 -277q5 -34 10.5 -48t16.5 -16 q16 -3 16 -11q0 -13 -14 -16q-63 -12 -104.5 11t-48.5 78l-4 28q-1 7 -4 9.5t-7.5 -0.5t-7.5 -11q-25 -59 -72 -92.5t-107 -33.5zM156 134q0 -40 17.5 -62.5t50.5 -22.5q52 0 90.5 68.5t32.5 170.5q0 19 -31 9q-80 -25 -120 -68t-40 -95zM141 607q0 16 16 16h229 q16 0 16 -16v-7q0 -16 -16 -16h-229q-16 0 -16 16v7z" glyph-name="amacron" horiz-adv-x="560" unicode="ā"/><glyph d="M295 687q5 13 19 13h23q14 0 19 -13l197 -508q33 -86 51 -115.5t45 -34.5q15 -3 15 -16q0 -16 -17 -16q-47 3 -99 3q-68 0 -130 -3q-16 -2 -16 15q0 16 15 17q34 4 38 31.5t-21 95.5l-24 61q-4 13 -18 13h-214q-14 0 -19 -13l-13 -38q-51 -137 9 -150q15 -3 15 -16 q0 -16 -17 -16q-45 3 -78 3q-19 0 -63 -2q-17 -2 -17 14v1q0 13 15 16q28 5 48 36t52 114zM183 279q-6 -18 13 -18h178q19 0 13 18l-94 247q-4 10 -10.5 10t-10.5 -10zM327 755q46 0 85 29t57 79q7 18 -8 18h-2q-12 0 -19 -10q-41 -55 -113 -55t-113 55q-7 10 -19 10 q-7 0 -10 -5.5t0 -15.5q17 -48 56.5 -76.5t85.5 -28.5z" glyph-name="Abreve" horiz-adv-x="659" unicode="Ă"/><glyph d="M176 -14q-66 0 -103.5 36.5t-37.5 91.5q0 154 292 218q16 3 14 18l-3 20q-17 113 -81 113q-84 0 -130 -134q-4 -13 -18 -13t-12 17l14 141q1 15 16 15h2q11 0 19 -11q6 -8 12 -9t15 3t20 9.5t33 10t48 4.5q81 0 128 -39.5t58 -111.5l40 -277q5 -34 10.5 -48t16.5 -16 q16 -3 16 -11q0 -13 -14 -16q-63 -12 -104.5 11t-48.5 78l-4 28q-1 7 -4 9.5t-7.5 -0.5t-7.5 -11q-25 -59 -72 -92.5t-107 -33.5zM156 134q0 -40 17.5 -62.5t50.5 -22.5q52 0 90.5 68.5t32.5 170.5q0 19 -31 9q-80 -25 -120 -68t-40 -95zM276 563q46 0 85 29t57 79 q7 18 -8 18h-2q-12 0 -19 -10q-41 -55 -113 -55t-113 55q-7 10 -19 10q-7 0 -10 -5.5t0 -15.5q17 -48 56.5 -76.5t85.5 -28.5z" glyph-name="abreve" horiz-adv-x="560" unicode="ă"/><glyph d="M295 687q5 13 19 13h23q14 0 19 -13l197 -508q33 -86 51 -115.5t45 -34.5q15 -3 15 -16q0 -16 -17 -16q-6 0 -10 1q-45 -33 -45 -84q0 -33 18 -49t42 -14q15 2 19 -10q5 -14 -10 -19q-49 -17 -98.5 3t-49.5 77q0 28 21 55.5t49 42.5h-35q-68 0 -130 -3q-16 -2 -16 15 q0 16 15 17q34 4 38 31.5t-21 95.5l-24 61q-4 13 -18 13h-214q-14 0 -19 -13l-13 -38q-51 -137 9 -150q15 -3 15 -16q0 -16 -17 -16q-45 3 -78 3q-19 0 -63 -2q-17 -2 -17 14v1q0 13 15 16q28 5 48 36t52 114zM183 279q-6 -18 13 -18h178q19 0 13 18l-94 247q-4 10 -10.5 10 t-10.5 -10z" glyph-name="Aogonek" horiz-adv-x="659" unicode="Ą"/><glyph d="M176 -14q-66 0 -103.5 36.5t-37.5 91.5q0 154 292 218q16 3 14 18l-3 20q-17 113 -81 113q-84 0 -130 -134q-4 -13 -18 -13t-12 17l14 141q1 15 16 15h2q11 0 19 -11q6 -8 12 -9t15 3t20 9.5t33 10t48 4.5q81 0 128 -39.5t58 -111.5l40 -277q5 -34 10.5 -48t16.5 -16 q16 -3 16 -11t-7 -13l2 -1q-49 -32 -49 -86q0 -33 18 -49t42 -14q15 2 19 -10q5 -14 -10 -19q-49 -17 -98.5 3t-49.5 77q0 26 17.5 51.5t43.5 41.5q-40 4 -65 27.5t-30 64.5l-4 28q-1 7 -4 9.5t-7.5 -0.5t-7.5 -11q-25 -59 -72 -92.5t-107 -33.5zM156 134q0 -40 17.5 -62.5 t50.5 -22.5q52 0 90.5 68.5t32.5 170.5q0 19 -31 9q-80 -25 -120 -68t-40 -95z" glyph-name="aogonek" horiz-adv-x="560" unicode="ą"/><glyph d="M380 686q-101 0 -157.5 -79t-55.5 -218q1 -91 30.5 -170t88.5 -130t136 -51q64 0 120.5 27.5t89.5 70.5q11 14 19 6q9 -9 2 -21q-41 -65 -106.5 -101t-144.5 -36q-163 0 -265.5 107t-101.5 275q1 162 96 255.5t267 93.5q30 0 65 -7t56 -13t40 -4.5t28 14.5q8 11 19 11h4 q14 0 16 -15l20 -250q2 -17 -12 -17t-18 16q-31 115 -86 175.5t-150 60.5zM529 867q8 -15 -8 -21l-206 -83q-14 -6 -19 4q-6 9 7 19l181 126q14 11 22 -5z" glyph-name="Cacute" horiz-adv-x="695" unicode="Ć"/><glyph d="M420 307q-27 0 -45.5 17.5t-18.5 43.5q0 37 35 54q18 7 6 19q-36 42 -98 42q-56 0 -96.5 -54.5t-40.5 -146.5q0 -106 43.5 -173t114.5 -67q89 0 143 67q9 13 18 8q10 -7 2 -19q-30 -53 -79.5 -82.5t-111.5 -29.5q-112 0 -184.5 74t-72.5 191q0 121 72.5 193t185.5 72 q76 0 132.5 -45t56.5 -103q0 -26 -18.5 -43.5t-43.5 -17.5zM407 662q8 -15 -8 -21l-206 -83q-14 -6 -19 4q-6 9 7 19l181 126q14 11 22 -5z" glyph-name="cacute" horiz-adv-x="510" unicode="ć"/><glyph d="M380 686q-101 0 -157.5 -79t-55.5 -218q1 -91 30.5 -170t88.5 -130t136 -51q64 0 120.5 27.5t89.5 70.5q11 14 19 6q9 -9 2 -21q-41 -65 -106.5 -101t-144.5 -36q-163 0 -265.5 107t-101.5 275q1 162 96 255.5t267 93.5q30 0 65 -7t56 -13t40 -4.5t28 14.5q8 11 19 11h4 q14 0 16 -15l20 -250q2 -17 -12 -17t-18 16q-31 115 -86 175.5t-150 60.5zM390 762q-31 0 -48 17t-17 48q0 30 17 47t48 17q30 0 47 -17t17 -47q0 -31 -17 -48t-47 -17z" glyph-name="Cdotaccent" horiz-adv-x="695" unicode="Ċ"/><glyph d="M420 307q-27 0 -45.5 17.5t-18.5 43.5q0 37 35 54q18 7 6 19q-36 42 -98 42q-56 0 -96.5 -54.5t-40.5 -146.5q0 -106 43.5 -173t114.5 -67q89 0 143 67q9 13 18 8q10 -7 2 -19q-30 -53 -79.5 -82.5t-111.5 -29.5q-112 0 -184.5 74t-72.5 191q0 121 72.5 193t185.5 72 q76 0 132.5 -45t56.5 -103q0 -26 -18.5 -43.5t-43.5 -17.5zM297 564q-31 0 -48 17t-17 48q0 30 17 47t48 17q30 0 47 -17t17 -47q0 -31 -17 -48t-47 -17z" glyph-name="cdotaccent" horiz-adv-x="510" unicode="ċ"/><glyph d="M380 686q-101 0 -157.5 -79t-55.5 -218q1 -91 30.5 -170t88.5 -130t136 -51q64 0 120.5 27.5t89.5 70.5q11 14 19 6q9 -9 2 -21q-41 -65 -106.5 -101t-144.5 -36q-163 0 -265.5 107t-101.5 275q1 162 96 255.5t267 93.5q30 0 65 -7t56 -13t40 -4.5t28 14.5q8 11 19 11h4 q14 0 16 -15l20 -250q2 -17 -12 -17t-18 16q-31 115 -86 175.5t-150 60.5zM247 908q7 10 20 3l127 -61q11 -5 22 0l126 61q14 7 20 -3q6 -9 -5 -19l-142 -124q-11 -11 -22 0l-141 124q-12 10 -5 19z" glyph-name="Ccaron" horiz-adv-x="695" unicode="Č"/><glyph d="M420 307q-27 0 -45.5 17.5t-18.5 43.5q0 37 35 54q18 7 6 19q-36 42 -98 42q-56 0 -96.5 -54.5t-40.5 -146.5q0 -106 43.5 -173t114.5 -67q89 0 143 67q9 13 18 8q10 -7 2 -19q-30 -53 -79.5 -82.5t-111.5 -29.5q-112 0 -184.5 74t-72.5 191q0 121 72.5 193t185.5 72 q76 0 132.5 -45t56.5 -103q0 -26 -18.5 -43.5t-43.5 -17.5zM143 713q7 10 20 3l127 -61q11 -5 22 0l126 61q14 7 20 -3q6 -9 -5 -19l-142 -124q-11 -11 -22 0l-141 124q-12 10 -5 19z" glyph-name="ccaron" horiz-adv-x="510" unicode="č"/><glyph d="M534 366q-2 141 -74.5 223t-195.5 82h-35q-16 0 -16 -16v-608q0 -16 16 -16h35q129 0 201 89.5t69 245.5zM46 0q-16 0 -16 16v1q0 13 15 16q26 6 36.5 39t10.5 111v334q0 78 -10.5 111t-36.5 39q-15 3 -15 16v1q0 16 16 16h219q184 0 291.5 -86t107.5 -248 q0 -176 -108.5 -271t-288.5 -95h-221zM143 904q7 10 20 3l127 -61q11 -5 22 0l126 61q14 7 20 -3q6 -9 -5 -19l-142 -124q-11 -11 -22 0l-141 124q-12 10 -5 19z" glyph-name="Dcaron" horiz-adv-x="699" unicode="Ď"/><glyph d="M595 11q0 -15 -17 -13q-72 5 -129 -1q-19 -2 -22 16l-3 25q-3 23 -19 4q-49 -58 -140 -58q-102 0 -166 69.5t-64 182.5q0 132 58.5 205t165.5 73q93 0 139 -75q6 -10 10.5 -8.5t4.5 12.5v154q0 69 -9.5 94t-36.5 28q-15 1 -15 17v2q0 16 16 16q68 5 147 22q18 3 18 -14 v-579q0 -78 10.5 -113t36.5 -42q15 -4 15 -17zM163 297q-7 -118 28 -193.5t93 -76.5t93.5 48t35.5 115v67q0 97 -43 160.5t-103 61.5q-42 -1 -70.5 -48.5t-33.5 -133.5zM658 827q5 -33 -16.5 -74.5t-62.5 -64.5q-16 -8 -19 0q-2 7 9 15q21 15 35 40q9 17 2 19h-5h-7 q-31 0 -48 17t-17 48q0 30 17 47t48 17q30 0 47 -17t17 -47z" glyph-name="dcaron" horiz-adv-x="610" unicode="ď"/><glyph d="M534 366q-2 141 -74.5 223t-195.5 82h-35q-16 0 -16 -16v-273h98q16 0 16 -15q0 -16 -16 -16h-98v-304q0 -16 16 -16h35q129 0 201 89.5t69 245.5zM46 0q-16 0 -16 16v1q0 13 15 16q26 6 36.5 39t10.5 111v168h-51q-16 0 -16 16q0 15 16 15h51v135q0 78 -10.5 111 t-36.5 39q-15 3 -15 16v1q0 16 16 16h219q184 0 291.5 -86t107.5 -248q0 -176 -108.5 -271t-288.5 -95h-221z" glyph-name="Dcroat" horiz-adv-x="693" unicode="Đ"/><glyph d="M595 11q0 -15 -17 -13q-72 5 -129 -1q-19 -2 -22 16l-3 25q-3 23 -19 4q-49 -58 -140 -58q-102 0 -166 69.5t-64 182.5q0 132 58.5 205t165.5 73q93 0 139 -75q6 -10 10.5 -8.5t4.5 12.5v146h-53q-16 0 -16 16v1q0 16 16 16h53q-1 54 -11 74t-35 23q-15 1 -15 17v2 q0 16 16 16q68 5 147 22q18 3 18 -14v-140h41q16 0 16 -16t-16 -16h-41v-407q0 -78 10.5 -113t36.5 -42q15 -4 15 -17zM163 297q-7 -118 28 -193.5t93 -76.5t93.5 48t35.5 115v67q0 97 -43 160.5t-103 61.5q-42 -1 -70.5 -48.5t-33.5 -133.5z" glyph-name="dcroat" horiz-adv-x="610" unicode="đ"/><glyph d="M419 700q47 0 67 9q12 5 20 5q14 0 15 -15l24 -238q2 -17 -10 -17q-13 0 -15 15q-18 112 -57.5 162t-136.5 50h-97q-16 0 -16 -16v-254q0 -16 16 -16h43q93 0 83 98q-2 17 11 17q12 0 15 -14l44 -236q3 -17 -9 -17q-13 0 -17 14q-17 56 -46.5 81t-80.5 25h-43 q-16 0 -16 -16v-290q0 -16 16 -16h127q50 0 82 12.5t49 42t24 63t12 91.5q1 16 14 16q12 0 12 -16v-232q0 -17 -18 -14q-11 2 -82 6h-403q-16 0 -16 16v1q0 13 15 16q26 6 36.5 39t10.5 111v334q0 78 -10.5 111t-36.5 39q-15 3 -15 16v1q0 16 16 16h373zM180 802q0 16 16 16 h229q16 0 16 -16v-7q0 -16 -16 -16h-229q-16 0 -16 16v7z" glyph-name="Emacron" horiz-adv-x="599" unicode="Ē"/><glyph d="M289 -15q-114 0 -184 75.5t-70 194.5q0 115 66 187.5t182 72.5q89 0 142.5 -44.5t53.5 -105.5q0 -40 -76 -60q-22 -6 -97 -25.5t-128 -33.5q-14 -5 -13 -19q7 -85 50 -137t108 -52q81 0 137 70q10 13 21 7q11 -7 4 -20q-30 -52 -81.5 -81t-114.5 -29zM165 298 q-1 -8 4 -12t14 -2q57 13 94 25q58 17 74.5 32t15.5 58q-1 39 -24 63.5t-54 24.5q-55 0 -86 -53.5t-38 -135.5zM155 601q0 16 16 16h229q16 0 16 -16v-7q0 -16 -16 -16h-229q-16 0 -16 16v7z" glyph-name="emacron" horiz-adv-x="517" unicode="ē"/><glyph d="M419 700q47 0 67 9q12 5 20 5q14 0 15 -15l24 -238q2 -17 -10 -17q-13 0 -15 15q-18 112 -57.5 162t-136.5 50h-97q-16 0 -16 -16v-254q0 -16 16 -16h43q93 0 83 98q-2 17 11 17q12 0 15 -14l44 -236q3 -17 -9 -17q-13 0 -17 14q-17 56 -46.5 81t-80.5 25h-43 q-16 0 -16 -16v-290q0 -16 16 -16h127q50 0 82 12.5t49 42t24 63t12 91.5q1 16 14 16q12 0 12 -16v-232q0 -17 -18 -14q-11 2 -82 6h-403q-16 0 -16 16v1q0 13 15 16q26 6 36.5 39t10.5 111v334q0 78 -10.5 111t-36.5 39q-15 3 -15 16v1q0 16 16 16h373zM314 753 q-31 0 -48 17t-17 48q0 30 17 47t48 17q30 0 47 -17t17 -47q0 -31 -17 -48t-47 -17z" glyph-name="Edotaccent" horiz-adv-x="599" unicode="Ė"/><glyph d="M289 -15q-114 0 -184 75.5t-70 194.5q0 115 66 187.5t182 72.5q89 0 142.5 -44.5t53.5 -105.5q0 -40 -76 -60q-22 -6 -97 -25.5t-128 -33.5q-14 -5 -13 -19q7 -85 50 -137t108 -52q81 0 137 70q10 13 21 7q11 -7 4 -20q-30 -52 -81.5 -81t-114.5 -29zM165 298 q-1 -8 4 -12t14 -2q57 13 94 25q58 17 74.5 32t15.5 58q-1 39 -24 63.5t-54 24.5q-55 0 -86 -53.5t-38 -135.5zM283 560q-31 0 -48 17t-17 48q0 30 17 47t48 17q30 0 47 -17t17 -47q0 -31 -17 -48t-47 -17z" glyph-name="edotaccent" horiz-adv-x="517" unicode="ė"/><glyph d="M419 700q47 0 67 9q12 5 20 5q14 0 15 -15l24 -238q2 -17 -10 -17q-13 0 -15 15q-18 112 -57.5 162t-136.5 50h-97q-16 0 -16 -16v-254q0 -16 16 -16h43q93 0 83 98q-2 17 11 17q12 0 15 -14l44 -236q3 -17 -9 -17q-13 0 -17 14q-17 56 -46.5 81t-80.5 25h-43 q-16 0 -16 -16v-290q0 -16 16 -16h127q50 0 82 12.5t49 42t24 63t12 91.5q1 16 14 16q12 0 12 -16v-232q0 -12 -11 -14l11 -4q-49 -32 -49 -86q0 -33 18 -49t42 -14q15 2 19 -10q5 -14 -10 -19q-49 -17 -98.5 3t-49.5 77q0 33 27.5 63.5t59.5 41.5q-8 1 -59 3h-403 q-16 0 -16 16v1q0 13 15 16q26 6 36.5 39t10.5 111v334q0 78 -10.5 111t-36.5 39q-15 3 -15 16v1q0 16 16 16h373z" glyph-name="Eogonek" horiz-adv-x="599" unicode="Ę"/><glyph d="M289 -15q-114 0 -184 75.5t-70 194.5q0 115 66 187.5t182 72.5q89 0 142.5 -44.5t53.5 -105.5q0 -40 -76 -60q-22 -6 -97 -25.5t-128 -33.5q-14 -5 -13 -19q7 -85 50 -137t108 -52q81 0 137 70q10 13 21 7q11 -7 4 -20q-31 -55 -88 -84q-44 -34 -44 -83q0 -33 18 -49 t42 -14q15 2 19 -10q5 -14 -10 -19q-49 -17 -98.5 3t-49.5 77q0 35 33 70q-6 -1 -18 -1zM165 298q-1 -8 4 -12t14 -2q57 13 94 25q58 17 74.5 32t15.5 58q-1 39 -24 63.5t-54 24.5q-55 0 -86 -53.5t-38 -135.5z" glyph-name="eogonek" horiz-adv-x="517" unicode="ę"/><glyph d="M419 700q47 0 67 9q12 5 20 5q14 0 15 -15l24 -238q2 -17 -10 -17q-13 0 -15 15q-18 112 -57.5 162t-136.5 50h-97q-16 0 -16 -16v-254q0 -16 16 -16h43q93 0 83 98q-2 17 11 17q12 0 15 -14l44 -236q3 -17 -9 -17q-13 0 -17 14q-17 56 -46.5 81t-80.5 25h-43 q-16 0 -16 -16v-290q0 -16 16 -16h127q50 0 82 12.5t49 42t24 63t12 91.5q1 16 14 16q12 0 12 -16v-232q0 -17 -18 -14q-11 2 -82 6h-403q-16 0 -16 16v1q0 13 15 16q26 6 36.5 39t10.5 111v334q0 78 -10.5 111t-36.5 39q-15 3 -15 16v1q0 16 16 16h373zM148 902q6 10 20 3 l127 -61q11 -5 22 0l126 61q13 7 20 -3q6 -9 -5 -19l-142 -124q-11 -11 -22 0l-141 124q-12 10 -5 19z" glyph-name="Ecaron" horiz-adv-x="599" unicode="Ě"/><glyph d="M289 -15q-114 0 -184 75.5t-70 194.5q0 115 66 187.5t182 72.5q89 0 142.5 -44.5t53.5 -105.5q0 -40 -76 -60q-22 -6 -97 -25.5t-128 -33.5q-14 -5 -13 -19q7 -85 50 -137t108 -52q81 0 137 70q10 13 21 7q11 -7 4 -20q-30 -52 -81.5 -81t-114.5 -29zM165 298 q-1 -8 4 -12t14 -2q57 13 94 25q58 17 74.5 32t15.5 58q-1 39 -24 63.5t-54 24.5q-55 0 -86 -53.5t-38 -135.5zM130 710q6 10 20 3l127 -61q11 -5 22 0l126 61q13 7 20 -3q6 -9 -5 -19l-142 -124q-11 -11 -22 0l-141 124q-12 10 -5 19z" glyph-name="ecaron" horiz-adv-x="517" unicode="ě"/><glyph d="M553 146q0 89 -18 118t-53 31q-16 0 -16 16v2q0 16 16 16h161q16 0 16 -16l1 -148v-21q0 -11 -5 -20q-41 -66 -107 -103t-146 -37q-163 0 -265.5 107t-101.5 275q1 162 96 255.5t267 93.5q30 0 65 -7t56 -13t40 -4.5t28 14.5q8 11 19 11h4q14 0 16 -15l20 -250 q2 -17 -12 -17q-13 0 -18 14q-30 116 -85 177t-151 61q-101 0 -158 -78.5t-56 -218.5q1 -92 31 -171t89 -129.5t136 -50.5q64 0 120 27q11 5 11 19v62zM397 763q46 0 85 29t57 79q7 18 -8 18h-2q-12 0 -19 -10q-41 -55 -113 -55t-113 55q-7 10 -19 10q-7 0 -10 -5.5t0 -15.5 q17 -48 56.5 -76.5t85.5 -28.5z" glyph-name="Gbreve" horiz-adv-x="710" unicode="Ğ"/><glyph d="M296 186q46 8 62 55.5t-1 130.5q-13 64 -43.5 94t-75.5 23q-47 -8 -64.5 -54t-2.5 -124q13 -68 45.5 -100.5t79.5 -24.5zM30 -144q0 70 95 117q7 3 9.5 6.5t-1 6t-11.5 2.5h-29q-46 -1 -52 35t30 56l115 65q6 3 7.5 7t-1 7.5t-9.5 5.5q-68 17 -105.5 61.5t-38.5 106.5 q-1 84 60 134t165 50q14 0 40 -2q117 0 152 10q-18 5 -27.5 22t-4.5 36t23 28t36 4q32 -8 35 -42q5 -38 -23.5 -56.5t-81.5 -24.5q-16 -3 -3 -12q81 -48 79 -147q-1 -77 -58 -126t-156 -52q-13 0 -20 -5l-50 -30q-31 -18 -10 -22q4 -1 9 -1h136q105 0 163 -42t58 -113 q0 -91 -100.5 -149t-225.5 -58q-88 0 -146.5 33t-58.5 89zM142 -126q0 -48 36 -77.5t98 -29.5q42 0 86.5 13t81 46.5t36.5 79.5q0 47 -34 66t-120 18l-81 -1q-11 0 -20 -4q-83 -33 -83 -111zM271 573q46 0 85 29t57 79q7 18 -8 18h-2q-12 0 -19 -10q-41 -55 -113 -55 t-113 55q-7 10 -19 10q-7 0 -10 -5.5t0 -15.5q17 -48 56.5 -76.5t85.5 -28.5z" glyph-name="gbreve" horiz-adv-x="556" unicode="ğ"/><glyph d="M553 146q0 89 -18 118t-53 31q-16 0 -16 16v2q0 16 16 16h161q16 0 16 -16l1 -148v-21q0 -11 -5 -20q-41 -66 -107 -103t-146 -37q-163 0 -265.5 107t-101.5 275q1 162 96 255.5t267 93.5q30 0 65 -7t56 -13t40 -4.5t28 14.5q8 11 19 11h4q14 0 16 -15l20 -250 q2 -17 -12 -17q-13 0 -18 14q-30 116 -85 177t-151 61q-101 0 -158 -78.5t-56 -218.5q1 -92 31 -171t89 -129.5t136 -50.5q64 0 120 27q11 5 11 19v62zM391 762q-31 0 -48 17t-17 48q0 30 17 47t48 17q30 0 47 -17t17 -47q0 -31 -17 -48t-47 -17z" glyph-name="Gdotaccent" horiz-adv-x="710" unicode="Ġ"/><glyph d="M296 186q46 8 62 55.5t-1 130.5q-13 64 -43.5 94t-75.5 23q-47 -8 -64.5 -54t-2.5 -124q13 -68 45.5 -100.5t79.5 -24.5zM30 -144q0 70 95 117q7 3 9.5 6.5t-1 6t-11.5 2.5h-29q-46 -1 -52 35t30 56l115 65q6 3 7.5 7t-1 7.5t-9.5 5.5q-68 17 -105.5 61.5t-38.5 106.5 q-1 84 60 134t165 50q14 0 40 -2q117 0 152 10q-18 5 -27.5 22t-4.5 36t23 28t36 4q32 -8 35 -42q5 -38 -23.5 -56.5t-81.5 -24.5q-16 -3 -3 -12q81 -48 79 -147q-1 -77 -58 -126t-156 -52q-13 0 -20 -5l-50 -30q-31 -18 -10 -22q4 -1 9 -1h136q105 0 163 -42t58 -113 q0 -91 -100.5 -149t-225.5 -58q-88 0 -146.5 33t-58.5 89zM142 -126q0 -48 36 -77.5t98 -29.5q42 0 86.5 13t81 46.5t36.5 79.5q0 47 -34 66t-120 18l-81 -1q-11 0 -20 -4q-83 -33 -83 -111zM277 574q-31 0 -48 17t-17 48q0 30 17 47t48 17q30 0 47 -17t17 -47 q0 -31 -17 -48t-47 -17z" glyph-name="gdotaccent" horiz-adv-x="556" unicode="ġ"/><glyph d="M553 146q0 89 -18 118t-53 31q-16 0 -16 16v2q0 16 16 16h161q16 0 16 -16l1 -148v-21q0 -11 -5 -20q-41 -66 -107 -103t-146 -37q-163 0 -265.5 107t-101.5 275q1 162 96 255.5t267 93.5q30 0 65 -7t56 -13t40 -4.5t28 14.5q8 11 19 11h4q14 0 16 -15l20 -250 q2 -17 -12 -17q-13 0 -18 14q-30 116 -85 177t-151 61q-101 0 -158 -78.5t-56 -218.5q1 -92 31 -171t89 -129.5t136 -50.5q64 0 120 27q11 5 11 19v62zM460 -117q5 -33 -16.5 -74.5t-62.5 -64.5q-16 -8 -19 0q-2 7 9 15q21 15 35 40q9 17 2 19h-5h-7q-31 0 -48 17t-17 48 q0 30 17 47t48 17q30 0 47 -17t17 -47z" glyph-name="uni0122" horiz-adv-x="710" unicode="Ģ"/><glyph d="M296 186q46 8 62 55.5t-1 130.5q-13 64 -43.5 94t-75.5 23q-47 -8 -64.5 -54t-2.5 -124q13 -68 45.5 -100.5t79.5 -24.5zM30 -144q0 70 95 117q7 3 9.5 6.5t-1 6t-11.5 2.5h-29q-46 -1 -52 35t30 56l115 65q6 3 7.5 7t-1 7.5t-9.5 5.5q-68 17 -105.5 61.5t-38.5 106.5 q-1 84 60 134t165 50q14 0 40 -2q117 0 152 10q-18 5 -27.5 22t-4.5 36t23 28t36 4q32 -8 35 -42q5 -38 -23.5 -56.5t-81.5 -24.5q-16 -3 -3 -12q81 -48 79 -147q-1 -77 -58 -126t-156 -52q-13 0 -20 -5l-50 -30q-31 -18 -10 -22q4 -1 9 -1h136q105 0 163 -42t58 -113 q0 -91 -100.5 -149t-225.5 -58q-88 0 -146.5 33t-58.5 89zM142 -126q0 -48 36 -77.5t98 -29.5q42 0 86.5 13t81 46.5t36.5 79.5q0 47 -34 66t-120 18l-81 -1q-11 0 -20 -4q-83 -33 -83 -111zM206 628q-5 33 16.5 74.5t62.5 64.5q16 8 19 0q2 -7 -9 -15q-21 -15 -35 -40 q-9 -17 -2 -19h5h7q31 0 48 -17t17 -48q0 -30 -17 -47t-48 -17q-30 0 -47 17t-17 47z" glyph-name="uni0123" horiz-adv-x="556" unicode="ģ"/><glyph d="M30 688q0 15 17 15q51 -3 104 -3q56 0 107 3q16 0 16 -15v-1q0 -13 -15 -17q-26 -7 -36.5 -44t-10.5 -119v-37h280v37q0 82 -10.5 119t-36.5 44q-15 4 -15 17q0 16 17 16q51 -3 104 -3q56 0 107 3q16 0 16 -15v-1q0 -13 -15 -17q-26 -7 -36.5 -44t-10.5 -119v-37h48 q16 0 16 -14q0 -15 -16 -15h-48v-247q0 -82 10.5 -119t36.5 -44q15 -4 15 -17q0 -16 -16 -16q-51 3 -107 3q-53 0 -104 -3q-17 0 -17 15v1q0 12 15 17q26 7 36.5 44t10.5 119v157h-280v-157q0 -82 10.5 -119t36.5 -44q15 -4 15 -17q0 -16 -16 -16q-51 3 -107 3 q-53 0 -104 -3q-17 0 -17 15v1q0 12 15 17q26 7 36.5 44t10.5 119v247h-46q-16 0 -16 15q0 14 16 14h46v37q0 82 -10.5 119t-36.5 44q-15 4 -15 17v1zM212 381h280v60h-280v-60z" glyph-name="Hbar" horiz-adv-x="704" unicode="Ħ"/><glyph d="M272 623v-32h-65v-158q21 39 61.5 61t88.5 22q80 0 126.5 -43.5t46.5 -115.5v-168q0 -89 13.5 -125t48.5 -36v-32q-52 5 -124 5q-61 0 -121 -5v32q35 0 48.5 36t13.5 125v167q0 120 -83 120q-49 0 -83.5 -44.5t-35.5 -103.5v-139q0 -89 13.5 -125t48.5 -36v-32 q-52 5 -123 5q-61 0 -121 -5v32q35 0 48.5 36t13.5 125v401h-61v33h61q-2 61 -14.5 79t-46.5 18v34q71 0 173 24l8 2v-157h65z" glyph-name="hbar" horiz-adv-x="612" unicode="ħ"/><glyph d="M40 688q0 15 17 15q51 -3 104 -3q55 0 106 3q16 0 16 -15v-1q0 -13 -15 -17q-26 -7 -36.5 -44t-10.5 -119v-313q0 -82 10.5 -119t36.5 -44q15 -4 15 -17q0 -16 -16 -16q-51 3 -106 3q-53 0 -104 -3q-17 0 -17 15v1q0 12 15 17q26 7 36.5 44t10.5 119v313q0 82 -10.5 119 t-36.5 44q-15 4 -15 17v1zM19 762q-8 10 -1 21q19 32 45 52.5t51 20.5q29 0 70.5 -21t57.5 -21q22 0 42 26q12 15 18 6q7 -10 2 -21q-14 -31 -37.5 -52t-48.5 -21t-67 21t-60 21q-24 0 -53 -29q-13 -13 -19 -3z" glyph-name="Itilde" horiz-adv-x="323" unicode="Ĩ"/><glyph d="M207 189q0 -79 10.5 -115.5t36.5 -43.5q15 -4 15 -17q0 -16 -17 -16q-43 4 -106 4q-59 0 -104 -4q-17 0 -17 15v1q0 13 15 17q26 7 36.5 43.5t10.5 115.5v144q0 69 -9.5 94t-36.5 28q-15 1 -15 17v2q0 16 16 16q68 5 147 22q18 3 18 -14v-309zM-6 590q-8 10 -1 21 q19 32 45 52.5t51 20.5q29 0 70.5 -21t57.5 -21q22 0 42 26q12 15 18 6q7 -10 2 -21q-14 -31 -37.5 -52t-48.5 -21t-67 21t-60 21q-24 0 -53 -29q-13 -13 -19 -3z" glyph-name="itilde" horiz-adv-x="289" unicode="ĩ"/><glyph d="M40 688q0 15 17 15q51 -3 104 -3q55 0 106 3q16 0 16 -15v-1q0 -13 -15 -17q-26 -7 -36.5 -44t-10.5 -119v-313q0 -82 10.5 -119t36.5 -44q15 -4 15 -17q0 -16 -16 -16q-51 3 -106 3q-53 0 -104 -3q-17 0 -17 15v1q0 12 15 17q26 7 36.5 44t10.5 119v313q0 82 -10.5 119 t-36.5 44q-15 4 -15 17v1zM31 784q0 16 16 16h229q16 0 16 -16v-7q0 -16 -16 -16h-229q-16 0 -16 16v7z" glyph-name="Imacron" horiz-adv-x="323" unicode="Ī"/><glyph d="M207 189q0 -79 10.5 -115.5t36.5 -43.5q15 -4 15 -17q0 -16 -17 -16q-43 4 -106 4q-59 0 -104 -4q-17 0 -17 15v1q0 13 15 17q26 7 36.5 43.5t10.5 115.5v144q0 69 -9.5 94t-36.5 28q-15 1 -15 17v2q0 16 16 16q68 5 147 22q18 3 18 -14v-309zM-2 615q0 16 16 16h229 q16 0 16 -16v-7q0 -16 -16 -16h-229q-16 0 -16 16v7z" glyph-name="imacron" horiz-adv-x="289" unicode="ī"/><glyph d="M40 688q0 15 17 15q51 -3 104 -3q55 0 106 3q16 0 16 -15v-1q0 -13 -15 -17q-26 -7 -36.5 -44t-10.5 -119v-313q0 -82 10.5 -119t36.5 -44q15 -4 15 -17q0 -16 -16 -16q-7 1 -21 1.5t-21 0.5q-49 -32 -49 -86q0 -33 18 -49t42 -14q15 2 19 -10q5 -14 -10 -19 q-49 -17 -98.5 3t-49.5 77q0 29 21.5 56.5t50.5 42.5h-8q-53 0 -104 -3q-17 0 -17 15v1q0 12 15 17q26 7 36.5 44t10.5 119v313q0 82 -10.5 119t-36.5 44q-15 4 -15 17v1z" glyph-name="Iogonek" horiz-adv-x="323" unicode="Į"/><glyph d="M207 189q0 -79 10.5 -115.5t36.5 -43.5q15 -4 15 -17q0 -16 -17 -16q-24 3 -56 3q-46 -31 -46 -84q0 -33 18 -49t42 -14q15 2 19 -10q5 -14 -10 -19q-49 -17 -98.5 3t-49.5 77q0 28 20.5 55t48.5 42q-57 0 -98 -4q-17 0 -17 15v1q0 13 15 17q26 7 36.5 43.5t10.5 115.5 v144q0 69 -9.5 94t-36.5 28q-15 1 -15 17v2q0 16 16 16q68 5 147 22q18 3 18 -14v-309zM137 591q-35 0 -55 20.5t-20 54.5t20 54t55 20t54.5 -20t19.5 -54q0 -35 -20 -55t-54 -20z" glyph-name="iogonek" horiz-adv-x="284" unicode="į"/><glyph d="M40 688q0 15 17 15q51 -3 104 -3q55 0 106 3q16 0 16 -15v-1q0 -13 -15 -17q-26 -7 -36.5 -44t-10.5 -119v-313q0 -82 10.5 -119t36.5 -44q15 -4 15 -17q0 -16 -16 -16q-51 3 -106 3q-53 0 -104 -3q-17 0 -17 15v1q0 12 15 17q26 7 36.5 44t10.5 119v313q0 82 -10.5 119 t-36.5 44q-15 4 -15 17v1zM167 766q-31 0 -48 17t-17 48q0 30 17 47t48 17q30 0 47 -17t17 -47q0 -31 -17 -48t-47 -17z" glyph-name="Idotaccent" horiz-adv-x="323" unicode="İ"/><glyph d="M207 189q0 -79 10.5 -115.5t36.5 -43.5q15 -4 15 -17q0 -16 -17 -16q-43 4 -106 4q-59 0 -104 -4q-17 0 -17 15v1q0 13 15 17q26 7 36.5 43.5t10.5 115.5v144q0 69 -9.5 94t-36.5 28q-15 1 -15 17v2q0 16 16 16q68 5 147 22q18 3 18 -14v-309z" glyph-name="dotlessi" horiz-adv-x="289" unicode="ı"/><glyph d="M40 688q0 15 17 15q51 -3 104 -3q55 0 106 3q16 0 16 -15v-1q0 -13 -15 -17q-26 -7 -36.5 -44t-10.5 -119v-313q0 -82 10.5 -119t36.5 -44q15 -4 15 -17q0 -16 -16 -16q-51 3 -106 3q-53 0 -104 -3q-17 0 -17 15v1q0 12 15 17q26 7 36.5 44t10.5 119v313q0 82 -10.5 119 t-36.5 44q-15 4 -15 17v1zM474 688q0 15 17 15q51 -3 104 -3q56 0 107 3q16 0 16 -15v-1q0 -13 -15 -17q-26 -7 -36.5 -44t-10.5 -119v-341q0 -83 -55 -132t-142 -49q-66 0 -110.5 36.5t-44.5 92.5q0 29 19.5 48.5t48.5 19.5q28 0 47 -19.5t19 -48.5q0 -40 -32 -58 q-18 -10 -5 -20q22 -17 54 -17q35 0 58 32.5t23 88.5v367q0 82 -10.5 119t-36.5 44q-15 4 -15 17v1z" glyph-name="IJ" horiz-adv-x="733" unicode="Ĳ"/><glyph d="M137 590q-35 0 -55 20t-20 55q0 34 20 54t55 20t54.5 -19.5t19.5 -54.5t-20 -55t-54 -20zM42 -3q-17 0 -17 15v1q0 13 15 17q26 7 36.5 43.5t10.5 115.5v144q0 69 -9.5 94t-36.5 28q-15 1 -15 17v2q0 16 16 16q68 5 147 22q18 3 18 -14v-309q0 -79 10.5 -115.5 t36.5 -43.5q15 -4 15 -17q0 -16 -17 -16q-43 4 -106 4q-59 0 -104 -4zM482 -92q0 -77 -41 -125t-113 -48q-61 0 -100.5 34t-38.5 88q0 29 20 49t50 20q29 0 48.5 -20t19.5 -49q0 -24 -14 -42t-37 -24q-22 -7 -5 -16q19 -8 44 -8q76 0 77 99q1 44 -15.5 97.5t-16.5 79.5v290 q0 70 -9 94.5t-36 27.5q-15 1 -15 17v2q0 16 16 16q70 5 148 22q18 3 18 -14v-590zM338 665q0 34 20 54t55 20t54.5 -19.5t19.5 -54.5t-20 -55t-54 -20q-35 0 -55 20t-20 55z" glyph-name="ij" horiz-adv-x="547" unicode="ĳ"/><glyph d="M430 -3q-7 -1 -11.5 3.5t-4.5 12.5v1q0 13 15 16q34 4 16 47q-14 33 -62 102l-106 154q-11 16 -23 1l-30 -37q-7 -10 -7 -20v-83q0 -82 10.5 -119t36.5 -44q15 -4 15 -17q0 -16 -16 -16q-51 3 -107 3q-53 0 -104 -3q-17 0 -17 15v1q0 12 15 17q26 7 36.5 44t10.5 119v313 q0 82 -10.5 119t-36.5 44q-15 4 -15 17q0 16 17 16q51 -3 104 -3q56 0 107 3q16 0 16 -15v-1q0 -13 -15 -17q-26 -7 -36.5 -44t-10.5 -119v-139q0 -11 6.5 -13.5t13.5 6.5l150 186q25 32 38 50.5t22 36t6.5 26t-14.5 11.5q-15 3 -15 16q0 16 17 16q45 -3 79 -3q19 0 63 2 q17 2 17 -14v-1q0 -15 -15 -16q-40 -6 -80 -40t-98 -105l-54 -69q-9 -11 -1 -22l177 -263q69 -100 90 -120q19 -17 39 -21q15 -3 15 -17v-1q0 -16 -16 -16q-51 3 -107 3q-62 0 -120 -3zM414 -113q5 -33 -16.5 -74.5t-62.5 -64.5q-16 -8 -19 0q-2 7 9 15q21 15 35 40 q9 17 2 19h-5h-7q-31 0 -48 17t-17 48q0 30 17 47t48 17q30 0 47 -17t17 -47z" glyph-name="uni0136" horiz-adv-x="673" unicode="Ķ"/><glyph d="M292 259q-36 75 -78 68q-12 -3 -12 -18v-120q0 -79 10.5 -115.5t36.5 -43.5q15 -4 15 -17q0 -16 -17 -16q-43 4 -106 4q-59 0 -104 -4q-17 0 -17 15v1q0 13 15 17q26 7 36.5 43.5t10.5 115.5v408q0 69 -9.5 94t-36.5 28q-15 1 -15 17v2q0 16 16 16q68 5 147 22 q18 3 18 -14v-389q0 -18 18 -13q121 30 185 72q-23 4 -37.5 20.5t-14.5 39.5q0 25 18.5 42.5t45.5 17.5q40 0 57 -36q39 -87 -147 -151q-19 -7 0 -16q62 -26 95 -94l87 -179q19 -39 44 -51q14 -7 14 -14q0 -12 -17 -14q-56 -9 -101 10.5t-66 62.5zM406 -113 q5 -33 -16.5 -74.5t-62.5 -64.5q-16 -8 -19 0q-2 7 9 15q21 15 35 40q9 17 2 19h-5h-7q-31 0 -48 17t-17 48q0 30 17 47t48 17q30 0 47 -17t17 -47z" glyph-name="uni0137" horiz-adv-x="572" unicode="ķ"/><glyph d="M156 0q-70 0 -105 -2q-16 0 -16 15v1q0 12 15 17q26 7 36.5 44t10.5 119v313q0 82 -10.5 119.5t-36.5 44.5q-15 5 -15 17q0 15 17 15q52 -3 106 -3q55 0 106 3q16 0 16 -14v-1q0 -12 -15 -17q-26 -7 -36.5 -44.5t-10.5 -119.5v-459q0 -16 16 -16h115q40 0 68.5 9.5 t45.5 25t27.5 44t15 56.5t8.5 73q1 16 15 16q12 0 12 -16l-8 -227q0 -17 -17 -15q-39 2 -115 2h-245zM273 844q8 -15 -8 -21l-206 -83q-14 -6 -19 4q-6 9 7 19l181 126q14 11 22 -5z" glyph-name="Lacute" horiz-adv-x="572" unicode="Ĺ"/><glyph d="M207 189q0 -79 10.5 -115.5t36.5 -43.5q15 -4 15 -17q0 -16 -17 -16q-43 4 -106 4q-59 0 -104 -4q-17 0 -17 15v1q0 13 15 17q26 7 36.5 43.5t10.5 115.5v408q0 69 -9.5 94t-36.5 28q-15 1 -15 17v2q0 16 16 16q76 5 157 24q4 1 6 -3.5t2 -12.5v-573zM251 921 q8 -15 -8 -21l-206 -83q-14 -6 -19 4q-6 9 7 19l181 126q14 11 22 -5z" glyph-name="lacute" horiz-adv-x="289" unicode="ĺ"/><glyph d="M156 0q-70 0 -105 -2q-16 0 -16 15v1q0 12 15 17q26 7 36.5 44t10.5 119v313q0 82 -10.5 119.5t-36.5 44.5q-15 5 -15 17q0 15 17 15q52 -3 106 -3q55 0 106 3q16 0 16 -14v-1q0 -12 -15 -17q-26 -7 -36.5 -44.5t-10.5 -119.5v-459q0 -16 16 -16h115q40 0 68.5 9.5 t45.5 25t27.5 44t15 56.5t8.5 73q1 16 15 16q12 0 12 -16l-8 -227q0 -17 -17 -15q-39 2 -115 2h-245zM397 -116q5 -33 -16.5 -74.5t-62.5 -64.5q-16 -8 -19 0q-2 7 9 15q21 15 35 40q9 17 2 19h-5h-7q-31 0 -48 17t-17 48q0 30 17 47t48 17q30 0 47 -17t17 -47z" glyph-name="uni013B" horiz-adv-x="572" unicode="Ļ"/><glyph d="M207 189q0 -79 10.5 -115.5t36.5 -43.5q15 -4 15 -17q0 -16 -17 -16q-43 4 -106 4q-59 0 -104 -4q-17 0 -17 15v1q0 13 15 17q26 7 36.5 43.5t10.5 115.5v408q0 69 -9.5 94t-36.5 28q-15 1 -15 17v2q0 16 16 16q76 5 157 24q4 1 6 -3.5t2 -12.5v-573zM210 -114 q5 -33 -16.5 -74.5t-62.5 -64.5q-16 -8 -19 0q-2 7 9 15q21 15 35 40q9 17 2 19h-5h-7q-31 0 -48 17t-17 48q0 30 17 47t48 17q30 0 47 -17t17 -47z" glyph-name="uni013C" horiz-adv-x="289" unicode="ļ"/><glyph d="M156 0q-70 0 -105 -2q-16 0 -16 15v1q0 12 15 17q26 7 36.5 44t10.5 119v313q0 82 -10.5 119.5t-36.5 44.5q-15 5 -15 17q0 15 17 15q52 -3 106 -3q55 0 106 3q16 0 16 -14v-1q0 -12 -15 -17q-26 -7 -36.5 -44.5t-10.5 -119.5v-459q0 -16 16 -16h115q40 0 68.5 9.5 t45.5 25t27.5 44t15 56.5t8.5 73q1 16 15 16q12 0 12 -16l-8 -227q0 -17 -17 -15q-39 2 -115 2h-245zM456 678q5 -33 -16.5 -74.5t-62.5 -64.5q-16 -8 -19 0q-2 7 9 15q21 15 35 40q9 17 2 19h-5h-7q-31 0 -48 17t-17 48q0 30 17 47t48 17q30 0 47 -17t17 -47z" glyph-name="Lcaron" horiz-adv-x="572" unicode="Ľ"/><glyph d="M207 189q0 -79 10.5 -115.5t36.5 -43.5q15 -4 15 -17q0 -16 -17 -16q-43 4 -106 4q-59 0 -104 -4q-17 0 -17 15v1q0 13 15 17q26 7 36.5 43.5t10.5 115.5v408q0 69 -9.5 94t-36.5 28q-15 1 -15 17v2q0 16 16 16q76 5 157 24q4 1 6 -3.5t2 -12.5v-573zM335 851 q5 -33 -16.5 -74.5t-62.5 -64.5q-16 -8 -19 0q-2 7 9 15q21 15 35 40q9 17 2 19h-5h-7q-31 0 -48 17t-17 48q0 30 17 47t48 17q30 0 47 -17t17 -47z" glyph-name="lcaron" horiz-adv-x="289" unicode="ľ"/><glyph d="M156 0q-70 0 -105 -2q-16 0 -16 15v1q0 12 15 17q26 7 36.5 44t10.5 119v18l-74 -85l-27 24l101 116v240q0 82 -10.5 119.5t-36.5 44.5q-15 5 -15 17q0 15 17 15q52 -3 106 -3q55 0 106 3q16 0 16 -14v-1q0 -12 -15 -17q-26 -7 -36.5 -44.5t-10.5 -119.5v-102l91 104 l26 -24l-117 -134v-303q0 -16 16 -16h115q40 0 68.5 9.5t45.5 25t27.5 44t15 56.5t8.5 73q1 16 15 16q12 0 12 -16l-8 -227q0 -17 -17 -15q-39 2 -115 2h-245z" glyph-name="Lslash" horiz-adv-x="572" unicode="Ł"/><glyph d="M217 189q0 -79 10.5 -115.5t36.5 -43.5q15 -4 15 -17q0 -16 -17 -16q-43 4 -106 4q-59 0 -104 -4q-17 0 -17 15v1q0 13 15 17q26 7 36.5 43.5t10.5 115.5v34l-84 -96l-27 24l111 127v319q0 69 -9.5 94t-36.5 28q-15 1 -15 17v2q0 16 16 16q76 5 157 24q4 1 6 -3.5 t2 -12.5v-347l82 94l26 -24l-108 -124v-172z" glyph-name="lslash" horiz-adv-x="322" unicode="ł"/><glyph d="M213 13q0 -15 -17 -15q-39 3 -68 3q-21 0 -67 -2q-17 -2 -17 14v1q0 13 15 16q29 7 40.5 43t11.5 117v405q0 10 -7 20q-41 46 -74 54q-15 1 -15 16v1q0 16 17 16q34 -3 66 -3q42 0 88 3q13 1 20 -9l335 -471q7 -9 13.5 -6.5t6.5 13.5v281q0 81 -11.5 117t-40.5 43 q-15 3 -15 16q0 17 17 15q46 -2 66 -2q30 0 69 3q17 0 17 -15v-1q0 -13 -15 -16q-29 -7 -40.5 -43t-11.5 -117v-494q0 -16 -16 -16h-19q-12 0 -19 10l-369 516l-8 9q-7 9 -13 7t-6 -13v-339q0 -81 11.5 -117t40.5 -43q15 -3 15 -16v-1zM495 839q8 -15 -8 -21l-206 -83 q-14 -6 -19 4q-6 9 7 19l181 126q14 11 22 -5z" glyph-name="Nacute" horiz-adv-x="688" unicode="Ń"/><glyph d="M530 189q0 -79 10.5 -115.5t36.5 -43.5q15 -4 15 -17q0 -16 -17 -16q-43 4 -107 4q-59 0 -104 -4q-17 0 -17 15v1q0 13 15 17q26 7 36.5 43.5t10.5 115.5v167q0 120 -83 120q-49 0 -83.5 -46t-35.5 -105v-136q0 -79 10.5 -115.5t36.5 -43.5q15 -4 15 -17q0 -16 -17 -16 q-43 4 -106 4q-59 0 -104 -4q-17 0 -17 15v1q0 13 15 17q26 7 36.5 43.5t10.5 115.5v144q0 69 -9.5 94t-36.5 28q-15 1 -15 17v2q0 16 16 16q68 5 147 22q18 3 18 -14v-35q0 -11 4.5 -12.5t12.5 7.5q50 58 133 58q80 0 126.5 -43.5t46.5 -115.5v-168zM447 665q8 -15 -8 -21 l-206 -83q-14 -6 -19 4q-6 9 7 19l181 126q14 11 22 -5z" glyph-name="nacute" horiz-adv-x="612" unicode="ń"/><glyph d="M213 13q0 -15 -17 -15q-39 3 -68 3q-21 0 -67 -2q-17 -2 -17 14v1q0 13 15 16q29 7 40.5 43t11.5 117v405q0 10 -7 20q-41 46 -74 54q-15 1 -15 16v1q0 16 17 16q34 -3 66 -3q42 0 88 3q13 1 20 -9l335 -471q7 -9 13.5 -6.5t6.5 13.5v281q0 81 -11.5 117t-40.5 43 q-15 3 -15 16q0 17 17 15q46 -2 66 -2q30 0 69 3q17 0 17 -15v-1q0 -13 -15 -16q-29 -7 -40.5 -43t-11.5 -117v-494q0 -16 -16 -16h-19q-12 0 -19 10l-369 516l-8 9q-7 9 -13 7t-6 -13v-339q0 -81 11.5 -117t40.5 -43q15 -3 15 -16v-1zM437 -112q5 -33 -16.5 -74.5 t-62.5 -64.5q-16 -8 -19 0q-2 7 9 15q21 15 35 40q9 17 2 19h-5h-7q-31 0 -48 17t-17 48q0 30 17 47t48 17q30 0 47 -17t17 -47z" glyph-name="uni0145" horiz-adv-x="688" unicode="Ņ"/><glyph d="M530 189q0 -79 10.5 -115.5t36.5 -43.5q15 -4 15 -17q0 -16 -17 -16q-43 4 -107 4q-59 0 -104 -4q-17 0 -17 15v1q0 13 15 17q26 7 36.5 43.5t10.5 115.5v167q0 120 -83 120q-49 0 -83.5 -46t-35.5 -105v-136q0 -79 10.5 -115.5t36.5 -43.5q15 -4 15 -17q0 -16 -17 -16 q-43 4 -106 4q-59 0 -104 -4q-17 0 -17 15v1q0 13 15 17q26 7 36.5 43.5t10.5 115.5v144q0 69 -9.5 94t-36.5 28q-15 1 -15 17v2q0 16 16 16q68 5 147 22q18 3 18 -14v-35q0 -11 4.5 -12.5t12.5 7.5q50 58 133 58q80 0 126.5 -43.5t46.5 -115.5v-168zM373 -111 q5 -33 -16.5 -74.5t-62.5 -64.5q-16 -8 -19 0q-2 7 9 15q21 15 35 40q9 17 2 19h-5h-7q-31 0 -48 17t-17 48q0 30 17 47t48 17q30 0 47 -17t17 -47z" glyph-name="uni0146" horiz-adv-x="612" unicode="ņ"/><glyph d="M213 13q0 -15 -17 -15q-39 3 -68 3q-21 0 -67 -2q-17 -2 -17 14v1q0 13 15 16q29 7 40.5 43t11.5 117v405q0 10 -7 20q-41 46 -74 54q-15 1 -15 16v1q0 16 17 16q34 -3 66 -3q42 0 88 3q13 1 20 -9l335 -471q7 -9 13.5 -6.5t6.5 13.5v281q0 81 -11.5 117t-40.5 43 q-15 3 -15 16q0 17 17 15q46 -2 66 -2q30 0 69 3q17 0 17 -15v-1q0 -13 -15 -16q-29 -7 -40.5 -43t-11.5 -117v-494q0 -16 -16 -16h-19q-12 0 -19 10l-369 516l-8 9q-7 9 -13 7t-6 -13v-339q0 -81 11.5 -117t40.5 -43q15 -3 15 -16v-1zM207 894q7 10 20 3l127 -61 q11 -5 22 0l126 61q14 7 20 -3q6 -9 -5 -19l-142 -124q-11 -11 -22 0l-141 124q-12 10 -5 19z" glyph-name="Ncaron" horiz-adv-x="688" unicode="Ň"/><glyph d="M530 189q0 -79 10.5 -115.5t36.5 -43.5q15 -4 15 -17q0 -16 -17 -16q-43 4 -107 4q-59 0 -104 -4q-17 0 -17 15v1q0 13 15 17q26 7 36.5 43.5t10.5 115.5v167q0 120 -83 120q-49 0 -83.5 -46t-35.5 -105v-136q0 -79 10.5 -115.5t36.5 -43.5q15 -4 15 -17q0 -16 -17 -16 q-43 4 -106 4q-59 0 -104 -4q-17 0 -17 15v1q0 13 15 17q26 7 36.5 43.5t10.5 115.5v144q0 69 -9.5 94t-36.5 28q-15 1 -15 17v2q0 16 16 16q68 5 147 22q18 3 18 -14v-35q0 -11 4.5 -12.5t12.5 7.5q50 58 133 58q80 0 126.5 -43.5t46.5 -115.5v-168zM154 708q6 10 20 3 l127 -61q11 -5 22 0l126 61q13 7 20 -3q6 -9 -5 -19l-142 -124q-11 -11 -22 0l-141 124q-12 10 -5 19z" glyph-name="ncaron" horiz-adv-x="612" unicode="ň"/><glyph d="M388 -15q-156 -1 -254.5 103t-98.5 262t98.5 262t254.5 103t254.5 -104.5t98.5 -260.5t-98.5 -260.5t-254.5 -104.5zM176 328q17 -159 81.5 -242t164.5 -72q101 11 148 105.5t30 252.5q-17 159 -81.5 241.5t-164.5 72.5q-102 -10 -148.5 -104.5t-29.5 -253.5zM262 801 q0 16 16 16h229q16 0 16 -16v-7q0 -16 -16 -16h-229q-16 0 -16 16v7z" glyph-name="Omacron" horiz-adv-x="776" unicode="Ō"/><glyph d="M295 -15q-119 0 -189.5 74.5t-70.5 191.5q0 116 70.5 190.5t189.5 74.5t189 -74.5t70 -190.5q0 -117 -70 -191.5t-189 -74.5zM164 236q14 -110 55.5 -168.5t103.5 -52.5q65 6 90.5 71.5t11.5 179.5q-15 111 -54.5 169t-103.5 51q-64 -6 -90.5 -71.5t-12.5 -178.5z M167 600q0 16 16 16h229q16 0 16 -16v-7q0 -16 -16 -16h-229q-16 0 -16 16v7z" glyph-name="omacron" horiz-adv-x="589" unicode="ō"/><glyph d="M388 -15q-156 -1 -254.5 103t-98.5 262t98.5 262t254.5 103t254.5 -104.5t98.5 -260.5t-98.5 -260.5t-254.5 -104.5zM176 328q17 -159 81.5 -242t164.5 -72q101 11 148 105.5t30 252.5q-17 159 -81.5 241.5t-164.5 72.5q-102 -10 -148.5 -104.5t-29.5 -253.5zM401 756 q-14 -8 -19 1q-5 10 6 19l128 114q14 12 23 -2l17 -23q9 -14 -5 -22zM292 757q-4 8 4 18l105 126q11 14 22 0l18 -21q10 -11 -2 -22l-128 -99q-15 -11 -19 -2z" glyph-name="Ohungarumlaut" horiz-adv-x="776" unicode="Ő"/><glyph d="M295 -15q-119 0 -189.5 74.5t-70.5 191.5q0 116 70.5 190.5t189.5 74.5t189 -74.5t70 -190.5q0 -117 -70 -191.5t-189 -74.5zM164 236q14 -110 55.5 -168.5t103.5 -52.5q65 6 90.5 71.5t11.5 179.5q-15 111 -54.5 169t-103.5 51q-64 -6 -90.5 -71.5t-12.5 -178.5z M291 554q-14 -8 -19 1q-5 10 6 19l128 114q14 12 23 -2l17 -23q9 -14 -5 -22zM182 555q-4 8 4 18l105 126q11 14 22 0l18 -21q10 -11 -2 -22l-128 -99q-15 -11 -19 -2z" glyph-name="ohungarumlaut" horiz-adv-x="589" unicode="ő"/><glyph d="M388 -15q-156 -1 -254.5 103t-98.5 262t98.5 262t254.5 103q164 -1 265 -115q-8 59 -43 67q-15 3 -15 16v1q0 16 16 16h368q47 0 67 9q12 5 20 5q14 0 15 -15l24 -238q2 -17 -10 -17q-13 0 -15 15q-18 112 -57.5 162t-136.5 50h-113v-286h59q93 0 83 98q-2 17 11 17 q12 0 15 -14l44 -236q3 -17 -9 -17q-13 0 -17 14q-17 56 -46.5 81t-80.5 25h-59v-322h143q50 0 82 12.5t49 42t24 63t12 91.5q1 16 14 16q12 0 12 -16v-232q0 -17 -18 -14q-11 2 -82 6h-398q-16 0 -16 16v1q0 13 15 16q35 8 43 67q-101 -114 -265 -115zM176 328 q17 -159 81.5 -242t164.5 -72q101 11 148 105.5t30 252.5q-17 159 -81.5 241.5t-164.5 72.5q-102 -10 -148.5 -104.5t-29.5 -253.5z" glyph-name="OE" horiz-adv-x="1159" unicode="Œ"/><glyph d="M295 -15q-119 0 -189.5 74.5t-70.5 191.5q0 116 70.5 190.5t189.5 74.5q124 0 195 -81q69 80 189 80q89 0 142.5 -44.5t53.5 -105.5q0 -38 -76 -58q-14 -4 -93.5 -25t-145.5 -38q3 -92 47 -149.5t112 -57.5q82 0 137 71q10 13 20 7q11 -7 4 -20q-30 -52 -81 -81t-114 -29 q-121 0 -192 85q-72 -85 -198 -85zM164 236q14 -110 55.5 -168.5t103.5 -52.5q65 6 90.5 71.5t11.5 179.5q-15 111 -54.5 169t-103.5 51q-64 -6 -90.5 -71.5t-12.5 -178.5zM561 280q67 17 112 30q58 17 74.5 31.5t15.5 57.5q-1 39 -24 63.5t-54 24.5q-58 0 -89.5 -59.5 t-34.5 -147.5z" glyph-name="oe" horiz-adv-x="912" unicode="œ"/><glyph d="M638 30q18 -4 19 -16q2 -13 -12 -15q-153 -20 -211 106l-35 77q-42 93 -77.5 135.5t-84.5 42.5h-4q-16 0 -16 -16v-150q0 -82 10.5 -119t36.5 -44q15 -4 15 -17q0 -16 -16 -16q-51 3 -107 3q-53 0 -104 -3q-17 0 -17 15v1q0 12 15 17q26 7 36.5 44t10.5 119v323 q0 78 -10.5 111t-36.5 39q-15 3 -15 16v1q0 16 16 16h311q100 0 157 -47.5t57 -122.5q0 -73 -55 -120.5t-152 -49.5q62 -25 100.5 -71.5t65.5 -116.5q51 -130 103 -142zM217 407q0 -16 16 -16h98q55 0 84.5 38t29.5 101t-29.5 101.5t-84.5 38.5h-98q-16 0 -16 -16v-247z M434 850q8 -15 -8 -21l-206 -83q-14 -6 -19 4q-6 9 7 19l181 126q14 11 22 -5z" glyph-name="Racute" horiz-adv-x="662" unicode="Ŕ"/><glyph d="M206 189q0 -79 10.5 -115.5t36.5 -43.5q15 -4 15 -17q0 -16 -17 -16q-43 4 -106 4q-58 0 -103 -4q-17 0 -17 15v1q0 13 15 17q26 7 36.5 43.5t10.5 115.5v144q0 69 -10 95t-37 29q-15 1 -15 17t16 16q83 6 147 22q18 3 18 -14v-67q0 -7 2.5 -10.5t6.5 -1.5t7 9 q51 88 133 88q33 0 54.5 -20t21.5 -47v-1q0 -26 -17.5 -44t-42.5 -18q-26 0 -44 17.5t-18 44.5q0 17 8 31q-47 -20 -79 -88.5t-32 -135.5v-66zM371 664q8 -15 -8 -21l-206 -83q-14 -6 -19 4q-6 9 7 19l181 126q14 11 22 -5z" glyph-name="racute" horiz-adv-x="446" unicode="ŕ"/><glyph d="M638 30q18 -4 19 -16q2 -13 -12 -15q-153 -20 -211 106l-35 77q-42 93 -77.5 135.5t-84.5 42.5h-4q-16 0 -16 -16v-150q0 -82 10.5 -119t36.5 -44q15 -4 15 -17q0 -16 -16 -16q-51 3 -107 3q-53 0 -104 -3q-17 0 -17 15v1q0 12 15 17q26 7 36.5 44t10.5 119v323 q0 78 -10.5 111t-36.5 39q-15 3 -15 16v1q0 16 16 16h311q100 0 157 -47.5t57 -122.5q0 -73 -55 -120.5t-152 -49.5q62 -25 100.5 -71.5t65.5 -116.5q51 -130 103 -142zM217 407q0 -16 16 -16h98q55 0 84.5 38t29.5 101t-29.5 101.5t-84.5 38.5h-98q-16 0 -16 -16v-247z M447 -103q5 -33 -16.5 -74.5t-62.5 -64.5q-16 -8 -19 0q-2 7 9 15q21 15 35 40q9 17 2 19h-5h-7q-31 0 -48 17t-17 48q0 30 17 47t48 17q30 0 47 -17t17 -47z" glyph-name="uni0156" horiz-adv-x="662" unicode="Ŗ"/><glyph d="M206 189q0 -79 10.5 -115.5t36.5 -43.5q15 -4 15 -17q0 -16 -17 -16q-43 4 -106 4q-58 0 -103 -4q-17 0 -17 15v1q0 13 15 17q26 7 36.5 43.5t10.5 115.5v144q0 69 -10 95t-37 29q-15 1 -15 17t16 16q83 6 147 22q18 3 18 -14v-67q0 -7 2.5 -10.5t6.5 -1.5t7 9 q51 88 133 88q33 0 54.5 -20t21.5 -47v-1q0 -26 -17.5 -44t-42.5 -18q-26 0 -44 17.5t-18 44.5q0 17 8 31q-47 -20 -79 -88.5t-32 -135.5v-66zM209 -111q5 -33 -16.5 -74.5t-62.5 -64.5q-16 -8 -19 0q-2 7 9 15q21 15 35 40q9 17 2 19h-5h-7q-31 0 -48 17t-17 48q0 30 17 47 t48 17q30 0 47 -17t17 -47z" glyph-name="uni0157" horiz-adv-x="446" unicode="ŗ"/><glyph d="M638 30q18 -4 19 -16q2 -13 -12 -15q-153 -20 -211 106l-35 77q-42 93 -77.5 135.5t-84.5 42.5h-4q-16 0 -16 -16v-150q0 -82 10.5 -119t36.5 -44q15 -4 15 -17q0 -16 -16 -16q-51 3 -107 3q-53 0 -104 -3q-17 0 -17 15v1q0 12 15 17q26 7 36.5 44t10.5 119v323 q0 78 -10.5 111t-36.5 39q-15 3 -15 16v1q0 16 16 16h311q100 0 157 -47.5t57 -122.5q0 -73 -55 -120.5t-152 -49.5q62 -25 100.5 -71.5t65.5 -116.5q51 -130 103 -142zM217 407q0 -16 16 -16h98q55 0 84.5 38t29.5 101t-29.5 101.5t-84.5 38.5h-98q-16 0 -16 -16v-247z M153 899q7 10 20 3l127 -61q11 -5 22 0l126 61q14 7 20 -3q6 -9 -5 -19l-142 -124q-11 -11 -22 0l-141 124q-12 10 -5 19z" glyph-name="Rcaron" horiz-adv-x="662" unicode="Ř"/><glyph d="M206 189q0 -79 10.5 -115.5t36.5 -43.5q15 -4 15 -17q0 -16 -17 -16q-43 4 -106 4q-58 0 -103 -4q-17 0 -17 15v1q0 13 15 17q26 7 36.5 43.5t10.5 115.5v144q0 69 -10 95t-37 29q-15 1 -15 17t16 16q83 6 147 22q18 3 18 -14v-67q0 -7 2.5 -10.5t6.5 -1.5t7 9 q51 88 133 88q33 0 54.5 -20t21.5 -47v-1q0 -26 -17.5 -44t-42.5 -18q-26 0 -44 17.5t-18 44.5q0 17 8 31q-47 -20 -79 -88.5t-32 -135.5v-66zM102 716q6 10 20 3l127 -61q11 -5 22 0l126 61q13 7 20 -3q6 -9 -5 -19l-142 -124q-11 -11 -22 0l-141 124q-12 10 -5 19z" glyph-name="rcaron" horiz-adv-x="446" unicode="ř"/><glyph d="M318 -15q-34 0 -69.5 8.5t-56.5 16.5t-43 8t-38 -15q-9 -9 -20 -9h-4q-15 0 -17 15l-23 239q-2 17 11 17t17 -13q30 -100 95 -167t154 -67q54 0 86 37.5t32 91.5q0 37 -21.5 66.5t-56 49.5t-76 38t-83 38.5t-75.5 45.5t-55.5 64t-21.5 89q0 77 58 127t151 50 q45 0 84 -8.5t56 -16.5t31 -7t24 18q7 12 19 12h4q16 0 17 -15l22 -220q2 -17 -11 -17t-17 13q-34 102 -84.5 156t-135.5 54q-46 0 -77.5 -30t-31.5 -82q0 -41 29 -73t72 -51t94 -44t94 -50.5t72 -72t29 -107.5q0 -82 -67 -135.5t-167 -53.5zM428 859q8 -15 -8 -21l-206 -83 q-14 -6 -19 4q-6 9 7 19l181 126q14 11 22 -5z" glyph-name="Sacute" horiz-adv-x="587" unicode="Ś"/><glyph d="M248 -15q-28 0 -53 5.5t-39 12.5t-25.5 12t-20 4.5t-15.5 -9.5q-9 -10 -20 -10h-2q-15 0 -17 15l-19 158q-2 17 11 17q12 0 16 -14q21 -71 73 -116t114 -45q37 0 61.5 22t24.5 59q0 39 -30 67t-72.5 46t-84.5 37.5t-72 53.5t-30 82q0 57 47.5 95t125.5 38q34 0 62.5 -6 t41 -12t21.5 -5t16 12q8 12 19 12h1q16 0 17 -15l15 -151q2 -17 -10 -17q-11 0 -17 13q-28 72 -66 106t-92 34q-32 0 -52.5 -21.5t-20.5 -51.5q0 -32 30 -55.5t72 -41.5t84.5 -39t72.5 -59t30 -91q0 -63 -53.5 -102.5t-143.5 -39.5zM358 658q8 -15 -8 -21l-206 -83 q-14 -6 -19 4q-6 9 7 19l181 126q14 11 22 -5z" glyph-name="sacute" horiz-adv-x="475" unicode="ś"/><glyph d="M251 -205q-14 6 -9 18q4 11 19 9q21 -3 36 7.5t16 32.5q1 35 -32 49q-14 7 -9 20l25 55q-29 2 -61 11t-51 15.5t-39 5.5t-35 -15q-9 -9 -20 -9h-4q-15 0 -17 15l-23 239q-2 17 11 17t17 -13q30 -100 95 -167t154 -67q54 0 86 37.5t32 91.5q0 37 -21.5 66.5t-56 49.5 t-76 38t-83 38.5t-75.5 45.5t-55.5 64t-21.5 89q0 77 58 127t151 50q45 0 84 -8.5t56 -16.5t31 -7t24 18q7 12 19 12h4q16 0 17 -15l22 -220q2 -17 -11 -17t-17 13q-34 102 -84.5 156t-135.5 54q-46 0 -77.5 -30t-31.5 -82q0 -41 29 -73t72 -51t94 -44t94 -50.5t72 -72 t29 -107.5q0 -79 -62.5 -131.5t-157.5 -57.5l-15 -34q-6 -16 10 -20q61 -21 61 -75q0 -42 -44 -61.5t-93 0.5z" glyph-name="Scedilla" horiz-adv-x="587" unicode="Ş"/><glyph d="M185 -208q-14 6 -9 18q4 11 19 9q21 -3 36 7.5t16 32.5q1 35 -32 49q-14 7 -9 20l26 57q-25 2 -46.5 8t-34 12t-23.5 11t-18.5 3.5t-14.5 -9.5q-9 -10 -20 -10h-2q-15 0 -17 15l-19 158q-2 17 11 17q12 0 16 -14q21 -71 73 -116t114 -45q37 0 61.5 22t24.5 59 q0 39 -30 67t-72.5 46t-84.5 37.5t-72 53.5t-30 82q0 57 47.5 95t125.5 38q34 0 62.5 -6t41 -12t21.5 -5t16 12q8 12 19 12h1q16 0 17 -15l15 -151q2 -17 -10 -17q-11 0 -17 13q-28 72 -66 106t-92 34q-32 0 -52.5 -21.5t-20.5 -51.5q0 -32 30 -55.5t72 -41.5t84.5 -39 t72.5 -59t30 -91q0 -59 -47.5 -98t-129.5 -43l-17 -38q-6 -16 10 -20q61 -21 61 -75q0 -42 -44 -61.5t-93 0.5z" glyph-name="scedilla" horiz-adv-x="475" unicode="ş"/><glyph d="M318 -15q-34 0 -69.5 8.5t-56.5 16.5t-43 8t-38 -15q-9 -9 -20 -9h-4q-15 0 -17 15l-23 239q-2 17 11 17t17 -13q30 -100 95 -167t154 -67q54 0 86 37.5t32 91.5q0 37 -21.5 66.5t-56 49.5t-76 38t-83 38.5t-75.5 45.5t-55.5 64t-21.5 89q0 77 58 127t151 50 q45 0 84 -8.5t56 -16.5t31 -7t24 18q7 12 19 12h4q16 0 17 -15l22 -220q2 -17 -11 -17t-17 13q-34 102 -84.5 156t-135.5 54q-46 0 -77.5 -30t-31.5 -82q0 -41 29 -73t72 -51t94 -44t94 -50.5t72 -72t29 -107.5q0 -82 -67 -135.5t-167 -53.5zM144 906q6 10 20 3l127 -61 q11 -5 22 0l126 61q13 7 20 -3q6 -9 -5 -19l-142 -124q-11 -11 -22 0l-141 124q-12 10 -5 19z" glyph-name="Scaron" horiz-adv-x="587" unicode="Š"/><glyph d="M248 -15q-28 0 -53 5.5t-39 12.5t-25.5 12t-20 4.5t-15.5 -9.5q-9 -10 -20 -10h-2q-15 0 -17 15l-19 158q-2 17 11 17q12 0 16 -14q21 -71 73 -116t114 -45q37 0 61.5 22t24.5 59q0 39 -30 67t-72.5 46t-84.5 37.5t-72 53.5t-30 82q0 57 47.5 95t125.5 38q34 0 62.5 -6 t41 -12t21.5 -5t16 12q8 12 19 12h1q16 0 17 -15l15 -151q2 -17 -10 -17q-11 0 -17 13q-28 72 -66 106t-92 34q-32 0 -52.5 -21.5t-20.5 -51.5q0 -32 30 -55.5t72 -41.5t84.5 -39t72.5 -59t30 -91q0 -63 -53.5 -102.5t-143.5 -39.5zM92 705q6 10 20 3l127 -61q11 -5 22 0 l126 61q13 7 20 -3q6 -9 -5 -19l-142 -124q-11 -11 -22 0l-141 124q-12 10 -5 19z" glyph-name="scaron" horiz-adv-x="475" unicode="š"/><glyph d="M458 700q49 3 65 9q12 5 20 5h1q16 0 16 -16v-173q0 -16 -11 -16q-13 0 -14 15q-5 32 -12 54t-21.5 46t-41 36t-65.5 12h-25q-16 0 -16 -16v-463q0 -82 10.5 -119t36.5 -44q15 -4 15 -17q0 -16 -17 -16l-81 3l-17 -38q-6 -16 10 -20q61 -21 61 -75q0 -42 -44 -61.5 t-93 0.5q-14 6 -9 18q4 11 19 9q21 -3 36 7.5t16 32.5q1 35 -32 49q-14 7 -9 20l26 58q-46 0 -89 -3q-17 0 -17 15v1q0 13 15 17q24 6 34.5 36.5t12.5 95.5l-2 494q0 16 -16 16h-9q-44 0 -74 -12t-46 -35.5t-23.5 -45.5t-12.5 -55q-1 -15 -13 -15t-12 16v173q0 16 14 16h3 q8 0 20 -5q16 -6 65 -9h326z" glyph-name="uni0162" horiz-adv-x="590" unicode="Ţ"/><glyph d="M83 387q0 77 -72 82q-16 0 -16 16q0 15 16 16q77 4 117 49.5t44 151.5q0 16 16 16h5q16 0 16 -16l-1 -186q0 -16 16 -16h53q16 0 16 -16v-2q0 -16 -16 -16h-53q-16 0 -16 -16v-345q0 -47 17.5 -63t48.5 -9q19 5 19 -10v-2q0 -15 -13 -19q-35 -11 -68 -11l-15 -34 q-6 -16 10 -20q61 -21 61 -75q0 -42 -44 -61.5t-93 0.5q-14 6 -9 18q4 11 19 9q21 -3 36 7.5t16 32.5q1 35 -32 49q-14 7 -9 20l26 58q-42 9 -68.5 36.5t-26.5 71.5v284z" glyph-name="uni0163" horiz-adv-x="303" unicode="ţ"/><glyph d="M458 700q49 3 65 9q12 5 20 5h1q16 0 16 -16v-173q0 -16 -11 -16q-13 0 -14 15q-5 32 -12 54t-21.5 46t-41 36t-65.5 12h-25q-16 0 -16 -16v-463q0 -82 10.5 -119t36.5 -44q15 -4 15 -17q0 -16 -17 -16q-48 3 -104 3q-51 0 -102 -3q-17 0 -17 15v1q0 13 15 17 q24 6 34.5 36.5t12.5 95.5l-2 494q0 16 -16 16h-9q-44 0 -74 -12t-46 -35.5t-23.5 -45.5t-12.5 -55q-1 -15 -13 -15t-12 16v173q0 16 14 16h3q8 0 20 -5q16 -6 65 -9h326zM140 899q6 10 20 3l127 -61q11 -5 22 0l126 61q13 7 20 -3q6 -9 -5 -19l-142 -124q-11 -11 -22 0 l-141 124q-12 10 -5 19z" glyph-name="Tcaron" horiz-adv-x="590" unicode="Ť"/><glyph d="M83 387q0 77 -72 82q-16 0 -16 16q0 15 16 16q77 4 117 49.5t44 151.5q0 16 16 16h5q16 0 16 -16l-1 -186q0 -16 16 -16h53q16 0 16 -16v-2q0 -16 -16 -16h-53q-16 0 -16 -16v-345q0 -47 17.5 -63t48.5 -9q19 5 19 -10v-2q0 -15 -13 -19q-73 -24 -135 3.5t-62 97.5v284z M372 733q5 -33 -16.5 -74.5t-62.5 -64.5q-16 -8 -19 0q-2 7 9 15q21 15 35 40q9 17 2 19h-5h-7q-31 0 -48 17t-17 48q0 30 17 47t48 17q30 0 47 -17t17 -47z" glyph-name="tcaron" horiz-adv-x="303" unicode="ť"/><glyph d="M585 234q0 -113 -66.5 -177.5t-178.5 -64.5q-120 0 -189 64t-69 178v272q0 82 -10.5 119t-36.5 44q-15 5 -15 17q0 16 16 16q51 -3 108 -3q53 0 104 3q17 0 17 -15v-1q0 -12 -15 -17q-26 -7 -36.5 -44t-10.5 -119v-267q0 -94 45.5 -147t117.5 -53q86 0 135.5 53.5 t49.5 146.5v271q0 79 -10.5 115.5t-36.5 43.5q-15 5 -15 17q0 16 17 16q39 -3 63 -3q17 0 61 2q17 2 17 -14v-1q0 -12 -15 -17q-26 -7 -36.5 -43.5t-10.5 -115.5v-276zM238 767q-8 10 -1 21q19 32 45 52.5t51 20.5q29 0 70.5 -21t57.5 -21q22 0 42 26q12 15 18 6 q7 -10 2 -21q-14 -31 -37.5 -52t-48.5 -21t-67 21t-60 21q-24 0 -53 -29q-13 -13 -19 -3z" glyph-name="Utilde" horiz-adv-x="657" unicode="Ũ"/><glyph d="M198 166q0 -139 84 -139q51 0 84 56t37 129l-1 159q-2 46 -12 64t-33 20q-15 1 -15 17v2q0 16 16 16q68 5 147 22q18 3 18 -14v-315q0 -81 8.5 -115t33.5 -40q15 -4 15 -17q0 -15 -17 -13q-42 2 -68 2q-35 0 -61 -3q-17 -1 -24 13t-7 48q0 11 -4.5 12t-10.5 -9 q-47 -77 -139 -77q-79 0 -126 45.5t-47 124.5v179q0 69 -9.5 94t-36.5 28q-15 1 -15 17v2q0 16 16 16q71 5 149 22q18 3 18 -14v-332zM160 580q-8 10 -1 21q19 32 45 52.5t51 20.5q29 0 70.5 -21t57.5 -21q22 0 42 26q12 15 18 6q7 -10 2 -21q-14 -31 -37.5 -52t-48.5 -21 t-67 21t-60 21q-24 0 -53 -29q-13 -13 -19 -3z" glyph-name="utilde" horiz-adv-x="600" unicode="ũ"/><glyph d="M585 234q0 -113 -66.5 -177.5t-178.5 -64.5q-120 0 -189 64t-69 178v272q0 82 -10.5 119t-36.5 44q-15 5 -15 17q0 16 16 16q51 -3 108 -3q53 0 104 3q17 0 17 -15v-1q0 -12 -15 -17q-26 -7 -36.5 -44t-10.5 -119v-267q0 -94 45.5 -147t117.5 -53q86 0 135.5 53.5 t49.5 146.5v271q0 79 -10.5 115.5t-36.5 43.5q-15 5 -15 17q0 16 17 16q39 -3 63 -3q17 0 61 2q17 2 17 -14v-1q0 -12 -15 -17q-26 -7 -36.5 -43.5t-10.5 -115.5v-276zM250 799q0 16 16 16h229q16 0 16 -16v-7q0 -16 -16 -16h-229q-16 0 -16 16v7z" glyph-name="Umacron" horiz-adv-x="657" unicode="Ū"/><glyph d="M198 166q0 -139 84 -139q51 0 84 56t37 129l-1 159q-2 46 -12 64t-33 20q-15 1 -15 17v2q0 16 16 16q68 5 147 22q18 3 18 -14v-315q0 -81 8.5 -115t33.5 -40q15 -4 15 -17q0 -15 -17 -13q-42 2 -68 2q-35 0 -61 -3q-17 -1 -24 13t-7 48q0 11 -4.5 12t-10.5 -9 q-47 -77 -139 -77q-79 0 -126 45.5t-47 124.5v179q0 69 -9.5 94t-36.5 28q-15 1 -15 17v2q0 16 16 16q71 5 149 22q18 3 18 -14v-332zM173 614q0 16 16 16h229q16 0 16 -16v-7q0 -16 -16 -16h-229q-16 0 -16 16v7z" glyph-name="umacron" horiz-adv-x="600" unicode="ū"/><glyph d="M585 234q0 -113 -66.5 -177.5t-178.5 -64.5q-120 0 -189 64t-69 178v272q0 82 -10.5 119t-36.5 44q-15 5 -15 17q0 16 16 16q51 -3 108 -3q53 0 104 3q17 0 17 -15v-1q0 -12 -15 -17q-26 -7 -36.5 -44t-10.5 -119v-267q0 -94 45.5 -147t117.5 -53q86 0 135.5 53.5 t49.5 146.5v271q0 79 -10.5 115.5t-36.5 43.5q-15 5 -15 17q0 16 17 16q39 -3 63 -3q17 0 61 2q17 2 17 -14v-1q0 -12 -15 -17q-26 -7 -36.5 -43.5t-10.5 -115.5v-276zM381 742q-43 0 -70.5 24.5t-27.5 59.5t27.5 59.5t70.5 24.5t70.5 -24.5t27.5 -59.5t-27.5 -59.5 t-70.5 -24.5zM356 821q12 -63 39 -59q25 6 11 69q-5 27 -16 44t-23 15q-26 -6 -11 -69z" glyph-name="Uring" horiz-adv-x="657" unicode="Ů"/><glyph d="M198 166q0 -139 84 -139q51 0 84 56t37 129l-1 159q-2 46 -12 64t-33 20q-15 1 -15 17v2q0 16 16 16q68 5 147 22q18 3 18 -14v-315q0 -81 8.5 -115t33.5 -40q15 -4 15 -17q0 -15 -17 -13q-42 2 -68 2q-35 0 -61 -3q-17 -1 -24 13t-7 48q0 11 -4.5 12t-10.5 -9 q-47 -77 -139 -77q-79 0 -126 45.5t-47 124.5v179q0 69 -9.5 94t-36.5 28q-15 1 -15 17v2q0 16 16 16q71 5 149 22q18 3 18 -14v-332zM300 553q-43 0 -70.5 24.5t-27.5 59.5t27.5 59.5t70.5 24.5t70.5 -24.5t27.5 -59.5t-27.5 -59.5t-70.5 -24.5zM275 632q12 -63 39 -59 q25 6 11 69q-5 27 -16 44t-23 15q-26 -6 -11 -69z" glyph-name="uring" horiz-adv-x="600" unicode="ů"/><glyph d="M585 234q0 -113 -66.5 -177.5t-178.5 -64.5q-120 0 -189 64t-69 178v272q0 82 -10.5 119t-36.5 44q-15 5 -15 17q0 16 16 16q51 -3 108 -3q53 0 104 3q17 0 17 -15v-1q0 -12 -15 -17q-26 -7 -36.5 -44t-10.5 -119v-267q0 -94 45.5 -147t117.5 -53q86 0 135.5 53.5 t49.5 146.5v271q0 79 -10.5 115.5t-36.5 43.5q-15 5 -15 17q0 16 17 16q39 -3 63 -3q17 0 61 2q17 2 17 -14v-1q0 -12 -15 -17q-26 -7 -36.5 -43.5t-10.5 -115.5v-276zM400 746q-14 -8 -19 1q-5 10 6 19l128 114q14 12 23 -2l17 -23q9 -14 -5 -22zM291 747q-4 8 4 18 l105 126q11 14 22 0l18 -21q10 -11 -2 -22l-128 -99q-15 -11 -19 -2z" glyph-name="Uhungarumlaut" horiz-adv-x="657" unicode="Ű"/><glyph d="M198 166q0 -139 84 -139q51 0 84 56t37 129l-1 159q-2 46 -12 64t-33 20q-15 1 -15 17v2q0 16 16 16q68 5 147 22q18 3 18 -14v-315q0 -81 8.5 -115t33.5 -40q15 -4 15 -17q0 -15 -17 -13q-42 2 -68 2q-35 0 -61 -3q-17 -1 -24 13t-7 48q0 11 -4.5 12t-10.5 -9 q-47 -77 -139 -77q-79 0 -126 45.5t-47 124.5v179q0 69 -9.5 94t-36.5 28q-15 1 -15 17v2q0 16 16 16q71 5 149 22q18 3 18 -14v-332zM313 553q-14 -8 -19 1q-5 10 6 19l128 114q14 12 23 -2l17 -23q9 -14 -5 -22zM204 554q-4 8 4 18l105 126q11 14 22 0l18 -21 q10 -11 -2 -22l-128 -99q-15 -11 -19 -2z" glyph-name="uhungarumlaut" horiz-adv-x="600" unicode="ű"/><glyph d="M585 234q0 -153 -117 -214q-48 -31 -48 -85q0 -33 18 -49t42 -14q15 2 19 -10q5 -14 -10 -19q-49 -17 -98.5 3t-49.5 77q0 37 34 71q-22 -2 -35 -2q-120 0 -189 64t-69 178v272q0 82 -10.5 119t-36.5 44q-15 5 -15 17q0 16 16 16q51 -3 108 -3q53 0 104 3q17 0 17 -15v-1 q0 -12 -15 -17q-26 -7 -36.5 -44t-10.5 -119v-267q0 -94 45.5 -147t117.5 -53q86 0 135.5 53.5t49.5 146.5v271q0 79 -10.5 115.5t-36.5 43.5q-15 5 -15 17q0 16 17 16q39 -3 63 -3q17 0 61 2q17 2 17 -14v-1q0 -12 -15 -17q-26 -7 -36.5 -43.5t-10.5 -115.5v-276z" glyph-name="Uogonek" horiz-adv-x="657" unicode="Ų"/><glyph d="M198 166q0 -139 84 -139q51 0 84 56t37 129l-1 159q-2 46 -12 64t-33 20q-15 1 -15 17v2q0 16 16 16q68 5 147 22q18 3 18 -14v-315q0 -81 8.5 -115t33.5 -40q15 -4 15 -17q0 -10 -8 -12l8 -3q-49 -32 -49 -86q0 -33 18 -49t42 -14q15 2 19 -10q5 -14 -10 -19 q-49 -17 -98.5 3t-49.5 77q0 31 23.5 59.5t54.5 41.5q-12 1 -35 1q-35 0 -61 -3q-17 -1 -24 13t-7 48q0 11 -4.5 12t-10.5 -9q-47 -77 -139 -77q-79 0 -126 45.5t-47 124.5v179q0 69 -9.5 94t-36.5 28q-15 1 -15 17v2q0 16 16 16q71 5 149 22q18 3 18 -14v-332z" glyph-name="uogonek" horiz-adv-x="600" unicode="ų"/><glyph d="M240 702q15 2 17 -15v-1q1 -13 -14 -18q-25 -5 -24.5 -38.5t28.5 -109.5l127 -339q4 -11 10.5 -11t10.5 11l58 171q4 13 0 21l-56 147q-31 79 -53.5 111.5t-53.5 37.5q-15 1 -15 16v1q0 16 16 16q51 -3 106 -3q32 0 106 2v2q3 0 8 -0.5t7 -0.5h2q16 0 16 -1q18 -2 51 -2 q17 0 61 2q8 1 12.5 -2.5t3.5 -11.5v-2q-2 -15 -16 -16q-30 -5 -54 -39t-50 -110l-6 -19q-1 -4 0 -10l116 -310q4 -11 10.5 -11t10.5 11l119 351q23 70 23.5 100t-21.5 36q-15 5 -14 17v2q1 15 17 15q39 -3 68 -3q17 0 61 2q8 1 12.5 -2.5t3.5 -11.5v-2q-2 -15 -16 -16 q-30 -5 -54 -39t-50 -110l-172 -507q-5 -13 -18 -13h-26q-14 0 -19 13l-103 273q-4 11 -10.5 11t-10.5 -11l-93 -273q-5 -13 -18 -13h-26q-14 0 -19 13l-192 507q-31 79 -53.5 111.5t-53.5 37.5q-15 1 -15 16v1q0 16 16 16q51 -3 106 -3q64 0 123 3zM512 565q1 -4 3.5 -5.5 t5 0t3.5 5.5q15 49 14 72.5t-19 29.5q-35 -12 -7 -102zM369 764q-13 -7 -20 3q-6 9 5 19l142 125q11 11 22 0l142 -125q11 -10 5 -19q-7 -10 -20 -3l-127 61q-11 5 -22 0z" glyph-name="Wcircumflex" horiz-adv-x="935" unicode="Ŵ"/><glyph d="M216 502q16 0 17 -15v-1q1 -14 -14 -17q-27 -6 -24.5 -37.5t34.5 -111.5l61 -151q4 -10 10.5 -10t10.5 10l84 242q5 13 19 13h11q14 0 18 -12l99 -243q4 -10 10.5 -10t10.5 10l52 150q27 80 26.5 112t-25.5 38q-15 3 -14 17v1q1 15 17 15q42 -3 74 -3q16 0 54 2 q9 1 13.5 -2.5t3.5 -11.5v-2q-1 -15 -16 -16q-26 -5 -46.5 -32.5t-45.5 -93.5l-116 -330q-5 -13 -19 -13h-24q-13 0 -18 12l-92 225q-2 6 -6 8.5t-8.5 0t-6.5 -9.5l-78 -223q-5 -13 -19 -13h-24q-13 0 -18 12l-133 326q-31 74 -47.5 100t-40.5 31q-14 3 -15 16v1 q-2 16 16 16q48 -3 102 -3t107 3zM274 569q-14 -7 -20 3q-6 9 5 19l142 125q11 11 22 0l142 -125q11 -10 5 -19q-6 -10 -20 -3l-127 61q-11 5 -22 0z" glyph-name="wcircumflex" horiz-adv-x="756" unicode="ŵ"/><glyph d="M439 687q1 15 17 15q41 -3 72 -3q18 0 60 2q8 1 12.5 -2.5t3.5 -11.5v-2q-2 -15 -15 -16q-29 -6 -54.5 -39t-61.5 -111l-98 -210q-4 -8 -4 -19v-76q0 -167 48 -183q14 -5 14 -17v-1q0 -15 -16 -15l-46 2h-120l-46 -2q-16 0 -16 15v1q0 12 14 17q48 16 48 183v49 q0 7 -5 19l-116 238h-1q-40 80 -62.5 111.5t-50.5 37.5q-14 3 -15 16v1q-2 16 16 16q49 -3 106 -3q67 0 125 3q15 2 17 -15v-1q1 -15 -15 -17q-34 -5 -31.5 -38t42.5 -111l82 -159q5 -9 10.5 -9.5t10.5 9.5l74 158q65 137 15 149q-15 5 -14 18v1zM203 763q-13 -7 -20 3 q-6 9 5 19l142 125q11 11 22 0l142 -125q11 -10 5 -19q-7 -10 -20 -3l-127 61q-11 5 -22 0z" glyph-name="Ycircumflex" horiz-adv-x="610" unicode="Ŷ"/><glyph d="M96 -263q-41 0 -66.5 21t-26.5 48t15 52q20 25 53 25q25 0 42.5 -17t17.5 -42q0 -20 -11 -35.5t-29 -21.5q6 -1 14 -1q37 0 66 48.5t72 165.5q4 10 -1 22l-158 369q-23 53 -37.5 73.5t-34.5 24.5q-15 3 -16 16v1q-2 16 16 16q48 -3 102 -3t107 3q16 0 17 -15v-1 q1 -15 -15 -17q-28 -5 -27.5 -31.5t28.5 -94.5l71 -162q3 -7 7 -9t8 1t6 9l54 152q24 71 22.5 100.5t-25.5 34.5q-15 3 -14 17v1q1 15 17 15q42 -3 74 -3q15 0 53 2q9 1 13.5 -2.5t3.5 -11.5v-2q-1 -13 -16 -16q-27 -5 -47 -36t-50 -111l-115 -321q-23 -65 -36 -98 t-32 -71.5t-35 -55t-38 -28t-49 -11.5zM144 571q-14 -7 -20 3q-6 9 5 19l142 125q11 11 22 0l142 -125q11 -10 5 -19q-6 -10 -20 -3l-127 61q-11 5 -22 0z" glyph-name="ycircumflex" horiz-adv-x="505" unicode="ŷ"/><glyph d="M439 687q1 15 17 15q41 -3 72 -3q18 0 60 2q8 1 12.5 -2.5t3.5 -11.5v-2q-2 -15 -15 -16q-29 -6 -54.5 -39t-61.5 -111l-98 -210q-4 -8 -4 -19v-76q0 -167 48 -183q14 -5 14 -17v-1q0 -15 -16 -15l-46 2h-120l-46 -2q-16 0 -16 15v1q0 12 14 17q48 16 48 183v49 q0 7 -5 19l-116 238h-1q-40 80 -62.5 111.5t-50.5 37.5q-14 3 -15 16v1q-2 16 16 16q49 -3 106 -3q67 0 125 3q15 2 17 -15v-1q1 -15 -15 -17q-34 -5 -31.5 -38t42.5 -111l82 -159q5 -9 10.5 -9.5t10.5 9.5l74 158q65 137 15 149q-15 5 -14 18v1zM265 754q-31 0 -48 17 t-17 48q0 30 17 47t48 17q30 0 47 -17t17 -47q0 -31 -17 -48t-47 -17zM364 819q0 30 17 47t48 17q30 0 47 -17t17 -47q0 -31 -17 -48t-47 -17q-31 0 -48 17t-17 48z" glyph-name="Ydieresis" horiz-adv-x="610" unicode="Ÿ"/><glyph d="M523 191q11 0 9 -17l-13 -174q-1 -15 -14 -15h-2q-8 0 -20 5q-27 10 -108 10h-328q-9 0 -12.5 5.5t0.5 13.5l338 630q4 8 0.5 13.5t-12.5 5.5h-167q-64 0 -93.5 -37.5t-40.5 -97.5q-3 -14 -13 -14q-12 0 -10 17l13 163q2 15 14 15h2q8 0 20 -5q20 -9 65 -9h354 q9 0 12.5 -5.5t-0.5 -13.5l-339 -630q-6 -12 -3 -16.5t18 -4.5h205q84 0 112 146q2 15 13 15zM423 855q8 -15 -8 -21l-206 -83q-14 -6 -19 4q-6 9 7 19l181 126q14 11 22 -5z" glyph-name="Zacute" horiz-adv-x="563" unicode="Ź"/><glyph d="M423 500q9 0 12 -5.5t-1 -13.5l-5 -8l-250 -417q-17 -28 10 -28h94q55 0 80 32t40 90q3 14 15 14q11 0 9 -17l-14 -136q-1 -16 -18 -14q-25 3 -54 3h-299q-9 0 -12 5.5t1 13.5l260 435q10 19 -10 19h-89q-55 0 -80 -32t-40 -91q-3 -14 -14 -14q-12 0 -10 17l14 136 q1 16 17 14q27 -3 55 -3h289zM382 647q8 -15 -8 -21l-206 -83q-14 -6 -19 4q-6 9 7 19l181 126q14 11 22 -5z" glyph-name="zacute" horiz-adv-x="470" unicode="ź"/><glyph d="M523 191q11 0 9 -17l-13 -174q-1 -15 -14 -15h-2q-8 0 -20 5q-27 10 -108 10h-328q-9 0 -12.5 5.5t0.5 13.5l338 630q4 8 0.5 13.5t-12.5 5.5h-167q-64 0 -93.5 -37.5t-40.5 -97.5q-3 -14 -13 -14q-12 0 -10 17l13 163q2 15 14 15h2q8 0 20 -5q20 -9 65 -9h354 q9 0 12.5 -5.5t-0.5 -13.5l-339 -630q-6 -12 -3 -16.5t18 -4.5h205q84 0 112 146q2 15 13 15zM293 754q-31 0 -48 17t-17 48q0 30 17 47t48 17q30 0 47 -17t17 -47q0 -31 -17 -48t-47 -17z" glyph-name="Zdotaccent" horiz-adv-x="563" unicode="Ż"/><glyph d="M423 500q9 0 12 -5.5t-1 -13.5l-5 -8l-250 -417q-17 -28 10 -28h94q55 0 80 32t40 90q3 14 15 14q11 0 9 -17l-14 -136q-1 -16 -18 -14q-25 3 -54 3h-299q-9 0 -12 5.5t1 13.5l260 435q10 19 -10 19h-89q-55 0 -80 -32t-40 -91q-3 -14 -14 -14q-12 0 -10 17l14 136 q1 16 17 14q27 -3 55 -3h289zM249 552q-31 0 -48 17t-17 48q0 30 17 47t48 17q30 0 47 -17t17 -47q0 -31 -17 -48t-47 -17z" glyph-name="zdotaccent" horiz-adv-x="470" unicode="ż"/><glyph d="M523 191q11 0 9 -17l-13 -174q-1 -15 -14 -15h-2q-8 0 -20 5q-27 10 -108 10h-328q-9 0 -12.5 5.5t0.5 13.5l338 630q4 8 0.5 13.5t-12.5 5.5h-167q-64 0 -93.5 -37.5t-40.5 -97.5q-3 -14 -13 -14q-12 0 -10 17l13 163q2 15 14 15h2q8 0 20 -5q20 -9 65 -9h354 q9 0 12.5 -5.5t-0.5 -13.5l-339 -630q-6 -12 -3 -16.5t18 -4.5h205q84 0 112 146q2 15 13 15zM132 895q6 10 20 3l127 -61q11 -5 22 0l126 61q13 7 20 -3q6 -9 -5 -19l-142 -124q-11 -11 -22 0l-141 124q-12 10 -5 19z" glyph-name="Zcaron" horiz-adv-x="563" unicode="Ž"/><glyph d="M423 500q9 0 12 -5.5t-1 -13.5l-5 -8l-250 -417q-17 -28 10 -28h94q55 0 80 32t40 90q3 14 15 14q11 0 9 -17l-14 -136q-1 -16 -18 -14q-25 3 -54 3h-299q-9 0 -12 5.5t1 13.5l260 435q10 19 -10 19h-89q-55 0 -80 -32t-40 -91q-3 -14 -14 -14q-12 0 -10 17l14 136 q1 16 17 14q27 -3 55 -3h289zM99 705q7 10 20 3l127 -61q11 -5 22 0l126 61q14 7 20 -3q6 -9 -5 -19l-142 -124q-11 -11 -22 0l-141 124q-12 10 -5 19z" glyph-name="zcaron" horiz-adv-x="470" unicode="ž"/><glyph d="M306 712q138 0 231.5 -101.5t96.5 -255.5q4 -160 -84.5 -265t-235.5 -105q-120 0 -195 62.5t-75 149.5q0 36 47 55.5t188 52.5q91 21 230 58q-7 125 -79 211t-171 86q-101 0 -188 -117q-9 -12 -20 -6q-12 5 -4 19q84 156 259 156zM168 167q0 -62 44.5 -105.5t99.5 -43.5 q93 0 144.5 89t53.5 220q-143 -36 -224 -57q-39 -10 -60.5 -19.5t-39.5 -30.5t-18 -53z" glyph-name="uni018F" horiz-adv-x="669" unicode="Ə"/><glyph d="M388 -15q-156 -1 -254.5 103t-98.5 262t98.5 262t254.5 103q79 0 145 -29q3 6 13 12q21 12 33 27q12 14 6 26q-1 3 -3 2q-8 -2 -14 -2q-20 0 -35 13t-15 35q0 25 16.5 40.5t43.5 15.5q60 0 60 -71q0 -75 -79 -110q85 -45 133.5 -130.5t48.5 -193.5q0 -157 -98.5 -260.5 t-254.5 -104.5zM176 328q17 -159 81.5 -242t164.5 -72q101 11 148 105.5t30 252.5q-17 159 -81.5 241.5t-164.5 72.5q-102 -10 -148.5 -104.5t-29.5 -253.5z" glyph-name="Ohorn" horiz-adv-x="776" unicode="Ơ"/><glyph d="M295 -15q-119 0 -189.5 74.5t-70.5 191.5q0 116 70.5 190.5t189.5 74.5q90 0 153 -44q3 6 14 13q21 12 33 27q12 14 6 26q-1 3 -3 2q-8 -2 -14 -2q-20 0 -35 13t-15 35q0 25 16.5 40.5t43.5 15.5q60 0 60 -71q0 -38 -23 -68t-62 -45q-1 0 -2 -1q87 -73 87 -206 q0 -117 -70 -191.5t-189 -74.5zM164 236q14 -110 55.5 -168.5t103.5 -52.5q65 6 90.5 71.5t11.5 179.5q-15 111 -54.5 169t-103.5 51q-64 -6 -90.5 -71.5t-12.5 -178.5z" glyph-name="ohorn" horiz-adv-x="589" unicode="ơ"/><glyph d="M585 234q0 -113 -66.5 -177.5t-178.5 -64.5q-120 0 -189 64t-69 178v272q0 82 -10.5 119t-36.5 44q-15 5 -15 17q0 16 16 16q51 -3 108 -3q53 0 104 3q17 0 17 -15v-1q0 -12 -15 -17q-26 -7 -36.5 -44t-10.5 -119v-267q0 -94 45.5 -147t117.5 -53q86 0 135.5 53.5 t49.5 146.5v271q0 79 -10.5 115.5t-36.5 43.5q-15 5 -15 17q0 16 17 16q39 -3 63 -3q17 0 59 2q18 13 25 22q12 14 6 26q-1 3 -3 2q-8 -2 -14 -2q-20 0 -35 13t-15 35q0 25 16.5 40.5t43.5 15.5q60 0 60 -71q0 -35 -21 -64.5t-56 -45.5q-32 -19 -41 -49.5t-9 -112.5v-276z " glyph-name="Uhorn" horiz-adv-x="657" unicode="Ư"/><glyph d="M198 166q0 -139 84 -139q51 0 84 56t37 129l-1 159q-2 46 -12 64t-33 20q-15 1 -15 17v2q0 16 16 16q68 5 147 22q18 3 18 -14v-24q3 4 9 7q21 12 33 27q12 14 6 26q-1 3 -3 2q-8 -2 -14 -2q-20 0 -35 13t-15 35q0 25 16.5 40.5t43.5 15.5q60 0 60 -71q0 -38 -23 -68 t-62 -45q-9 -4 -16 1v-272q0 -81 8.5 -115t33.5 -40q15 -4 15 -17q0 -15 -17 -13q-42 2 -68 2q-35 0 -61 -3q-17 -1 -24 13t-7 48q0 11 -4.5 12t-10.5 -9q-47 -77 -139 -77q-79 0 -126 45.5t-47 124.5v179q0 69 -9.5 94t-36.5 28q-15 1 -15 17v2q0 16 16 16q71 5 149 22 q18 3 18 -14v-332z" glyph-name="uhorn" horiz-adv-x="600" unicode="ư"/><glyph d="M318 -15q-34 0 -69.5 8.5t-56.5 16.5t-43 8t-38 -15q-9 -9 -20 -9h-4q-15 0 -17 15l-23 239q-2 17 11 17t17 -13q30 -100 95 -167t154 -67q54 0 86 37.5t32 91.5q0 37 -21.5 66.5t-56 49.5t-76 38t-83 38.5t-75.5 45.5t-55.5 64t-21.5 89q0 77 58 127t151 50 q45 0 84 -8.5t56 -16.5t31 -7t24 18q7 12 19 12h4q16 0 17 -15l22 -220q2 -17 -11 -17t-17 13q-34 102 -84.5 156t-135.5 54q-46 0 -77.5 -30t-31.5 -82q0 -41 29 -73t72 -51t94 -44t94 -50.5t72 -72t29 -107.5q0 -82 -67 -135.5t-167 -53.5zM374 -109q5 -33 -16.5 -74.5 t-62.5 -64.5q-16 -8 -19 0q-2 7 9 15q21 15 35 40q9 17 2 19h-5h-7q-31 0 -48 17t-17 48q0 30 17 47t48 17q30 0 47 -17t17 -47z" glyph-name="uni0218" horiz-adv-x="587" unicode="Ș"/><glyph d="M248 -15q-28 0 -53 5.5t-39 12.5t-25.5 12t-20 4.5t-15.5 -9.5q-9 -10 -20 -10h-2q-15 0 -17 15l-19 158q-2 17 11 17q12 0 16 -14q21 -71 73 -116t114 -45q37 0 61.5 22t24.5 59q0 39 -30 67t-72.5 46t-84.5 37.5t-72 53.5t-30 82q0 57 47.5 95t125.5 38q34 0 62.5 -6 t41 -12t21.5 -5t16 12q8 12 19 12h1q16 0 17 -15l15 -151q2 -17 -10 -17q-11 0 -17 13q-28 72 -66 106t-92 34q-32 0 -52.5 -21.5t-20.5 -51.5q0 -32 30 -55.5t72 -41.5t84.5 -39t72.5 -59t30 -91q0 -63 -53.5 -102.5t-143.5 -39.5zM308 -113q5 -33 -16.5 -74.5t-62.5 -64.5 q-16 -8 -19 0q-2 7 9 15q21 15 35 40q9 17 2 19h-5h-7q-31 0 -48 17t-17 48q0 30 17 47t48 17q30 0 47 -17t17 -47z" glyph-name="uni0219" horiz-adv-x="475" unicode="ș"/><glyph d="M458 700q49 3 65 9q12 5 20 5h1q16 0 16 -16v-173q0 -16 -11 -16q-13 0 -14 15q-5 32 -12 54t-21.5 46t-41 36t-65.5 12h-25q-16 0 -16 -16v-463q0 -82 10.5 -119t36.5 -44q15 -4 15 -17q0 -16 -17 -16q-48 3 -104 3q-51 0 -102 -3q-17 0 -17 15v1q0 13 15 17 q24 6 34.5 36.5t12.5 95.5l-2 494q0 16 -16 16h-9q-44 0 -74 -12t-46 -35.5t-23.5 -45.5t-12.5 -55q-1 -15 -13 -15t-12 16v173q0 16 14 16h3q8 0 20 -5q16 -6 65 -9h326zM363 -102q5 -33 -16.5 -74.5t-62.5 -64.5q-16 -8 -19 0q-2 7 9 15q21 15 35 40q9 17 2 19h-5h-7 q-31 0 -48 17t-17 48q0 30 17 47t48 17q30 0 47 -17t17 -47z" glyph-name="uni021A" horiz-adv-x="590" unicode="Ț"/><glyph d="M83 387q0 77 -72 82q-16 0 -16 16q0 15 16 16q77 4 117 49.5t44 151.5q0 16 16 16h5q16 0 16 -16l-1 -186q0 -16 16 -16h53q16 0 16 -16v-2q0 -16 -16 -16h-53q-16 0 -16 -16v-345q0 -47 17.5 -63t48.5 -9q19 5 19 -10v-2q0 -15 -13 -19q-73 -24 -135 3.5t-62 97.5v284z M227 -111q5 -33 -16.5 -74.5t-62.5 -64.5q-16 -8 -19 0q-2 7 9 15q21 15 35 40q9 17 2 19h-5h-7q-31 0 -48 17t-17 48q0 30 17 47t48 17q30 0 47 -17t17 -47z" glyph-name="uni021B" horiz-adv-x="303" unicode="ț"/><glyph d="M207 -92q0 -78 -40.5 -125.5t-112.5 -47.5q-61 0 -100.5 34t-38.5 88q0 29 20 49t50 20q29 0 48.5 -20t19.5 -49t-19.5 -49t-48.5 -20q-9 0 -14 1q27 -22 70 -22q76 0 77 99q1 44 -15.5 97.5t-16.5 79.5v290q0 78 -12 100.5t-48 22.5v34q81 0 181 26v-608z" glyph-name="uni0237" horiz-adv-x="282" unicode="ȷ"/><glyph d="M228 515q114 0 184 -75.5t70 -194.5q0 -115 -66 -187.5t-182 -72.5q-89 0 -142.5 44.5t-53.5 105.5q0 40 76 60q22 6 97 25.5t128 33.5q14 5 13 19q-7 85 -50 137t-108 52q-81 0 -137 -70q-10 -13 -21 -7q-11 7 -4 20q30 52 81.5 81t114.5 29zM352 202q1 8 -4 12t-14 2 q-57 -13 -94 -25q-58 -17 -74.5 -32t-15.5 -58q1 -39 24 -63.5t54 -24.5q55 0 86 53.5t38 135.5z" glyph-name="uni0259" horiz-adv-x="517" unicode="ə"/><glyph d="M45 598q-13 -6 -18 3q-5 8 7 17l135 105v1h1v-1l135 -105q12 -10 8 -17q-5 -9 -19 -3l-124 51z" glyph-name="circumflex" horiz-adv-x="339" unicode="ˆ"/><glyph d="M28 711q3 9 18 2l124 -47l123 47q15 7 18 -2q3 -8 -8 -16l-133 -99v-1h-1v1l-133 99q-11 8 -8 16z" glyph-name="caron" horiz-adv-x="339" unicode="ˇ"/><glyph d="M200 557q50 0 91 33.5t57 89.5h-28q-40 -65 -120 -65t-120 65h-28q14 -56 55.5 -89.5t92.5 -33.5z" glyph-name="breve" horiz-adv-x="390" unicode="˘"/><glyph d="M105 552q-31 0 -48 17t-17 48q0 30 17 47t48 17q30 0 47 -17t17 -47q0 -31 -17 -48t-47 -17z" glyph-name="dotaccent" horiz-adv-x="209" unicode="˙"/><glyph d="M118 585q-37 0 -62 23.5t-25 56.5t25.5 56.5t61.5 23.5t61.5 -24t25.5 -56q0 -33 -25.5 -56.5t-61.5 -23.5zM94 665q5 -63 30 -63q23 0 18 63q-5 62 -30 62q-23 0 -18 -62z" glyph-name="ring" horiz-adv-x="236" unicode="˚"/><glyph d="M153 -138q2 -9 -12 -12q-32 -11 -63 1t-37 46q-6 35 13.5 60.5t61.5 29.5h23q-38 -3 -32 -81q1 -37 29 -39q16 0 17 -5z" glyph-name="ogonek" horiz-adv-x="194" unicode="˛"/><glyph d="M64 669q-9 7 -1 19q18 27 43 43.5t49 16.5q28 0 65.5 -19t52.5 -19q24 0 46 22q12 12 18 6q8 -8 2 -19q-14 -27 -37 -43.5t-47 -16.5q-25 0 -63.5 20.5t-55.5 20.5q-26 0 -53 -27q-12 -11 -19 -4z" glyph-name="tilde" horiz-adv-x="387" unicode="˜"/><glyph d="M139 560q-14 -8 -17 -1q-3 6 9 15l136 100q13 10 22 -4l9 -14q9 -13 -6 -21zM42 559q-4 7 7 16l114 109q11 11 23 -1l10 -11q12 -13 -3 -23l-134 -87q-14 -9 -17 -3z" glyph-name="hungarumlaut" horiz-adv-x="347" unicode="˝"/><glyph d="M39 649q-16 5 -10 20l17 44q6 16 21 8l199 -102q13 -7 9 -19q-5 -12 -20 -9z" glyph-name="gravecomb" unicode="̀"/><glyph d="M266 679q8 -15 -8 -21l-206 -83q-14 -6 -19 4q-6 9 7 19l181 126q14 11 22 -5z" glyph-name="acutecomb" unicode="́"/><glyph d="M31 601q-13 -7 -20 3q-6 9 5 19l142 125q11 11 22 0l142 -125q11 -10 5 -19q-7 -10 -20 -3l-127 61q-11 5 -22 0z" glyph-name="uni0302" unicode="̂"/><glyph d="M32 664q-8 10 -1 21q19 32 45 52.5t51 20.5q29 0 70.5 -21t57.5 -21q22 0 42 26q12 15 18 6q7 -10 2 -21q-14 -31 -37.5 -52t-48.5 -21t-67 21t-60 21q-24 0 -53 -29q-13 -13 -19 -3z" glyph-name="tildecomb" unicode="̃"/><glyph d="M57 637q0 16 16 16h229q16 0 16 -16v-7q0 -16 -16 -16h-229q-16 0 -16 16v7z" glyph-name="uni0304" unicode="̄"/><glyph d="M200 555q46 0 85 29t57 79q7 18 -8 18h-2q-12 0 -19 -10q-41 -55 -113 -55t-113 55q-7 10 -19 10q-7 0 -10 -5.5t0 -15.5q17 -48 56.5 -76.5t85.5 -28.5z" glyph-name="uni0306" unicode="̆"/><glyph d="M105 552q-31 0 -48 17t-17 48q0 30 17 47t48 17q30 0 47 -17t17 -47q0 -31 -17 -48t-47 -17z" glyph-name="uni0307" unicode="̇"/><glyph d="M103 572q-31 0 -48 17t-17 48q0 30 17 47t48 17q30 0 47 -17t17 -47q0 -31 -17 -48t-47 -17zM202 637q0 30 17 47t48 17q30 0 47 -17t17 -47q0 -31 -17 -48t-47 -17q-31 0 -48 17t-17 48z" glyph-name="uni0308" unicode="̈"/><glyph d="M108 653q3 7 2.5 12.5t-3 8.5t-6.5 1q-8 -3 -17 -3q-21 0 -37.5 15.5t-16.5 38.5q0 26 18 43.5t46 17.5q67 0 67 -77q0 -34 -20.5 -67t-45.5 -50q-12 -8 -20 2q-8 8 7 21q19 17 26 37z" glyph-name="hookabovecomb" unicode="̉"/><glyph d="M118 581q-43 0 -70.5 24.5t-27.5 59.5t27.5 59.5t70.5 24.5t70.5 -24.5t27.5 -59.5t-27.5 -59.5t-70.5 -24.5zM93 660q12 -63 39 -59q25 6 11 69q-5 27 -16 44t-23 15q-26 -6 -11 -69z" glyph-name="uni030A" unicode="̊"/><glyph d="M151 552q-14 -8 -19 1q-5 10 6 19l128 114q14 12 23 -2l17 -23q9 -14 -5 -22zM42 553q-4 8 4 18l105 126q11 14 22 0l18 -21q10 -11 -2 -22l-128 -99q-15 -11 -19 -2z" glyph-name="uni030B" unicode="̋"/><glyph d="M12 746q6 10 20 3l127 -61q11 -5 22 0l126 61q13 7 20 -3q6 -9 -5 -19l-142 -124q-11 -11 -22 0l-141 124q-12 10 -5 19z" glyph-name="uni030C" unicode="̌"/><glyph d="M41 636q-5 33 16.5 74.5t62.5 64.5q16 8 19 0q2 -7 -9 -15q-21 -15 -35 -40q-9 -17 -2 -19h5h7q31 0 48 -17t17 -48q0 -30 -17 -47t-48 -17q-30 0 -47 17t-17 47z" glyph-name="uni0312" unicode="̒"/><glyph d="M108 640q12 14 6 26q-1 3 -3 2q-8 -2 -14 -2q-20 0 -35 13t-15 35q0 25 16.5 40.5t43.5 15.5q60 0 60 -71q0 -38 -23 -68t-62 -45q-15 -6 -20 7q-4 9 13 20q21 12 33 27z" glyph-name="uni031B" unicode="̛"/><glyph d="M105 -204q-31 0 -48 17t-17 48q0 30 17 47t48 17q30 0 47 -17t17 -47q0 -31 -17 -48t-47 -17z" glyph-name="dotbelowcomb" unicode="̣"/><glyph d="M41 -134q-5 33 16.5 74.5t62.5 64.5q16 8 19 0q2 -7 -9 -15q-21 -15 -35 -40q-9 -17 -2 -19h5h7q31 0 48 -17t17 -48q0 -30 -17 -47t-48 -17q-30 0 -47 17t-17 47z" glyph-name="uni0326" unicode="̦"/><glyph d="M32 -191q-14 6 -9 18q4 11 19 9q21 -3 36 7.5t16 32.5q1 35 -32 49q-14 7 -9 20l26 58h36l-17 -38q-6 -16 10 -20q61 -21 61 -75q0 -42 -44 -61.5t-93 0.5z" glyph-name="uni0327" unicode="̧"/><glyph d="M184 -172q5 -14 -10 -19q-49 -17 -98.5 3t-49.5 77q0 36 32 69t66 39l30 -10q-49 -32 -49 -86q0 -33 18 -49t42 -14q15 2 19 -10z" glyph-name="uni0328" unicode="̨"/><glyph d="M553 146q0 89 -18 118t-53 31q-16 0 -16 16v2q0 16 16 16h161q16 0 16 -16l1 -148v-21q0 -11 -5 -20q-41 -66 -107 -103t-146 -37q-163 0 -265.5 107t-101.5 275q1 162 96 255.5t267 93.5q30 0 65 -7t56 -13t40 -4.5t28 14.5q8 11 19 11h4q14 0 16 -15l20 -250 q2 -17 -12 -17q-13 0 -18 14q-30 116 -85 177t-151 61q-101 0 -158 -78.5t-56 -218.5q1 -92 31 -171t89 -129.5t136 -50.5q64 0 120 27q11 5 11 19v62zM256 805q0 16 16 16h229q16 0 16 -16v-7q0 -16 -16 -16h-229q-16 0 -16 16v7z" glyph-name="uni1E20" horiz-adv-x="710" unicode="Ḡ"/><glyph d="M296 186q46 8 62 55.5t-1 130.5q-13 64 -43.5 94t-75.5 23q-47 -8 -64.5 -54t-2.5 -124q13 -68 45.5 -100.5t79.5 -24.5zM30 -144q0 70 95 117q7 3 9.5 6.5t-1 6t-11.5 2.5h-29q-46 -1 -52 35t30 56l115 65q6 3 7.5 7t-1 7.5t-9.5 5.5q-68 17 -105.5 61.5t-38.5 106.5 q-1 84 60 134t165 50q14 0 40 -2q117 0 152 10q-18 5 -27.5 22t-4.5 36t23 28t36 4q32 -8 35 -42q5 -38 -23.5 -56.5t-81.5 -24.5q-16 -3 -3 -12q81 -48 79 -147q-1 -77 -58 -126t-156 -52q-13 0 -20 -5l-50 -30q-31 -18 -10 -22q4 -1 9 -1h136q105 0 163 -42t58 -113 q0 -91 -100.5 -149t-225.5 -58q-88 0 -146.5 33t-58.5 89zM142 -126q0 -48 36 -77.5t98 -29.5q42 0 86.5 13t81 46.5t36.5 79.5q0 47 -34 66t-120 18l-81 -1q-11 0 -20 -4q-83 -33 -83 -111zM137 616q0 16 16 16h229q16 0 16 -16v-7q0 -16 -16 -16h-229q-16 0 -16 16v7z" glyph-name="uni1E21" horiz-adv-x="556" unicode="ḡ"/><glyph d="M240 702q15 2 17 -15v-1q1 -13 -14 -18q-25 -5 -24.5 -38.5t28.5 -109.5l127 -339q4 -11 10.5 -11t10.5 11l58 171q4 13 0 21l-56 147q-31 79 -53.5 111.5t-53.5 37.5q-15 1 -15 16v1q0 16 16 16q51 -3 106 -3q32 0 106 2v2q3 0 8 -0.5t7 -0.5h2q16 0 16 -1q18 -2 51 -2 q17 0 61 2q8 1 12.5 -2.5t3.5 -11.5v-2q-2 -15 -16 -16q-30 -5 -54 -39t-50 -110l-6 -19q-1 -4 0 -10l116 -310q4 -11 10.5 -11t10.5 11l119 351q23 70 23.5 100t-21.5 36q-15 5 -14 17v2q1 15 17 15q39 -3 68 -3q17 0 61 2q8 1 12.5 -2.5t3.5 -11.5v-2q-2 -15 -16 -16 q-30 -5 -54 -39t-50 -110l-172 -507q-5 -13 -18 -13h-26q-14 0 -19 13l-103 273q-4 11 -10.5 11t-10.5 -11l-93 -273q-5 -13 -18 -13h-26q-14 0 -19 13l-192 507q-31 79 -53.5 111.5t-53.5 37.5q-15 1 -15 16v1q0 16 16 16q51 -3 106 -3q64 0 123 3zM512 565q1 -4 3.5 -5.5 t5 0t3.5 5.5q15 49 14 72.5t-19 29.5q-35 -12 -7 -102zM379 825q-16 5 -10 20l17 44q6 16 21 8l199 -102q13 -7 9 -19q-5 -12 -20 -9z" glyph-name="Wgrave" horiz-adv-x="935" unicode="Ẁ"/><glyph d="M216 502q16 0 17 -15v-1q1 -14 -14 -17q-27 -6 -24.5 -37.5t34.5 -111.5l61 -151q4 -10 10.5 -10t10.5 10l84 242q5 13 19 13h11q14 0 18 -12l99 -243q4 -10 10.5 -10t10.5 10l52 150q27 80 26.5 112t-25.5 38q-15 3 -14 17v1q1 15 17 15q42 -3 74 -3q16 0 54 2 q9 1 13.5 -2.5t3.5 -11.5v-2q-1 -15 -16 -16q-26 -5 -46.5 -32.5t-45.5 -93.5l-116 -330q-5 -13 -19 -13h-24q-13 0 -18 12l-92 225q-2 6 -6 8.5t-8.5 0t-6.5 -9.5l-78 -223q-5 -13 -19 -13h-24q-13 0 -18 12l-133 326q-31 74 -47.5 100t-40.5 31q-14 3 -15 16v1 q-2 16 16 16q48 -3 102 -3t107 3zM308 608q-16 5 -10 20l17 44q6 16 21 8l199 -102q13 -7 9 -19q-5 -12 -20 -9z" glyph-name="wgrave" horiz-adv-x="756" unicode="ẁ"/><glyph d="M240 702q15 2 17 -15v-1q1 -13 -14 -18q-25 -5 -24.5 -38.5t28.5 -109.5l127 -339q4 -11 10.5 -11t10.5 11l58 171q4 13 0 21l-56 147q-31 79 -53.5 111.5t-53.5 37.5q-15 1 -15 16v1q0 16 16 16q51 -3 106 -3q32 0 106 2v2q3 0 8 -0.5t7 -0.5h2q16 0 16 -1q18 -2 51 -2 q17 0 61 2q8 1 12.5 -2.5t3.5 -11.5v-2q-2 -15 -16 -16q-30 -5 -54 -39t-50 -110l-6 -19q-1 -4 0 -10l116 -310q4 -11 10.5 -11t10.5 11l119 351q23 70 23.5 100t-21.5 36q-15 5 -14 17v2q1 15 17 15q39 -3 68 -3q17 0 61 2q8 1 12.5 -2.5t3.5 -11.5v-2q-2 -15 -16 -16 q-30 -5 -54 -39t-50 -110l-172 -507q-5 -13 -18 -13h-26q-14 0 -19 13l-103 273q-4 11 -10.5 11t-10.5 -11l-93 -273q-5 -13 -18 -13h-26q-14 0 -19 13l-192 507q-31 79 -53.5 111.5t-53.5 37.5q-15 1 -15 16v1q0 16 16 16q51 -3 106 -3q64 0 123 3zM512 565q1 -4 3.5 -5.5 t5 0t3.5 5.5q15 49 14 72.5t-19 29.5q-35 -12 -7 -102zM640 851q8 -15 -8 -21l-206 -83q-14 -6 -19 4q-6 9 7 19l181 126q14 11 22 -5z" glyph-name="Wacute" horiz-adv-x="935" unicode="Ẃ"/><glyph d="M216 502q16 0 17 -15v-1q1 -14 -14 -17q-27 -6 -24.5 -37.5t34.5 -111.5l61 -151q4 -10 10.5 -10t10.5 10l84 242q5 13 19 13h11q14 0 18 -12l99 -243q4 -10 10.5 -10t10.5 10l52 150q27 80 26.5 112t-25.5 38q-15 3 -14 17v1q1 15 17 15q42 -3 74 -3q16 0 54 2 q9 1 13.5 -2.5t3.5 -11.5v-2q-1 -15 -16 -16q-26 -5 -46.5 -32.5t-45.5 -93.5l-116 -330q-5 -13 -19 -13h-24q-13 0 -18 12l-92 225q-2 6 -6 8.5t-8.5 0t-6.5 -9.5l-78 -223q-5 -13 -19 -13h-24q-13 0 -18 12l-133 326q-31 74 -47.5 100t-40.5 31q-14 3 -15 16v1 q-2 16 16 16q48 -3 102 -3t107 3zM535 652q8 -15 -8 -21l-206 -83q-14 -6 -19 4q-6 9 7 19l181 126q14 11 22 -5z" glyph-name="wacute" horiz-adv-x="756" unicode="ẃ"/><glyph d="M240 702q15 2 17 -15v-1q1 -13 -14 -18q-25 -5 -24.5 -38.5t28.5 -109.5l127 -339q4 -11 10.5 -11t10.5 11l58 171q4 13 0 21l-56 147q-31 79 -53.5 111.5t-53.5 37.5q-15 1 -15 16v1q0 16 16 16q51 -3 106 -3q32 0 106 2v2q3 0 8 -0.5t7 -0.5h2q16 0 16 -1q18 -2 51 -2 q17 0 61 2q8 1 12.5 -2.5t3.5 -11.5v-2q-2 -15 -16 -16q-30 -5 -54 -39t-50 -110l-6 -19q-1 -4 0 -10l116 -310q4 -11 10.5 -11t10.5 11l119 351q23 70 23.5 100t-21.5 36q-15 5 -14 17v2q1 15 17 15q39 -3 68 -3q17 0 61 2q8 1 12.5 -2.5t3.5 -11.5v-2q-2 -15 -16 -16 q-30 -5 -54 -39t-50 -110l-172 -507q-5 -13 -18 -13h-26q-14 0 -19 13l-103 273q-4 11 -10.5 11t-10.5 -11l-93 -273q-5 -13 -18 -13h-26q-14 0 -19 13l-192 507q-31 79 -53.5 111.5t-53.5 37.5q-15 1 -15 16v1q0 16 16 16q51 -3 106 -3q64 0 123 3zM512 565q1 -4 3.5 -5.5 t5 0t3.5 5.5q15 49 14 72.5t-19 29.5q-35 -12 -7 -102zM414 757q-31 0 -48 17t-17 48q0 30 17 47t48 17q30 0 47 -17t17 -47q0 -31 -17 -48t-47 -17zM513 822q0 30 17 47t48 17q30 0 47 -17t17 -47q0 -31 -17 -48t-47 -17q-31 0 -48 17t-17 48z" glyph-name="Wdieresis" horiz-adv-x="935" unicode="Ẅ"/><glyph d="M216 502q16 0 17 -15v-1q1 -14 -14 -17q-27 -6 -24.5 -37.5t34.5 -111.5l61 -151q4 -10 10.5 -10t10.5 10l84 242q5 13 19 13h11q14 0 18 -12l99 -243q4 -10 10.5 -10t10.5 10l52 150q27 80 26.5 112t-25.5 38q-15 3 -14 17v1q1 15 17 15q42 -3 74 -3q16 0 54 2 q9 1 13.5 -2.5t3.5 -11.5v-2q-1 -15 -16 -16q-26 -5 -46.5 -32.5t-45.5 -93.5l-116 -330q-5 -13 -19 -13h-24q-13 0 -18 12l-92 225q-2 6 -6 8.5t-8.5 0t-6.5 -9.5l-78 -223q-5 -13 -19 -13h-24q-13 0 -18 12l-133 326q-31 74 -47.5 100t-40.5 31q-14 3 -15 16v1 q-2 16 16 16q48 -3 102 -3t107 3zM338 543q-31 0 -48 17t-17 48q0 30 17 47t48 17q30 0 47 -17t17 -47q0 -31 -17 -48t-47 -17zM437 608q0 30 17 47t48 17q30 0 47 -17t17 -47q0 -31 -17 -48t-47 -17q-31 0 -48 17t-17 48z" glyph-name="wdieresis" horiz-adv-x="756" unicode="ẅ"/><glyph d="M325 388q-6 14 9 22q63 28 83 62t20 93q0 48 -30.5 86t-82.5 38q-55 0 -88.5 -33t-33.5 -93v-452l-9 -98q-2 -18 -22 -16q-58 6 -134 1q-17 -2 -17 13q0 13 15 17q26 7 36.5 42t10.5 113l1 334q0 83 67 141.5t175 58.5q106 0 170.5 -47.5t64.5 -121.5q0 -87 -85 -127 q87 -12 143.5 -70.5t55.5 -150.5t-66.5 -153.5t-164.5 -61.5q-25 0 -49.5 7t-36.5 13t-27.5 7.5t-22.5 -9.5q-7 -10 -19 -10h-2q-16 0 -16 16v224q0 16 11 16q10 0 13 -15q21 -113 51 -164t94 -51q51 0 80 56t27 124q-2 92 -56 145t-146 37q-3 0 -7.5 -1.5t-6.5 -1.5z" glyph-name="uni1E9E" horiz-adv-x="699" unicode="ẞ"/><glyph d="M295 687q5 13 19 13h23q14 0 19 -13l197 -508q33 -86 51 -115.5t45 -34.5q15 -3 15 -16q0 -16 -17 -16q-47 3 -99 3q-68 0 -130 -3q-16 -2 -16 15q0 16 15 17q34 4 38 31.5t-21 95.5l-24 61q-4 13 -18 13h-214q-14 0 -19 -13l-13 -38q-51 -137 9 -150q15 -3 15 -16 q0 -16 -17 -16q-45 3 -78 3q-19 0 -63 -2q-17 -2 -17 14v1q0 13 15 16q28 5 48 36t52 114zM183 279q-6 -18 13 -18h178q19 0 13 18l-94 247q-4 10 -10.5 10t-10.5 -10zM302 -176q-31 0 -48 17t-17 48q0 30 17 47t48 17q30 0 47 -17t17 -47q0 -31 -17 -48t-47 -17z" glyph-name="uni1EA0" horiz-adv-x="659" unicode="Ạ"/><glyph d="M176 -14q-66 0 -103.5 36.5t-37.5 91.5q0 154 292 218q16 3 14 18l-3 20q-17 113 -81 113q-84 0 -130 -134q-4 -13 -18 -13t-12 17l14 141q1 15 16 15h2q11 0 19 -11q6 -8 12 -9t15 3t20 9.5t33 10t48 4.5q81 0 128 -39.5t58 -111.5l40 -277q5 -34 10.5 -48t16.5 -16 q16 -3 16 -11q0 -13 -14 -16q-63 -12 -104.5 11t-48.5 78l-4 28q-1 7 -4 9.5t-7.5 -0.5t-7.5 -11q-25 -59 -72 -92.5t-107 -33.5zM156 134q0 -40 17.5 -62.5t50.5 -22.5q52 0 90.5 68.5t32.5 170.5q0 19 -31 9q-80 -25 -120 -68t-40 -95zM285 -202q-31 0 -48 17t-17 48 q0 30 17 47t48 17q30 0 47 -17t17 -47q0 -31 -17 -48t-47 -17z" glyph-name="uni1EA1" horiz-adv-x="560" unicode="ạ"/><glyph d="M295 687q5 13 19 13h23q14 0 19 -13l197 -508q33 -86 51 -115.5t45 -34.5q15 -3 15 -16q0 -16 -17 -16q-47 3 -99 3q-68 0 -130 -3q-16 -2 -16 15q0 16 15 17q34 4 38 31.5t-21 95.5l-24 61q-4 13 -18 13h-214q-14 0 -19 -13l-13 -38q-51 -137 9 -150q15 -3 15 -16 q0 -16 -17 -16q-45 3 -78 3q-19 0 -63 -2q-17 -2 -17 14v1q0 13 15 16q28 5 48 36t52 114zM183 279q-6 -18 13 -18h178q19 0 13 18l-94 247q-4 10 -10.5 10t-10.5 -10zM343 806q3 7 2.5 12.5t-3 8.5t-6.5 1q-8 -3 -17 -3q-21 0 -37.5 15.5t-16.5 38.5q0 26 18 43.5t46 17.5 q67 0 67 -77q0 -34 -20.5 -67t-45.5 -50q-12 -8 -20 2q-8 8 7 21q19 17 26 37z" glyph-name="uni1EA2" horiz-adv-x="659" unicode="Ả"/><glyph d="M176 -14q-66 0 -103.5 36.5t-37.5 91.5q0 154 292 218q16 3 14 18l-3 20q-17 113 -81 113q-84 0 -130 -134q-4 -13 -18 -13t-12 17l14 141q1 15 16 15h2q11 0 19 -11q6 -8 12 -9t15 3t20 9.5t33 10t48 4.5q81 0 128 -39.5t58 -111.5l40 -277q5 -34 10.5 -48t16.5 -16 q16 -3 16 -11q0 -13 -14 -16q-63 -12 -104.5 11t-48.5 78l-4 28q-1 7 -4 9.5t-7.5 -0.5t-7.5 -11q-25 -59 -72 -92.5t-107 -33.5zM156 134q0 -40 17.5 -62.5t50.5 -22.5q52 0 90.5 68.5t32.5 170.5q0 19 -31 9q-80 -25 -120 -68t-40 -95zM289 623q3 7 2.5 12.5t-3 8 t-6.5 1.5q-8 -3 -17 -3q-21 0 -37.5 15.5t-16.5 38.5q0 26 18 43.5t46 17.5q67 0 67 -77q0 -34 -20.5 -67t-45.5 -50q-12 -8 -20 2q-8 8 7 21q19 17 26 37z" glyph-name="uni1EA3" horiz-adv-x="560" unicode="ả"/><glyph d="M295 687q5 13 19 13h23q14 0 19 -13l197 -508q33 -86 51 -115.5t45 -34.5q15 -3 15 -16q0 -16 -17 -16q-47 3 -99 3q-68 0 -130 -3q-16 -2 -16 15q0 16 15 17q34 4 38 31.5t-21 95.5l-24 61q-4 13 -18 13h-214q-14 0 -19 -13l-13 -38q-51 -137 9 -150q15 -3 15 -16 q0 -16 -17 -16q-45 3 -78 3q-19 0 -63 -2q-17 -2 -17 14v1q0 13 15 16q28 5 48 36t52 114zM183 279q-6 -18 13 -18h178q19 0 13 18l-94 247q-4 10 -10.5 10t-10.5 -10zM190 744q-14 -7 -20 3q-6 9 5 19l142 125q11 11 22 0l142 -125q11 -10 5 -19q-6 -10 -20 -3l-127 61 q-11 5 -22 0zM358 1007q12 -12 -3 -22l-180 -131q-11 -10 -19 0q-7 7 2 20l145 166q12 14 23 0z" glyph-name="uni1EA4" horiz-adv-x="659" unicode="Ấ"/><glyph d="M176 -14q-66 0 -103.5 36.5t-37.5 91.5q0 154 292 218q16 3 14 18l-3 20q-17 113 -81 113q-84 0 -130 -134q-4 -13 -18 -13t-12 17l14 141q1 15 16 15h2q11 0 19 -11q6 -8 12 -9t15 3t20 9.5t33 10t48 4.5q81 0 128 -39.5t58 -111.5l40 -277q5 -34 10.5 -48t16.5 -16 q16 -3 16 -11q0 -13 -14 -16q-63 -12 -104.5 11t-48.5 78l-4 28q-1 7 -4 9.5t-7.5 -0.5t-7.5 -11q-25 -59 -72 -92.5t-107 -33.5zM156 134q0 -40 17.5 -62.5t50.5 -22.5q52 0 90.5 68.5t32.5 170.5q0 19 -31 9q-80 -25 -120 -68t-40 -95zM130 570q-14 -7 -20 3q-6 9 5 19 l142 125q11 11 22 0l142 -125q11 -10 5 -19q-6 -10 -20 -3l-127 61q-11 5 -22 0zM298 833q12 -12 -3 -22l-180 -131q-11 -10 -19 0q-7 7 2 20l145 166q12 14 23 0z" glyph-name="uni1EA5" horiz-adv-x="560" unicode="ấ"/><glyph d="M295 687q5 13 19 13h23q14 0 19 -13l197 -508q33 -86 51 -115.5t45 -34.5q15 -3 15 -16q0 -16 -17 -16q-47 3 -99 3q-68 0 -130 -3q-16 -2 -16 15q0 16 15 17q34 4 38 31.5t-21 95.5l-24 61q-4 13 -18 13h-214q-14 0 -19 -13l-13 -38q-51 -137 9 -150q15 -3 15 -16 q0 -16 -17 -16q-45 3 -78 3q-19 0 -63 -2q-17 -2 -17 14v1q0 13 15 16q28 5 48 36t52 114zM183 279q-6 -18 13 -18h178q19 0 13 18l-94 247q-4 10 -10.5 10t-10.5 -10zM189 739q-13 -7 -20 3q-6 9 5 19l142 125q11 11 22 0l142 -125q11 -10 5 -19q-7 -10 -20 -3l-127 61 q-11 5 -22 0zM335 950q-15 10 -4 22l30 37q12 14 23 1l157 -158q11 -11 3 -21q-7 -10 -22 -3z" glyph-name="uni1EA6" horiz-adv-x="659" unicode="Ầ"/><glyph d="M176 -14q-66 0 -103.5 36.5t-37.5 91.5q0 154 292 218q16 3 14 18l-3 20q-17 113 -81 113q-84 0 -130 -134q-4 -13 -18 -13t-12 17l14 141q1 15 16 15h2q11 0 19 -11q6 -8 12 -9t15 3t20 9.5t33 10t48 4.5q81 0 128 -39.5t58 -111.5l40 -277q5 -34 10.5 -48t16.5 -16 q16 -3 16 -11q0 -13 -14 -16q-63 -12 -104.5 11t-48.5 78l-4 28q-1 7 -4 9.5t-7.5 -0.5t-7.5 -11q-25 -59 -72 -92.5t-107 -33.5zM156 134q0 -40 17.5 -62.5t50.5 -22.5q52 0 90.5 68.5t32.5 170.5q0 19 -31 9q-80 -25 -120 -68t-40 -95zM127 567q-13 -7 -20 3q-6 9 5 19 l142 125q11 11 22 0l142 -125q11 -10 5 -19q-7 -10 -20 -3l-127 61q-11 5 -22 0zM273 778q-15 10 -4 22l30 37q12 14 23 1l157 -158q11 -11 3 -21q-7 -10 -22 -3z" glyph-name="uni1EA7" horiz-adv-x="560" unicode="ầ"/><glyph d="M295 687q5 13 19 13h23q14 0 19 -13l197 -508q33 -86 51 -115.5t45 -34.5q15 -3 15 -16q0 -16 -17 -16q-47 3 -99 3q-68 0 -130 -3q-16 -2 -16 15q0 16 15 17q34 4 38 31.5t-21 95.5l-24 61q-4 13 -18 13h-214q-14 0 -19 -13l-13 -38q-51 -137 9 -150q15 -3 15 -16 q0 -16 -17 -16q-45 3 -78 3q-19 0 -63 -2q-17 -2 -17 14v1q0 13 15 16q28 5 48 36t52 114zM183 279q-6 -18 13 -18h178q19 0 13 18l-94 247q-4 10 -10.5 10t-10.5 -10zM186 738q-14 -7 -20 3q-6 9 5 19l142 125q11 11 22 0l142 -125q11 -10 5 -19q-6 -10 -20 -3l-127 61 q-11 5 -22 0zM450 920q3 7 2.5 12.5t-3 8.5t-6.5 1q-7 -3 -17 -3q-21 0 -37.5 15.5t-16.5 38.5q0 26 18 43.5t46 17.5q67 0 67 -77q0 -34 -20.5 -67t-45.5 -50q-12 -8 -20 2q-8 8 7 21q19 17 26 37z" glyph-name="uni1EA8" horiz-adv-x="659" unicode="Ẩ"/><glyph d="M176 -14q-66 0 -103.5 36.5t-37.5 91.5q0 154 292 218q16 3 14 18l-3 20q-17 113 -81 113q-84 0 -130 -134q-4 -13 -18 -13t-12 17l14 141q1 15 16 15h2q11 0 19 -11q6 -8 12 -9t15 3t20 9.5t33 10t48 4.5q81 0 128 -39.5t58 -111.5l40 -277q5 -34 10.5 -48t16.5 -16 q16 -3 16 -11q0 -13 -14 -16q-63 -12 -104.5 11t-48.5 78l-4 28q-1 7 -4 9.5t-7.5 -0.5t-7.5 -11q-25 -59 -72 -92.5t-107 -33.5zM156 134q0 -40 17.5 -62.5t50.5 -22.5q52 0 90.5 68.5t32.5 170.5q0 19 -31 9q-80 -25 -120 -68t-40 -95zM129 567q-13 -7 -20 3q-6 9 5 19 l142 125q11 11 22 0l142 -125q11 -10 5 -19q-7 -10 -20 -3l-127 61q-11 5 -22 0zM393 749q3 7 2.5 12.5t-3.5 8.5t-6 1q-8 -3 -17 -3q-21 0 -37.5 15.5t-16.5 38.5q0 26 18 43.5t46 17.5q67 0 67 -77q0 -34 -20.5 -67t-45.5 -50q-12 -8 -20 2q-8 8 7 21q19 17 26 37z" glyph-name="uni1EA9" horiz-adv-x="560" unicode="ẩ"/><glyph d="M295 687q5 13 19 13h23q14 0 19 -13l197 -508q33 -86 51 -115.5t45 -34.5q15 -3 15 -16q0 -16 -17 -16q-47 3 -99 3q-68 0 -130 -3q-16 -2 -16 15q0 16 15 17q34 4 38 31.5t-21 95.5l-24 61q-4 13 -18 13h-214q-14 0 -19 -13l-13 -38q-51 -137 9 -150q15 -3 15 -16 q0 -16 -17 -16q-45 3 -78 3q-19 0 -63 -2q-17 -2 -17 14v1q0 13 15 16q28 5 48 36t52 114zM183 279q-6 -18 13 -18h178q19 0 13 18l-94 247q-4 10 -10.5 10t-10.5 -10zM189 738q-13 -7 -20 3q-6 9 5 19l142 125q11 11 22 0l142 -125q11 -10 5 -19q-7 -10 -20 -3l-127 61 q-11 5 -22 0zM242 909q-10 10 -1 21q20 32 47 52.5t54 20.5q30 0 73.5 -21t60.5 -21q23 0 45 26q12 15 19 6q7 -10 2 -21q-15 -31 -40 -52t-51 -21t-70.5 21t-63.5 21q-24 0 -55 -29q-14 -12 -20 -3z" glyph-name="uni1EAA" horiz-adv-x="659" unicode="Ẫ"/><glyph d="M176 -14q-66 0 -103.5 36.5t-37.5 91.5q0 154 292 218q16 3 14 18l-3 20q-17 113 -81 113q-84 0 -130 -134q-4 -13 -18 -13t-12 17l14 141q1 15 16 15h2q11 0 19 -11q6 -8 12 -9t15 3t20 9.5t33 10t48 4.5q81 0 128 -39.5t58 -111.5l40 -277q5 -34 10.5 -48t16.5 -16 q16 -3 16 -11q0 -13 -14 -16q-63 -12 -104.5 11t-48.5 78l-4 28q-1 7 -4 9.5t-7.5 -0.5t-7.5 -11q-25 -59 -72 -92.5t-107 -33.5zM156 134q0 -40 17.5 -62.5t50.5 -22.5q52 0 90.5 68.5t32.5 170.5q0 19 -31 9q-80 -25 -120 -68t-40 -95zM128 566q-14 -7 -20 3q-6 9 5 19 l142 125q11 11 22 0l142 -125q11 -10 5 -19q-6 -10 -20 -3l-127 61q-11 5 -22 0zM181 737q-10 10 -1 21q20 32 47 52.5t54 20.5q30 0 73.5 -21t60.5 -21q23 0 45 26q12 15 19 6q7 -10 2 -21q-15 -31 -40 -52t-51 -21t-70.5 21t-63.5 21q-24 0 -55 -29q-14 -12 -20 -3z" glyph-name="uni1EAB" horiz-adv-x="560" unicode="ẫ"/><glyph d="M295 687q5 13 19 13h23q14 0 19 -13l197 -508q33 -86 51 -115.5t45 -34.5q15 -3 15 -16q0 -16 -17 -16q-47 3 -99 3q-68 0 -130 -3q-16 -2 -16 15q0 16 15 17q34 4 38 31.5t-21 95.5l-24 61q-4 13 -18 13h-214q-14 0 -19 -13l-13 -38q-51 -137 9 -150q15 -3 15 -16 q0 -16 -17 -16q-45 3 -78 3q-19 0 -63 -2q-17 -2 -17 14v1q0 13 15 16q28 5 48 36t52 114zM183 279q-6 -18 13 -18h178q19 0 13 18l-94 247q-4 10 -10.5 10t-10.5 -10zM301 -204q-31 0 -48 17t-17 48q0 30 17 47t48 17q30 0 47 -17t17 -47q0 -31 -17 -48t-47 -17zM186 739 q-14 -7 -20 3q-6 9 5 19l142 125q11 11 22 0l142 -125q11 -10 5 -19q-6 -10 -20 -3l-127 61q-11 5 -22 0z" glyph-name="uni1EAC" horiz-adv-x="659" unicode="Ậ"/><glyph d="M176 -14q-66 0 -103.5 36.5t-37.5 91.5q0 154 292 218q16 3 14 18l-3 20q-17 113 -81 113q-84 0 -130 -134q-4 -13 -18 -13t-12 17l14 141q1 15 16 15h2q11 0 19 -11q6 -8 12 -9t15 3t20 9.5t33 10t48 4.5q81 0 128 -39.5t58 -111.5l40 -277q5 -34 10.5 -48t16.5 -16 q16 -3 16 -11q0 -13 -14 -16q-63 -12 -104.5 11t-48.5 78l-4 28q-1 7 -4 9.5t-7.5 -0.5t-7.5 -11q-25 -59 -72 -92.5t-107 -33.5zM156 134q0 -40 17.5 -62.5t50.5 -22.5q52 0 90.5 68.5t32.5 170.5q0 19 -31 9q-80 -25 -120 -68t-40 -95zM279 -202q-31 0 -48 17t-17 48 q0 30 17 47t48 17q30 0 47 -17t17 -47q0 -31 -17 -48t-47 -17zM130 567q-14 -7 -20 3q-6 9 5 19l142 125q11 11 22 0l142 -125q11 -10 5 -19q-6 -10 -20 -3l-127 61q-11 5 -22 0z" glyph-name="uni1EAD" horiz-adv-x="560" unicode="ậ"/><glyph d="M295 687q5 13 19 13h23q14 0 19 -13l197 -508q33 -86 51 -115.5t45 -34.5q15 -3 15 -16q0 -16 -17 -16q-47 3 -99 3q-68 0 -130 -3q-16 -2 -16 15q0 16 15 17q34 4 38 31.5t-21 95.5l-24 61q-4 13 -18 13h-214q-14 0 -19 -13l-13 -38q-51 -137 9 -150q15 -3 15 -16 q0 -16 -17 -16q-45 3 -78 3q-19 0 -63 -2q-17 -2 -17 14v1q0 13 15 16q28 5 48 36t52 114zM183 279q-6 -18 13 -18h178q19 0 13 18l-94 247q-4 10 -10.5 10t-10.5 -10zM335 753q46 0 85 29t57 79q7 18 -8 18h-2q-12 0 -19 -10q-41 -55 -113 -55t-113 55q-7 10 -19 10 q-7 0 -10 -5.5t0 -15.5q17 -48 56.5 -76.5t85.5 -28.5zM520 973q8 -15 -8 -21l-206 -83q-14 -6 -19 4q-6 9 7 19l181 126q14 11 22 -5z" glyph-name="uni1EAE" horiz-adv-x="659" unicode="Ắ"/><glyph d="M176 -14q-66 0 -103.5 36.5t-37.5 91.5q0 154 292 218q16 3 14 18l-3 20q-17 113 -81 113q-84 0 -130 -134q-4 -13 -18 -13t-12 17l14 141q1 15 16 15h2q11 0 19 -11q6 -8 12 -9t15 3t20 9.5t33 10t48 4.5q81 0 128 -39.5t58 -111.5l40 -277q5 -34 10.5 -48t16.5 -16 q16 -3 16 -11q0 -13 -14 -16q-63 -12 -104.5 11t-48.5 78l-4 28q-1 7 -4 9.5t-7.5 -0.5t-7.5 -11q-25 -59 -72 -92.5t-107 -33.5zM156 134q0 -40 17.5 -62.5t50.5 -22.5q52 0 90.5 68.5t32.5 170.5q0 19 -31 9q-80 -25 -120 -68t-40 -95zM275 562q46 0 85 29t57 79 q7 18 -8 18h-2q-12 0 -19 -10q-41 -55 -113 -55t-113 55q-7 10 -19 10q-7 0 -10 -5.5t0 -15.5q17 -48 56.5 -76.5t85.5 -28.5zM460 782q8 -15 -8 -21l-206 -83q-14 -6 -19 4q-6 9 7 19l181 126q14 11 22 -5z" glyph-name="uni1EAF" horiz-adv-x="560" unicode="ắ"/><glyph d="M295 687q5 13 19 13h23q14 0 19 -13l197 -508q33 -86 51 -115.5t45 -34.5q15 -3 15 -16q0 -16 -17 -16q-47 3 -99 3q-68 0 -130 -3q-16 -2 -16 15q0 16 15 17q34 4 38 31.5t-21 95.5l-24 61q-4 13 -18 13h-214q-14 0 -19 -13l-13 -38q-51 -137 9 -150q15 -3 15 -16 q0 -16 -17 -16q-45 3 -78 3q-19 0 -63 -2q-17 -2 -17 14v1q0 13 15 16q28 5 48 36t52 114zM183 279q-6 -18 13 -18h178q19 0 13 18l-94 247q-4 10 -10.5 10t-10.5 -10zM336 753q46 0 85 29t57 79q7 18 -8 18h-2q-12 0 -19 -10q-41 -55 -113 -55t-113 55q-7 10 -19 10 q-7 0 -10 -5.5t0 -15.5q17 -48 56.5 -76.5t85.5 -28.5zM173 949q-16 5 -10 20l17 44q6 16 21 8l199 -102q13 -7 9 -19q-5 -12 -20 -9z" glyph-name="uni1EB0" horiz-adv-x="659" unicode="Ằ"/><glyph d="M176 -14q-66 0 -103.5 36.5t-37.5 91.5q0 154 292 218q16 3 14 18l-3 20q-17 113 -81 113q-84 0 -130 -134q-4 -13 -18 -13t-12 17l14 141q1 15 16 15h2q11 0 19 -11q6 -8 12 -9t15 3t20 9.5t33 10t48 4.5q81 0 128 -39.5t58 -111.5l40 -277q5 -34 10.5 -48t16.5 -16 q16 -3 16 -11q0 -13 -14 -16q-63 -12 -104.5 11t-48.5 78l-4 28q-1 7 -4 9.5t-7.5 -0.5t-7.5 -11q-25 -59 -72 -92.5t-107 -33.5zM156 134q0 -40 17.5 -62.5t50.5 -22.5q52 0 90.5 68.5t32.5 170.5q0 19 -31 9q-80 -25 -120 -68t-40 -95zM275 568q46 0 85 29t57 79 q7 18 -8 18h-2q-12 0 -19 -10q-41 -55 -113 -55t-113 55q-7 10 -19 10q-7 0 -10 -5.5t0 -15.5q17 -48 56.5 -76.5t85.5 -28.5zM112 764q-16 5 -10 20l17 44q6 16 21 8l199 -102q13 -7 9 -19q-5 -12 -20 -9z" glyph-name="uni1EB1" horiz-adv-x="560" unicode="ằ"/><glyph d="M295 687q5 13 19 13h23q14 0 19 -13l197 -508q33 -86 51 -115.5t45 -34.5q15 -3 15 -16q0 -16 -17 -16q-47 3 -99 3q-68 0 -130 -3q-16 -2 -16 15q0 16 15 17q34 4 38 31.5t-21 95.5l-24 61q-4 13 -18 13h-214q-14 0 -19 -13l-13 -38q-51 -137 9 -150q15 -3 15 -16 q0 -16 -17 -16q-45 3 -78 3q-19 0 -63 -2q-17 -2 -17 14v1q0 13 15 16q28 5 48 36t52 114zM183 279q-6 -18 13 -18h178q19 0 13 18l-94 247q-4 10 -10.5 10t-10.5 -10zM326 752q46 0 85 29t57 79q7 18 -8 18h-2q-12 0 -19 -10q-41 -55 -113 -55t-113 55q-7 10 -19 10 q-7 0 -10 -5.5t0 -15.5q17 -48 56.5 -76.5t85.5 -28.5zM348 926q3 7 2.5 12.5t-3.5 8.5t-6 1q-8 -3 -17 -3q-21 0 -37.5 15.5t-16.5 38.5q0 26 18 43.5t46 17.5q67 0 67 -77q0 -34 -20.5 -67t-45.5 -50q-12 -8 -20 2q-8 8 7 21q19 17 26 37z" glyph-name="uni1EB2" horiz-adv-x="659" unicode="Ẳ"/><glyph d="M176 -14q-66 0 -103.5 36.5t-37.5 91.5q0 154 292 218q16 3 14 18l-3 20q-17 113 -81 113q-84 0 -130 -134q-4 -13 -18 -13t-12 17l14 141q1 15 16 15h2q11 0 19 -11q6 -8 12 -9t15 3t20 9.5t33 10t48 4.5q81 0 128 -39.5t58 -111.5l40 -277q5 -34 10.5 -48t16.5 -16 q16 -3 16 -11q0 -13 -14 -16q-63 -12 -104.5 11t-48.5 78l-4 28q-1 7 -4 9.5t-7.5 -0.5t-7.5 -11q-25 -59 -72 -92.5t-107 -33.5zM156 134q0 -40 17.5 -62.5t50.5 -22.5q52 0 90.5 68.5t32.5 170.5q0 19 -31 9q-80 -25 -120 -68t-40 -95zM276 568q46 0 85 29t57 79 q7 18 -8 18h-2q-12 0 -19 -10q-41 -55 -113 -55t-113 55q-7 10 -19 10q-7 0 -10 -5.5t0 -15.5q17 -48 56.5 -76.5t85.5 -28.5zM298 742q3 7 2.5 12.5t-3.5 8.5t-6 1q-8 -3 -17 -3q-21 0 -37.5 15.5t-16.5 38.5q0 26 18 43.5t46 17.5q67 0 67 -77q0 -34 -20.5 -67t-45.5 -50 q-12 -8 -20 2q-8 8 7 21q19 17 26 37z" glyph-name="uni1EB3" horiz-adv-x="560" unicode="ẳ"/><glyph d="M295 687q5 13 19 13h23q14 0 19 -13l197 -508q33 -86 51 -115.5t45 -34.5q15 -3 15 -16q0 -16 -17 -16q-47 3 -99 3q-68 0 -130 -3q-16 -2 -16 15q0 16 15 17q34 4 38 31.5t-21 95.5l-24 61q-4 13 -18 13h-214q-14 0 -19 -13l-13 -38q-51 -137 9 -150q15 -3 15 -16 q0 -16 -17 -16q-45 3 -78 3q-19 0 -63 -2q-17 -2 -17 14v1q0 13 15 16q28 5 48 36t52 114zM183 279q-6 -18 13 -18h178q19 0 13 18l-94 247q-4 10 -10.5 10t-10.5 -10zM328 750q46 0 85 29t57 79q7 18 -8 18h-2q-12 0 -19 -10q-41 -55 -113 -55t-113 55q-7 10 -19 10 q-7 0 -10 -5.5t0 -15.5q17 -48 56.5 -76.5t85.5 -28.5zM247 909q-8 10 -1 21q19 31 45.5 52t51.5 21q29 0 71 -21t58 -21q23 0 43 26q12 15 18 6q7 -10 2 -21q-14 -31 -38 -52t-49 -21t-67.5 21t-60.5 21q-23 0 -54 -29q-13 -13 -19 -3z" glyph-name="uni1EB4" horiz-adv-x="659" unicode="Ẵ"/><glyph d="M176 -14q-66 0 -103.5 36.5t-37.5 91.5q0 154 292 218q16 3 14 18l-3 20q-17 113 -81 113q-84 0 -130 -134q-4 -13 -18 -13t-12 17l14 141q1 15 16 15h2q11 0 19 -11q6 -8 12 -9t15 3t20 9.5t33 10t48 4.5q81 0 128 -39.5t58 -111.5l40 -277q5 -34 10.5 -48t16.5 -16 q16 -3 16 -11q0 -13 -14 -16q-63 -12 -104.5 11t-48.5 78l-4 28q-1 7 -4 9.5t-7.5 -0.5t-7.5 -11q-25 -59 -72 -92.5t-107 -33.5zM156 134q0 -40 17.5 -62.5t50.5 -22.5q52 0 90.5 68.5t32.5 170.5q0 19 -31 9q-80 -25 -120 -68t-40 -95zM277 567q46 0 85 29t57 79 q7 18 -8 18h-2q-12 0 -19 -10q-41 -55 -113 -55t-113 55q-7 10 -19 10q-7 0 -10 -5.5t0 -15.5q17 -48 56.5 -76.5t85.5 -28.5zM196 726q-8 10 -1 21q19 31 45.5 52t51.5 21q29 0 71 -21t58 -21q23 0 43 26q12 15 18 6q7 -10 2 -21q-14 -31 -38 -52t-49 -21t-67.5 21 t-60.5 21q-23 0 -54 -29q-13 -13 -19 -3z" glyph-name="uni1EB5" horiz-adv-x="560" unicode="ẵ"/><glyph d="M295 687q5 13 19 13h23q14 0 19 -13l197 -508q33 -86 51 -115.5t45 -34.5q15 -3 15 -16q0 -16 -17 -16q-47 3 -99 3q-68 0 -130 -3q-16 -2 -16 15q0 16 15 17q34 4 38 31.5t-21 95.5l-24 61q-4 13 -18 13h-214q-14 0 -19 -13l-13 -38q-51 -137 9 -150q15 -3 15 -16 q0 -16 -17 -16q-45 3 -78 3q-19 0 -63 -2q-17 -2 -17 14v1q0 13 15 16q28 5 48 36t52 114zM183 279q-6 -18 13 -18h178q19 0 13 18l-94 247q-4 10 -10.5 10t-10.5 -10zM318 -204q-31 0 -48 17t-17 48q0 30 17 47t48 17q30 0 47 -17t17 -47q0 -31 -17 -48t-47 -17zM317 750 q46 0 85 29t57 79q7 18 -8 18h-2q-12 0 -19 -10q-41 -55 -113 -55t-113 55q-7 10 -19 10q-7 0 -10 -5.5t0 -15.5q17 -48 56.5 -76.5t85.5 -28.5z" glyph-name="uni1EB6" horiz-adv-x="659" unicode="Ặ"/><glyph d="M176 -14q-66 0 -103.5 36.5t-37.5 91.5q0 154 292 218q16 3 14 18l-3 20q-17 113 -81 113q-84 0 -130 -134q-4 -13 -18 -13t-12 17l14 141q1 15 16 15h2q11 0 19 -11q6 -8 12 -9t15 3t20 9.5t33 10t48 4.5q81 0 128 -39.5t58 -111.5l40 -277q5 -34 10.5 -48t16.5 -16 q16 -3 16 -11q0 -13 -14 -16q-63 -12 -104.5 11t-48.5 78l-4 28q-1 7 -4 9.5t-7.5 -0.5t-7.5 -11q-25 -59 -72 -92.5t-107 -33.5zM156 134q0 -40 17.5 -62.5t50.5 -22.5q52 0 90.5 68.5t32.5 170.5q0 19 -31 9q-80 -25 -120 -68t-40 -95zM274 -200q-31 0 -48 17t-17 48 q0 30 17 47t48 17q30 0 47 -17t17 -47q0 -31 -17 -48t-47 -17zM268 563q46 0 85 29t57 79q7 18 -8 18h-2q-12 0 -19 -10q-41 -55 -113 -55t-113 55q-7 10 -19 10q-7 0 -10 -5.5t0 -15.5q17 -48 56.5 -76.5t85.5 -28.5z" glyph-name="uni1EB7" horiz-adv-x="560" unicode="ặ"/><glyph d="M419 700q47 0 67 9q12 5 20 5q14 0 15 -15l24 -238q2 -17 -10 -17q-13 0 -15 15q-18 112 -57.5 162t-136.5 50h-97q-16 0 -16 -16v-254q0 -16 16 -16h43q93 0 83 98q-2 17 11 17q12 0 15 -14l44 -236q3 -17 -9 -17q-13 0 -17 14q-17 56 -46.5 81t-80.5 25h-43 q-16 0 -16 -16v-290q0 -16 16 -16h127q50 0 82 12.5t49 42t24 63t12 91.5q1 16 14 16q12 0 12 -16v-232q0 -17 -18 -14q-11 2 -82 6h-403q-16 0 -16 16v1q0 13 15 16q26 6 36.5 39t10.5 111v334q0 78 -10.5 111t-36.5 39q-15 3 -15 16v1q0 16 16 16h373zM323 -198 q-31 0 -48 17t-17 48q0 30 17 47t48 17q30 0 47 -17t17 -47q0 -31 -17 -48t-47 -17z" glyph-name="uni1EB8" horiz-adv-x="599" unicode="Ẹ"/><glyph d="M289 -15q-114 0 -184 75.5t-70 194.5q0 115 66 187.5t182 72.5q89 0 142.5 -44.5t53.5 -105.5q0 -40 -76 -60q-22 -6 -97 -25.5t-128 -33.5q-14 -5 -13 -19q7 -85 50 -137t108 -52q81 0 137 70q10 13 21 7q11 -7 4 -20q-30 -52 -81.5 -81t-114.5 -29zM165 298 q-1 -8 4 -12t14 -2q57 13 94 25q58 17 74.5 32t15.5 58q-1 39 -24 63.5t-54 24.5q-55 0 -86 -53.5t-38 -135.5zM286 -202q-31 0 -48 17t-17 48q0 30 17 47t48 17q30 0 47 -17t17 -47q0 -31 -17 -48t-47 -17z" glyph-name="uni1EB9" horiz-adv-x="517" unicode="ẹ"/><glyph d="M419 700q47 0 67 9q12 5 20 5q14 0 15 -15l24 -238q2 -17 -10 -17q-13 0 -15 15q-18 112 -57.5 162t-136.5 50h-97q-16 0 -16 -16v-254q0 -16 16 -16h43q93 0 83 98q-2 17 11 17q12 0 15 -14l44 -236q3 -17 -9 -17q-13 0 -17 14q-17 56 -46.5 81t-80.5 25h-43 q-16 0 -16 -16v-290q0 -16 16 -16h127q50 0 82 12.5t49 42t24 63t12 91.5q1 16 14 16q12 0 12 -16v-232q0 -17 -18 -14q-11 2 -82 6h-403q-16 0 -16 16v1q0 13 15 16q26 6 36.5 39t10.5 111v334q0 78 -10.5 111t-36.5 39q-15 3 -15 16v1q0 16 16 16h373zM334 810 q3 7 2.5 12.5t-3.5 8.5t-6 1q-8 -3 -17 -3q-21 0 -37.5 15.5t-16.5 38.5q0 26 18 43.5t46 17.5q67 0 67 -77q0 -34 -20.5 -67t-45.5 -50q-12 -8 -20 2q-8 8 7 21q19 17 26 37z" glyph-name="uni1EBA" horiz-adv-x="599" unicode="Ẻ"/><glyph d="M289 -15q-114 0 -184 75.5t-70 194.5q0 115 66 187.5t182 72.5q89 0 142.5 -44.5t53.5 -105.5q0 -40 -76 -60q-22 -6 -97 -25.5t-128 -33.5q-14 -5 -13 -19q7 -85 50 -137t108 -52q81 0 137 70q10 13 21 7q11 -7 4 -20q-30 -52 -81.5 -81t-114.5 -29zM165 298 q-1 -8 4 -12t14 -2q57 13 94 25q58 17 74.5 32t15.5 58q-1 39 -24 63.5t-54 24.5q-55 0 -86 -53.5t-38 -135.5zM301 623q3 7 2.5 12.5t-3 8t-6.5 1.5q-7 -3 -17 -3q-21 0 -37.5 15.5t-16.5 38.5q0 26 18 43.5t46 17.5q67 0 67 -77q0 -34 -20.5 -67t-45.5 -50q-12 -8 -20 2 q-8 8 7 21q19 17 26 37z" glyph-name="uni1EBB" horiz-adv-x="517" unicode="ẻ"/><glyph d="M419 700q47 0 67 9q12 5 20 5q14 0 15 -15l24 -238q2 -17 -10 -17q-13 0 -15 15q-18 112 -57.5 162t-136.5 50h-97q-16 0 -16 -16v-254q0 -16 16 -16h43q93 0 83 98q-2 17 11 17q12 0 15 -14l44 -236q3 -17 -9 -17q-13 0 -17 14q-17 56 -46.5 81t-80.5 25h-43 q-16 0 -16 -16v-290q0 -16 16 -16h127q50 0 82 12.5t49 42t24 63t12 91.5q1 16 14 16q12 0 12 -16v-232q0 -17 -18 -14q-11 2 -82 6h-403q-16 0 -16 16v1q0 13 15 16q26 6 36.5 39t10.5 111v334q0 78 -10.5 111t-36.5 39q-15 3 -15 16v1q0 16 16 16h373zM173 764 q-8 10 -1 21q19 32 45 52.5t51 20.5q29 0 70.5 -21t57.5 -21q22 0 42 26q12 15 18 6q7 -10 2 -21q-14 -31 -37.5 -52t-48.5 -21t-67 21t-60 21q-24 0 -53 -29q-13 -13 -19 -3z" glyph-name="uni1EBC" horiz-adv-x="599" unicode="Ẽ"/><glyph d="M289 -15q-114 0 -184 75.5t-70 194.5q0 115 66 187.5t182 72.5q89 0 142.5 -44.5t53.5 -105.5q0 -40 -76 -60q-22 -6 -97 -25.5t-128 -33.5q-14 -5 -13 -19q7 -85 50 -137t108 -52q81 0 137 70q10 13 21 7q11 -7 4 -20q-30 -52 -81.5 -81t-114.5 -29zM165 298 q-1 -8 4 -12t14 -2q57 13 94 25q58 17 74.5 32t15.5 58q-1 39 -24 63.5t-54 24.5q-55 0 -86 -53.5t-38 -135.5zM143 576q-8 10 -1 21q19 32 45 52.5t51 20.5q29 0 70.5 -21t57.5 -21q22 0 42 26q12 15 18 6q7 -10 2 -21q-14 -31 -37.5 -52t-48.5 -21t-67 21t-60 21 q-24 0 -53 -29q-13 -13 -19 -3z" glyph-name="uni1EBD" horiz-adv-x="517" unicode="ẽ"/><glyph d="M419 700q47 0 67 9q12 5 20 5q14 0 15 -15l24 -238q2 -17 -10 -17q-13 0 -15 15q-18 112 -57.5 162t-136.5 50h-97q-16 0 -16 -16v-254q0 -16 16 -16h43q93 0 83 98q-2 17 11 17q12 0 15 -14l44 -236q3 -17 -9 -17q-13 0 -17 14q-17 56 -46.5 81t-80.5 25h-43 q-16 0 -16 -16v-290q0 -16 16 -16h127q50 0 82 12.5t49 42t24 63t12 91.5q1 16 14 16q12 0 12 -16v-232q0 -17 -18 -14q-11 2 -82 6h-403q-16 0 -16 16v1q0 13 15 16q26 6 36.5 39t10.5 111v334q0 78 -10.5 111t-36.5 39q-15 3 -15 16v1q0 16 16 16h373zM166 763 q-14 -7 -20 3q-6 9 5 19l142 125q11 11 22 0l142 -125q11 -10 5 -19q-6 -10 -20 -3l-127 61q-11 5 -22 0zM334 1026q12 -12 -3 -22l-180 -131q-11 -10 -19 0q-7 7 2 20l145 166q12 14 23 0z" glyph-name="uni1EBE" horiz-adv-x="599" unicode="Ế"/><glyph d="M289 -15q-114 0 -184 75.5t-70 194.5q0 115 66 187.5t182 72.5q89 0 142.5 -44.5t53.5 -105.5q0 -40 -76 -60q-22 -6 -97 -25.5t-128 -33.5q-14 -5 -13 -19q7 -85 50 -137t108 -52q81 0 137 70q10 13 21 7q11 -7 4 -20q-30 -52 -81.5 -81t-114.5 -29zM165 298 q-1 -8 4 -12t14 -2q57 13 94 25q58 17 74.5 32t15.5 58q-1 39 -24 63.5t-54 24.5q-55 0 -86 -53.5t-38 -135.5zM138 559q-14 -7 -20 3q-6 9 5 19l142 125q11 11 22 0l142 -125q11 -10 5 -19q-6 -10 -20 -3l-127 61q-11 5 -22 0zM306 822q12 -12 -3 -22l-180 -131 q-11 -10 -19 0q-7 7 2 20l145 166q12 14 23 0z" glyph-name="uni1EBF" horiz-adv-x="517" unicode="ế"/><glyph d="M419 700q47 0 67 9q12 5 20 5q14 0 15 -15l24 -238q2 -17 -10 -17q-13 0 -15 15q-18 112 -57.5 162t-136.5 50h-97q-16 0 -16 -16v-254q0 -16 16 -16h43q93 0 83 98q-2 17 11 17q12 0 15 -14l44 -236q3 -17 -9 -17q-13 0 -17 14q-17 56 -46.5 81t-80.5 25h-43 q-16 0 -16 -16v-290q0 -16 16 -16h127q50 0 82 12.5t49 42t24 63t12 91.5q1 16 14 16q12 0 12 -16v-232q0 -17 -18 -14q-11 2 -82 6h-403q-16 0 -16 16v1q0 13 15 16q26 6 36.5 39t10.5 111v334q0 78 -10.5 111t-36.5 39q-15 3 -15 16v1q0 16 16 16h373zM163 761 q-13 -7 -20 3q-6 9 5 19l142 125q11 11 22 0l142 -125q11 -10 5 -19q-7 -10 -20 -3l-127 61q-11 5 -22 0zM309 972q-15 10 -4 22l30 37q12 14 23 1l157 -158q11 -11 3 -21q-7 -10 -22 -3z" glyph-name="uni1EC0" horiz-adv-x="599" unicode="Ề"/><glyph d="M289 -15q-114 0 -184 75.5t-70 194.5q0 115 66 187.5t182 72.5q89 0 142.5 -44.5t53.5 -105.5q0 -40 -76 -60q-22 -6 -97 -25.5t-128 -33.5q-14 -5 -13 -19q7 -85 50 -137t108 -52q81 0 137 70q10 13 21 7q11 -7 4 -20q-30 -52 -81.5 -81t-114.5 -29zM165 298 q-1 -8 4 -12t14 -2q57 13 94 25q58 17 74.5 32t15.5 58q-1 39 -24 63.5t-54 24.5q-55 0 -86 -53.5t-38 -135.5zM142 563q-14 -7 -20 3q-6 9 5 19l142 125q11 11 22 0l142 -125q11 -10 5 -19q-6 -10 -20 -3l-127 61q-11 5 -22 0zM288 774q-15 10 -4 22l30 37q12 14 23 1 l157 -158q11 -11 3 -21q-7 -10 -22 -3z" glyph-name="uni1EC1" horiz-adv-x="517" unicode="ề"/><glyph d="M419 700q47 0 67 9q12 5 20 5q14 0 15 -15l24 -238q2 -17 -10 -17q-13 0 -15 15q-18 112 -57.5 162t-136.5 50h-97q-16 0 -16 -16v-254q0 -16 16 -16h43q93 0 83 98q-2 17 11 17q12 0 15 -14l44 -236q3 -17 -9 -17q-13 0 -17 14q-17 56 -46.5 81t-80.5 25h-43 q-16 0 -16 -16v-290q0 -16 16 -16h127q50 0 82 12.5t49 42t24 63t12 91.5q1 16 14 16q12 0 12 -16v-232q0 -17 -18 -14q-11 2 -82 6h-403q-16 0 -16 16v1q0 13 15 16q26 6 36.5 39t10.5 111v334q0 78 -10.5 111t-36.5 39q-15 3 -15 16v1q0 16 16 16h373zM162 759 q-14 -7 -20 3q-6 9 5 19l142 125q11 11 22 0l142 -125q11 -10 5 -19q-6 -10 -20 -3l-127 61q-11 5 -22 0zM426 941q3 7 2.5 12.5t-3.5 8t-6 1.5q-7 -3 -17 -3q-21 0 -37.5 15.5t-16.5 38.5q0 26 18 43.5t46 17.5q67 0 67 -77q0 -34 -20.5 -67t-45.5 -50q-12 -8 -20 2 q-8 8 7 21q19 17 26 37z" glyph-name="uni1EC2" horiz-adv-x="599" unicode="Ể"/><glyph d="M289 -15q-114 0 -184 75.5t-70 194.5q0 115 66 187.5t182 72.5q89 0 142.5 -44.5t53.5 -105.5q0 -40 -76 -60q-22 -6 -97 -25.5t-128 -33.5q-14 -5 -13 -19q7 -85 50 -137t108 -52q81 0 137 70q10 13 21 7q11 -7 4 -20q-30 -52 -81.5 -81t-114.5 -29zM165 298 q-1 -8 4 -12t14 -2q57 13 94 25q58 17 74.5 32t15.5 58q-1 39 -24 63.5t-54 24.5q-55 0 -86 -53.5t-38 -135.5zM142 560q-14 -7 -20 3q-6 9 5 19l142 125q11 11 22 0l142 -125q11 -10 5 -19q-6 -10 -20 -3l-127 61q-11 5 -22 0zM406 742q3 7 2.5 12.5t-3.5 8.5t-6 1 q-7 -3 -17 -3q-21 0 -37.5 15.5t-16.5 38.5q0 26 18 43.5t46 17.5q67 0 67 -77q0 -34 -20.5 -67t-45.5 -50q-12 -8 -20 2q-8 8 7 21q19 17 26 37z" glyph-name="uni1EC3" horiz-adv-x="517" unicode="ể"/><glyph d="M419 700q47 0 67 9q12 5 20 5q14 0 15 -15l24 -238q2 -17 -10 -17q-13 0 -15 15q-18 112 -57.5 162t-136.5 50h-97q-16 0 -16 -16v-254q0 -16 16 -16h43q93 0 83 98q-2 17 11 17q12 0 15 -14l44 -236q3 -17 -9 -17q-13 0 -17 14q-17 56 -46.5 81t-80.5 25h-43 q-16 0 -16 -16v-290q0 -16 16 -16h127q50 0 82 12.5t49 42t24 63t12 91.5q1 16 14 16q12 0 12 -16v-232q0 -17 -18 -14q-11 2 -82 6h-403q-16 0 -16 16v1q0 13 15 16q26 6 36.5 39t10.5 111v334q0 78 -10.5 111t-36.5 39q-15 3 -15 16v1q0 16 16 16h373zM166 761 q-14 -7 -20 3q-6 9 5 19l142 125q11 11 22 0l142 -125q11 -10 5 -19q-6 -10 -20 -3l-127 61q-11 5 -22 0zM219 932q-10 10 -1 21q20 32 47 52.5t54 20.5q30 0 73.5 -21t60.5 -21q23 0 45 26q12 15 19 6q7 -10 2 -21q-15 -31 -40 -52t-51 -21t-70.5 21t-63.5 21 q-24 0 -55 -29q-14 -12 -20 -3z" glyph-name="uni1EC4" horiz-adv-x="599" unicode="Ễ"/><glyph d="M289 -15q-114 0 -184 75.5t-70 194.5q0 115 66 187.5t182 72.5q89 0 142.5 -44.5t53.5 -105.5q0 -40 -76 -60q-22 -6 -97 -25.5t-128 -33.5q-14 -5 -13 -19q7 -85 50 -137t108 -52q81 0 137 70q10 13 21 7q11 -7 4 -20q-30 -52 -81.5 -81t-114.5 -29zM165 298 q-1 -8 4 -12t14 -2q57 13 94 25q58 17 74.5 32t15.5 58q-1 39 -24 63.5t-54 24.5q-55 0 -86 -53.5t-38 -135.5zM145 555q-13 -7 -20 3q-6 9 5 19l142 125q11 11 22 0l142 -125q11 -10 5 -19q-7 -10 -20 -3l-127 61q-11 5 -22 0zM198 726q-10 10 -1 21q20 32 47 52.5t54 20.5 q30 0 73.5 -21t60.5 -21q23 0 45 26q12 15 19 6q7 -10 2 -21q-15 -31 -40 -52t-51 -21t-70.5 21t-63.5 21q-24 0 -55 -29q-14 -12 -20 -3z" glyph-name="uni1EC5" horiz-adv-x="517" unicode="ễ"/><glyph d="M419 700q47 0 67 9q12 5 20 5q14 0 15 -15l24 -238q2 -17 -10 -17q-13 0 -15 15q-18 112 -57.5 162t-136.5 50h-97q-16 0 -16 -16v-254q0 -16 16 -16h43q93 0 83 98q-2 17 11 17q12 0 15 -14l44 -236q3 -17 -9 -17q-13 0 -17 14q-17 56 -46.5 81t-80.5 25h-43 q-16 0 -16 -16v-290q0 -16 16 -16h127q50 0 82 12.5t49 42t24 63t12 91.5q1 16 14 16q12 0 12 -16v-232q0 -17 -18 -14q-11 2 -82 6h-403q-16 0 -16 16v1q0 13 15 16q26 6 36.5 39t10.5 111v334q0 78 -10.5 111t-36.5 39q-15 3 -15 16v1q0 16 16 16h373zM308 -199 q-31 0 -48 17t-17 48q0 30 17 47t48 17q30 0 47 -17t17 -47q0 -31 -17 -48t-47 -17zM166 761q-14 -7 -20 3q-6 9 5 19l142 125q11 11 22 0l142 -125q11 -10 5 -19q-6 -10 -20 -3l-127 61q-11 5 -22 0z" glyph-name="uni1EC6" horiz-adv-x="599" unicode="Ệ"/><glyph d="M289 -15q-114 0 -184 75.5t-70 194.5q0 115 66 187.5t182 72.5q89 0 142.5 -44.5t53.5 -105.5q0 -40 -76 -60q-22 -6 -97 -25.5t-128 -33.5q-14 -5 -13 -19q7 -85 50 -137t108 -52q81 0 137 70q10 13 21 7q11 -7 4 -20q-30 -52 -81.5 -81t-114.5 -29zM165 298 q-1 -8 4 -12t14 -2q57 13 94 25q58 17 74.5 32t15.5 58q-1 39 -24 63.5t-54 24.5q-55 0 -86 -53.5t-38 -135.5zM291 -206q-31 0 -48 17t-17 48q0 30 17 47t48 17q30 0 47 -17t17 -47q0 -31 -17 -48t-47 -17zM148 560q-14 -7 -20 3q-6 9 5 19l142 125q11 11 22 0l142 -125 q11 -10 5 -19q-6 -10 -20 -3l-127 61q-11 5 -22 0z" glyph-name="uni1EC7" horiz-adv-x="517" unicode="ệ"/><glyph d="M40 688q0 15 17 15q51 -3 104 -3q55 0 106 3q16 0 16 -15v-1q0 -13 -15 -17q-26 -7 -36.5 -44t-10.5 -119v-313q0 -82 10.5 -119t36.5 -44q15 -4 15 -17q0 -16 -16 -16q-51 3 -106 3q-53 0 -104 -3q-17 0 -17 15v1q0 12 15 17q26 7 36.5 44t10.5 119v313q0 82 -10.5 119 t-36.5 44q-15 4 -15 17v1zM183 811q3 7 2.5 12.5t-3 8t-6.5 1.5q-8 -3 -17 -3q-21 0 -37.5 15.5t-16.5 38.5q0 26 18 43.5t46 17.5q67 0 67 -77q0 -34 -20.5 -67t-45.5 -50q-12 -8 -20 2q-8 8 7 21q19 17 26 37z" glyph-name="uni1EC8" horiz-adv-x="323" unicode="Ỉ"/><glyph d="M207 189q0 -79 10.5 -115.5t36.5 -43.5q15 -4 15 -17q0 -16 -17 -16q-43 4 -106 4q-59 0 -104 -4q-17 0 -17 15v1q0 13 15 17q26 7 36.5 43.5t10.5 115.5v144q0 69 -9.5 94t-36.5 28q-15 1 -15 17v2q0 16 16 16q68 5 147 22q18 3 18 -14v-309zM150 632q3 8 2.5 13.5t-3 9 t-6.5 1.5q-8 -4 -18 -4q-23 0 -40.5 16.5t-17.5 41.5q0 27 19.5 46t48.5 19q72 0 72 -82q0 -36 -22 -71.5t-49 -53.5q-13 -8 -21 2q-8 9 8 23q20 18 27 39z" glyph-name="uni1EC9" horiz-adv-x="289" unicode="ỉ"/><glyph d="M40 688q0 15 17 15q51 -3 104 -3q55 0 106 3q16 0 16 -15v-1q0 -13 -15 -17q-26 -7 -36.5 -44t-10.5 -119v-313q0 -82 10.5 -119t36.5 -44q15 -4 15 -17q0 -16 -16 -16q-51 3 -106 3q-53 0 -104 -3q-17 0 -17 15v1q0 12 15 17q26 7 36.5 44t10.5 119v313q0 82 -10.5 119 t-36.5 44q-15 4 -15 17v1zM165 -196q-31 0 -48 17t-17 48q0 30 17 47t48 17q30 0 47 -17t17 -47q0 -31 -17 -48t-47 -17z" glyph-name="uni1ECA" horiz-adv-x="323" unicode="Ị"/><glyph d="M137 590q-35 0 -55 20t-20 55q0 34 20 54t55 20t54.5 -19.5t19.5 -54.5t-20 -55t-54 -20zM42 -3q-17 0 -17 15v1q0 13 15 17q26 7 36.5 43.5t10.5 115.5v144q0 69 -9.5 94t-36.5 28q-15 1 -15 17v2q0 16 16 16q68 5 147 22q18 3 18 -14v-309q0 -79 10.5 -115.5 t36.5 -43.5q15 -4 15 -17q0 -16 -17 -16q-43 4 -106 4q-59 0 -104 -4zM154 -223q-34 0 -52.5 18.5t-18.5 52.5q0 33 18.5 51.5t52.5 18.5q32 0 51 -18.5t19 -51.5q0 -34 -19 -52.5t-51 -18.5z" glyph-name="uni1ECB" horiz-adv-x="289" unicode="ị"/><glyph d="M388 -15q-156 -1 -254.5 103t-98.5 262t98.5 262t254.5 103t254.5 -104.5t98.5 -260.5t-98.5 -260.5t-254.5 -104.5zM176 328q17 -159 81.5 -242t164.5 -72q101 11 148 105.5t30 252.5q-17 159 -81.5 241.5t-164.5 72.5q-102 -10 -148.5 -104.5t-29.5 -253.5zM390 -201 q-31 0 -48 17t-17 48q0 30 17 47t48 17q30 0 47 -17t17 -47q0 -31 -17 -48t-47 -17z" glyph-name="uni1ECC" horiz-adv-x="776" unicode="Ọ"/><glyph d="M295 -15q-119 0 -189.5 74.5t-70.5 191.5q0 116 70.5 190.5t189.5 74.5t189 -74.5t70 -190.5q0 -117 -70 -191.5t-189 -74.5zM164 236q14 -110 55.5 -168.5t103.5 -52.5q65 6 90.5 71.5t11.5 179.5q-15 111 -54.5 169t-103.5 51q-64 -6 -90.5 -71.5t-12.5 -178.5z M303 -201q-31 0 -48 17t-17 48q0 30 17 47t48 17q30 0 47 -17t17 -47q0 -31 -17 -48t-47 -17z" glyph-name="uni1ECD" horiz-adv-x="589" unicode="ọ"/><glyph d="M388 -15q-156 -1 -254.5 103t-98.5 262t98.5 262t254.5 103t254.5 -104.5t98.5 -260.5t-98.5 -260.5t-254.5 -104.5zM176 328q17 -159 81.5 -242t164.5 -72q101 11 148 105.5t30 252.5q-17 159 -81.5 241.5t-164.5 72.5q-102 -10 -148.5 -104.5t-29.5 -253.5zM413 815 q3 7 2.5 12.5t-3 8.5t-6.5 1q-8 -3 -17 -3q-21 0 -37.5 15.5t-16.5 38.5q0 26 18 43.5t46 17.5q67 0 67 -77q0 -34 -20.5 -67t-45.5 -50q-12 -8 -20 2q-8 8 7 21q19 17 26 37z" glyph-name="uni1ECE" horiz-adv-x="776" unicode="Ỏ"/><glyph d="M295 -15q-119 0 -189.5 74.5t-70.5 191.5q0 116 70.5 190.5t189.5 74.5t189 -74.5t70 -190.5q0 -117 -70 -191.5t-189 -74.5zM164 236q14 -110 55.5 -168.5t103.5 -52.5q65 6 90.5 71.5t11.5 179.5q-15 111 -54.5 169t-103.5 51q-64 -6 -90.5 -71.5t-12.5 -178.5z M321 622q3 7 2.5 12.5t-3 8.5t-6.5 1q-7 -3 -17 -3q-21 0 -37.5 15.5t-16.5 38.5q0 26 18 43.5t46 17.5q67 0 67 -77q0 -34 -20.5 -67t-45.5 -50q-12 -8 -20 2q-8 8 7 21q19 17 26 37z" glyph-name="uni1ECF" horiz-adv-x="589" unicode="ỏ"/></font>
</defs>
</svg>
