<?xml version="1.0" standalone="no"?>
<!DOCTYPE svg PUBLIC "-//W3C//DTD SVG 1.1//EN" "http://www.w3.org/Graphics/SVG/1.1/DTD/svg11.dtd">
<svg version="1.1" xmlns="http://www.w3.org/2000/svg" xmlns:xlink="http://www.w3.org/1999/xlink"><metadata>This SVG WebFont was generated by YouWorkForThem.
</metadata><defs><font horiz-adv-x="0" id="ywftsvg"><font-face ascent="800" bbox="-669.756 -306 1442.38 1095" cap-height="703" descent="-200" font-family="" font-stretch="normal" font-weight="400" panose-1="0 0 0 0 0 0 0 0 0 0" underline-position="0" underline-thickness="0" unicode-range="U+0020-E05A" units-per-em="1000" x-height="509"/><missing-glyph d="M422 780v-1030h-326v1030h326zM343 78h-171v-117h171v117zM309 44v-49h-103v49h103zM343 256h-103v-58h35v24h34v-49h-103v83h-34v-117h171v117zM343 381h-34v-68h-137v-35h171v103zM343 443h-171v-34h68v-38h-68v-34h103v72h68v34zM240 543v-37h-34v37h34zM275 578h-103 v-107h171v35h-68v72zM343 711h-170v-34h67v-38h-68v-34h171v34h-68v38h68v34zM343 -63h-171v-34h72l-72 -48v-34h171v34h-105l72 48h33v34z" horiz-adv-x="515"/><glyph d="M333 674q6 29 28 51q7 7 15 13t12 8l4 3h-4q-91 0 -101 -178q-2 -45 11.5 -58t50.5 -13h31q16 0 22 -9q2 -4 2 -17l-1 -1q-6 -23 -28 -23h-58q-25 0 -29 -25l-94 -444q-26 -122 -96.5 -180.5t-216.5 -65.5q-23 -1 -31 20t18 29q98 28 134 193l86 411q10 51 -18 60 q-25 9 -21 28v2q4 19 28 25q17 5 28 19t15 27t9 37q45 210 245 210q69 0 104 -35q16 -17 33 -15q90 9 192 27q14 3 21 -3.5t4 -21.5l-56 -265q-4 -18 2 -20.5t20 10.5q43 41 101 41q102 0 148 -68t23 -176q-26 -127 -116 -205.5t-239 -78.5q-113 0 -158 72t-15 216l62 293 v111v-2l-1 -2q-7 -36 -36.5 -59.5t-65.5 -23.5t-54 23t-10 60zM605 160q-22 -133 27 -133q83 0 136 219q50 212 -7 212q-48 0 -89.5 -87t-66.5 -211z" glyph-name="uniE03D" horiz-adv-x="1012" unicode="fb"/><glyph d="M333 674q6 29 28 51q7 7 15 13t12 8l4 3h-4q-91 0 -101 -178q-2 -45 11.5 -58t50.5 -13h75q26 0 42.5 13.5t21.5 29t11 43.5q45 210 245 210q68 0 102.5 -34t22.5 -88q-7 -36 -36.5 -59.5t-65.5 -23.5t-54 23t-10 60q6 29 28 51q7 7 15 13t12 8l4 3h-4q-91 0 -101 -178 q-2 -45 11.5 -58t50.5 -13h31q16 0 22 -9q2 -4 2 -17l-1 -1q-6 -23 -28 -23h-58q-25 0 -29 -25l-94 -444q-26 -122 -96.5 -180.5t-216.5 -65.5q-23 -1 -31 20t18 29q98 28 134 193l86 411q7 36 -3.5 49t-40.5 13h-97q-25 0 -29 -25l-94 -444q-26 -122 -96.5 -180.5 t-216.5 -65.5q-23 -1 -31 20t18 29q98 28 134 193l86 411q10 51 -18 60q-25 9 -21 28v2q4 19 28 25q17 5 28 19t15 27t9 37q45 210 245 210q68 0 102.5 -34t22.5 -88q-7 -36 -36.5 -59.5t-65.5 -23.5t-54 23t-10 60z" glyph-name="uniE03E" horiz-adv-x="746" unicode="ff"/><glyph d="M333 674q6 29 28 51q7 7 15 13t12 8l4 3h-4q-91 0 -101 -178q-2 -45 11.5 -58t50.5 -13h80q26 0 42.5 13.5t21.5 29t11 43.5q45 210 243 210q63 0 96 -34t21 -88q-7 -36 -36.5 -59.5t-63.5 -23.5q-36 0 -54 23t-10 60q6 29 28 51q4 4 9.5 8.5t9 7t7 4.5t4.5 3l2 1h-2 q-46 0 -71 -41.5t-30 -136.5q-2 -45 13.5 -58t53.5 -13h67q145 0 222 10q15 2 21.5 -5t3.5 -21l-75 -355q-12 -56 10 -60q4 -1 10 -1.5t8.5 -1t6 -2.5t5.5 -6q8 -20 -8 -32q-48 -40 -122 -40q-64 0 -89 39.5t-10 107.5l38 180q17 80 10 108.5t-42 28.5h-88q-25 0 -29 -25 l-94 -444q-26 -122 -96.5 -180.5t-216.5 -65.5q-23 -1 -31 20t18 29q98 28 134 193l86 411q7 36 -3.5 49t-40.5 13h-102q-25 0 -29 -25l-94 -444q-26 -122 -96.5 -180.5t-216.5 -65.5q-23 -1 -31 20t18 29q98 28 134 193l86 411q10 51 -18 60q-25 9 -21 28v2q4 19 28 25 q17 5 28 19t15 27t9 37q45 210 245 210q68 0 102.5 -34t22.5 -88q-7 -36 -36.5 -59.5t-65.5 -23.5t-54 23t-10 60zM877 673q9 45 41 71t77 26t65.5 -26t11.5 -71q-10 -45 -41.5 -71.5t-76.5 -26.5t-66 26.5t-11 71.5z" glyph-name="uniE03F" horiz-adv-x="1086" unicode="ffi"/><glyph d="M333 674q6 29 28 51q7 7 15 13t12 8l4 3h-4q-91 0 -101 -178q-2 -45 11.5 -58t50.5 -13h75q26 0 42.5 13.5t21.5 29t11 43.5q45 210 245 210q69 0 104 -35q16 -17 33 -15q93 9 193 27q14 3 21 -3.5t4 -21.5l-10 -48l-121 -571q-12 -56 10 -60q4 -1 10 -1.5t8.5 -1t6 -2.5 t5.5 -6q8 -20 -8 -32q-48 -40 -122 -40q-64 0 -87.5 39t-9.5 108l91 434q9 44 12 66q1 7 0 14.5t-3.5 13t-5 10t-4 7t-1.5 1.5q0 -3 -1 -5q-7 -36 -36.5 -59.5t-65.5 -23.5t-54 23t-10 60q6 29 28 51q7 7 15 13t12 8l4 3h-4q-91 0 -101 -178q-2 -45 11.5 -58t50.5 -13h31 q16 0 22 -9q2 -4 2 -17l-1 -1q-6 -23 -28 -23h-58q-25 0 -29 -25l-94 -444q-26 -122 -96.5 -180.5t-216.5 -65.5q-23 -1 -31 20t18 29q98 28 134 193l86 411q8 42 -10 56q-8 6 -30 6h-101q-25 0 -29 -25l-94 -444q-26 -122 -96.5 -180.5t-216.5 -65.5q-23 -1 -31 20t18 29 q98 28 134 193l86 411q10 51 -18 60q-25 9 -21 28v2q4 19 28 25q17 5 28 19t15 27t9 37q45 210 245 210q68 0 102.5 -34t22.5 -88q-7 -36 -36.5 -59.5t-65.5 -23.5t-54 23t-10 60z" glyph-name="uniE041" horiz-adv-x="1088" unicode="ffl"/><glyph d="M333 674q6 29 28 51q7 7 15 13t12 8l4 3h-4q-91 0 -101 -178q-2 -45 11.5 -58t50.5 -13h31q16 0 22 -9q2 -4 2 -17l-1 -1q-6 -23 -28 -23h-58q-25 0 -29 -25l-94 -444q-26 -122 -96.5 -180.5t-216.5 -65.5q-23 -1 -31 20t18 29q98 28 134 193l86 411q10 51 -18 60 q-25 9 -21 28v2q4 19 28 25q17 5 28 19t15 27t9 37q45 210 245 210q69 0 104 -35q16 -17 33 -15q90 9 192 27q14 3 21 -3.5t4 -21.5l-57 -272q-4 -18 3 -21.5t21 8.5q59 53 126 53q91 0 126.5 -46.5t19.5 -126.5l-45 -214q-12 -56 10 -60q4 -1 10 -1.5t8.5 -1t6 -2.5t5.5 -6 q8 -20 -8 -32q-48 -40 -122 -40q-64 0 -90 39.5t-11 107.5l44 209q10 53 2 74.5t-34 21.5q-28 0 -64 -47t-47 -97v1l-58 -272q-4 -23 -29 -23h-136q-13 0 -19.5 8t-3.5 21l120 564l-6 85v-2l-1 -2q-7 -36 -36.5 -59.5t-65.5 -23.5t-54 23t-10 60z" glyph-name="uniE042" horiz-adv-x="1031" unicode="fh"/><glyph d="M552 569q-42 0 -65.5 27.5t-14.5 71.5q4 20 19 42q20 26 1 29q-7 1 -23 1q-58 0 -106 -41t-58 -125q-6 -46 5 -60t45 -14h34q148 0 225 11q31 3 25 -27l-75 -355q-12 -56 10 -60q4 -1 10 -1.5t8.5 -1t6 -2.5t5.5 -6q8 -20 -8 -32q-48 -40 -122 -40q-64 0 -89 39.5 t-10 107.5l38 180q17 80 9 108.5t-44 28.5h-61q-25 0 -29 -23l-94 -446q-26 -122 -96.5 -180.5t-216.5 -65.5q-23 -1 -31 20t18 29q98 28 134 193l78 365q11 52 9 75t-20 30q-24 7 -20 28l1 3q4 19 27 24q16 4 27 14.5t15 19.5t10 27q24 65 63.5 112.5t87 72.5t95 36.5 t99.5 11.5q164 0 194 -79q11 -22 5 -48q-10 -46 -43 -73t-78 -27z" glyph-name="uniE043" horiz-adv-x="686" unicode="fi"/><glyph d="M552 569q-42 0 -65.5 27.5t-14.5 71.5q4 20 19 42q20 26 1 29q-7 1 -23 1q-58 0 -106 -41t-58 -125q-6 -46 5 -60t45 -14h34q150 0 227 11q31 3 25 -27l-120 -566q-18 -85 -82.5 -134t-155.5 -49q-60 0 -94 27t-32 72q0 12 2 20q0 3 1 5q8 34 36.5 58.5t63.5 24.5 t54.5 -24.5t11.5 -58.5q-6 -31 -28 -53q-4 -4 -12 -11q-11 -10 -7 -11q3 -1 9 -1q65 0 83 83q9 44 -6.5 97t-9.5 80l63 293q11 66 2 90t-42 24h-61q-25 0 -29 -23l-94 -446q-26 -122 -96.5 -180.5t-216.5 -65.5q-23 -1 -31 20t18 29q98 28 134 193l78 365q11 52 9 75t-20 30 q-24 7 -20 28l1 3q4 19 27 24q16 4 27 14.5t15 19.5t10 27q24 65 63.5 112.5t87 72.5t95 36.5t99.5 11.5q164 0 194 -79q11 -22 5 -48q-10 -46 -43 -73t-78 -27z" glyph-name="uniE044" horiz-adv-x="671" unicode="fj"/><glyph d="M333 674q6 29 28 51q7 7 15 13t12 8l4 3h-4q-91 0 -101 -178q-2 -45 11.5 -58t50.5 -13h31q16 0 22 -9q2 -4 2 -17l-1 -1q-6 -23 -28 -23h-58q-25 0 -29 -25l-94 -444q-26 -122 -96.5 -180.5t-216.5 -65.5q-23 -1 -31 20t18 29q98 28 134 193l86 411q10 51 -18 60 q-25 9 -21 28v2q4 19 28 25q17 5 28 19t15 27t9 37q45 210 245 210q69 0 104 -35q16 -17 33 -15q90 9 192 27q14 3 21 -4t4 -22l-74 -346q-3 -14 4.5 -21.5t21.5 -3.5q76 19 123 40q12 6 12.5 13.5t-6.5 19.5q-10 17 -5 43q6 29 33 50t59 21q26 0 43 -17.5t16 -42.5 q1 -48 -47 -82t-130 -61q-26 -8 0 -18q70 -25 96 -117l36 -137q7 -23 21 -26q4 -1 9.5 -1h8.5t5.5 -1.5t4.5 -5.5q8 -19 -4 -32q-35 -38 -97 -38q-58 0 -91.5 26t-49.5 84q-7 27 -17 65.5t-15.5 59t-12.5 42t-13 33.5q-7 13 -17 9t-13 -19l-55 -261q-4 -23 -29 -23h-136 q-13 0 -19.5 8t-3.5 21l120 564l-6 85v-2l-1 -2q-7 -36 -36.5 -59.5t-65.5 -23.5t-54 23t-10 60z" glyph-name="uniE045" horiz-adv-x="1005" unicode="fk"/><glyph d="M333 674q6 29 28 51q7 7 15 13t12 8l4 3h-4q-91 0 -101 -178q-2 -45 11.5 -58t50.5 -13h31q16 0 22 -9q2 -4 2 -17l-1 -1q-6 -23 -28 -23h-58q-25 0 -29 -25l-94 -444q-26 -122 -96.5 -180.5t-216.5 -65.5q-23 -1 -31 20t18 29q98 28 134 193l86 411q10 51 -18 60 q-25 9 -21 28v2q4 19 28 25q17 5 28 19t15 27t9 37q45 210 245 210q69 0 104 -35q16 -17 33 -15q93 9 193 27q14 3 21 -3.5t4 -21.5l-10 -48l-121 -571q-12 -56 10 -60q4 -1 10 -1.5t8.5 -1t6 -2.5t5.5 -6q8 -20 -8 -32q-48 -40 -122 -40q-64 0 -87.5 39t-9.5 108l91 434 q9 44 12 66q1 7 0 14.5t-3.5 13t-5 10t-4 7t-1.5 1.5q0 -3 -1 -5q-7 -36 -36.5 -59.5t-65.5 -23.5t-54 23t-10 60z" glyph-name="uniE046" horiz-adv-x="718" unicode="fl"/><glyph d="M333 674q6 29 28 51q7 7 15 13t12 8l4 3h-4q-91 0 -101 -178q-2 -45 11.5 -58t50.5 -13h28q180 2 230 195q8 23 29 23h17q13 0 19.5 -8t3.5 -21l-35 -160q-3 -13 3.5 -21t19.5 -8h21q13 0 19.5 -7.5t3.5 -19.5l-1 -4q-4 -23 -28 -23h-32q-25 0 -29 -23l-62 -294 q-12 -56 10 -60q4 -1 10 -1.5t8.5 -1t6 -2.5t5.5 -6q8 -20 -8 -32q-48 -40 -122 -40q-64 0 -90 39.5t-11 107.5l52 248q0 12 1.5 21.5t-2 16.5t-4.5 12t-6.5 8.5t-8 5.5t-8.5 3t-8.5 1.5t-7.5 0.5h-6h-50q-25 0 -29 -25l-94 -444q-26 -122 -96.5 -180.5t-216.5 -65.5 q-23 -1 -31 20t18 29q98 28 134 193l86 411q10 51 -18 60q-25 9 -21 28v2q4 19 28 25q17 5 28 19t15 27t9 37q45 210 245 210q68 0 102.5 -34t22.5 -88q-7 -36 -36.5 -59.5t-65.5 -23.5t-54 23t-10 60z" glyph-name="uniE047" horiz-adv-x="683" unicode="ft"/><glyph d="M63 381q9 56 -24 66q-25 9 -21 29v1q4 22 28 24q160 14 208 194q6 23 28 23h17q13 0 19.5 -8t3.5 -21l-35 -160q-3 -13 3.5 -21t19.5 -8h50q146 0 223 10q15 2 21.5 -5t3.5 -21l-75 -355q-12 -56 10 -60q4 -1 10 -1.5t8.5 -1t6 -2.5t5.5 -6q8 -20 -8 -32 q-48 -40 -122 -40q-64 0 -89 39.5t-10 107.5l38 180q16 80 8.5 106.5t-43.5 26.5h-54q-25 0 -29 -23l-62 -294q-12 -56 10 -60q4 -1 10 -1.5t8.5 -1t6 -2.5t5.5 -6q8 -20 -8 -32q-48 -40 -122 -40q-64 0 -90 39.5t-11 107.5zM447 673q9 45 41 71t77 26t65.5 -26t11.5 -71 q-10 -45 -41.5 -71.5t-76.5 -26.5t-66 26.5t-11 71.5z" glyph-name="uniE04F" horiz-adv-x="600" unicode="ti"/><glyph d="M63 381q9 56 -24 66q-25 9 -21 29v1q4 22 28 24q160 14 208 194q6 23 28 23h17q13 0 19.5 -8t3.5 -21l-35 -160q-3 -13 3.5 -21t19.5 -8h43q180 2 230 195q8 23 29 23h17q13 0 19.5 -8t3.5 -21l-35 -160q-3 -13 3.5 -21t19.5 -8h21q13 0 19.5 -7.5t3.5 -19.5l-1 -4 q-4 -23 -28 -23h-32q-25 0 -29 -23l-62 -294q-12 -56 10 -60q4 -1 10 -1.5t8.5 -1t6 -2.5t5.5 -6q8 -20 -8 -32q-48 -40 -122 -40q-64 0 -90 39.5t-11 107.5l52 248q0 16 1.5 26.5t-4 18t-8 11.5t-10 6t-11 2.5t-10.5 0.5h-8h-50q-25 0 -29 -23l-62 -294q-12 -56 10 -60 q4 -1 10 -1.5t8.5 -1t6 -2.5t5.5 -6q8 -20 -8 -32q-48 -40 -122 -40q-64 0 -90 39.5t-11 107.5z" glyph-name="uniE050" horiz-adv-x="659" unicode="tt"/><glyph d="M422 780v-1030h-326v1030h326zM343 78h-171v-117h171v117zM309 44v-49h-103v49h103zM343 256h-103v-58h35v24h34v-49h-103v83h-34v-117h171v117zM343 381h-34v-68h-137v-35h171v103zM343 443h-171v-34h68v-38h-68v-34h103v72h68v34zM240 543v-37h-34v37h34zM275 578h-103 v-107h171v35h-68v72zM343 711h-170v-34h67v-38h-68v-34h171v34h-68v38h68v34zM343 -63h-171v-34h72l-72 -48v-34h171v34h-105l72 48h33v34z" glyph-name=".notdef" horiz-adv-x="515"/><glyph glyph-name="glyph1"/><glyph glyph-name="glyph2" horiz-adv-x="333"/><glyph glyph-name="space" horiz-adv-x="370" unicode=" "/><glyph glyph-name="space" horiz-adv-x="370" unicode=" "/><glyph d="M143 644q8 56 63 56h18q32 0 46 -18.5t5 -49.5l-116 -386q-11 -33 -40 -33q-30 0 -25 42zM6 75q8 38 34 59.5t64 21.5q37 0 54 -21.5t9 -59.5q-8 -39 -33.5 -60t-63.5 -21t-55 21t-9 60z" glyph-name="exclam" horiz-adv-x="285" unicode="!"/><glyph d="M450 669q-9 -53 -46.5 -101.5t-87.5 -73.5q-24 -11 -30 6q-6 14 15 27q50 32 55 61h-7q-36 2 -52 22.5t-8 58.5t34 59.5t64 21.5q37 0 54 -21.5t9 -59.5zM278 669q-9 -53 -46.5 -101.5t-87.5 -73.5q-24 -11 -30 6q-6 14 15 27q50 32 55 61h-7q-36 2 -52 22.5t-8 58.5 t34 59.5t64 21.5q37 0 54 -21.5t9 -59.5z" glyph-name="quotedbl" horiz-adv-x="449" unicode="&quot;"/><glyph d="M513 700q15 0 20 -9t-2 -22l-78 -138q-7 -13 -1.5 -22t20.5 -9h55q21 0 31 18l93 164q11 18 31 18h129q15 0 20 -9t-2 -22l-78 -138q-7 -13 -1.5 -22t20.5 -9h21q15 0 21.5 -7t0.5 -17l-4 -7q-10 -18 -31 -18h-50q-20 0 -31 -18l-86 -152q-7 -13 -1.5 -22t20.5 -9h20 q15 0 21.5 -7t0.5 -17l-4 -7q-10 -18 -31 -18h-50q-21 0 -31 -18l-93 -165q-11 -18 -31 -18h-130q-15 0 -20.5 9t1.5 22l78 139q7 14 2 22.5t-20 8.5l-54 -1q-21 0 -31 -18l-93 -164q-11 -18 -31 -18h-130q-15 0 -20 9t2 22l78 138q7 13 1.5 22t-20.5 9h-17q-15 0 -21.5 7 t-0.5 18l4 7q10 18 31 18h47q20 0 31 18l85 151q7 13 2 22t-20 9h-17q-15 0 -21.5 7t-0.5 18l4 7q11 18 31 18h47q20 0 31 18l93 164q11 18 31 18h129zM314 281q-7 -13 -2 -22t20 -9h54q20 0 31 18l85 152q7 14 2 22.5t-20 8.5l-54 -1q-21 0 -31 -18z" glyph-name="numbersign" horiz-adv-x="820" unicode="#"/><glyph d="M426 801q12 0 17.5 -8t2.5 -21l-7 -35q-5 -25 22 -31q21 -4 40.5 -11t27.5 -10t16 -1t17 13q13 16 32 16h6q28 0 25 -27l-22 -201q-3 -24 -27 -24h-1q-23 0 -28 24q-24 122 -99 163q-11 6 -20 1t-12 -18l-32 -149q-4 -22 15 -33q24 -12 33 -17t31 -18t31.5 -21t27 -22.5 t25 -26.5t18 -30.5t13 -36t2.5 -40.5t-5 -48q-19 -85 -92.5 -139.5t-181.5 -63.5q-24 -2 -28 -23l-10 -48q-4 -23 -28 -23q-13 0 -19.5 7.5t-3.5 20.5l8 40q4 25 -22 31q-23 4 -46.5 11.5t-35.5 12t-26 3.5t-28 -12q-16 -12 -33 -12h-7q-28 0 -25 27l25 220q3 24 28 24 q24 0 27 -25q10 -71 48 -122t88 -68q26 -8 31 20l38 179q5 23 -15 33q-90 50 -117 71q-85 69 -63 172q17 81 92 135.5t187 54.5q17 0 21 23l8 40q4 23 29 23h2zM286 581q-8 -38 20 -69q11 -12 21.5 -8.5t13.5 19.5l21 101q3 15 -3.5 23.5t-18.5 2.5q-44 -20 -54 -69zM299 86 q-4 -16 5 -23.5t23 0.5q41 28 51 77q8 43 -18 76q-10 12 -21 8t-14 -19z" glyph-name="dollar" horiz-adv-x="637" unicode="$"/><glyph d="M651 716q8 0 12 -4.5t2 -12t-9 -15.5l-579 -684q-12 -15 -32 -15h-4q-16 0 -21 9.5t6 22.5l580 684q12 15 32 15h13zM96 591q11 53 60.5 89.5t110.5 36.5t95 -36.5t23 -89.5t-61 -89.5t-111 -36.5t-94.5 36.5t-22.5 89.5zM187 646q-25 -23 30 -81q51 -54 77 -30 q12 11 5 32.5t-32 47.5q-55 55 -80 31zM311 110q11 53 60.5 89.5t110.5 36.5t95 -36.5t23 -89.5t-61 -89.5t-111 -36.5t-94.5 36.5t-22.5 89.5zM402 165q-25 -22 29 -81q52 -53 78 -30q12 11 5 32.5t-32 47.5q-56 55 -80 31z" glyph-name="percent" horiz-adv-x="688" unicode="%"/><glyph d="M421 229q-11 -20 -31 -14q-73 21 -58 91q9 43 46.5 69t79.5 33.5t90 5.5q104 -4 160 40h-4q-30 0 -47.5 20t-10.5 49q5 28 31 48t56 20q42 0 54 -39q14 -44 -23.5 -103t-115.5 -88q81 -48 59 -151q-19 -92 -130 -158.5t-261 -66.5q-169 0 -254 67.5t-59 186.5 q21 100 94 164.5t179 87.5q-96 41 -79 123q7 35 39.5 59t73.5 34t86 10q38 0 82.5 -10t55.5 -6q4 2 10.5 5t11.5 5t11 2h3q27 0 24 -27l-10 -98q-3 -25 -22 -25t-25 23q-13 40 -42.5 62.5t-65.5 22.5q-27 0 -49 -13t-28 -40q-10 -42 17.5 -70t77.5 -41l25 -8l-1 -3l-3 -17 q-4 -21 -28 -24q-191 -19 -232 -218q-19 -90 17.5 -144t111.5 -54q73 0 127 47.5t69 120.5q19 90 -32 115q-35 17 -68 -4q-15 -10 -20 -25q-3 -17 3 -31q10 -22 5 -33z" glyph-name="ampersand" horiz-adv-x="789" unicode="&amp;"/><glyph d="M278 666q-9 -53 -46.5 -101.5t-87.5 -73.5q-24 -11 -30 6q-6 14 15 27q50 32 55 61h-7q-36 2 -52 22.5t-8 58.5t34 59.5t64 21.5q37 0 54 -21.5t9 -59.5z" glyph-name="quotesingle" horiz-adv-x="277" unicode="'"/><glyph d="M230 -189q11 -17 7 -34l-1 -3q-5 -28 -30 -19q-120 40 -184 188t-20 355q20 93 64.5 177.5t102.5 145.5t123 103.5t128 60.5q14 4 22 -0.5t6 -15.5l-1 -6q-5 -18 -18 -29q-176 -155 -235 -436q-26 -121 -26 -222t16.5 -161.5t45.5 -103.5z" glyph-name="parenleft" horiz-adv-x="367" unicode="("/><glyph d="M97 729q-11 17 -7 34l1 3q5 28 30 19q120 -40 184 -188t20 -355q-20 -93 -64.5 -177.5t-102.5 -145.5t-123 -103.5t-128 -60.5q-14 -4 -22 0.5t-6 15.5l1 6q5 18 18 29q176 155 235 436q26 121 26 222t-16.5 161.5t-45.5 103.5z" glyph-name="parenright" horiz-adv-x="385" unicode=")"/><glyph d="M133 609q-14 -5 -22 1.5t-4 22.5l4 16q6 28 32 17l28 -2q-6 4 -18 10q-27 16 -4 36l18 14q11 9 20.5 6t13.5 -17q1 -1 2.5 -3t4 -6t4.5 -6t2 0l-3 25q-5 28 23 28h16q15 0 20 -8.5t-2 -22.5q0 -1 -0.5 -2t-1 -4.5t-1.5 -6t-1.5 -5.5t-0.5 -4v-2q2 3 17 24q17 25 36 2 l7 -9q18 -23 -9 -36l-1 -1q-1 0 -3.5 -2t-4.5 -3.5t-5 -3t-5 -3.5t-4 -3t-3 -2l-1 -1q16 4 23 7q15 5 23 -1.5t4 -22.5l-4 -16q-7 -28 -32 -17l-29 2q9 -6 19 -11q29 -15 3 -36l-17 -14q-11 -10 -20.5 -6.5t-13.5 17.5q-1 1 -2.5 3t-4 6t-4.5 6t-2 0l3 -24q5 -28 -24 -28 h-15q-15 0 -20 8.5t2 22.5l5 23q-2 -3 -17 -24q-16 -24 -36 -1l-7 8q-19 23 9 36q0 1 1 2t2 4.5t1 4.5t-1 2z" glyph-name="asterisk" horiz-adv-x="324" unicode="*"/><glyph d="M82 314q4 23 29 23h106q24 0 28 23l21 97q4 23 28 23h8q13 0 19.5 -8t3.5 -21l-19 -85q-3 -13 3.5 -21t19.5 -8h94q13 0 19.5 -7.5t3.5 -20.5l-1 -7q-5 -23 -29 -23h-105q-24 0 -28 -23l-21 -98q-4 -23 -28 -23h-8q-13 0 -19.5 8t-3.5 21l19 86q3 13 -3.5 21t-19.5 8h-95 q-28 0 -23 28z" glyph-name="plus" horiz-adv-x="547" unicode="+"/><glyph d="M158 75q-9 -53 -46.5 -101.5t-87.5 -73.5q-24 -11 -30 6q-6 14 15 27q50 32 55 61h-7q-36 2 -52 22.5t-8 58.5t34 59.5t64 21.5q37 0 54 -21.5t9 -59.5z" glyph-name="comma" horiz-adv-x="279" unicode=","/><glyph d="M82 313q4 23 29 23h312q13 0 19.5 -7.5t3.5 -20.5l-1 -6q-4 -23 -29 -23h-312q-13 0 -19.5 7.5t-3.5 20.5z" glyph-name="hyphen" horiz-adv-x="557" unicode="-"/><glyph d="M55 -6q-38 0 -55 21t-9 60q8 38 34 59.5t64 21.5q37 0 54 -21.5t9 -59.5q-8 -39 -33.5 -60t-63.5 -21z" glyph-name="period" horiz-adv-x="273" unicode="."/><glyph d="M474 780q14 0 17.5 -9t-3.5 -22l-562 -981q-10 -18 -31 -18h-8q-15 0 -20 9t2 22l563 981q10 18 31 18h11z" glyph-name="slash" horiz-adv-x="417" unicode="/"/><glyph d="M256 -15q-146 -1 -209.5 68.5t-36.5 196.5t120.5 196.5t237.5 68.5q145 -1 208.5 -70.5t37.5 -194.5t-119.5 -194.5t-238.5 -70.5zM209 238q-8 -96 16 -151.5t68 -50.5t78.5 68t43.5 158t-15.5 151t-68.5 51t-78.5 -67.5t-43.5 -158.5z" glyph-name="zero" horiz-adv-x="664" unicode="0"/><glyph d="M255 193q-15 -71 -13.5 -100.5t20.5 -37.5q23 -9 19 -29l-1 -6q-5 -24 -29 -22q-84 2 -134 2q-43 0 -127 -2q-14 -1 -20.5 6t-4.5 20l1 5q4 19 27 25q24 6 39.5 35t31.5 104l25 120q13 63 11 88.5t-20 31.5q-25 8 -20 29l1 5q4 22 28 24q118 5 202 19q14 2 21 -4.5 t4 -21.5z" glyph-name="one" horiz-adv-x="375" unicode="1"/><glyph d="M1 0q-14 0 -20 8.5t-2 21.5q23 79 68.5 132t95 77t97 43t83 47.5t45.5 72.5q6 27 -8 43.5t-42 16.5q-112 0 -215 -183q-11 -18 -31 -18q-24 0 -16 29l57 197q6 22 29 22h9q17 0 29 -20q8 -7 13.5 -7t21.5 5.5t32 11.5t46 11.5t64 5.5q99 0 150 -35t38 -97 q-9 -41 -32.5 -70.5t-67.5 -50.5t-82 -32.5t-106 -28.5q-74 -18 -90 -24q-19 -6 -15 -18t24 -12l188 1q39 0 56.5 8t32.5 39q10 21 31 18t13 -30l-52 -167q-7 -22 -30 -20q-48 3 -98 3h-316z" glyph-name="two" horiz-adv-x="573" unicode="2"/><glyph d="M145 183v7q-1 17 3 17l1 1q76 24 118.5 63t55.5 100q10 46 -3 68t-42 22q-89 0 -165 -132q-12 -19 -32 -19q-23 0 -15 29l41 148q6 22 29 22h8q6 0 10.5 -2.5t10 -6.5t10.5 -6q9 -3 28 2t51 12t62 7q116 0 168.5 -37t38.5 -106q-19 -91 -121 -143q-27 -12 0 -24 q57 -26 83.5 -76t13.5 -112q-21 -104 -110.5 -168t-225.5 -64q-30 0 -58 6t-41 12t-30.5 7.5t-25.5 -7.5q-18 -13 -33 -13h-4q-13 0 -19.5 7.5t-4.5 20.5l30 197q3 24 27 24q22 0 24 -27q4 -86 39 -128t91 -42q45 0 84 42.5t55 118.5q18 89 -18 129.5t-105 31.5 q-27 -3 -28 4z" glyph-name="three" horiz-adv-x="586" unicode="3"/><glyph d="M457 -72q-4 -23 -24 -23q-15 0 -17 27q-1 17 -16 24q-12 5 -20.5 -1.5t-10.5 -19.5q-13 -79 16 -92q24 -9 19 -29l-1 -6q-5 -24 -29 -22q-82 2 -134 2q-41 0 -127 -2q-14 -1 -20.5 5.5t-3.5 19.5l1 6q4 19 27 25t37 31.5t29 89.5q-12 1 -30 1h-184q-16 0 -20.5 9.5 t5.5 22.5l381 489q11 15 32 15h92q13 0 19.5 -8t3.5 -21l-91 -428q-3 -15 5.5 -23t21.5 -1q15 8 23 26q7 22 26 22q8 0 12 -7.5t1 -20.5zM40 40q-10 -13 -5.5 -22.5t20.5 -9.5h114q25 0 29 23l47 221q4 19 -6.5 24t-22.5 -10z" glyph-name="four" horiz-adv-x="561" unicode="4"/><glyph d="M146 483q8 21 31 20q46 -3 98 -3h150q46 0 94 3q14 1 20.5 -6.5t2.5 -21.5l-46 -172q-6 -22 -28 -22t-20 28q2 43 -15.5 53t-83.5 10l-169 1q-22 0 -29 -21l-25 -70q-5 -16 2 -23t23 -2q119 28 200 3.5t118.5 -88.5t20.5 -145q-23 -104 -112.5 -173t-220.5 -69 q-35 0 -68.5 11t-44 16t-32.5 -4q-18 -13 -33 -13h-6q-13 0 -19.5 7.5t-4.5 20.5l29 200q3 24 27 24q22 0 22 -27q3 -89 35 -134.5t87 -45.5q46 0 84.5 47.5t54.5 125.5q23 106 -26.5 154.5t-149.5 20.5q-21 -7 -36 8l-8 9q-15 15 -7 35z" glyph-name="five" horiz-adv-x="581" unicode="5"/><glyph d="M363 517q132 0 192.5 -74.5t35.5 -191.5q-24 -117 -117.5 -192t-224.5 -75q-84 0 -140.5 32t-79.5 90q-1 2 -3.5 9t-3.5 11l-5 23q-5 42 -4 91.5t16 104t36.5 107t58.5 100.5t80 84t101.5 57.5t124.5 21.5q26 0 48.5 -5.5t34.5 -9t18 -1.5q2 1 13 7.5t19 6.5h5 q26 0 26 -26l-2 -129q0 -26 -23 -26h-1q-21 0 -29 23q-31 110 -120 110q-37 0 -74 -31.5t-67 -91.5q-8 -16 -1.5 -24.5t22.5 -5.5q35 5 64 5zM288 36q44 5 78 68t42 158q9 95 -14.5 151t-66.5 51q-42 -5 -75.5 -65t-43.5 -156q-2 -29 0.5 -62.5t10 -69t25.5 -57t44 -18.5z " glyph-name="six" horiz-adv-x="642" unicode="6"/><glyph d="M23 -211q-16 0 -20.5 9.5t4.5 22.5l362 519q9 14 4.5 23t-20.5 9h-126q-67 0 -94.5 -12t-51.5 -59q-10 -20 -31 -20q-24 0 -16 29l50 172q6 23 30 21q48 -3 98 -3h332q15 0 20 -9t-2 -22l-387 -662q-10 -18 -31 -18h-121z" glyph-name="seven" horiz-adv-x="550" unicode="7"/><glyph d="M406 716q85 0 135 -39.5t37 -98.5q-13 -66 -93 -110q-29 -16 -2 -33q66 -43 98 -96t14 -135q-20 -94 -118.5 -156.5t-222.5 -62.5q-139 0 -206 55.5t-49 146.5q27 126 171 188q28 12 6 34q-56 58 -39 138q17 81 92 125t177 44zM157 195q-15 -70 16 -114t92 -44 q53 0 93 34t52 90q6 31 -1 56.5t-29.5 47t-42 35t-55.5 34.5q-8 5 -12 7q-20 12 -33 1q-61 -56 -80 -147zM317 599q-12 -53 62 -101q21 -15 36 5q27 34 37 84q7 37 -10 58.5t-47 21.5q-28 0 -50 -18t-28 -50z" glyph-name="eight" horiz-adv-x="642" unicode="8"/><glyph d="M239 -17q-132 0 -192.5 74.5t-35.5 191.5q24 117 117.5 192t224.5 75q84 0 140.5 -32t79.5 -90q1 -2 3.5 -9t3.5 -11l5 -23q5 -42 4 -91.5t-16 -104t-36.5 -107t-58.5 -100.5t-80 -84t-101.5 -57.5t-124.5 -21.5q-26 0 -48.5 5.5t-34.5 9t-18 1.5q-2 -1 -13 -7.5 t-19 -6.5h-5q-26 0 -26 26l2 129q0 26 24 26q21 0 29 -23q31 -110 120 -110q37 0 74 31.5t67 91.5q8 16 1.5 24.5t-22.5 5.5q-35 -5 -64 -5zM194 238q-9 -95 14.5 -151t66.5 -51t76.5 65t42.5 156q9 102 -14.5 157t-65.5 50q-44 -5 -78 -68t-42 -158z" glyph-name="nine" horiz-adv-x="642" unicode="9"/><glyph d="M96 -6q-38 0 -55 21t-9 60q8 38 34 59.5t64 21.5q37 0 54 -21.5t9 -59.5q-8 -39 -33.5 -60t-63.5 -21zM85 321q8 38 34 59.5t64 21.5q37 0 54 -21.5t9 -59.5q-8 -39 -33.5 -60t-63.5 -21t-55 21t-9 60z" glyph-name="colon" horiz-adv-x="337" unicode=":"/><glyph d="M156 240q-38 0 -55 21t-9 60q8 38 34 59.5t64 21.5q37 0 54 -21.5t9 -59.5q-8 -39 -33.5 -60t-63.5 -21zM36 -93q-6 14 15 27q51 33 56 60h-7q-37 1 -53 22t-8 59t34 59.5t64 21.5q37 0 54 -21.5t9 -59.5q-10 -53 -47.5 -102t-86.5 -72q-23 -11 -30 6z" glyph-name="semicolon" horiz-adv-x="344" unicode=";"/><glyph d="M304 458q7 -22 -13 -35q-50 -30 -83.5 -70.5t-33.5 -82.5q0 -38 33.5 -77t82.5 -69q20 -13 13 -34q-8 -23 -33 -13q-101 36 -174 90t-73 103q0 53 73 109.5t174 93.5q25 9 34 -15z" glyph-name="less" horiz-adv-x="347" unicode="&lt;"/><glyph d="M114 372q5 23 28 23h313q13 0 19.5 -8t3.5 -21l-2 -6q-6 -23 -28 -23h-313q-13 0 -19 8t-3 21zM104 190q-13 0 -19.5 8t-3.5 21l2 6q6 23 28 23h313q13 0 19.5 -8t3.5 -21l-2 -6q-6 -23 -28 -23h-313z" glyph-name="equal" horiz-adv-x="579" unicode="="/><glyph d="M93 421q-19 15 -8 36l2 4q12 21 35 12q93 -37 154 -93.5t50 -109.5q-11 -48 -95 -102t-193 -91q-27 -9 -30 13q-4 21 16 32q57 30 100 69.5t51 78.5q8 41 -16 81t-66 70z" glyph-name="greater" horiz-adv-x="373" unicode=">"/><glyph d="M201 204q-27 0 -21 29q12 51 35 90.5t48 64t49.5 47.5t44 52.5t27.5 65.5q11 51 -5.5 78.5t-49.5 27.5q-109 0 -204 -179q-10 -19 -31 -19q-24 0 -16 29l59 197q6 22 30 22h11q13 0 30 -19q16 -8 26.5 -2.5t48.5 16t77 10.5q119 0 173 -44.5t36 -129.5q-10 -49 -43 -85.5 t-75.5 -59.5t-85 -44.5t-79.5 -53t-52 -71.5q-9 -22 -30 -22h-3zM97 74q8 38 34 59.5t64 21.5q37 0 54 -21.5t9 -59.5q-8 -39 -34 -60t-64 -21t-54.5 21t-8.5 60z" glyph-name="question" horiz-adv-x="563" unicode="?"/><glyph d="M696 67q47 0 99 57.5t67 130.5q33 168 -54 274t-251 106q-175 0 -310.5 -116.5t-173.5 -289.5q-38 -175 53 -289t259 -114q143 0 276 94q22 16 35 -6q13 -21 -7 -36q-148 -102 -314 -102q-125 0 -218 58.5t-133.5 163.5t-11.5 232q47 206 201.5 329.5t353.5 123.5 q185 0 288 -121.5t66 -304.5q-25 -123 -110.5 -190t-188.5 -67q-83 0 -114 45q-14 18 -28 2q-47 -47 -120 -47q-80 0 -117 47t-28 123q14 119 85 194.5t175.5 100t231.5 4.5q26 -5 21 -31l-65 -309q-8 -29 -0.5 -42.5t14.5 -16.5t19 -3zM386 188q-7 -57 2.5 -89t31.5 -32 q36 0 56.5 46.5t45.5 158.5l28 133q7 31 -3 31q-46 -1 -96 -66t-65 -182z" glyph-name="at" horiz-adv-x="975" unicode="@"/><glyph d="M438 700q23 0 28 -24l87 -497q13 -70 24.5 -95t33.5 -30q26 -6 20 -30l-1 -4q-5 -24 -29 -22q-68 2 -122 2q-63 0 -155 -2q-14 -1 -20.5 6t-3.5 20l1 5q4 22 28 23q29 4 34.5 24t-4.5 87l-2 16l-2 13q-5 23 -29 23h-163q-21 0 -31 -18l-19 -32q-18 -31 -27.5 -51.5 t-11 -33t2.5 -18.5t14 -8q27 -6 21 -30l-1 -4q-5 -24 -29 -22q-56 2 -77 2q-40 0 -60 -2q-14 -1 -21 6t-4 20l1 5q4 21 27 24q28 4 51 26t61 86l9 14l213 369q9 16 6 34l-15 90q-5 28 23 28h142zM189 296q-7 -14 -2 -22.5t20 -8.5h107q28 0 23 28l-26 152q-3 18 -13.5 20 t-19.5 -14z" glyph-name="A" horiz-adv-x="687" unicode="A"/><glyph d="M222 78q-3 -13 3.5 -20.5t19.5 -7.5h30q68 0 128 54t79 148q17 83 -1 121t-52 38q-37 0 -73 -28q-47 -35 -71 -80.5t-39 -109.5zM-20 -2q-14 -1 -20.5 6t-4.5 20l1 5q4 19 27 24q22 5 36.5 30.5t29.5 86.5l71 337q16 71 14.5 101t-20.5 37q-24 9 -20 29l1 6q5 23 29 23 q65 -3 132 -3h146q92 0 137 -28.5t32 -89.5q-8 -43 -48 -83q-7 -7 -15.5 -15t-12.5 -12l-4 -3h2q107 0 157.5 -60t29.5 -156q-24 -113 -132.5 -183t-261.5 -70h-178q-42 0 -128 -2zM296 432q-6 -31 4 -35q3 -1 7 3q11 10 24 21q90 75 108 160q15 73 -62 73h-10 q-25 0 -29 -23z" glyph-name="B" horiz-adv-x="728" unicode="B"/><glyph d="M460 666q-72 0 -135.5 -68t-93.5 -209q-29 -136 16 -230t145 -94q106 0 193 79q20 20 32 4t-3 -34q-55 -61 -131.5 -95.5t-152.5 -34.5q-170 0 -248 111t-50 271q29 163 144 256t291 93q34 0 67 -6.5t50 -12.5t33.5 -6t27.5 11q17 15 32 15h5q27 0 24 -28l-31 -230 q-3 -24 -27 -24q-23 0 -26 34q-8 99 -46.5 148.5t-115.5 49.5z" glyph-name="C" horiz-adv-x="693" unicode="C"/><glyph d="M524 366q28 137 -16 211.5t-143 74.5q-17 0 -21 -23l-92 -436l-24 -115q-7 -28 9 -28q104 0 181 81.5t106 234.5zM-15 -2q-14 -1 -20.5 6t-4.5 20l1 5q4 19 27 24q22 5 36.5 30.5t29.5 86.5l71 337q16 71 14.5 101t-20.5 37q-24 9 -20 29l1 6q5 23 29 23q65 -3 132 -3 h130q181 0 270 -89t58 -245q-36 -177 -164.5 -271.5t-309.5 -94.5h-132q-42 0 -128 -2z" glyph-name="D" horiz-adv-x="751" unicode="D"/><glyph d="M108 0q-42 0 -128 -2q-14 -1 -20.5 6t-3.5 20l1 5q4 19 26 25q24 6 39 34.5t31 100.5l68 319q15 72 13.5 101t-20.5 37q-24 10 -19 29l1 6q5 24 29 22q65 -3 132 -3h249q44 0 64 7q19 7 32 7q27 0 24 -27l-23 -218q-3 -25 -25 -25t-22 27q4 100 -27 139.5t-127 39.5h-34 q-25 0 -29 -23l-43 -206q-7 -28 3 -28q46 0 70 18.5t31 63.5q3 25 25 25q21 0 21 -26l-4 -215q0 -26 -23 -26q-21 0 -26 25q-7 47 -31 66.5t-74 19.5q-10 0 -14 -23l-27 -128l-24 -112q-3 -13 3.5 -21t19.5 -8h74q29 0 51 4t38.5 9t30 18t21.5 23.5t17.5 34.5t15 41t15.5 52 q7 22 30 22q11 0 16 -8t2 -21l-46 -212q-5 -23 -31 -20q-17 3 -73 5h-299z" glyph-name="E" horiz-adv-x="626" unicode="E"/><glyph d="M509 700q44 0 64 7q19 7 32 7q27 0 24 -27l-23 -218q-3 -25 -25 -25t-22 27q4 100 -26.5 139.5t-126.5 39.5h-34q-25 0 -29 -23l-22 -104l-3 -15h-1l-18 -86q-7 -28 3 -28q46 0 70.5 18.5t31.5 62.5q3 25 25 25q21 0 21 -26l-5 -215q0 -26 -23 -26q-22 0 -25 25 q-7 47 -31 66.5t-74 19.5q-10 0 -14 -23l-27 -128q-15 -71 -13.5 -100.5t20.5 -37.5q23 -9 19 -29l-1 -6q-5 -24 -29 -22q-84 2 -134 2q-43 0 -129 -2q-14 -1 -20.5 6t-4.5 20l1 5q4 19 27 25t37 30.5t29 85.5l78 371q9 53 6 75t-19 29q-13 6 -17.5 12t-2.5 18l1 6 q5 23 33 22q63 -3 128 -3h249z" glyph-name="F" horiz-adv-x="595" unicode="F"/><glyph d="M648 329q13 0 19.5 -7.5t3.5 -20.5l-32 -151q-3 -18 -14 -30q-55 -64 -131 -100t-155 -36q-175 0 -255.5 105.5t-44.5 276.5q34 160 155 254.5t289 94.5q33 0 64.5 -6.5t48 -12.5t32 -6t26.5 10q16 16 32 16h4q27 0 24 -28l-31 -230q-3 -24 -26 -24t-25 26 q-7 105 -44.5 155.5t-118.5 50.5q-67 0 -130.5 -68.5t-93.5 -208.5q-29 -135 16 -229.5t140 -94.5q15 0 23 1q22 1 27 24l15 71q9 60 2.5 82.5t-29.5 28.5q-25 6 -20 29l1 5q4 23 29 23h199z" glyph-name="G" horiz-adv-x="731" unicode="G"/><glyph d="M95 680q5 23 29 23q65 -3 132 -3q46 0 130 2q14 1 20.5 -6t4.5 -19l-1 -5q-4 -19 -27 -24q-23 -6 -37.5 -33t-29.5 -91l-22 -101q-3 -13 3.5 -21t19.5 -8h145q25 0 29 23l19 90q16 72 14.5 101.5t-20.5 37.5q-24 9 -20 29l1 5q5 23 29 23q65 -3 132 -3q46 0 130 2 q14 1 20.5 -6t4.5 -19l-1 -5q-4 -19 -27 -24q-23 -6 -37.5 -33t-29.5 -91l-70 -331q-16 -71 -14.5 -101t20.5 -37q24 -9 20 -29l-1 -6q-5 -24 -29 -22q-84 2 -134 2q-42 0 -128 -2q-14 -1 -20 6t-4 20l1 5q4 19 26 24q23 6 37 31t29 86l30 145q3 13 -3.5 20.5t-19.5 7.5 h-145q-25 0 -29 -23l-26 -127q-16 -71 -14.5 -101t20.5 -37q24 -9 20 -29l-1 -6q-5 -24 -29 -22q-84 2 -134 2q-42 0 -128 -2q-14 -1 -20.5 6t-4.5 20l1 5q4 19 27 24q22 5 36.5 30.5t29.5 86.5l71 337q16 72 14.5 101.5t-20.5 37.5q-24 9 -20 29z" glyph-name="H" horiz-adv-x="756" unicode="H"/><glyph d="M105 680q5 23 29 23q64 -3 132 -3q46 0 130 2q14 1 20.5 -6t4.5 -19l-1 -5q-4 -19 -27 -24q-23 -6 -37.5 -33t-29.5 -91l-70 -331q-16 -71 -14.5 -101t20.5 -37q24 -9 20 -29l-1 -6q-5 -24 -29 -22q-84 2 -134 2q-42 0 -128 -2q-14 -1 -20.5 6t-4.5 20l1 5q4 19 27 24 q22 5 36.5 30.5t29.5 86.5l71 337q16 72 14.5 101.5t-20.5 37.5q-24 9 -20 29z" glyph-name="I" horiz-adv-x="386" unicode="I"/><glyph d="M-39 124q8 37 37 61t66 24q36 0 54 -24t10 -61q-7 -34 -32 -57q-14 -12 -18 -18t2 -10q8 -3 17 -3q47 0 63 78l87 410q12 62 9.5 88.5t-19.5 33.5q-24 9 -20 29l1 5q5 23 29 23q58 -3 134 -3q55 0 129 2q14 1 20.5 -6t4.5 -19l-1 -5q-4 -19 -27 -24q-24 -6 -39 -36 t-31 -105l-73 -341q-18 -85 -87.5 -133t-177.5 -48q-74 0 -112.5 37.5t-25.5 101.5z" glyph-name="J" horiz-adv-x="474" unicode="J"/><glyph d="M376 -2q-14 -1 -20 6t-4 20l1 5q4 19 26 25q19 6 17 27.5t-28 77.5l-67 142q-6 13 -11.5 18.5t-9.5 2.5q-9 -9 -12 -25l-21 -104q-15 -71 -13.5 -100.5t20.5 -37.5q23 -9 19 -29l-1 -6q-5 -24 -29 -22q-84 2 -134 2q-43 0 -129 -2q-14 -1 -20.5 6t-4.5 20l1 5q4 19 27 25 t37 30.5t29 85.5l71 337q15 71 13.5 101t-20.5 38q-23 9 -19 29l1 5q5 23 29 23q65 -3 133 -3q46 0 130 2q14 1 20.5 -6t4.5 -19l-1 -5q-4 -19 -27 -25q-24 -6 -38 -32t-29 -91l-17 -80q-4 -18 6 -23.5t23 7.5l179 175q35 35 22 43q-10 5 -13 7t-5.5 7.5t-1.5 13.5l1 6 q5 24 29 22q62 -2 86 -2q40 0 61 2q13 1 20 -6t5 -19l-1 -5q-4 -20 -27 -23q-79 -10 -190 -116l-45 -44q-16 -16 -7 -36l128 -274q35 -73 49 -95.5t32 -28.5q24 -8 20 -30l-1 -5q-5 -24 -29 -22q-58 2 -111 2q-68 0 -154 -2z" glyph-name="K" horiz-adv-x="705" unicode="K"/><glyph d="M485 19q-5 -22 -30 -22q-66 3 -134 3h-213q-40 0 -128 -2q-14 -1 -20.5 6t-4.5 20l1 5q4 19 27 24q22 5 36.5 30.5t29.5 86.5l71 337q16 72 14.5 101.5t-20.5 37.5q-24 9 -20 29l1 5q5 23 29 23q65 -3 132 -3q45 0 131 2q14 1 20.5 -6t4.5 -19l-1 -5q-4 -19 -27 -24 q-23 -6 -37.5 -33t-29.5 -91l-70 -331l-24 -112q-3 -13 3.5 -21t19.5 -8h55q40 0 68 8t45 18.5t31.5 38t22 49t21.5 68.5q6 22 29 22q25 0 19 -29z" glyph-name="L" horiz-adv-x="593" unicode="L"/><glyph d="M345 0q-22 0 -27 23l-69 376q-3 18 -14 19.5t-19 -15.5l-106 -236q-26 -61 -29.5 -84t14.5 -29q25 -7 20 -30l-1 -5q-6 -23 -30 -21q-54 2 -74 2q-39 0 -59 -2q-14 -1 -20.5 6.5t-3.5 19.5l1 5q6 20 28 23q28 5 51 28t51 79l159 353q7 16 3 34q-18 86 -55 98 q-25 9 -20 30l1 5q5 24 29 22q56 -2 101 -2q60 0 100 3q24 0 28 -23l62 -336q3 -18 14 -19.5t19 14.5l92 170q8 15 7 33q-4 52 -16.5 75.5t-35.5 28.5q-25 6 -20 29l1 5q5 23 29 23q48 -3 109 -3q76 0 126 4q4 0 6 -25l6 -158l13 -341q3 -63 15 -91t36 -34q25 -8 20 -29 l-1 -5q-5 -23 -29 -23q-63 3 -136 3q-54 0 -152 -2q-14 -1 -20 6t-4 20l1 4q4 20 26 25q23 5 32 30t8 90l-8 205q-1 19 -11.5 21.5t-19.5 -14.5l-195 -367q-10 -18 -31 -18h-2z" glyph-name="M" horiz-adv-x="956" unicode="M"/><glyph d="M152 20q-4 -24 -30 -22q-44 2 -67 2q-44 0 -64 -2q-14 -1 -20.5 6t-4.5 20l1 5q4 19 27 24q28 6 44 35t32 102l78 367q4 18 -6 34q-28 46 -57 56q-25 8 -21 29l1 4q5 24 29 22q58 -2 103 -2q44 0 104 2q23 2 32 -17l75 -150l6 -13l101 -202q8 -17 19 -15.5t15 19.5 l39 186q15 71 12.5 99.5t-24.5 35.5q-24 10 -20 30l1 5q4 24 29 22q42 -2 66 -2q43 0 66 2q14 1 20.5 -5.5t4.5 -19.5l-1 -6q-4 -19 -27 -24q-28 -6 -44 -35t-32 -102l-103 -487q-4 -23 -29 -23h-40q-22 0 -31 19l-224 444q-8 16 -19 14.5t-15 -19.5l-57 -268 q-15 -71 -12.5 -99.5t24.5 -35.5q24 -8 20 -30z" glyph-name="N" horiz-adv-x="693" unicode="N"/><glyph d="M323 -15q-165 -1 -244 102t-45 263q34 159 157 262.5t288 102.5t244 -104t45 -261q-34 -159 -156.5 -261.5t-288.5 -103.5zM241 331q-13 -147 23 -227t108 -70q74 10 125 99.5t64 235.5q13 147 -22.5 226t-108.5 71t-124.5 -98.5t-64.5 -236.5z" glyph-name="O" horiz-adv-x="800" unicode="O"/><glyph d="M-20 -2q-14 -1 -20.5 6t-4.5 20l1 5q4 19 27 24q22 5 36.5 30.5t29.5 86.5l71 337q16 72 14.5 101.5t-20.5 37.5q-24 9 -20 29l1 5q5 23 29 23q65 -3 133 -3h204q123 0 178 -51.5t35 -145.5q-22 -100 -99 -154t-200 -54h-83q-25 0 -29 -23l-16 -79q-16 -71 -14.5 -101 t20.5 -37q24 -9 20 -29l-1 -6q-5 -24 -29 -22q-84 2 -134 2q-43 0 -129 -2zM285 373q-3 -13 3.5 -21t19.5 -8h3q61 0 106 43t61 116q32 149 -112 149q-23 0 -27 -23z" glyph-name="P" horiz-adv-x="667" unicode="P"/><glyph d="M66 -66q-32 -14 -30 -2q0 2 1 4l5 10q9 16 22 24q41 24 82 36q32 9 4 26q-73 46 -100.5 130t-5.5 188q34 159 157 262.5t288 102.5t244 -104t45 -261q-30 -142 -134 -241.5t-249 -119.5q-32 -3 -7 -25q9 -7 28.5 -25t30 -26t26.5 -16t30 -8q25 0 39.5 11.5t20.5 28l12 33 t21.5 28t41.5 11.5q27 0 38 -18.5t3 -45.5q-11 -42 -67 -73t-125 -31q-61 0 -113.5 18.5t-83 40.5t-70 40.5t-78.5 18.5q-29 0 -76 -17zM251 331q-13 -147 23 -227t108 -70q74 10 125 99.5t64 235.5q13 147 -22.5 226t-108.5 71t-124.5 -98.5t-64.5 -236.5z" glyph-name="Q" horiz-adv-x="810" unicode="Q"/><glyph d="M294 415q-7 -29 13 -29q56 0 96.5 35t55.5 104q14 65 -12.5 97t-82.5 32q-20 0 -24 -23zM348 182q-3 10 -7.5 30.5t-6.5 29.5t-6 23t-7 21.5t-8 15.5t-10 14q-10 10 -20 5t-13 -19l-23 -109q-15 -71 -13.5 -101t20.5 -37q23 -9 19 -30l-1 -5q-5 -24 -29 -22q-84 2 -134 2 q-41 0 -129 -2q-14 -1 -20 6t-4 20l1 5q4 19 27 24q23 6 38 32.5t28 89.5l75 352q23 106 -11 119q-23 9 -19 29l1 5q5 23 29 23q65 -3 133 -3h181q122 0 177.5 -46.5t38.5 -128.5q-28 -132 -178 -172q-26 -7 -3 -23q35 -25 52.5 -60.5t27.5 -87.5q24 -114 69 -129 q26 -10 21 -29q-5 -25 -26 -26q-61 -4 -112 -2.5t-89.5 29.5t-51.5 85z" glyph-name="R" horiz-adv-x="704" unicode="R"/><glyph d="M257 -15q-35 0 -64.5 5.5t-46.5 12t-31.5 11.5t-26.5 3.5t-26 -11.5q-16 -12 -33 -12h-7q-28 0 -25 27l25 220q3 24 28 24q23 0 28 -25q12 -85 63 -141t110 -56q49 0 80.5 25t41.5 72q8 38 -12.5 69.5t-57 52t-79 46t-78 51.5t-53.5 69t-6 97q17 81 91.5 135.5 t183.5 54.5q51 0 89.5 -8t52.5 -16t25.5 -8t22.5 14q13 16 32 16h6q28 0 25 -27l-21 -200q-3 -25 -27 -25h-1q-24 0 -28 24q-17 79 -57 128t-92 49q-91 0 -108 -81q-6 -30 8.5 -55t43 -43.5t64 -37.5t70 -42t61 -50.5t37.5 -69.5t0 -94q-20 -93 -105 -148.5t-203 -55.5z" glyph-name="S" horiz-adv-x="627" unicode="S"/><glyph d="M103 691q4 23 27 23h4q8 0 32 -8q19 -5 56 -6h336q44 1 62 7q19 7 32 7q12 0 17.5 -7.5t2.5 -20.5l-34 -164q-4 -23 -24 -23q-19 0 -17 27q2 58 -21 90t-92 32q-10 0 -14 -23l-91 -432q-16 -71 -14.5 -101t20.5 -37q24 -9 20 -29l-1 -6q-5 -24 -29 -22q-84 2 -135 2 q-42 0 -128 -2q-14 -1 -20 6t-4 20l1 5q4 19 26 24q23 6 37 31t29 86l95 448q3 14 -4 21.5t-21 5.5q-60 -8 -92 -40t-51 -85q-8 -21 -26 -21q-8 0 -12 7.5t-1 20.5z" glyph-name="T" horiz-adv-x="632" unicode="T"/><glyph d="M584 234q-25 -113 -106 -177.5t-197 -64.5q-137 0 -196.5 63.5t-34.5 178.5l71 335q10 67 -18 77q-24 11 -19 29l1 5q5 23 29 23q65 -3 133 -3q44 0 130 2q14 1 20.5 -6t3.5 -19l-1 -5q-4 -19 -27 -24q-23 -6 -37.5 -34t-29.5 -95l-60 -280q-18 -84 7.5 -130t83.5 -46 q65 0 121 44.5t75 131.5l58 271h-1q16 72 16.5 98.5t-15.5 36.5q-12 6 -16.5 11.5t-2.5 17.5l1 5q5 23 30 22q44 -2 55 -2q30 0 48 1q13 1 20 -5.5t5 -18.5l-1 -5q-4 -18 -27 -24q-17 -5 -27.5 -24t-21.5 -62z" glyph-name="U" horiz-adv-x="670" unicode="U"/><glyph d="M350 701q14 1 20 -5.5t5 -19.5v-4q-3 -20 -26 -26q-21 -5 -25.5 -30t6.5 -96l39 -240q3 -19 13.5 -20.5t19.5 14.5l148 269q28 53 33 74.5t-9 27.5q-24 9 -18 29l2 6q6 23 30 21q52 -2 72 -2q37 0 55 2q15 1 21.5 -6t3.5 -19l-2 -7q-5 -19 -28 -22q-30 -5 -58 -31.5 t-65 -95.5l-277 -502q-10 -18 -31 -18h-34q-23 0 -28 24l-84 504q-12 63 -24.5 88t-34.5 30q-26 6 -22 28l1 5q4 23 29 22q76 -2 121 -2q51 0 147 2z" glyph-name="V" horiz-adv-x="657" unicode="V"/><glyph d="M345 701q14 1 20 -5.5t5 -19.5v-4q-3 -20 -26 -26q-17 -5 -18 -30.5t10 -95.5l40 -249q3 -19 13.5 -21t19.5 15l67 119q9 16 6 34l-22 137q-17 79 -42 89q-13 6 -17.5 11.5t-2.5 17.5l1 6q4 23 28 22q88 -2 158 -2q63 0 151 2q14 1 20.5 -6t3.5 -19l-2 -6q-6 -22 -29 -23 q-40 -3 -64 -31q-11 -13 -8 -33l46 -308q3 -19 13.5 -20.5t19.5 14.5l151 274q29 56 32 76.5t-16 26.5q-26 6 -20 29l2 5q5 22 30 22q50 -3 82 -3q34 0 50 1q15 1 21.5 -5.5t3.5 -18.5l-2 -7q-5 -19 -28 -22q-28 -5 -54 -31.5t-64 -95.5l-277 -502q-11 -18 -31 -18h-44 q-25 0 -28 24l-41 257q-3 19 -13.5 21t-19.5 -15l-150 -269q-10 -18 -31 -18h-45q-23 0 -28 24l-84 504q-12 63 -24.5 88t-33.5 30q-26 6 -22 28l1 5q4 23 28 22q80 -2 127 -2t137 2z" glyph-name="W" horiz-adv-x="989" unicode="W"/><glyph d="M519 680q6 23 30 21q62 -2 88 -2q38 0 57 2q14 1 20.5 -6t3.5 -19l-2 -6q-6 -22 -27 -23q-33 -5 -64.5 -29.5t-87.5 -91.5l-100 -125q-13 -16 -7 -35l66 -196q21 -57 37 -82t38 -32q24 -9 19 -31l-1 -5q-5 -24 -29 -22q-74 2 -133 2t-143 -2q-14 -1 -20 6t-4 20l1 4 q4 20 27 25q21 5 23.5 26t-12.5 68l-9 28q0 1 -1 3t-1 3l-16 50q-4 15 -15 17t-21 -10l-70 -87q-21 -26 -32.5 -42.5t-16.5 -28.5t-3 -17.5t11 -8.5q25 -7 20 -30l-1 -5q-6 -23 -30 -21q-56 2 -78 2q-44 0 -67 -2q-14 -1 -20.5 6.5t-3.5 19.5l1 5q6 22 28 23q33 5 64.5 30 t90.5 94l101 124q13 16 7 35l-61 183q-21 64 -37.5 91t-40.5 34q-24 9 -19 31l1 5q5 23 29 23q60 -3 142 -3q55 0 139 2q14 1 20 -5.5t4 -19.5l-1 -5q-4 -20 -27 -25q-17 -3 -24 -13t-5.5 -28.5t10.5 -49.5l28 -84q5 -15 15 -16.5t20 10.5l47 58q76 96 68 115q-2 5 -8 7 q-24 9 -19 29z" glyph-name="X" horiz-adv-x="664" unicode="X"/><glyph d="M523 681q6 23 30 21q54 -2 75 -2q35 0 52 1q14 1 21 -5.5t4 -18.5l-1 -5q-6 -20 -28 -24q-27 -5 -55.5 -32t-75.5 -97l-133 -196q-9 -13 -12 -30l-22 -100q-16 -71 -14.5 -101t20.5 -37q24 -9 20 -29l-1 -6q-5 -24 -29 -22q-82 2 -131 2q-42 0 -126 -2q-14 -1 -20 6 t-4 20l1 5q4 20 26 24q24 6 38.5 34t30.5 98l17 82q3 17 -1 33l-70 255q-14 46 -27 66.5t-31 25.5q-26 8 -22 29l1 4q4 23 28 22q70 -2 127 -2t143 2q13 1 20 -6t5 -19l-1 -4q-4 -21 -27 -24q-15 -2 -21 -9.5t-4 -34t13.5 -72t36.5 -130.5q3 -10 9 -14.5t13 -2t13 11.5 l82 121q30 45 44 71.5t14.5 39.5t-10.5 17q-24 10 -19 29z" glyph-name="Y" horiz-adv-x="636" unicode="Y"/><glyph d="M538 191q21 0 13 -29l-44 -155q-6 -22 -29 -22h-8q-6 0 -32 7q-26 8 -99 8h-345q-16 0 -21 9t4 23l415 585q9 13 4 22.5t-21 9.5h-100q-63 0 -99 -29.5t-58 -80.5q-9 -20 -29 -20q-22 0 -14 29l42 144q6 22 29 22h8q8 0 32 -8q16 -6 57 -6h363q16 0 21 -9t-4 -23 l-421 -597q-9 -12 -6.5 -17t16.5 -5h160q85 0 136 122q9 20 30 20z" glyph-name="Z" horiz-adv-x="601" unicode="Z"/><glyph d="M438 755q-4 -23 -28 -23h-33t-22.5 -8t-17 -17.5t-13 -38t-14.5 -58.5t-17 -89q-31 -163 -57 -286q-22 -104 -55.5 -244t-31.5 -166q3 -24 29 -27q10 -1 28 -1q29 0 23 -28l-1 -5q-4 -23 -28 -23q-41 0 -66 2.5t-52 10t-40.5 21.5t-25.5 39t-13.5 60.5t2 87.5t14.5 118.5 t30 154.5q21 100 40 176t39 134t36.5 97.5t40 67t42 42.5t49 23.5t55 10.5t65.5 3q29 0 23 -29z" glyph-name="bracketleft" horiz-adv-x="371" unicode="["/><glyph d="M93 752q-2 13 4.5 20.5t19.5 7.5h11q25 0 28 -24l147 -978q2 -13 -4.5 -20.5t-19.5 -7.5h-11q-25 0 -28 24z" glyph-name="backslash" horiz-adv-x="396" unicode="\"/><glyph d="M134 732q-13 0 -19 8t-3 21l1 5q4 23 28 23q34 -1 53.5 -2t44.5 -5.5t38 -12.5t28 -22.5t20 -35t9.5 -51t1.5 -70t-9 -92.5t-18 -117.5t-29 -145.5q-19 -87 -35.5 -153.5t-35 -118t-35 -87t-39 -60.5t-41.5 -39.5t-48.5 -22.5t-55.5 -10.5t-65 -2.5q-29 0 -23 28l1 5 q4 23 28 23q56 -1 70.5 24t41.5 167q27 141 50 247q17 78 36.5 165.5t25.5 112.5q38 159 35.5 189.5t-56.5 29.5z" glyph-name="bracketright" horiz-adv-x="371" unicode="]"/><glyph d="M-33 -26q4 23 29 23h312q13 0 19.5 -7.5t3.5 -20.5l-1 -6q-4 -23 -29 -23h-312q-13 0 -19.5 7.5t-3.5 20.5z" glyph-name="underscore" horiz-adv-x="457" unicode="_"/><glyph d="M49 660q-27 8 -14 34l22 43q12 23 35 11l205 -119q20 -12 13 -31q-9 -20 -32 -12z" glyph-name="grave" horiz-adv-x="293" unicode="`"/><glyph d="M491 129q-12 -56 10 -60q4 -1 10 -1.5t8.5 -1t6 -2.5t5.5 -6q8 -20 -8 -32q-48 -40 -122 -40q-69 0 -93 47q-9 20 -24 4q-49 -51 -129 -51q-89 0 -129.5 52t-30.5 136q15 132 94 215.5t195.5 110.5t257.5 5q26 -5 21 -31zM184 194q-8 -63 2 -98.5t34 -35.5 q41 0 65.5 59.5t57.5 208.5l23 110q6 30 -3 30q-51 0 -107 -72t-72 -202z" glyph-name="a" horiz-adv-x="608" unicode="a"/><glyph d="M263 483q-4 -18 2 -20.5t20 10.5q43 41 101 41q102 0 148 -68t23 -176q-26 -127 -116 -205.5t-239 -78.5q-113 0 -157.5 72t-14.5 216l62 293q13 63 11 88.5t-20 31.5q-25 8 -20 29l1 5q4 23 28 24q92 8 202 28q14 3 21 -3.5t4 -21.5zM196 160q-22 -133 27 -133 q83 0 136 219q50 212 -7 212q-48 0 -89.5 -87t-66.5 -211z" glyph-name="b" horiz-adv-x="603" unicode="b"/><glyph d="M344 368q6 28 29 51q26 24 1 36q-17 7 -34 7q-53 0 -92.5 -55t-53.5 -141q-14 -89 11.5 -145t77.5 -56q63 0 116 50q17 16 34 6q18 -11 1 -33q-85 -102 -221 -102q-121 0 -176.5 73t-31.5 192q25 122 113 193t208 71q81 0 134 -45t41 -102q-7 -35 -34.5 -57t-61.5 -22 t-51 21.5t-10 57.5z" glyph-name="c" horiz-adv-x="514" unicode="c"/><glyph d="M526 129q-12 -56 10 -60q4 -1 10 -1.5t8.5 -1t6 -2.5t5.5 -6q8 -20 -8 -32q-48 -40 -122 -40q-63 0 -90 41q-12 20 -28 5q-58 -48 -132 -48q-110 0 -158.5 68.5t-24.5 183.5q28 132 106 205.5t194 73.5q49 0 81 -24q26 -18 31 9l14 67q13 63 11 88.5t-20 31.5 q-25 8 -20 29l1 5q4 23 28 24q92 8 204 28q14 3 21 -3.5t4 -21.5l-34 -158zM199 253q-19 -100 -6 -152.5t54 -52.5q30 0 58 38t42 96l13 60l3 15q19 99 6 150t-50 51q-35 0 -68.5 -56.5t-51.5 -148.5z" glyph-name="d" horiz-adv-x="644" unicode="d"/><glyph d="M227 -15q-127 0 -183 72t-36 188q20 119 111.5 194.5t217.5 75.5q178 0 176 -118q-1 -63 -76 -126t-216 -91q-28 -7 -22 -31q18 -89 90 -89q71 0 126 51q17 17 36 6q20 -12 6 -30q-77 -102 -230 -102zM198 239q-1 -9 20 -2q6 3 13 6q55 30 86 80.5t33 97.5q3 50 -24 50 q-39 0 -75.5 -61.5t-51.5 -160.5z" glyph-name="e" horiz-adv-x="533" unicode="e"/><glyph d="M333 674q6 29 28 51q7 7 15 13t12 8l4 3h-4q-91 0 -101 -178q-2 -45 11.5 -58t50.5 -13h31q16 0 22 -9q2 -4 2 -17l-1 -1q-6 -23 -28 -23h-58q-25 0 -29 -25l-94 -444q-26 -122 -96.5 -180.5t-216.5 -65.5q-23 -1 -31 20t18 29q98 28 134 193l86 411q11 51 -18 60 q-25 9 -21 28v2q4 19 28 25q17 5 28 19t15 27t9 37q45 210 245 210q68 0 102.5 -34t22.5 -88q-7 -36 -36.5 -59.5t-65.5 -23.5t-54 23t-10 60z" glyph-name="f" horiz-adv-x="376" unicode="f"/><glyph d="M495 590q12 25 38 37t49 6q25 -6 33 -29.5t-4 -51.5q-21 -52 -109 -66q-24 -3 -6 -21q53 -47 34 -133q-16 -76 -84.5 -124.5t-182.5 -53.5q-18 0 -33 -9l-33 -19q-18 -13 -4 -17h113q114 0 175.5 -41.5t42.5 -126.5q-14 -64 -82.5 -113.5t-153.5 -72t-167 -22.5 q-110 0 -167.5 29t-45.5 85q11 53 90 94q34 18 34 21q0 1 -2 1q-43 0 -61.5 21t-4 51t57.5 52l100 51q16 8 14 17t-19 15q-61 20 -86 62.5t-14 99.5q18 86 94.5 135t202.5 49q23 0 34 -1q91 0 128 3q23 1 15 24q-7 24 4 48zM79 -134q-8 -39 14.5 -60.5t80.5 -21.5 q64 0 124 32t72 90q4 9 1.5 19t-10 19.5t-33.5 15t-67 5.5l-62 -1q-22 0 -43 -13q-66 -40 -77 -85zM210 321q-2 -58 13.5 -93t47.5 -30q31 5 49.5 46t21.5 99q2 64 -14 99t-47 30q-32 -6 -50.5 -47t-20.5 -104z" glyph-name="g" horiz-adv-x="592" unicode="g"/><glyph d="M281 476q-4 -18 3 -21.5t21 8.5q59 53 126 53q91 0 126.5 -46.5t19.5 -126.5l-45 -214q-12 -56 10 -60q4 -1 10 -1.5t8.5 -1t6 -2.5t5.5 -6q8 -20 -8 -32q-48 -40 -122 -40q-64 0 -90 39.5t-11 107.5l44 209q10 53 2 74.5t-34 21.5q-28 0 -64 -47t-47 -97v1l-58 -272 q-4 -23 -29 -23h-137q-13 0 -19.5 8t-3.5 21l119 557q10 52 7 73.5t-20 27.5q-25 8 -21 29l1 5q4 23 28 24q96 8 204 28q14 3 21 -3.5t4 -21.5z" glyph-name="h" horiz-adv-x="641" unicode="h"/><glyph d="M195 575q-45 0 -66 26.5t-11 71.5q9 45 41 71t77 26t65.5 -26t11.5 -71q-10 -45 -41.5 -71.5t-76.5 -26.5zM53 313q13 63 11 88.5t-20 31.5q-25 8 -20 29l1 5q4 22 28 24q119 5 201 19q14 2 21 -4.5t4 -21.5l-75 -355q-12 -56 10 -60q4 -1 10 -1.5t8.5 -1t6 -2.5t5.5 -6 q8 -20 -8 -32q-48 -40 -122 -40q-64 0 -89 39.5t-10 107.5z" glyph-name="i" horiz-adv-x="327" unicode="i"/><glyph d="M56 338q9 49 6 69.5t-20 25.5q-25 8 -21 29l1 5q4 22 28 24q120 5 204 19q14 2 21 -4.5t4 -21.5l-120 -566q-18 -85 -82.5 -134t-155.5 -49q-60 0 -94 27t-32 72q0 12 2 20q0 3 1 5q8 34 36.5 58.5t63.5 24.5t54.5 -24.5t11.5 -58.5q-6 -31 -28 -53q-4 -4 -12 -11 q-11 -10 -7 -11q3 -1 9 -1q65 0 83 83q9 44 -6 97t-10 80zM120 673q10 45 42 71t77 26t65.5 -26t10.5 -71q-9 -45 -40.5 -71.5t-76.5 -26.5t-66 26.5t-12 71.5z" glyph-name="j" horiz-adv-x="314" unicode="j"/><glyph d="M270 401q-3 -14 4.5 -21.5t21.5 -3.5q76 19 123 40q12 6 12.5 13.5t-6.5 19.5q-10 17 -5 43q6 29 33 50t59 21q26 0 43 -17.5t16 -42.5q1 -48 -47 -82t-130 -61q-26 -8 0 -18q70 -25 96 -117l36 -137q7 -23 21 -26q4 -1 9.5 -1h8.5t5.5 -1.5t4.5 -5.5q8 -19 -4 -32 q-35 -38 -97 -38q-58 0 -91.5 26t-49.5 84q-7 27 -17 65.5t-15.5 59t-12.5 42t-13 33.5q-7 13 -17 9t-13 -19l-55 -261q-4 -23 -29 -23h-137q-13 0 -19.5 8t-3.5 21l119 557q10 52 7 73.5t-20 27.5q-25 8 -21 29l1 5q4 23 28 24q92 8 204 28q14 3 21 -3.5t4 -21.5z" glyph-name="k" horiz-adv-x="621" unicode="k"/><glyph d="M196 129q-12 -56 10 -60q4 -1 10 -1.5t8.5 -1t6 -2.5t5.5 -6q8 -20 -8 -32q-48 -40 -122 -40q-64 0 -89 39.5t-10 107.5l93 444q13 63 11 88.5t-20 31.5q-25 8 -20 29l1 5q4 22 28 24q118 5 202 19q14 2 21 -4.5t4 -21.5z" glyph-name="l" horiz-adv-x="316" unicode="l"/><glyph d="M249 300l-1 -1v-1q0 -2 -1 -3l-57 -272q-4 -23 -29 -23h-137q-13 0 -19.5 8t-3.5 21l62 292q10 52 7 74t-20 28q-25 8 -20 29l1 5q4 23 28 24q94 8 203 28q14 3 21 -3.5t4 -21.5l-1 -6q-4 -17 3.5 -21t21.5 8q61 51 127 51q108 0 130 -77q4 -12 8 -13t12 9q65 81 158 81 q84 0 115.5 -46.5t14.5 -126.5l-45 -214q-12 -56 10 -60q4 -1 10 -1.5t8.5 -1t6 -2.5t5.5 -6q8 -20 -8 -32q-48 -40 -122 -40q-64 0 -90 39.5t-11 107.5l44 209q20 93 -25 93q-27 0 -56 -39t-42 -89l-60 -284q-4 -23 -29 -23h-139q-13 0 -19.5 7.5t-3.5 20.5l66 314 q20 93 -25 93q-31 0 -62 -48.5t-40 -86.5z" glyph-name="m" horiz-adv-x="941" unicode="m"/><glyph d="M190 23q-4 -23 -29 -23h-137q-13 0 -19.5 7.5t-3.5 20.5l61 292q20 92 -12 103q-25 8 -20 29l1 5q4 23 28 24q94 8 203 28q14 3 21 -3.5t4 -21.5l-2 -7q-4 -18 3.5 -21.5t21.5 8.5q61 52 126 52q91 0 126.5 -46.5t19.5 -126.5l-45 -214q-12 -56 10 -60q4 -1 10 -1.5 t8.5 -1t6 -2.5t5.5 -6q8 -20 -8 -32q-48 -40 -122 -40q-64 0 -90 39.5t-11 107.5l44 209q10 53 2 74.5t-34 21.5q-28 0 -63.5 -45.5t-46.5 -95.5z" glyph-name="n" horiz-adv-x="646" unicode="n"/><glyph d="M227 -15q-127 0 -186.5 74.5t-34.5 191.5q25 116 115.5 190.5t217.5 74.5t186 -74.5t34 -190.5q-24 -117 -114.5 -191.5t-217.5 -74.5zM195 236q-4 -96 17.5 -150t60.5 -49q42 5 68 65.5t30 163.5q4 98 -16.5 151.5t-61.5 46.5q-42 -7 -68 -66.5t-30 -161.5z" glyph-name="o" horiz-adv-x="605" unicode="o"/><glyph d="M136 -227q-4 -23 -29 -23h-136q-13 0 -19.5 8t-3.5 21l111 524q13 63 11 88.5t-20 31.5q-25 8 -20 29l1 5q4 23 28 24q96 6 203 28q14 3 21.5 -2t5.5 -17q-3 -12 11 -9q8 2 18 8q44 26 101 26q109 0 157 -67t21 -195q-25 -116 -107.5 -192.5t-189.5 -76.5q-54 0 -85 22 q-26 17 -32 -11zM225 193q-14 -61 -1 -103t45 -42q39 0 75 53.5t59 151.5q20 94 10.5 149.5t-42.5 55.5q-37 0 -71.5 -46t-55.5 -130z" glyph-name="p" horiz-adv-x="646" unicode="p"/><glyph d="M580 509q13 0 18.5 -8t2.5 -21l-14 -65l-136 -642q-4 -23 -29 -23h-136q-13 0 -19.5 8t-3.5 21l48 224q4 17 -3.5 21.5t-22.5 -5.5q-48 -34 -113 -34q-99 0 -144.5 69t-22.5 176q26 125 105.5 205t209.5 80q45 0 85.5 -10t60.5 -19.5t39.5 -9.5t34.5 17q13 16 32 16h8z M207 254q-20 -86 -12.5 -144t43.5 -57q31 1 66 50.5t56 132.5l17 79q13 76 -2 112t-46 36q-41 0 -72.5 -62t-49.5 -147z" glyph-name="q" horiz-adv-x="637" unicode="q"/><glyph d="M189 23q-4 -23 -29 -23h-136q-13 0 -19.5 8t-3.5 21l64 300q10 54 7.5 76t-19.5 28q-25 8 -21 29l1 5q4 22 28 24q118 5 201 19q14 2 21 -4.5t4 -21.5l-3 -17q-4 -19 2.5 -21.5t19.5 11.5q56 59 127 59h2q33 0 51 -23.5t11 -55.5q-7 -35 -34.5 -57t-61.5 -22 q-52 0 -62 46q-4 26 -20 8q-58 -70 -82 -162z" glyph-name="r" horiz-adv-x="488" unicode="r"/><glyph d="M-26 146q6 35 34.5 58.5t64.5 23.5q34 0 53.5 -23.5t12.5 -58.5q-9 -42 -43 -66q-26 -21 0 -28q17 -5 32 -5q24 0 47 11t45 38.5t27.5 73.5t-5.5 116q-4 17 -15 20.5t-22 -9.5q-16 -17 -48 -49q-18 -18 -36 0l-3 3q-18 18 -1 37q32 33 80 90q14 17 5 35q-25 52 -25 77 q0 33 24.5 52t60.5 19q35 0 59.5 -17.5t24.5 -43.5q0 -22 -14 -50q-12 -19 0 -36q8 -12 31.5 -46.5t32 -49.5t21.5 -44t16 -56t0 -59q-9 -77 -77.5 -126t-179.5 -49q-101 0 -159 46t-43 116z" glyph-name="s" horiz-adv-x="489" unicode="s"/><glyph d="M63 381q9 56 -24 66q-25 9 -21 29v1q4 22 28 24q160 14 208 194q6 23 28 23h17q13 0 19.5 -8t3.5 -21l-35 -160q-3 -13 3.5 -21t19.5 -8h21q13 0 19.5 -7.5t3.5 -19.5l-1 -4q-4 -23 -28 -23h-32q-25 0 -29 -23l-62 -294q-12 -56 10 -60q4 -1 10 -1.5t8.5 -1t6 -2.5 t5.5 -6q8 -20 -8 -32q-48 -40 -122 -40q-64 0 -90 39.5t-11 107.5z" glyph-name="t" horiz-adv-x="329" unicode="t"/><glyph d="M50 303q13 62 11.5 87.5t-18.5 32.5q-25 8 -20 29l1 5q4 23 28 24q92 8 204 28q14 3 21 -4t4 -22l-39 -178l-31 -147q-20 -95 30 -95q30 0 64.5 37.5t44.5 85.5v-1l25 118q13 63 11 88.5t-20 31.5q-25 8 -20 29l1 5q4 23 28 24q92 8 204 28q14 3 21 -3.5t4 -21.5l-5 -24 l-70 -331q-12 -56 11 -60q4 -1 10 -1.5t8.5 -1t6 -2.5t5.5 -6q8 -20 -8 -32q-48 -40 -122 -40q-83 0 -102 65q-3 12 -7 13.5t-12 -8.5q-30 -35 -72.5 -53.5t-81.5 -18.5q-91 0 -127 46.5t-19 126.5z" glyph-name="u" horiz-adv-x="652" unicode="u"/><glyph d="M350 459q5 29 30.5 49t55.5 20q38 0 51 -30h1q12 -34 12 -85.5t-11.5 -108.5t-38 -114t-62 -103t-88 -74.5t-112.5 -28.5q-92 0 -132.5 57.5t-19.5 153.5l23 108q13 62 11.5 87.5t-18.5 32.5q-25 8 -20 29l1 5q4 23 28 24q92 8 204 28q14 3 21 -3.5t4 -21.5l-57 -267 q-13 -61 -14.5 -95.5t6.5 -47t26 -12.5q73 0 134.5 105.5t66.5 235.5q-21 -15 -46 -15q-30 0 -46.5 20.5t-9.5 50.5z" glyph-name="v" horiz-adv-x="526" unicode="v"/><glyph d="M246 62q66 0 115 205l31 146q4 23 29 23l124 -1q13 0 19.5 -7.5t3.5 -20.5l-40 -190q-13 -61 -15 -95t4.5 -47t22.5 -13q54 0 108.5 94t67.5 212q2 15 -3 21t-16 3q-11 -4 -24 -4q-29 0 -42.5 19.5t-8.5 51.5q5 29 28 49t53 20q26 0 43 -17q4 -5 7 -11l2 -2 q12 -34 12 -85.5t-11.5 -108.5t-36.5 -114.5t-59 -103t-83 -74t-104 -28.5q-74 0 -110 56q-13 22 -31 4q-62 -60 -144 -60q-92 0 -132.5 57.5t-19.5 153.5l23 108q13 62 11.5 87.5t-18.5 32.5q-25 8 -20 29l1 5q4 23 28 24q92 8 204 28q14 3 21 -3.5t4 -21.5l-57 -267 q-34 -155 13 -155z" glyph-name="w" horiz-adv-x="793" unicode="w"/><glyph d="M324 373q6 -15 16.5 -16t19.5 13q32 46 64 88q45 57 99 57h5q34 0 50.5 -21.5t10.5 -52.5q-6 -32 -31.5 -54t-56.5 -22q-30 0 -47 22q-9 10 -14 11t-13 -8q-16 -20 -57 -81q-11 -16 -3 -36l75 -176q15 -36 44 -48q24 -8 20 -27v-1q-4 -22 -24 -26q-68 -14 -140.5 4 t-97.5 75l-20 45q-6 15 -16 16t-19 -12q-45 -62 -77 -95q-42 -42 -84 -42h-6q-34 0 -50.5 21.5t-10.5 52.5q6 32 31.5 54t56.5 22t49 -24q13 -20 27 -4q30 40 54 76q11 16 3 36l-70 164q-21 50 -43 63q-8 5 -11 8t-5 8.5t-1 13.5l1 3q4 21 19 24q62 14 135.5 -7.5 t99.5 -82.5z" glyph-name="x" horiz-adv-x="588" unicode="x"/><glyph d="M-48 -265q-52 1 -67.5 45.5t14.5 77.5q23 28 58 28q28 0 43.5 -18.5t13.5 -45.5q1 -3 4 -6t11.5 -8t17.5 4q49 34 112 107q13 15 10 34q-16 142 -62.5 305.5t-89.5 196.5q-2 1 -5 3.5t-4 3t-3.5 2.5t-2.5 3t-1.5 3t-1 3.5t0.5 4.5q3 20 21 25q31 11 71 11q109 0 147 -92 q44 -109 65 -228q2 -12 7.5 -16.5t12 -1.5t11.5 14q47 92 73 174q3 9 4 16t0.5 10.5t-2.5 3.5h-8q-31 1 -48.5 20.5t-14.5 49.5q2 28 25.5 48.5t53.5 19.5q29 -1 46 -21.5t15 -48.5v-1q-12 -86 -66 -210t-127.5 -239.5t-165 -196.5t-168.5 -80z" glyph-name="y" horiz-adv-x="496" unicode="y"/><glyph d="M-10 2q-16 0 -21 9t5 22l293 394q8 11 5 20.5t-17 13.5q-73 20 -104 20l-2.5 -2.5t-4 -7.5t0.5 -14q5 -12 3 -28q-4 -24 -23.5 -41.5t-43.5 -17.5q-21 0 -35 13t-16 33q-7 46 36 77t103 29q31 -1 135 -15.5t169 -9.5q7 1 10 -3.5t1 -12t-8 -16.5l-280 -388 q-16 -23 12 -34q4 -1 26.5 -9t32 -11t27 -5.5t31.5 -1.5q8 1 1 14l-5 10q-7 13 -4 32q5 24 25 41.5t44 17.5q21 0 34.5 -13t15.5 -33q5 -44 -32.5 -76.5t-90.5 -34.5q-51 -2 -163 13t-160 15z" glyph-name="z" horiz-adv-x="496" unicode="z"/><glyph d="M36 239q-26 3 -22 26l1 3q4 21 28 23t36 26t12 96q1 193 78.5 280.5t215.5 94.5q13 1 19.5 -6t4.5 -19l-1 -5q-4 -20 -28 -23q-23 -3 -38.5 -10t-26.5 -25.5t-17 -36t-10 -58t-5.5 -72t-3.5 -96.5q-4 -108 -97 -160q-22 -11 -1 -27q65 -51 24 -157q-69 -180 -75 -227 q-8 -57 35 -68q5 -1 11 -2q26 -5 22 -29l-1 -3q-5 -24 -29 -22q-66 3 -109.5 23.5t-66.5 63t-14 115.5t51 173q20 47 25.5 74.5t0 36.5t-18.5 11z" glyph-name="braceleft" horiz-adv-x="350" unicode="{"/><glyph d="M237 780q13 0 19 -8t3 -21l-207 -976q-4 -23 -29 -23h-3q-13 0 -19.5 8t-3.5 21l207 976q4 23 29 23h4z" glyph-name="bar" horiz-adv-x="286" unicode="|"/><glyph d="M306 261q-5 -21 -29 -22q-24 -2 -36 -25.5t-12 -96.5q-1 -193 -78.5 -280.5t-215.5 -94.5q-13 -1 -19.5 6t-4.5 19l1 5q4 20 28 23q22 3 37.5 9.5t26.5 25.5t17 36t10 58t6 72.5t4 96.5q4 108 97 160q22 11 1 27q-65 51 -24 157q69 179 75 226q8 57 -34 68q-5 2 -12 3 q-25 4 -21 29v2q5 25 29 23q66 -3 109.5 -23.5t66.5 -63.5t14 -115.5t-51 -172.5q-20 -47 -25.5 -74.5t0 -36.5t18.5 -11q27 -3 23 -25z" glyph-name="braceright" horiz-adv-x="350" unicode="}"/><glyph d="M54 -197q-32 0 -46 18.5t-5 49.5l115 386q10 33 40 33t25 -42l-48 -389q-7 -56 -63 -56h-18zM106 429q8 38 34 59.5t64 21.5q37 0 54 -21.5t9 -59.5q-8 -39 -33.5 -60t-63.5 -21t-55 21t-9 60z" glyph-name="exclamdown" horiz-adv-x="322" unicode="¡"/><glyph d="M402 715q12 0 17.5 -8t2.5 -21l-12 -53q-5 -24 20 -32q28 -10 40 -2q22 15 33 15h2q27 0 24 -28l-20 -151q-3 -24 -23 -24t-23 26q-9 82 -42 109q-11 9 -20 4t-12 -19l-75 -354q-3 -14 3.5 -22t20.5 -5q56 11 98 48q22 20 29 8q10 -14 -6 -30q-56 -62 -143 -83 q-22 -5 -26 -25l-13 -63q-4 -23 -28 -23q-13 0 -19.5 8t-3.5 21l10 48q6 26 -22 29q-108 13 -155 86.5t-23 187.5q23 109 102 176t193 74q24 2 28 24l12 56q4 23 28 23h3zM195 378q-15 -67 -5.5 -122.5t41.5 -83.5q11 -9 20.5 -4.5t12.5 18.5l74 349q6 30 -5 30h-3 q-44 -10 -81 -56t-54 -131z" glyph-name="cent" horiz-adv-x="550" unicode="¢"/><glyph d="M-15 0q-17 0 -21 10t9 23q137 144 156 243q2 12 -5 19.5t-20 7.5h-4q-28 0 -23 25v2q5 23 28 23q11 0 15.5 7.5t1.5 20.5q-19 78 -15 123q1 16 5 33q17 81 94 129.5t197 48.5q32 0 59 -5t41.5 -11t25.5 -10.5t18 -3.5t14 10q12 18 31 18h5q28 0 25 -27l-21 -200 q-3 -25 -27 -25t-28 25q-15 93 -44.5 132t-81.5 39q-38 0 -69 -32t-43 -86q-8 -36 -10.5 -89t-4.5 -70q-3 -28 24 -28h85q29 0 24 -25v-2q-5 -23 -29 -23h-106q-20 0 -30 -19q-27 -50 -75 -108q-11 -13 -7 -22.5t21 -9.5l192 2q52 1 75 20t44 74q9 22 31 21q26 -2 18 -30 l-67 -213q-7 -22 -30 -20q-57 3 -122 3h-356z" glyph-name="sterling" horiz-adv-x="624" unicode="£"/><glyph d="M306 67q-76 0 -132 35q-19 13 -36 -1l-96 -79q-20 -17 -36 3l-2 2q-16 20 4 37l95 79q17 14 8 36q-23 54 -8 121q15 70 63 124q17 20 2 37l-56 72q-16 21 4 36l12 9q20 17 36 -4l56 -71q15 -18 36 -7q68 37 150 37q76 0 132 -35q19 -13 36 1l96 79q20 17 36 -3l2 -2 q16 -20 -4 -37l-95 -79q-17 -14 -8 -36q23 -54 8 -121q-15 -69 -63 -125q-15 -20 -1 -37l55 -71q16 -21 -4 -36l-12 -9q-20 -17 -36 4l-56 71q-15 18 -35 8q-70 -38 -151 -38zM273 302q-18 -90 -5.5 -136.5t50.5 -46.5t70 47.5t50 135.5q18 89 6.5 134.5t-49.5 45.5 t-70.5 -46.5t-51.5 -133.5z" glyph-name="currency" horiz-adv-x="712" unicode="¤"/><glyph d="M112 307q4 23 28 23h28q30 0 22 29l-55 196q-14 46 -27 66.5t-31 25.5q-26 8 -22 29l1 4q4 23 28 22q80 -2 127 -2q52 0 148 2q13 1 20 -6t5 -19l-1 -4q-4 -21 -27 -24q-19 -3 -25.5 -13.5t-4 -33t15.5 -67.5l39 -132q3 -10 9 -14.5t13 -2t13 11.5l82 121q45 66 56 94 t-3 34q-13 5 -17.5 10.5t-1.5 17.5l1 6q6 23 30 21q52 -2 70 -2q38 0 57 2q14 1 21 -6t4 -19l-1 -5q-6 -20 -28 -24q-29 -5 -59 -32t-77 -97l-107 -157q-9 -13 -4 -22.5t21 -9.5h28q29 0 24 -25l-1 -3q-5 -23 -28 -23h-58q-24 0 -28 -22q-2 -11 4 -17t20 -6h46q29 0 24 -25 l-1 -3q-5 -23 -28 -23h-57q-25 0 -29 -25q-9 -52 -6 -74.5t19 -28.5q24 -9 20 -29l-1 -6q-5 -24 -29 -22q-84 2 -134 2q-42 0 -128 -2q-14 -1 -20 6t-4 20l1 5q4 19 26 24q21 5 35 27t27 73q4 13 -2.5 21.5t-20.5 8.5h-44q-29 0 -24 26v2q5 23 29 23h56q24 0 29 23 q3 22 -25 22h-45q-29 0 -23 28z" glyph-name="yen" horiz-adv-x="656" unicode="¥"/><glyph d="M237 780q13 0 19 -7.5t3 -20.5l-75 -358q-4 -23 -29 -23h-3q-13 0 -19.5 7.5t-3.5 20.5l75 358q4 23 29 23h4zM19 -250q-13 0 -19 7.5t-3 20.5l75 358q4 23 29 23h3q13 0 19.5 -7.5t3.5 -20.5l-75 -358q-4 -23 -29 -23h-4z" glyph-name="brokenbar" horiz-adv-x="286" unicode="¦"/><glyph d="M238 227q7 -22 30 -20q18 0 34 3q18 2 20 14.5t-14 20.5q-22 12 -26 14q-14 8 -35 2q-2 -1 -4 -4t-6 -11t0 -15zM-21 -51q-3 -27 21 -27h4q14 0 33 14q20 7 30 0.5t47.5 -18t79.5 -11.5q97 0 158.5 41.5t77.5 114.5q18 85 -54 141q-22 16 4 28q82 39 100 121 q9 42 -3 75.5t-37 53.5t-55 38.5t-56.5 30.5t-42.5 29t-12 36q6 28 26.5 45.5t45.5 17.5q34 0 63.5 -26t44.5 -81q6 -24 26 -24q21 0 24 24l14 132q3 27 -20 27h-3q-17 0 -32 -16q-6 -7 -12 -8t-16 2.5t-22.5 8t-38.5 8.5t-58 4q-82 0 -143.5 -39.5t-76.5 -106.5 q-8 -25 -2 -48t13 -37.5t24 -29.5t31.5 -24t35.5 -20q49 -26 64 -35q17 -11 23 -10q3 1 8 1l-19 32q-10 18 -31 17q-20 0 -45 -5q-59 -12 -100 -45.5t-52 -85.5q-10 -48 9.5 -83t53.5 -54.5t69 -36.5t57 -39.5t16 -52.5q-6 -29 -26.5 -48t-50.5 -19q-39 0 -78.5 33t-54.5 94 q-5 24 -25 24q-22 0 -24 -25zM223 326q5 31 35 46q20 11 33 -7q17 -20 11 -47q-5 -22 -20 -36q-16 -17 -40 2q-23 19 -19 42z" glyph-name="section" horiz-adv-x="533" unicode="§"/><glyph d="M83 572q-33 0 -47.5 18.5t-7.5 51.5q7 32 29.5 50.5t55.5 18.5q32 0 46.5 -18.5t7.5 -50.5q-7 -33 -29.5 -51.5t-54.5 -18.5zM202 642q7 32 29.5 50.5t55.5 18.5q32 0 46.5 -18.5t7.5 -50.5q-7 -33 -29.5 -51.5t-54.5 -18.5q-33 0 -47.5 18.5t-7.5 51.5z" glyph-name="dieresis" horiz-adv-x="369" unicode="¨"/><glyph d="M787 314q-35 -163 -168.5 -270.5t-292.5 -107.5q-160 0 -248 107.5t-53 270.5t168.5 270.5t292.5 107.5q160 0 248 -107.5t53 -270.5zM79 314q-30 -141 44.5 -236.5t211.5 -95.5t252.5 95.5t145.5 236.5t-44.5 236.5t-211.5 95.5t-252.5 -95.5t-145.5 -236.5zM189 322 q22 103 99 163t187 60q22 0 46 -6t33 -8.5t23 1.5q24 14 32 14q19 0 16 -28l-17 -128q-3 -24 -20 -24t-20 26q-6 60 -30.5 88.5t-72.5 28.5q-43 0 -82.5 -42.5t-57.5 -129.5q-18 -86 9 -145t91 -59q61 0 115 44q22 17 29 7q9 -12 -7 -29q-35 -36 -82.5 -56.5t-95.5 -20.5 q-115 0 -167 67t-28 177z" glyph-name="copyright" horiz-adv-x="832" unicode="©"/><glyph d="M343 457q3 -21 -17 -32q-58 -31 -102 -72t-53 -83q-8 -38 17 -76t67 -68q20 -15 9 -36l-1 -1q-13 -20 -35 -13q-93 37 -154 91t-50 103q11 53 95.5 109.5t192.5 93.5q26 9 31 -16zM217 270q10 48 82 103.5t174 96.5q29 12 32 -13v-3q3 -21 -17 -32q-49 -26 -83.5 -66.5 t-44.5 -85.5q-8 -39 8.5 -76.5t50.5 -62.5q21 -15 9 -36l-3 -4q-13 -23 -56 -1q-75 41 -117.5 90t-34.5 90z" glyph-name="guillemotleft" horiz-adv-x="543" unicode="«"/><glyph d="M218 507q-58 0 -92 43t-21 102q15 67 61.5 105.5t113.5 38.5q58 0 91.5 -43t21.5 -101q-14 -65 -61.5 -105t-113.5 -40zM135 651q-10 -47 17 -82t72 -35q52 0 90 34t48 83q10 48 -16 83t-72 35q-51 0 -90 -34.5t-49 -83.5zM189 585q-8 0 -11.5 1t-2.5 5q0 2 6 5.5t9 10.5 l4 17l14 62h-1q3 10 3 17q1 7 -3.5 11.5t-4.5 5.5q1 5 17 5h16h38q24 0 35 -9.5t7 -25.5q-6 -30 -41 -36q16 -9 20 -35q2 -11 4 -15q3 -6 9 -9t6 -4q1 -2 -2 -4t-9.5 -3.5t-14.5 -0.5q-25 4 -29 21l-4 17q-6 27 -12 30q-2 1 -3 1l-7 -31q-2 -10 -2 -12q0 -7 4.5 -11.5 t4.5 -6.5q-1 -6 -18 -6h-16h-16zM247 664q24 0 29 26q5 23 -19 23h-5l-10 -49h5z" glyph-name="registered" horiz-adv-x="378" unicode="®"/><glyph d="M45 643q5 23 28 23h235q29 0 23 -26l-1 -3q-5 -23 -28 -23h-234q-29 0 -23 29z" glyph-name="macron" horiz-adv-x="376" unicode="¯"/><glyph d="M210 480q-58 0 -93 32t-35 79q0 46 35 77.5t93 31.5t93 -31.5t35 -77.5q0 -47 -35 -79t-93 -32zM178 584q7 -31 20 -52.5t29 -18.5q30 5 15 84q-6 31 -19.5 52.5t-29.5 17.5q-16 -3 -19.5 -29t4.5 -54z" glyph-name="degree" horiz-adv-x="310" unicode="°"/><glyph d="M207 744q22 16 36 -9l19 -37q12 -24 -12 -34l-214 -89q-24 -10 -30 5q-6 13 13 28z" glyph-name="acute" horiz-adv-x="293" unicode="´"/><glyph d="M365 700q13 0 19.5 -8t3.5 -21l-160 -748q-4 -23 -29 -23h-7q-13 0 -19.5 8t-3.5 21l100 463q-30 1 -55 3.5t-50 9.5t-41.5 18t-30 29t-15 42t3.5 57q15 69 81 108.5t173 40.5h30zM287 -100q-13 0 -19.5 8t-3.5 21l161 748q4 23 28 23h7q13 0 19.5 -8t3.5 -21l-160 -748 q-4 -23 -29 -23h-7z" glyph-name="paragraph" horiz-adv-x="499" unicode="¶"/><glyph d="M122 209q-38 0 -55 21t-9 60q8 38 34 59.5t64 21.5q37 0 54 -21.5t9 -59.5q-8 -39 -33.5 -60t-63.5 -21z" glyph-name="periodcentered" horiz-adv-x="297" unicode="·"/><glyph d="M13 -212q-13 3 -17 11.5t2 17.5l1 2q7 12 32 17q15 3 27.5 14.5t15.5 27.5q3 18 -8 27t-13 13t3 16l41 66h49l-17 -28q-13 -22 13 -33q42 -19 32 -64q-11 -50 -61.5 -74t-99.5 -13z" glyph-name="cedilla" horiz-adv-x="196" unicode="¸"/><glyph d="M258 421q-19 15 -8 36l2 4q12 21 35 12q93 -37 153 -93.5t49 -109.5q-11 -48 -94.5 -102t-191.5 -91q-27 -9 -30 13q-4 21 16 32q57 30 101 69.5t52 78.5q8 41 -16.5 81t-67.5 70zM10 95q-3 22 17 32q48 26 82.5 64.5t43.5 78.5q9 43 -7 82.5t-51 65.5q-21 15 -9 36l3 6 q13 22 36 10q84 -41 132.5 -96.5t38.5 -103.5q-9 -43 -80.5 -96t-173.5 -94q-13 -5 -22 -1t-10 16z" glyph-name="guillemotright" horiz-adv-x="536" unicode="»"/><glyph d="M353 299q26 0 20 -29q-12 -51 -35 -90.5t-48 -64t-49.5 -47.5t-44 -52.5t-27.5 -65.5q-11 -51 5.5 -78.5t49.5 -27.5q109 0 204 179q10 19 31 19q24 0 16 -29l-59 -197q-6 -22 -30 -22h-11q-13 0 -30 19q-16 8 -26.5 2.5t-48.5 -16t-77 -10.5q-119 0 -173 44.5t-36 129.5 q10 49 43 85.5t75.5 59.5t85 44.5t79.5 53t52 71.5q9 22 30 22h4zM295 429q8 39 34 60t64 21t54.5 -21t8.5 -60q-8 -38 -34 -59.5t-64 -21.5q-37 0 -54 21.5t-9 59.5z" glyph-name="questiondown" horiz-adv-x="573" unicode="¿"/><glyph d="M438 700q23 0 28 -24l87 -497q13 -70 24.5 -95t33.5 -30q26 -6 20 -30l-1 -4q-5 -24 -29 -22q-68 2 -122 2q-63 0 -155 -2q-14 -1 -20.5 6t-3.5 20l1 5q4 22 28 23q29 4 34.5 24t-4.5 87l-2 16l-2 13q-5 23 -29 23h-163q-21 0 -31 -18l-19 -32q-18 -31 -27.5 -51.5 t-11 -33t2.5 -18.5t14 -8q27 -6 21 -30l-1 -4q-5 -24 -29 -22q-56 2 -77 2q-40 0 -60 -2q-14 -1 -21 6t-4 20l1 5q4 21 27 24q28 4 51 26t61 86l9 14l213 369q9 16 6 34l-15 90q-5 28 23 28h142zM189 296q-7 -14 -2 -22.5t20 -8.5h107q28 0 23 28l-26 152q-3 18 -13.5 20 t-19.5 -14zM291 816q-27 8 -14 34l22 43q12 23 35 11l205 -119q20 -12 13 -31q-9 -20 -32 -12z" glyph-name="Agrave" horiz-adv-x="687" unicode="À"/><glyph d="M438 700q23 0 28 -24l87 -497q13 -70 24.5 -95t33.5 -30q26 -6 20 -30l-1 -4q-5 -24 -29 -22q-68 2 -122 2q-63 0 -155 -2q-14 -1 -20.5 6t-3.5 20l1 5q4 22 28 23q29 4 34.5 24t-4.5 87l-2 16l-2 13q-5 23 -29 23h-163q-21 0 -31 -18l-19 -32q-18 -31 -27.5 -51.5 t-11 -33t2.5 -18.5t14 -8q27 -6 21 -30l-1 -4q-5 -24 -29 -22q-56 2 -77 2q-40 0 -60 -2q-14 -1 -21 6t-4 20l1 5q4 21 27 24q28 4 51 26t61 86l9 14l213 369q9 16 6 34l-15 90q-5 28 23 28h142zM189 296q-7 -14 -2 -22.5t20 -8.5h107q28 0 23 28l-26 152q-3 18 -13.5 20 t-19.5 -14zM497 924q22 16 36 -9l19 -37q12 -24 -12 -34l-214 -89q-24 -10 -30 5q-6 13 13 28z" glyph-name="Aacute" horiz-adv-x="687" unicode="Á"/><glyph d="M438 700q23 0 28 -24l87 -497q13 -70 24.5 -95t33.5 -30q26 -6 20 -30l-1 -4q-5 -24 -29 -22q-68 2 -122 2q-63 0 -155 -2q-14 -1 -20.5 6t-3.5 20l1 5q4 22 28 23q29 4 34.5 24t-4.5 87l-2 16l-2 13q-5 23 -29 23h-163q-21 0 -31 -18l-19 -32q-18 -31 -27.5 -51.5 t-11 -33t2.5 -18.5t14 -8q27 -6 21 -30l-1 -4q-5 -24 -29 -22q-56 2 -77 2q-40 0 -60 -2q-14 -1 -21 6t-4 20l1 5q4 21 27 24q28 4 51 26t61 86l9 14l213 369q9 16 6 34l-15 90q-5 28 23 28h142zM189 296q-7 -14 -2 -22.5t20 -8.5h107q28 0 23 28l-26 152q-3 18 -13.5 20 t-19.5 -14zM264 744q-22 -9 -33 8q-10 17 11 31l172 121q20 14 37 -3l116 -118q17 -19 4 -33q-14 -16 -34 -5l-125 63z" glyph-name="Acircumflex" horiz-adv-x="687" unicode="Â"/><glyph d="M438 700q23 0 28 -24l87 -497q13 -70 24.5 -95t33.5 -30q26 -6 20 -30l-1 -4q-5 -24 -29 -22q-68 2 -122 2q-63 0 -155 -2q-14 -1 -20.5 6t-3.5 20l1 5q4 22 28 23q29 4 34.5 24t-4.5 87l-2 16l-2 13q-5 23 -29 23h-163q-21 0 -31 -18l-19 -32q-18 -31 -27.5 -51.5 t-11 -33t2.5 -18.5t14 -8q27 -6 21 -30l-1 -4q-5 -24 -29 -22q-56 2 -77 2q-40 0 -60 -2q-14 -1 -21 6t-4 20l1 5q4 21 27 24q28 4 51 26t61 86l9 14l213 369q9 16 6 34l-15 90q-5 28 23 28h142zM189 296q-7 -14 -2 -22.5t20 -8.5h107q28 0 23 28l-26 152q-3 18 -13.5 20 t-19.5 -14zM245 762q-11 13 4 30q29 35 64.5 58.5t66.5 23.5t69.5 -24t54.5 -24q26 0 53 29q20 20 29 10q11 -12 -1 -31q-24 -35 -57.5 -58.5t-65.5 -23.5q-26 0 -63.5 24.5t-58.5 24.5q-27 0 -65 -33q-19 -19 -30 -6z" glyph-name="Atilde" horiz-adv-x="687" unicode="Ã"/><glyph d="M438 700q23 0 28 -24l87 -497q13 -70 24.5 -95t33.5 -30q26 -6 20 -30l-1 -4q-5 -24 -29 -22q-68 2 -122 2q-63 0 -155 -2q-14 -1 -20.5 6t-3.5 20l1 5q4 22 28 23q29 4 34.5 24t-4.5 87l-2 16l-2 13q-5 23 -29 23h-163q-21 0 -31 -18l-19 -32q-18 -31 -27.5 -51.5 t-11 -33t2.5 -18.5t14 -8q27 -6 21 -30l-1 -4q-5 -24 -29 -22q-56 2 -77 2q-40 0 -60 -2q-14 -1 -21 6t-4 20l1 5q4 21 27 24q28 4 51 26t61 86l9 14l213 369q9 16 6 34l-15 90q-5 28 23 28h142zM189 296q-7 -14 -2 -22.5t20 -8.5h107q28 0 23 28l-26 152q-3 18 -13.5 20 t-19.5 -14zM305 747q-37 0 -53 20.5t-8 56.5q8 35 32 55t60 20q35 0 51 -20t8 -55q-7 -36 -31 -56.5t-59 -20.5zM436 824q8 35 32 55t60 20q35 0 51 -20t8 -55q-7 -36 -31 -56.5t-59 -20.5q-36 0 -52.5 20.5t-8.5 56.5z" glyph-name="Adieresis" horiz-adv-x="687" unicode="Ä"/><glyph d="M438 700q23 0 28 -24l87 -497q13 -70 24.5 -95t33.5 -30q26 -6 20 -30l-1 -4q-5 -24 -29 -22q-68 2 -122 2q-63 0 -155 -2q-14 -1 -20.5 6t-3.5 20l1 5q4 22 28 23q29 4 34.5 24t-4.5 87l-2 16l-2 13q-5 23 -29 23h-163q-21 0 -31 -18l-19 -32q-18 -31 -27.5 -51.5 t-11 -33t2.5 -18.5t14 -8q27 -6 21 -30l-1 -4q-5 -24 -29 -22q-56 2 -77 2q-40 0 -60 -2q-14 -1 -21 6t-4 20l1 5q4 21 27 24q28 4 51 26t61 86l9 14l213 369q9 16 6 34l-15 90q-5 28 23 28h142zM189 296q-7 -14 -2 -22.5t20 -8.5h107q28 0 23 28l-26 152q-3 18 -13.5 20 t-19.5 -14zM393 747q-49 0 -73.5 25.5t-16.5 63.5t43.5 63.5t84.5 25.5q48 0 73 -25.5t17 -63.5t-43.5 -63.5t-84.5 -25.5zM387 831q0 -25 7.5 -41t17.5 -15q10 2 16.5 21.5t6.5 44.5q1 24 -6 40.5t-17 14.5q-23 -5 -25 -65z" glyph-name="Aring" horiz-adv-x="687" unicode="Å"/><glyph d="M370 0q-42 0 -128 -2q-14 -1 -20.5 6t-3.5 20l1 5q4 19 26 25q24 6 39 34.5t31 100.5q6 26 -23 26h-129q-21 0 -31 -18l-19 -32q-18 -31 -27.5 -51.5t-11 -33t2.5 -18.5t14 -8q27 -6 21 -30l-1 -4q-5 -24 -29 -22q-56 2 -77 2q-40 0 -60 -2q-14 -1 -21 6t-4 20l1 5 q4 21 27 24q29 4 53.5 28.5t66.5 97.5h1l255 441q7 13 10.5 20.5t2.5 7.5h-1l-2 1q-28 2 -22 29l1 4q4 22 29 22q69 -4 177 -4h249q44 0 64 7q19 7 32 7q27 0 24 -27l-23 -218q-3 -25 -25 -25t-22 27q4 100 -27 139.5t-127 39.5h-34q-25 0 -29 -23l-43 -206q-7 -28 3 -28 q46 0 70 18.5t31 63.5q3 25 25 25q21 0 21 -26l-4 -215q0 -26 -23 -26q-21 0 -26 25q-7 47 -31 66.5t-74 19.5q-10 0 -14 -23l-27 -128l-24 -112q-3 -13 3.5 -21t19.5 -8h74q29 0 51 4t38.5 9t30 18t21.5 23.5t17.5 34.5t15 41t15.5 52q7 22 30 22q11 0 16 -8t2 -21 l-46 -212q-5 -23 -31 -20q-17 3 -73 5h-299zM189 296q-7 -14 -2 -22.5t20 -8.5h100q25 0 29 23l47 220q12 52 10 83q0 11 -6 15t-14 0.5t-13 -13.5z" glyph-name="AE" horiz-adv-x="845" unicode="Æ"/><glyph d="M460 666q-72 0 -135.5 -68t-93.5 -209q-29 -136 16 -230t145 -94q106 0 193 79q20 20 32 4t-3 -34q-49 -54 -115.5 -87.5t-135.5 -40.5l-16 -27q-13 -22 13 -33q42 -19 32 -64q-11 -50 -61.5 -74t-99.5 -13q-13 3 -17 11.5t2 17.5l1 2q7 12 32 17q15 3 27.5 14.5 t15.5 27.5q3 18 -8 27t-13 13t3 16l39 63q-82 3 -144 35.5t-94 84.5t-45.5 120t2.5 142q29 163 144 256t291 93q34 0 67 -6.5t50 -12.5t33.5 -6t27.5 11q17 15 32 15h5q27 0 24 -28l-31 -230q-3 -24 -27 -24q-23 0 -26 34q-8 99 -46.5 148.5t-115.5 49.5z" glyph-name="Ccedilla" horiz-adv-x="693" unicode="Ç"/><glyph d="M108 0q-42 0 -128 -2q-14 -1 -20.5 6t-3.5 20l1 5q4 19 26 25q24 6 39 34.5t31 100.5l68 319q15 72 13.5 101t-20.5 37q-24 10 -19 29l1 6q5 24 29 22q65 -3 132 -3h249q44 0 64 7q19 7 32 7q27 0 24 -27l-23 -218q-3 -25 -25 -25t-22 27q4 100 -27 139.5t-127 39.5h-34 q-25 0 -29 -23l-43 -206q-7 -28 3 -28q46 0 70 18.5t31 63.5q3 25 25 25q21 0 21 -26l-4 -215q0 -26 -23 -26q-21 0 -26 25q-7 47 -31 66.5t-74 19.5q-10 0 -14 -23l-27 -128l-24 -112q-3 -13 3.5 -21t19.5 -8h74q29 0 51 4t38.5 9t30 18t21.5 23.5t17.5 34.5t15 41t15.5 52 q7 22 30 22q11 0 16 -8t2 -21l-46 -212q-5 -23 -31 -20q-17 3 -73 5h-299zM283 826q-27 8 -14 34l22 43q12 23 35 11l205 -119q20 -12 13 -31q-9 -20 -32 -12z" glyph-name="Egrave" horiz-adv-x="626" unicode="È"/><glyph d="M108 0q-42 0 -128 -2q-14 -1 -20.5 6t-3.5 20l1 5q4 19 26 25q24 6 39 34.5t31 100.5l68 319q15 72 13.5 101t-20.5 37q-24 10 -19 29l1 6q5 24 29 22q65 -3 132 -3h249q44 0 64 7q19 7 32 7q27 0 24 -27l-23 -218q-3 -25 -25 -25t-22 27q4 100 -27 139.5t-127 39.5h-34 q-25 0 -29 -23l-43 -206q-7 -28 3 -28q46 0 70 18.5t31 63.5q3 25 25 25q21 0 21 -26l-4 -215q0 -26 -23 -26q-21 0 -26 25q-7 47 -31 66.5t-74 19.5q-10 0 -14 -23l-27 -128l-24 -112q-3 -13 3.5 -21t19.5 -8h74q29 0 51 4t38.5 9t30 18t21.5 23.5t17.5 34.5t15 41t15.5 52 q7 22 30 22q11 0 16 -8t2 -21l-46 -212q-5 -23 -31 -20q-17 3 -73 5h-299zM482 927q22 16 36 -9l19 -37q12 -24 -12 -34l-214 -89q-24 -10 -30 5q-6 13 13 28z" glyph-name="Eacute" horiz-adv-x="626" unicode="É"/><glyph d="M108 0q-42 0 -128 -2q-14 -1 -20.5 6t-3.5 20l1 5q4 19 26 25q24 6 39 34.5t31 100.5l68 319q15 72 13.5 101t-20.5 37q-24 10 -19 29l1 6q5 24 29 22q65 -3 132 -3h249q44 0 64 7q19 7 32 7q27 0 24 -27l-23 -218q-3 -25 -25 -25t-22 27q4 100 -27 139.5t-127 39.5h-34 q-25 0 -29 -23l-43 -206q-7 -28 3 -28q46 0 70 18.5t31 63.5q3 25 25 25q21 0 21 -26l-4 -215q0 -26 -23 -26q-21 0 -26 25q-7 47 -31 66.5t-74 19.5q-10 0 -14 -23l-27 -128l-24 -112q-3 -13 3.5 -21t19.5 -8h74q29 0 51 4t38.5 9t30 18t21.5 23.5t17.5 34.5t15 41t15.5 52 q7 22 30 22q11 0 16 -8t2 -21l-46 -212q-5 -23 -31 -20q-17 3 -73 5h-299zM255 761q-22 -9 -33 8q-10 17 11 31l172 121q20 14 37 -3l116 -118q17 -19 4 -33q-14 -16 -34 -5l-125 63z" glyph-name="Ecircumflex" horiz-adv-x="626" unicode="Ê"/><glyph d="M108 0q-42 0 -128 -2q-14 -1 -20.5 6t-3.5 20l1 5q4 19 26 25q24 6 39 34.5t31 100.5l68 319q15 72 13.5 101t-20.5 37q-24 10 -19 29l1 6q5 24 29 22q65 -3 132 -3h249q44 0 64 7q19 7 32 7q27 0 24 -27l-23 -218q-3 -25 -25 -25t-22 27q4 100 -27 139.5t-127 39.5h-34 q-25 0 -29 -23l-43 -206q-7 -28 3 -28q46 0 70 18.5t31 63.5q3 25 25 25q21 0 21 -26l-4 -215q0 -26 -23 -26q-21 0 -26 25q-7 47 -31 66.5t-74 19.5q-10 0 -14 -23l-27 -128l-24 -112q-3 -13 3.5 -21t19.5 -8h74q29 0 51 4t38.5 9t30 18t21.5 23.5t17.5 34.5t15 41t15.5 52 q7 22 30 22q11 0 16 -8t2 -21l-46 -212q-5 -23 -31 -20q-17 3 -73 5h-299zM296 750q-37 0 -53 20.5t-8 56.5q8 35 32 55t60 20q35 0 51 -20t8 -55q-7 -36 -31 -56.5t-59 -20.5zM427 827q8 35 32 55t60 20q35 0 51 -20t8 -55q-7 -36 -31 -56.5t-59 -20.5q-36 0 -52.5 20.5 t-8.5 56.5z" glyph-name="Edieresis" horiz-adv-x="626" unicode="Ë"/><glyph d="M105 680q5 23 29 23q64 -3 132 -3q46 0 130 2q14 1 20.5 -6t4.5 -19l-1 -5q-4 -19 -27 -24q-23 -6 -37.5 -33t-29.5 -91l-70 -331q-16 -71 -14.5 -101t20.5 -37q24 -9 20 -29l-1 -6q-5 -24 -29 -22q-84 2 -134 2q-42 0 -128 -2q-14 -1 -20.5 6t-4.5 20l1 5q4 19 27 24 q22 5 36.5 30.5t29.5 86.5l71 337q16 72 14.5 101.5t-20.5 37.5q-24 9 -20 29zM168 832q-27 8 -14 34l22 43q12 23 35 11l205 -119q20 -12 13 -31q-9 -20 -32 -12z" glyph-name="Igrave" horiz-adv-x="386" unicode="Ì"/><glyph d="M105 680q5 23 29 23q64 -3 132 -3q46 0 130 2q14 1 20.5 -6t4.5 -19l-1 -5q-4 -19 -27 -24q-23 -6 -37.5 -33t-29.5 -91l-70 -331q-16 -71 -14.5 -101t20.5 -37q24 -9 20 -29l-1 -6q-5 -24 -29 -22q-84 2 -134 2q-42 0 -128 -2q-14 -1 -20.5 6t-4.5 20l1 5q4 19 27 24 q22 5 36.5 30.5t29.5 86.5l71 337q16 72 14.5 101.5t-20.5 37.5q-24 9 -20 29zM363 923q22 16 36 -9l19 -37q12 -24 -12 -34l-214 -89q-24 -10 -30 5q-6 13 13 28z" glyph-name="Iacute" horiz-adv-x="386" unicode="Í"/><glyph d="M105 680q5 23 29 23q64 -3 132 -3q46 0 130 2q14 1 20.5 -6t4.5 -19l-1 -5q-4 -19 -27 -24q-23 -6 -37.5 -33t-29.5 -91l-70 -331q-16 -71 -14.5 -101t20.5 -37q24 -9 20 -29l-1 -6q-5 -24 -29 -22q-84 2 -134 2q-42 0 -128 -2q-14 -1 -20.5 6t-4.5 20l1 5q4 19 27 24 q22 5 36.5 30.5t29.5 86.5l71 337q16 72 14.5 101.5t-20.5 37.5q-24 9 -20 29zM144 768q-22 -9 -33 8q-10 17 11 31l172 121q20 14 37 -3l116 -118q17 -19 4 -33q-14 -16 -34 -5l-125 63z" glyph-name="Icircumflex" horiz-adv-x="386" unicode="Î"/><glyph d="M105 680q5 23 29 23q64 -3 132 -3q46 0 130 2q14 1 20.5 -6t4.5 -19l-1 -5q-4 -19 -27 -24q-23 -6 -37.5 -33t-29.5 -91l-70 -331q-16 -71 -14.5 -101t20.5 -37q24 -9 20 -29l-1 -6q-5 -24 -29 -22q-84 2 -134 2q-42 0 -128 -2q-14 -1 -20.5 6t-4.5 20l1 5q4 19 27 24 q22 5 36.5 30.5t29.5 86.5l71 337q16 72 14.5 101.5t-20.5 37.5q-24 9 -20 29zM181 757q-37 0 -53 20.5t-8 56.5q8 35 32 55t60 20q35 0 51 -20t8 -55q-7 -36 -31 -56.5t-59 -20.5zM312 834q8 35 32 55t60 20q35 0 51 -20t8 -55q-7 -36 -31 -56.5t-59 -20.5 q-36 0 -52.5 20.5t-8.5 56.5z" glyph-name="Idieresis" horiz-adv-x="386" unicode="Ï"/><glyph d="M377 394q29 0 24 -25l-1 -3q-5 -23 -28 -23h-66q-25 0 -29 -23l-26 -127l-24 -115q-7 -28 9 -28q104 0 181 81.5t106 234.5q28 137 -16 211.5t-143 74.5q-17 0 -21 -23l-44 -206q-3 -13 3.5 -21t19.5 -8h55zM-16 -2q-14 -1 -20.5 6t-4.5 20l1 5q4 19 27 24 q22 5 36.5 30.5t29.5 86.5l30 145q3 13 -3.5 20.5t-19.5 7.5h-7q-29 0 -24 26v2q5 23 29 23h18q25 0 29 23l19 90q16 71 14.5 101t-20.5 37q-24 9 -20 29l1 6q5 23 29 23q65 -3 132 -3h130q181 0 270 -89t58 -245q-36 -177 -164.5 -271.5t-309.5 -94.5h-132q-42 0 -128 -2z " glyph-name="Eth" horiz-adv-x="748" unicode="Ð"/><glyph d="M152 20q-4 -24 -30 -22q-44 2 -67 2q-44 0 -64 -2q-14 -1 -20.5 6t-4.5 20l1 5q4 19 27 24q28 6 44 35t32 102l78 367q4 18 -6 34q-28 46 -57 56q-25 8 -21 29l1 4q5 24 29 22q58 -2 103 -2q44 0 104 2q23 2 32 -17l75 -150l6 -13l101 -202q8 -17 19 -15.5t15 19.5 l39 186q15 71 12.5 99.5t-24.5 35.5q-24 10 -20 30l1 5q4 24 29 22q42 -2 66 -2q43 0 66 2q14 1 20.5 -5.5t4.5 -19.5l-1 -6q-4 -19 -27 -24q-28 -6 -44 -35t-32 -102l-103 -487q-4 -23 -29 -23h-40q-22 0 -31 19l-224 444q-8 16 -19 14.5t-15 -19.5l-57 -268 q-15 -71 -12.5 -99.5t24.5 -35.5q24 -8 20 -30zM276 764q-11 13 4 30q29 35 64.5 58.5t66.5 23.5t69.5 -24t54.5 -24q26 0 53 29q20 20 29 10q11 -12 -1 -31q-24 -35 -57.5 -58.5t-65.5 -23.5q-26 0 -63.5 24.5t-58.5 24.5q-27 0 -65 -33q-19 -19 -30 -6z" glyph-name="Ntilde" horiz-adv-x="693" unicode="Ñ"/><glyph d="M323 -15q-165 -1 -244 102t-45 263q34 159 157 262.5t288 102.5t244 -104t45 -261q-34 -159 -156.5 -261.5t-288.5 -103.5zM241 331q-13 -147 23 -227t108 -70q74 10 125 99.5t64 235.5q13 147 -22.5 226t-108.5 71t-124.5 -98.5t-64.5 -236.5zM388 832q-27 8 -14 34 l22 43q12 23 35 11l205 -119q20 -12 13 -31q-9 -20 -32 -12z" glyph-name="Ograve" horiz-adv-x="800" unicode="Ò"/><glyph d="M323 -15q-165 -1 -244 102t-45 263q34 159 157 262.5t288 102.5t244 -104t45 -261q-34 -159 -156.5 -261.5t-288.5 -103.5zM241 331q-13 -147 23 -227t108 -70q74 10 125 99.5t64 235.5q13 147 -22.5 226t-108.5 71t-124.5 -98.5t-64.5 -236.5zM555 931q22 16 36 -9 l19 -37q12 -24 -12 -34l-214 -89q-24 -10 -30 5q-6 13 13 28z" glyph-name="Oacute" horiz-adv-x="800" unicode="Ó"/><glyph d="M323 -15q-165 -1 -244 102t-45 263q34 159 157 262.5t288 102.5t244 -104t45 -261q-34 -159 -156.5 -261.5t-288.5 -103.5zM241 331q-13 -147 23 -227t108 -70q74 10 125 99.5t64 235.5q13 147 -22.5 226t-108.5 71t-124.5 -98.5t-64.5 -236.5zM345 764q-22 -9 -33 8 q-10 17 11 31l172 121q20 14 37 -3l116 -118q17 -19 4 -33q-14 -16 -34 -5l-125 63z" glyph-name="Ocircumflex" horiz-adv-x="800" unicode="Ô"/><glyph d="M323 -15q-165 -1 -244 102t-45 263q34 159 157 262.5t288 102.5t244 -104t45 -261q-34 -159 -156.5 -261.5t-288.5 -103.5zM241 331q-13 -147 23 -227t108 -70q74 10 125 99.5t64 235.5q13 147 -22.5 226t-108.5 71t-124.5 -98.5t-64.5 -236.5zM326 776q-11 13 4 30 q29 35 64.5 58.5t66.5 23.5t69.5 -24t54.5 -24q26 0 53 29q20 20 29 10q11 -12 -1 -31q-24 -35 -57.5 -58.5t-65.5 -23.5q-26 0 -63.5 24.5t-58.5 24.5q-27 0 -65 -33q-19 -19 -30 -6z" glyph-name="Otilde" horiz-adv-x="800" unicode="Õ"/><glyph d="M323 -15q-165 -1 -244 102t-45 263q34 159 157 262.5t288 102.5t244 -104t45 -261q-34 -159 -156.5 -261.5t-288.5 -103.5zM241 331q-13 -147 23 -227t108 -70q74 10 125 99.5t64 235.5q13 147 -22.5 226t-108.5 71t-124.5 -98.5t-64.5 -236.5zM389 762q-37 0 -53 20.5 t-8 56.5q8 35 32 55t60 20q35 0 51 -20t8 -55q-7 -36 -31 -56.5t-59 -20.5zM520 839q8 35 32 55t60 20q35 0 51 -20t8 -55q-7 -36 -31 -56.5t-59 -20.5q-36 0 -52.5 20.5t-8.5 56.5z" glyph-name="Odieresis" horiz-adv-x="800" unicode="Ö"/><glyph d="M137 439q19 18 36 -2l69 -77q17 -18 37 -3l111 83q22 17 35 -4q12 -20 -7 -35l-104 -79q-21 -16 -4 -36l65 -72q16 -19 -2 -36l-7 -6q-19 -17 -36 2l-69 77q-17 18 -37 3l-111 -83q-21 -17 -34 4q-14 20 6 35l104 79q21 16 4 36l-65 72q-16 19 3 36z" glyph-name="multiply" horiz-adv-x="513" unicode="×"/><glyph d="M323 -15q-111 0 -185 48l-97 -118q-12 -15 -31 -15q-14 0 -17 9t7 23l105 127q-53 50 -71.5 125t0.5 166q34 159 157 262.5t288 102.5q78 0 142 -27l80 97q12 15 31 15h8q11 0 11 -9t-10 -23l-82 -100q74 -46 102.5 -129.5t6.5 -188.5q-34 -159 -156.5 -261.5 t-288.5 -103.5zM241 331q-5 -64 -2 -108l302 367q-36 85 -111 76q-73 -8 -124.5 -98.5t-64.5 -236.5zM246 165q13 -69 45.5 -103.5t80.5 -27.5q74 10 125 99.5t64 235.5q9 104 -6 173z" glyph-name="Oslash" horiz-adv-x="800" unicode="Ø"/><glyph d="M584 234q-25 -113 -106 -177.5t-197 -64.5q-137 0 -196.5 63.5t-34.5 178.5l71 335q10 67 -18 77q-24 11 -19 29l1 5q5 23 29 23q65 -3 133 -3q44 0 130 2q14 1 20.5 -6t3.5 -19l-1 -5q-4 -19 -27 -24q-23 -6 -37.5 -34t-29.5 -95l-60 -280q-18 -84 7.5 -130t83.5 -46 q65 0 121 44.5t75 131.5l58 271h-1q16 72 16.5 98.5t-15.5 36.5q-12 6 -16.5 11.5t-2.5 17.5l1 5q5 23 30 22q44 -2 55 -2q30 0 48 1q13 1 20 -5.5t5 -18.5l-1 -5q-4 -18 -27 -24q-17 -5 -27.5 -24t-21.5 -62zM345 820q-27 8 -14 34l22 43q12 23 35 11l205 -119 q20 -12 13 -31q-9 -20 -32 -12z" glyph-name="Ugrave" horiz-adv-x="670" unicode="Ù"/><glyph d="M584 234q-25 -113 -106 -177.5t-197 -64.5q-137 0 -196.5 63.5t-34.5 178.5l71 335q10 67 -18 77q-24 11 -19 29l1 5q5 23 29 23q65 -3 133 -3q44 0 130 2q14 1 20.5 -6t3.5 -19l-1 -5q-4 -19 -27 -24q-23 -6 -37.5 -34t-29.5 -95l-60 -280q-18 -84 7.5 -130t83.5 -46 q65 0 121 44.5t75 131.5l58 271h-1q16 72 16.5 98.5t-15.5 36.5q-12 6 -16.5 11.5t-2.5 17.5l1 5q5 23 30 22q44 -2 55 -2q30 0 48 1q13 1 20 -5.5t5 -18.5l-1 -5q-4 -18 -27 -24q-17 -5 -27.5 -24t-21.5 -62zM580 932q22 16 36 -9l19 -37q12 -24 -12 -34l-214 -89 q-24 -10 -30 5q-6 13 13 28z" glyph-name="Uacute" horiz-adv-x="670" unicode="Ú"/><glyph d="M584 234q-25 -113 -106 -177.5t-197 -64.5q-137 0 -196.5 63.5t-34.5 178.5l71 335q10 67 -18 77q-24 11 -19 29l1 5q5 23 29 23q65 -3 133 -3q44 0 130 2q14 1 20.5 -6t3.5 -19l-1 -5q-4 -19 -27 -24q-23 -6 -37.5 -34t-29.5 -95l-60 -280q-18 -84 7.5 -130t83.5 -46 q65 0 121 44.5t75 131.5l58 271h-1q16 72 16.5 98.5t-15.5 36.5q-12 6 -16.5 11.5t-2.5 17.5l1 5q5 23 30 22q44 -2 55 -2q30 0 48 1q13 1 20 -5.5t5 -18.5l-1 -5q-4 -18 -27 -24q-17 -5 -27.5 -24t-21.5 -62zM317 767q-22 -9 -33 8q-10 17 11 31l172 121q20 14 37 -3 l116 -118q17 -19 4 -33q-14 -16 -34 -5l-125 63z" glyph-name="Ucircumflex" horiz-adv-x="670" unicode="Û"/><glyph d="M584 234q-25 -113 -106 -177.5t-197 -64.5q-137 0 -196.5 63.5t-34.5 178.5l71 335q10 67 -18 77q-24 11 -19 29l1 5q5 23 29 23q65 -3 133 -3q44 0 130 2q14 1 20.5 -6t3.5 -19l-1 -5q-4 -19 -27 -24q-23 -6 -37.5 -34t-29.5 -95l-60 -280q-18 -84 7.5 -130t83.5 -46 q65 0 121 44.5t75 131.5l58 271h-1q16 72 16.5 98.5t-15.5 36.5q-12 6 -16.5 11.5t-2.5 17.5l1 5q5 23 30 22q44 -2 55 -2q30 0 48 1q13 1 20 -5.5t5 -18.5l-1 -5q-4 -18 -27 -24q-17 -5 -27.5 -24t-21.5 -62zM372 759q-37 0 -53 20.5t-8 56.5q8 35 32 55t60 20q35 0 51 -20 t8 -55q-7 -36 -31 -56.5t-59 -20.5zM503 836q8 35 32 55t60 20q35 0 51 -20t8 -55q-7 -36 -31 -56.5t-59 -20.5q-36 0 -52.5 20.5t-8.5 56.5z" glyph-name="Udieresis" horiz-adv-x="670" unicode="Ü"/><glyph d="M523 681q6 23 30 21q54 -2 75 -2q35 0 52 1q14 1 21 -5.5t4 -18.5l-1 -5q-6 -20 -28 -24q-27 -5 -55.5 -32t-75.5 -97l-133 -196q-9 -13 -12 -30l-22 -100q-16 -71 -14.5 -101t20.5 -37q24 -9 20 -29l-1 -6q-5 -24 -29 -22q-82 2 -131 2q-42 0 -126 -2q-14 -1 -20 6 t-4 20l1 5q4 20 26 24q24 6 38.5 34t30.5 98l17 82q3 17 -1 33l-70 255q-14 46 -27 66.5t-31 25.5q-26 8 -22 29l1 4q4 23 28 22q70 -2 127 -2t143 2q13 1 20 -6t5 -19l-1 -4q-4 -21 -27 -24q-15 -2 -21 -9.5t-4 -34t13.5 -72t36.5 -130.5q3 -10 9 -14.5t13 -2t13 11.5 l82 121q30 45 44 71.5t14.5 39.5t-10.5 17q-24 10 -19 29zM520 911q22 16 36 -9l19 -37q12 -24 -12 -34l-214 -89q-24 -10 -30 5q-6 13 13 28z" glyph-name="Yacute" horiz-adv-x="636" unicode="Ý"/><glyph d="M-20 -2q-14 -1 -20.5 6t-4.5 20l1 5q4 19 27 24q22 5 36.5 30.5t29.5 86.5l71 337q15 72 13.5 101.5t-20.5 37.5q-24 9 -20 29l1 5v1q1 6 10 14t19 8q64 -3 134 -3q46 0 130 2q14 1 20.5 -6t4.5 -19l-1 -5q-4 -19 -27 -24q-25 -6 -42 -41q-6 -13 0.5 -22t20.5 -9h98 q123 0 178 -51.5t35 -145.5q-22 -100 -99 -154t-200 -54h-109q-25 0 -28 -25q-14 -81 15 -91q24 -10 20 -30l-1 -5q-5 -24 -29 -22q-84 2 -134 2q-43 0 -129 -2zM258 249q-3 -13 3.5 -21t19.5 -8h30q61 0 106 43t61 116q32 149 -112 149h-25q-24 0 -24 -2v-2z" glyph-name="Thorn" horiz-adv-x="667" unicode="Þ"/><glyph d="M67 342q11 52 9 75.5t-20 30.5q-24 9 -20 28v2q4 19 28 25q17 4 28 17.5t15 26.5t9 37q20 95 104 153.5t205 58.5q116 0 174.5 -49t43.5 -123q-7 -33 -28 -63.5t-42 -49t-40.5 -41.5t-23.5 -43q-5 -25 13 -47.5t46.5 -43.5t56 -45.5t42.5 -64.5t4 -89 q-16 -75 -79.5 -113.5t-148.5 -38.5q-37 0 -70.5 11t-51.5 18.5t-27 1.5q-22 -16 -31 -16h-5q-28 0 -25 27l13 138q2 25 25 25q21 0 28 -24q14 -53 53 -87t80 -34q52 0 65 60q5 23 -7 45.5t-34 40t-47 39t-46 42t-31.5 50t-3.5 62.5q8 38 36 74t57 59t56.5 57t35.5 70 q9 45 -16 71.5t-71 26.5q-136 0 -136 -171q0 -20 -5 -53t-16 -89t-23 -110.5t-33.5 -154t-39.5 -183.5q-26 -122 -96.5 -180.5t-216.5 -65.5q-23 -1 -31 20q-9 23 9 26q52 11 92 62t58 134z" glyph-name="germandbls" horiz-adv-x="725" unicode="ß"/><glyph d="M491 129q-12 -56 10 -60q4 -1 10 -1.5t8.5 -1t6 -2.5t5.5 -6q8 -20 -8 -32q-48 -40 -122 -40q-69 0 -93 47q-9 20 -24 4q-49 -51 -129 -51q-89 0 -129.5 52t-30.5 136q15 132 94 215.5t195.5 110.5t257.5 5q26 -5 21 -31zM184 194q-8 -63 2 -98.5t34 -35.5 q41 0 65.5 59.5t57.5 208.5l23 110q6 30 -3 30q-51 0 -107 -72t-72 -202zM253 628q-27 8 -14 34l22 43q12 23 35 11l205 -119q20 -12 13 -31q-9 -20 -32 -12z" glyph-name="agrave" horiz-adv-x="608" unicode="à"/><glyph d="M491 129q-12 -56 10 -60q4 -1 10 -1.5t8.5 -1t6 -2.5t5.5 -6q8 -20 -8 -32q-48 -40 -122 -40q-69 0 -93 47q-9 20 -24 4q-49 -51 -129 -51q-89 0 -129.5 52t-30.5 136q15 132 94 215.5t195.5 110.5t257.5 5q26 -5 21 -31zM184 194q-8 -63 2 -98.5t34 -35.5 q41 0 65.5 59.5t57.5 208.5l23 110q6 30 -3 30q-51 0 -107 -72t-72 -202zM465 732q22 16 36 -9l19 -37q12 -24 -12 -34l-214 -89q-24 -10 -30 5q-6 13 13 28z" glyph-name="aacute" horiz-adv-x="608" unicode="á"/><glyph d="M491 129q-12 -56 10 -60q4 -1 10 -1.5t8.5 -1t6 -2.5t5.5 -6q8 -20 -8 -32q-48 -40 -122 -40q-69 0 -93 47q-9 20 -24 4q-49 -51 -129 -51q-89 0 -129.5 52t-30.5 136q15 132 94 215.5t195.5 110.5t257.5 5q26 -5 21 -31zM184 194q-8 -63 2 -98.5t34 -35.5 q41 0 65.5 59.5t57.5 208.5l23 110q6 30 -3 30q-51 0 -107 -72t-72 -202zM245 566q-22 -9 -33 8q-10 17 11 31l172 121q20 14 37 -3l116 -118q17 -19 4 -33q-14 -16 -34 -5l-125 63z" glyph-name="acircumflex" horiz-adv-x="608" unicode="â"/><glyph d="M491 129q-12 -56 10 -60q4 -1 10 -1.5t8.5 -1t6 -2.5t5.5 -6q8 -20 -8 -32q-48 -40 -122 -40q-69 0 -93 47q-9 20 -24 4q-49 -51 -129 -51q-89 0 -129.5 52t-30.5 136q15 132 94 215.5t195.5 110.5t257.5 5q26 -5 21 -31zM184 194q-8 -63 2 -98.5t34 -35.5 q41 0 65.5 59.5t57.5 208.5l23 110q6 30 -3 30q-51 0 -107 -72t-72 -202zM215 583q-11 13 4 30q29 35 64.5 58.5t66.5 23.5t69.5 -24t54.5 -24q26 0 53 29q20 20 29 10q11 -12 -1 -31q-24 -35 -57.5 -58.5t-65.5 -23.5q-26 0 -63.5 24.5t-58.5 24.5q-26 0 -65 -33 q-19 -19 -30 -6z" glyph-name="atilde" horiz-adv-x="608" unicode="ã"/><glyph d="M491 129q-12 -56 10 -60q4 -1 10 -1.5t8.5 -1t6 -2.5t5.5 -6q8 -20 -8 -32q-48 -40 -122 -40q-69 0 -93 47q-9 20 -24 4q-49 -51 -129 -51q-89 0 -129.5 52t-30.5 136q15 132 94 215.5t195.5 110.5t257.5 5q26 -5 21 -31zM184 194q-8 -63 2 -98.5t34 -35.5 q41 0 65.5 59.5t57.5 208.5l23 110q6 30 -3 30q-51 0 -107 -72t-72 -202zM283 567q-37 0 -53 20.5t-8 56.5q8 35 32 55t60 20q35 0 51 -20t8 -55q-7 -36 -31 -56.5t-59 -20.5zM414 644q8 35 32 55t60 20q35 0 51 -20t8 -55q-7 -36 -31 -56.5t-59 -20.5q-36 0 -52.5 20.5 t-8.5 56.5z" glyph-name="adieresis" horiz-adv-x="608" unicode="ä"/><glyph d="M491 129q-12 -56 10 -60q4 -1 10 -1.5t8.5 -1t6 -2.5t5.5 -6q8 -20 -8 -32q-48 -40 -122 -40q-69 0 -93 47q-9 20 -24 4q-49 -51 -129 -51q-89 0 -129.5 52t-30.5 136q15 132 94 215.5t195.5 110.5t257.5 5q26 -5 21 -31zM184 194q-8 -63 2 -98.5t34 -35.5 q41 0 65.5 59.5t57.5 208.5l23 110q6 30 -3 30q-51 0 -107 -72t-72 -202zM378 565q-49 0 -73.5 25.5t-16.5 63.5t43.5 63.5t84.5 25.5q48 0 73 -25.5t17 -63.5t-43.5 -63.5t-84.5 -25.5zM372 649q0 -25 7.5 -41t17.5 -15q10 2 16.5 21.5t6.5 44.5q1 24 -6 40.5t-17 14.5 q-23 -5 -25 -65z" glyph-name="aring" horiz-adv-x="608" unicode="å"/><glyph d="M566 -15q-140 0 -195 89q-15 23 -30 1q-63 -89 -162 -89q-90 0 -133.5 52.5t-33.5 135.5q11 95 59 169.5t118.5 114t158 52t176.5 -15.5q19 -4 35 2q57 19 117 19q178 0 176 -118q-1 -63 -76 -126t-216 -91q-28 -7 -22 -31q18 -89 90 -89q70 0 126 51q17 17 36 6 q20 -12 6 -30q-77 -102 -230 -102zM193 201q-10 -64 -0.5 -102.5t33.5 -38.5q37 0 66.5 46t48.5 133l42 199q7 30 -3 30q-52 2 -109.5 -66t-77.5 -201zM537 239q-1 -9 20 -2q6 3 13 6q55 30 86 80.5t33 97.5q3 50 -24 50q-39 0 -75.5 -61.5t-51.5 -160.5z" glyph-name="ae" horiz-adv-x="840" unicode="æ"/><glyph d="M344 368q6 28 29 51q26 24 1 36q-17 7 -34 7q-53 0 -92.5 -55t-53.5 -141q-14 -89 11.5 -145t77.5 -56q63 0 116 50q17 16 34 6q18 -11 1 -33q-75 -89 -191 -101l-15 -25q-13 -22 13 -33q42 -19 32 -64q-11 -50 -61.5 -74t-99.5 -13q-13 3 -17 11.5t2 17.5l1 2 q7 12 32 17q15 3 27.5 14.5t15.5 27.5q3 18 -8 27t-13 13t3 16l39 63q-112 6 -162.5 78t-26.5 186q25 122 113 193t208 71q81 0 134 -45t41 -102q-7 -35 -34.5 -57t-61.5 -22t-51 21.5t-10 57.5z" glyph-name="ccedilla" horiz-adv-x="514" unicode="ç"/><glyph d="M227 -15q-127 0 -183 72t-36 188q20 119 111.5 194.5t217.5 75.5q178 0 176 -118q-1 -63 -76 -126t-216 -91q-28 -7 -22 -31q18 -89 90 -89q71 0 126 51q17 17 36 6q20 -12 6 -30q-77 -102 -230 -102zM198 239q-1 -9 20 -2q6 3 13 6q55 30 86 80.5t33 97.5q3 50 -24 50 q-39 0 -75.5 -61.5t-51.5 -160.5zM216 623q-27 8 -14 34l22 43q12 23 35 11l205 -119q20 -12 13 -31q-9 -20 -32 -12z" glyph-name="egrave" horiz-adv-x="533" unicode="è"/><glyph d="M227 -15q-127 0 -183 72t-36 188q20 119 111.5 194.5t217.5 75.5q178 0 176 -118q-1 -63 -76 -126t-216 -91q-28 -7 -22 -31q18 -89 90 -89q71 0 126 51q17 17 36 6q20 -12 6 -30q-77 -102 -230 -102zM198 239q-1 -9 20 -2q6 3 13 6q55 30 86 80.5t33 97.5q3 50 -24 50 q-39 0 -75.5 -61.5t-51.5 -160.5zM412 734q22 16 36 -9l19 -37q12 -24 -12 -34l-214 -89q-24 -10 -30 5q-6 13 13 28z" glyph-name="eacute" horiz-adv-x="533" unicode="é"/><glyph d="M227 -15q-127 0 -183 72t-36 188q20 119 111.5 194.5t217.5 75.5q178 0 176 -118q-1 -63 -76 -126t-216 -91q-28 -7 -22 -31q18 -89 90 -89q71 0 126 51q17 17 36 6q20 -12 6 -30q-77 -102 -230 -102zM198 239q-1 -9 20 -2q6 3 13 6q55 30 86 80.5t33 97.5q3 50 -24 50 q-39 0 -75.5 -61.5t-51.5 -160.5zM188 557q-22 -9 -33 8q-10 17 11 31l172 121q20 14 37 -3l116 -118q17 -19 4 -33q-14 -16 -34 -5l-125 63z" glyph-name="ecircumflex" horiz-adv-x="533" unicode="ê"/><glyph d="M227 -15q-127 0 -183 72t-36 188q20 119 111.5 194.5t217.5 75.5q178 0 176 -118q-1 -63 -76 -126t-216 -91q-28 -7 -22 -31q18 -89 90 -89q71 0 126 51q17 17 36 6q20 -12 6 -30q-77 -102 -230 -102zM198 239q-1 -9 20 -2q6 3 13 6q55 30 86 80.5t33 97.5q3 50 -24 50 q-39 0 -75.5 -61.5t-51.5 -160.5zM234 558q-37 0 -53 20.5t-8 56.5q8 35 32 55t60 20q35 0 51 -20t8 -55q-7 -36 -31 -56.5t-59 -20.5zM365 635q8 35 32 55t60 20q35 0 51 -20t8 -55q-7 -36 -31 -56.5t-59 -20.5q-36 0 -52.5 20.5t-8.5 56.5z" glyph-name="edieresis" horiz-adv-x="533" unicode="ë"/><glyph d="M204 129q-12 -56 10 -60q4 -1 10 -1.5t8.5 -1t6 -2.5t5.5 -6q8 -20 -8 -32q-48 -40 -122 -40q-64 0 -89 39.5t-10 107.5l38 180q13 63 11 88.5t-20 31.5q-25 8 -20 29l1 5q4 22 28 24q119 5 201 19q14 2 21 -4.5t4 -21.5zM69 650q-27 8 -14 34l22 43q12 23 35 11 l205 -119q20 -12 13 -31q-8 -20 -32 -12z" glyph-name="igrave" horiz-adv-x="327" unicode="ì"/><glyph d="M204 129q-12 -56 10 -60q4 -1 10 -1.5t8.5 -1t6 -2.5t5.5 -6q8 -20 -8 -32q-48 -40 -122 -40q-64 0 -89 39.5t-10 107.5l38 180q13 63 11 88.5t-20 31.5q-25 8 -20 29l1 5q4 22 28 24q119 5 201 19q14 2 21 -4.5t4 -21.5zM277 734q22 16 36 -9l19 -37q12 -24 -12 -34 l-214 -89q-24 -10 -30 5q-6 13 13 28z" glyph-name="iacute" horiz-adv-x="327" unicode="í"/><glyph d="M204 129q-12 -56 10 -60q4 -1 10 -1.5t8.5 -1t6 -2.5t5.5 -6q8 -20 -8 -32q-48 -40 -122 -40q-64 0 -89 39.5t-10 107.5l38 180q13 63 11 88.5t-20 31.5q-25 8 -20 29l1 5q4 22 28 24q119 5 201 19q14 2 21 -4.5t4 -21.5zM43 566q-22 -9 -33 8q-10 17 11 31l172 121 q20 14 37 -3l116 -118q17 -19 4 -33q-14 -16 -34 -5l-125 63z" glyph-name="icircumflex" horiz-adv-x="327" unicode="î"/><glyph d="M204 129q-12 -56 10 -60q4 -1 10 -1.5t8.5 -1t6 -2.5t5.5 -6q8 -20 -8 -32q-48 -40 -122 -40q-64 0 -89 39.5t-10 107.5l38 180q13 63 11 88.5t-20 31.5q-25 8 -20 29l1 5q4 22 28 24q119 5 201 19q14 2 21 -4.5t4 -21.5zM95 568q-37 0 -53 20.5t-8 56.5q8 35 32 55 t60 20q35 0 51 -20t8 -55q-7 -36 -31 -56.5t-59 -20.5zM226 645q8 35 32 55t60 20q35 0 51 -20t8 -55q-7 -36 -31 -56.5t-59 -20.5q-36 0 -52.5 20.5t-8.5 56.5z" glyph-name="idieresis" horiz-adv-x="327" unicode="ï"/><glyph d="M322 677q-65 0 -137 -117q-12 -18 -32 -18q-12 0 -16.5 8t0.5 22l50 130q7 21 30 21h13q7 0 14.5 -6.5t12.5 -8.5q5 -1 38 9.5t66 10.5q59 0 103 -28q17 -10 36 -3l40 16q14 6 23 -1q4 -3 6.5 -6.5t2.5 -5.5v-2v-1q6 -23 -16 -32l-10 -4q-25 -11 -11 -35 q41 -72 47.5 -176.5t-19.5 -199t-73 -145.5q-99 -120 -263 -120q-127 0 -186.5 74.5t-34.5 191.5q25 116 115.5 190.5t217.5 74.5q14 0 40 -2q14 -2 21 4.5t5 20.5q-1 14 -5 33q-2 13 -11.5 17t-21.5 -1l-45 -18q-25 -11 -32 14v1q-6 24 16 33l37 15q14 5 15.5 17.5 t-12.5 20.5q-11 6 -24 6zM195 236q-4 -96 17.5 -150t60.5 -49q42 5 68 65.5t30 163.5q4 98 -16.5 151.5t-61.5 46.5q-42 -7 -68 -66.5t-30 -161.5z" glyph-name="eth" horiz-adv-x="613" unicode="ð"/><glyph d="M190 23q-4 -23 -29 -23h-137q-13 0 -19.5 7.5t-3.5 20.5l61 292q20 92 -12 103q-25 8 -20 29l1 5q4 23 28 24q94 8 203 28q14 3 21 -3.5t4 -21.5l-2 -7q-4 -18 3.5 -21.5t21.5 8.5q61 52 126 52q91 0 126.5 -46.5t19.5 -126.5l-45 -214q-12 -56 10 -60q4 -1 10 -1.5 t8.5 -1t6 -2.5t5.5 -6q8 -20 -8 -32q-48 -40 -122 -40q-64 0 -90 39.5t-11 107.5l44 209q10 53 2 74.5t-34 21.5q-28 0 -63.5 -45.5t-46.5 -95.5zM178 582q-11 13 4 30q29 35 64.5 58.5t66.5 23.5t69.5 -24t54.5 -24q26 0 53 29q20 20 29 10q11 -12 -1 -31 q-24 -35 -57.5 -58.5t-65.5 -23.5q-26 0 -63.5 24.5t-58.5 24.5q-27 0 -65 -33q-19 -19 -30 -6z" glyph-name="ntilde" horiz-adv-x="646" unicode="ñ"/><glyph d="M227 -15q-127 0 -186.5 74.5t-34.5 191.5q25 116 115.5 190.5t217.5 74.5t186 -74.5t34 -190.5q-24 -117 -114.5 -191.5t-217.5 -74.5zM195 236q-4 -96 17.5 -150t60.5 -49q42 5 68 65.5t30 163.5q4 98 -16.5 151.5t-61.5 46.5q-42 -7 -68 -66.5t-30 -161.5zM243 631 q-27 8 -14 34l22 43q12 23 35 11l205 -119q20 -12 13 -31q-9 -20 -32 -12z" glyph-name="ograve" horiz-adv-x="605" unicode="ò"/><glyph d="M227 -15q-127 0 -186.5 74.5t-34.5 191.5q25 116 115.5 190.5t217.5 74.5t186 -74.5t34 -190.5q-24 -117 -114.5 -191.5t-217.5 -74.5zM195 236q-4 -96 17.5 -150t60.5 -49q42 5 68 65.5t30 163.5q4 98 -16.5 151.5t-61.5 46.5q-42 -7 -68 -66.5t-30 -161.5zM413 727 q22 16 36 -9l19 -37q12 -24 -12 -34l-214 -89q-24 -10 -30 5q-6 13 13 28z" glyph-name="oacute" horiz-adv-x="605" unicode="ó"/><glyph d="M227 -15q-127 0 -186.5 74.5t-34.5 191.5q25 116 115.5 190.5t217.5 74.5t186 -74.5t34 -190.5q-24 -117 -114.5 -191.5t-217.5 -74.5zM195 236q-4 -96 17.5 -150t60.5 -49q42 5 68 65.5t30 163.5q4 98 -16.5 151.5t-61.5 46.5q-42 -7 -68 -66.5t-30 -161.5zM200 557 q-22 -9 -33 8q-10 17 11 31l172 121q20 14 37 -3l116 -118q17 -19 4 -33q-14 -16 -34 -5l-125 63z" glyph-name="ocircumflex" horiz-adv-x="605" unicode="ô"/><glyph d="M227 -15q-127 0 -186.5 74.5t-34.5 191.5q25 116 115.5 190.5t217.5 74.5t186 -74.5t34 -190.5q-24 -117 -114.5 -191.5t-217.5 -74.5zM195 236q-4 -96 17.5 -150t60.5 -49q42 5 68 65.5t30 163.5q4 98 -16.5 151.5t-61.5 46.5q-42 -7 -68 -66.5t-30 -161.5zM182 574 q-11 13 4 30q29 35 64.5 58.5t66.5 23.5t69.5 -24t54.5 -24q26 0 53 29q20 20 29 10q11 -12 -1 -31q-24 -35 -57.5 -58.5t-65.5 -23.5q-26 0 -63.5 24.5t-58.5 24.5q-27 0 -65 -33q-19 -19 -30 -6z" glyph-name="otilde" horiz-adv-x="605" unicode="õ"/><glyph d="M227 -15q-127 0 -186.5 74.5t-34.5 191.5q25 116 115.5 190.5t217.5 74.5t186 -74.5t34 -190.5q-24 -117 -114.5 -191.5t-217.5 -74.5zM195 236q-4 -96 17.5 -150t60.5 -49q42 5 68 65.5t30 163.5q4 98 -16.5 151.5t-61.5 46.5q-42 -7 -68 -66.5t-30 -161.5zM238 568 q-37 0 -53 20.5t-8 56.5q8 35 32 55t60 20q35 0 51 -20t8 -55q-7 -36 -31 -56.5t-59 -20.5zM369 645q8 35 32 55t60 20q35 0 51 -20t8 -55q-7 -36 -31 -56.5t-59 -20.5q-36 0 -52.5 20.5t-8.5 56.5z" glyph-name="odieresis" horiz-adv-x="605" unicode="ö"/><glyph d="M308 481q53 0 42 -53q-13 -54 -65 -54q-26 0 -37 14t-5 40q11 53 65 53zM104 269q-13 0 -19.5 7.5t-3.5 20.5l1 7q5 23 29 23h322q13 0 19.5 -7.5t3.5 -20.5l-1 -7q-5 -23 -29 -23h-322zM187 168q13 54 65 54q26 0 37 -14t5 -40q-11 -53 -65 -53q-53 0 -42 53z" glyph-name="divide" horiz-adv-x="557" unicode="÷"/><glyph d="M227 -15q-63 0 -111 20l-77 -97q-12 -15 -32 -15q-14 0 -17 9.5t7 22.5l80 100q-49 34 -67.5 93t-3.5 133q25 116 115.5 190.5t217.5 74.5q66 0 114 -21l85 106q12 15 32 15h7q11 0 11.5 -9t-9.5 -23l-88 -110q99 -73 68 -223q-24 -117 -114.5 -191.5t-217.5 -74.5z M195 236q-1 -34 0 -63l169 211q-8 42 -26.5 63t-44.5 17q-42 -7 -68 -66.5t-30 -161.5zM204 114q19 -83 69 -77q42 5 68 65.5t30 163.5q1 31 0 58z" glyph-name="oslash" horiz-adv-x="605" unicode="ø"/><glyph d="M50 303q13 62 11.5 87.5t-18.5 32.5q-25 8 -20 29l1 5q4 23 28 24q92 8 204 28q14 3 21 -4t4 -22l-39 -178l-31 -147q-20 -95 30 -95q30 0 64.5 37.5t44.5 85.5v-1l25 118q13 63 11 88.5t-20 31.5q-25 8 -20 29l1 5q4 23 28 24q92 8 204 28q14 3 21 -3.5t4 -21.5l-5 -24 l-70 -331q-12 -56 11 -60q4 -1 10 -1.5t8.5 -1t6 -2.5t5.5 -6q8 -20 -8 -32q-48 -40 -122 -40q-83 0 -102 65q-3 12 -7 13.5t-12 -8.5q-30 -35 -72.5 -53.5t-81.5 -18.5q-91 0 -127 46.5t-19 126.5zM223 625q-27 8 -14 34l22 43q12 23 35 11l205 -119q20 -12 13 -31 q-9 -20 -32 -12z" glyph-name="ugrave" horiz-adv-x="652" unicode="ù"/><glyph d="M50 303q13 62 11.5 87.5t-18.5 32.5q-25 8 -20 29l1 5q4 23 28 24q92 8 204 28q14 3 21 -4t4 -22l-39 -178l-31 -147q-20 -95 30 -95q30 0 64.5 37.5t44.5 85.5v-1l25 118q13 63 11 88.5t-20 31.5q-25 8 -20 29l1 5q4 23 28 24q92 8 204 28q14 3 21 -3.5t4 -21.5l-5 -24 l-70 -331q-12 -56 11 -60q4 -1 10 -1.5t8.5 -1t6 -2.5t5.5 -6q8 -20 -8 -32q-48 -40 -122 -40q-83 0 -102 65q-3 12 -7 13.5t-12 -8.5q-30 -35 -72.5 -53.5t-81.5 -18.5q-91 0 -127 46.5t-19 126.5zM449 719q22 16 36 -9l19 -37q12 -24 -12 -34l-214 -89q-24 -10 -30 5 q-6 13 13 28z" glyph-name="uacute" horiz-adv-x="652" unicode="ú"/><glyph d="M50 303q13 62 11.5 87.5t-18.5 32.5q-25 8 -20 29l1 5q4 23 28 24q92 8 204 28q14 3 21 -4t4 -22l-39 -178l-31 -147q-20 -95 30 -95q30 0 64.5 37.5t44.5 85.5v-1l25 118q13 63 11 88.5t-20 31.5q-25 8 -20 29l1 5q4 23 28 24q92 8 204 28q14 3 21 -3.5t4 -21.5l-5 -24 l-70 -331q-12 -56 11 -60q4 -1 10 -1.5t8.5 -1t6 -2.5t5.5 -6q8 -20 -8 -32q-48 -40 -122 -40q-83 0 -102 65q-3 12 -7 13.5t-12 -8.5q-30 -35 -72.5 -53.5t-81.5 -18.5q-91 0 -127 46.5t-19 126.5zM216 560q-22 -9 -33 8q-10 17 11 31l172 121q20 14 37 -3l116 -118 q17 -19 4 -33q-14 -16 -34 -5l-125 63z" glyph-name="ucircumflex" horiz-adv-x="652" unicode="û"/><glyph d="M50 303q13 62 11.5 87.5t-18.5 32.5q-25 8 -20 29l1 5q4 23 28 24q92 8 204 28q14 3 21 -4t4 -22l-39 -178l-31 -147q-20 -95 30 -95q30 0 64.5 37.5t44.5 85.5v-1l25 118q13 63 11 88.5t-20 31.5q-25 8 -20 29l1 5q4 23 28 24q92 8 204 28q14 3 21 -3.5t4 -21.5l-5 -24 l-70 -331q-12 -56 11 -60q4 -1 10 -1.5t8.5 -1t6 -2.5t5.5 -6q8 -20 -8 -32q-48 -40 -122 -40q-83 0 -102 65q-3 12 -7 13.5t-12 -8.5q-30 -35 -72.5 -53.5t-81.5 -18.5q-91 0 -127 46.5t-19 126.5zM254 553q-37 0 -53 20.5t-8 56.5q8 35 32 55t60 20q35 0 51 -20t8 -55 q-7 -36 -31 -56.5t-59 -20.5zM385 630q8 35 32 55t60 20q35 0 51 -20t8 -55q-7 -36 -31 -56.5t-59 -20.5q-36 0 -52.5 20.5t-8.5 56.5z" glyph-name="udieresis" horiz-adv-x="652" unicode="ü"/><glyph d="M-48 -265q-52 1 -67.5 45.5t14.5 77.5q23 28 58 28q28 0 43.5 -18.5t13.5 -45.5q1 -3 4 -6t11.5 -8t17.5 4q49 34 112 107q13 15 10 34q-16 142 -62.5 305.5t-89.5 196.5q-2 1 -5 3.5t-4 3t-3.5 2.5t-2.5 3t-1.5 3t-1 3.5t0.5 4.5q3 20 21 25q31 11 71 11q109 0 147 -92 q44 -109 65 -228q2 -12 7.5 -16.5t12 -1.5t11.5 14q47 92 73 174q3 9 4 16t0.5 10.5t-2.5 3.5h-8q-31 1 -48.5 20.5t-14.5 49.5q2 28 25.5 48.5t53.5 19.5q29 -1 46 -21.5t15 -48.5v-1q-12 -86 -66 -210t-127.5 -239.5t-165 -196.5t-168.5 -80zM348 734q22 16 36 -9l19 -37 q12 -24 -12 -34l-214 -89q-24 -10 -30 5q-6 13 13 28z" glyph-name="yacute" horiz-adv-x="496" unicode="ý"/><glyph d="M136 -227q-4 -23 -29 -23h-136q-13 0 -19.5 8t-3.5 21l151 708q13 63 11 88.5t-20 31.5q-25 8 -21 29l1 5q4 23 28 24q95 6 204 28q14 3 21 -4t4 -22l-35 -165l-3 -15h-1q-3 -11 10 -7q7 2 20 9q44 26 101 26q109 0 157 -67t21 -195q-25 -116 -107.5 -192.5t-189.5 -76.5 q-54 0 -85 22q-26 17 -32 -11zM222 175q-9 -55 4 -91t43 -36q39 0 75 53.5t59 151.5q20 94 10.5 149.5t-42.5 55.5q-36 0 -69.5 -43t-54.5 -122z" glyph-name="thorn" horiz-adv-x="646" unicode="þ"/><glyph d="M-48 -265q-52 1 -67.5 45.5t14.5 77.5q23 28 58 28q28 0 43.5 -18.5t13.5 -45.5q1 -3 4 -6t11.5 -8t17.5 4q49 34 112 107q13 15 10 34q-16 142 -62.5 305.5t-89.5 196.5q-2 1 -5 3.5t-4 3t-3.5 2.5t-2.5 3t-1.5 3t-1 3.5t0.5 4.5q3 20 21 25q31 11 71 11q109 0 147 -92 q44 -109 65 -228q2 -12 7.5 -16.5t12 -1.5t11.5 14q47 92 73 174q3 9 4 16t0.5 10.5t-2.5 3.5h-8q-31 1 -48.5 20.5t-14.5 49.5q2 28 25.5 48.5t53.5 19.5q29 -1 46 -21.5t15 -48.5v-1q-12 -86 -66 -210t-127.5 -239.5t-165 -196.5t-168.5 -80zM171 568q-37 0 -53 20.5 t-8 56.5q8 35 32 55t60 20q35 0 51 -20t8 -55q-7 -36 -31 -56.5t-59 -20.5zM302 645q8 35 32 55t60 20q35 0 51 -20t8 -55q-7 -36 -31 -56.5t-59 -20.5q-36 0 -52.5 20.5t-8.5 56.5z" glyph-name="ydieresis" horiz-adv-x="496" unicode="ÿ"/><glyph d="M438 700q23 0 28 -24l87 -497q13 -70 24.5 -95t33.5 -30q26 -6 20 -30l-1 -4q-5 -24 -29 -22q-68 2 -122 2q-63 0 -155 -2q-14 -1 -20.5 6t-3.5 20l1 5q4 22 28 23q29 4 34.5 24t-4.5 87l-2 16l-2 13q-5 23 -29 23h-163q-21 0 -31 -18l-19 -32q-18 -31 -27.5 -51.5 t-11 -33t2.5 -18.5t14 -8q27 -6 21 -30l-1 -4q-5 -24 -29 -22q-56 2 -77 2q-40 0 -60 -2q-14 -1 -21 6t-4 20l1 5q4 21 27 24q28 4 51 26t61 86l9 14l213 369q9 16 6 34l-15 90q-5 28 23 28h142zM189 296q-7 -14 -2 -22.5t20 -8.5h107q28 0 23 28l-26 152q-3 18 -13.5 20 t-19.5 -14zM258 799q5 23 28 23h245q29 0 23 -26l-1 -3q-5 -23 -28 -23h-244q-29 0 -23 29z" glyph-name="Amacron" horiz-adv-x="687" unicode="Ā"/><glyph d="M491 129q-12 -56 10 -60q4 -1 10 -1.5t8.5 -1t6 -2.5t5.5 -6q8 -20 -8 -32q-48 -40 -122 -40q-69 0 -93 47q-9 20 -24 4q-49 -51 -129 -51q-89 0 -129.5 52t-30.5 136q15 132 94 215.5t195.5 110.5t257.5 5q26 -5 21 -31zM184 194q-8 -63 2 -98.5t34 -35.5 q41 0 65.5 59.5t57.5 208.5l23 110q6 30 -3 30q-51 0 -107 -72t-72 -202zM235 620q5 23 28 23h245q29 0 23 -26l-1 -3q-5 -23 -28 -23h-244q-29 0 -23 29z" glyph-name="amacron" horiz-adv-x="608" unicode="ā"/><glyph d="M438 700q23 0 28 -24l87 -497q13 -70 24.5 -95t33.5 -30q26 -6 20 -30l-1 -4q-5 -24 -29 -22q-68 2 -122 2q-63 0 -155 -2q-14 -1 -20.5 6t-3.5 20l1 5q4 22 28 23q29 4 34.5 24t-4.5 87l-2 16l-2 13q-5 23 -29 23h-163q-21 0 -31 -18l-19 -32q-18 -31 -27.5 -51.5 t-11 -33t2.5 -18.5t14 -8q27 -6 21 -30l-1 -4q-5 -24 -29 -22q-56 2 -77 2q-40 0 -60 -2q-14 -1 -21 6t-4 20l1 5q4 21 27 24q28 4 51 26t61 86l9 14l213 369q9 16 6 34l-15 90q-5 28 23 28h142zM189 296q-7 -14 -2 -22.5t20 -8.5h107q28 0 23 28l-26 152q-3 18 -13.5 20 t-19.5 -14zM403 750q55 0 103 31.5t76 81.5q7 13 5 22t-12 9h-3q-18 0 -32 -15q-48 -48 -119 -48q-31 0 -57.5 12t-40.5 32q-13 19 -30 19q-23 0 -20 -27q7 -51 42.5 -84t87.5 -33z" glyph-name="Abreve" horiz-adv-x="687" unicode="Ă"/><glyph d="M491 129q-12 -56 10 -60q4 -1 10 -1.5t8.5 -1t6 -2.5t5.5 -6q8 -20 -8 -32q-48 -40 -122 -40q-69 0 -93 47q-9 20 -24 4q-49 -51 -129 -51q-89 0 -129.5 52t-30.5 136q15 132 94 215.5t195.5 110.5t257.5 5q26 -5 21 -31zM184 194q-8 -63 2 -98.5t34 -35.5 q41 0 65.5 59.5t57.5 208.5l23 110q6 30 -3 30q-51 0 -107 -72t-72 -202zM371 558q55 0 103 31.5t76 81.5q7 13 5 22t-12 9h-3q-18 0 -32 -15q-48 -48 -119 -48q-31 0 -57.5 12t-40.5 32q-13 19 -30 19q-23 0 -20 -27q7 -51 42.5 -84t87.5 -33z" glyph-name="abreve" horiz-adv-x="608" unicode="ă"/><glyph d="M438 700q23 0 28 -24l87 -497q13 -70 24.5 -95t33.5 -30q26 -6 20 -30l-1 -4q-5 -24 -29 -22q-4 0 -14.5 0.5t-16.5 0.5q-23 -12 -42.5 -36t-24.5 -49q-10 -48 29 -52q26 -3 28 -22v-1q3 -25 -19 -31q-60 -18 -110 3.5t-37 83.5q7 32 34 61t64 44h-13q-63 0 -155 -2 q-14 -1 -20.5 6t-3.5 20l1 5q4 22 28 23q29 4 34.5 24t-4.5 87l-2 16l-2 13q-5 23 -29 23h-163q-21 0 -31 -18l-19 -32q-18 -31 -27.5 -51.5t-11 -33t2.5 -18.5t14 -8q27 -6 21 -30l-1 -4q-5 -24 -29 -22q-56 2 -77 2q-40 0 -60 -2q-14 -1 -21 6t-4 20l1 5q4 21 27 24 q28 4 51 26t61 86l9 14l213 369q9 16 6 34l-15 90q-5 28 23 28h142zM189 296q-7 -14 -2 -22.5t20 -8.5h107q28 0 23 28l-26 152q-3 18 -13.5 20t-19.5 -14z" glyph-name="Aogonek" horiz-adv-x="687" unicode="Ą"/><glyph d="M491 129q-12 -56 10 -60q4 -1 10 -1.5t8.5 -1t6 -2.5t5.5 -6q8 -20 -8 -32q-21 -17 -53 -29q-23 -12 -41.5 -35.5t-23.5 -48.5q-10 -48 29 -52q26 -3 28 -22v-1q3 -25 -19 -31q-60 -18 -110 3.5t-37 83.5q5 27 26 52t51 42q-47 9 -65 45q-9 20 -24 4q-49 -51 -129 -51 q-89 0 -129.5 52t-30.5 136q15 132 94 215.5t195.5 110.5t257.5 5q26 -5 21 -31zM184 194q-8 -63 2 -98.5t34 -35.5q41 0 65.5 59.5t57.5 208.5l23 110q6 30 -3 30q-51 0 -107 -72t-72 -202z" glyph-name="aogonek" horiz-adv-x="608" unicode="ą"/><glyph d="M460 666q-72 0 -135.5 -68t-93.5 -209q-29 -136 16 -230t145 -94q106 0 193 79q20 20 32 4t-3 -34q-55 -61 -131.5 -95.5t-152.5 -34.5q-170 0 -248 111t-50 271q29 163 144 256t291 93q34 0 67 -6.5t50 -12.5t33.5 -6t27.5 11q17 15 32 15h5q27 0 24 -28l-31 -230 q-3 -24 -27 -24q-23 0 -26 34q-8 99 -46.5 148.5t-115.5 49.5zM557 934q22 16 36 -9l19 -37q12 -24 -12 -34l-214 -89q-24 -10 -30 5q-6 13 13 28z" glyph-name="Cacute" horiz-adv-x="693" unicode="Ć"/><glyph d="M344 368q6 28 29 51q26 24 1 36q-17 7 -34 7q-53 0 -92.5 -55t-53.5 -141q-14 -89 11.5 -145t77.5 -56q63 0 116 50q17 16 34 6q18 -11 1 -33q-85 -102 -221 -102q-121 0 -176.5 73t-31.5 192q25 122 113 193t208 71q81 0 134 -45t41 -102q-7 -35 -34.5 -57t-61.5 -22 t-51 21.5t-10 57.5zM423 734q22 16 36 -9l19 -37q12 -24 -12 -34l-214 -89q-24 -10 -30 5q-6 13 13 28z" glyph-name="cacute" horiz-adv-x="514" unicode="ć"/><glyph d="M460 666q-72 0 -135.5 -68t-93.5 -209q-29 -136 16 -230t145 -94q106 0 193 79q20 20 32 4t-3 -34q-55 -61 -131.5 -95.5t-152.5 -34.5q-170 0 -248 111t-50 271q29 163 144 256t291 93q34 0 67 -6.5t50 -12.5t33.5 -6t27.5 11q17 15 32 15h5q27 0 24 -28l-31 -230 q-3 -24 -27 -24q-23 0 -26 34q-8 99 -46.5 148.5t-115.5 49.5zM469 769q-37 0 -54 21.5t-9 58.5q8 38 33.5 58.5t63.5 20.5q37 0 53 -21t9 -58q-8 -37 -33.5 -58.5t-62.5 -21.5z" glyph-name="Cdotaccent" horiz-adv-x="693" unicode="Ċ"/><glyph d="M344 368q6 28 29 51q26 24 1 36q-17 7 -34 7q-53 0 -92.5 -55t-53.5 -141q-14 -89 11.5 -145t77.5 -56q63 0 116 50q17 16 34 6q18 -11 1 -33q-85 -102 -221 -102q-121 0 -176.5 73t-31.5 192q25 122 113 193t208 71q81 0 134 -45t41 -102q-7 -35 -34.5 -57t-61.5 -22 t-51 21.5t-10 57.5zM314 558q-37 0 -54 21.5t-9 58.5q8 38 33.5 58.5t63.5 20.5q37 0 53 -21t9 -58q-8 -37 -33.5 -58.5t-62.5 -21.5z" glyph-name="cdotaccent" horiz-adv-x="514" unicode="ċ"/><glyph d="M460 666q-72 0 -135.5 -68t-93.5 -209q-29 -136 16 -230t145 -94q106 0 193 79q20 20 32 4t-3 -34q-55 -61 -131.5 -95.5t-152.5 -34.5q-170 0 -248 111t-50 271q29 163 144 256t291 93q34 0 67 -6.5t50 -12.5t33.5 -6t27.5 11q17 15 32 15h5q27 0 24 -28l-31 -230 q-3 -24 -27 -24q-23 0 -26 34q-8 99 -46.5 148.5t-115.5 49.5zM640 926q24 10 33 -6q9 -17 -11 -31l-172 -121q-20 -14 -37 3l-116 118q-17 19 -4 33q14 16 34 5l126 -63z" glyph-name="Ccaron" horiz-adv-x="693" unicode="Č"/><glyph d="M344 368q6 28 29 51q26 24 1 36q-17 7 -34 7q-53 0 -92.5 -55t-53.5 -141q-14 -89 11.5 -145t77.5 -56q63 0 116 50q17 16 34 6q18 -11 1 -33q-85 -102 -221 -102q-121 0 -176.5 73t-31.5 192q25 122 113 193t208 71q81 0 134 -45t41 -102q-7 -35 -34.5 -57t-61.5 -22 t-51 21.5t-10 57.5zM484 731q24 10 33 -6q9 -17 -11 -31l-172 -121q-20 -14 -37 3l-116 118q-17 19 -4 33q14 16 34 5l126 -63z" glyph-name="ccaron" horiz-adv-x="514" unicode="č"/><glyph d="M524 366q28 137 -16 211.5t-143 74.5q-17 0 -21 -23l-92 -436l-24 -115q-7 -28 9 -28q104 0 181 81.5t106 234.5zM-15 -2q-14 -1 -20.5 6t-4.5 20l1 5q4 19 27 24q22 5 36.5 30.5t29.5 86.5l71 337q16 71 14.5 101t-20.5 37q-24 9 -20 29l1 6q5 23 29 23q65 -3 132 -3 h130q181 0 270 -89t58 -245q-36 -177 -164.5 -271.5t-309.5 -94.5h-132q-42 0 -128 -2zM580 912q24 10 33 -6q9 -17 -11 -31l-172 -121q-20 -14 -37 3l-116 118q-17 19 -4 33q14 16 34 5l126 -63z" glyph-name="Dcaron" horiz-adv-x="751" unicode="Ď"/><glyph d="M526 129q-12 -56 10 -60q4 -1 10 -1.5t8.5 -1t6 -2.5t5.5 -6q8 -20 -8 -32q-48 -40 -122 -40q-63 0 -90 41q-12 20 -28 5q-58 -48 -132 -48q-110 0 -158.5 68.5t-24.5 183.5q28 132 106 205.5t194 73.5q49 0 81 -24q26 -18 31 9l14 67q13 63 11 88.5t-20 31.5 q-25 8 -20 29l1 5q4 23 28 24q92 8 204 28q14 3 21 -3.5t4 -21.5l-34 -158zM199 253q-19 -100 -6 -152.5t54 -52.5q30 0 58 38t42 96l13 60l3 15q19 99 6 150t-50 51q-35 0 -68.5 -56.5t-51.5 -148.5zM773 696q-11 -13 -37 -13q-22 0 -35.5 18.5t-7.5 45.5q6 26 30.5 46 t51.5 20q40 0 54 -23.5t8 -55.5q-18 -83 -104 -130q-22 -12 -29 2q-6 12 18 28q40 30 51 62z" glyph-name="dcaron" horiz-adv-x="644" unicode="ď"/><glyph d="M377 394q29 0 24 -25l-1 -3q-5 -23 -28 -23h-66q-25 0 -29 -23l-26 -127l-24 -115q-7 -28 9 -28q104 0 181 81.5t106 234.5q28 137 -16 211.5t-143 74.5q-17 0 -21 -23l-44 -206q-3 -13 3.5 -21t19.5 -8h55zM-16 -2q-14 -1 -20.5 6t-4.5 20l1 5q4 19 27 24 q22 5 36.5 30.5t29.5 86.5l30 145q3 13 -3.5 20.5t-19.5 7.5h-7q-29 0 -24 26v2q5 23 29 23h18q25 0 29 23l19 90q16 71 14.5 101t-20.5 37q-24 9 -20 29l1 6q5 23 29 23q65 -3 132 -3h130q181 0 270 -89t58 -245q-36 -177 -164.5 -271.5t-309.5 -94.5h-132q-42 0 -128 -2z " glyph-name="Dcroat" horiz-adv-x="748" unicode="Đ"/><glyph d="M526 129q-12 -56 10 -60q4 -1 10 -1.5t8.5 -1t6 -2.5t5.5 -6q8 -20 -8 -32q-48 -40 -122 -40q-63 0 -90 41q-12 20 -28 5q-58 -48 -132 -48q-110 0 -158.5 68.5t-24.5 183.5q28 132 106 205.5t194 73.5q49 0 81 -24q26 -18 31 9l14 67l3 13h-73q-29 0 -24 26v2 q5 23 29 23h76q4 48 -20 56q-25 8 -20 29l1 5q4 23 28 24q92 8 204 28q14 3 21 -3.5t4 -21.5l-25 -117h50q29 0 24 -25l-1 -3q-5 -23 -28 -23h-56zM199 253q-19 -100 -6 -152.5t54 -52.5q30 0 58 38t42 96l13 60l3 15q19 99 6 150t-50 51q-35 0 -68.5 -56.5t-51.5 -148.5z " glyph-name="dcroat" horiz-adv-x="644" unicode="đ"/><glyph d="M108 0q-42 0 -128 -2q-14 -1 -20.5 6t-3.5 20l1 5q4 19 26 25q24 6 39 34.5t31 100.5l68 319q15 72 13.5 101t-20.5 37q-24 10 -19 29l1 6q5 24 29 22q65 -3 132 -3h249q44 0 64 7q19 7 32 7q27 0 24 -27l-23 -218q-3 -25 -25 -25t-22 27q4 100 -27 139.5t-127 39.5h-34 q-25 0 -29 -23l-43 -206q-7 -28 3 -28q46 0 70 18.5t31 63.5q3 25 25 25q21 0 21 -26l-4 -215q0 -26 -23 -26q-21 0 -26 25q-7 47 -31 66.5t-74 19.5q-10 0 -14 -23l-27 -128l-24 -112q-3 -13 3.5 -21t19.5 -8h74q29 0 51 4t38.5 9t30 18t21.5 23.5t17.5 34.5t15 41t15.5 52 q7 22 30 22q11 0 16 -8t2 -21l-46 -212q-5 -23 -31 -20q-17 3 -73 5h-299zM252 804q5 23 28 23h245q29 0 23 -26l-1 -3q-5 -23 -28 -23h-244q-29 0 -23 29z" glyph-name="Emacron" horiz-adv-x="626" unicode="Ē"/><glyph d="M227 -15q-127 0 -183 72t-36 188q20 119 111.5 194.5t217.5 75.5q178 0 176 -118q-1 -63 -76 -126t-216 -91q-28 -7 -22 -31q18 -89 90 -89q71 0 126 51q17 17 36 6q20 -12 6 -30q-77 -102 -230 -102zM198 239q-1 -9 20 -2q6 3 13 6q55 30 86 80.5t33 97.5q3 50 -24 50 q-39 0 -75.5 -61.5t-51.5 -160.5zM180 614q5 23 28 23h245q29 0 23 -26l-1 -3q-5 -23 -28 -23h-244q-29 0 -23 29z" glyph-name="emacron" horiz-adv-x="533" unicode="ē"/><glyph d="M108 0q-42 0 -128 -2q-14 -1 -20.5 6t-3.5 20l1 5q4 19 26 25q24 6 39 34.5t31 100.5l68 319q15 72 13.5 101t-20.5 37q-24 10 -19 29l1 6q5 24 29 22q65 -3 132 -3h249q44 0 64 7q19 7 32 7q27 0 24 -27l-23 -218q-3 -25 -25 -25t-22 27q4 100 -27 139.5t-127 39.5h-34 q-25 0 -29 -23l-43 -206q-7 -28 3 -28q46 0 70 18.5t31 63.5q3 25 25 25q21 0 21 -26l-4 -215q0 -26 -23 -26q-21 0 -26 25q-7 47 -31 66.5t-74 19.5q-10 0 -14 -23l-27 -128l-24 -112q-3 -13 3.5 -21t19.5 -8h74q29 0 51 4t38.5 9t30 18t21.5 23.5t17.5 34.5t15 41t15.5 52 q7 22 30 22q11 0 16 -8t2 -21l-46 -212q-5 -23 -31 -20q-17 3 -73 5h-299zM394 757q-37 0 -54 21.5t-9 58.5q8 38 33.5 58.5t63.5 20.5q37 0 53 -21t9 -58q-8 -37 -33.5 -58.5t-62.5 -21.5z" glyph-name="Edotaccent" horiz-adv-x="626" unicode="Ė"/><glyph d="M227 -15q-127 0 -183 72t-36 188q20 119 111.5 194.5t217.5 75.5q178 0 176 -118q-1 -63 -76 -126t-216 -91q-28 -7 -22 -31q18 -89 90 -89q71 0 126 51q17 17 36 6q20 -12 6 -30q-77 -102 -230 -102zM198 239q-1 -9 20 -2q6 3 13 6q55 30 86 80.5t33 97.5q3 50 -24 50 q-39 0 -75.5 -61.5t-51.5 -160.5zM332 558q-37 0 -54 21.5t-9 58.5q8 38 33.5 58.5t63.5 20.5q37 0 53 -21t9 -58q-8 -37 -33.5 -58.5t-62.5 -21.5z" glyph-name="edotaccent" horiz-adv-x="533" unicode="ė"/><glyph d="M108 0q-42 0 -128 -2q-14 -1 -20.5 6t-3.5 20l1 5q4 19 26 25q24 6 39 34.5t31 100.5l68 319q15 72 13.5 101t-20.5 37q-24 10 -19 29l1 6q5 24 29 22q65 -3 132 -3h249q44 0 64 7q19 7 32 7q27 0 24 -27l-23 -218q-3 -25 -25 -25t-22 27q4 100 -27 139.5t-127 39.5h-34 q-25 0 -29 -23l-43 -206q-7 -28 3 -28q46 0 70 18.5t31 63.5q3 25 25 25q21 0 21 -26l-4 -215q0 -26 -23 -26q-21 0 -26 25q-7 47 -31 66.5t-74 19.5q-10 0 -14 -23l-27 -128l-24 -112q-3 -13 3.5 -21t19.5 -8h74q29 0 51 4t38.5 9t30 18t21.5 23.5t17.5 34.5t15 41t15.5 52 q7 22 30 22q11 0 16 -8t2 -21l-46 -212q-4 -20 -22 -20l16 -5q-23 -12 -43.5 -36.5t-25.5 -49.5q-10 -48 29 -52q26 -3 28 -22v-1q3 -25 -19 -31q-60 -18 -110 3.5t-37 83.5q7 38 43.5 70.5t81.5 42.5q-7 1 -22 1.5t-23 0.5h-299z" glyph-name="Eogonek" horiz-adv-x="626" unicode="Ę"/><glyph d="M198 239q-1 -9 20 -2q6 3 13 6q55 30 86 80.5t33 97.5q3 50 -24 50q-39 0 -75.5 -61.5t-51.5 -160.5zM291 -168q3 -25 -19 -31q-60 -18 -110 3.5t-37 83.5q6 28 29 54.5t54 42.5q-117 6 -168 77.5t-32 182.5q20 119 111.5 194.5t217.5 75.5q178 0 176 -118 q-1 -63 -76 -126t-216 -91q-28 -7 -22 -31q18 -89 90 -89q71 0 126 51q17 17 36 6q20 -12 6 -30q-55 -73 -155 -94q-24 -13 -43.5 -37t-24.5 -49q-10 -48 29 -52q26 -3 28 -22v-1z" glyph-name="eogonek" horiz-adv-x="533" unicode="ę"/><glyph d="M108 0q-42 0 -128 -2q-14 -1 -20.5 6t-3.5 20l1 5q4 19 26 25q24 6 39 34.5t31 100.5l68 319q15 72 13.5 101t-20.5 37q-24 10 -19 29l1 6q5 24 29 22q65 -3 132 -3h249q44 0 64 7q19 7 32 7q27 0 24 -27l-23 -218q-3 -25 -25 -25t-22 27q4 100 -27 139.5t-127 39.5h-34 q-25 0 -29 -23l-43 -206q-7 -28 3 -28q46 0 70 18.5t31 63.5q3 25 25 25q21 0 21 -26l-4 -215q0 -26 -23 -26q-21 0 -26 25q-7 47 -31 66.5t-74 19.5q-10 0 -14 -23l-27 -128l-24 -112q-3 -13 3.5 -21t19.5 -8h74q29 0 51 4t38.5 9t30 18t21.5 23.5t17.5 34.5t15 41t15.5 52 q7 22 30 22q11 0 16 -8t2 -21l-46 -212q-5 -23 -31 -20q-17 3 -73 5h-299zM568 918q24 10 33 -6q9 -17 -11 -31l-172 -121q-20 -14 -37 3l-116 118q-17 19 -4 33q14 16 34 5l126 -63z" glyph-name="Ecaron" horiz-adv-x="626" unicode="Ě"/><glyph d="M227 -15q-127 0 -183 72t-36 188q20 119 111.5 194.5t217.5 75.5q178 0 176 -118q-1 -63 -76 -126t-216 -91q-28 -7 -22 -31q18 -89 90 -89q71 0 126 51q17 17 36 6q20 -12 6 -30q-77 -102 -230 -102zM198 239q-1 -9 20 -2q6 3 13 6q55 30 86 80.5t33 97.5q3 50 -24 50 q-39 0 -75.5 -61.5t-51.5 -160.5zM490 735q24 10 33 -6q9 -17 -11 -31l-172 -121q-20 -14 -37 3l-116 118q-17 19 -4 33q14 16 34 5l126 -63z" glyph-name="ecaron" horiz-adv-x="533" unicode="ě"/><glyph d="M648 329q13 0 19.5 -7.5t3.5 -20.5l-32 -151q-3 -18 -14 -30q-55 -64 -131 -100t-155 -36q-175 0 -255.5 105.5t-44.5 276.5q34 160 155 254.5t289 94.5q33 0 64.5 -6.5t48 -12.5t32 -6t26.5 10q16 16 32 16h4q27 0 24 -28l-31 -230q-3 -24 -26 -24t-25 26 q-7 105 -44.5 155.5t-118.5 50.5q-67 0 -130.5 -68.5t-93.5 -208.5q-29 -135 16 -229.5t140 -94.5q15 0 23 1q22 1 27 24l15 71q9 60 2.5 82.5t-29.5 28.5q-25 6 -20 29l1 5q4 23 29 23h199zM452 760q55 0 103 31.5t76 81.5q7 13 5 22t-12 9h-3q-19 0 -32 -15 q-48 -48 -119 -48q-31 0 -57.5 12t-40.5 32q-13 19 -30 19q-23 0 -20 -27q7 -51 42.5 -84t87.5 -33z" glyph-name="Gbreve" horiz-adv-x="731" unicode="Ğ"/><glyph d="M495 590q12 25 38 37t49 6q25 -6 33 -29.5t-4 -51.5q-21 -52 -109 -66q-24 -3 -6 -21q53 -47 34 -133q-16 -76 -84.5 -124.5t-182.5 -53.5q-18 0 -33 -9l-33 -19q-18 -13 -4 -17h113q114 0 175.5 -41.5t42.5 -126.5q-14 -64 -82.5 -113.5t-153.5 -72t-167 -22.5 q-110 0 -167.5 29t-45.5 85q11 53 90 94q34 18 34 21q0 1 -2 1q-43 0 -61.5 21t-4 51t57.5 52l100 51q16 8 14 17t-19 15q-61 20 -86 62.5t-14 99.5q18 86 94.5 135t202.5 49q23 0 34 -1q91 0 128 3q23 1 15 24q-7 24 4 48zM79 -134q-8 -39 14.5 -60.5t80.5 -21.5 q64 0 124 32t72 90q4 9 1.5 19t-10 19.5t-33.5 15t-67 5.5l-62 -1q-22 0 -43 -13q-66 -40 -77 -85zM210 321q-2 -58 13.5 -93t47.5 -30q31 5 49.5 46t21.5 99q2 64 -14 99t-47 30q-32 -6 -50.5 -47t-20.5 -104zM313 560q55 0 103 31.5t76 81.5q7 13 5 22t-12 9h-3 q-18 0 -32 -15q-48 -48 -119 -48q-31 0 -57.5 12t-40.5 32q-13 19 -30 19q-23 0 -20 -27q7 -51 42.5 -84t87.5 -33z" glyph-name="gbreve" horiz-adv-x="592" unicode="ğ"/><glyph d="M648 329q13 0 19.5 -7.5t3.5 -20.5l-32 -151q-3 -18 -14 -30q-55 -64 -131 -100t-155 -36q-175 0 -255.5 105.5t-44.5 276.5q34 160 155 254.5t289 94.5q33 0 64.5 -6.5t48 -12.5t32 -6t26.5 10q16 16 32 16h4q27 0 24 -28l-31 -230q-3 -24 -26 -24t-25 26 q-7 105 -44.5 155.5t-118.5 50.5q-67 0 -130.5 -68.5t-93.5 -208.5q-29 -135 16 -229.5t140 -94.5q15 0 23 1q22 1 27 24l15 71q9 60 2.5 82.5t-29.5 28.5q-25 6 -20 29l1 5q4 23 29 23h199zM474 765q-37 0 -54 21.5t-9 58.5q8 38 33.5 58.5t63.5 20.5q37 0 53 -21t9 -58 q-8 -37 -33.5 -58.5t-62.5 -21.5z" glyph-name="Gdotaccent" horiz-adv-x="731" unicode="Ġ"/><glyph d="M495 590q12 25 38 37t49 6q25 -6 33 -29.5t-4 -51.5q-21 -52 -109 -66q-24 -3 -6 -21q53 -47 34 -133q-16 -76 -84.5 -124.5t-182.5 -53.5q-18 0 -33 -9l-33 -19q-18 -13 -4 -17h113q114 0 175.5 -41.5t42.5 -126.5q-14 -64 -82.5 -113.5t-153.5 -72t-167 -22.5 q-110 0 -167.5 29t-45.5 85q11 53 90 94q34 18 34 21q0 1 -2 1q-43 0 -61.5 21t-4 51t57.5 52l100 51q16 8 14 17t-19 15q-61 20 -86 62.5t-14 99.5q18 86 94.5 135t202.5 49q23 0 34 -1q91 0 128 3q23 1 15 24q-7 24 4 48zM79 -134q-8 -39 14.5 -60.5t80.5 -21.5 q64 0 124 32t72 90q4 9 1.5 19t-10 19.5t-33.5 15t-67 5.5l-62 -1q-22 0 -43 -13q-66 -40 -77 -85zM210 321q-2 -58 13.5 -93t47.5 -30q31 5 49.5 46t21.5 99q2 64 -14 99t-47 30q-32 -6 -50.5 -47t-20.5 -104zM322 557q-37 0 -54 21.5t-9 58.5q8 38 33.5 58.5t63.5 20.5 q37 0 53 -21t9 -58q-8 -37 -33.5 -58.5t-62.5 -21.5z" glyph-name="gdotaccent" horiz-adv-x="592" unicode="ġ"/><glyph d="M648 329q13 0 19.5 -7.5t3.5 -20.5l-32 -151q-3 -18 -14 -30q-55 -64 -131 -100t-155 -36q-175 0 -255.5 105.5t-44.5 276.5q34 160 155 254.5t289 94.5q33 0 64.5 -6.5t48 -12.5t32 -6t26.5 10q16 16 32 16h4q27 0 24 -28l-31 -230q-3 -24 -26 -24t-25 26 q-7 105 -44.5 155.5t-118.5 50.5q-67 0 -130.5 -68.5t-93.5 -208.5q-29 -135 16 -229.5t140 -94.5q15 0 23 1q22 1 27 24l15 71q9 60 2.5 82.5t-29.5 28.5q-25 6 -20 29l1 5q4 23 29 23h199zM357 -179q-11 -13 -37 -13q-25 0 -38 17.5t-7 46.5q6 28 31 48.5t55 20.5 q78 0 61 -83q-18 -82 -104 -129q-22 -12 -29 1q-5 10 17 28q39 28 51 63z" glyph-name="uni0122" horiz-adv-x="731" unicode="Ģ"/><glyph d="M495 590q12 25 38 37t49 6q25 -6 33 -29.5t-4 -51.5q-21 -52 -109 -66q-24 -3 -6 -21q53 -47 34 -133q-16 -76 -84.5 -124.5t-182.5 -53.5q-18 0 -33 -9l-33 -19q-18 -13 -4 -17h113q114 0 175.5 -41.5t42.5 -126.5q-14 -64 -82.5 -113.5t-153.5 -72t-167 -22.5 q-110 0 -167.5 29t-45.5 85q11 53 90 94q34 18 34 21q0 1 -2 1q-43 0 -61.5 21t-4 51t57.5 52l100 51q16 8 14 17t-19 15q-61 20 -86 62.5t-14 99.5q18 86 94.5 135t202.5 49q23 0 34 -1q91 0 128 3q23 1 15 24q-7 24 4 48zM79 -134q-8 -39 14.5 -60.5t80.5 -21.5 q64 0 124 32t72 90q4 9 1.5 19t-10 19.5t-33.5 15t-67 5.5l-62 -1q-22 0 -43 -13q-66 -40 -77 -85zM210 321q-2 -58 13.5 -93t47.5 -30q31 5 49.5 46t21.5 99q2 64 -14 99t-47 30q-32 -6 -50.5 -47t-20.5 -104zM326 676q11 13 37 13q25 0 38 -17.5t7 -46.5q-6 -28 -31 -48.5 t-55 -20.5q-38 0 -53.5 23t-8.5 55q9 41 39 76.5t66 57.5q23 12 30 -1q4 -8 -22 -30q-35 -28 -47 -61z" glyph-name="uni0123" horiz-adv-x="592" unicode="ģ"/><glyph d="M95 680q5 23 29 23q65 -3 132 -3q46 0 130 2q14 1 20.5 -6t4.5 -19l-1 -5q-4 -19 -27 -24q-23 -6 -37.5 -33t-29.5 -91l-1 -6q-3 -13 3.5 -20.5t19.5 -7.5h140q24 0 27 17q16 72 14.5 101.5t-20.5 37.5q-24 9 -20 29l1 5q5 23 29 23q64 -3 132 -3q46 0 130 2 q14 1 20.5 -6t4.5 -19l-1 -5q-4 -19 -27 -24q-23 -6 -37.5 -33t-29.5 -91l-1 -6q-3 -13 3.5 -20.5t19.5 -7.5h2q29 0 24 -25l-1 -3q-5 -23 -28 -23h-13q-25 0 -29 -23l-47 -223q-16 -71 -14.5 -101t20.5 -37q24 -9 20 -29l-1 -6q-5 -24 -29 -22q-84 2 -134 2q-42 0 -128 -2 q-14 -1 -20 6t-4 20l1 5q4 19 26 24q23 6 37 31t29 86l30 145q3 13 -3.5 20.5t-19.5 7.5h-140q-25 0 -29 -23l-26 -127q-16 -71 -14.5 -101t20.5 -37q24 -9 20 -29l-1 -6q-5 -24 -29 -22q-84 2 -134 2q-42 0 -128 -2q-14 -1 -20.5 6t-4.5 20l1 5q4 19 27 24q22 5 36.5 30.5 t29.5 86.5l51 240q3 13 -3.5 21t-19.5 8h-3q-29 0 -24 26v2q5 23 29 23h14q24 0 27 17q16 72 14.5 101.5t-20.5 37.5q-24 9 -20 29zM293 417q-2 -11 4.5 -17t19.5 -6h141q23 0 28 23q2 10 -4.5 16t-19.5 6h-141q-24 0 -28 -22z" glyph-name="Hbar" horiz-adv-x="751" unicode="Ħ"/><glyph d="M273 418q30 45 74.5 71.5t88.5 26.5q91 0 126.5 -46.5t19.5 -126.5l-45 -214q-12 -56 10 -60q4 -1 10 -1.5t8.5 -1t6 -2.5t5.5 -6q8 -20 -8 -32q-48 -40 -122 -40q-64 0 -90 39.5t-11 107.5l44 209q10 53 2 74.5t-34 21.5q-28 0 -64 -47t-47 -97v1l-58 -272 q-4 -23 -29 -23h-137q-13 0 -19.5 8t-3.5 21l117 551h-29q-29 0 -24 26v2q5 23 29 23h32q5 47 -19 56q-25 8 -21 29l1 5q4 23 28 24q96 8 204 28q14 3 21 -3.5t4 -21.5l-24 -117h93q29 0 24 -25l-1 -3q-5 -23 -28 -23h-99l-3 -13z" glyph-name="hbar" horiz-adv-x="646" unicode="ħ"/><glyph d="M105 680q5 23 29 23q64 -3 132 -3q46 0 130 2q14 1 20.5 -6t4.5 -19l-1 -5q-4 -19 -27 -24q-23 -6 -37.5 -33t-29.5 -91l-70 -331q-16 -71 -14.5 -101t20.5 -37q24 -9 20 -29l-1 -6q-5 -24 -29 -22q-84 2 -134 2q-42 0 -128 -2q-14 -1 -20.5 6t-4.5 20l1 5q4 19 27 24 q22 5 36.5 30.5t29.5 86.5l71 337q16 72 14.5 101.5t-20.5 37.5q-24 9 -20 29zM110 761q-11 13 4 30q29 35 64.5 58.5t66.5 23.5t69.5 -24t54.5 -24q26 0 53 29q20 20 29 10q11 -12 -1 -31q-24 -35 -57.5 -58.5t-65.5 -23.5q-26 0 -63.5 24.5t-58.5 24.5q-27 0 -65 -33 q-19 -19 -30 -6z" glyph-name="Itilde" horiz-adv-x="386" unicode="Ĩ"/><glyph d="M204 129q-12 -56 10 -60q4 -1 10 -1.5t8.5 -1t6 -2.5t5.5 -6q8 -20 -8 -32q-48 -40 -122 -40q-64 0 -89 39.5t-10 107.5l38 180q13 63 11 88.5t-20 31.5q-25 8 -20 29l1 5q4 22 28 24q119 5 201 19q14 2 21 -4.5t4 -21.5zM21 583q-11 13 4 30q29 35 64.5 58.5t66.5 23.5 t69.5 -24t54.5 -24q26 0 53 29q20 20 29 10q11 -12 -1 -31q-24 -35 -57.5 -58.5t-65.5 -23.5q-26 0 -63.5 24.5t-58.5 24.5q-26 0 -65 -33q-19 -19 -30 -6z" glyph-name="itilde" horiz-adv-x="327" unicode="ĩ"/><glyph d="M105 680q5 23 29 23q64 -3 132 -3q46 0 130 2q14 1 20.5 -6t4.5 -19l-1 -5q-4 -19 -27 -24q-23 -6 -37.5 -33t-29.5 -91l-70 -331q-16 -71 -14.5 -101t20.5 -37q24 -9 20 -29l-1 -6q-5 -24 -29 -22q-84 2 -134 2q-42 0 -128 -2q-14 -1 -20.5 6t-4.5 20l1 5q4 19 27 24 q22 5 36.5 30.5t29.5 86.5l71 337q16 72 14.5 101.5t-20.5 37.5q-24 9 -20 29zM136 799q5 23 28 23h245q29 0 23 -26l-1 -3q-5 -23 -28 -23h-244q-29 0 -23 29z" glyph-name="Imacron" horiz-adv-x="386" unicode="Ī"/><glyph d="M204 129q-12 -56 10 -60q4 -1 10 -1.5t8.5 -1t6 -2.5t5.5 -6q8 -20 -8 -32q-48 -40 -122 -40q-64 0 -89 39.5t-10 107.5l38 180q13 63 11 88.5t-20 31.5q-25 8 -20 29l1 5q4 22 28 24q119 5 201 19q14 2 21 -4.5t4 -21.5zM50 629q5 23 28 23h245q29 0 23 -26l-1 -3 q-5 -23 -28 -23h-244q-29 0 -23 29z" glyph-name="imacron" horiz-adv-x="327" unicode="ī"/><glyph d="M105 680q5 23 29 23q64 -3 132 -3q46 0 130 2q14 1 20.5 -6t4.5 -19l-1 -5q-4 -19 -27 -24q-23 -6 -37.5 -33t-29.5 -91l-70 -331q-16 -71 -14.5 -101t20.5 -37q24 -9 20 -29l-1 -6q-5 -24 -29 -22q-6 0 -19.5 0.5t-21.5 0.5q-23 -12 -42.5 -36t-24.5 -49q-10 -48 29 -52 q26 -3 28 -22v-1q3 -25 -19 -31q-60 -18 -110 3.5t-37 83.5q7 32 34 61t64 44h-15q-42 0 -128 -2q-14 -1 -20.5 6t-4.5 20l1 5q4 19 27 24q22 5 36.5 30.5t29.5 86.5l71 337q16 72 14.5 101.5t-20.5 37.5q-24 9 -20 29z" glyph-name="Iogonek" horiz-adv-x="386" unicode="Į"/><glyph d="M204 129q-12 -56 10 -60q4 -1 10 -1.5t8.5 -1t6 -2.5t5.5 -6q8 -20 -8 -32q-23 -18 -46 -26q-23 -12 -42 -36t-24 -49q-10 -48 29 -52q26 -3 28 -22v-1q3 -25 -19 -31q-60 -18 -110 3.5t-37 83.5q11 55 73 92q-50 8 -68 46t-5 99l38 180q13 63 11 88.5t-20 31.5 q-25 8 -20 29l1 5q4 22 28 24q119 5 201 19q14 2 21 -4.5t4 -21.5zM180 558q-37 0 -54 21.5t-9 58.5q8 38 33.5 58.5t63.5 20.5q37 0 53 -21t9 -58q-8 -37 -33.5 -58.5t-62.5 -21.5z" glyph-name="iogonek" horiz-adv-x="327" unicode="į"/><glyph d="M105 680q5 23 29 23q64 -3 132 -3q46 0 130 2q14 1 20.5 -6t4.5 -19l-1 -5q-4 -19 -27 -24q-23 -6 -37.5 -33t-29.5 -91l-70 -331q-16 -71 -14.5 -101t20.5 -37q24 -9 20 -29l-1 -6q-5 -24 -29 -22q-84 2 -134 2q-42 0 -128 -2q-14 -1 -20.5 6t-4.5 20l1 5q4 19 27 24 q22 5 36.5 30.5t29.5 86.5l71 337q16 72 14.5 101.5t-20.5 37.5q-24 9 -20 29zM275 753q-37 0 -54 21.5t-9 58.5q8 38 33.5 58.5t63.5 20.5q37 0 53 -21t9 -58q-8 -37 -33.5 -58.5t-62.5 -21.5z" glyph-name="Idotaccent" horiz-adv-x="386" unicode="İ"/><glyph d="M204 129q-12 -56 10 -60q4 -1 10 -1.5t8.5 -1t6 -2.5t5.5 -6q8 -20 -8 -32q-48 -40 -122 -40q-64 0 -89 39.5t-10 107.5l38 180q13 63 11 88.5t-20 31.5q-25 8 -20 29l1 5q4 22 28 24q119 5 201 19q14 2 21 -4.5t4 -21.5z" glyph-name="dotlessi" horiz-adv-x="327" unicode="ı"/><glyph d="M105 680q5 23 29 23q64 -3 132 -3q46 0 130 2q14 1 20.5 -6t4.5 -19l-1 -5q-4 -19 -27 -24q-23 -6 -37.5 -33t-29.5 -91l-70 -331q-16 -71 -14.5 -101t20.5 -37q24 -9 20 -29l-1 -6q-5 -24 -29 -22q-84 2 -134 2q-42 0 -128 -2q-14 -1 -20.5 6t-4.5 20l1 5q4 19 27 24 q22 5 36.5 30.5t29.5 86.5l71 337q16 72 14.5 101.5t-20.5 37.5q-24 9 -20 29zM310 124q8 37 37 61t66 24q36 0 54 -24t10 -61q-7 -34 -32 -57q-14 -12 -18 -18t2 -10q8 -3 17 -3q47 0 63 78l87 410q12 62 9.5 88.5t-19.5 33.5q-24 9 -20 29l1 5q5 23 29 23q58 -3 134 -3 q55 0 129 2q14 1 20.5 -6t4.5 -19l-1 -5q-4 -19 -27 -24q-24 -6 -39 -36t-31 -105l-73 -341q-18 -85 -87.5 -133t-177.5 -48q-74 0 -112.5 37.5t-25.5 101.5z" glyph-name="IJ" horiz-adv-x="823" unicode="Ĳ"/><glyph d="M195 575q-45 0 -66 26.5t-11 71.5q9 45 41 71t77 26t65.5 -26t11.5 -71q-10 -45 -41.5 -71.5t-76.5 -26.5zM53 313q13 63 11 88.5t-20 31.5q-25 8 -20 29l1 5q4 22 28 24q119 5 201 19q14 2 21 -4.5t4 -21.5l-75 -355q-12 -56 10 -60q4 -1 10 -1.5t8.5 -1t6 -2.5t5.5 -6 q8 -20 -8 -32q-48 -40 -122 -40q-64 0 -89 39.5t-10 107.5zM383 338q9 49 6 69.5t-20 25.5q-25 8 -21 29l1 5q4 22 28 24q120 5 204 19q14 2 21 -4.5t4 -21.5l-120 -566q-18 -85 -82.5 -134t-155.5 -49q-60 0 -94 27t-32 72q0 12 2 20q0 3 1 5q8 34 36.5 58.5t63.5 24.5 t54.5 -24.5t11.5 -58.5q-6 -31 -28 -53q-4 -4 -12 -11q-11 -10 -7 -11q3 -1 9 -1q65 0 83 83q9 44 -6 97t-10 80zM447 673q10 45 42 71t77 26t65.5 -26t10.5 -71q-9 -45 -40.5 -71.5t-76.5 -26.5t-66 26.5t-12 71.5z" glyph-name="ij" horiz-adv-x="641" unicode="ĳ"/><glyph d="M376 -2q-14 -1 -20 6t-4 20l1 5q4 19 26 25q19 6 17 27.5t-28 77.5l-67 142q-6 13 -11.5 18.5t-9.5 2.5q-9 -9 -12 -25l-21 -104q-15 -71 -13.5 -100.5t20.5 -37.5q23 -9 19 -29l-1 -6q-5 -24 -29 -22q-84 2 -134 2q-43 0 -129 -2q-14 -1 -20.5 6t-4.5 20l1 5q4 19 27 25 t37 30.5t29 85.5l71 337q15 71 13.5 101t-20.5 38q-23 9 -19 29l1 5q5 23 29 23q65 -3 133 -3q46 0 130 2q14 1 20.5 -6t4.5 -19l-1 -5q-4 -19 -27 -25q-24 -6 -38 -32t-29 -91l-17 -80q-4 -18 6 -23.5t23 7.5l179 175q35 35 22 43q-10 5 -13 7t-5.5 7.5t-1.5 13.5l1 6 q5 24 29 22q62 -2 86 -2q40 0 61 2q13 1 20 -6t5 -19l-1 -5q-4 -20 -27 -23q-79 -10 -190 -116l-45 -44q-16 -16 -7 -36l128 -274q35 -73 49 -95.5t32 -28.5q24 -8 20 -30l-1 -5q-5 -24 -29 -22q-58 2 -111 2q-68 0 -154 -2zM304 -163q-11 -13 -37 -13q-25 0 -38 17.5 t-7 46.5q6 28 31 48.5t55 20.5q78 0 61 -83q-18 -82 -104 -129q-22 -12 -29 1q-5 10 17 28q39 28 51 63z" glyph-name="uni0136" horiz-adv-x="705" unicode="Ķ"/><glyph d="M270 401q-3 -14 4.5 -21.5t21.5 -3.5q76 19 123 40q12 6 12.5 13.5t-6.5 19.5q-10 17 -5 43q6 29 33 50t59 21q26 0 43 -17.5t16 -42.5q1 -48 -47 -82t-130 -61q-26 -8 0 -18q70 -25 96 -117l36 -137q7 -23 21 -26q4 -1 9.5 -1h8.5t5.5 -1.5t4.5 -5.5q8 -19 -4 -32 q-35 -38 -97 -38q-58 0 -91.5 26t-49.5 84q-7 27 -17 65.5t-15.5 59t-12.5 42t-13 33.5q-7 13 -17 9t-13 -19l-55 -261q-4 -23 -29 -23h-137q-13 0 -19.5 8t-3.5 21l119 557q10 52 7 73.5t-20 27.5q-25 8 -21 29l1 5q4 23 28 24q92 8 204 28q14 3 21 -3.5t4 -21.5zM284 -139 q-11 -13 -37 -13q-25 0 -38 17.5t-7 46.5q6 28 31 48.5t55 20.5q78 0 61 -83q-18 -82 -104 -129q-23 -12 -29 1q-5 10 17 28q39 28 51 63z" glyph-name="uni0137" horiz-adv-x="621" unicode="ķ"/><glyph d="M485 19q-5 -22 -30 -22q-66 3 -134 3h-213q-40 0 -128 -2q-14 -1 -20.5 6t-4.5 20l1 5q4 19 27 24q22 5 36.5 30.5t29.5 86.5l71 337q16 72 14.5 101.5t-20.5 37.5q-24 9 -20 29l1 5q5 23 29 23q65 -3 132 -3q45 0 131 2q14 1 20.5 -6t4.5 -19l-1 -5q-4 -19 -27 -24 q-23 -6 -37.5 -33t-29.5 -91l-70 -331l-24 -112q-3 -13 3.5 -21t19.5 -8h55q40 0 68 8t45 18.5t31.5 38t22 49t21.5 68.5q6 22 29 22q25 0 19 -29zM361 920q22 16 36 -9l19 -37q12 -24 -12 -34l-214 -89q-24 -10 -30 5q-6 13 13 28z" glyph-name="Lacute" horiz-adv-x="593" unicode="Ĺ"/><glyph d="M196 129q-12 -56 10 -60q4 -1 10 -1.5t8.5 -1t6 -2.5t5.5 -6q8 -20 -8 -32q-48 -40 -122 -40q-64 0 -89 39.5t-10 107.5l93 444q13 63 11 88.5t-20 31.5q-25 8 -20 29l1 5q4 22 28 24q118 5 202 19q14 2 21 -4.5t4 -21.5zM326 991q22 16 36 -9l19 -37q12 -24 -12 -34 l-214 -89q-24 -10 -30 5q-6 13 13 28z" glyph-name="lacute" horiz-adv-x="316" unicode="ĺ"/><glyph d="M485 19q-5 -22 -30 -22q-66 3 -134 3h-213q-40 0 -128 -2q-14 -1 -20.5 6t-4.5 20l1 5q4 19 27 24q22 5 36.5 30.5t29.5 86.5l71 337q16 72 14.5 101.5t-20.5 37.5q-24 9 -20 29l1 5q5 23 29 23q65 -3 132 -3q45 0 131 2q14 1 20.5 -6t4.5 -19l-1 -5q-4 -19 -27 -24 q-23 -6 -37.5 -33t-29.5 -91l-70 -331l-24 -112q-3 -13 3.5 -21t19.5 -8h55q40 0 68 8t45 18.5t31.5 38t22 49t21.5 68.5q6 22 29 22q25 0 19 -29zM263 -165q-11 -13 -37 -13q-25 0 -38 17.5t-7 46.5q6 28 31 48.5t55 20.5q78 0 61 -83q-18 -82 -104 -129q-22 -12 -29 1 q-5 10 17 28q39 28 51 63z" glyph-name="uni013B" horiz-adv-x="593" unicode="Ļ"/><glyph d="M196 129q-12 -56 10 -60q4 -1 10 -1.5t8.5 -1t6 -2.5t5.5 -6q8 -20 -8 -32q-48 -40 -122 -40q-64 0 -89 39.5t-10 107.5l93 444q13 63 11 88.5t-20 31.5q-25 8 -20 29l1 5q4 22 28 24q118 5 202 19q14 2 21 -4.5t4 -21.5zM87 -177q-11 -13 -37 -13q-25 0 -38 17.5 t-7 46.5q6 28 31 48.5t55 20.5q78 0 61 -83q-18 -82 -104 -129q-22 -12 -29 1q-5 10 17 28q39 28 51 63z" glyph-name="uni013C" horiz-adv-x="316" unicode="ļ"/><glyph d="M485 19q-5 -22 -30 -22q-66 3 -134 3h-213q-40 0 -128 -2q-14 -1 -20.5 6t-4.5 20l1 5q4 19 27 24q22 5 36.5 30.5t29.5 86.5l71 337q16 72 14.5 101.5t-20.5 37.5q-24 9 -20 29l1 5q5 23 29 23q65 -3 132 -3q45 0 131 2q14 1 20.5 -6t4.5 -19l-1 -5q-4 -19 -27 -24 q-23 -6 -37.5 -33t-29.5 -91l-70 -331l-24 -112q-3 -13 3.5 -21t19.5 -8h55q40 0 68 8t45 18.5t31.5 38t22 49t21.5 68.5q6 22 29 22q25 0 19 -29zM531 698q-11 -13 -37 -13q-22 0 -35.5 18.5t-7.5 45.5q6 26 30.5 46t51.5 20q40 0 54 -23.5t8 -55.5q-18 -83 -104 -130 q-22 -12 -29 2q-6 12 18 28q40 30 51 62z" glyph-name="Lcaron" horiz-adv-x="593" unicode="Ľ"/><glyph d="M196 129q-12 -56 10 -60q4 -1 10 -1.5t8.5 -1t6 -2.5t5.5 -6q8 -20 -8 -32q-48 -40 -122 -40q-64 0 -89 39.5t-10 107.5l93 444q13 63 11 88.5t-20 31.5q-25 8 -20 29l1 5q4 22 28 24q118 5 202 19q14 2 21 -4.5t4 -21.5zM428 769q-11 -13 -37 -13q-22 0 -35.5 18.5 t-7.5 45.5q6 26 30.5 46t51.5 20q40 0 54 -23.5t8 -55.5q-18 -83 -104 -130q-22 -12 -29 2q-6 12 18 28q40 30 51 62z" glyph-name="lcaron" horiz-adv-x="316" unicode="ľ"/><glyph d="M485 19q-5 -22 -30 -22q-66 3 -134 3h-213q-40 0 -128 -2q-14 -1 -20.5 6t-4.5 20l1 5q4 19 27 24q22 5 36.5 30.5t29.5 86.5l1 3l-33 -30q-21 -19 -34 -2q-13 16 6 33l75 69l56 264q16 72 14.5 101.5t-20.5 37.5q-24 9 -20 29l1 5q5 23 29 23q65 -3 132 -3q45 0 131 2 q14 1 20.5 -6t4.5 -19l-1 -5q-4 -19 -27 -24q-23 -6 -37.5 -33t-29.5 -91l-13 -60l49 45q20 18 33 2t-6 -33l-90 -83l-43 -202l-24 -112q-3 -13 3.5 -21t19.5 -8h55q40 0 68 8t45 18.5t31.5 38t22 49t21.5 68.5q6 22 29 22q25 0 19 -29z" glyph-name="Lslash" horiz-adv-x="593" unicode="Ł"/><glyph d="M196 129q-12 -56 10 -60q4 -1 10 -1.5t8.5 -1t6 -2.5t5.5 -6q8 -20 -8 -32q-48 -40 -122 -40q-64 0 -89 39.5t-10 107.5l9 43l-34 -31q-20 -18 -34 -1q-15 16 4 34l80 73l68 326q13 63 11 88.5t-20 31.5q-25 8 -20 29l1 5q4 22 28 24q118 5 202 19q14 2 21 -4.5t4 -21.5 l-59 -280l41 38q19 17 34 1q14 -17 -5 -34l-86 -79z" glyph-name="lslash" horiz-adv-x="321" unicode="ł"/><glyph d="M152 20q-4 -24 -30 -22q-44 2 -67 2q-44 0 -64 -2q-14 -1 -20.5 6t-4.5 20l1 5q4 19 27 24q28 6 44 35t32 102l78 367q4 18 -6 34q-28 46 -57 56q-25 8 -21 29l1 4q5 24 29 22q58 -2 103 -2q44 0 104 2q23 2 32 -17l75 -150l6 -13l101 -202q8 -17 19 -15.5t15 19.5 l39 186q15 71 12.5 99.5t-24.5 35.5q-24 10 -20 30l1 5q4 24 29 22q42 -2 66 -2q43 0 66 2q14 1 20.5 -5.5t4.5 -19.5l-1 -6q-4 -19 -27 -24q-28 -6 -44 -35t-32 -102l-103 -487q-4 -23 -29 -23h-40q-22 0 -31 19l-224 444q-8 16 -19 14.5t-15 -19.5l-57 -268 q-15 -71 -12.5 -99.5t24.5 -35.5q24 -8 20 -30zM543 925q22 16 36 -9l19 -37q12 -24 -12 -34l-214 -89q-24 -10 -30 5q-6 13 13 28z" glyph-name="Nacute" horiz-adv-x="693" unicode="Ń"/><glyph d="M190 23q-4 -23 -29 -23h-137q-13 0 -19.5 7.5t-3.5 20.5l61 292q20 92 -12 103q-25 8 -20 29l1 5q4 23 28 24q94 8 203 28q14 3 21 -3.5t4 -21.5l-2 -7q-4 -18 3.5 -21.5t21.5 8.5q61 52 126 52q91 0 126.5 -46.5t19.5 -126.5l-45 -214q-12 -56 10 -60q4 -1 10 -1.5 t8.5 -1t6 -2.5t5.5 -6q8 -20 -8 -32q-48 -40 -122 -40q-64 0 -90 39.5t-11 107.5l44 209q10 53 2 74.5t-34 21.5q-28 0 -63.5 -45.5t-46.5 -95.5zM428 739q22 16 36 -9l19 -37q12 -24 -12 -34l-214 -89q-24 -10 -30 5q-6 13 13 28z" glyph-name="nacute" horiz-adv-x="646" unicode="ń"/><glyph d="M152 20q-4 -24 -30 -22q-44 2 -67 2q-44 0 -64 -2q-14 -1 -20.5 6t-4.5 20l1 5q4 19 27 24q28 6 44 35t32 102l78 367q4 18 -6 34q-28 46 -57 56q-25 8 -21 29l1 4q5 24 29 22q58 -2 103 -2q44 0 104 2q23 2 32 -17l75 -150l6 -13l101 -202q8 -17 19 -15.5t15 19.5 l39 186q15 71 12.5 99.5t-24.5 35.5q-24 10 -20 30l1 5q4 24 29 22q42 -2 66 -2q43 0 66 2q14 1 20.5 -5.5t4.5 -19.5l-1 -6q-4 -19 -27 -24q-28 -6 -44 -35t-32 -102l-103 -487q-4 -23 -29 -23h-40q-22 0 -31 19l-224 444q-8 16 -19 14.5t-15 -19.5l-57 -268 q-15 -71 -12.5 -99.5t24.5 -35.5q24 -8 20 -30zM279 -161q-11 -13 -37 -13q-25 0 -38 17.5t-7 46.5q6 28 31 48.5t55 20.5q78 0 61 -83q-18 -82 -104 -129q-22 -12 -29 1q-5 10 17 28q39 28 51 63z" glyph-name="uni0145" horiz-adv-x="693" unicode="Ņ"/><glyph d="M190 23q-4 -23 -29 -23h-137q-13 0 -19.5 7.5t-3.5 20.5l61 292q20 92 -12 103q-25 8 -20 29l1 5q4 23 28 24q94 8 203 28q14 3 21 -3.5t4 -21.5l-2 -7q-4 -18 3.5 -21.5t21.5 8.5q61 52 126 52q91 0 126.5 -46.5t19.5 -126.5l-45 -214q-12 -56 10 -60q4 -1 10 -1.5 t8.5 -1t6 -2.5t5.5 -6q8 -20 -8 -32q-48 -40 -122 -40q-64 0 -90 39.5t-11 107.5l44 209q10 53 2 74.5t-34 21.5q-28 0 -63.5 -45.5t-46.5 -95.5zM275 -156q-11 -13 -37 -13q-25 0 -38 17.5t-7 46.5q6 28 31 48.5t55 20.5q78 0 61 -83q-18 -82 -104 -129q-22 -12 -29 1 q-5 10 17 28q39 28 51 63z" glyph-name="uni0146" horiz-adv-x="646" unicode="ņ"/><glyph d="M152 20q-4 -24 -30 -22q-44 2 -67 2q-44 0 -64 -2q-14 -1 -20.5 6t-4.5 20l1 5q4 19 27 24q28 6 44 35t32 102l78 367q4 18 -6 34q-28 46 -57 56q-25 8 -21 29l1 4q5 24 29 22q58 -2 103 -2q44 0 104 2q23 2 32 -17l75 -150l6 -13l101 -202q8 -17 19 -15.5t15 19.5 l39 186q15 71 12.5 99.5t-24.5 35.5q-24 10 -20 30l1 5q4 24 29 22q42 -2 66 -2q43 0 66 2q14 1 20.5 -5.5t4.5 -19.5l-1 -6q-4 -19 -27 -24q-28 -6 -44 -35t-32 -102l-103 -487q-4 -23 -29 -23h-40q-22 0 -31 19l-224 444q-8 16 -19 14.5t-15 -19.5l-57 -268 q-15 -71 -12.5 -99.5t24.5 -35.5q24 -8 20 -30zM604 909q24 10 33 -6q9 -17 -11 -31l-172 -121q-20 -14 -37 3l-116 118q-17 19 -4 33q14 16 34 5l126 -63z" glyph-name="Ncaron" horiz-adv-x="693" unicode="Ň"/><glyph d="M190 23q-4 -23 -29 -23h-137q-13 0 -19.5 7.5t-3.5 20.5l61 292q20 92 -12 103q-25 8 -20 29l1 5q4 23 28 24q94 8 203 28q14 3 21 -3.5t4 -21.5l-2 -7q-4 -18 3.5 -21.5t21.5 8.5q61 52 126 52q91 0 126.5 -46.5t19.5 -126.5l-45 -214q-12 -56 10 -60q4 -1 10 -1.5 t8.5 -1t6 -2.5t5.5 -6q8 -20 -8 -32q-48 -40 -122 -40q-64 0 -90 39.5t-11 107.5l44 209q10 53 2 74.5t-34 21.5q-28 0 -63.5 -45.5t-46.5 -95.5zM514 735q24 10 33 -6q9 -17 -11 -31l-172 -121q-20 -14 -37 3l-116 118q-17 19 -4 33q14 16 34 5l126 -63z" glyph-name="ncaron" horiz-adv-x="646" unicode="ň"/><glyph d="M323 -15q-165 -1 -244 102t-45 263q34 159 157 262.5t288 102.5t244 -104t45 -261q-34 -159 -156.5 -261.5t-288.5 -103.5zM241 331q-13 -147 23 -227t108 -70q74 10 125 99.5t64 235.5q13 147 -22.5 226t-108.5 71t-124.5 -98.5t-64.5 -236.5zM336 819q5 23 28 23h245 q29 0 23 -26l-1 -3q-5 -23 -28 -23h-244q-29 0 -23 29z" glyph-name="Omacron" horiz-adv-x="800" unicode="Ō"/><glyph d="M227 -15q-127 0 -186.5 74.5t-34.5 191.5q25 116 115.5 190.5t217.5 74.5t186 -74.5t34 -190.5q-24 -117 -114.5 -191.5t-217.5 -74.5zM195 236q-4 -96 17.5 -150t60.5 -49q42 5 68 65.5t30 163.5q4 98 -16.5 151.5t-61.5 46.5q-42 -7 -68 -66.5t-30 -161.5zM190 616 q5 23 28 23h245q29 0 23 -26l-1 -3q-5 -23 -28 -23h-244q-29 0 -23 29z" glyph-name="omacron" horiz-adv-x="605" unicode="ō"/><glyph d="M323 -15q-165 -1 -244 102t-45 263q34 159 157 262.5t288 102.5t244 -104t45 -261q-34 -159 -156.5 -261.5t-288.5 -103.5zM241 331q-13 -147 23 -227t108 -70q74 10 125 99.5t64 235.5q13 147 -22.5 226t-108.5 71t-124.5 -98.5t-64.5 -236.5zM477 768q-22 -12 -30 3 q-8 12 12 28l182 136q21 16 36 -7l13 -20q14 -22 -10 -35zM339 770q-9 13 8 30l157 149q20 20 37 -3l14 -20q15 -22 -6 -36l-180 -119q-21 -13 -30 -1z" glyph-name="Ohungarumlaut" horiz-adv-x="800" unicode="Ő"/><glyph d="M227 -15q-127 0 -186.5 74.5t-34.5 191.5q25 116 115.5 190.5t217.5 74.5t186 -74.5t34 -190.5q-24 -117 -114.5 -191.5t-217.5 -74.5zM195 236q-4 -96 17.5 -150t60.5 -49q42 5 68 65.5t30 163.5q4 98 -16.5 151.5t-61.5 46.5q-42 -7 -68 -66.5t-30 -161.5zM343 561 q-22 -12 -30 3q-8 12 12 28l182 136q21 16 36 -7l13 -20q14 -22 -10 -35zM205 563q-9 13 8 30l157 149q20 20 37 -3l14 -20q15 -22 -6 -36l-180 -119q-21 -13 -30 -1z" glyph-name="ohungarumlaut" horiz-adv-x="605" unicode="ő"/><glyph d="M325 0q-171 -1 -246.5 94t-46.5 256q29 159 148 255t294 95h504q44 0 64 7q19 7 32 7q27 0 24 -27l-23 -218q-3 -25 -25 -25t-22 27q4 100 -27 139.5t-127 39.5h-102l-54 -257h48q46 0 70 18.5t31 63.5q3 25 25 25q21 0 21 -26l-4 -215q0 -26 -23 -26q-21 0 -26 25 q-7 47 -31 66.5t-74 19.5h-47q-2 -5 -4 -15l-29 -136l-30 -141h147q29 0 51 4t38.5 9t30 18t21.5 23.5t17.5 34.5t15 41t15.5 52q7 22 30 22q11 0 16 -8t2 -21l-46 -212q-5 -23 -31 -20q-17 3 -73 5h-554zM227 329q-11 -137 24 -209t106 -72q102 0 133 141l66 310 q16 86 -20.5 121.5t-95.5 29.5q-52 -6 -92 -35.5t-64.5 -76t-38 -98t-18.5 -111.5z" glyph-name="OE" horiz-adv-x="1098" unicode="Œ"/><glyph d="M227 -15q-127 0 -186.5 74.5t-34.5 191.5q25 116 115.5 190.5t217.5 74.5t187 -76q93 75 217 75q178 0 176 -118q-1 -66 -83 -131.5t-235 -90.5q5 -53 29 -84t65 -31q71 0 126 51q17 17 36 6q20 -12 6 -30q-77 -102 -230 -102q-128 0 -186 77q-93 -77 -220 -77zM195 236 q-4 -96 17.5 -150t60.5 -49q42 5 68 65.5t30 163.5q4 98 -16.5 151.5t-61.5 46.5q-42 -7 -68 -66.5t-30 -161.5zM602 228q72 25 111.5 81.5t42.5 111.5q3 50 -24 50q-39 0 -75.5 -61.5t-51.5 -160.5z" glyph-name="oe" horiz-adv-x="939" unicode="œ"/><glyph d="M294 415q-7 -29 13 -29q56 0 96.5 35t55.5 104q14 65 -12.5 97t-82.5 32q-20 0 -24 -23zM348 182q-3 10 -7.5 30.5t-6.5 29.5t-6 23t-7 21.5t-8 15.5t-10 14q-10 10 -20 5t-13 -19l-23 -109q-15 -71 -13.5 -101t20.5 -37q23 -9 19 -30l-1 -5q-5 -24 -29 -22q-84 2 -134 2 q-41 0 -129 -2q-14 -1 -20 6t-4 20l1 5q4 19 27 24q23 6 38 32.5t28 89.5l75 352q23 106 -11 119q-23 9 -19 29l1 5q5 23 29 23q65 -3 133 -3h181q122 0 177.5 -46.5t38.5 -128.5q-28 -132 -178 -172q-26 -7 -3 -23q35 -25 52.5 -60.5t27.5 -87.5q24 -114 69 -129 q26 -10 21 -29q-5 -25 -26 -26q-61 -4 -112 -2.5t-89.5 29.5t-51.5 85zM478 927q22 16 36 -9l19 -37q12 -24 -12 -34l-214 -89q-24 -10 -30 5q-6 13 13 28z" glyph-name="Racute" horiz-adv-x="704" unicode="Ŕ"/><glyph d="M189 23q-4 -23 -29 -23h-136q-13 0 -19.5 8t-3.5 21l64 300q10 54 7.5 76t-19.5 28q-25 8 -21 29l1 5q4 22 28 24q118 5 201 19q14 2 21 -4.5t4 -21.5l-3 -17q-4 -19 2.5 -21.5t19.5 11.5q56 59 127 59h2q33 0 51 -23.5t11 -55.5q-7 -35 -34.5 -57t-61.5 -22 q-52 0 -62 46q-4 26 -20 8q-58 -70 -82 -162zM383 722q22 16 36 -9l19 -37q12 -24 -12 -34l-214 -89q-24 -10 -30 5q-6 13 13 28z" glyph-name="racute" horiz-adv-x="488" unicode="ŕ"/><glyph d="M294 415q-7 -29 13 -29q56 0 96.5 35t55.5 104q14 65 -12.5 97t-82.5 32q-20 0 -24 -23zM348 182q-3 10 -7.5 30.5t-6.5 29.5t-6 23t-7 21.5t-8 15.5t-10 14q-10 10 -20 5t-13 -19l-23 -109q-15 -71 -13.5 -101t20.5 -37q23 -9 19 -30l-1 -5q-5 -24 -29 -22q-84 2 -134 2 q-41 0 -129 -2q-14 -1 -20 6t-4 20l1 5q4 19 27 24q23 6 38 32.5t28 89.5l75 352q23 106 -11 119q-23 9 -19 29l1 5q5 23 29 23q65 -3 133 -3h181q122 0 177.5 -46.5t38.5 -128.5q-28 -132 -178 -172q-26 -7 -3 -23q35 -25 52.5 -60.5t27.5 -87.5q24 -114 69 -129 q26 -10 21 -29q-5 -25 -26 -26q-61 -4 -112 -2.5t-89.5 29.5t-51.5 85zM330 -157q-11 -13 -37 -13q-25 0 -38 17.5t-7 46.5q6 28 31 48.5t55 20.5q78 0 61 -83q-18 -82 -104 -129q-22 -12 -29 1q-5 10 17 28q39 28 51 63z" glyph-name="uni0156" horiz-adv-x="704" unicode="Ŗ"/><glyph d="M189 23q-4 -23 -29 -23h-136q-13 0 -19.5 8t-3.5 21l64 300q10 54 7.5 76t-19.5 28q-25 8 -21 29l1 5q4 22 28 24q118 5 201 19q14 2 21 -4.5t4 -21.5l-3 -17q-4 -19 2.5 -21.5t19.5 11.5q56 59 127 59h2q33 0 51 -23.5t11 -55.5q-7 -35 -34.5 -57t-61.5 -22 q-52 0 -62 46q-4 26 -20 8q-58 -70 -82 -162zM84 -165q-11 -13 -37 -13q-25 0 -38 17.5t-7 46.5q6 28 31 48.5t55 20.5q78 0 61 -83q-18 -82 -104 -129q-23 -12 -29 1q-5 10 17 28q39 28 51 63z" glyph-name="uni0157" horiz-adv-x="488" unicode="ŗ"/><glyph d="M294 415q-7 -29 13 -29q56 0 96.5 35t55.5 104q14 65 -12.5 97t-82.5 32q-20 0 -24 -23zM348 182q-3 10 -7.5 30.5t-6.5 29.5t-6 23t-7 21.5t-8 15.5t-10 14q-10 10 -20 5t-13 -19l-23 -109q-15 -71 -13.5 -101t20.5 -37q23 -9 19 -30l-1 -5q-5 -24 -29 -22q-84 2 -134 2 q-41 0 -129 -2q-14 -1 -20 6t-4 20l1 5q4 19 27 24q23 6 38 32.5t28 89.5l75 352q23 106 -11 119q-23 9 -19 29l1 5q5 23 29 23q65 -3 133 -3h181q122 0 177.5 -46.5t38.5 -128.5q-28 -132 -178 -172q-26 -7 -3 -23q35 -25 52.5 -60.5t27.5 -87.5q24 -114 69 -129 q26 -10 21 -29q-5 -25 -26 -26q-61 -4 -112 -2.5t-89.5 29.5t-51.5 85zM541 929q24 10 33 -6q9 -17 -11 -31l-172 -121q-20 -14 -37 3l-116 118q-17 19 -4 33q14 16 34 5l126 -63z" glyph-name="Rcaron" horiz-adv-x="704" unicode="Ř"/><glyph d="M189 23q-4 -23 -29 -23h-136q-13 0 -19.5 8t-3.5 21l64 300q10 54 7.5 76t-19.5 28q-25 8 -21 29l1 5q4 22 28 24q118 5 201 19q14 2 21 -4.5t4 -21.5l-3 -17q-4 -19 2.5 -21.5t19.5 11.5q56 59 127 59h2q33 0 51 -23.5t11 -55.5q-7 -35 -34.5 -57t-61.5 -22 q-52 0 -62 46q-4 26 -20 8q-58 -70 -82 -162zM472 727q24 10 33 -6q9 -17 -11 -31l-172 -121q-20 -14 -37 3l-116 118q-17 19 -4 33q14 16 34 5l126 -63z" glyph-name="rcaron" horiz-adv-x="488" unicode="ř"/><glyph d="M257 -15q-35 0 -64.5 5.5t-46.5 12t-31.5 11.5t-26.5 3.5t-26 -11.5q-16 -12 -33 -12h-7q-28 0 -25 27l25 220q3 24 28 24q23 0 28 -25q12 -85 63 -141t110 -56q49 0 80.5 25t41.5 72q8 38 -12.5 69.5t-57 52t-79 46t-78 51.5t-53.5 69t-6 97q17 81 91.5 135.5 t183.5 54.5q51 0 89.5 -8t52.5 -16t25.5 -8t22.5 14q13 16 32 16h6q28 0 25 -27l-21 -200q-3 -25 -27 -25h-1q-24 0 -28 24q-17 79 -57 128t-92 49q-91 0 -108 -81q-6 -30 8.5 -55t43 -43.5t64 -37.5t70 -42t61 -50.5t37.5 -69.5t0 -94q-20 -93 -105 -148.5t-203 -55.5z M480 940q22 16 36 -9l19 -37q12 -24 -12 -34l-214 -89q-24 -10 -30 5q-6 13 13 28z" glyph-name="Sacute" horiz-adv-x="627" unicode="Ś"/><glyph d="M-26 146q6 35 34.5 58.5t64.5 23.5q34 0 53.5 -23.5t12.5 -58.5q-9 -42 -43 -66q-26 -21 0 -28q17 -5 32 -5q24 0 47 11t45 38.5t27.5 73.5t-5.5 116q-4 17 -15 20.5t-22 -9.5q-16 -17 -48 -49q-18 -18 -36 0l-3 3q-18 18 -1 37q32 33 80 90q14 17 5 35q-25 52 -25 77 q0 33 24.5 52t60.5 19q35 0 59.5 -17.5t24.5 -43.5q0 -22 -14 -50q-12 -19 0 -36q8 -12 31.5 -46.5t32 -49.5t21.5 -44t16 -56t0 -59q-9 -77 -77.5 -126t-179.5 -49q-101 0 -159 46t-43 116zM348 769q22 16 36 -9l19 -37q12 -24 -12 -34l-214 -89q-24 -10 -30 5q-6 13 13 28 z" glyph-name="sacute" horiz-adv-x="489" unicode="ś"/><glyph d="M160 -222q-13 3 -17 11.5t2 17.5l1 2q7 12 32 17q15 3 27.5 14.5t15.5 27.5q3 18 -8 27t-13 13t3 16l38 61q-37 2 -69 10t-47 15t-31 7.5t-32 -11.5t-33 -12h-7q-28 0 -25 27l25 220q3 24 28 24q23 0 28 -25q12 -85 63 -141t110 -56q49 0 80.5 25t41.5 72 q8 38 -12.5 69.5t-57 52t-79 46t-78 51.5t-53.5 69t-6 97q17 81 91.5 135.5t183.5 54.5q51 0 89.5 -8t52.5 -16t25.5 -8t22.5 14q13 16 32 16h6q28 0 25 -27l-21 -200q-3 -25 -27 -25h-1q-24 0 -28 24q-17 79 -57 128t-92 49q-91 0 -108 -81q-6 -30 8.5 -55t43 -43.5 t64 -37.5t70 -42t61 -50.5t37.5 -69.5t0 -94q-19 -86 -93 -140.5t-181 -62.5l-15 -24q-13 -22 13 -33q42 -19 32 -64q-11 -50 -61.5 -74t-99.5 -13z" glyph-name="Scedilla" horiz-adv-x="627" unicode="Ş"/><glyph d="M-26 146q6 35 34.5 58.5t64.5 23.5q34 0 53.5 -23.5t12.5 -58.5q-9 -42 -43 -66q-26 -21 0 -28q17 -5 32 -5q24 0 47 11t45 38.5t27.5 73.5t-5.5 116q-4 17 -15 20.5t-22 -9.5q-16 -17 -48 -49q-18 -18 -36 0l-3 3q-18 18 -1 37q32 33 80 90q14 17 5 35q-25 52 -25 77 q0 33 24.5 52t60.5 19q35 0 59.5 -17.5t24.5 -43.5q0 -22 -14 -50q-12 -19 0 -36q8 -12 31.5 -46.5t32 -49.5t21.5 -44t16 -56t0 -59q-8 -72 -69 -120t-161 -54l-14 -24q-13 -22 13 -33q42 -19 32 -64q-11 -50 -61.5 -74t-99.5 -13q-13 3 -17 11.5t2 17.5l1 2q7 12 32 17 q15 3 27.5 14.5t15.5 27.5q3 18 -8 27t-13 13t3 16l38 62q-92 5 -143 50.5t-37 110.5z" glyph-name="scedilla" horiz-adv-x="489" unicode="ş"/><glyph d="M257 -15q-35 0 -64.5 5.5t-46.5 12t-31.5 11.5t-26.5 3.5t-26 -11.5q-16 -12 -33 -12h-7q-28 0 -25 27l25 220q3 24 28 24q23 0 28 -25q12 -85 63 -141t110 -56q49 0 80.5 25t41.5 72q8 38 -12.5 69.5t-57 52t-79 46t-78 51.5t-53.5 69t-6 97q17 81 91.5 135.5 t183.5 54.5q51 0 89.5 -8t52.5 -16t25.5 -8t22.5 14q13 16 32 16h6q28 0 25 -27l-21 -200q-3 -25 -27 -25h-1q-24 0 -28 24q-17 79 -57 128t-92 49q-91 0 -108 -81q-6 -30 8.5 -55t43 -43.5t64 -37.5t70 -42t61 -50.5t37.5 -69.5t0 -94q-20 -93 -105 -148.5t-203 -55.5z M559 931q24 10 33 -6q9 -17 -11 -31l-172 -121q-20 -14 -37 3l-116 118q-17 19 -4 33q14 16 34 5l126 -63z" glyph-name="Scaron" horiz-adv-x="627" unicode="Š"/><glyph d="M-26 146q6 35 34.5 58.5t64.5 23.5q34 0 53.5 -23.5t12.5 -58.5q-9 -42 -43 -66q-26 -21 0 -28q17 -5 32 -5q24 0 47 11t45 38.5t27.5 73.5t-5.5 116q-4 17 -15 20.5t-22 -9.5q-16 -17 -48 -49q-18 -18 -36 0l-3 3q-18 18 -1 37q32 33 80 90q14 17 5 35q-25 52 -25 77 q0 33 24.5 52t60.5 19q35 0 59.5 -17.5t24.5 -43.5q0 -22 -14 -50q-12 -19 0 -36q8 -12 31.5 -46.5t32 -49.5t21.5 -44t16 -56t0 -59q-9 -77 -77.5 -126t-179.5 -49q-101 0 -159 46t-43 116zM436 775q24 10 33 -6q9 -17 -11 -31l-172 -121q-20 -14 -37 3l-116 118 q-17 19 -4 33q14 16 34 5l126 -63z" glyph-name="scaron" horiz-adv-x="489" unicode="š"/><glyph d="M103 691q4 23 27 23h4q8 0 32 -8q19 -5 56 -6h336q44 1 62 7q19 7 32 7q12 0 17.5 -7.5t2.5 -20.5l-34 -164q-4 -23 -24 -23q-19 0 -17 27q2 58 -21 90t-92 32q-10 0 -14 -23l-91 -432q-16 -71 -14.5 -101t20.5 -37q24 -9 20 -29l-1 -6q-5 -24 -29 -22q-13 1 -44.5 1.5 t-45.5 0.5l-17 -28q-13 -22 13 -33q42 -19 32 -64q-11 -50 -61.5 -74t-99.5 -13q-13 3 -17 11.5t2 17.5l1 2q7 12 32 17q15 3 27.5 14.5t15.5 27.5q3 18 -8 27t-13 13t3 16l41 66q-42 0 -124 -2q-14 -1 -20 6t-4 20l1 5q4 19 26 24q23 6 37 31t29 86l95 448q3 14 -4 21.5 t-21 5.5q-60 -8 -92 -40t-51 -85q-8 -21 -26 -21q-8 0 -12 7.5t-1 20.5z" glyph-name="uni0162" horiz-adv-x="632" unicode="Ţ"/><glyph d="M63 381q9 56 -24 66q-25 9 -21 29v1q4 22 28 24q160 14 208 194q6 23 28 23h17q13 0 19.5 -8t3.5 -21l-35 -160q-3 -13 3.5 -21t19.5 -8h21q13 0 19.5 -7.5t3.5 -19.5l-1 -4q-4 -23 -28 -23h-32q-25 0 -29 -23l-62 -294q-12 -56 10 -60q4 -1 10 -1.5t8.5 -1t6 -2.5 t5.5 -6q8 -20 -8 -32q-38 -31 -92 -38l-15 -25q-13 -22 13 -33q42 -19 32 -64q-11 -50 -61.5 -74t-99.5 -13q-13 3 -17 11.5t2 17.5l1 2q7 12 32 17q15 3 27.5 14.5t15.5 27.5q3 18 -8 27t-13 13t3 16l39 62q-54 6 -75 45t-7 101z" glyph-name="uni0163" horiz-adv-x="329" unicode="ţ"/><glyph d="M103 691q4 23 27 23h4q8 0 32 -8q19 -5 56 -6h336q44 1 62 7q19 7 32 7q12 0 17.5 -7.5t2.5 -20.5l-34 -164q-4 -23 -24 -23q-19 0 -17 27q2 58 -21 90t-92 32q-10 0 -14 -23l-91 -432q-16 -71 -14.5 -101t20.5 -37q24 -9 20 -29l-1 -6q-5 -24 -29 -22q-84 2 -135 2 q-42 0 -128 -2q-14 -1 -20 6t-4 20l1 5q4 19 26 24q23 6 37 31t29 86l95 448q3 14 -4 21.5t-21 5.5q-60 -8 -92 -40t-51 -85q-8 -21 -26 -21q-8 0 -12 7.5t-1 20.5zM559 906q24 10 33 -6q9 -17 -11 -31l-172 -121q-20 -14 -37 3l-116 118q-17 19 -4 33q14 16 34 5l126 -63z " glyph-name="Tcaron" horiz-adv-x="632" unicode="Ť"/><glyph d="M63 381q9 56 -24 66q-25 9 -21 29v1q4 22 28 24q160 14 208 194q6 23 28 23h17q13 0 19.5 -8t3.5 -21l-35 -160q-3 -13 3.5 -21t19.5 -8h21q13 0 19.5 -7.5t3.5 -19.5l-1 -4q-4 -23 -28 -23h-32q-25 0 -29 -23l-62 -294q-12 -56 10 -60q4 -1 10 -1.5t8.5 -1t6 -2.5 t5.5 -6q8 -20 -8 -32q-48 -40 -122 -40q-64 0 -90 39.5t-11 107.5zM431 711q-11 -13 -37 -13q-22 0 -35.5 18.5t-7.5 45.5q6 26 30.5 46t51.5 20q40 0 54 -23.5t8 -55.5q-18 -83 -104 -130q-22 -12 -29 2q-6 12 18 28q40 30 51 62z" glyph-name="tcaron" horiz-adv-x="329" unicode="ť"/><glyph d="M584 234q-25 -113 -106 -177.5t-197 -64.5q-137 0 -196.5 63.5t-34.5 178.5l71 335q10 67 -18 77q-24 11 -19 29l1 5q5 23 29 23q65 -3 133 -3q44 0 130 2q14 1 20.5 -6t3.5 -19l-1 -5q-4 -19 -27 -24q-23 -6 -37.5 -34t-29.5 -95l-60 -280q-18 -84 7.5 -130t83.5 -46 q65 0 121 44.5t75 131.5l58 271h-1q16 72 16.5 98.5t-15.5 36.5q-12 6 -16.5 11.5t-2.5 17.5l1 5q5 23 30 22q44 -2 55 -2q30 0 48 1q13 1 20 -5.5t5 -18.5l-1 -5q-4 -18 -27 -24q-17 -5 -27.5 -24t-21.5 -62zM315 769q-11 13 4 30q29 35 64.5 58.5t66.5 23.5t69.5 -24 t54.5 -24q26 0 53 29q20 20 29 10q11 -12 -1 -31q-24 -35 -57.5 -58.5t-65.5 -23.5q-26 0 -63.5 24.5t-58.5 24.5q-26 0 -65 -33q-19 -19 -30 -6z" glyph-name="Utilde" horiz-adv-x="670" unicode="Ũ"/><glyph d="M50 303q13 62 11.5 87.5t-18.5 32.5q-25 8 -20 29l1 5q4 23 28 24q92 8 204 28q14 3 21 -4t4 -22l-39 -178l-31 -147q-20 -95 30 -95q30 0 64.5 37.5t44.5 85.5v-1l25 118q13 63 11 88.5t-20 31.5q-25 8 -20 29l1 5q4 23 28 24q92 8 204 28q14 3 21 -3.5t4 -21.5l-5 -24 l-70 -331q-12 -56 11 -60q4 -1 10 -1.5t8.5 -1t6 -2.5t5.5 -6q8 -20 -8 -32q-48 -40 -122 -40q-83 0 -102 65q-3 12 -7 13.5t-12 -8.5q-30 -35 -72.5 -53.5t-81.5 -18.5q-91 0 -127 46.5t-19 126.5zM184 570q-11 13 4 30q29 35 64.5 58.5t66.5 23.5t69.5 -24t54.5 -24 q26 0 53 29q20 20 29 10q11 -12 -1 -31q-24 -35 -57.5 -58.5t-65.5 -23.5q-26 0 -63.5 24.5t-58.5 24.5q-27 0 -65 -33q-19 -19 -30 -6z" glyph-name="utilde" horiz-adv-x="652" unicode="ũ"/><glyph d="M584 234q-25 -113 -106 -177.5t-197 -64.5q-137 0 -196.5 63.5t-34.5 178.5l71 335q10 67 -18 77q-24 11 -19 29l1 5q5 23 29 23q65 -3 133 -3q44 0 130 2q14 1 20.5 -6t3.5 -19l-1 -5q-4 -19 -27 -24q-23 -6 -37.5 -34t-29.5 -95l-60 -280q-18 -84 7.5 -130t83.5 -46 q65 0 121 44.5t75 131.5l58 271h-1q16 72 16.5 98.5t-15.5 36.5q-12 6 -16.5 11.5t-2.5 17.5l1 5q5 23 30 22q44 -2 55 -2q30 0 48 1q13 1 20 -5.5t5 -18.5l-1 -5q-4 -18 -27 -24q-17 -5 -27.5 -24t-21.5 -62zM337 801q5 23 28 23h245q29 0 23 -26l-1 -3q-5 -23 -28 -23 h-244q-29 0 -23 29z" glyph-name="Umacron" horiz-adv-x="670" unicode="Ū"/><glyph d="M50 303q13 62 11.5 87.5t-18.5 32.5q-25 8 -20 29l1 5q4 23 28 24q92 8 204 28q14 3 21 -4t4 -22l-39 -178l-31 -147q-20 -95 30 -95q30 0 64.5 37.5t44.5 85.5v-1l25 118q13 63 11 88.5t-20 31.5q-25 8 -20 29l1 5q4 23 28 24q92 8 204 28q14 3 21 -3.5t4 -21.5l-5 -24 l-70 -331q-12 -56 11 -60q4 -1 10 -1.5t8.5 -1t6 -2.5t5.5 -6q8 -20 -8 -32q-48 -40 -122 -40q-83 0 -102 65q-3 12 -7 13.5t-12 -8.5q-30 -35 -72.5 -53.5t-81.5 -18.5q-91 0 -127 46.5t-19 126.5zM211 607q5 23 28 23h245q29 0 23 -26l-1 -3q-5 -23 -28 -23h-244 q-29 0 -23 29z" glyph-name="umacron" horiz-adv-x="652" unicode="ū"/><glyph d="M584 234q-25 -113 -106 -177.5t-197 -64.5q-137 0 -196.5 63.5t-34.5 178.5l71 335q10 67 -18 77q-24 11 -19 29l1 5q5 23 29 23q65 -3 133 -3q44 0 130 2q14 1 20.5 -6t3.5 -19l-1 -5q-4 -19 -27 -24q-23 -6 -37.5 -34t-29.5 -95l-60 -280q-18 -84 7.5 -130t83.5 -46 q65 0 121 44.5t75 131.5l58 271h-1q16 72 16.5 98.5t-15.5 36.5q-12 6 -16.5 11.5t-2.5 17.5l1 5q5 23 30 22q44 -2 55 -2q30 0 48 1q13 1 20 -5.5t5 -18.5l-1 -5q-4 -18 -27 -24q-17 -5 -27.5 -24t-21.5 -62zM471 739q-49 0 -73.5 25.5t-16.5 63.5t43.5 63.5t84.5 25.5 q48 0 73 -25.5t17 -63.5t-43.5 -63.5t-84.5 -25.5zM465 823q0 -25 7.5 -41t17.5 -15q10 2 16.5 21t6.5 45q1 24 -6 40.5t-17 14.5q-23 -5 -25 -65z" glyph-name="Uring" horiz-adv-x="670" unicode="Ů"/><glyph d="M50 303q13 62 11.5 87.5t-18.5 32.5q-25 8 -20 29l1 5q4 23 28 24q92 8 204 28q14 3 21 -4t4 -22l-39 -178l-31 -147q-20 -95 30 -95q30 0 64.5 37.5t44.5 85.5v-1l25 118q13 63 11 88.5t-20 31.5q-25 8 -20 29l1 5q4 23 28 24q92 8 204 28q14 3 21 -3.5t4 -21.5l-5 -24 l-70 -331q-12 -56 11 -60q4 -1 10 -1.5t8.5 -1t6 -2.5t5.5 -6q8 -20 -8 -32q-48 -40 -122 -40q-83 0 -102 65q-3 12 -7 13.5t-12 -8.5q-30 -35 -72.5 -53.5t-81.5 -18.5q-91 0 -127 46.5t-19 126.5zM349 555q-49 0 -73.5 25.5t-16.5 63.5t43.5 63.5t84.5 25.5q48 0 73 -25.5 t17 -63.5t-43.5 -63.5t-84.5 -25.5zM343 639q0 -25 7.5 -41t17.5 -15q10 2 16.5 21.5t6.5 44.5q1 24 -6 40.5t-17 14.5q-23 -5 -25 -65z" glyph-name="uring" horiz-adv-x="652" unicode="ů"/><glyph d="M584 234q-25 -113 -106 -177.5t-197 -64.5q-137 0 -196.5 63.5t-34.5 178.5l71 335q10 67 -18 77q-24 11 -19 29l1 5q5 23 29 23q65 -3 133 -3q44 0 130 2q14 1 20.5 -6t3.5 -19l-1 -5q-4 -19 -27 -24q-23 -6 -37.5 -34t-29.5 -95l-60 -280q-18 -84 7.5 -130t83.5 -46 q65 0 121 44.5t75 131.5l58 271h-1q16 72 16.5 98.5t-15.5 36.5q-12 6 -16.5 11.5t-2.5 17.5l1 5q5 23 30 22q44 -2 55 -2q30 0 48 1q13 1 20 -5.5t5 -18.5l-1 -5q-4 -18 -27 -24q-17 -5 -27.5 -24t-21.5 -62zM481 765q-22 -12 -30 3q-8 12 12 28l182 136q21 16 36 -7 l13 -20q14 -22 -10 -35zM343 767q-9 13 8 30l157 149q20 20 37 -3l14 -20q15 -22 -6 -36l-180 -119q-21 -13 -30 -1z" glyph-name="Uhungarumlaut" horiz-adv-x="670" unicode="Ű"/><glyph d="M50 303q13 62 11.5 87.5t-18.5 32.5q-25 8 -20 29l1 5q4 23 28 24q92 8 204 28q14 3 21 -4t4 -22l-39 -178l-31 -147q-20 -95 30 -95q30 0 64.5 37.5t44.5 85.5v-1l25 118q13 63 11 88.5t-20 31.5q-25 8 -20 29l1 5q4 23 28 24q92 8 204 28q14 3 21 -3.5t4 -21.5l-5 -24 l-70 -331q-12 -56 11 -60q4 -1 10 -1.5t8.5 -1t6 -2.5t5.5 -6q8 -20 -8 -32q-48 -40 -122 -40q-83 0 -102 65q-3 12 -7 13.5t-12 -8.5q-30 -35 -72.5 -53.5t-81.5 -18.5q-91 0 -127 46.5t-19 126.5zM354 555q-22 -12 -30 3q-8 12 12 28l182 136q21 16 36 -7l13 -20 q14 -22 -10 -35zM216 557q-9 13 8 30l157 149q20 20 37 -3l14 -20q15 -22 -6 -36l-180 -119q-21 -13 -30 -1z" glyph-name="uhungarumlaut" horiz-adv-x="652" unicode="ű"/><glyph d="M584 234q-19 -86 -71 -144.5t-129 -82.5q-23 -12 -43.5 -36.5t-25.5 -49.5q-10 -48 29 -52q26 -3 28 -22v-1q3 -25 -19 -31q-60 -18 -110 3.5t-37 83.5q11 53 70 90q-135 1 -193 64.5t-33 177.5l71 335q10 67 -18 77q-24 11 -19 29l1 5q5 23 29 23q65 -3 133 -3 q44 0 130 2q14 1 20.5 -6t3.5 -19l-1 -5q-4 -19 -27 -24q-23 -6 -37.5 -34t-29.5 -95l-60 -280q-18 -84 7.5 -130t83.5 -46q65 0 121 44.5t75 131.5l58 271h-1q16 72 16.5 98.5t-15.5 36.5q-12 6 -16.5 11.5t-2.5 17.5l1 5q5 23 30 22q44 -2 55 -2q30 0 48 1q13 1 20 -5.5 t5 -18.5l-1 -5q-4 -18 -27 -24q-17 -5 -27.5 -24t-21.5 -62z" glyph-name="Uogonek" horiz-adv-x="670" unicode="Ų"/><glyph d="M50 303q13 62 11.5 87.5t-18.5 32.5q-25 8 -20 29l1 5q4 23 28 24q92 8 204 28q14 3 21 -4t4 -22l-39 -178l-31 -147q-20 -95 30 -95q30 0 64.5 37.5t44.5 85.5v-1l25 118q13 63 11 88.5t-20 31.5q-25 8 -20 29l1 5q4 23 28 24q92 8 204 28q14 3 21 -3.5t4 -21.5l-5 -24 l-70 -331q-12 -56 11 -60q4 -1 10 -1.5t8.5 -1t6 -2.5t5.5 -6q8 -20 -8 -32q-29 -23 -66 -33q-23 -12 -43.5 -36.5t-25.5 -49.5q-10 -48 29 -52q26 -3 28 -22v-1q3 -25 -19 -31q-60 -18 -110 3.5t-37 83.5q6 30 31 57.5t59 43.5q-56 12 -70 62q-3 12 -7 13.5t-12 -8.5 q-30 -35 -72.5 -53.5t-81.5 -18.5q-91 0 -127 46.5t-19 126.5z" glyph-name="uogonek" horiz-adv-x="652" unicode="ų"/><glyph d="M345 701q14 1 20 -5.5t5 -19.5v-4q-3 -20 -26 -26q-17 -5 -18 -30.5t10 -95.5l40 -249q3 -19 13.5 -21t19.5 15l67 119q9 16 6 34l-22 137q-17 79 -42 89q-13 6 -17.5 11.5t-2.5 17.5l1 6q4 23 28 22q88 -2 158 -2q63 0 151 2q14 1 20.5 -6t3.5 -19l-2 -6q-6 -22 -29 -23 q-40 -3 -64 -31q-11 -13 -8 -33l46 -308q3 -19 13.5 -20.5t19.5 14.5l151 274q29 56 32 76.5t-16 26.5q-26 6 -20 29l2 5q5 22 30 22q50 -3 82 -3q34 0 50 1q15 1 21.5 -5.5t3.5 -18.5l-2 -7q-5 -19 -28 -22q-28 -5 -54 -31.5t-64 -95.5l-277 -502q-11 -18 -31 -18h-44 q-25 0 -28 24l-41 257q-3 19 -13.5 21t-19.5 -15l-150 -269q-10 -18 -31 -18h-45q-23 0 -28 24l-84 504q-12 63 -24.5 88t-33.5 30q-26 6 -22 28l1 5q4 23 28 22q80 -2 127 -2t137 2zM468 742q-22 -9 -33 8q-10 17 11 31l172 121q20 14 37 -3l116 -118q17 -19 4 -33 q-14 -16 -34 -5l-125 63z" glyph-name="Wcircumflex" horiz-adv-x="989" unicode="Ŵ"/><glyph d="M246 62q66 0 115 205l31 146q4 23 29 23l124 -1q13 0 19.5 -7.5t3.5 -20.5l-40 -190q-13 -61 -15 -95t4.5 -47t22.5 -13q54 0 108.5 94t67.5 212q2 15 -3 21t-16 3q-11 -4 -24 -4q-29 0 -42.5 19.5t-8.5 51.5q5 29 28 49t53 20q26 0 43 -17q4 -5 7 -11l2 -2 q12 -34 12 -85.5t-11.5 -108.5t-36.5 -114.5t-59 -103t-83 -74t-104 -28.5q-74 0 -110 56q-13 22 -31 4q-62 -60 -144 -60q-92 0 -132.5 57.5t-19.5 153.5l23 108q13 62 11.5 87.5t-18.5 32.5q-25 8 -20 29l1 5q4 23 28 24q92 8 204 28q14 3 21 -3.5t4 -21.5l-57 -267 q-34 -155 13 -155zM339 564q-22 -9 -33 8q-10 17 11 31l172 121q20 14 37 -3l116 -118q17 -19 4 -33q-14 -16 -34 -5l-125 63z" glyph-name="wcircumflex" horiz-adv-x="793" unicode="ŵ"/><glyph d="M523 681q6 23 30 21q54 -2 75 -2q35 0 52 1q14 1 21 -5.5t4 -18.5l-1 -5q-6 -20 -28 -24q-27 -5 -55.5 -32t-75.5 -97l-133 -196q-9 -13 -12 -30l-22 -100q-16 -71 -14.5 -101t20.5 -37q24 -9 20 -29l-1 -6q-5 -24 -29 -22q-82 2 -131 2q-42 0 -126 -2q-14 -1 -20 6 t-4 20l1 5q4 20 26 24q24 6 38.5 34t30.5 98l17 82q3 17 -1 33l-70 255q-14 46 -27 66.5t-31 25.5q-26 8 -22 29l1 4q4 23 28 22q70 -2 127 -2t143 2q13 1 20 -6t5 -19l-1 -4q-4 -21 -27 -24q-15 -2 -21 -9.5t-4 -34t13.5 -72t36.5 -130.5q3 -10 9 -14.5t13 -2t13 11.5 l82 121q30 45 44 71.5t14.5 39.5t-10.5 17q-24 10 -19 29zM279 752q-22 -9 -33 8q-10 17 11 31l172 121q20 14 37 -3l116 -118q17 -19 4 -33q-14 -16 -34 -5l-125 63z" glyph-name="Ycircumflex" horiz-adv-x="636" unicode="Ŷ"/><glyph d="M-48 -265q-52 1 -67.5 45.5t14.5 77.5q23 28 58 28q28 0 43.5 -18.5t13.5 -45.5q1 -3 4 -6t11.5 -8t17.5 4q49 34 112 107q13 15 10 34q-16 142 -62.5 305.5t-89.5 196.5q-2 1 -5 3.5t-4 3t-3.5 2.5t-2.5 3t-1.5 3t-1 3.5t0.5 4.5q3 20 21 25q31 11 71 11q109 0 147 -92 q44 -109 65 -228q2 -12 7.5 -16.5t12 -1.5t11.5 14q47 92 73 174q3 9 4 16t0.5 10.5t-2.5 3.5h-8q-31 1 -48.5 20.5t-14.5 49.5q2 28 25.5 48.5t53.5 19.5q29 -1 46 -21.5t15 -48.5v-1q-12 -86 -66 -210t-127.5 -239.5t-165 -196.5t-168.5 -80zM136 583q-22 -9 -33 8 q-10 17 11 31l172 121q20 14 37 -3l116 -118q17 -19 4 -33q-14 -16 -34 -5l-125 63z" glyph-name="ycircumflex" horiz-adv-x="496" unicode="ŷ"/><glyph d="M523 681q6 23 30 21q54 -2 75 -2q35 0 52 1q14 1 21 -5.5t4 -18.5l-1 -5q-6 -20 -28 -24q-27 -5 -55.5 -32t-75.5 -97l-133 -196q-9 -13 -12 -30l-22 -100q-16 -71 -14.5 -101t20.5 -37q24 -9 20 -29l-1 -6q-5 -24 -29 -22q-82 2 -131 2q-42 0 -126 -2q-14 -1 -20 6 t-4 20l1 5q4 20 26 24q24 6 38.5 34t30.5 98l17 82q3 17 -1 33l-70 255q-14 46 -27 66.5t-31 25.5q-26 8 -22 29l1 4q4 23 28 22q70 -2 127 -2t143 2q13 1 20 -6t5 -19l-1 -4q-4 -21 -27 -24q-15 -2 -21 -9.5t-4 -34t13.5 -72t36.5 -130.5q3 -10 9 -14.5t13 -2t13 11.5 l82 121q30 45 44 71.5t14.5 39.5t-10.5 17q-24 10 -19 29zM347 743q-37 0 -53 20.5t-8 56.5q8 35 32 55t60 20q35 0 51 -20t8 -55q-7 -36 -31 -56.5t-59 -20.5zM478 820q8 35 32 55t60 20q35 0 51 -20t8 -55q-7 -36 -31 -56.5t-59 -20.5q-36 0 -52.5 20.5t-8.5 56.5z" glyph-name="Ydieresis" horiz-adv-x="636" unicode="Ÿ"/><glyph d="M538 191q21 0 13 -29l-44 -155q-6 -22 -29 -22h-8q-6 0 -32 7q-26 8 -99 8h-345q-16 0 -21 9t4 23l415 585q9 13 4 22.5t-21 9.5h-100q-63 0 -99 -29.5t-58 -80.5q-9 -20 -29 -20q-22 0 -14 29l42 144q6 22 29 22h8q8 0 32 -8q16 -6 57 -6h363q16 0 21 -9t-4 -23 l-421 -597q-9 -12 -6.5 -17t16.5 -5h160q85 0 136 122q9 20 30 20zM459 926q22 16 36 -9l19 -37q12 -24 -12 -34l-214 -89q-24 -10 -30 5q-6 13 13 28z" glyph-name="Zacute" horiz-adv-x="601" unicode="Ź"/><glyph d="M-10 2q-16 0 -21 9t5 22l293 394q8 11 5 20.5t-17 13.5q-73 20 -104 20l-2.5 -2.5t-4 -7.5t0.5 -14q5 -12 3 -28q-4 -24 -23.5 -41.5t-43.5 -17.5q-21 0 -35 13t-16 33q-7 46 36 77t103 29q31 -1 135 -15.5t169 -9.5q7 1 10 -3.5t1 -12t-8 -16.5l-280 -388 q-16 -23 12 -34q4 -1 26.5 -9t32 -11t27 -5.5t31.5 -1.5q8 1 1 14l-5 10q-7 13 -4 32q5 24 25 41.5t44 17.5q21 0 34.5 -13t15.5 -33q5 -44 -32.5 -76.5t-90.5 -34.5q-51 -2 -163 13t-160 15zM379 740q22 16 36 -9l19 -37q12 -24 -12 -34l-214 -89q-24 -10 -30 5 q-6 13 13 28z" glyph-name="zacute" horiz-adv-x="496" unicode="ź"/><glyph d="M538 191q21 0 13 -29l-44 -155q-6 -22 -29 -22h-8q-6 0 -32 7q-26 8 -99 8h-345q-16 0 -21 9t4 23l415 585q9 13 4 22.5t-21 9.5h-100q-63 0 -99 -29.5t-58 -80.5q-9 -20 -29 -20q-22 0 -14 29l42 144q6 22 29 22h8q8 0 32 -8q16 -6 57 -6h363q16 0 21 -9t-4 -23 l-421 -597q-9 -12 -6.5 -17t16.5 -5h160q85 0 136 122q9 20 30 20zM367 759q-37 0 -54 21.5t-9 58.5q8 38 33.5 58.5t63.5 20.5q37 0 53 -21t9 -58q-8 -37 -33.5 -58.5t-62.5 -21.5z" glyph-name="Zdotaccent" horiz-adv-x="601" unicode="Ż"/><glyph d="M-10 2q-16 0 -21 9t5 22l293 394q8 11 5 20.5t-17 13.5q-73 20 -104 20l-2.5 -2.5t-4 -7.5t0.5 -14q5 -12 3 -28q-4 -24 -23.5 -41.5t-43.5 -17.5q-21 0 -35 13t-16 33q-7 46 36 77t103 29q31 -1 135 -15.5t169 -9.5q7 1 10 -3.5t1 -12t-8 -16.5l-280 -388 q-16 -23 12 -34q4 -1 26.5 -9t32 -11t27 -5.5t31.5 -1.5q8 1 1 14l-5 10q-7 13 -4 32q5 24 25 41.5t44 17.5q21 0 34.5 -13t15.5 -33q5 -44 -32.5 -76.5t-90.5 -34.5q-51 -2 -163 13t-160 15zM287 561q-37 0 -54 21.5t-9 58.5q8 38 33.5 58.5t63.5 20.5q37 0 53 -21t9 -58 q-8 -37 -33.5 -58.5t-62.5 -21.5z" glyph-name="zdotaccent" horiz-adv-x="496" unicode="ż"/><glyph d="M538 191q21 0 13 -29l-44 -155q-6 -22 -29 -22h-8q-6 0 -32 7q-26 8 -99 8h-345q-16 0 -21 9t4 23l415 585q9 13 4 22.5t-21 9.5h-100q-63 0 -99 -29.5t-58 -80.5q-9 -20 -29 -20q-22 0 -14 29l42 144q6 22 29 22h8q8 0 32 -8q16 -6 57 -6h363q16 0 21 -9t-4 -23 l-421 -597q-9 -12 -6.5 -17t16.5 -5h160q85 0 136 122q9 20 30 20zM532 919q24 10 33 -6q9 -17 -11 -31l-172 -121q-20 -14 -37 3l-116 118q-17 19 -4 33q14 16 34 5l126 -63z" glyph-name="Zcaron" horiz-adv-x="601" unicode="Ž"/><glyph d="M-10 2q-16 0 -21 9t5 22l293 394q8 11 5 20.5t-17 13.5q-73 20 -104 20l-2.5 -2.5t-4 -7.5t0.5 -14q5 -12 3 -28q-4 -24 -23.5 -41.5t-43.5 -17.5q-21 0 -35 13t-16 33q-7 46 36 77t103 29q31 -1 135 -15.5t169 -9.5q7 1 10 -3.5t1 -12t-8 -16.5l-280 -388 q-16 -23 12 -34q4 -1 26.5 -9t32 -11t27 -5.5t31.5 -1.5q8 1 1 14l-5 10q-7 13 -4 32q5 24 25 41.5t44 17.5q21 0 34.5 -13t15.5 -33q5 -44 -32.5 -76.5t-90.5 -34.5q-51 -2 -163 13t-160 15zM464 729q24 10 33 -6q9 -17 -11 -31l-172 -121q-20 -14 -37 3l-116 118 q-17 19 -4 33q14 16 34 5l126 -63z" glyph-name="zcaron" horiz-adv-x="496" unicode="ž"/><glyph d="M400 715q154 0 232 -101t49 -256q-31 -162 -148 -267t-279 -105q-123 0 -186 68.5t-45 156.5q5 24 18.5 36.5t48 24.5t113.5 30q117 25 256 61q21 5 24 27q12 109 -30.5 177t-113.5 68q-89 0 -195 -98q-17 -17 -36 -4q-20 12 0 37q121 145 292 145zM219 209 q-12 -57 2 -113t57 -56q54 0 102 62t80 178q5 15 -2.5 23t-23.5 4q-108 -26 -148 -36q-36 -9 -49 -23t-18 -39z" glyph-name="uni018F" horiz-adv-x="711" unicode="Ə"/><glyph d="M323 -15q-165 -1 -244 102t-45 263q34 159 157 262.5t288 102.5q87 0 154 -31q17 -9 28 -3q6 4 10 6q8 4 17 10q23 15 32 38q3 5 0 5q-8 -2 -14 -2q-25 0 -38.5 15.5t-8.5 41.5q7 30 30 47.5t54 17.5q72 0 55 -80q-14 -68 -92 -113q-25 -14 -4 -33q50 -49 67.5 -122 t-1.5 -162q-34 -159 -156.5 -261.5t-288.5 -103.5zM241 331q-13 -147 23 -227t108 -70q74 10 125 99.5t64 235.5q13 147 -22.5 226t-108.5 71t-124.5 -98.5t-64.5 -236.5z" glyph-name="Ohorn" horiz-adv-x="800" unicode="Ơ"/><glyph d="M227 -15q-127 0 -186.5 74.5t-34.5 191.5q25 116 115.5 190.5t217.5 74.5q68 0 119 -23q19 -9 26 -5q6 4 9 5q8 4 17 10q23 15 32 38q3 5 0 5q-8 -2 -14 -2q-25 0 -38.5 15.5t-8.5 41.5q7 30 30 47.5t54 17.5q72 0 55 -80q-13 -66 -89 -111q-24 -13 -6 -34 q59 -73 34 -190q-24 -117 -114.5 -191.5t-217.5 -74.5zM195 236q-4 -96 17.5 -150t60.5 -49q42 5 68 65.5t30 163.5q4 98 -16.5 151.5t-61.5 46.5q-42 -7 -68 -66.5t-30 -161.5z" glyph-name="ohorn" horiz-adv-x="605" unicode="ơ"/><glyph d="M584 234q-24 -113 -105.5 -177.5t-197.5 -64.5q-137 0 -196 63.5t-35 178.5l71 335q10 67 -18 77q-24 11 -19 29l1 5q5 23 29 23q65 -3 133 -3q44 0 130 2q14 1 20.5 -6t3.5 -19l-1 -5q-4 -19 -27 -24q-23 -6 -37.5 -34t-29.5 -95l-60 -280q-18 -84 7.5 -130t83.5 -46 q65 0 121 44.5t75 131.5l58 271h-1q16 72 16.5 98.5t-15.5 36.5q-12 6 -16.5 11.5t-2.5 17.5l1 5q5 23 30 22q44 -2 55 -2q30 0 47 1q15 2 21 -4q30 21 42 47q-8 -8 -27 -8q-25 0 -38.5 15.5t-8.5 41.5q7 30 30 47.5t54 17.5q72 0 55 -80q-8 -39 -41 -73.5t-79 -52.5l-5 -3 q-22 -9 -33.5 -28t-23.5 -69z" glyph-name="Uhorn" horiz-adv-x="670" unicode="Ư"/><glyph d="M50 303q13 62 11.5 87.5t-18.5 32.5q-25 8 -20 29l1 5q4 23 28 24q92 8 204 28q14 3 21 -4t4 -22l-39 -178l-31 -147q-20 -95 30 -95q30 0 64.5 37.5t44.5 85.5v-1l25 118q13 63 11 88.5t-20 31.5q-25 8 -20 29l1 5q4 23 28 24q92 8 204 28q14 3 21 -3.5t4 -21.5v-1 q1 0 2 1l6 3q46 24 62 59q-8 -8 -27 -8q-25 0 -38.5 15.5t-8.5 41.5q7 30 30 47.5t54 17.5q72 0 55 -80q-8 -40 -41.5 -74.5t-80.5 -52.5q-12 -6 -20 -3l-68 -321q-12 -56 11 -60q4 -1 10 -1.5t8.5 -1t6 -2.5t5.5 -6q8 -20 -8 -32q-48 -40 -122 -40q-83 0 -102 65 q-3 12 -7 13.5t-12 -8.5q-30 -35 -72.5 -53.5t-81.5 -18.5q-91 0 -127 46.5t-19 126.5z" glyph-name="uhorn" horiz-adv-x="652" unicode="ư"/><glyph d="M257 -15q-35 0 -64.5 5.5t-46.5 12t-31.5 11.5t-26.5 3.5t-26 -11.5q-16 -12 -33 -12h-7q-28 0 -25 27l25 220q3 24 28 24q23 0 28 -25q12 -85 63 -141t110 -56q49 0 80.5 25t41.5 72q8 38 -12.5 69.5t-57 52t-79 46t-78 51.5t-53.5 69t-6 97q17 81 91.5 135.5 t183.5 54.5q51 0 89.5 -8t52.5 -16t25.5 -8t22.5 14q13 16 32 16h6q28 0 25 -27l-21 -200q-3 -25 -27 -25h-1q-24 0 -28 24q-17 79 -57 128t-92 49q-91 0 -108 -81q-6 -30 8.5 -55t43 -43.5t64 -37.5t70 -42t61 -50.5t37.5 -69.5t0 -94q-20 -93 -105 -148.5t-203 -55.5z M268 -166q-11 -13 -37 -13q-25 0 -38 17.5t-7 46.5q6 28 31 48.5t55 20.5q78 0 61 -83q-18 -82 -104 -129q-23 -12 -29 1q-5 10 17 28q39 28 51 63z" glyph-name="uni0218" horiz-adv-x="627" unicode="Ș"/><glyph d="M-26 146q6 35 34.5 58.5t64.5 23.5q34 0 53.5 -23.5t12.5 -58.5q-9 -42 -43 -66q-26 -21 0 -28q17 -5 32 -5q24 0 47 11t45 38.5t27.5 73.5t-5.5 116q-4 17 -15 20.5t-22 -9.5q-16 -17 -48 -49q-18 -18 -36 0l-3 3q-18 18 -1 37q32 33 80 90q14 17 5 35q-25 52 -25 77 q0 33 24.5 52t60.5 19q35 0 59.5 -17.5t24.5 -43.5q0 -22 -14 -50q-12 -19 0 -36q8 -12 31.5 -46.5t32 -49.5t21.5 -44t16 -56t0 -59q-9 -77 -77.5 -126t-179.5 -49q-101 0 -159 46t-43 116zM165 -166q-11 -13 -37 -13q-25 0 -38 17.5t-7 46.5q6 28 31 48.5t55 20.5 q78 0 61 -83q-18 -82 -104 -129q-22 -12 -29 1q-5 10 17 28q39 28 51 63z" glyph-name="uni0219" horiz-adv-x="489" unicode="ș"/><glyph d="M103 691q4 23 27 23h4q8 0 32 -8q19 -5 56 -6h336q44 1 62 7q19 7 32 7q12 0 17.5 -7.5t2.5 -20.5l-34 -164q-4 -23 -24 -23q-19 0 -17 27q2 58 -21 90t-92 32q-10 0 -14 -23l-91 -432q-16 -71 -14.5 -101t20.5 -37q24 -9 20 -29l-1 -6q-5 -24 -29 -22q-84 2 -135 2 q-42 0 -128 -2q-14 -1 -20 6t-4 20l1 5q4 19 26 24q23 6 37 31t29 86l95 448q3 14 -4 21.5t-21 5.5q-60 -8 -92 -40t-51 -85q-8 -21 -26 -21q-8 0 -12 7.5t-1 20.5zM236 -161q-11 -13 -37 -13q-25 0 -38 17.5t-7 46.5q6 28 31 48.5t55 20.5q78 0 61 -83q-18 -82 -104 -129 q-23 -12 -29 1q-5 10 17 28q39 28 51 63z" glyph-name="uni021A" horiz-adv-x="632" unicode="Ț"/><glyph d="M63 381q9 56 -24 66q-25 9 -21 29v1q4 22 28 24q160 14 208 194q6 23 28 23h17q13 0 19.5 -8t3.5 -21l-35 -160q-3 -13 3.5 -21t19.5 -8h21q13 0 19.5 -7.5t3.5 -19.5l-1 -4q-4 -23 -28 -23h-32q-25 0 -29 -23l-62 -294q-12 -56 10 -60q4 -1 10 -1.5t8.5 -1t6 -2.5 t5.5 -6q8 -20 -8 -32q-48 -40 -122 -40q-64 0 -90 39.5t-11 107.5zM95 -165q-11 -13 -37 -13q-25 0 -38 17.5t-7 46.5q6 28 31 48.5t55 20.5q78 0 61 -83q-18 -82 -104 -129q-22 -12 -29 1q-5 10 17 28q39 28 51 63z" glyph-name="uni021B" horiz-adv-x="329" unicode="ț"/><glyph d="M56 338q9 49 6 69.5t-20 25.5q-25 8 -21 29l1 5q4 22 28 24q120 5 204 19q14 2 21 -4.5t4 -21.5l-120 -566q-18 -85 -82.5 -134t-155.5 -49q-60 0 -94 27t-32 72q0 12 2 20q0 3 1 5q8 34 36.5 58.5t63.5 24.5t54.5 -24.5t11.5 -58.5q-11 -51 -56 -72q7 -4 18 -4 q65 0 83 83q9 44 -6 97t-10 80z" glyph-name="uni0237" horiz-adv-x="314" unicode="ȷ"/><glyph d="M275 515q127 0 183 -72t36 -188q-20 -119 -111.5 -194.5t-217.5 -75.5q-178 0 -176 118q1 63 76 126t216 91q28 7 22 31q-18 89 -90 89q-71 0 -126 -51q-17 -17 -35 -6q-21 12 -7 30q77 102 230 102zM152 79q-3 -50 24 -50q39 0 75.5 61.5t51.5 160.5q1 8 -8 9 q-16 2 -38 -12q-49 -30 -76 -77.5t-29 -91.5z" glyph-name="uni0259" horiz-adv-x="534" unicode="ə"/><glyph d="M19 606q-24 -10 -33 7q-9 15 11 30l172 121q20 14 37 -3l116 -118q17 -19 4 -33q-14 -16 -34 -5l-126 63z" glyph-name="circumflex" horiz-adv-x="339" unicode="ˆ"/><glyph d="M308 767q24 10 33 -6q9 -17 -11 -31l-172 -121q-20 -14 -37 3l-116 118q-17 19 -4 33q14 16 34 5l126 -63z" glyph-name="caron" horiz-adv-x="339" unicode="ˇ"/><glyph d="M185 554q54 0 100.5 30.5t74.5 79.5q7 14 5 22.5t-11 8.5h-2q-17 0 -32 -15q-45 -47 -118 -47q-66 0 -96 43q-13 19 -29 19q-23 0 -20 -27q7 -50 42 -82t86 -32z" glyph-name="breve" horiz-adv-x="390" unicode="˘"/><glyph d="M90 552q-33 0 -47.5 18.5t-7.5 51.5q7 32 29.5 50.5t55.5 18.5q32 0 46.5 -18.5t7.5 -50.5q-7 -33 -29.5 -51.5t-54.5 -18.5z" glyph-name="dotaccent" horiz-adv-x="209" unicode="˙"/><glyph d="M99 581q-49 0 -73.5 25.5t-16.5 63.5t43.5 63.5t84.5 25.5q48 0 73 -25.5t17 -63.5t-43.5 -63.5t-84.5 -25.5zM93 665q0 -25 7.5 -41t17.5 -15q10 2 16.5 21.5t6.5 44.5q1 24 -6 40.5t-17 14.5q-23 -5 -25 -65z" glyph-name="ring" horiz-adv-x="236" unicode="˚"/><glyph d="M171 -174q3 -25 -19 -31q-60 -18 -110 3.5t-37 83.5q8 41 49.5 75.5t89.5 40.5l39 -11q-23 -12 -43.5 -36.5t-25.5 -49.5q-10 -48 29 -52q26 -3 28 -22v-1z" glyph-name="ogonek" horiz-adv-x="194" unicode="˛"/><glyph d="M4 655q-11 13 4 30q68 83 131 83q32 0 70 -24.5t54 -24.5q26 0 53 29q20 20 29 10q11 -12 -1 -31q-24 -36 -57.5 -59.5t-65.5 -23.5q-29 0 -65 25t-57 25q-27 0 -65 -33q-19 -19 -30 -6z" glyph-name="tilde" horiz-adv-x="387" unicode="˜"/><glyph d="M131 554q-22 -12 -30 3q-8 12 12 28l182 136q21 16 36 -7l13 -20q14 -22 -10 -35zM-7 556q-9 13 8 30l157 149q20 20 37 -3l14 -20q15 -22 -6 -36l-180 -119q-21 -13 -30 -1z" glyph-name="hungarumlaut" horiz-adv-x="347" unicode="˝"/><glyph d="M49 660q-27 8 -14 34l22 43q12 23 35 11l205 -119q20 -12 13 -31q-9 -20 -32 -12z" glyph-name="gravecomb" unicode="̀"/><glyph d="M207 744q22 16 36 -9l19 -37q12 -24 -12 -34l-214 -89q-24 -10 -30 5q-6 13 13 28z" glyph-name="acutecomb" unicode="́"/><glyph d="M19 604q-22 -9 -33 8q-10 17 11 31l172 121q20 14 37 -3l116 -118q17 -19 4 -33q-14 -16 -34 -5l-125 63z" glyph-name="uni0302" unicode="̂"/><glyph d="M4 655q-11 13 4 30q29 35 64.5 58.5t66.5 23.5t69.5 -24t54.5 -24q26 0 53 29q20 20 29 10q11 -12 -1 -31q-24 -35 -57.5 -58.5t-65.5 -23.5q-26 0 -63.5 24.5t-58.5 24.5q-27 0 -65 -33q-19 -19 -30 -6z" glyph-name="tildecomb" unicode="̃"/><glyph d="M40 643q5 23 28 23h245q29 0 23 -26l-1 -3q-5 -23 -28 -23h-244q-29 0 -23 29z" glyph-name="uni0304" unicode="̄"/><glyph d="M185 554q55 0 103 31.5t76 81.5q7 13 5 22t-12 9h-3q-18 0 -32 -15q-48 -48 -119 -48q-31 0 -57.5 12t-40.5 32q-13 19 -30 19q-23 0 -20 -27q7 -51 42.5 -84t87.5 -33z" glyph-name="uni0306" unicode="̆"/><glyph d="M88 558q-37 0 -54 21.5t-9 58.5q8 38 33.5 58.5t63.5 20.5q37 0 53 -21t9 -58q-8 -37 -33.5 -58.5t-62.5 -21.5z" glyph-name="uni0307" unicode="̇"/><glyph d="M74 568q-37 0 -53 20.5t-8 56.5q8 35 32 55t60 20q35 0 51 -20t8 -55q-7 -36 -31 -56.5t-59 -20.5zM205 645q8 35 32 55t60 20q35 0 51 -20t8 -55q-7 -36 -31 -56.5t-59 -20.5q-36 0 -52.5 20.5t-8.5 56.5z" glyph-name="uni0308" unicode="̈"/><glyph d="M110 684q-12 -14 -39 -14q-24 0 -38 19.5t-7 48.5q5 29 29 49t57 20q41 0 56.5 -24.5t8.5 -57.5q-20 -91 -111 -141q-21 -11 -30 3q-7 13 17 29q46 31 57 68z" glyph-name="hookabovecomb" unicode="̉"/><glyph d="M99 581q-49 0 -73.5 25.5t-16.5 63.5t43.5 63.5t84.5 25.5q48 0 73 -25.5t17 -63.5t-43.5 -63.5t-84.5 -25.5zM93 665q0 -25 7.5 -41t17.5 -15q10 2 16.5 21.5t6.5 44.5q1 24 -6 40.5t-17 14.5q-23 -5 -25 -65z" glyph-name="uni030A" unicode="̊"/><glyph d="M131 554q-22 -12 -30 3q-8 12 12 28l182 136q21 16 36 -7l13 -20q14 -22 -10 -35zM-7 556q-9 13 8 30l157 149q20 20 37 -3l14 -20q15 -22 -6 -36l-180 -119q-21 -13 -30 -1z" glyph-name="uni030B" unicode="̋"/><glyph d="M308 767q24 10 33 -6q9 -17 -11 -31l-172 -121q-20 -14 -37 3l-116 118q-17 19 -4 33q14 16 34 5l126 -63z" glyph-name="uni030C" unicode="̌"/><glyph d="M87 700q11 13 37 13q25 0 38 -17.5t7 -46.5q-6 -28 -31 -48.5t-55 -20.5q-38 0 -53.5 23t-8.5 55q9 41 39 76.5t66 57.5q23 12 30 -1q4 -8 -22 -30q-35 -28 -47 -61z" glyph-name="uni0312" unicode="̒"/><glyph d="M120 673q-8 -8 -27 -8q-25 0 -38.5 15.5t-8.5 41.5q7 30 30 47.5t54 17.5q72 0 55 -80q-8 -40 -41.5 -74.5t-80.5 -52.5q-26 -11 -29 7q-4 13 24 27q46 24 62 59z" glyph-name="uni031B" unicode="̛"/><glyph d="M88 -226q-38 0 -54 21t-8 58q18 78 96 78q37 0 53 -20.5t8 -57.5t-33 -58t-62 -21z" glyph-name="dotbelowcomb" unicode="̣"/><glyph d="M121 -163q-11 -13 -37 -13q-25 0 -38 17.5t-7 46.5q6 28 31 48.5t55 20.5q78 0 61 -83q-18 -82 -104 -129q-22 -12 -29 1q-5 10 17 28q39 28 51 63z" glyph-name="uni0326" unicode="̦"/><glyph d="M13 -212q-13 3 -17 11.5t2 17.5l1 2q7 12 32 17q15 3 27.5 14.5t15.5 27.5q3 18 -8 27t-13 13t3 16l41 66h49l-17 -28q-13 -22 13 -33q42 -19 32 -64q-11 -50 -61.5 -74t-99.5 -13z" glyph-name="uni0327" unicode="̧"/><glyph d="M171 -174q3 -25 -19 -31q-60 -18 -110 3.5t-37 83.5q8 41 49.5 75.5t89.5 40.5l39 -11q-23 -12 -43.5 -36.5t-25.5 -49.5q-10 -48 29 -52q26 -3 28 -22v-1z" glyph-name="uni0328" unicode="̨"/><glyph d="M648 329q13 0 19.5 -7.5t3.5 -20.5l-32 -151q-3 -18 -14 -30q-55 -64 -131 -100t-155 -36q-175 0 -255.5 105.5t-44.5 276.5q34 160 155 254.5t289 94.5q33 0 64.5 -6.5t48 -12.5t32 -6t26.5 10q16 16 32 16h4q27 0 24 -28l-31 -230q-3 -24 -26 -24t-25 26 q-7 105 -44.5 155.5t-118.5 50.5q-67 0 -130.5 -68.5t-93.5 -208.5q-29 -135 16 -229.5t140 -94.5q15 0 23 1q22 1 27 24l15 71q9 60 2.5 82.5t-29.5 28.5q-25 6 -20 29l1 5q4 23 29 23h199zM322 808q5 23 28 23h245q29 0 23 -26l-1 -3q-5 -23 -28 -23h-244q-29 0 -23 29z " glyph-name="uni1E20" horiz-adv-x="731" unicode="Ḡ"/><glyph d="M495 590q12 25 38 37t49 6q25 -6 33 -29.5t-4 -51.5q-21 -52 -109 -66q-24 -3 -6 -21q53 -47 34 -133q-16 -76 -84.5 -124.5t-182.5 -53.5q-18 0 -33 -9l-33 -19q-18 -13 -4 -17h113q114 0 175.5 -41.5t42.5 -126.5q-14 -64 -82.5 -113.5t-153.5 -72t-167 -22.5 q-110 0 -167.5 29t-45.5 85q11 53 90 94q34 18 34 21q0 1 -2 1q-43 0 -61.5 21t-4 51t57.5 52l100 51q16 8 14 17t-19 15q-61 20 -86 62.5t-14 99.5q18 86 94.5 135t202.5 49q23 0 34 -1q91 0 128 3q23 1 15 24q-7 24 4 48zM79 -134q-8 -39 14.5 -60.5t80.5 -21.5 q64 0 124 32t72 90q4 9 1.5 19t-10 19.5t-33.5 15t-67 5.5l-62 -1q-22 0 -43 -13q-66 -40 -77 -85zM210 321q-2 -58 13.5 -93t47.5 -30q31 5 49.5 46t21.5 99q2 64 -14 99t-47 30q-32 -6 -50.5 -47t-20.5 -104zM163 622q5 23 28 23h245q29 0 23 -26l-1 -3q-5 -23 -28 -23 h-244q-29 0 -23 29z" glyph-name="uni1E21" horiz-adv-x="592" unicode="ḡ"/><glyph d="M345 701q14 1 20 -5.5t5 -19.5v-4q-3 -20 -26 -26q-17 -5 -18 -30.5t10 -95.5l40 -249q3 -19 13.5 -21t19.5 15l67 119q9 16 6 34l-22 137q-17 79 -42 89q-13 6 -17.5 11.5t-2.5 17.5l1 6q4 23 28 22q88 -2 158 -2q63 0 151 2q14 1 20.5 -6t3.5 -19l-2 -6q-6 -22 -29 -23 q-40 -3 -64 -31q-11 -13 -8 -33l46 -308q3 -19 13.5 -20.5t19.5 14.5l151 274q29 56 32 76.5t-16 26.5q-26 6 -20 29l2 5q5 22 30 22q50 -3 82 -3q34 0 50 1q15 1 21.5 -5.5t3.5 -18.5l-2 -7q-5 -19 -28 -22q-28 -5 -54 -31.5t-64 -95.5l-277 -502q-11 -18 -31 -18h-44 q-25 0 -28 24l-41 257q-3 19 -13.5 21t-19.5 -15l-150 -269q-10 -18 -31 -18h-45q-23 0 -28 24l-84 504q-12 63 -24.5 88t-33.5 30q-26 6 -22 28l1 5q4 23 28 22q80 -2 127 -2t137 2zM453 822q-27 8 -14 34l22 43q12 23 35 11l205 -119q20 -12 13 -31q-9 -20 -32 -12z" glyph-name="Wgrave" horiz-adv-x="989" unicode="Ẁ"/><glyph d="M246 62q66 0 115 205l31 146q4 23 29 23l124 -1q13 0 19.5 -7.5t3.5 -20.5l-40 -190q-13 -61 -15 -95t4.5 -47t22.5 -13q54 0 108.5 94t67.5 212q2 15 -3 21t-16 3q-11 -4 -24 -4q-29 0 -42.5 19.5t-8.5 51.5q5 29 28 49t53 20q26 0 43 -17q4 -5 7 -11l2 -2 q12 -34 12 -85.5t-11.5 -108.5t-36.5 -114.5t-59 -103t-83 -74t-104 -28.5q-74 0 -110 56q-13 22 -31 4q-62 -60 -144 -60q-92 0 -132.5 57.5t-19.5 153.5l23 108q13 62 11.5 87.5t-18.5 32.5q-25 8 -20 29l1 5q4 23 28 24q92 8 204 28q14 3 21 -3.5t4 -21.5l-57 -267 q-34 -155 13 -155zM346 606q-27 8 -14 34l22 43q12 23 35 11l205 -119q20 -12 13 -31q-9 -20 -32 -12z" glyph-name="wgrave" horiz-adv-x="793" unicode="ẁ"/><glyph d="M345 701q14 1 20 -5.5t5 -19.5v-4q-3 -20 -26 -26q-17 -5 -18 -30.5t10 -95.5l40 -249q3 -19 13.5 -21t19.5 15l67 119q9 16 6 34l-22 137q-17 79 -42 89q-13 6 -17.5 11.5t-2.5 17.5l1 6q4 23 28 22q88 -2 158 -2q63 0 151 2q14 1 20.5 -6t3.5 -19l-2 -6q-6 -22 -29 -23 q-40 -3 -64 -31q-11 -13 -8 -33l46 -308q3 -19 13.5 -20.5t19.5 14.5l151 274q29 56 32 76.5t-16 26.5q-26 6 -20 29l2 5q5 22 30 22q50 -3 82 -3q34 0 50 1q15 1 21.5 -5.5t3.5 -18.5l-2 -7q-5 -19 -28 -22q-28 -5 -54 -31.5t-64 -95.5l-277 -502q-11 -18 -31 -18h-44 q-25 0 -28 24l-41 257q-3 19 -13.5 21t-19.5 -15l-150 -269q-10 -18 -31 -18h-45q-23 0 -28 24l-84 504q-12 63 -24.5 88t-33.5 30q-26 6 -22 28l1 5q4 23 28 22q80 -2 127 -2t137 2zM688 912q22 16 36 -9l19 -37q12 -24 -12 -34l-214 -89q-24 -10 -30 5q-6 13 13 28z" glyph-name="Wacute" horiz-adv-x="989" unicode="Ẃ"/><glyph d="M246 62q66 0 115 205l31 146q4 23 29 23l124 -1q13 0 19.5 -7.5t3.5 -20.5l-40 -190q-13 -61 -15 -95t4.5 -47t22.5 -13q54 0 108.5 94t67.5 212q2 15 -3 21t-16 3q-11 -4 -24 -4q-29 0 -42.5 19.5t-8.5 51.5q5 29 28 49t53 20q26 0 43 -17q4 -5 7 -11l2 -2 q12 -34 12 -85.5t-11.5 -108.5t-36.5 -114.5t-59 -103t-83 -74t-104 -28.5q-74 0 -110 56q-13 22 -31 4q-62 -60 -144 -60q-92 0 -132.5 57.5t-19.5 153.5l23 108q13 62 11.5 87.5t-18.5 32.5q-25 8 -20 29l1 5q4 23 28 24q92 8 204 28q14 3 21 -3.5t4 -21.5l-57 -267 q-34 -155 13 -155zM571 716q22 16 36 -9l19 -37q12 -24 -12 -34l-214 -89q-24 -10 -30 5q-6 13 13 28z" glyph-name="wacute" horiz-adv-x="793" unicode="ẃ"/><glyph d="M345 701q14 1 20 -5.5t5 -19.5v-4q-3 -20 -26 -26q-17 -5 -18 -30.5t10 -95.5l40 -249q3 -19 13.5 -21t19.5 15l67 119q9 16 6 34l-22 137q-17 79 -42 89q-13 6 -17.5 11.5t-2.5 17.5l1 6q4 23 28 22q88 -2 158 -2q63 0 151 2q14 1 20.5 -6t3.5 -19l-2 -6q-6 -22 -29 -23 q-40 -3 -64 -31q-11 -13 -8 -33l46 -308q3 -19 13.5 -20.5t19.5 14.5l151 274q29 56 32 76.5t-16 26.5q-26 6 -20 29l2 5q5 22 30 22q50 -3 82 -3q34 0 50 1q15 1 21.5 -5.5t3.5 -18.5l-2 -7q-5 -19 -28 -22q-28 -5 -54 -31.5t-64 -95.5l-277 -502q-11 -18 -31 -18h-44 q-25 0 -28 24l-41 257q-3 19 -13.5 21t-19.5 -15l-150 -269q-10 -18 -31 -18h-45q-23 0 -28 24l-84 504q-12 63 -24.5 88t-33.5 30q-26 6 -22 28l1 5q4 23 28 22q80 -2 127 -2t137 2zM488 735q-37 0 -53 20.5t-8 56.5q8 35 32 55t60 20q35 0 51 -20t8 -55q-7 -36 -31 -56.5 t-59 -20.5zM619 812q8 35 32 55t60 20q35 0 51 -20t8 -55q-7 -36 -31 -56.5t-59 -20.5q-36 0 -52.5 20.5t-8.5 56.5z" glyph-name="Wdieresis" horiz-adv-x="989" unicode="Ẅ"/><glyph d="M246 62q66 0 115 205l31 146q4 23 29 23l124 -1q13 0 19.5 -7.5t3.5 -20.5l-40 -190q-13 -61 -15 -95t4.5 -47t22.5 -13q54 0 108.5 94t67.5 212q2 15 -3 21t-16 3q-11 -4 -24 -4q-29 0 -42.5 19.5t-8.5 51.5q5 29 28 49t53 20q26 0 43 -17q4 -5 7 -11l2 -2 q12 -34 12 -85.5t-11.5 -108.5t-36.5 -114.5t-59 -103t-83 -74t-104 -28.5q-74 0 -110 56q-13 22 -31 4q-62 -60 -144 -60q-92 0 -132.5 57.5t-19.5 153.5l23 108q13 62 11.5 87.5t-18.5 32.5q-25 8 -20 29l1 5q4 23 28 24q92 8 204 28q14 3 21 -3.5t4 -21.5l-57 -267 q-34 -155 13 -155zM374 538q-37 0 -53 20.5t-8 56.5q8 35 32 55t60 20q35 0 51 -20t8 -55q-7 -36 -31 -56.5t-59 -20.5zM505 615q8 35 32 55t60 20q35 0 51 -20t8 -55q-7 -36 -31 -56.5t-59 -20.5q-36 0 -52.5 20.5t-8.5 56.5z" glyph-name="wdieresis" horiz-adv-x="793" unicode="ẅ"/><glyph d="M369 367q-26 -2 -30 18t17 31q46 24 69.5 59t35.5 90q10 49 -4.5 77.5t-48.5 28.5q-33 0 -61 -28.5t-39 -79.5l-96 -452l-30 -98q-5 -18 -25 -16q-76 7 -187 1q-14 -1 -20.5 5.5t-4.5 18.5l1 4q4 19 26 25q21 6 35 34t29 98l72 334q20 92 102.5 145.5t215.5 53.5 q124 0 181.5 -48.5t42.5 -119.5q-18 -82 -109 -127q81 -18 123.5 -75t23.5 -146q-21 -101 -104.5 -158t-196.5 -57q-28 0 -52 9t-36.5 14.5t-20.5 0.5q-22 -16 -31 -16h-3q-13 0 -19.5 7.5t-3.5 20.5l43 205q4 23 27 23q21 0 19 -28q-5 -94 14 -137.5t65 -43.5 q35 0 65.5 45.5t40.5 113.5q11 81 -21.5 126.5t-104.5 41.5z" glyph-name="uni1E9E" horiz-adv-x="743" unicode="ẞ"/><glyph d="M438 700q23 0 28 -24l87 -497q13 -70 24.5 -95t33.5 -30q26 -6 20 -30l-1 -4q-5 -24 -29 -22q-68 2 -122 2q-63 0 -155 -2q-14 -1 -20.5 6t-3.5 20l1 5q4 22 28 23q29 4 34.5 24t-4.5 87l-2 16l-2 13q-5 23 -29 23h-163q-21 0 -31 -18l-19 -32q-18 -31 -27.5 -51.5 t-11 -33t2.5 -18.5t14 -8q27 -6 21 -30l-1 -4q-5 -24 -29 -22q-56 2 -77 2q-40 0 -60 -2q-14 -1 -21 6t-4 20l1 5q4 21 27 24q28 4 51 26t61 86l9 14l213 369q9 16 6 34l-15 90q-5 28 23 28h142zM189 296q-7 -14 -2 -22.5t20 -8.5h107q28 0 23 28l-26 152q-3 18 -13.5 20 t-19.5 -14zM183 -220q-38 0 -54 21t-8 58q18 78 96 78q37 0 53 -20.5t8 -57.5t-33 -58t-62 -21z" glyph-name="uni1EA0" horiz-adv-x="687" unicode="Ạ"/><glyph d="M491 129q-12 -56 10 -60q4 -1 10 -1.5t8.5 -1t6 -2.5t5.5 -6q8 -20 -8 -32q-48 -40 -122 -40q-69 0 -93 47q-9 20 -24 4q-49 -51 -129 -51q-89 0 -129.5 52t-30.5 136q15 132 94 215.5t195.5 110.5t257.5 5q26 -5 21 -31zM184 194q-8 -63 2 -98.5t34 -35.5 q41 0 65.5 59.5t57.5 208.5l23 110q6 30 -3 30q-51 0 -107 -72t-72 -202zM199 -222q-38 0 -54 21t-8 58q18 78 96 78q37 0 53 -20.5t8 -57.5t-33 -58t-62 -21z" glyph-name="uni1EA1" horiz-adv-x="608" unicode="ạ"/><glyph d="M438 700q23 0 28 -24l87 -497q13 -70 24.5 -95t33.5 -30q26 -6 20 -30l-1 -4q-5 -24 -29 -22q-68 2 -122 2q-63 0 -155 -2q-14 -1 -20.5 6t-3.5 20l1 5q4 22 28 23q29 4 34.5 24t-4.5 87l-2 16l-2 13q-5 23 -29 23h-163q-21 0 -31 -18l-19 -32q-18 -31 -27.5 -51.5 t-11 -33t2.5 -18.5t14 -8q27 -6 21 -30l-1 -4q-5 -24 -29 -22q-56 2 -77 2q-40 0 -60 -2q-14 -1 -21 6t-4 20l1 5q4 21 27 24q28 4 51 26t61 86l9 14l213 369q9 16 6 34l-15 90q-5 28 23 28h142zM189 296q-7 -14 -2 -22.5t20 -8.5h107q28 0 23 28l-26 152q-3 18 -13.5 20 t-19.5 -14zM431 853q-12 -14 -39 -14q-24 0 -38 19.5t-7 48.5q5 29 29 49t57 20q41 0 56.5 -24.5t8.5 -57.5q-20 -91 -111 -141q-21 -11 -30 3q-7 13 17 29q46 31 57 68z" glyph-name="uni1EA2" horiz-adv-x="687" unicode="Ả"/><glyph d="M491 129q-12 -56 10 -60q4 -1 10 -1.5t8.5 -1t6 -2.5t5.5 -6q8 -20 -8 -32q-48 -40 -122 -40q-69 0 -93 47q-9 20 -24 4q-49 -51 -129 -51q-89 0 -129.5 52t-30.5 136q15 132 94 215.5t195.5 110.5t257.5 5q26 -5 21 -31zM184 194q-8 -63 2 -98.5t34 -35.5 q41 0 65.5 59.5t57.5 208.5l23 110q6 30 -3 30q-51 0 -107 -72t-72 -202zM408 664q-12 -14 -39 -14q-24 0 -38 19.5t-7 48.5q5 29 29 49t57 20q41 0 56.5 -24.5t8.5 -57.5q-20 -91 -111 -141q-21 -11 -30 3q-7 13 17 29q46 31 57 68z" glyph-name="uni1EA3" horiz-adv-x="608" unicode="ả"/><glyph d="M438 700q23 0 28 -24l87 -497q13 -70 24.5 -95t33.5 -30q26 -6 20 -30l-1 -4q-5 -24 -29 -22q-68 2 -122 2q-63 0 -155 -2q-14 -1 -20.5 6t-3.5 20l1 5q4 22 28 23q29 4 34.5 24t-4.5 87l-2 16l-2 13q-5 23 -29 23h-163q-21 0 -31 -18l-19 -32q-18 -31 -27.5 -51.5 t-11 -33t2.5 -18.5t14 -8q27 -6 21 -30l-1 -4q-5 -24 -29 -22q-56 2 -77 2q-40 0 -60 -2q-14 -1 -21 6t-4 20l1 5q4 21 27 24q28 4 51 26t61 86l9 14l213 369q9 16 6 34l-15 90q-5 28 23 28h142zM189 296q-7 -14 -2 -22.5t20 -8.5h107q28 0 23 28l-26 152q-3 18 -13.5 20 t-19.5 -14zM272 746q-22 -9 -33 8q-10 17 11 31l172 121q20 14 37 -3l116 -118q17 -19 4 -33q-14 -16 -34 -5l-125 63zM394 1058q19 22 37 0l27 -31q18 -21 -3 -36l-186 -138q-21 -17 -30 -3q-10 11 5 31z" glyph-name="uni1EA4" horiz-adv-x="687" unicode="Ấ"/><glyph d="M491 129q-12 -56 10 -60q4 -1 10 -1.5t8.5 -1t6 -2.5t5.5 -6q8 -20 -8 -32q-48 -40 -122 -40q-69 0 -93 47q-9 20 -24 4q-49 -51 -129 -51q-89 0 -129.5 52t-30.5 136q15 132 94 215.5t195.5 110.5t257.5 5q26 -5 21 -31zM184 194q-8 -63 2 -98.5t34 -35.5 q41 0 65.5 59.5t57.5 208.5l23 110q6 30 -3 30q-51 0 -107 -72t-72 -202zM239 563q-22 -9 -33 8q-10 17 11 31l172 121q20 14 37 -3l116 -118q17 -19 4 -33q-14 -16 -34 -5l-125 63zM361 875q19 22 37 0l27 -31q18 -21 -3 -36l-186 -138q-21 -16 -30 -3q-10 11 5 31z" glyph-name="uni1EA5" horiz-adv-x="608" unicode="ấ"/><glyph d="M438 700q23 0 28 -24l87 -497q13 -70 24.5 -95t33.5 -30q26 -6 20 -30l-1 -4q-5 -24 -29 -22q-68 2 -122 2q-63 0 -155 -2q-14 -1 -20.5 6t-3.5 20l1 5q4 22 28 23q29 4 34.5 24t-4.5 87l-2 16l-2 13q-5 23 -29 23h-163q-21 0 -31 -18l-19 -32q-18 -31 -27.5 -51.5 t-11 -33t2.5 -18.5t14 -8q27 -6 21 -30l-1 -4q-5 -24 -29 -22q-56 2 -77 2q-40 0 -60 -2q-14 -1 -21 6t-4 20l1 5q4 21 27 24q28 4 51 26t61 86l9 14l213 369q9 16 6 34l-15 90q-5 28 23 28h142zM189 296q-7 -14 -2 -22.5t20 -8.5h107q28 0 23 28l-26 152q-3 18 -13.5 20 t-19.5 -14zM261 739q-22 -9 -33 8q-10 17 11 31l172 121q20 14 37 -3l116 -118q17 -19 4 -33q-14 -16 -34 -5l-125 63zM428 966q-23 16 -1 36l36 33q20 17 37 -3l149 -184q14 -18 1 -34q-15 -15 -34 0z" glyph-name="uni1EA6" horiz-adv-x="687" unicode="Ầ"/><glyph d="M491 129q-12 -56 10 -60q4 -1 10 -1.5t8.5 -1t6 -2.5t5.5 -6q8 -20 -8 -32q-48 -40 -122 -40q-69 0 -93 47q-9 20 -24 4q-49 -51 -129 -51q-89 0 -129.5 52t-30.5 136q15 132 94 215.5t195.5 110.5t257.5 5q26 -5 21 -31zM184 194q-8 -63 2 -98.5t34 -35.5 q41 0 65.5 59.5t57.5 208.5l23 110q6 30 -3 30q-51 0 -107 -72t-72 -202zM239 563q-22 -9 -33 8q-10 17 11 31l172 121q20 14 37 -3l116 -118q17 -19 4 -33q-14 -16 -34 -5l-125 63zM406 790q-23 16 -1 36l36 33q20 17 37 -3l149 -184q14 -18 1 -34q-15 -15 -34 0z" glyph-name="uni1EA7" horiz-adv-x="608" unicode="ầ"/><glyph d="M438 700q23 0 28 -24l87 -497q13 -70 24.5 -95t33.5 -30q26 -6 20 -30l-1 -4q-5 -24 -29 -22q-68 2 -122 2q-63 0 -155 -2q-14 -1 -20.5 6t-3.5 20l1 5q4 22 28 23q29 4 34.5 24t-4.5 87l-2 16l-2 13q-5 23 -29 23h-163q-21 0 -31 -18l-19 -32q-18 -31 -27.5 -51.5 t-11 -33t2.5 -18.5t14 -8q27 -6 21 -30l-1 -4q-5 -24 -29 -22q-56 2 -77 2q-40 0 -60 -2q-14 -1 -21 6t-4 20l1 5q4 21 27 24q28 4 51 26t61 86l9 14l213 369q9 16 6 34l-15 90q-5 28 23 28h142zM189 296q-7 -14 -2 -22.5t20 -8.5h107q28 0 23 28l-26 152q-3 18 -13.5 20 t-19.5 -14zM262 739q-22 -9 -33 8q-10 17 11 31l172 121q20 14 37 -3l116 -118q17 -19 4 -33q-14 -16 -34 -5l-125 63zM601 952q-12 -14 -39 -14q-24 0 -38 19.5t-7 48.5q5 29 29 49t57 20q41 0 56.5 -24.5t8.5 -57.5q-20 -91 -111 -141q-21 -11 -30 3q-7 13 17 29 q46 31 57 68z" glyph-name="uni1EA8" horiz-adv-x="687" unicode="Ẩ"/><glyph d="M491 129q-12 -56 10 -60q4 -1 10 -1.5t8.5 -1t6 -2.5t5.5 -6q8 -20 -8 -32q-48 -40 -122 -40q-69 0 -93 47q-9 20 -24 4q-49 -51 -129 -51q-89 0 -129.5 52t-30.5 136q15 132 94 215.5t195.5 110.5t257.5 5q26 -5 21 -31zM184 194q-8 -63 2 -98.5t34 -35.5 q41 0 65.5 59.5t57.5 208.5l23 110q6 30 -3 30q-51 0 -107 -72t-72 -202zM239 567q-22 -9 -33 8q-10 17 11 31l172 121q20 14 37 -3l116 -118q17 -19 4 -33q-14 -16 -34 -5l-125 63zM578 780q-12 -14 -39 -14q-24 0 -38 19.5t-7 48.5q5 29 29 49t57 20q41 0 56.5 -24.5 t8.5 -57.5q-20 -91 -111 -141q-21 -11 -30 3q-7 13 17 29q46 31 57 68z" glyph-name="uni1EA9" horiz-adv-x="608" unicode="ẩ"/><glyph d="M438 700q23 0 28 -24l87 -497q13 -70 24.5 -95t33.5 -30q26 -6 20 -30l-1 -4q-5 -24 -29 -22q-68 2 -122 2q-63 0 -155 -2q-14 -1 -20.5 6t-3.5 20l1 5q4 22 28 23q29 4 34.5 24t-4.5 87l-2 16l-2 13q-5 23 -29 23h-163q-21 0 -31 -18l-19 -32q-18 -31 -27.5 -51.5 t-11 -33t2.5 -18.5t14 -8q27 -6 21 -30l-1 -4q-5 -24 -29 -22q-56 2 -77 2q-40 0 -60 -2q-14 -1 -21 6t-4 20l1 5q4 21 27 24q28 4 51 26t61 86l9 14l213 369q9 16 6 34l-15 90q-5 28 23 28h142zM189 296q-7 -14 -2 -22.5t20 -8.5h107q28 0 23 28l-26 152q-3 18 -13.5 20 t-19.5 -14zM261 739q-22 -9 -33 8q-10 17 11 31l172 121q20 14 37 -3l116 -118q17 -19 4 -33q-14 -16 -34 -5l-125 63zM330 909q-11 13 4 30q30 35 67.5 58.5t70.5 23.5t73.5 -24t57.5 -24q27 0 56 29q21 21 30 10q11 -12 -1 -31q-26 -35 -60.5 -58.5t-68.5 -23.5 q-27 0 -67 24.5t-62 24.5q-28 0 -68 -33q-20 -18 -32 -6z" glyph-name="uni1EAA" horiz-adv-x="687" unicode="Ẫ"/><glyph d="M491 129q-12 -56 10 -60q4 -1 10 -1.5t8.5 -1t6 -2.5t5.5 -6q8 -20 -8 -32q-48 -40 -122 -40q-69 0 -93 47q-9 20 -24 4q-49 -51 -129 -51q-89 0 -129.5 52t-30.5 136q15 132 94 215.5t195.5 110.5t257.5 5q26 -5 21 -31zM184 194q-8 -63 2 -98.5t34 -35.5 q41 0 65.5 59.5t57.5 208.5l23 110q6 30 -3 30q-51 0 -107 -72t-72 -202zM237 560q-22 -9 -33 8q-10 17 11 31l172 121q20 14 37 -3l116 -118q17 -19 4 -33q-14 -16 -34 -5l-125 63zM306 730q-11 13 4 30q30 35 67.5 58.5t70.5 23.5t73.5 -24t57.5 -24q27 0 56 29 q21 21 30 10q11 -12 -1 -31q-26 -35 -60.5 -58.5t-68.5 -23.5q-27 0 -67 24.5t-62 24.5q-28 0 -68 -33q-20 -18 -32 -6z" glyph-name="uni1EAB" horiz-adv-x="608" unicode="ẫ"/><glyph d="M438 700q23 0 28 -24l87 -497q13 -70 24.5 -95t33.5 -30q26 -6 20 -30l-1 -4q-5 -24 -29 -22q-68 2 -122 2q-63 0 -155 -2q-14 -1 -20.5 6t-3.5 20l1 5q4 22 28 23q29 4 34.5 24t-4.5 87l-2 16l-2 13q-5 23 -29 23h-163q-21 0 -31 -18l-19 -32q-18 -31 -27.5 -51.5 t-11 -33t2.5 -18.5t14 -8q27 -6 21 -30l-1 -4q-5 -24 -29 -22q-56 2 -77 2q-40 0 -60 -2q-14 -1 -21 6t-4 20l1 5q4 21 27 24q28 4 51 26t61 86l9 14l213 369q9 16 6 34l-15 90q-5 28 23 28h142zM189 296q-7 -14 -2 -22.5t20 -8.5h107q28 0 23 28l-26 152q-3 18 -13.5 20 t-19.5 -14zM217 -226q-38 0 -54 21t-8 58q18 78 96 78q37 0 53 -20.5t8 -57.5t-33 -58t-62 -21zM270 748q-22 -9 -33 8q-10 17 11 31l172 121q20 14 37 -3l116 -118q17 -19 4 -33q-14 -16 -34 -5l-125 63z" glyph-name="uni1EAC" horiz-adv-x="687" unicode="Ậ"/><glyph d="M491 129q-12 -56 10 -60q4 -1 10 -1.5t8.5 -1t6 -2.5t5.5 -6q8 -20 -8 -32q-48 -40 -122 -40q-69 0 -93 47q-9 20 -24 4q-49 -51 -129 -51q-89 0 -129.5 52t-30.5 136q15 132 94 215.5t195.5 110.5t257.5 5q26 -5 21 -31zM184 194q-8 -63 2 -98.5t34 -35.5 q41 0 65.5 59.5t57.5 208.5l23 110q6 30 -3 30q-51 0 -107 -72t-72 -202zM202 -223q-38 0 -54 21t-8 58q18 78 96 78q37 0 53 -20.5t8 -57.5t-33 -58t-62 -21zM236 555q-22 -9 -33 8q-10 17 11 31l172 121q20 14 37 -3l116 -118q17 -19 4 -33q-14 -16 -34 -5l-125 63z" glyph-name="uni1EAD" horiz-adv-x="608" unicode="ậ"/><glyph d="M438 700q23 0 28 -24l87 -497q13 -70 24.5 -95t33.5 -30q26 -6 20 -30l-1 -4q-5 -24 -29 -22q-68 2 -122 2q-63 0 -155 -2q-14 -1 -20.5 6t-3.5 20l1 5q4 22 28 23q29 4 34.5 24t-4.5 87l-2 16l-2 13q-5 23 -29 23h-163q-21 0 -31 -18l-19 -32q-18 -31 -27.5 -51.5 t-11 -33t2.5 -18.5t14 -8q27 -6 21 -30l-1 -4q-5 -24 -29 -22q-56 2 -77 2q-40 0 -60 -2q-14 -1 -21 6t-4 20l1 5q4 21 27 24q28 4 51 26t61 86l9 14l213 369q9 16 6 34l-15 90q-5 28 23 28h142zM189 296q-7 -14 -2 -22.5t20 -8.5h107q28 0 23 28l-26 152q-3 18 -13.5 20 t-19.5 -14zM408 756q55 0 103 31.5t76 81.5q7 13 5 22t-12 9h-3q-19 0 -32 -15q-48 -48 -119 -48q-31 0 -57.5 12t-40.5 32q-13 19 -30 19q-23 0 -20 -27q7 -51 42.5 -84t87.5 -33zM571 1065q22 16 36 -9l19 -37q12 -24 -12 -34l-214 -89q-24 -10 -30 5q-6 13 13 28z" glyph-name="uni1EAE" horiz-adv-x="687" unicode="Ắ"/><glyph d="M491 129q-12 -56 10 -60q4 -1 10 -1.5t8.5 -1t6 -2.5t5.5 -6q8 -20 -8 -32q-48 -40 -122 -40q-69 0 -93 47q-9 20 -24 4q-49 -51 -129 -51q-89 0 -129.5 52t-30.5 136q15 132 94 215.5t195.5 110.5t257.5 5q26 -5 21 -31zM184 194q-8 -63 2 -98.5t34 -35.5 q41 0 65.5 59.5t57.5 208.5l23 110q6 30 -3 30q-51 0 -107 -72t-72 -202zM365 556q55 0 103 31.5t76 81.5q7 13 5 22t-12 9h-3q-18 0 -32 -15q-48 -48 -119 -48q-31 0 -57.5 12t-40.5 32q-13 19 -30 19q-23 0 -20 -27q7 -51 42.5 -84t87.5 -33zM528 865q22 16 36 -9l19 -37 q12 -24 -12 -34l-214 -89q-24 -10 -30 5q-6 13 13 28z" glyph-name="uni1EAF" horiz-adv-x="608" unicode="ắ"/><glyph d="M438 700q23 0 28 -24l87 -497q13 -70 24.5 -95t33.5 -30q26 -6 20 -30l-1 -4q-5 -24 -29 -22q-68 2 -122 2q-63 0 -155 -2q-14 -1 -20.5 6t-3.5 20l1 5q4 22 28 23q29 4 34.5 24t-4.5 87l-2 16l-2 13q-5 23 -29 23h-163q-21 0 -31 -18l-19 -32q-18 -31 -27.5 -51.5 t-11 -33t2.5 -18.5t14 -8q27 -6 21 -30l-1 -4q-5 -24 -29 -22q-56 2 -77 2q-40 0 -60 -2q-14 -1 -21 6t-4 20l1 5q4 21 27 24q28 4 51 26t61 86l9 14l213 369q9 16 6 34l-15 90q-5 28 23 28h142zM189 296q-7 -14 -2 -22.5t20 -8.5h107q28 0 23 28l-26 152q-3 18 -13.5 20 t-19.5 -14zM405 755q55 0 103 31.5t76 81.5q7 14 5 22.5t-12 8.5h-3q-18 0 -32 -15q-48 -48 -119 -48q-31 0 -57.5 12t-40.5 32q-13 19 -30 19q-23 0 -20 -27q7 -51 42.5 -84t87.5 -33zM261 968q-27 8 -14 33l21 42q12 24 34 11l199 -116q21 -10 13 -30q-9 -19 -31 -11z" glyph-name="uni1EB0" horiz-adv-x="687" unicode="Ằ"/><glyph d="M491 129q-12 -56 10 -60q4 -1 10 -1.5t8.5 -1t6 -2.5t5.5 -6q8 -20 -8 -32q-48 -40 -122 -40q-69 0 -93 47q-9 20 -24 4q-49 -51 -129 -51q-89 0 -129.5 52t-30.5 136q15 132 94 215.5t195.5 110.5t257.5 5q26 -5 21 -31zM184 194q-8 -63 2 -98.5t34 -35.5 q41 0 65.5 59.5t57.5 208.5l23 110q6 30 -3 30q-51 0 -107 -72t-72 -202zM359 554q55 0 103 31.5t76 81.5q7 13 5 22t-12 9h-3q-19 0 -32 -15q-48 -48 -119 -48q-31 0 -57.5 12t-40.5 32q-13 19 -30 19q-23 0 -20 -27q7 -51 42.5 -84t87.5 -33zM215 767q-27 8 -14 33l21 42 q12 24 34 11l199 -116q21 -10 13 -30q-9 -19 -31 -11z" glyph-name="uni1EB1" horiz-adv-x="608" unicode="ằ"/><glyph d="M438 700q23 0 28 -24l87 -497q13 -70 24.5 -95t33.5 -30q26 -6 20 -30l-1 -4q-5 -24 -29 -22q-68 2 -122 2q-63 0 -155 -2q-14 -1 -20.5 6t-3.5 20l1 5q4 22 28 23q29 4 34.5 24t-4.5 87l-2 16l-2 13q-5 23 -29 23h-163q-21 0 -31 -18l-19 -32q-18 -31 -27.5 -51.5 t-11 -33t2.5 -18.5t14 -8q27 -6 21 -30l-1 -4q-5 -24 -29 -22q-56 2 -77 2q-40 0 -60 -2q-14 -1 -21 6t-4 20l1 5q4 21 27 24q28 4 51 26t61 86l9 14l213 369q9 16 6 34l-15 90q-5 28 23 28h142zM189 296q-7 -14 -2 -22.5t20 -8.5h107q28 0 23 28l-26 152q-3 18 -13.5 20 t-19.5 -14zM406 745q55 0 103 31.5t76 81.5q7 14 5 22.5t-12 8.5h-3q-19 0 -32 -15q-48 -48 -119 -48q-31 0 -57.5 12t-40.5 32q-13 19 -30 19q-23 0 -20 -27q7 -51 42.5 -84t87.5 -33zM478 961q-12 -14 -39 -14q-24 0 -38 19.5t-7 48.5q5 29 29 49t57 20q41 0 56.5 -24.5 t8.5 -57.5q-20 -91 -111 -141q-21 -11 -30 3q-7 13 17 29q46 31 57 68z" glyph-name="uni1EB2" horiz-adv-x="687" unicode="Ẳ"/><glyph d="M491 129q-12 -56 10 -60q4 -1 10 -1.5t8.5 -1t6 -2.5t5.5 -6q8 -20 -8 -32q-48 -40 -122 -40q-69 0 -93 47q-9 20 -24 4q-49 -51 -129 -51q-89 0 -129.5 52t-30.5 136q15 132 94 215.5t195.5 110.5t257.5 5q26 -5 21 -31zM184 194q-8 -63 2 -98.5t34 -35.5 q41 0 65.5 59.5t57.5 208.5l23 110q6 30 -3 30q-51 0 -107 -72t-72 -202zM366 554q55 0 103 31.5t76 81.5q7 13 5 22t-12 9h-3q-19 0 -32 -15q-48 -48 -119 -48q-31 0 -57.5 12t-40.5 32q-13 19 -30 19q-23 0 -20 -27q7 -51 42.5 -84t87.5 -33zM438 770q-12 -14 -39 -14 q-24 0 -38 19.5t-7 48.5q5 29 29 49t57 20q41 0 56.5 -24.5t8.5 -57.5q-20 -91 -111 -141q-21 -11 -30 3q-7 13 17 29q46 31 57 68z" glyph-name="uni1EB3" horiz-adv-x="608" unicode="ẳ"/><glyph d="M438 700q23 0 28 -24l87 -497q13 -70 24.5 -95t33.5 -30q26 -6 20 -30l-1 -4q-5 -24 -29 -22q-68 2 -122 2q-63 0 -155 -2q-14 -1 -20.5 6t-3.5 20l1 5q4 22 28 23q29 4 34.5 24t-4.5 87l-2 16l-2 13q-5 23 -29 23h-163q-21 0 -31 -18l-19 -32q-18 -31 -27.5 -51.5 t-11 -33t2.5 -18.5t14 -8q27 -6 21 -30l-1 -4q-5 -24 -29 -22q-56 2 -77 2q-40 0 -60 -2q-14 -1 -21 6t-4 20l1 5q4 21 27 24q28 4 51 26t61 86l9 14l213 369q9 16 6 34l-15 90q-5 28 23 28h142zM189 296q-7 -14 -2 -22.5t20 -8.5h107q28 0 23 28l-26 152q-3 18 -13.5 20 t-19.5 -14zM401 746q55 0 103 31.5t76 81.5q7 13 5 22t-12 9h-3q-18 0 -32 -15q-48 -48 -119 -48q-31 0 -57.5 12t-40.5 32q-13 19 -30 19q-23 0 -20 -27q7 -51 42.5 -84t87.5 -33zM342 924q-11 13 4 30q29 35 65 58.5t67 23.5q32 0 70.5 -24t54.5 -24q27 0 54 29 q20 20 29 10q11 -12 -1 -31q-24 -35 -58 -58.5t-66 -23.5q-26 0 -64 24.5t-59 24.5q-28 0 -66 -33q-19 -19 -30 -6z" glyph-name="uni1EB4" horiz-adv-x="687" unicode="Ẵ"/><glyph d="M491 129q-12 -56 10 -60q4 -1 10 -1.5t8.5 -1t6 -2.5t5.5 -6q8 -20 -8 -32q-48 -40 -122 -40q-69 0 -93 47q-9 20 -24 4q-49 -51 -129 -51q-89 0 -129.5 52t-30.5 136q15 132 94 215.5t195.5 110.5t257.5 5q26 -5 21 -31zM184 194q-8 -63 2 -98.5t34 -35.5 q41 0 65.5 59.5t57.5 208.5l23 110q6 30 -3 30q-51 0 -107 -72t-72 -202zM372 554q55 0 103 31.5t76 81.5q7 13 5 22t-12 9h-3q-19 0 -32 -15q-48 -48 -119 -48q-31 0 -57.5 12t-40.5 32q-13 19 -30 19q-23 0 -20 -27q7 -51 42.5 -84t87.5 -33zM313 732q-11 13 4 30 q29 35 65 58.5t67 23.5q32 0 70.5 -24t54.5 -24q27 0 54 29q20 20 29 10q11 -12 -1 -31q-24 -35 -58 -58.5t-66 -23.5q-26 0 -64 24.5t-59 24.5q-27 0 -66 -33q-19 -19 -30 -6z" glyph-name="uni1EB5" horiz-adv-x="608" unicode="ẵ"/><glyph d="M438 700q23 0 28 -24l87 -497q13 -70 24.5 -95t33.5 -30q26 -6 20 -30l-1 -4q-5 -24 -29 -22q-68 2 -122 2q-63 0 -155 -2q-14 -1 -20.5 6t-3.5 20l1 5q4 22 28 23q29 4 34.5 24t-4.5 87l-2 16l-2 13q-5 23 -29 23h-163q-21 0 -31 -18l-19 -32q-18 -31 -27.5 -51.5 t-11 -33t2.5 -18.5t14 -8q27 -6 21 -30l-1 -4q-5 -24 -29 -22q-56 2 -77 2q-40 0 -60 -2q-14 -1 -21 6t-4 20l1 5q4 21 27 24q28 4 51 26t61 86l9 14l213 369q9 16 6 34l-15 90q-5 28 23 28h142zM189 296q-7 -14 -2 -22.5t20 -8.5h107q28 0 23 28l-26 152q-3 18 -13.5 20 t-19.5 -14zM185 -226q-38 0 -54 21t-8 58q18 78 96 78q37 0 53 -20.5t8 -57.5t-33 -58t-62 -21zM395 752q55 0 103 31.5t76 81.5q7 13 5 22t-12 9h-3q-18 0 -32 -15q-48 -48 -119 -48q-31 0 -57.5 12t-40.5 32q-13 19 -30 19q-23 0 -20 -27q7 -51 42.5 -84t87.5 -33z" glyph-name="uni1EB6" horiz-adv-x="687" unicode="Ặ"/><glyph d="M491 129q-12 -56 10 -60q4 -1 10 -1.5t8.5 -1t6 -2.5t5.5 -6q8 -20 -8 -32q-48 -40 -122 -40q-69 0 -93 47q-9 20 -24 4q-49 -51 -129 -51q-89 0 -129.5 52t-30.5 136q15 132 94 215.5t195.5 110.5t257.5 5q26 -5 21 -31zM184 194q-8 -63 2 -98.5t34 -35.5 q41 0 65.5 59.5t57.5 208.5l23 110q6 30 -3 30q-51 0 -107 -72t-72 -202zM203 -222q-38 0 -54 21t-8 58q18 78 96 78q37 0 53 -20.5t8 -57.5t-33 -58t-62 -21zM366 554q55 0 103 31.5t76 81.5q7 13 5 22t-12 9h-3q-19 0 -32 -15q-48 -48 -119 -48q-31 0 -57.5 12t-40.5 32 q-13 19 -30 19q-23 0 -20 -27q7 -51 42.5 -84t87.5 -33z" glyph-name="uni1EB7" horiz-adv-x="608" unicode="ặ"/><glyph d="M108 0q-42 0 -128 -2q-14 -1 -20.5 6t-3.5 20l1 5q4 19 26 25q24 6 39 34.5t31 100.5l68 319q15 72 13.5 101t-20.5 37q-24 10 -19 29l1 6q5 24 29 22q65 -3 132 -3h249q44 0 64 7q19 7 32 7q27 0 24 -27l-23 -218q-3 -25 -25 -25t-22 27q4 100 -27 139.5t-127 39.5h-34 q-25 0 -29 -23l-43 -206q-7 -28 3 -28q46 0 70 18.5t31 63.5q3 25 25 25q21 0 21 -26l-4 -215q0 -26 -23 -26q-21 0 -26 25q-7 47 -31 66.5t-74 19.5q-10 0 -14 -23l-27 -128l-24 -112q-3 -13 3.5 -21t19.5 -8h74q29 0 51 4t38.5 9t30 18t21.5 23.5t17.5 34.5t15 41t15.5 52 q7 22 30 22q11 0 16 -8t2 -21l-46 -212q-5 -23 -31 -20q-17 3 -73 5h-299zM238 -216q-38 0 -54 21t-8 58q18 78 96 78q37 0 53 -20.5t8 -57.5t-33 -58t-62 -21z" glyph-name="uni1EB8" horiz-adv-x="626" unicode="Ẹ"/><glyph d="M227 -15q-127 0 -183 72t-36 188q20 119 111.5 194.5t217.5 75.5q178 0 176 -118q-1 -63 -76 -126t-216 -91q-28 -7 -22 -31q18 -89 90 -89q71 0 126 51q17 17 36 6q20 -12 6 -30q-77 -102 -230 -102zM198 239q-1 -9 20 -2q6 3 13 6q55 30 86 80.5t33 97.5q3 50 -24 50 q-39 0 -75.5 -61.5t-51.5 -160.5zM194 -226q-38 0 -54 21t-8 58q18 78 96 78q37 0 53 -20.5t8 -57.5t-33 -58t-62 -21z" glyph-name="uni1EB9" horiz-adv-x="533" unicode="ẹ"/><glyph d="M108 0q-42 0 -128 -2q-14 -1 -20.5 6t-3.5 20l1 5q4 19 26 25q24 6 39 34.5t31 100.5l68 319q15 72 13.5 101t-20.5 37q-24 10 -19 29l1 6q5 24 29 22q65 -3 132 -3h249q44 0 64 7q19 7 32 7q27 0 24 -27l-23 -218q-3 -25 -25 -25t-22 27q4 100 -27 139.5t-127 39.5h-34 q-25 0 -29 -23l-43 -206q-7 -28 3 -28q46 0 70 18.5t31 63.5q3 25 25 25q21 0 21 -26l-4 -215q0 -26 -23 -26q-21 0 -26 25q-7 47 -31 66.5t-74 19.5q-10 0 -14 -23l-27 -128l-24 -112q-3 -13 3.5 -21t19.5 -8h74q29 0 51 4t38.5 9t30 18t21.5 23.5t17.5 34.5t15 41t15.5 52 q7 22 30 22q11 0 16 -8t2 -21l-46 -212q-5 -23 -31 -20q-17 3 -73 5h-299zM433 846q-12 -14 -39 -14q-24 0 -38 19.5t-7 48.5q5 29 29 49t57 20q41 0 56.5 -24.5t8.5 -57.5q-20 -91 -111 -141q-21 -11 -30 3q-7 13 17 29q46 31 57 68z" glyph-name="uni1EBA" horiz-adv-x="626" unicode="Ẻ"/><glyph d="M227 -15q-127 0 -183 72t-36 188q20 119 111.5 194.5t217.5 75.5q178 0 176 -118q-1 -63 -76 -126t-216 -91q-28 -7 -22 -31q18 -89 90 -89q71 0 126 51q17 17 36 6q20 -12 6 -30q-77 -102 -230 -102zM198 239q-1 -9 20 -2q6 3 13 6q55 30 86 80.5t33 97.5q3 50 -24 50 q-39 0 -75.5 -61.5t-51.5 -160.5zM372 654q-12 -14 -39 -14q-24 0 -38 19.5t-7 48.5q5 29 29 49t57 20q41 0 56.5 -24.5t8.5 -57.5q-20 -91 -111 -141q-21 -11 -30 3q-7 13 17 29q46 31 57 68z" glyph-name="uni1EBB" horiz-adv-x="533" unicode="ẻ"/><glyph d="M108 0q-42 0 -128 -2q-14 -1 -20.5 6t-3.5 20l1 5q4 19 26 25q24 6 39 34.5t31 100.5l68 319q15 72 13.5 101t-20.5 37q-24 10 -19 29l1 6q5 24 29 22q65 -3 132 -3h249q44 0 64 7q19 7 32 7q27 0 24 -27l-23 -218q-3 -25 -25 -25t-22 27q4 100 -27 139.5t-127 39.5h-34 q-25 0 -29 -23l-43 -206q-7 -28 3 -28q46 0 70 18.5t31 63.5q3 25 25 25q21 0 21 -26l-4 -215q0 -26 -23 -26q-21 0 -26 25q-7 47 -31 66.5t-74 19.5q-10 0 -14 -23l-27 -128l-24 -112q-3 -13 3.5 -21t19.5 -8h74q29 0 51 4t38.5 9t30 18t21.5 23.5t17.5 34.5t15 41t15.5 52 q7 22 30 22q11 0 16 -8t2 -21l-46 -212q-5 -23 -31 -20q-17 3 -73 5h-299zM236 759q-11 13 4 30q29 35 64.5 58.5t66.5 23.5t69.5 -24t54.5 -24q26 0 53 29q20 20 29 10q11 -12 -1 -31q-24 -35 -57.5 -58.5t-65.5 -23.5q-26 0 -63.5 24.5t-58.5 24.5q-27 0 -65 -33 q-19 -19 -30 -6z" glyph-name="uni1EBC" horiz-adv-x="626" unicode="Ẽ"/><glyph d="M227 -15q-127 0 -183 72t-36 188q20 119 111.5 194.5t217.5 75.5q178 0 176 -118q-1 -63 -76 -126t-216 -91q-28 -7 -22 -31q18 -89 90 -89q71 0 126 51q17 17 36 6q20 -12 6 -30q-77 -102 -230 -102zM198 239q-1 -9 20 -2q6 3 13 6q55 30 86 80.5t33 97.5q3 50 -24 50 q-39 0 -75.5 -61.5t-51.5 -160.5zM175 581q-11 13 4 30q29 35 64.5 58.5t66.5 23.5t69.5 -24t54.5 -24q26 0 53 29q20 20 29 10q11 -12 -1 -31q-24 -35 -57.5 -58.5t-65.5 -23.5q-26 0 -63.5 24.5t-58.5 24.5q-26 0 -65 -33q-19 -19 -30 -6z" glyph-name="uni1EBD" horiz-adv-x="533" unicode="ẽ"/><glyph d="M108 0q-42 0 -128 -2q-14 -1 -20.5 6t-3.5 20l1 5q4 19 26 25q24 6 39 34.5t31 100.5l68 319q15 72 13.5 101t-20.5 37q-24 10 -19 29l1 6q5 24 29 22q65 -3 132 -3h249q44 0 64 7q19 7 32 7q27 0 24 -27l-23 -218q-3 -25 -25 -25t-22 27q4 100 -27 139.5t-127 39.5h-34 q-25 0 -29 -23l-43 -206q-7 -28 3 -28q46 0 70 18.5t31 63.5q3 25 25 25q21 0 21 -26l-4 -215q0 -26 -23 -26q-21 0 -26 25q-7 47 -31 66.5t-74 19.5q-10 0 -14 -23l-27 -128l-24 -112q-3 -13 3.5 -21t19.5 -8h74q29 0 51 4t38.5 9t30 18t21.5 23.5t17.5 34.5t15 41t15.5 52 q7 22 30 22q11 0 16 -8t2 -21l-46 -212q-5 -23 -31 -20q-17 3 -73 5h-299zM246 755q-22 -9 -33 8q-10 17 11 31l172 121q20 14 37 -3l116 -118q17 -19 4 -33q-14 -16 -34 -5l-125 63zM368 1067q19 22 37 0l27 -31q18 -21 -3 -36l-186 -138q-21 -16 -30 -3q-10 11 5 31z" glyph-name="uni1EBE" horiz-adv-x="626" unicode="Ế"/><glyph d="M227 -15q-127 0 -183 72t-36 188q20 119 111.5 194.5t217.5 75.5q178 0 176 -118q-1 -63 -76 -126t-216 -91q-28 -7 -22 -31q18 -89 90 -89q71 0 126 51q17 17 36 6q20 -12 6 -30q-77 -102 -230 -102zM198 239q-1 -9 20 -2q6 3 13 6q55 30 86 80.5t33 97.5q3 50 -24 50 q-39 0 -75.5 -61.5t-51.5 -160.5zM186 550q-22 -9 -33 8q-10 17 11 31l172 121q20 14 37 -3l116 -118q17 -19 4 -33q-14 -16 -34 -5l-125 63zM308 862q19 22 37 0l27 -31q18 -21 -3 -36l-186 -138q-21 -17 -30 -3q-10 11 5 31z" glyph-name="uni1EBF" horiz-adv-x="533" unicode="ế"/><glyph d="M108 0q-42 0 -128 -2q-14 -1 -20.5 6t-3.5 20l1 5q4 19 26 25q24 6 39 34.5t31 100.5l68 319q15 72 13.5 101t-20.5 37q-24 10 -19 29l1 6q5 24 29 22q65 -3 132 -3h249q44 0 64 7q19 7 32 7q27 0 24 -27l-23 -218q-3 -25 -25 -25t-22 27q4 100 -27 139.5t-127 39.5h-34 q-25 0 -29 -23l-43 -206q-7 -28 3 -28q46 0 70 18.5t31 63.5q3 25 25 25q21 0 21 -26l-4 -215q0 -26 -23 -26q-21 0 -26 25q-7 47 -31 66.5t-74 19.5q-10 0 -14 -23l-27 -128l-24 -112q-3 -13 3.5 -21t19.5 -8h74q29 0 51 4t38.5 9t30 18t21.5 23.5t17.5 34.5t15 41t15.5 52 q7 22 30 22q11 0 16 -8t2 -21l-46 -212q-5 -23 -31 -20q-17 3 -73 5h-299zM255 755q-22 -9 -33 8q-10 17 11 31l172 121q20 14 37 -3l116 -118q17 -19 4 -33q-14 -16 -34 -5l-125 63zM422 982q-23 16 -1 36l36 33q20 17 37 -3l149 -184q14 -18 1 -34q-15 -15 -34 0z" glyph-name="uni1EC0" horiz-adv-x="626" unicode="Ề"/><glyph d="M227 -15q-127 0 -183 72t-36 188q20 119 111.5 194.5t217.5 75.5q178 0 176 -118q-1 -63 -76 -126t-216 -91q-28 -7 -22 -31q18 -89 90 -89q71 0 126 51q17 17 36 6q20 -12 6 -30q-77 -102 -230 -102zM198 239q-1 -9 20 -2q6 3 13 6q55 30 86 80.5t33 97.5q3 50 -24 50 q-39 0 -75.5 -61.5t-51.5 -160.5zM184 554q-22 -9 -33 8q-10 17 11 31l172 121q20 14 37 -3l116 -118q17 -19 4 -33q-14 -16 -34 -5l-125 63zM351 781q-23 16 -1 36l36 33q20 17 37 -3l149 -184q14 -18 1 -34q-15 -15 -34 0z" glyph-name="uni1EC1" horiz-adv-x="533" unicode="ề"/><glyph d="M108 0q-42 0 -128 -2q-14 -1 -20.5 6t-3.5 20l1 5q4 19 26 25q24 6 39 34.5t31 100.5l68 319q15 72 13.5 101t-20.5 37q-24 10 -19 29l1 6q5 24 29 22q65 -3 132 -3h249q44 0 64 7q19 7 32 7q27 0 24 -27l-23 -218q-3 -25 -25 -25t-22 27q4 100 -27 139.5t-127 39.5h-34 q-25 0 -29 -23l-43 -206q-7 -28 3 -28q46 0 70 18.5t31 63.5q3 25 25 25q21 0 21 -26l-4 -215q0 -26 -23 -26q-21 0 -26 25q-7 47 -31 66.5t-74 19.5q-10 0 -14 -23l-27 -128l-24 -112q-3 -13 3.5 -21t19.5 -8h74q29 0 51 4t38.5 9t30 18t21.5 23.5t17.5 34.5t15 41t15.5 52 q7 22 30 22q11 0 16 -8t2 -21l-46 -212q-5 -23 -31 -20q-17 3 -73 5h-299zM252 759q-22 -9 -33 8q-10 17 11 31l172 121q20 14 37 -3l116 -118q17 -19 4 -33q-14 -16 -34 -5l-125 63zM591 972q-12 -14 -39 -14q-24 0 -38 19.5t-7 48.5q5 29 29 49t57 20q41 0 56.5 -24.5 t8.5 -57.5q-20 -91 -111 -141q-21 -11 -30 3q-7 13 17 29q46 31 57 68z" glyph-name="uni1EC2" horiz-adv-x="626" unicode="Ể"/><glyph d="M227 -15q-127 0 -183 72t-36 188q20 119 111.5 194.5t217.5 75.5q178 0 176 -118q-1 -63 -76 -126t-216 -91q-28 -7 -22 -31q18 -89 90 -89q71 0 126 51q17 17 36 6q20 -12 6 -30q-77 -102 -230 -102zM198 239q-1 -9 20 -2q6 3 13 6q55 30 86 80.5t33 97.5q3 50 -24 50 q-39 0 -75.5 -61.5t-51.5 -160.5zM190 553q-22 -9 -33 8q-10 17 11 31l172 121q20 14 37 -3l116 -118q17 -19 4 -33q-14 -16 -34 -5l-125 63zM529 766q-12 -14 -39 -14q-24 0 -38 19.5t-7 48.5q5 29 29 49t57 20q41 0 56.5 -24.5t8.5 -57.5q-20 -91 -111 -141q-21 -11 -30 3 q-7 13 17 29q46 31 57 68z" glyph-name="uni1EC3" horiz-adv-x="533" unicode="ể"/><glyph d="M108 0q-42 0 -128 -2q-14 -1 -20.5 6t-3.5 20l1 5q4 19 26 25q24 6 39 34.5t31 100.5l68 319q15 72 13.5 101t-20.5 37q-24 10 -19 29l1 6q5 24 29 22q65 -3 132 -3h249q44 0 64 7q19 7 32 7q27 0 24 -27l-23 -218q-3 -25 -25 -25t-22 27q4 100 -27 139.5t-127 39.5h-34 q-25 0 -29 -23l-43 -206q-7 -28 3 -28q46 0 70 18.5t31 63.5q3 25 25 25q21 0 21 -26l-4 -215q0 -26 -23 -26q-21 0 -26 25q-7 47 -31 66.5t-74 19.5q-10 0 -14 -23l-27 -128l-24 -112q-3 -13 3.5 -21t19.5 -8h74q29 0 51 4t38.5 9t30 18t21.5 23.5t17.5 34.5t15 41t15.5 52 q7 22 30 22q11 0 16 -8t2 -21l-46 -212q-5 -23 -31 -20q-17 3 -73 5h-299zM260 759q-22 -9 -33 8q-10 17 11 31l172 121q20 14 37 -3l116 -118q17 -19 4 -33q-14 -16 -34 -5l-125 63zM329 929q-11 13 4 30q30 35 67.5 58.5t70.5 23.5t73.5 -24t57.5 -24q27 0 56 29 q21 21 30 10q11 -12 -1 -31q-26 -35 -60.5 -58.5t-68.5 -23.5q-27 0 -67 24.5t-62 24.5q-28 0 -68 -33q-20 -18 -32 -6z" glyph-name="uni1EC4" horiz-adv-x="626" unicode="Ễ"/><glyph d="M227 -15q-127 0 -183 72t-36 188q20 119 111.5 194.5t217.5 75.5q178 0 176 -118q-1 -63 -76 -126t-216 -91q-28 -7 -22 -31q18 -89 90 -89q71 0 126 51q17 17 36 6q20 -12 6 -30q-77 -102 -230 -102zM198 239q-1 -9 20 -2q6 3 13 6q55 30 86 80.5t33 97.5q3 50 -24 50 q-39 0 -75.5 -61.5t-51.5 -160.5zM191 549q-22 -9 -33 8q-10 17 11 31l172 121q20 14 37 -3l116 -118q17 -19 4 -33q-14 -16 -34 -5l-125 63zM260 719q-11 13 4 30q30 35 67.5 58.5t70.5 23.5t73.5 -24t57.5 -24q27 0 56 29q21 21 30 10q11 -12 -1 -31q-26 -35 -60.5 -58.5 t-68.5 -23.5q-27 0 -67 24.5t-62 24.5q-28 0 -68 -33q-20 -18 -32 -6z" glyph-name="uni1EC5" horiz-adv-x="533" unicode="ễ"/><glyph d="M108 0q-42 0 -128 -2q-14 -1 -20.5 6t-3.5 20l1 5q4 19 26 25q24 6 39 34.5t31 100.5l68 319q15 72 13.5 101t-20.5 37q-24 10 -19 29l1 6q5 24 29 22q65 -3 132 -3h249q44 0 64 7q19 7 32 7q27 0 24 -27l-23 -218q-3 -25 -25 -25t-22 27q4 100 -27 139.5t-127 39.5h-34 q-25 0 -29 -23l-43 -206q-7 -28 3 -28q46 0 70 18.5t31 63.5q3 25 25 25q21 0 21 -26l-4 -215q0 -26 -23 -26q-21 0 -26 25q-7 47 -31 66.5t-74 19.5q-10 0 -14 -23l-27 -128l-24 -112q-3 -13 3.5 -21t19.5 -8h74q29 0 51 4t38.5 9t30 18t21.5 23.5t17.5 34.5t15 41t15.5 52 q7 22 30 22q11 0 16 -8t2 -21l-46 -212q-5 -23 -31 -20q-17 3 -73 5h-299zM240 -216q-38 0 -54 21t-8 58q18 78 96 78q37 0 53 -20.5t8 -57.5t-33 -58t-62 -21zM251 757q-22 -9 -33 8q-10 17 11 31l172 121q20 14 37 -3l116 -118q17 -19 4 -33q-14 -16 -34 -5l-125 63z" glyph-name="uni1EC6" horiz-adv-x="626" unicode="Ệ"/><glyph d="M227 -15q-127 0 -183 72t-36 188q20 119 111.5 194.5t217.5 75.5q178 0 176 -118q-1 -63 -76 -126t-216 -91q-28 -7 -22 -31q18 -89 90 -89q71 0 126 51q17 17 36 6q20 -12 6 -30q-77 -102 -230 -102zM198 239q-1 -9 20 -2q6 3 13 6q55 30 86 80.5t33 97.5q3 50 -24 50 q-39 0 -75.5 -61.5t-51.5 -160.5zM185 -229q-38 0 -54 21t-8 58q18 78 96 78q37 0 53 -20.5t8 -57.5t-33 -58t-62 -21zM187 553q-22 -9 -33 8q-10 17 11 31l172 121q20 14 37 -3l116 -118q17 -19 4 -33q-14 -16 -34 -5l-125 63z" glyph-name="uni1EC7" horiz-adv-x="533" unicode="ệ"/><glyph d="M105 680q5 23 29 23q64 -3 132 -3q46 0 130 2q14 1 20.5 -6t4.5 -19l-1 -5q-4 -19 -27 -24q-23 -6 -37.5 -33t-29.5 -91l-70 -331q-16 -71 -14.5 -101t20.5 -37q24 -9 20 -29l-1 -6q-5 -24 -29 -22q-84 2 -134 2q-42 0 -128 -2q-14 -1 -20.5 6t-4.5 20l1 5q4 19 27 24 q22 5 36.5 30.5t29.5 86.5l71 337q16 72 14.5 101.5t-20.5 37.5q-24 9 -20 29zM315 852q-12 -14 -40 -14q-25 0 -39.5 20t-6.5 50q5 30 30 50.5t58 20.5q43 0 59 -25.5t8 -59.5q-20 -92 -114 -145q-22 -12 -31 3q-7 14 18 30q47 31 58 70z" glyph-name="uni1EC8" horiz-adv-x="386" unicode="Ỉ"/></font>
</defs>
</svg>
