<svg xmlns="http://www.w3.org/2000/svg">
<defs>
<font horiz-adv-x="0" id="ywftsvg"><font-face ascent="1638" bbox="-987 -649 2972 2200" cap-height="1438" descent="-410" font-family="" font-stretch="normal" font-weight="400" panose-1="2 2 10 3 6 3 3 6 4 3" underline-position="0" underline-thickness="0" unicode-range="U+0020-E132" units-per-em="2048" x-height="1184"/><missing-glyph d="M829 680l-6 -8q-115 -4 -213 31.5t-98 107.5q0 45 46 73.5t101 28.5q63 0 107.5 -31.5t44.5 -76.5q0 -31 -25.5 -52.5t-74.5 -21.5q-45 0 -73 21.5t-30 48.5q-2 29 18.5 45t47.5 16q49 0 49 -26v-5q0 -16 -16 -16q4 0 4 6q0 12 -16.5 12.5t-16.5 -18.5q0 -20 31 -20 q16 0 30.5 10t12.5 26q-4 51 -82 52q-35 0 -59.5 -18.5t-24.5 -51.5q0 -66 73.5 -100.5t169.5 -32.5zM504 145q-74 0 -131.5 30t-57.5 85q0 72 85 112t202 40h37q-8 14 -8 34q0 37 23.5 88.5t42 84t12 32.5t-26.5 -28.5t-48 -84t-40 -108.5q-2 0 -12.5 1t-16.5 1 q-39 0 -57 -6q20 43 51 99.5t49.5 87t16.5 30.5q-4 0 -25.5 -24.5t-58.5 -78t-70 -116.5q-129 -25 -190 -92l-5 6q158 133 250 289q-66 -90 -176 -186.5t-172 -96.5q-55 0 -55 78q0 72 39 143q43 82 112.5 143.5t120.5 61.5q57 0 92 -16.5t37 -40.5q4 -43 -65 -68l-62 10 q66 66 66 90q0 8 -10 9q-53 0 -146.5 -138.5t-93.5 -201.5q0 -25 20 -25q41 0 135.5 81t153.5 167q16 25 45 25q12 0 19.5 -5.5t3.5 -11.5q-4 -8 -18.5 -32.5t-20.5 -39.5q68 82 82 82q31 0 31 -6q2 -2 0 -4l-21 -41q43 55 66 55q16 0 47.5 -9t25.5 -21q-92 -172 -80 -223 q109 -20 109 -52q0 -29 -18 -28q-78 0 -129 53q4 -2 15 -4t19 -6q10 -12 37 -22.5t44.5 -11.5t21.5 3q0 6 -29 19.5t-78 25.5t-96 12q-96 0 -145.5 -41t-49.5 -94q0 -43 34 -69.5t83 -26.5q39 0 64.5 15.5t23.5 45.5q-4 37 -53 37q-33 0 -33 -20q0 -18 25 -19q8 0 8 6 q0 10 -12 11q2 6 12 6q27 0 27 -23q0 -29 -52 -28q-39 0 -64.5 19t-25.5 52t28 57.5t77 24.5q47 0 85 -23.5t40 -64.5q4 -55 -45 -85t-121 -30zM811 408q-35 0 -55.5 17t-14.5 50q23 90 92.5 183.5t145.5 93.5q20 0 35.5 -7.5t15.5 -13.5q0 -20 -36 -40.5t-74 -26.5 q-39 -55 -69 -120t-30 -98q0 -20 15 -20q29 0 57.5 21.5t40.5 46.5h35q-16 -29 -65.5 -57.5t-92.5 -28.5zM934 680q70 12 88 45q6 12 -8 12q-37 0 -80 -57z" horiz-adv-x="1153"/><glyph d="M829 680l-6 -8q-115 -4 -213 31.5t-98 107.5q0 45 46 73.5t101 28.5q63 0 107.5 -31.5t44.5 -76.5q0 -31 -25.5 -52.5t-74.5 -21.5q-45 0 -73 21.5t-30 48.5q-2 29 18.5 45t47.5 16q49 0 49 -26v-5q0 -16 -16 -16q4 0 4 6q0 12 -16.5 12.5t-16.5 -18.5q0 -20 31 -20 q16 0 30.5 10t12.5 26q-4 51 -82 52q-35 0 -59.5 -18.5t-24.5 -51.5q0 -66 73.5 -100.5t169.5 -32.5zM504 145q-74 0 -131.5 30t-57.5 85q0 72 85 112t202 40h37q-8 14 -8 34q0 37 23.5 88.5t42 84t12 32.5t-26.5 -28.5t-48 -84t-40 -108.5q-2 0 -12.5 1t-16.5 1 q-39 0 -57 -6q20 43 51 99.5t49.5 87t16.5 30.5q-4 0 -25.5 -24.5t-58.5 -78t-70 -116.5q-129 -25 -190 -92l-5 6q158 133 250 289q-66 -90 -176 -186.5t-172 -96.5q-55 0 -55 78q0 72 39 143q43 82 112.5 143.5t120.5 61.5q57 0 92 -16.5t37 -40.5q4 -43 -65 -68l-62 10 q66 66 66 90q0 8 -10 9q-53 0 -146.5 -138.5t-93.5 -201.5q0 -25 20 -25q41 0 135.5 81t153.5 167q16 25 45 25q12 0 19.5 -5.5t3.5 -11.5q-4 -8 -18.5 -32.5t-20.5 -39.5q68 82 82 82q31 0 31 -6q2 -2 0 -4l-21 -41q43 55 66 55q16 0 47.5 -9t25.5 -21q-92 -172 -80 -223 q109 -20 109 -52q0 -29 -18 -28q-78 0 -129 53q4 -2 15 -4t19 -6q10 -12 37 -22.5t44.5 -11.5t21.5 3q0 6 -29 19.5t-78 25.5t-96 12q-96 0 -145.5 -41t-49.5 -94q0 -43 34 -69.5t83 -26.5q39 0 64.5 15.5t23.5 45.5q-4 37 -53 37q-33 0 -33 -20q0 -18 25 -19q8 0 8 6 q0 10 -12 11q2 6 12 6q27 0 27 -23q0 -29 -52 -28q-39 0 -64.5 19t-25.5 52t28 57.5t77 24.5q47 0 85 -23.5t40 -64.5q4 -55 -45 -85t-121 -30zM811 408q-35 0 -55.5 17t-14.5 50q23 90 92.5 183.5t145.5 93.5q20 0 35.5 -7.5t15.5 -13.5q0 -20 -36 -40.5t-74 -26.5 q-39 -55 -69 -120t-30 -98q0 -20 15 -20q29 0 57.5 21.5t40.5 46.5h35q-16 -29 -65.5 -57.5t-92.5 -28.5zM934 680q70 12 88 45q6 12 -8 12q-37 0 -80 -57z" glyph-name=".notdef" horiz-adv-x="1153"/><glyph glyph-name="glyph1"/><glyph glyph-name="glyph2" horiz-adv-x="681"/><glyph glyph-name="space" horiz-adv-x="471" unicode=" "/><glyph d="M297 428h-76q20 82 21 156q2 121 -78 326.5t-96 338.5q-23 168 41.5 261.5t162.5 93.5q102 0 178 -70t76 -197q0 -84 -27.5 -160.5t-61.5 -129t-62.5 -134.5t-30.5 -174q-4 -190 -47 -311zM281 -20q-90 0 -140.5 59t-50.5 137t50 136.5t141 58.5q92 0 143 -56.5 t51 -136.5t-51 -139t-143 -59z" glyph-name="exclam" horiz-adv-x="577" unicode="!"/><glyph d="M31 1217q78 139 26 407h267q0 -150 -75 -264t-218 -143zM352 1217q78 139 27 407h266q0 -150 -75 -264t-218 -143z" glyph-name="quotedbl" horiz-adv-x="688" unicode="&quot;"/><glyph d="M1083 909v-67h-241l-135 -346h260v-70h-287l-125 -322h-70l125 322h-237l-125 -322h-70l125 322h-262v70h289l135 346h-266v67h293l120 312h70l-121 -312h238l121 312h69l-121 -312h215zM399 496h238l135 346h-237z" glyph-name="numbersign" horiz-adv-x="1124" unicode="#"/><glyph d="M1010 526q0 -283 -129 -413.5t-346 -145.5l-13 -117h-61l12 115q-207 2 -314.5 94.5t-78.5 239.5q37 205 -37 285q55 6 85 9t87 5t91 -6t71 -22.5t55.5 -46t18.5 -77.5q0 -29 -20.5 -115.5t-20.5 -142.5q0 -82 28.5 -130t71.5 -48q61 0 97 39t36 156q0 53 -12.5 145 t-12.5 129q0 63 20.5 151.5t20.5 110.5q0 63 -90 45q-4 0 -95 -32.5t-146 -32.5q-133 0 -204 104.5t-71 245.5q0 195 101.5 289t310.5 108l10 107h62l-11 -105h19q199 0 320.5 -76.5t90.5 -203.5q-4 -23 -19 -60.5t-24.5 -62.5t-6.5 -58.5t26 -62.5q-55 -14 -117.5 -16 t-130.5 11t-105.5 68.5t-27.5 145.5q4 29 9 61.5t9 54t7.5 45t4.5 39t1 31t-5.5 23.5t-13.5 15.5t-20.5 10.5t-30.5 3q-61 0 -94 -109.5t-33 -253.5q0 -123 26.5 -200.5t82.5 -73.5q31 2 129 36.5t161 34.5q121 0 173.5 -98t52.5 -248z" glyph-name="dollar" horiz-adv-x="1075" unicode="$"/><glyph d="M319 723q-279 0 -278 186q0 53 18.5 119t18.5 94q0 20 -18.5 82t-18.5 123q0 66 76 102.5t207 36.5q45 0 87 -6t89 -21.5t75.5 -50t28.5 -83.5q0 -39 -12 -101.5t-12 -89.5q0 -18 17 -73.5t17 -118.5q0 -59 -29.5 -101.5t-77.5 -62t-93.5 -27.5t-94.5 -8zM326 741 q80 0 80 152q0 41 -10.5 98.5t-10.5 104.5q0 63 7 124.5t7 110.5q0 61 -15 89t-58 28q-41 0 -57.5 -29.5t-16.5 -93.5q0 -31 9 -99.5t9 -129.5q0 -43 -9 -100.5t-9 -112.5q0 -72 15.5 -107t58.5 -35zM360 0h-41l603 1438h39zM975 -35q-152 0 -215.5 54.5t-63.5 134.5 q0 53 18.5 117.5t18.5 95.5q0 18 -18.5 79.5t-18.5 124.5q0 66 76 103t207 37q45 0 87 -6.5t89 -21.5t76 -50t29 -84q0 -39 -12.5 -101.5t-12.5 -89.5q0 -18 17.5 -73.5t17.5 -118.5q0 -80 -54.5 -128t-112.5 -60.5t-128 -12.5zM983 -14q43 0 60.5 36.5t17.5 114.5 q0 41 -10.5 98.5t-10.5 104.5q0 61 7.5 122.5t7.5 112.5q0 61 -14.5 89t-57.5 28t-59.5 -29.5t-16.5 -93.5q0 -31 9.5 -99.5t9.5 -129.5q0 -45 -9.5 -100.5t-9.5 -112.5q0 -72 16.5 -106.5t59.5 -34.5z" glyph-name="percent" horiz-adv-x="1310" unicode="%"/><glyph d="M1290 256l35 -219q-129 -66 -211 -66q-63 0 -114.5 35t-108.5 111q-127 -152 -352 -152q-219 0 -350.5 106.5t-131.5 290.5q0 141 81 250t231 236q-143 195 -144 336q0 127 89 206.5t255 79.5q117 0 207 -24.5t152.5 -92t62.5 -169.5q0 -68 -21.5 -126.5t-68.5 -112.5 t-85 -89t-109.5 -93t-104.5 -87q18 -29 62.5 -95.5t66.5 -99.5q-10 141 69 216t195 75q96 0 166 -54t62 -147q-23 14 -52 15q-47 0 -77.5 -51.5t-68.5 -158t-71 -165.5q55 -37 107 -37q75 0 229 82zM432 1077q0 -72 29 -153q123 106 186.5 191t63.5 188q0 51 -19.5 76.5 t-46.5 25.5q-82 0 -147.5 -93.5t-65.5 -234.5zM549 -8q70 0 126 94t60 262q-100 152 -190 273q-154 -158 -154 -347q0 -135 48.5 -208.5t109.5 -73.5z" glyph-name="ampersand" horiz-adv-x="1366" unicode="&amp;"/><glyph d="M49 1217q78 139 27 407h266q0 -150 -75 -264t-218 -143z" glyph-name="quotesingle" horiz-adv-x="385" unicode="'"/><glyph d="M719 -211v-41q-207 0 -340 26.5t-201.5 85t-93.5 130t-25 180.5q0 61 13.5 227t13.5 268.5t-13.5 266.5t-13.5 225q0 104 25 174t91.5 126t196.5 82t330 26v-41q-223 0 -296.5 -58.5t-73.5 -212.5q0 -51 14 -245.5t14 -341.5q0 -143 -13 -338t-13 -248q0 -164 77 -227.5 t308 -63.5z" glyph-name="parenleft" horiz-adv-x="759" unicode="("/><glyph d="M41 -252v41q231 0 308 63.5t77 227.5q0 53 -13.5 247.5t-13.5 338.5q0 147 14.5 341.5t14.5 245.5q0 154 -73.5 212.5t-297.5 58.5v41q201 0 331 -26t196.5 -82t91 -125.5t24.5 -174.5q0 -61 -13 -225t-13 -266.5t13 -268.5t13 -227q0 -109 -24.5 -180.5t-93 -130 t-201.5 -85t-340 -26.5z" glyph-name="parenright" horiz-adv-x="759" unicode=")"/><glyph d="M487 1210v-39h-194l-14 -14l163 -164l-26 -26l-160 159v-186h-37v158l-131 -131l-27 26l158 158v12l-8 8h-225v39h186l-111 111l27 27l131 -131v225h37v-232h23l137 138l26 -27l-110 -111h155z" glyph-name="asterisk" horiz-adv-x="583" unicode="*"/><glyph d="M446 664h347v-58h-347v-348h-57v348h-348v58h348v346h57v-346z" glyph-name="plus" horiz-adv-x="833" unicode="+"/><glyph d="M43 -170q27 20 48.5 43t32.5 52.5t19.5 50t11.5 56.5t4 51t0 55t-1 46q0 61 45 94t110 33q59 0 101.5 -32.5t42.5 -94.5q0 -145 -106.5 -239.5t-307.5 -114.5z" glyph-name="comma" horiz-adv-x="522" unicode=","/><glyph d="M492 610h-451v62h451v-62z" glyph-name="hyphen" horiz-adv-x="532" unicode="-"/><glyph d="M223 -35q-76 0 -129 52.5t-53 129.5q0 82 52 135.5t130 53.5q82 0 135.5 -53.5t53.5 -135.5q0 -78 -53.5 -130t-135.5 -52z" glyph-name="period" horiz-adv-x="452" unicode="."/><glyph d="M115 -299h-72l537 1884h71z" glyph-name="slash" horiz-adv-x="692" unicode="/"/><glyph d="M598 -35q-160 0 -273.5 32t-173 88t-85 118.5t-25.5 134.5q0 111 36 240t36 186q0 41 -36 164t-36 248q0 131 151.5 204.5t413.5 73.5q70 0 136.5 -6t147.5 -26.5t139 -54.5t98 -95.5t40 -141.5q0 -78 -25.5 -203.5t-25.5 -178.5q0 -37 35 -148t35 -235q0 -98 -41 -173 t-101.5 -116t-144.5 -67.5t-154.5 -35t-146.5 -8.5zM612 4q88 0 123 75t35 226q0 84 -20.5 198.5t-20.5 207.5q0 127 14.5 249.5t14.5 223.5q0 123 -31 177t-115 54q-86 0 -118.5 -58.5t-32.5 -185.5q0 -61 18.5 -198t18.5 -262q0 -86 -18.5 -199t-18.5 -227 q0 -141 32.5 -211t118.5 -70z" glyph-name="zero" horiz-adv-x="1226" unicode="0"/><glyph d="M580 0h-469q156 342 155 803q0 154 -70.5 223.5t-154.5 69.5v110q125 39 203 88t174 144h102q-74 -162 -80 -334t29 -309.5t73 -360.5t38 -434z" glyph-name="one" horiz-adv-x="620" unicode="1"/><glyph d="M578 -35q-74 0 -243 17.5t-294 17.5q55 184 76.5 421.5t45 342t105.5 104.5q63 0 161.5 -32.5t127.5 -34.5q51 -6 79 73.5t28 200.5q0 143 -33 253t-92 110q-25 0 -39.5 -5.5t-21.5 -17.5t-8 -26.5t2 -41t8 -50t12.5 -62.5t11.5 -74q10 -78 -15.5 -131t-70.5 -75.5 t-104.5 -29.5t-108.5 -2t-92 17q23 29 25.5 62.5t-6.5 58t-24.5 62.5t-19.5 61q-29 129 94 207.5t324 78.5q250 0 372.5 -94t122.5 -305q0 -139 -72.5 -244.5t-205.5 -105.5q-45 0 -124 11t-114 9q-53 -2 -79.5 -75.5t-22.5 -178t23.5 -209t57.5 -181.5t81 -85 q45 -8 71.5 43t26.5 133q0 55 -21.5 142.5t-21.5 115.5q0 53 31 88t69.5 48.5t106 14.5t105.5 -2t104 -11q-74 -80 -37 -285q29 -150 -79.5 -242t-321.5 -92z" glyph-name="two" horiz-adv-x="1056" unicode="2"/><glyph d="M506 -35q-35 0 -99.5 15.5t-119 30t-118 14.5t-108.5 -25q-20 96 -20 176q0 139 66.5 198.5t187.5 31.5q31 -174 83 -273.5t97 -99.5q55 0 87 102.5t32 300.5q0 127 -55.5 189.5t-149.5 66.5l-8 76q8 2 39 12.5t44 17.5t40.5 23.5t42 38t31 55t23.5 80.5t7 109 q0 326 -110 326q-23 0 -31 -65t-34.5 -154t-94.5 -134q-96 -63 -264 -41q43 80 54 159t-7 243q51 4 111.5 14t115.5 16.5t133 6.5q252 0 348.5 -80t96.5 -291q0 -59 -9.5 -106.5t-18.5 -80t-34.5 -61.5t-40 -44t-52.5 -31.5t-53.5 -22.5t-63.5 -19.5t-60 -17.5 q27 -6 84 -17.5t78.5 -17.5t60.5 -21.5t53.5 -35t34 -53t25.5 -82t6 -115.5q0 -227 -101.5 -320.5t-328.5 -93.5z" glyph-name="three" horiz-adv-x="976" unicode="3"/><glyph d="M924 0h-469q92 203 133 446h-547q145 164 281.5 474.5t173.5 517.5h374q-27 -59 -43 -123t-27.5 -107t-9 -117.5t0 -102t12 -118t16.5 -104.5t24.5 -125t24.5 -119q145 37 222 250l53 -326h-260q41 -237 41 -446zM561 512h37q18 121 18 274q0 131 21 326 q-31 -96 -145 -448q-33 -104 -23 -128t92 -24z" glyph-name="four" horiz-adv-x="1183" unicode="4"/><glyph d="M469 -35q-213 0 -316.5 92.5t-74.5 241.5q37 205 -37 285q55 6 85 9t87 5t91 -6t71 -22.5t55.5 -46t18.5 -77.5q0 -29 -21.5 -115.5t-21.5 -142.5q0 -80 27.5 -128t68.5 -48q39 0 65.5 11.5t50 56.5t23.5 125v159.5t-4 105.5t-13.5 98.5t-25.5 56.5q-41 70 -176 82 q-63 4 -246 4q-94 0 -108 147q-8 80 10 310.5t-2 269.5q94 2 236.5 17t228.5 15q186 0 315 -65.5t102 -169.5q-6 -27 -28.5 -102.5t-26.5 -108.5q-4 -49 27 -84q-43 -12 -92.5 -17t-107.5 2t-101 29.5t-68.5 75.5t-15.5 131q6 47 18 99.5t19.5 80t10.5 52t-7.5 35 t-36.5 10.5q-49 0 -87 -62.5t-57.5 -157t-28.5 -182.5t-9 -162q0 -92 151 -88q37 0 126 9.5t130 9.5q131 0 182.5 -69.5t51.5 -209.5q0 -156 -42 -268.5t-119 -175t-170 -90t-208 -27.5z" glyph-name="five" horiz-adv-x="1048" unicode="5"/><glyph d="M442 -35q-205 0 -302 88t-99 277q0 102 31.5 206.5t33.5 219.5q2 68 -22.5 179.5t-24.5 182.5q0 352 455 352q180 0 299 -65.5t119 -177.5q0 -39 -27.5 -107.5t-27.5 -105.5q0 -39 26 -74q-66 -18 -141 -18q-104 0 -175 47t-71 153q0 43 10.5 94.5t20.5 87t16 68.5 t-3 49.5t-38 16.5q-68 0 -100.5 -40t-34.5 -103.5t3 -143.5t14.5 -162t-3.5 -155q111 39 217 38q150 0 249.5 -96t99.5 -319q0 -141 -40 -240.5t-115 -153t-164 -76t-206 -22.5zM508 10q41 0 73.5 53.5t32.5 155.5q0 305 -26.5 438.5t-104.5 133.5q-27 0 -46 -19.5 t-30.5 -61.5t-18.5 -78t-10 -99.5t-3 -93v-91.5q0 -158 39 -248t94 -90z" glyph-name="six" horiz-adv-x="1007" unicode="6"/><glyph d="M559 0h-309q-27 133 20 302t119 300t135.5 269.5t65.5 211.5q12 354 -139 355q-27 0 -37.5 -10.5t-7 -35t10.5 -52t19.5 -80t18.5 -99.5q20 -152 -86 -207q-117 -63 -299 -14q23 29 25.5 62.5t-6.5 58t-24.5 62.5t-19.5 61q-31 129 92 207.5t322 78.5q86 0 228 -15 t237 -17q-29 -330 -101 -488q-16 -39 -58 -130t-57.5 -128t-48 -113.5t-46 -114.5t-34 -101.5t-26.5 -102.5t-11 -89t0 -91t17 -80z" glyph-name="seven" horiz-adv-x="964" unicode="7"/><glyph d="M504 -35q-242 0 -352.5 77t-110.5 296q0 111 17.5 179.5t73.5 108.5t93 52t142 37q14 4 22 6q-16 4 -55 15.5t-56.5 17.5t-50 18t-49 24.5t-41 33t-37 45t-26 57.5t-18.5 77t-5 95q0 211 96.5 291t348.5 80q258 0 362.5 -81t104.5 -290q0 -51 -5.5 -95t-18.5 -77 t-25.5 -57.5t-37 -45t-41 -33t-49 -24.5t-50 -18t-56.5 -17.5t-55 -15.5q174 -41 227 -72q113 -70 121 -270v-41q0 -217 -112.5 -294t-356.5 -79zM506 797q137 59 137 307q0 162 -45 248t-102 86q-51 0 -88 -85t-37 -249q0 -246 135 -307zM504 29q125 0 125 366 q0 215 -123 305q-121 -90 -121 -305q0 -366 119 -366z" glyph-name="eight" horiz-adv-x="1013" unicode="8"/><glyph d="M563 1485q207 0 303.5 -88t98.5 -277q2 -102 -30 -206.5t-34 -219.5q-2 -68 22.5 -179.5t24.5 -182.5q0 -352 -456 -352q-180 0 -298 65.5t-118 177.5q0 39 27.5 107.5t27.5 105.5q0 39 -27 74q66 18 142 18q104 0 175 -47t71 -153q0 -43 -10.5 -94.5t-20.5 -87 t-16.5 -68.5t3 -49.5t35.5 -16.5q68 0 101.5 40t36 103.5t-3 143.5t-14.5 162t3 155q-113 -39 -217 -38q-150 0 -249 96t-99 319q0 141 40 240.5t113.5 153t162.5 76t206 22.5zM500 1440q-41 0 -74 -53.5t-33 -155.5q0 -305 26.5 -438.5t102.5 -133.5q27 0 47.5 19.5 t31.5 61.5t18.5 78t10.5 99.5t3 93v91.5q0 158 -39 248t-94 90z" glyph-name="nine" horiz-adv-x="1007" unicode="9"/><glyph d="M223 930q-76 0 -129 53t-53 129q0 82 52 135t130 53q82 0 135.5 -53t53.5 -135q0 -78 -53.5 -130t-135.5 -52zM223 -35q-76 0 -129 52.5t-53 129.5q0 82 52 135.5t130 53.5q82 0 135.5 -53.5t53.5 -135.5q0 -78 -53.5 -130t-135.5 -52z" glyph-name="colon" horiz-adv-x="475" unicode=":"/><glyph d="M317 932q-76 0 -129 52t-53 130q0 82 52.5 135.5t129.5 53.5q82 0 135.5 -53.5t53.5 -135.5q0 -78 -53.5 -130t-135.5 -52zM43 -176q27 20 48.5 42.5t32.5 52.5t19.5 50.5t11.5 56t4 51t0 55.5t-1 46q0 61 45 94t110 33q59 0 101.5 -32.5t42.5 -94.5 q0 -145 -106.5 -239.5t-307.5 -114.5z" glyph-name="semicolon" horiz-adv-x="569" unicode=";"/><glyph d="M717 336v-205q-72 57 -172.5 94t-183 57.5t-158.5 50t-119 94.5t-43 169t43 173t120 106.5t157.5 64.5t183 67t172.5 91v-187q0 -61 -49.5 -103t-122 -59.5t-157.5 -33t-158.5 -24.5t-123 -33.5t-49.5 -61.5q0 -47 103.5 -67.5t226.5 -25.5t226.5 -46t103.5 -121z" glyph-name="less" horiz-adv-x="757" unicode="&lt;"/><glyph d="M793 707h-752v57h752v-57zM793 500h-752v57h752v-57z" glyph-name="equal" horiz-adv-x="833" unicode="="/><glyph d="M41 131v205q0 80 103.5 121t226.5 46t226 25.5t103 67.5q0 37 -49 61.5t-122.5 33.5t-158.5 24.5t-158 33t-122 59.5t-49 103v187q70 -51 172 -91t183 -67t158 -64.5t120 -106.5t43 -173t-43 -169t-119 -94.5t-159 -50t-183 -57.5t-172 -94z" glyph-name="greater" horiz-adv-x="757" unicode=">"/><glyph d="M358 444h-88v254q0 74 22.5 125t56.5 78t73 60.5t72.5 71.5t56 115t22.5 185q0 211 -69 211q-39 0 -75 -89t-36 -216q-20 -51 -67 -82t-103 -31q-70 0 -118 49.5t-48 143.5q0 121 126 203t294 82q92 0 158.5 -17.5t129 -62.5t95.5 -139.5t33 -233.5q0 -115 -55.5 -198 t-133 -126t-156.5 -75.5t-134.5 -69.5t-55.5 -84v-154zM334 -35q-76 0 -129 52.5t-53 129.5q0 82 52 135.5t130 53.5q82 0 135 -53.5t53 -135.5q0 -78 -53 -130t-135 -52z" glyph-name="question" horiz-adv-x="954" unicode="?"/><glyph d="M981 -115q-406 0 -666 221.5t-260 604.5q0 141 50.5 274t144.5 242.5t249.5 176t348.5 66.5q160 0 287 -25.5t211 -71.5t143 -108.5t81.5 -138t28 -159.5t-19.5 -172q-53 -238 -212 -382.5t-325 -144.5q-66 0 -108.5 41t-42.5 111q0 29 8 55q18 68 73.5 144.5t85 113.5 t5.5 37q-27 0 -81 -69.5t-109.5 -151.5t-133 -151.5t-149.5 -69.5q-76 0 -116 46t-40 118q0 78 64.5 176t142.5 178t145.5 169t71.5 148q6 23 -2 43q29 0 41 -4q94 -2 148.5 -68.5t54.5 -152.5q0 -61 -52.5 -108.5t-116 -71t-117.5 -56t-58 -71.5q-4 -12 -2 -21.5t7 -11.5 t13 2q8 0 115.5 76t181.5 76q90 0 90 -68q0 -59 -76.5 -204.5t-80.5 -170.5q-6 -35 14 -30q41 6 110 108q104 158 138 363q23 137 -4 278t-103 239.5t-180 98.5q-147 0 -349 -221t-278 -500q-41 -178 -21.5 -308t93.5 -215t167 -126t195 -43q211 -4 393.5 79t327.5 310 l174 -309q-333 -191 -700 -191z" glyph-name="at" horiz-adv-x="1734" unicode="@"/><glyph d="M449 0h-418q-8 66 -8 131q0 111 37.5 220.5t81.5 185t82 178t38 200.5q0 72 -21.5 133.5t-47 101.5t-47 116.5t-21.5 175.5q68 -16 127 -17q57 0 196.5 26t213.5 26q178 0 312 -112t111 -302q-10 -80 -24 -187.5t-22.5 -167t-14.5 -137t-6 -151.5q0 -178 84 -420h-418 q-47 188 -47 385q0 18 3 76.5t3 85.5q-2 84 -74 84q-63 0 -88 -74q-80 -223 -80 -340q1 -108 48 -217zM602 686q57 0 74 74q4 23 15 79t15.5 81.5t12.5 74.5t12 82t7 75t3 81q0 88 -34.5 140t-81.5 57q-49 4 -83 -28t-34 -97q0 -78 29.5 -176.5t29.5 -149.5q0 -109 -28 -227 q-6 -29 13 -47.5t50 -18.5z" glyph-name="A" horiz-adv-x="1126" unicode="A"/><glyph d="M590 -35q-74 0 -146.5 19.5t-117.5 37t-120 15.5t-167 -39q14 166 59 278.5t82 205.5t37 231q0 111 -35 205t-74.5 151t-64.5 154.5t-10 218.5q86 -35 155.5 -36t111.5 15.5t117 35t156 18.5q248 0 343.5 -80t95.5 -291q0 -47 -5.5 -87t-11.5 -71t-22.5 -56.5t-26.5 -43 t-34.5 -34.5t-37 -25.5t-45 -20.5t-46 -16.5t-52.5 -14.5t-53 -14q18 -4 64 -13.5t59.5 -12.5t49.5 -13t47 -17.5t35.5 -21.5t33 -29.5t23 -39t19.5 -51t9 -63.5t4 -81q0 -223 -99.5 -318.5t-332.5 -95.5zM455 739q49 16 81.5 34t73.5 56.5t61.5 107.5t20.5 167 q0 123 -21.5 196.5t-61.5 96t-76.5 23.5t-83.5 -15q-20 -82 -21.5 -205t4 -200t23.5 -261zM461 70q2 -35 43 -39q72 -8 121 82q59 104 53 307q-2 72 -12.5 123t-26.5 79.5t-37.5 48t-45.5 23.5t-49.5 6t-49.5 0q31 -347 4 -630z" glyph-name="B" horiz-adv-x="1062" unicode="B"/><glyph d="M539 -37q-274 2 -404.5 167t-114.5 464q20 451 146.5 665t421.5 214q139 0 232 -81t93 -200q0 -31 -1 -82t-1 -66q0 -61 8.5 -87.5t34.5 -38.5q-57 -102 -176 -103q-76 0 -131 54.5t-55 152.5q0 43 21.5 165t21.5 156q0 94 -49 95q-72 0 -143.5 -339t-71.5 -530 q0 -221 59 -395t123 -174q59 0 59 139q0 23 -4 86.5t-2 98.5q0 223 150 223q96 0 237 -78q-29 -20 -42 -68.5t-15 -102.5t-20.5 -114.5t-52.5 -108.5t-116.5 -80t-207.5 -32z" glyph-name="C" horiz-adv-x="1015" unicode="C"/><glyph d="M457 0h-391q-45 193 6 340q14 41 38.5 91t42 83t35 85t16.5 95t-14 117q-31 131 -72.5 236.5t-59 179t-17.5 211.5h477q72 0 140.5 -6.5t151.5 -27t143.5 -53t101.5 -92t41 -139.5q0 -82 -30 -205.5t-30 -177.5q0 -41 39 -153.5t39 -235.5q0 -78 -28.5 -138t-84 -96 t-116 -60.5t-142 -35t-144 -14.5t-142.5 -4zM532 53q94 0 167 102.5t73 247.5q0 141 -55 332q-25 70 -29 149t4 181t8 141q0 170 -147 170q-100 0 -127 -145q-25 -119 8 -518q2 -39 4 -60q8 -94 4 -181t-5 -163t3 -133t26.5 -90t65.5 -33z" glyph-name="D" horiz-adv-x="1155" unicode="D"/><glyph d="M520 -35q-63 0 -127.5 10.5t-152.5 41t-143.5 104.5t-55.5 182q0 78 58.5 207t58.5 219q0 94 -58.5 221t-58.5 205q0 315 475 315q242 0 337 -51t95 -153q0 -25 -11 -77t-11 -79q0 -41 14 -62.5t45 -13.5q-29 -76 -80 -114.5t-110 -38.5q-72 0 -124.5 54t-52.5 142 q0 61 34 159.5t34 143.5q0 57 -61 58q-123 0 -174 -240q-27 -154 -27 -258q0 -88 26.5 -136t86.5 -36q25 6 96.5 31.5t105.5 25.5q41 0 69 -23.5t28 -58.5q0 -47 -45 -69q-76 72 -185 61q-90 -8 -141 -74.5t-53 -175.5q-2 -156 51 -308t123 -161q55 -12 73 60 q14 51 -19.5 157.5t-35.5 157.5q0 92 53.5 151.5t128.5 61.5q61 2 114.5 -38t82.5 -117q-45 10 -55 -46.5t6 -115.5q6 -43 8 -87t-24.5 -86t-69.5 -75t-128 -53.5t-200 -20.5z" glyph-name="E" horiz-adv-x="1026" unicode="E"/><glyph d="M524 0h-381q-4 215 34 408.5t38 308.5q0 68 -49 225.5t-49 235.5q0 49 17.5 93t59.5 92t132 76.5t217 28.5q82 0 139 -17t91 -52t51.5 -67t31.5 -79q8 -25 15.5 -61.5t12.5 -57t21.5 -42t44.5 -35.5q-111 -92 -202 -92q-76 0 -120 67.5t-46 188.5q-2 102 -27 156.5 t-61 54.5q-41 0 -53.5 -68t-12.5 -223q0 -137 25 -217q33 -100 110 -88q4 0 74 24.5t125 24.5q66 0 99.5 -35t33.5 -86q0 -53 -36 -99.5t-95 -56.5q-33 70 -102.5 121t-131.5 51q-45 0 -70.5 -30.5t-23.5 -92t33 -167t50 -230.5t5 -260z" glyph-name="F" horiz-adv-x="954" unicode="F"/><glyph d="M518 -35q-283 0 -405.5 105.5t-83.5 339.5q31 207 29.5 307t-29.5 350q-23 203 122.5 300t366.5 97q174 0 307 -58t133 -146q0 -39 -6 -86.5t-9 -73t7.5 -59t36.5 -66.5q-68 -25 -136.5 -27t-124.5 18.5t-85 77t-14 138.5q20 113 -4.5 173t-73.5 60q-74 0 -139.5 -118.5 t-65.5 -321.5q0 -123 27 -258q37 -193 41 -441q4 -158 32.5 -217t124.5 -59q45 0 61.5 33t6.5 92t-25.5 112.5t-42 126t-34.5 101.5q-41 154 44 241t218 87q158 0 235 -105q-41 -2 -64.5 -32.5t-28.5 -81t-3 -95.5t10 -92q20 -92 10 -170t-49 -134t-136 -87t-253 -31z" glyph-name="G" horiz-adv-x="1075" unicode="G"/><glyph d="M522 0h-491q0 131 77.5 395t77.5 369q0 94 -23.5 175t-51 132t-47 147.5t-13.5 219.5h445q6 -98 -36 -274.5t-42 -227.5q0 -63 28.5 -97t108.5 -38h59q154 0 154 117q0 70 -70.5 258t-70.5 262h415q12 -104 13 -176q0 -119 -30 -198t-59.5 -141.5t-29.5 -142.5 q0 -158 79 -450.5t85 -329.5h-486q-20 80 -20 162q0 143 62.5 329.5t62.5 213.5q0 43 -72 51q-55 8 -110 4q-57 -2 -94 -89t-37 -216q-1 -236 116 -455z" glyph-name="H" horiz-adv-x="1128" unicode="H"/><glyph d="M510 0h-465q-4 41 -4 57q0 90 104.5 292t104.5 300q0 86 -57 158q-94 117 -133.5 232.5t-36 194.5t25.5 204h449q-145 -236 -146 -420q0 -123 68 -211q74 -98 74 -305q0 -49 -7.5 -169t-3.5 -198t27 -135z" glyph-name="I" horiz-adv-x="536" unicode="I"/><glyph d="M358 -35q-80 0 -133 19.5t-77.5 51.5t-37 73t-10.5 85t0 87q2 59 1 110t-29.5 98.5t-87.5 69.5q18 49 95 88t157 39q82 0 135 -52t55 -165q0 -86 -35 -171t-69.5 -149.5t-34.5 -103.5q0 -47 65 -47q82 0 136.5 81t72 170t19.5 175q2 254 -69 529.5t-83 484.5h418 q18 -231 16 -329.5t-12 -245t-8 -242.5q0 -10 2 -56.5t3 -74t-2 -81t-10.5 -89t-22.5 -86t-38.5 -85t-61.5 -71.5t-87.5 -60.5t-117 -38t-149.5 -14.5z" glyph-name="J" horiz-adv-x="899" unicode="J"/><glyph d="M463 0h-418q-16 68 -16 139q0 94 34.5 179t75.5 137.5t76 125t35 146.5q0 59 -19.5 110.5t-45 98.5t-49 107.5t-35 161t-1.5 233.5h451q6 -100 -19.5 -188.5t-63.5 -145.5t-73 -131t-49 -145.5t6 -188.5q143 399 309 598t408 201v-398q-16 0 -65.5 1t-80 1t-85 -7 t-94 -21.5t-92 -43t-93.5 -70.5t-84 -106.5t-78 -148.5q27 14 71 58.5t83 87.5t99.5 76.5t121.5 33.5q94 0 164 -85t103.5 -220t45 -288.5t0.5 -307.5h-444q18 258 -27 456.5t-112 200.5q-25 2 -55.5 -28.5t-51.5 -77.5q-25 -57 -24.5 -117.5t14.5 -110t39 -143.5t39 -180z " glyph-name="K" horiz-adv-x="1138" unicode="K"/><glyph d="M477 -35q-225 0 -339.5 104.5t-114.5 276.5q0 113 74.5 350.5t74.5 386.5q0 152 -51 355h475q10 -160 -47 -362t-122 -382t-65 -276q-2 -190 79 -280.5t194 -90.5q61 0 61 39q0 16 -21.5 33.5t-48 33t-51 51.5t-28.5 83q-14 115 43 172t143 57q57 0 106.5 -24.5 t69.5 -65.5q-72 -43 -57 -125q12 -53 14 -92t-14 -86t-55 -78t-120 -53.5t-200 -26.5z" glyph-name="L" horiz-adv-x="931" unicode="L"/><glyph d="M485 0h-434q-29 100 -28 227q0 166 65.5 497t65.5 435q0 186 -74 197q-12 4 -21 2q55 106 170 106q74 0 129.5 -55t55.5 -149q180 215 360 215q96 0 169 -64.5t71 -153.5q84 94 216 150.5t245 56.5q117 0 200.5 -58t83.5 -165q-2 -59 -34.5 -114.5t-77.5 -98.5t-89.5 -86 t-71 -97t-18.5 -112q10 -70 47 -126t82 -99t88.5 -89t72 -119t28.5 -167q0 -61 -14 -133h-451q45 111 45 207q0 82 -34 165t-76 142t-75.5 152.5t-33.5 193.5q0 193 205 402q80 82 86 94q-8 16 -33 20q-166 0 -301 -138t-137 -351q0 -92 41 -212t84 -252t45 -247 q12 -100 -2 -176h-461q33 106 38 202.5t-7.5 162t-26.5 174t-14 215.5q0 131 53 323.5t53 259.5q0 43 -17.5 63.5t-56.5 18.5q-84 -8 -151.5 -103t-101 -224t-37.5 -263q-2 -186 46.5 -465.5t32.5 -363.5z" glyph-name="M" horiz-adv-x="1812" unicode="M"/><glyph d="M471 0h-438q-2 154 20.5 328t58 358t44.5 254q16 131 -18 258t-115 148q43 129 178 129q90 0 160.5 -66t68.5 -168q123 209 383 209q113 0 181.5 -57.5t68.5 -167.5q0 -84 -27.5 -155t-58.5 -113t-50.5 -116.5t-4.5 -168.5q12 -88 52 -158t69.5 -107.5t47 -142 t-15.5 -264.5h-424q23 268 19 393t-37 316q-20 160 -6 255t42.5 197.5t28.5 132.5q0 68 -86 49q-86 -6 -154.5 -209.5t-68.5 -369.5q0 -92 34 -225t52.5 -231.5t-4.5 -307.5z" glyph-name="N" horiz-adv-x="1120" unicode="N"/><glyph d="M567 -18q-238 0 -364.5 99t-126.5 290q0 72 24 157q23 78 23 160q0 47 -11.5 148.5t-11.5 164.5q0 250 122 351.5t356 101.5q500 0 499 -324q0 -78 -56 -186t-56 -162q0 -39 32.5 -98t65.5 -142t33 -177q0 -98 -35 -171t-85 -113t-126 -63.5t-140.5 -29.5t-142.5 -6z M582 20q96 0 133 68t37 217q0 84 -41 198.5t-41 207.5q0 127 34.5 249.5t34.5 223.5q0 121 -33.5 176t-121.5 55q-92 0 -127 -58.5t-35 -185.5q0 -61 37 -198t37 -262q0 -86 -37 -212t-37 -241q0 -238 160 -238z" glyph-name="O" horiz-adv-x="1171" unicode="O"/><glyph d="M506 0h-424q0 139 19.5 240.5t71.5 253t67 202.5q20 68 -7.5 157t-73.5 168t-86 193.5t-40 221.5q100 -39 184 -39q53 0 211 38t309 38q205 0 263.5 -94.5t58.5 -401.5q0 -131 -14.5 -224.5t-52.5 -173t-111.5 -119.5t-184.5 -40q-51 0 -98 25.5t-73.5 55t-50 54.5 t-34.5 25q-18 0 -24 -84q-6 -117 42 -263.5t48 -232.5zM571 541q18 0 31.5 14t21 45t12.5 58.5t6 76.5t2 77t0 80t-1 66q0 51 9.5 125t15.5 124t6 98.5t-22.5 73t-67.5 24.5q-190 0 -191 -387q0 -199 44 -337t134 -138z" glyph-name="P" horiz-adv-x="1099" unicode="P"/><glyph d="M1329 -473q-92 0 -199.5 58.5t-223 138t-191.5 108.5q-213 -88 -428 -88q-59 0 -94 18.5t-35 44.5q0 39 71.5 69t208.5 30q74 0 201 -8q131 145 131 397q0 90 -44 206.5t-44 209.5q0 127 38 249.5t38 223.5q0 121 -34 176t-124 55t-124 -58.5t-34 -185.5q0 -61 29 -198 t29 -262q0 -86 -47 -212t-47 -241q0 -109 40.5 -181.5t131.5 -72.5v-39q-266 0 -384 103.5t-118 302.5q0 72 24 157q23 78 23 160q0 47 -11.5 148.5t-11.5 164.5q0 256 115 354.5t379 98.5q518 0 518 -324q0 -78 -56.5 -186t-56.5 -162q0 -39 29 -98t56.5 -142t27.5 -177 q0 -141 -94 -267.5t-256 -214.5q41 -2 233.5 -58t300.5 -56q180 0 334 137l45 -281q-66 -45 -134 -68.5t-107 -26.5t-105 -3zM440 -203q94 8 160 64q-33 4 -47 4q-55 0 -100 -11.5t-68 -24.5t-23 -24q0 -20 78 -8z" glyph-name="Q" horiz-adv-x="1171" unicode="Q"/><glyph d="M543 0h-453q-39 98 -39 193q0 104 54.5 209.5t108.5 200.5t54 179q0 61 -24.5 113.5t-59 95.5t-69.5 90t-59.5 119t-24.5 162q0 37 6 80q102 -37 186 -37q66 0 205 36t250 36q248 0 368.5 -111t120.5 -262q0 -141 -120.5 -244.5t-296.5 -140.5q152 0 220 -46t89 -134 q10 -49 11 -153.5t15.5 -204t61.5 -181.5h-461q0 55 13.5 135t23.5 137.5t5 133t-34 143.5q-29 70 -74 109.5t-85 39.5q-43 0 -71 -56t-28 -171q1 -229 107 -471zM575 752q86 -4 169 103.5t83 274.5q0 150 -53 232t-121 82q-49 0 -83.5 -43t-32.5 -115q0 -10 5 -52t5 -68.5 t-8.5 -85t-26.5 -128.5q-25 -92 -6.5 -144t69.5 -56z" glyph-name="R" horiz-adv-x="1210" unicode="R"/><glyph d="M481 -35q-209 0 -317.5 92.5t-79.5 241.5q37 205 -37 285q55 6 85 9t87 5t91 -6t71 -22.5t55.5 -46t18.5 -77.5q0 -29 -20.5 -115.5t-20.5 -142.5q0 -82 28.5 -130t71.5 -48q61 0 97 39t36 156q0 53 -12 145t-12 129q0 63 20.5 151.5t20.5 110.5q0 63 -91 45 q-4 0 -95 -32.5t-146 -32.5q-133 0 -204 104.5t-71 245.5q0 211 121 305t371 94q199 0 320.5 -76.5t91.5 -203.5q-4 -23 -19.5 -60.5t-25 -62.5t-6.5 -58.5t26 -62.5q-55 -14 -117.5 -16t-130 11t-105.5 68.5t-28 145.5q4 29 9 61.5t9.5 54t7.5 45t4 39t1 31t-5.5 23.5 t-13.5 15.5t-20 10.5t-31 3q-61 0 -94 -109.5t-33 -253.5q0 -123 26.5 -200.5t82.5 -73.5q31 2 129 36.5t161 34.5q121 0 173.5 -98t52.5 -248q0 -156 -42 -268.5t-118 -175t-168 -90t-205 -27.5z" glyph-name="S" horiz-adv-x="1040" unicode="S"/><glyph d="M852 0h-459q-33 106 -33 231q0 158 44.5 371t84 400.5t33.5 302.5q-6 106 -39 106q-25 0 -33 -39t-10 -166q-2 -117 -70.5 -178t-160.5 -61q-121 0 -170 88q33 8 52.5 54t39.5 157q39 205 385 204h184q233 0 331.5 -52t98.5 -152q0 -12 -1 -51t0 -59.5t4.5 -50.5 t14.5 -46.5t30 -24.5q-147 -96 -240 -96q-88 0 -115.5 84t11.5 258q29 115 -3 115q-33 0 -63 -72q-43 -96 -74.5 -249.5t-34.5 -301.5q-2 -170 37 -315.5t91.5 -267t64.5 -189.5z" glyph-name="T" horiz-adv-x="1187" unicode="T"/><glyph d="M592 -35q-195 0 -343.5 104.5t-148.5 309.5q0 137 76 311q51 117 51 213q0 88 -45 172t-90 173t-45 190h414q63 -143 63 -365q0 -158 -37.5 -441.5t-37.5 -369.5q0 -252 143 -252q156 0 156 277q0 82 -31 338t-29 407q4 262 72 406h416q0 -117 -67 -250t-67 -227 q0 -109 56 -259q49 -127 49 -241q0 -119 -52.5 -217.5t-136.5 -156.5t-179 -90t-187 -32z" glyph-name="U" horiz-adv-x="1216" unicode="U"/><glyph d="M537 0q-47 0 -96.5 11.5t-116 54.5t-115.5 113.5t-84 204.5t-35 310q0 37 4 170t2 204t-19.5 179.5t-53.5 190.5h426q33 -78 39 -179.5t-5.5 -189.5t-33 -239.5t-29.5 -264.5q-14 -217 15.5 -363.5t107.5 -146.5q86 0 86 195q0 109 -37 459q-18 180 36 407t40 322h460 q4 -70 -25.5 -140.5t-66.5 -125t-68.5 -148.5t-31.5 -203q0 -61 18.5 -177t18.5 -181q0 -117 -35 -206t-83 -136t-113.5 -76t-112.5 -37t-92 -8z" glyph-name="V" horiz-adv-x="1153" unicode="V"/><glyph d="M1198 -31q-238 0 -358 156q-33 -59 -129.5 -105.5t-216.5 -46.5q-59 0 -119 11.5t-128.5 40t-111.5 92t-43 151.5q0 45 34 217t34 275q0 139 -23.5 263t-65.5 256t-48 159h487q23 -82 22 -166q0 -104 -67.5 -340t-67.5 -420q0 -217 59.5 -333t137.5 -116q41 0 67.5 42 t26.5 116t-24 156q-53 176 -54 350q0 115 29 294t29 247q0 98 -33 170h414q-23 -231 -103 -508t-80 -414q0 -154 39 -260q35 -109 92.5 -166t110.5 -57q76 0 76 96q0 37 -15 90q-2 6 -18 64.5t-22.5 80t-19.5 77t-18.5 90t-10.5 84t-5 92.5q0 158 73 361.5t73 369.5h460 q-20 -88 -54 -163t-64.5 -125t-59 -103.5t-46 -127t-17.5 -167.5q0 -68 40 -229t40 -281q0 -273 -322 -273z" glyph-name="W" horiz-adv-x="1703" unicode="W"/><glyph d="M465 0h-418q0 113 33 215t79 175t92 133.5t78.5 113.5t32.5 92q0 35 -50 102.5t-110.5 139t-110.5 186.5t-50 232q0 18 4 59l399 -8q-47 -115 -47 -289q0 -160 40 -285t95 -125q47 0 84 27t37 80q0 45 -40 181t-40 210q0 123 41 199l410 2q-88 -98 -88 -295 q0 -90 -21.5 -154.5t-52.5 -97.5t-62.5 -53.5t-53 -37t-21.5 -34.5q0 -35 31.5 -81t76 -104.5t89.5 -132t75.5 -192.5t28.5 -258h-422q72 129 72 383q-2 143 -40 233.5t-110 83.5q-33 -4 -34 -53q0 -25 19 -141.5t19 -204.5q1 -164 -65 -301z" glyph-name="X" horiz-adv-x="1050" unicode="X"/><glyph d="M715 0h-531q0 113 37 214t81 159.5t81 110t37 75.5q0 45 -90 45q-27 2 -85.5 0t-80.5 -2q-150 6 -150 193q0 57 11.5 126.5t33 171t31.5 158.5q14 63 2 99t-59 36q59 82 194 82q90 0 156 -47t66 -135q0 -147 -48.5 -318t-48.5 -200q0 -156 146 -156q68 0 104.5 54.5 t36.5 109.5q0 61 -35 244.5t-35 271.5q0 84 69 130t157 46q109 0 174 -71q-68 -27 -68 -166q0 -53 13.5 -185.5t13.5 -195.5q0 -244 -234 -252q-104 -6 -139 -49q-33 -35 -33 -111q0 -63 85 -198.5t108 -239.5z" glyph-name="Y" horiz-adv-x="983" unicode="Y"/><glyph d="M475 -27q-141 0 -231 25t-185 74q-37 141 -36 258q0 178 80.5 273t244.5 149q86 29 103 34q170 59 170 316q0 131 -42 225t-102 94q-20 0 -28.5 -27.5t1 -90t35.5 -158.5q29 -104 -30 -184q-80 -102 -236 -103q-111 0 -199 72q10 6 25.5 16t22 13.5t16.5 12.5t12 16 t6 19.5t3 29t-2 38t-5 51.5q-16 133 78 228.5t324 113.5q446 35 446 -321q0 -125 -44 -205t-116.5 -114.5t-147.5 -53t-153.5 -42t-119.5 -60.5q-31 -29 -37 -83t13 -136t35.5 -131.5t47.5 -137.5q35 -125 86 -125q20 0 29.5 21.5t7.5 71t-12.5 115t-28.5 165.5 q-23 117 63 193.5t201 76.5q131 0 172 -98q-123 -6 -31 -332q33 -127 -73.5 -213t-362.5 -86z" glyph-name="Z" horiz-adv-x="1048" unicode="Z"/><glyph d="M463 -289h-412v1866h412v-70h-141v-1726h141v-70z" glyph-name="bracketleft" horiz-adv-x="503" unicode="["/><glyph d="M113 1585l536 -1884h-71l-537 1884h72z" glyph-name="backslash" horiz-adv-x="692" unicode="\"/><glyph d="M453 1577v-1866h-412v70h141v1726h-141v70h412z" glyph-name="bracketright" horiz-adv-x="503" unicode="]"/><glyph d="M219 928h-170q41 59 69.5 140t46 140.5t48.5 114.5t95.5 85t166.5 30q104 0 164.5 -27t87.5 -80t41 -111.5t42 -142.5t75 -149h-172q-86 0 -129 51t-48.5 124t-3 146.5t-8 124.5t-49.5 51q-37 0 -53 -36.5t-14 -92t-1.5 -120t-13.5 -120t-54 -92t-120 -36.5z" glyph-name="asciicircum" horiz-adv-x="933" unicode="^"/><glyph d="M819 -61h-778v61h778v-61z" glyph-name="underscore" horiz-adv-x="860" unicode="_"/><glyph d="M324 -35q-127 0 -205 84t-78 203q0 45 12.5 83t24.5 63.5t47 53t51.5 40t67.5 34t65.5 26.5t73.5 26q127 45 193.5 99t66.5 154q0 92 -56.5 209t-117.5 119q-35 10 -41 -22q-8 -25 42 -119t52 -168q2 -94 -74.5 -151.5t-177.5 -57.5q-80 0 -143 39q41 18 41 88 q0 31 -13.5 98.5t-13.5 89.5q-2 90 127 176.5t377 86.5q166 0 275.5 -62.5t109.5 -193.5q0 -104 -81 -175t-218 -133q-18 -8 -60 -27.5t-60.5 -28.5t-51.5 -25.5t-48 -29t-33.5 -29.5t-26 -34.5t-7.5 -38.5q0 -41 28 -68.5t67 -27.5q59 0 110 64q31 33 76 105.5t84 117.5 t78 45q55 0 96 -52.5t65.5 -155.5t39 -208.5t26.5 -261.5h-506q82 90 177.5 288.5t95.5 284.5q0 31 -21 31q-18 0 -41.5 -47t-48.5 -118.5t-64.5 -153.5t-88 -154t-125 -119t-168.5 -47z" glyph-name="a" horiz-adv-x="1144" unicode="a"/><glyph d="M852 -35q-39 0 -78 14.5t-68.5 33t-64.5 55t-56.5 61.5t-52 73t-42 68.5t-38 68.5t-30.5 54q-33 59 -47.5 59.5t-14.5 -28.5q0 -66 64.5 -205t140.5 -219h-524q0 143 27.5 270t53 192.5t38 178.5t-18.5 227q-12 59 -32.5 126t-30.5 101.5t-22.5 105.5t-10.5 138.5 t6 200.5h457q27 -88 -11 -241.5t-97.5 -300t-63.5 -167.5q-4 -18 12 -18q12 0 21 14q12 14 60 92t94 136.5t141.5 111t210 52.5t170 -49.5t55.5 -135.5q0 -49 -23.5 -165.5t-23.5 -219.5q0 -63 14 -192t14 -187q0 -305 -229 -305zM754 127q43 33 24 96q-55 215 -55 422 q0 106 37 262t37 172q0 49 -43 49q-82 0 -188.5 -147t-106.5 -299q0 -164 62.5 -316.5t135.5 -218.5q54 -51 97 -20z" glyph-name="b" horiz-adv-x="1140" unicode="b"/><glyph d="M553 -27q-221 0 -365.5 164t-146.5 424q-2 350 145.5 504t419.5 154q74 0 131.5 -10.5t94 -25t62.5 -42t39 -47t20.5 -57.5t8.5 -57t3 -60q0 -37 3 -59.5t11 -48.5t25.5 -40t44.5 -20q-33 -68 -96.5 -105t-133.5 -37q-86 0 -145.5 47.5t-59.5 130.5q-2 121 93 293 q43 80 30 95q-6 8 -28 8q-106 0 -183 -185.5t-75 -478.5q2 -180 22.5 -300t50 -169t66.5 -49q57 0 33 209q-18 141 52 209.5t179 68.5q131 0 188 -73q-78 -16 -77 -137q0 -74 -11.5 -119t-50.5 -93.5t-126 -71t-224 -22.5z" glyph-name="c" horiz-adv-x="1073" unicode="c"/><glyph d="M233 -35q-88 0 -121.5 41t-33.5 121q0 45 16.5 170t16.5 199q0 92 -34 224t-34 224q0 274 256 275q100 0 179 -44.5t124 -106.5t77 -124.5t53.5 -106.5t37.5 -44t16 63q0 61 -62 186t-124.5 263.5t-62.5 234.5h419q39 -127 39 -285q0 -125 -34.5 -364.5t-34.5 -349.5 q0 -131 59 -281.5t59 -259.5h-423q68 160 67 242q0 33 -14 32q-10 0 -17 -14q-63 -119 -168.5 -207t-255.5 -88zM430 113q86 0 185.5 153.5t99.5 356.5q0 121 -33 220t-82 155.5t-96 86t-82 29.5q-37 0 -37 -37q0 -20 18.5 -81.5t37 -167t18.5 -230.5q0 -111 -41 -253 t-41 -171q0 -61 53 -61z" glyph-name="d" horiz-adv-x="1077" unicode="d"/><glyph d="M522 -35q-219 0 -350 126t-131 376q0 33 6 98q8 96 14.5 153.5t22.5 135.5t37.5 123t59.5 97t88 79t124 45.5t168 18.5q82 0 145.5 -12.5t129 -45.5t98.5 -105.5t24 -181.5q-25 -299 -589 -309q-4 -35 -4 -108q0 -176 39.5 -312.5t103.5 -136.5q53 0 69.5 47t16.5 166v84 q0 102 61.5 159.5t149.5 57.5q72 0 120 -38t48 -109q-55 -2 -55 -166q0 -113 -118 -177.5t-278 -64.5zM369 616q82 -6 148.5 52.5t101 145.5t52 168t17.5 136q0 66 -45 66q-80 0 -145.5 -97.5t-97 -226.5t-31.5 -244z" glyph-name="e" horiz-adv-x="1007" unicode="e"/><glyph d="M453 -2h-426q162 492 161 743q0 145 -82.5 330.5t-82.5 314.5q0 301 362 302q82 0 139.5 -19.5t90 -56.5t48 -72t27.5 -84l10.5 -42t11.5 -45t10 -33.5t16.5 -34t19.5 -17.5q-78 -78 -176 -78q-94 0 -117 44t-16 159q6 86 4 178q-2 63 -52 64q-88 0 -88 -170 q0 -295 35 -406q35 -123 90 -123q20 0 43 29t41.5 63.5t53 63.5t77.5 29q59 0 91 -32t32 -79q0 -45 -26 -80q-41 31 -95 31q-86 0 -146 -82t-44 -195q58 -358 -12 -702z" glyph-name="f" horiz-adv-x="729" unicode="f"/><glyph d="M522 -436q-324 0 -473 200l141 158q170 -125 285 -125q135 0 198.5 101.5t41.5 220.5q-53 -152 -262 -152q-162 0 -286 87t-124 214q0 66 22.5 196t22.5 185q0 76 -13.5 154t-13.5 137q0 135 141.5 209t340.5 74q387 0 411 -217q8 -94 7.5 -151.5t-6 -147t-5.5 -121.5 q0 -66 30 -243t32 -259q8 -219 -132.5 -369.5t-357.5 -150.5zM532.5 92q59.5 0 100.5 52.5t41 144.5q0 63 -16.5 189t-16.5 173q0 80 4 225.5t4 194.5q0 117 -104 117q-74 0 -112 -43t-25 -135q8 -61 9 -129t-3 -141.5t-4 -102.5q0 -92 -13.5 -219t-13.5 -174q0 -68 45 -110 t104.5 -42z" glyph-name="g" horiz-adv-x="1060" unicode="g"/><glyph d="M522 0h-448q-37 104 -15.5 201.5t62.5 155t81 153.5t40 199q0 43 -49.5 147.5t-97.5 238.5t-48 251q0 102 43 194h418q0 -102 -55.5 -215t-110.5 -218.5t-55 -193.5q0 -84 10 -143q33 121 97.5 212t141 140t150.5 73t139 24q129 0 206 -53.5t75 -147.5 q-2 -59 -21.5 -102.5t-46 -69t-54.5 -52t-46 -67.5t-18 -96q0 -59 32.5 -114.5t70.5 -97.5t70.5 -126t32.5 -195q0 -25 -8 -98h-418q47 135 30 242.5t-57 164t-82 126t-42 129.5q0 88 69.5 187t139 175t69.5 104q0 33 -61 33q-131 0 -241.5 -144.5t-110.5 -383.5 q0 -80 33.5 -170t60 -203t14.5 -260z" glyph-name="h" horiz-adv-x="1148" unicode="h"/><glyph d="M248 1284q-90 0 -139.5 58.5t-49.5 136t49.5 135t139.5 57.5q92 0 142 -56t50 -134q0 -80 -51 -138.5t-141 -58.5zM475 0h-422q-12 100 2.5 179t43 125t61.5 95.5t56.5 88t25.5 104t-29 145.5q-25 68 -71 152t-69.5 149.5t-23.5 145.5h424q12 -90 -4 -164t-44 -113 t-52.5 -90t-27.5 -98t30 -135q45 -104 68.5 -191.5t26.5 -147t4 -124t1 -121.5z" glyph-name="i" horiz-adv-x="522" unicode="i"/><glyph d="M248 1284q-90 0 -139.5 58.5t-49.5 136t49.5 135t139.5 57.5q92 0 142 -56t50 -134q0 -80 -51 -138.5t-141 -58.5zM117 -315q-106 0 -164.5 55t-58.5 197h153q2 -96 18.5 -147.5t41 -51.5t46 50t32 150.5t-4.5 251.5q-18 207 -53 333t-57.5 256t-22.5 405h424 q0 -137 -51 -342t-39 -391q8 -104 55 -248t37 -244q-14 -125 -117.5 -199.5t-238.5 -74.5z" glyph-name="j" horiz-adv-x="518" unicode="j"/><glyph d="M516 0h-459q-16 68 -16 139q0 94 35 179t76 137.5t75.5 125t34.5 146.5q0 86 -38 205t-75.5 274.5t-37.5 333.5h456q2 -18 2 -53q0 -131 -50 -294t-100 -291t-50 -175q0 -25 12 -37t33.5 12.5t38.5 65.5q92 229 178 337.5t223 108.5q70 0 150.5 -39.5t130.5 -39.5v-322 q-33 -25 -74 -25q-53 0 -147.5 75t-151.5 75q-94 0 -163 -48t-69 -87q0 -27 50 -27q31 0 78 14.5t77 14.5q63 0 114.5 -25.5t92.5 -95.5t67.5 -118t58.5 -170t42 -171t41 -196q4 -18 6 -29h-512q68 141 68 297q0 154 -62.5 264.5t-144.5 110.5q-45 0 -79 -49.5t-34 -106.5 q0 -61 52.5 -234t70.5 -282z" glyph-name="k" horiz-adv-x="1198" unicode="k"/><glyph d="M494 0h-455q0 111 28.5 217.5t65.5 177t72 156.5t47 155.5t-8 172.5q-33 135 -82 237.5t-74 184t-25 239.5h484q0 -92 -25.5 -167t-60.5 -119t-72 -93t-60.5 -89t-25.5 -109.5t33 -151.5q16 -41 52 -132t44 -114.5t26.5 -92.5t21.5 -122t8.5 -141t5.5 -209z" glyph-name="l" horiz-adv-x="573" unicode="l"/><glyph d="M487 0h-424q-27 127 -10 227.5t45.5 152.5t57 142t28.5 197q0 100 -13 173t-35.5 108.5t-46 50t-48.5 10.5q20 74 84.5 116t140.5 42q74 0 129.5 -46.5t65.5 -132.5q47 86 133 132.5t176 46.5q115 0 190.5 -74t75.5 -207q43 137 140.5 208t209.5 71q119 0 201 -75 t82 -204q0 -51 -22.5 -166t-22.5 -219q0 -70 40 -228.5t40 -213.5q0 -51 -14 -111h-416q27 86 28 162t-13.5 126t-31 128t-16.5 155q0 90 34 211t34 174q2 63 -20.5 97t-55.5 34q-49 0 -104.5 -68.5t-79.5 -172.5q-23 -90 -9.5 -203t41 -204t38.5 -212t-15 -227h-416 q29 76 19.5 167t-33 154.5t-47 149.5t-23.5 152q0 143 37 240.5t37 144.5q0 98 -55 98q-59 0 -124 -117t-65 -270q0 -113 26.5 -259.5t39 -226t-12.5 -233.5z" glyph-name="m" horiz-adv-x="1726" unicode="m"/><glyph d="M500 0h-418q-29 84 -29 172q0 102 54.5 287.5t66.5 265.5q16 115 -19.5 212t-113.5 97q2 76 47 130.5t143 54.5q94 0 144.5 -70t64.5 -158q29 41 48.5 64.5t65.5 69.5t104.5 70t123.5 24q129 0 185.5 -64.5t56.5 -165.5q0 -84 -54.5 -214t-54.5 -218q0 -92 78 -254 t94 -303h-417q20 96 14 168q0 84 -67.5 244.5t-67.5 257.5q0 76 28.5 141.5t63.5 104t63.5 85t28.5 86.5q0 43 -41 43q-57 0 -137 -86t-121 -217q-23 -74 -22.5 -150.5t11.5 -130.5t36 -134q18 -66 26.5 -95.5t18.5 -89t9 -114t-13 -113.5z" glyph-name="n" horiz-adv-x="1112" unicode="n"/><glyph d="M524 -35q-260 0 -371.5 86t-111.5 217q0 66 37 196t37 185q0 76 -28 154t-28 137q0 135 141.5 209t340.5 74q182 0 308 -63.5t126 -176.5q0 -76 -52.5 -153.5t-52.5 -133.5q0 -66 72 -182.5t72 -194.5q0 -174 -131.5 -264t-358.5 -90zM526 6q139 0 140 141 q0 61 -40 240.5t-40 271.5q0 63 29.5 211t29.5 201q0 117 -102 117q-119 0 -119 -174q0 -41 10 -164t8 -191q-2 -86 -31.5 -259t-29.5 -234q0 -160 145 -160z" glyph-name="o" horiz-adv-x="1054" unicode="o"/><glyph d="M395 -362h-420q0 170 32 307t69 212.5t67.5 194.5t28.5 258q-4 422 -149 512q55 70 163 70q82 0 149.5 -43t82.5 -109q104 178 317 179q174 0 238.5 -57.5t64.5 -170.5q0 -53 -19.5 -202.5t-19.5 -235.5q0 -35 2.5 -101.5t3.5 -106.5t-3.5 -97.5t-14.5 -93t-31.5 -76.5 t-53.5 -63.5t-83 -38t-117 -15.5q-25 0 -49 5t-42.5 11.5t-40 21.5t-35 24.5t-32 31t-27.5 30.5t-25.5 34.5t-21.5 33t-21.5 34t-18.5 30.5q-39 66 -43 -24q0 -23 -5 -92.5t-5 -116.5t14 -141t45 -205zM578 127q90 0 90 303q0 135 15 340t15 258q0 78 -17 109.5t-63 17.5 q-29 -8 -54 -33.5t-54 -81t-47.5 -163t-18.5 -254.5q0 -266 33 -381t101 -115z" glyph-name="p" horiz-adv-x="1083" unicode="p"/><glyph d="M958 -362h-428q20 41 38 80.5t30 71.5t21.5 68t15.5 59.5t11 57t7 49t3 48t1 42v41v38.5q0 70 -12 67q-8 0 -20 -39q-39 -98 -122 -172t-196 -74q-51 0 -97 12.5t-92 47.5t-59.5 93t0.5 151q31 186 22 230t-27.5 154.5t-10.5 264.5q8 139 65.5 210.5t174.5 80.5 q88 6 221 -17.5t226 -37t261 19.5q-51 -94 -75.5 -195.5t-28.5 -170t-6 -245.5q-2 -180 37.5 -423.5t39.5 -511.5zM395 66q104 0 173 196.5t69 446.5q0 221 -67.5 347t-178.5 126q-41 0 -53 -32t-1 -89t28.5 -119.5t34 -144.5t16.5 -144q0 -72 -14.5 -164t-29 -161.5 t-23.5 -132t1 -96t45 -33.5z" glyph-name="q" horiz-adv-x="1003" unicode="q"/><glyph d="M487 0h-428q96 209 97 557q0 369 -115 627q78 51 168 51q156 0 225 -129q90 117 223 117q96 0 161 -49.5t65 -129.5q0 -41 -13.5 -119.5t-13.5 -109.5q0 -72 55 -90q-53 -96 -182 -96q-86 0 -150.5 52t-64.5 144q0 63 37 132t74 119t37 69q0 27 -39 26q-80 0 -145.5 -103 t-65.5 -263q0 -113 50 -298t50 -331q0 -88 -25 -176z" glyph-name="r" horiz-adv-x="923" unicode="r"/><glyph d="M477 -35q-180 0 -283.5 75t-99.5 189q0 25 12.5 78t12.5 88q0 109 -78 117q61 90 184 86q115 -2 194 -81t68 -210q-8 -88 -61 -217q-20 -53 -15 -71.5t33 -18.5q66 0 117 133q47 133 47 256q6 186 -112 236q-49 23 -123 44t-123 35.5t-97.5 42t-73 75.5t-22.5 122 q2 84 39 141.5t104.5 84t136.5 37t159 10.5q195 0 323.5 -71t130.5 -188q0 -47 -20.5 -88t-42 -61.5t-60.5 -50.5q-25 -18 -37 -28.5t-24 -25t-11 -26.5t13 -25q-115 10 -171 65.5t-26 127.5q23 51 39.5 106.5t23.5 106.5t-7.5 85t-51.5 34q-59 0 -97 -101.5t-38 -224.5 q0 -150 109 -203q45 -23 139 -47t156.5 -43.5t114 -78t51.5 -150.5q-3 -365 -533 -365z" glyph-name="s" horiz-adv-x="1050" unicode="s"/><glyph d="M424 -35q-172 0 -268.5 81t-96.5 241q0 133 61.5 422.5t61.5 472.5q0 129 -23.5 205.5t-72.5 152.5h367q18 -106 2.5 -154.5t-45 -122t-29.5 -135.5q0 -152 45 -151q33 0 96 86q115 160 223 160q63 0 106.5 -57.5t43.5 -137.5q0 -111 -74 -184q-86 96 -190 96 q-129 0 -197 -141q-47 -104 -47 -267q0 -215 8 -333.5t25.5 -158.5t46.5 -40q84 0 61 412q-8 147 79 192t278 21q-35 -45 -41 -109.5t2 -251.5q6 -158 -106.5 -228.5t-315.5 -70.5z" glyph-name="t" horiz-adv-x="927" unicode="t"/><glyph d="M907 -37q-94 0 -156.5 61.5t-62.5 174.5q0 51 6 112q-55 -164 -153.5 -255t-227.5 -91q-121 0 -195.5 92.5t-74.5 272.5q0 104 41 294.5t41 303.5q0 127 -68 262l392 -2q53 -106 53 -225q0 -131 -64.5 -382t-64.5 -319q-4 -127 100 -127q51 0 113.5 69.5t107.5 196.5 t37 263q-4 43 -34.5 159.5t-30.5 188.5q0 88 45 172h415q0 -88 -59 -355q-76 -328 -76 -481q0 -215 117 -307q-90 -78 -201 -78z" glyph-name="u" horiz-adv-x="1150" unicode="u"/><glyph d="M442 -31q-430 68 -370 615q16 141 6 234t-28.5 132t-37 99.5t-18.5 134.5h422q18 -143 0.5 -202.5t-50 -189.5t-32.5 -268q0 -141 72.5 -257.5t179.5 -160.5q72 90 51 310q-8 66 -44 206t-57.5 283.5t-9.5 278.5h418q-127 -258 -82 -652q25 -215 -90 -360.5t-330 -202.5z " glyph-name="v" horiz-adv-x="966" unicode="v"/><glyph d="M1223 -31q-236 0 -361 158q-31 -55 -117 -102.5t-194 -51.5q-428 -18 -428 396q0 55 13.5 149t13.5 123q0 88 -54.5 218t-54.5 220q0 47 12 107h418q10 -51 10 -109q0 -86 -50 -221t-52 -264q-4 -221 56.5 -387t172.5 -164q80 4 80 59q0 18 -47 122t-47 184 q-2 70 20.5 126t49 88.5t49 86t22.5 118.5q0 123 -108 359h420q25 -135 24 -211q0 -90 -35 -164t-69.5 -164t-34.5 -217q0 -176 81 -294t161 -118q66 0 65 90q0 68 -63.5 199t-63.5 207q0 78 82 216t82 249q0 100 -47 207h413q12 -74 13 -127q0 -72 -26.5 -130.5 t-63.5 -98.5t-74 -74.5t-63.5 -76.5t-26.5 -89q0 -49 36 -97.5t71.5 -111t35.5 -143.5q0 -131 -88 -199t-233 -68z" glyph-name="w" horiz-adv-x="1695" unicode="w"/><glyph d="M420 0h-387q-10 47 -10 86q0 119 83.5 225.5t186.5 180.5q70 47 69 98q0 33 -38 59q-6 4 -37 20.5t-38 20.5t-30.5 19.5t-32 24.5t-20.5 24.5t-17.5 32t-5.5 36.5q-10 154 -25.5 224.5t-58.5 132.5h260q70 0 95.5 -37t25.5 -133q0 -63 -3 -151.5t-3 -112.5 q0 -129 62 -129q20 0 39.5 35.5t19.5 88.5q0 37 3 127.5t3 139.5q0 55 21.5 93t55.5 53.5t59.5 20.5t52.5 5h165q-31 -39 -43 -82t-14 -82t-2 -148q0 -20 -3 -38.5t-11 -35t-14.5 -27.5t-23 -25.5t-23.5 -21.5t-29.5 -20.5t-29.5 -17.5t-35 -18.5t-32 -16.5q-37 -23 -37 -51 q0 -39 103 -156q66 -78 101.5 -125t75.5 -130t40 -154q0 -23 -2 -35h-418q35 70 35 168q0 35 -6 102.5t-6 98.5q-4 82 -4 106q-2 104 -54 105q-43 0 -57 -31t-18 -103q-6 -47 -7 -112q-6 -172 -6 -178q0 -99 25 -156z" glyph-name="x" horiz-adv-x="960" unicode="x"/><glyph d="M530 -319q-410 0 -409 260q0 78 49 120.5t121 42.5q90 0 162 -63q-33 -68 -33 -141q0 -76 34.5 -127.5t94.5 -51.5q63 0 108 71t63.5 158t18.5 171q0 117 -39 117q-14 0 -110 -44t-189 -44q-215 0 -264 117.5t-6 420.5q12 90 -1 168t-36.5 124t-43 101.5t-17.5 102.5h407 q55 -209 56 -402q0 -84 -9.5 -183t-16.5 -158.5t-6 -114t21.5 -78t67.5 -23.5q63 0 115.5 82t52.5 221q0 170 -51 316q-18 51 -25.5 75.5t-17 70.5t-7 92t12.5 102h387q37 -154 37 -277q0 -115 -32 -207t-69.5 -142t-69.5 -121.5t-32 -147.5q0 -53 23.5 -95t52 -68t52.5 -74 t24 -111q0 -94 -72 -154.5t-173.5 -83t-230.5 -22.5z" glyph-name="y" horiz-adv-x="1079" unicode="y"/><glyph d="M618 -23q-70 0 -209 20.5t-208 20.5q-74 0 -131 -18q-23 233 -23 332q0 145 54.5 194t156.5 56q229 12 297 73q43 37 59.5 109t14.5 201q-8 100 -37 144t-84 42q-80 -2 -80 -201q0 -127 -39 -188.5t-133 -61.5q-156 0 -209 33q49 31 58.5 72t7.5 149q0 131 68.5 198 t238.5 67q63 0 165.5 -21.5t149.5 -21.5q59 0 103 8q43 -33 53 -173.5t-14 -234.5q-12 -59 -47 -97t-65 -52.5t-94.5 -35t-90.5 -32.5q-102 -43 -163 -136t-61 -292v-22q0 -35 1 -48.5t10.5 -23.5t29.5 -10q72 -2 137.5 55t65.5 147q0 29 -11 69t-11 58q0 74 66.5 120 t154.5 46q66 0 123 -28q-25 -12 -33 -59.5t-8 -125.5v-82q-19 -250 -263 -250z" glyph-name="z" horiz-adv-x="944" unicode="z"/><glyph d="M467 -246q-78 0 -132 15.5t-107.5 59.5t-81 136t-27.5 234q0 133 -15.5 289.5t-52.5 175.5q39 18 63.5 189t24.5 294q0 94 14.5 165.5t36 117t58.5 76t69.5 44t84 18.5t86 4t89 -4t82.5 -3v-21q-61 0 -103 -35.5t-79 -156.5t-49 -330q-6 -102 -32.5 -173t-65.5 -102.5 t-76 -46t-74 -22.5t-47 -14q10 -6 49 -7.5t77 -13.5t78 -47t65.5 -128t25.5 -239q-2 -215 68.5 -330.5t162.5 -115.5v-21q-29 0 -94 -4t-98 -4z" glyph-name="braceleft" horiz-adv-x="700" unicode="{"/><glyph d="M98 -135h-57v1710h57v-1710z" glyph-name="bar" horiz-adv-x="143" unicode="|"/><glyph d="M233 -246q-33 0 -98 4t-94 4v21q92 0 162.5 115.5t68.5 330.5q0 145 26 238.5t65.5 128.5t77.5 47t77 13t49 8q-10 6 -47 14t-73.5 22.5t-75.5 46t-65.5 102.5t-33.5 173q-12 209 -49 330t-79 156.5t-103 35.5v21q29 0 83 3t89 4t86 -4t84 -18.5t69.5 -44t58 -76t36 -117 t14.5 -165.5q0 -123 24.5 -294t63.5 -189q-37 -18 -52 -175t-15 -290q0 -141 -28 -233.5t-81 -136.5t-107.5 -59.5t-132.5 -15.5z" glyph-name="braceright" horiz-adv-x="700" unicode="}"/><glyph d="M858 395q-100 0 -329.5 63.5t-309.5 63.5q-139 0 -139 -114h-39q0 156 72.5 263t191.5 107q160 0 384 -63.5t269 -63.5q106 0 93 123h18q39 -72 39 -143q0 -100 -65.5 -168t-184.5 -68z" glyph-name="asciitilde" horiz-adv-x="1148" unicode="~"/><glyph d="M281 1458q92 0 143 -59.5t51 -139t-51 -136t-143 -56.5q-90 0 -140.5 58.5t-50.5 136t50.5 137t140.5 59.5zM221 1010h76q43 -121 47 -312q2 -92 30.5 -174t62.5 -134t61.5 -129t27.5 -161q0 -127 -75.5 -196.5t-178.5 -69.5q-98 0 -162.5 93t-41.5 261q16 133 96 339 t78 327q-1 74 -21 156z" glyph-name="exclamdown" horiz-adv-x="577" unicode="¡"/><glyph d="M877 489q129 0 186 -73q-72 -18 -72 -137q0 -70 -16.5 -120t-60.5 -98.5t-136 -73t-231 -24.5l-23 -211h-20l22 211q-207 8 -333.5 174t-129.5 424q-2 360 143.5 509t420.5 149h37l28 254h21l-29 -256q86 -4 145.5 -27t89 -47.5t46 -70.5t19.5 -72.5t5 -79.5 q0 -37 3 -59.5t11.5 -48.5t26 -40t43.5 -20q-35 -72 -100.5 -110t-136.5 -38q-76 0 -108 45t-32 139q0 61 11.5 126t21.5 104t15.5 72.5t-5 48t-43.5 14.5q-12 0 -18 -2l-125 -1141q4 -2 14 -2q39 0 75 60.5t50 142.5q6 20 15.5 59t13.5 53.5t12 43t14.5 40t15.5 30 t19.5 24.5l24.5 14t32 11t38 3zM438 455q0 -381 94 -437l125 1129q-106 -37 -162.5 -238.5t-56.5 -453.5z" glyph-name="cent" horiz-adv-x="1120" unicode="¢"/><glyph d="M713 0h-617q6 14 33 73.5t35 91.5t18.5 124t10.5 223v74h-152v57h152v469q0 369 389 369q102 0 164.5 -38t82 -93.5t28.5 -110.5t23.5 -99t47.5 -53q-20 -76 -99 -96t-149 22t-70 117q0 307 -57 308q-70 0 -70 -371v-424h330v-57h-330v-105q0 -143 -54 -268t-138 -154 q84 0 158.5 13.5t155.5 46.5t141.5 101.5t87.5 166.5q78 -76 98 -166t-36 -155.5t-183 -65.5z" glyph-name="sterling" horiz-adv-x="987" unicode="£"/><glyph d="M190 350l-110 -123l-35 29l113 127q-106 113 -107 272q0 158 105 273l-111 125l35 28l108 -120q119 102 273 102q162 0 276 -109l115 127l35 -28l-117 -131q98 -111 98 -267q0 -150 -98 -268l117 -131l-35 -29l-115 127q-119 -109 -276 -108q-156 0 -271 104zM461 354 q125 0 213 88t88 213t-88 213t-213 88t-213 -88t-88 -213t88 -213t213 -88z" glyph-name="currency" horiz-adv-x="931" unicode="¤"/><glyph d="M995 1397q-68 -27 -67 -166q0 -53 13 -185.5t13 -195.5q0 -244 -233 -252q-104 -6 -139 -49l-11 -12h285v-56h-303q-4 -25 -4 -41h307v-57h-299q12 -37 87 -161t97 -222h-530q0 201 125 383h-211v57h252q4 6 15 20.5t16 20.5h-283v56h317q4 16 4 22q0 45 -90 45 q-27 2 -85 0t-81 -2q-150 6 -149 193q0 57 11 126.5t32.5 171t32.5 158.5q14 63 1.5 99t-59.5 36q59 82 195 82q90 0 155.5 -47t65.5 -135q0 -147 -48 -318t-48 -200q0 -156 145 -156q68 0 105 54.5t37 109.5q0 61 -35 244.5t-35 271.5q0 84 68.5 130t156.5 46 q108 1 174 -71z" glyph-name="yen" horiz-adv-x="1036" unicode="¥"/><glyph d="M98 872h-57v703h57v-703zM98 -127h-57v700h57v-700z" glyph-name="brokenbar" horiz-adv-x="143" unicode="¦"/><glyph d="M489 -35q-156 0 -252 59.5t-96 190.5q0 100 -39 115q74 23 158 22q92 0 149.5 -32.5t57.5 -98.5q0 -219 63 -219q49 0 80 60.5t31 183.5q0 51 -19.5 86t-61.5 57.5t-76.5 34.5t-100.5 27.5t-96 25.5q-119 35 -179.5 104.5t-60.5 190.5q0 20 4 39.5t8 35t13.5 31 t15.5 25.5t18.5 22.5l17.5 17.5t17.5 16.5t14.5 13.5q-74 74 -74 186q0 150 123 230.5t284 80.5q88 0 145.5 -35.5t79 -78.5t54.5 -79t78 -36q0 -66 -52.5 -104.5t-123.5 -38.5q-63 0 -109.5 33.5t-48.5 97.5q-2 29 9 73t11 54q0 39 -28.5 61.5t-67.5 22.5q-45 0 -76.5 -27 t-31.5 -82q0 -109 59 -167t144 -82.5t170 -52.5t144.5 -103.5t59.5 -208.5q0 -115 -74 -195q23 -27 33 -68.5t11.5 -71.5t1.5 -106q0 -160 -107 -235.5t-281 -75.5zM788 565q16 84 -10 133.5t-90.5 72t-137.5 36.5t-170 44t-169 77q-25 -39 -25 -94q0 -74 66.5 -110t155 -43 t200.5 -35t180 -81z" glyph-name="section" horiz-adv-x="946" unicode="§"/><glyph d="M774.5 -16q-315.5 0 -522.5 213t-207 522t207 522t522.5 213t522 -213t206.5 -522t-206.5 -522t-522 -213zM774 41q293 0 482.5 196.5t189.5 481.5t-189.5 481.5t-482.5 196.5t-482.5 -196.5t-189.5 -481.5t189.5 -481.5t482.5 -196.5zM780 285q-158 0 -261 116.5 t-105 303.5q-2 252 103.5 362.5t299.5 110.5q61 0 106.5 -8.5t73 -28t44 -34.5t23.5 -47t8 -47.5t3 -49.5q2 -37 5 -57.5t16.5 -40t40.5 -23.5q-49 -100 -166 -101q-61 0 -103.5 34t-44.5 93q-2 86 70 215q33 57 14 66q-6 2 -16 2q-76 0 -131 -132t-53 -343q6 -371 100 -371 q43 0 24 150q-14 100 36.5 149t129.5 49q92 0 133 -51q-55 -12 -55 -100q0 -51 -8 -84t-35.5 -67t-90.5 -50t-161 -16z" glyph-name="copyright" horiz-adv-x="1548" unicode="©"/><glyph d="M184 766q-72 0 -115.5 47t-43.5 115q0 43 14 72.5t49 51t56.5 31t72.5 27.5q72 27 108.5 56.5t36.5 86.5q0 53 -31.5 118t-66.5 67q-16 6 -22 -13q-4 -14 24.5 -66t28.5 -95q2 -53 -41 -85t-100 -32q-47 0 -80 22q23 8 22 48q0 18 -7 56t-7 50q-2 51 70.5 99t212.5 48 q94 0 154.5 -34.5t60.5 -108.5q0 -59 -44 -98t-124 -76q-8 -4 -33 -15.5t-34 -15.5t-28.5 -14t-27.5 -16.5t-18.5 -16.5t-14.5 -20.5t-4 -20.5q0 -23 15.5 -38t37.5 -15q33 0 62 37q18 18 42.5 58t46 65.5t44.5 25.5q59 0 86.5 -100t40.5 -281h-283q47 51 99.5 163t52.5 159 q0 18 -11 18q-14 0 -37.5 -56t-49 -123.5t-82 -124t-132.5 -56.5z" glyph-name="ordfeminine" horiz-adv-x="675" unicode="ª"/><glyph d="M717 336v-205q-72 57 -172.5 94t-183 57.5t-158.5 50t-119 94.5t-43 169t43 173t120 106.5t157.5 64.5t183 67t172.5 91v-187q0 -61 -49.5 -103t-122 -59.5t-157.5 -33t-158.5 -24.5t-123 -33.5t-49.5 -61.5q0 -47 103.5 -67.5t226.5 -25.5t226.5 -46t103.5 -121z M1475 336v-205q-72 57 -172.5 94t-183.5 57.5t-158.5 50t-118.5 94.5t-43 169t43 173t119.5 106.5t157.5 64.5t183.5 67t172.5 91v-187q0 -61 -49.5 -103t-122 -59.5t-157.5 -33t-159 -24.5t-123 -33.5t-49 -61.5q0 -47 103.5 -67.5t226.5 -25.5t226.5 -46t103.5 -121z" glyph-name="guillemotleft" horiz-adv-x="1515" unicode="«"/><glyph d="M492 610h-451v62h451v-62z" glyph-name="uni00AD" horiz-adv-x="532" unicode="­"/><glyph d="M506 528q-199 0 -331 135.5t-132 327.5q0 195 132 330t331 135q201 0 333 -135t132 -330q0 -193 -132 -328t-333 -135zM506 578q178 -2 298 119.5t118 293.5q0 172 -119 294t-297 122q-176 0 -295 -122t-119 -294t119 -292.5t295 -120.5zM479 741h-162q-14 35 -14 68 q0 47 39 112.5t39 98.5q0 35 -43 90t-43 117q0 8 4 28q35 -14 66 -14q25 0 73.5 13.5t87.5 13.5q88 0 131 -40t43 -93q0 -49 -43 -87t-104 -51q94 0 109 -63q2 -10 5 -82t25 -111h-164q0 20 8.5 64.5t8.5 66t-13 66.5q-23 51 -57.5 51t-34.5 -80q0 -82 39 -168zM489 1010 q31 -2 61 36.5t30 98.5q0 53 -18.5 81.5t-43.5 28.5q-18 0 -30.5 -15t-12.5 -40q6 -72 -8 -119q-8 -33 -2 -52t24 -19z" glyph-name="registered" horiz-adv-x="1013" unicode="®"/><glyph d="M295 979q-102 0 -178 66.5t-76 183.5t76 182.5t178 65.5t178 -65.5t76 -182.5t-76 -183.5t-178 -66.5zM293 1010q90 0 156.5 58t66.5 160.5t-66.5 160t-154.5 57.5t-154.5 -57.5t-66.5 -159.5q0 -104 65.5 -161.5t153.5 -57.5z" glyph-name="degree" horiz-adv-x="589" unicode="°"/><glyph d="M446 1010v-346h347v-58h-347v-348h-57v348h-348v58h348v346h57zM793 2h-752v57h752v-57z" glyph-name="plusminus" horiz-adv-x="833" unicode="±"/><glyph d="M309 700q-37 0 -121 8.5t-147 8.5q29 92 39 211t22.5 171t53.5 52q31 0 79 -16.5t64 -16.5q53 -6 53 137q0 72 -15 126.5t-46 54.5q-12 0 -19.5 -2t-11.5 -9.5t-5 -14.5t1 -19.5t4 -24.5t6 -31.5t6 -36.5q6 -47 -14 -76.5t-55 -36.5t-66 -6t-59 9q12 29 12 40t-11 40.5 t-13 40.5q-14 66 47 104.5t161 38.5q125 0 185.5 -47t60.5 -152q0 -72 -35.5 -124t-101.5 -52q-23 0 -61.5 6.5t-57.5 3.5q-43 -2 -50 -90t18.5 -178t60.5 -96q23 -4 36 21.5t13 66.5q0 29 -10 72t-10 57q0 33 19 51.5t58 21.5t62.5 2t66.5 -5q-37 -41 -18 -144 q14 -76 -39 -121t-162 -45z" glyph-name="uni00B2" horiz-adv-x="577" unicode="²"/><glyph d="M285 702q-20 0 -69.5 12.5t-80.5 16.5t-74 -12q-10 57 -10 88q0 143 127 115q14 -86 41 -136.5t49 -50.5q59 0 60 203q0 123 -103 127l-4 39l21 6q23 8 28.5 12t22 16.5t23 28t12.5 43t6 62.5q0 162 -53 162q-12 0 -16.5 -32t-18 -77t-47.5 -68q-49 -31 -131 -20 q41 76 24 201q23 2 55.5 8t59 8t65.5 2q127 0 174.5 -39t47.5 -145q0 -29 -4.5 -53.5t-9.5 -41t-17 -30.5t-19.5 -21.5t-27 -15.5t-27.5 -11t-31.5 -10.5t-29.5 -9.5q12 -2 48 -9t45 -10t31.5 -15.5t27.5 -28t12.5 -42t7.5 -65.5q0 -113 -50 -160t-165 -47z" glyph-name="uni00B3" horiz-adv-x="536" unicode="³"/><glyph d="M496 -184h-58v956q-201 0 -299 99.5t-98 240.5q0 135 108.5 231.5t301.5 96.5h251v-1624h-57v1566h-149v-1566z" glyph-name="paragraph" horiz-adv-x="743" unicode="¶"/><glyph d="M223 457q-78 0 -130 53t-52 131q0 80 52 133t130 53q82 0 135.5 -52t53.5 -134q0 -78 -53.5 -131t-135.5 -53z" glyph-name="periodcentered" horiz-adv-x="452" unicode="·"/><glyph d="M311 717h-235q78 174 78 401q0 78 -35 113t-78 35v55q106 33 188 115h52q-37 -82 -40 -167t14 -153.5t36.5 -181.5t19.5 -217z" glyph-name="uni00B9" horiz-adv-x="358" unicode="¹"/><glyph d="M311 766q-145 0 -208.5 49t-63.5 123q0 37 21.5 109.5t21.5 105.5q0 43 -16.5 86t-16.5 78q0 76 80 117t193 41q102 0 172.5 -36t70.5 -100q0 -43 -28.5 -86t-28.5 -73q0 -37 40 -103.5t40 -109.5q0 -98 -75 -149.5t-202 -51.5zM313 791q78 0 78 77q0 35 -22.5 136.5 t-22.5 152.5q0 37 17.5 121t17.5 113q0 66 -59 65q-66 0 -66 -98q0 -25 6 -93.5t4 -107.5q-2 -49 -18.5 -145.5t-16.5 -130.5q0 -90 82 -90z" glyph-name="ordmasculine" horiz-adv-x="743" unicode="º"/><glyph d="M41 131v205q0 80 103.5 121t226.5 46t226 25.5t103 67.5q0 37 -49 61.5t-122.5 33.5t-158.5 24.5t-158 33t-122 59.5t-49 103v187q70 -51 172 -91t183 -67t158 -64.5t120 -106.5t43 -173t-43 -169t-119 -94.5t-159 -50t-183 -57.5t-172 -94zM799 131v205q0 80 103.5 121 t226 46t226 25.5t103.5 67.5q0 37 -49 61.5t-123 33.5t-159 24.5t-157.5 33t-121.5 59.5t-49 103v187q70 -51 172 -91t183 -67t158 -64.5t120 -106.5t43 -173t-43 -169t-119 -94.5t-159 -50t-183 -57.5t-172 -94z" glyph-name="guillemotright" horiz-adv-x="1515" unicode="»"/><glyph d="M119 0h-58l848 1438h58zM311 717h-235q78 174 78 401q0 78 -35 113t-78 35v55q106 33 188 115h52q-37 -82 -40 -167t14 -153.5t36.5 -181.5t19.5 -217zM858 -4q-20 0 -69.5 13.5t-80 17.5t-73.5 -13q-10 57 -10 88q0 143 127 115q14 -86 40.5 -136t49.5 -50q59 0 59 202 q0 123 -102 127l-4 39l20 7q23 8 29 12t22.5 16t22.5 27.5t12 43t6 62.5q0 162 -53 162q-12 0 -16 -31.5t-17.5 -77t-48.5 -67.5q-49 -31 -131 -21q41 76 25 201q23 2 55.5 8.5t59 8.5t65.5 2q127 0 174 -39t47 -146q0 -29 -4 -53.5t-9 -40.5t-17.5 -30.5t-19.5 -21.5 t-26.5 -15.5t-28 -11.5t-32 -10t-29.5 -9q12 -2 48 -9.5t45.5 -10.5t32 -15t27.5 -27.5t12 -42t7 -65.5q0 -113 -50 -161t-165 -48z" glyph-name="onequarter" horiz-adv-x="1110" unicode="¼"/><glyph d="M133 0h-57l848 1438h57zM311 717h-235q78 174 78 401q0 78 -35 113t-78 35v55q106 33 188 115h52q-37 -82 -40 -167t14 -153.5t36.5 -181.5t19.5 -217zM852 -16q-37 0 -121 9t-147 9q29 92 39 211t22 171t53 52q31 0 79 -16.5t65 -16.5q53 -6 53 138q0 72 -15.5 126 t-45.5 54q-12 0 -19.5 -2t-11.5 -9.5t-5 -14.5t1 -19t4 -24.5t6 -32t6 -35.5q6 -47 -14.5 -77t-55 -37t-65.5 -6t-59 9q12 29 12 40t-11.5 41t-13.5 40q-14 66 47.5 104.5t161.5 38.5q125 0 185.5 -47t60.5 -151q0 -72 -36 -124.5t-101 -52.5q-23 0 -62 6.5t-57 4.5 q-43 -2 -50 -90t18.5 -178.5t60.5 -96.5q49 -8 49 88q0 29 -10.5 72t-10.5 57q0 33 19.5 51.5t58.5 21.5t62.5 2t66.5 -5q-37 -41 -18 -143q14 -76 -40.5 -122t-160.5 -46z" glyph-name="onehalf" horiz-adv-x="1120" unicode="½"/><glyph d="M285 754q-20 0 -69.5 12t-80.5 16t-74 -12q-10 57 -10 88q0 143 127 115q14 -86 41 -136.5t49 -50.5q59 0 60 203q0 123 -103 127l-4 39l21 8q23 6 28.5 10.5t22 16.5t23 27.5t12.5 43t6 62.5q0 162 -53 162q-12 0 -16.5 -32t-18 -77t-47.5 -67q-49 -31 -131 -21 q41 76 24 201q23 2 55.5 8t59 8t65.5 2q127 0 174.5 -38.5t47.5 -145.5q0 -29 -4.5 -53.5t-9.5 -41t-17 -30.5t-19.5 -21.5t-27 -15.5t-27.5 -11t-31.5 -10t-29.5 -10q12 -2 48 -9t45 -10t31.5 -15.5t27.5 -27.5t12.5 -42t7.5 -65q0 -113 -50 -160t-165 -47zM195 0h-58 l848 1438h57zM1102 0h-236q47 102 68 223h-275q72 82 140.5 236.5t87.5 259.5h188q-12 -31 -21.5 -61.5t-14.5 -53t-5 -57.5v-52.5t6.5 -58.5t8.5 -54t12 -60.5t12 -59.5q74 18 111 125l26 -164h-129q21 -131 21 -223zM920 256h18q8 63 8 137q0 16 10 164q-8 -27 -71 -225 q-16 -53 -11 -64.5t46 -11.5z" glyph-name="threequarters" horiz-adv-x="1255" unicode="¾"/><glyph d="M621 1473q76 0 129 -52.5t53 -130.5q0 -82 -52.5 -135t-129.5 -53q-82 0 -135.5 53t-53.5 135q0 78 53.5 130.5t135.5 52.5zM596 993h88v-254q0 -74 -22.5 -125t-56.5 -77.5t-72.5 -60.5t-72.5 -71.5t-56.5 -114.5t-22.5 -186q0 -211 70 -210q39 0 74.5 89t35.5 216 q20 51 67.5 81.5t102.5 30.5q70 0 118 -49t48 -143q0 -121 -126 -203t-294 -82q-92 0 -158.5 17.5t-129 62.5t-95.5 139t-33 234q0 115 55.5 197.5t134.5 125.5t156.5 76t133 70t55.5 84v153z" glyph-name="questiondown" horiz-adv-x="954" unicode="¿"/><glyph d="M883 1538l-19 -10q-20 68 -88.5 113t-143.5 66.5t-163 67.5t-139 111l229 187q4 -49 56.5 -109.5t112.5 -113t109.5 -136.5t45.5 -176zM449 0h-418q-8 66 -8 131q0 111 37.5 220.5t81.5 185t82 178t38 200.5q0 72 -21.5 133.5t-47 101.5t-47 116.5t-21.5 175.5 q68 -16 127 -17q57 0 196.5 26t213.5 26q178 0 312 -112t111 -302q-10 -80 -24 -187.5t-22.5 -167t-14.5 -137t-6 -151.5q0 -178 84 -420h-418q-47 188 -47 385q0 18 3 76.5t3 85.5q-2 84 -74 84q-63 0 -88 -74q-80 -223 -80 -340q1 -108 48 -217zM602 686q57 0 74 74 q4 23 15 79t15.5 81.5t12.5 74.5t12 82t7 75t3 81q0 88 -34.5 140t-81.5 57q-49 4 -83 -28t-34 -97q0 -78 29.5 -176.5t29.5 -149.5q0 -109 -28 -227q-6 -29 13 -47.5t50 -18.5z" glyph-name="Agrave" horiz-adv-x="1126" unicode="À"/><glyph d="M426 1528l-18 10q-4 92 45 176t109.5 136.5t112.5 112.5t56 110l230 -187q-51 -66 -139.5 -111.5t-163 -67t-143.5 -66.5t-89 -113zM449 0h-418q-8 66 -8 131q0 111 37.5 220.5t81.5 185t82 178t38 200.5q0 72 -21.5 133.5t-47 101.5t-47 116.5t-21.5 175.5 q68 -16 127 -17q57 0 196.5 26t213.5 26q178 0 312 -112t111 -302q-10 -80 -24 -187.5t-22.5 -167t-14.5 -137t-6 -151.5q0 -178 84 -420h-418q-47 188 -47 385q0 18 3 76.5t3 85.5q-2 84 -74 84q-63 0 -88 -74q-80 -223 -80 -340q1 -108 48 -217zM602 686q57 0 74 74 q4 23 15 79t15.5 81.5t12.5 74.5t12 82t7 75t3 81q0 88 -34.5 140t-81.5 57q-49 4 -83 -28t-34 -97q0 -78 29.5 -176.5t29.5 -149.5q0 -109 -28 -227q-6 -29 13 -47.5t50 -18.5z" glyph-name="Aacute" horiz-adv-x="1126" unicode="Á"/><glyph d="M473 1546l-237 137q61 76 144 125.5t140.5 93.5t85.5 130h19q23 -63 65.5 -106.5t85.5 -65t106.5 -67.5t114.5 -110l-237 -129q2 74 -62.5 196t-81.5 202q-16 -84 -79.5 -206t-63.5 -200zM449 0h-418q-8 66 -8 131q0 111 37.5 220.5t81.5 185t82 178t38 200.5 q0 72 -21.5 133.5t-47 101.5t-47 116.5t-21.5 175.5q68 -16 127 -17q57 0 196.5 26t213.5 26q178 0 312 -112t111 -302q-10 -80 -24 -187.5t-22.5 -167t-14.5 -137t-6 -151.5q0 -178 84 -420h-418q-47 188 -47 385q0 18 3 76.5t3 85.5q-2 84 -74 84q-63 0 -88 -74 q-80 -223 -80 -340q1 -108 48 -217zM602 686q57 0 74 74q4 23 15 79t15.5 81.5t12.5 74.5t12 82t7 75t3 81q0 88 -34.5 140t-81.5 57q-49 4 -83 -28t-34 -97q0 -78 29.5 -176.5t29.5 -149.5q0 -109 -28 -227q-6 -29 13 -47.5t50 -18.5z" glyph-name="Acircumflex" horiz-adv-x="1126" unicode="Â"/><glyph d="M786 1645q-61 0 -168.5 75.5t-171.5 81.5q-94 14 -94 -69h-45q-2 111 47 178t140 61q61 -4 169.5 -69.5t143.5 -71.5q39 -6 55.5 9t16.5 38h45q-1 -233 -138 -233zM449 0h-418q-8 66 -8 131q0 111 37.5 220.5t81.5 185t82 178t38 200.5q0 72 -21.5 133.5t-47 101.5 t-47 116.5t-21.5 175.5q68 -16 127 -17q57 0 196.5 26t213.5 26q178 0 312 -112t111 -302q-10 -80 -24 -187.5t-22.5 -167t-14.5 -137t-6 -151.5q0 -178 84 -420h-418q-47 188 -47 385q0 18 3 76.5t3 85.5q-2 84 -74 84q-63 0 -88 -74q-80 -223 -80 -340q1 -108 48 -217z M602 686q57 0 74 74q4 23 15 79t15.5 81.5t12.5 74.5t12 82t7 75t3 81q0 88 -34.5 140t-81.5 57q-49 4 -83 -28t-34 -97q0 -78 29.5 -176.5t29.5 -149.5q0 -109 -28 -227q-6 -29 13 -47.5t50 -18.5z" glyph-name="Atilde" horiz-adv-x="1126" unicode="Ã"/><glyph d="M449 1577q-66 0 -110 42t-44 105q0 68 44 111t110 43q61 0 103 -43t42 -111q0 -63 -42 -105t-103 -42zM798.5 1577q-63.5 0 -108.5 43t-45 104q0 66 45 110t108.5 44t104.5 -43t41 -111q0 -63 -41 -105t-104.5 -42zM449 0h-418q-8 66 -8 131q0 111 37.5 220.5t81.5 185 t82 178t38 200.5q0 72 -21.5 133.5t-47 101.5t-47 116.5t-21.5 175.5q68 -16 127 -17q57 0 196.5 26t213.5 26q178 0 312 -112t111 -302q-10 -80 -24 -187.5t-22.5 -167t-14.5 -137t-6 -151.5q0 -178 84 -420h-418q-47 188 -47 385q0 18 3 76.5t3 85.5q-2 84 -74 84 q-63 0 -88 -74q-80 -223 -80 -340q1 -108 48 -217zM602 686q57 0 74 74q4 23 15 79t15.5 81.5t12.5 74.5t12 82t7 75t3 81q0 88 -34.5 140t-81.5 57q-49 4 -83 -28t-34 -97q0 -78 29.5 -176.5t29.5 -149.5q0 -109 -28 -227q-6 -29 13 -47.5t50 -18.5z" glyph-name="Adieresis" horiz-adv-x="1126" unicode="Ä"/><glyph d="M616.5 1608q-112.5 0 -150.5 17t-38 52q0 14 7 49t7 57.5t-7 57.5t-7 49q0 35 38 52.5t150.5 17.5t150.5 -17.5t38 -52.5q0 -14 -7 -49t-7 -57.5t7 -57t7 -49.5q0 -35 -38 -52t-150.5 -17zM616.5 1622q49.5 0 49.5 162q0 156 -48 155q-51 0 -51 -155q0 -162 49.5 -162z M449 0h-418q-8 66 -8 131q0 111 37.5 220.5t81.5 185t82 178t38 200.5q0 72 -21.5 133.5t-47 101.5t-47 116.5t-21.5 175.5q68 -16 127 -17q57 0 196.5 26t213.5 26q178 0 312 -112t111 -302q-10 -80 -24 -187.5t-22.5 -167t-14.5 -137t-6 -151.5q0 -178 84 -420h-418 q-47 188 -47 385q0 18 3 76.5t3 85.5q-2 84 -74 84q-63 0 -88 -74q-80 -223 -80 -340q1 -108 48 -217zM602 686q57 0 74 74q4 23 15 79t15.5 81.5t12.5 74.5t12 82t7 75t3 81q0 88 -34.5 140t-81.5 57q-49 4 -83 -28t-34 -97q0 -78 29.5 -176.5t29.5 -149.5q0 -109 -28 -227 q-6 -29 13 -47.5t50 -18.5z" glyph-name="Aring" horiz-adv-x="1126" unicode="Å"/><glyph d="M1194 -14q-61 0 -117.5 7t-140.5 30.5t-144.5 83t-78.5 149.5q-14 104 -12.5 148.5t17 121t17.5 95.5h-229q-6 -20 -26.5 -79t-29 -86.5t-20.5 -73.5t-17 -86t-5 -79q0 -109 47 -217h-424q-8 66 -8 131q0 111 37.5 220.5t81.5 185t82 178t38 200.5q0 72 -21.5 133.5 t-47 101.5t-47 116.5t-21.5 175.5q74 -16 131 -17q53 0 148.5 26t195.5 26q78 0 145.5 -37t96.5 -99q156 133 422 134q164 0 263 -54.5t99 -152.5q0 -25 -11 -78t-11 -80q0 -41 14 -62.5t45 -13.5q-59 -162 -195 -162q-74 0 -126 56.5t-52 148.5q0 27 37 180q29 70 28 125.5 t-55 55.5q-100 0 -149 -158q-53 -176 -53 -530h293v-29h-293q4 -698 188 -698q63 0 64 63q0 31 -52 197q-51 137 6.5 229t159.5 92q139 0 199 -162q-45 12 -56.5 -42t7.5 -113q6 -43 8 -86t-24.5 -82t-70.5 -69t-130 -47t-203 -17zM516 649h221q35 131 35 443 q0 154 -37 243.5t-106 89.5q-35 0 -58.5 -34.5t-23.5 -102.5q0 -72 14 -165t14 -142q0 -146 -59 -332z" glyph-name="AE" horiz-adv-x="1703" unicode="Æ"/><glyph d="M756 547q96 0 237 -78q-29 -20 -42 -68.5t-15 -102.5t-20.5 -114.5t-52.5 -108.5t-116.5 -80t-207.5 -32q-35 0 -52 2l-36 -61q59 10 122 10q102 0 152.5 -36t50.5 -87q0 -66 -76.5 -108.5t-175 -74.5t-123.5 -57l-65 121q182 63 182 129q0 57 -182 47l104 121 q-225 31 -329.5 193t-90.5 432q20 451 146.5 665t421.5 214q139 0 232 -81t93 -200q0 -31 -1 -82t-1 -66q0 -61 8.5 -87.5t34.5 -38.5q-57 -102 -176 -103q-76 0 -131 54.5t-55 152.5q0 43 21.5 165t21.5 156q0 94 -49 95q-72 0 -143.5 -339t-71.5 -530q0 -221 59 -395 t123 -174q59 0 59 139q0 23 -4 86.5t-2 98.5q0 223 150 223z" glyph-name="Ccedilla" horiz-adv-x="1015" unicode="Ç"/><glyph d="M784 1544l-18 -10q-20 68 -89 113t-143.5 66.5t-162.5 67.5t-140 111l230 187q4 -49 56 -109.5t112.5 -113t109.5 -136.5t45 -176zM520 -35q-63 0 -127.5 10.5t-152.5 41t-143.5 104.5t-55.5 182q0 78 58.5 207t58.5 219q0 94 -58.5 221t-58.5 205q0 315 475 315 q242 0 337 -51t95 -153q0 -25 -11 -77t-11 -79q0 -41 14 -62.5t45 -13.5q-29 -76 -80 -114.5t-110 -38.5q-72 0 -124.5 54t-52.5 142q0 61 34 159.5t34 143.5q0 57 -61 58q-123 0 -174 -240q-27 -154 -27 -258q0 -88 26.5 -136t86.5 -36q25 6 96.5 31.5t105.5 25.5 q41 0 69 -23.5t28 -58.5q0 -47 -45 -69q-76 72 -185 61q-90 -8 -141 -74.5t-53 -175.5q-2 -156 51 -308t123 -161q55 -12 73 60q14 51 -19.5 157.5t-35.5 157.5q0 92 53.5 151.5t128.5 61.5q61 2 114.5 -38t82.5 -117q-45 10 -55 -46.5t6 -115.5q6 -43 8 -87t-24.5 -86 t-69.5 -75t-128 -53.5t-200 -20.5z" glyph-name="Egrave" horiz-adv-x="1026" unicode="È"/><glyph d="M328 1534l-19 10q-4 92 45 176t109.5 136.5t113 113t56.5 109.5l229 -187q-51 -66 -139 -111.5t-163 -67t-143.5 -66.5t-88.5 -113zM520 -35q-63 0 -127.5 10.5t-152.5 41t-143.5 104.5t-55.5 182q0 78 58.5 207t58.5 219q0 94 -58.5 221t-58.5 205q0 315 475 315 q242 0 337 -51t95 -153q0 -25 -11 -77t-11 -79q0 -41 14 -62.5t45 -13.5q-29 -76 -80 -114.5t-110 -38.5q-72 0 -124.5 54t-52.5 142q0 61 34 159.5t34 143.5q0 57 -61 58q-123 0 -174 -240q-27 -154 -27 -258q0 -88 26.5 -136t86.5 -36q25 6 96.5 31.5t105.5 25.5 q41 0 69 -23.5t28 -58.5q0 -47 -45 -69q-76 72 -185 61q-90 -8 -141 -74.5t-53 -175.5q-2 -156 51 -308t123 -161q55 -12 73 60q14 51 -19.5 157.5t-35.5 157.5q0 92 53.5 151.5t128.5 61.5q61 2 114.5 -38t82.5 -117q-45 10 -55 -46.5t6 -115.5q6 -43 8 -87t-24.5 -86 t-69.5 -75t-128 -53.5t-200 -20.5z" glyph-name="Eacute" horiz-adv-x="1026" unicode="É"/><glyph d="M375 1552l-238 138q61 76 144.5 125t140.5 93t86 130h18q23 -63 66 -106.5t86 -65t106.5 -67.5t114.5 -109l-237 -129q2 74 -62.5 195.5t-81.5 201.5q-16 -84 -79.5 -206t-63.5 -200zM520 -35q-63 0 -127.5 10.5t-152.5 41t-143.5 104.5t-55.5 182q0 78 58.5 207 t58.5 219q0 94 -58.5 221t-58.5 205q0 315 475 315q242 0 337 -51t95 -153q0 -25 -11 -77t-11 -79q0 -41 14 -62.5t45 -13.5q-29 -76 -80 -114.5t-110 -38.5q-72 0 -124.5 54t-52.5 142q0 61 34 159.5t34 143.5q0 57 -61 58q-123 0 -174 -240q-27 -154 -27 -258 q0 -88 26.5 -136t86.5 -36q25 6 96.5 31.5t105.5 25.5q41 0 69 -23.5t28 -58.5q0 -47 -45 -69q-76 72 -185 61q-90 -8 -141 -74.5t-53 -175.5q-2 -156 51 -308t123 -161q55 -12 73 60q14 51 -19.5 157.5t-35.5 157.5q0 92 53.5 151.5t128.5 61.5q61 2 114.5 -38t82.5 -117 q-45 10 -55 -46.5t6 -115.5q6 -43 8 -87t-24.5 -86t-69.5 -75t-128 -53.5t-200 -20.5z" glyph-name="Ecircumflex" horiz-adv-x="1026" unicode="Ê"/><glyph d="M350 1583q-66 0 -109.5 42t-43.5 106q0 68 44 110.5t109 42.5q61 0 103.5 -43t42.5 -110q0 -63 -42.5 -105.5t-103.5 -42.5zM700.5 1583q-63.5 0 -108.5 43t-45 105q0 66 45 109.5t108.5 43.5t104.5 -43t41 -110q0 -63 -41 -105.5t-104.5 -42.5zM520 -35 q-63 0 -127.5 10.5t-152.5 41t-143.5 104.5t-55.5 182q0 78 58.5 207t58.5 219q0 94 -58.5 221t-58.5 205q0 315 475 315q242 0 337 -51t95 -153q0 -25 -11 -77t-11 -79q0 -41 14 -62.5t45 -13.5q-29 -76 -80 -114.5t-110 -38.5q-72 0 -124.5 54t-52.5 142q0 61 34 159.5 t34 143.5q0 57 -61 58q-123 0 -174 -240q-27 -154 -27 -258q0 -88 26.5 -136t86.5 -36q25 6 96.5 31.5t105.5 25.5q41 0 69 -23.5t28 -58.5q0 -47 -45 -69q-76 72 -185 61q-90 -8 -141 -74.5t-53 -175.5q-2 -156 51 -308t123 -161q55 -12 73 60q14 51 -19.5 157.5 t-35.5 157.5q0 92 53.5 151.5t128.5 61.5q61 2 114.5 -38t82.5 -117q-45 10 -55 -46.5t6 -115.5q6 -43 8 -87t-24.5 -86t-69.5 -75t-128 -53.5t-200 -20.5z" glyph-name="Edieresis" horiz-adv-x="1026" unicode="Ë"/><glyph d="M535 1544l-19 -10q-20 68 -89 113t-143.5 66.5t-162.5 67.5t-139 111l229 187q4 -49 56 -109.5t112.5 -113t110 -136.5t45.5 -176zM510 0h-465q-4 41 -4 57q0 90 104.5 292t104.5 300q0 86 -57 158q-94 117 -133.5 232.5t-36 194.5t25.5 204h449q-145 -236 -146 -420 q0 -123 68 -211q74 -98 74 -305q0 -49 -7.5 -169t-3.5 -198t27 -135z" glyph-name="Igrave" horiz-adv-x="536" unicode="Ì"/><glyph d="M78 1534l-19 10q-4 92 45.5 176t109.5 136.5t112.5 113t56.5 109.5l229 -187q-51 -66 -139 -111.5t-162.5 -67t-143.5 -66.5t-89 -113zM510 0h-465q-4 41 -4 57q0 90 104.5 292t104.5 300q0 86 -57 158q-94 117 -133.5 232.5t-36 194.5t25.5 204h449q-145 -236 -146 -420 q0 -123 68 -211q74 -98 74 -305q0 -49 -7.5 -169t-3.5 -198t27 -135z" glyph-name="Iacute" horiz-adv-x="536" unicode="Í"/><glyph d="M125 1552l-238 138q61 76 144.5 125t140.5 93t86 130h18q23 -63 66 -106.5t86 -65t106.5 -67.5t114.5 -109l-237 -129q2 74 -62.5 195.5t-81.5 201.5q-16 -84 -79.5 -206t-63.5 -200zM510 0h-465q-4 41 -4 57q0 90 104.5 292t104.5 300q0 86 -57 158 q-94 117 -133.5 232.5t-36 194.5t25.5 204h449q-145 -236 -146 -420q0 -123 68 -211q74 -98 74 -305q0 -49 -7.5 -169t-3.5 -198t27 -135z" glyph-name="Icircumflex" horiz-adv-x="536" unicode="Î"/><glyph d="M100 1583q-66 0 -109.5 42t-43.5 106q0 68 44 110.5t109 42.5q61 0 103.5 -43t42.5 -110q0 -63 -42.5 -105.5t-103.5 -42.5zM450.5 1583q-63.5 0 -108.5 43t-45 105q0 66 45 109.5t108.5 43.5t104.5 -43t41 -110q0 -63 -41 -105.5t-104.5 -42.5zM510 0h-465q-4 41 -4 57 q0 90 104.5 292t104.5 300q0 86 -57 158q-94 117 -133.5 232.5t-36 194.5t25.5 204h449q-145 -236 -146 -420q0 -123 68 -211q74 -98 74 -305q0 -49 -7.5 -169t-3.5 -198t27 -135z" glyph-name="Idieresis" horiz-adv-x="536" unicode="Ï"/><glyph d="M1030 737q0 -41 38 -153.5t38 -235.5q0 -92 -44 -159.5t-107.5 -103.5t-160 -55.5t-171 -24.5t-172.5 -5h-394q-43 188 9 340q10 31 67 149.5t62 198.5h-107v41h107q-4 41 -13 82q-31 131 -72.5 236.5t-59 179t-17.5 211.5h479q72 0 140.5 -6.5t150.5 -27t142.5 -53 t101 -92t40.5 -139.5q0 -82 -28.5 -206t-28.5 -177zM526 53q94 0 166 102.5t72 247.5q0 154 -55 332q-25 70 -28 149t5 181t8 141q0 170 -149 170q-100 0 -127 -145q-25 -123 8 -502h117v-41h-113q0 -23 2 -35q8 -94 4 -181t-5 -163t3 -133t26.5 -90t65.5 -33z" glyph-name="Eth" horiz-adv-x="1146" unicode="Ð"/><glyph d="M731 1651q-61 0 -168.5 75.5t-171.5 81.5q-94 14 -94 -69h-45q-2 111 47 178.5t139 60.5q61 -4 170 -69.5t144 -71.5q39 -6 55 9.5t16 37.5h45q0 -233 -137 -233zM471 0h-438q-2 154 20.5 328t58 358t44.5 254q16 131 -18 258t-115 148q43 129 178 129q90 0 160.5 -66 t68.5 -168q123 209 383 209q113 0 181.5 -57.5t68.5 -167.5q0 -84 -27.5 -155t-58.5 -113t-50.5 -116.5t-4.5 -168.5q12 -88 52 -158t69.5 -107.5t47 -142t-15.5 -264.5h-424q23 268 19 393t-37 316q-20 160 -6 255t42.5 197.5t28.5 132.5q0 68 -86 49q-86 -6 -154.5 -209.5 t-68.5 -369.5q0 -92 34 -225t52.5 -231.5t-4.5 -307.5z" glyph-name="Ntilde" horiz-adv-x="1120" unicode="Ñ"/><glyph d="M854 1544l-18 -10q-20 68 -89 113t-144 66.5t-163 67.5t-139 111l229 187q4 -49 56.5 -109.5t113 -113t109.5 -136.5t45 -176zM567 -18q-238 0 -364.5 99t-126.5 290q0 72 24 157q23 78 23 160q0 47 -11.5 148.5t-11.5 164.5q0 250 122 351.5t356 101.5q500 0 499 -324 q0 -78 -56 -186t-56 -162q0 -39 32.5 -98t65.5 -142t33 -177q0 -98 -35 -171t-85 -113t-126 -63.5t-140.5 -29.5t-142.5 -6zM582 20q96 0 133 68t37 217q0 84 -41 198.5t-41 207.5q0 127 34.5 249.5t34.5 223.5q0 121 -33.5 176t-121.5 55q-92 0 -127 -58.5t-35 -185.5 q0 -61 37 -198t37 -262q0 -86 -37 -212t-37 -241q0 -238 160 -238z" glyph-name="Ograve" horiz-adv-x="1171" unicode="Ò"/><glyph d="M397 1534l-18 10q-4 92 45 176t109.5 136.5t112.5 113t56 109.5l230 -187q-51 -66 -139 -111.5t-163 -67t-144 -66.5t-89 -113zM567 -18q-238 0 -364.5 99t-126.5 290q0 72 24 157q23 78 23 160q0 47 -11.5 148.5t-11.5 164.5q0 250 122 351.5t356 101.5q500 0 499 -324 q0 -78 -56 -186t-56 -162q0 -39 32.5 -98t65.5 -142t33 -177q0 -98 -35 -171t-85 -113t-126 -63.5t-140.5 -29.5t-142.5 -6zM582 20q96 0 133 68t37 217q0 84 -41 198.5t-41 207.5q0 127 34.5 249.5t34.5 223.5q0 121 -33.5 176t-121.5 55q-92 0 -127 -58.5t-35 -185.5 q0 -61 37 -198t37 -262q0 -86 -37 -212t-37 -241q0 -238 160 -238z" glyph-name="Oacute" horiz-adv-x="1171" unicode="Ó"/><glyph d="M444 1552l-237 138q61 76 144 125t140.5 93t86.5 130h18q23 -63 66 -106.5t86 -65t106.5 -67.5t114.5 -109l-238 -129q2 74 -62.5 195.5t-80.5 201.5q-16 -84 -80 -206t-64 -200zM567 -18q-238 0 -364.5 99t-126.5 290q0 72 24 157q23 78 23 160q0 47 -11.5 148.5 t-11.5 164.5q0 250 122 351.5t356 101.5q500 0 499 -324q0 -78 -56 -186t-56 -162q0 -39 32.5 -98t65.5 -142t33 -177q0 -98 -35 -171t-85 -113t-126 -63.5t-140.5 -29.5t-142.5 -6zM582 20q96 0 133 68t37 217q0 84 -41 198.5t-41 207.5q0 127 34.5 249.5t34.5 223.5 q0 121 -33.5 176t-121.5 55q-92 0 -127 -58.5t-35 -185.5q0 -61 37 -198t37 -262q0 -86 -37 -212t-37 -241q0 -238 160 -238z" glyph-name="Ocircumflex" horiz-adv-x="1171" unicode="Ô"/><glyph d="M758 1651q-61 0 -169 75.5t-171 81.5q-94 14 -94 -69h-45q-2 111 47 178.5t139 60.5q61 -4 169.5 -69.5t143.5 -71.5q39 -6 55.5 9.5t16.5 37.5h45q0 -233 -137 -233zM567 -18q-238 0 -364.5 99t-126.5 290q0 72 24 157q23 78 23 160q0 47 -11.5 148.5t-11.5 164.5 q0 250 122 351.5t356 101.5q500 0 499 -324q0 -78 -56 -186t-56 -162q0 -39 32.5 -98t65.5 -142t33 -177q0 -98 -35 -171t-85 -113t-126 -63.5t-140.5 -29.5t-142.5 -6zM582 20q96 0 133 68t37 217q0 84 -41 198.5t-41 207.5q0 127 34.5 249.5t34.5 223.5q0 121 -33.5 176 t-121.5 55q-92 0 -127 -58.5t-35 -185.5q0 -61 37 -198t37 -262q0 -86 -37 -212t-37 -241q0 -238 160 -238z" glyph-name="Otilde" horiz-adv-x="1171" unicode="Õ"/><glyph d="M420 1583q-66 0 -110 42t-44 106q0 68 44 110.5t110 42.5q61 0 103 -43t42 -110q0 -63 -42 -105.5t-103 -42.5zM770.5 1583q-63.5 0 -109 43t-45.5 105q0 66 45.5 109.5t109 43.5t104 -43t40.5 -110q0 -63 -40.5 -105.5t-104 -42.5zM567 -18q-238 0 -364.5 99t-126.5 290 q0 72 24 157q23 78 23 160q0 47 -11.5 148.5t-11.5 164.5q0 250 122 351.5t356 101.5q500 0 499 -324q0 -78 -56 -186t-56 -162q0 -39 32.5 -98t65.5 -142t33 -177q0 -98 -35 -171t-85 -113t-126 -63.5t-140.5 -29.5t-142.5 -6zM582 20q96 0 133 68t37 217q0 84 -41 198.5 t-41 207.5q0 127 34.5 249.5t34.5 223.5q0 121 -33.5 176t-121.5 55q-92 0 -127 -58.5t-35 -185.5q0 -61 37 -198t37 -262q0 -86 -37 -212t-37 -241q0 -238 160 -238z" glyph-name="Odieresis" horiz-adv-x="1171" unicode="Ö"/><glyph d="M371 580l245 -248l-41 -39l-245 246l-246 -246l-41 39l248 248l-246 243l39 41l246 -246l245 246l39 -41z" glyph-name="multiply" horiz-adv-x="659" unicode="×"/><glyph d="M965 782q0 -39 32.5 -98t65.5 -142t33 -177q0 -98 -35 -171t-85 -113t-126 -63.5t-140.5 -29.5t-142.5 -6q-133 0 -231 30l-35 -82h-78l45 111q-193 94 -192 330q0 72 24 157q23 78 23 160q0 47 -11.5 148.5t-11.5 164.5q0 250 122 351.5t356 101.5q158 0 262 -31l34 82 h78l-45 -108q170 -78 170 -267q0 -78 -56 -186.5t-56 -161.5zM422 1171q0 -61 37 -198t37 -262q0 -90 -35 -207l278 674v6q0 121 -33.5 176t-121.5 55q-92 0 -127 -58.5t-35 -185.5zM582 20q96 0 133 68t37 217q0 84 -41 198.5t-41 207.5q0 61 8 131l-256 -617 q10 -205 160 -205z" glyph-name="Oslash" horiz-adv-x="1171" unicode="Ø"/><glyph d="M874 1544l-18 -10q-20 68 -89 113t-143.5 66.5t-162.5 67.5t-139 111l229 187q4 -49 56 -109.5t112.5 -113t109.5 -136.5t45 -176zM592 -35q-195 0 -343.5 104.5t-148.5 309.5q0 137 76 311q51 117 51 213q0 88 -45 172t-90 173t-45 190h414q63 -143 63 -365 q0 -158 -37.5 -441.5t-37.5 -369.5q0 -252 143 -252q156 0 156 277q0 82 -31 338t-29 407q4 262 72 406h416q0 -117 -67 -250t-67 -227q0 -109 56 -259q49 -127 49 -241q0 -119 -52.5 -217.5t-136.5 -156.5t-179 -90t-187 -32z" glyph-name="Ugrave" horiz-adv-x="1216" unicode="Ù"/><glyph d="M418 1534l-19 10q-4 92 45.5 176t109.5 136.5t112.5 113t56.5 109.5l229 -187q-51 -66 -139 -111.5t-163 -67t-143.5 -66.5t-88.5 -113zM592 -35q-195 0 -343.5 104.5t-148.5 309.5q0 137 76 311q51 117 51 213q0 88 -45 172t-90 173t-45 190h414q63 -143 63 -365 q0 -158 -37.5 -441.5t-37.5 -369.5q0 -252 143 -252q156 0 156 277q0 82 -31 338t-29 407q4 262 72 406h416q0 -117 -67 -250t-67 -227q0 -109 56 -259q49 -127 49 -241q0 -119 -52.5 -217.5t-136.5 -156.5t-179 -90t-187 -32z" glyph-name="Uacute" horiz-adv-x="1216" unicode="Ú"/><glyph d="M465 1552l-238 138q61 76 144.5 125t140.5 93t86 130h18q23 -63 66 -106.5t86 -65t106.5 -67.5t114.5 -109l-237 -129q2 74 -62.5 195.5t-81.5 201.5q-16 -84 -79.5 -206t-63.5 -200zM592 -35q-195 0 -343.5 104.5t-148.5 309.5q0 137 76 311q51 117 51 213q0 88 -45 172 t-90 173t-45 190h414q63 -143 63 -365q0 -158 -37.5 -441.5t-37.5 -369.5q0 -252 143 -252q156 0 156 277q0 82 -31 338t-29 407q4 262 72 406h416q0 -117 -67 -250t-67 -227q0 -109 56 -259q49 -127 49 -241q0 -119 -52.5 -217.5t-136.5 -156.5t-179 -90t-187 -32z" glyph-name="Ucircumflex" horiz-adv-x="1216" unicode="Û"/><glyph d="M440 1583q-66 0 -109.5 42t-43.5 106q0 68 44 110.5t109 42.5q61 0 103.5 -43t42.5 -110q0 -63 -42.5 -105.5t-103.5 -42.5zM790.5 1583q-63.5 0 -108.5 43t-45 105q0 66 45 109.5t108.5 43.5t104.5 -43t41 -110q0 -63 -41 -105.5t-104.5 -42.5zM592 -35 q-195 0 -343.5 104.5t-148.5 309.5q0 137 76 311q51 117 51 213q0 88 -45 172t-90 173t-45 190h414q63 -143 63 -365q0 -158 -37.5 -441.5t-37.5 -369.5q0 -252 143 -252q156 0 156 277q0 82 -31 338t-29 407q4 262 72 406h416q0 -117 -67 -250t-67 -227q0 -109 56 -259 q49 -127 49 -241q0 -119 -52.5 -217.5t-136.5 -156.5t-179 -90t-187 -32z" glyph-name="Udieresis" horiz-adv-x="1216" unicode="Ü"/><glyph d="M301 1534l-18 10q-4 92 45 176t109.5 136.5t112.5 113t56 109.5l230 -187q-51 -66 -139.5 -111.5t-163 -67t-143.5 -66.5t-89 -113zM715 0h-531q0 113 37 214t81 159.5t81 110t37 75.5q0 45 -90 45q-27 2 -85.5 0t-80.5 -2q-150 6 -150 193q0 57 11.5 126.5t33 171 t31.5 158.5q14 63 2 99t-59 36q59 82 194 82q90 0 156 -47t66 -135q0 -147 -48.5 -318t-48.5 -200q0 -156 146 -156q68 0 104.5 54.5t36.5 109.5q0 61 -35 244.5t-35 271.5q0 84 69 130t157 46q109 0 174 -71q-68 -27 -68 -166q0 -53 13.5 -185.5t13.5 -195.5 q0 -244 -234 -252q-104 -6 -139 -49q-33 -35 -33 -111q0 -63 85 -198.5t108 -239.5z" glyph-name="Yacute" horiz-adv-x="983" unicode="Ý"/><glyph d="M512 0h-420q0 145 81 403.5t81 350.5q0 74 -55.5 185.5t-111.5 241.5t-56 255l372 -4q-35 -227 -34 -312q0 -68 18 -67q23 0 58.5 33.5t73.5 73.5t113 74t165 34q141 0 206.5 -105.5t65.5 -390.5q0 -131 -14.5 -223t-53 -172t-114.5 -121t-191 -41q-84 0 -155.5 44 t-117.5 88t-67 44q-20 -6 -11 -31.5t44 -78.5q119 -185 123 -281zM575 336q78 0 78 282q0 27 -1 72t-1 64q0 57 7.5 148t7.5 120q0 100 -54 100q-70 0 -145.5 -105.5t-75.5 -205.5q0 -176 49 -325.5t135 -149.5z" glyph-name="Thorn" horiz-adv-x="1110" unicode="Þ"/><glyph d="M389 0h-348q14 160 87 351.5t73 320.5q0 74 -23.5 214t-23.5 224q0 170 143 266.5t330 96.5q195 0 282.5 -82t87.5 -248q0 -168 -123 -207q-37 -10 -94 -13t-86.5 -9.5t-29.5 -30.5q0 -37 45 -58.5t108.5 -39t128 -45t109.5 -95t45 -172.5q0 -145 -39 -242.5t-113 -145.5 t-155.5 -66.5t-192.5 -18.5l-78 219q246 14 246 242q0 88 -19.5 150.5t-48 95t-57.5 56t-48.5 52.5t-19.5 68q0 27 21.5 52.5t46.5 49t46.5 84.5t21.5 152q0 100 -34 150t-85 50t-92 -55t-33 -137q39 -297 39 -500q0 -199 -53.5 -394.5t-63.5 -334.5z" glyph-name="germandbls" horiz-adv-x="1140" unicode="ß"/><glyph d="M854 1290l-18 -10q-20 68 -89 113t-144 66.5t-163 67.5t-139 111l229 187q4 -49 56.5 -109.5t113 -113t109.5 -136.5t45 -176zM324 -35q-127 0 -205 84t-78 203q0 45 12.5 83t24.5 63.5t47 53t51.5 40t67.5 34t65.5 26.5t73.5 26q127 45 193.5 99t66.5 154 q0 92 -56.5 209t-117.5 119q-35 10 -41 -22q-8 -25 42 -119t52 -168q2 -94 -74.5 -151.5t-177.5 -57.5q-80 0 -143 39q41 18 41 88q0 31 -13.5 98.5t-13.5 89.5q-2 90 127 176.5t377 86.5q166 0 275.5 -62.5t109.5 -193.5q0 -104 -81 -175t-218 -133q-18 -8 -60 -27.5 t-60.5 -28.5t-51.5 -25.5t-48 -29t-33.5 -29.5t-26 -34.5t-7.5 -38.5q0 -41 28 -68.5t67 -27.5q59 0 110 64q31 33 76 105.5t84 117.5t78 45q55 0 96 -52.5t65.5 -155.5t39 -208.5t26.5 -261.5h-506q82 90 177.5 288.5t95.5 284.5q0 31 -21 31q-18 0 -41.5 -47t-48.5 -118.5 t-64.5 -153.5t-88 -154t-125 -119t-168.5 -47z" glyph-name="agrave" horiz-adv-x="1144" unicode="à"/><glyph d="M397 1280l-18 10q-4 92 45 176t109.5 136.5t112.5 113t56 109.5l230 -187q-51 -66 -139 -111.5t-163 -67t-144 -66.5t-89 -113zM324 -35q-127 0 -205 84t-78 203q0 45 12.5 83t24.5 63.5t47 53t51.5 40t67.5 34t65.5 26.5t73.5 26q127 45 193.5 99t66.5 154 q0 92 -56.5 209t-117.5 119q-35 10 -41 -22q-8 -25 42 -119t52 -168q2 -94 -74.5 -151.5t-177.5 -57.5q-80 0 -143 39q41 18 41 88q0 31 -13.5 98.5t-13.5 89.5q-2 90 127 176.5t377 86.5q166 0 275.5 -62.5t109.5 -193.5q0 -104 -81 -175t-218 -133q-18 -8 -60 -27.5 t-60.5 -28.5t-51.5 -25.5t-48 -29t-33.5 -29.5t-26 -34.5t-7.5 -38.5q0 -41 28 -68.5t67 -27.5q59 0 110 64q31 33 76 105.5t84 117.5t78 45q55 0 96 -52.5t65.5 -155.5t39 -208.5t26.5 -261.5h-506q82 90 177.5 288.5t95.5 284.5q0 31 -21 31q-18 0 -41.5 -47t-48.5 -118.5 t-64.5 -153.5t-88 -154t-125 -119t-168.5 -47z" glyph-name="aacute" horiz-adv-x="1144" unicode="á"/><glyph d="M444 1298l-237 138q61 76 144 125t140.5 93t86.5 130h18q23 -63 66 -106.5t86 -65t106.5 -67.5t114.5 -109l-238 -129q2 74 -62.5 195.5t-80.5 201.5q-16 -84 -80 -206t-64 -200zM324 -35q-127 0 -205 84t-78 203q0 45 12.5 83t24.5 63.5t47 53t51.5 40t67.5 34 t65.5 26.5t73.5 26q127 45 193.5 99t66.5 154q0 92 -56.5 209t-117.5 119q-35 10 -41 -22q-8 -25 42 -119t52 -168q2 -94 -74.5 -151.5t-177.5 -57.5q-80 0 -143 39q41 18 41 88q0 31 -13.5 98.5t-13.5 89.5q-2 90 127 176.5t377 86.5q166 0 275.5 -62.5t109.5 -193.5 q0 -104 -81 -175t-218 -133q-18 -8 -60 -27.5t-60.5 -28.5t-51.5 -25.5t-48 -29t-33.5 -29.5t-26 -34.5t-7.5 -38.5q0 -41 28 -68.5t67 -27.5q59 0 110 64q31 33 76 105.5t84 117.5t78 45q55 0 96 -52.5t65.5 -155.5t39 -208.5t26.5 -261.5h-506q82 90 177.5 288.5 t95.5 284.5q0 31 -21 31q-18 0 -41.5 -47t-48.5 -118.5t-64.5 -153.5t-88 -154t-125 -119t-168.5 -47z" glyph-name="acircumflex" horiz-adv-x="1144" unicode="â"/><glyph d="M758 1397q-61 0 -169 75.5t-171 81.5q-94 14 -94 -69h-45q-2 111 47 178.5t139 60.5q61 -4 169.5 -69.5t143.5 -71.5q39 -6 55.5 9.5t16.5 37.5h45q0 -233 -137 -233zM324 -35q-127 0 -205 84t-78 203q0 45 12.5 83t24.5 63.5t47 53t51.5 40t67.5 34t65.5 26.5t73.5 26 q127 45 193.5 99t66.5 154q0 92 -56.5 209t-117.5 119q-35 10 -41 -22q-8 -25 42 -119t52 -168q2 -94 -74.5 -151.5t-177.5 -57.5q-80 0 -143 39q41 18 41 88q0 31 -13.5 98.5t-13.5 89.5q-2 90 127 176.5t377 86.5q166 0 275.5 -62.5t109.5 -193.5q0 -104 -81 -175 t-218 -133q-18 -8 -60 -27.5t-60.5 -28.5t-51.5 -25.5t-48 -29t-33.5 -29.5t-26 -34.5t-7.5 -38.5q0 -41 28 -68.5t67 -27.5q59 0 110 64q31 33 76 105.5t84 117.5t78 45q55 0 96 -52.5t65.5 -155.5t39 -208.5t26.5 -261.5h-506q82 90 177.5 288.5t95.5 284.5q0 31 -21 31 q-18 0 -41.5 -47t-48.5 -118.5t-64.5 -153.5t-88 -154t-125 -119t-168.5 -47z" glyph-name="atilde" horiz-adv-x="1144" unicode="ã"/><glyph d="M420 1329q-66 0 -110 42t-44 106q0 68 44 110.5t110 42.5q61 0 103 -43t42 -110q0 -63 -42 -105.5t-103 -42.5zM770.5 1329q-63.5 0 -109 43t-45.5 105q0 66 45.5 109.5t109 43.5t104 -43t40.5 -110q0 -63 -40.5 -105.5t-104 -42.5zM324 -35q-127 0 -205 84t-78 203 q0 45 12.5 83t24.5 63.5t47 53t51.5 40t67.5 34t65.5 26.5t73.5 26q127 45 193.5 99t66.5 154q0 92 -56.5 209t-117.5 119q-35 10 -41 -22q-8 -25 42 -119t52 -168q2 -94 -74.5 -151.5t-177.5 -57.5q-80 0 -143 39q41 18 41 88q0 31 -13.5 98.5t-13.5 89.5q-2 90 127 176.5 t377 86.5q166 0 275.5 -62.5t109.5 -193.5q0 -104 -81 -175t-218 -133q-18 -8 -60 -27.5t-60.5 -28.5t-51.5 -25.5t-48 -29t-33.5 -29.5t-26 -34.5t-7.5 -38.5q0 -41 28 -68.5t67 -27.5q59 0 110 64q31 33 76 105.5t84 117.5t78 45q55 0 96 -52.5t65.5 -155.5t39 -208.5 t26.5 -261.5h-506q82 90 177.5 288.5t95.5 284.5q0 31 -21 31q-18 0 -41.5 -47t-48.5 -118.5t-64.5 -153.5t-88 -154t-125 -119t-168.5 -47z" glyph-name="adieresis" horiz-adv-x="1144" unicode="ä"/><glyph d="M587.5 1360q-112.5 0 -150.5 17.5t-38 52.5q0 14 7.5 48.5t7.5 57.5t-7.5 57.5t-7.5 48.5q0 35 38 52.5t150.5 17.5t150.5 -17.5t38 -52.5q0 -14 -7 -48.5t-7 -57.5t7 -57.5t7 -48.5q0 -35 -38 -52.5t-150.5 -17.5zM588 1374q49 0 49 162q0 156 -47 156q-51 0 -51 -156 q0 -162 49 -162zM324 -35q-127 0 -205 84t-78 203q0 45 12.5 83t24.5 63.5t47 53t51.5 40t67.5 34t65.5 26.5t73.5 26q127 45 193.5 99t66.5 154q0 92 -56.5 209t-117.5 119q-35 10 -41 -22q-8 -25 42 -119t52 -168q2 -94 -74.5 -151.5t-177.5 -57.5q-80 0 -143 39 q41 18 41 88q0 31 -13.5 98.5t-13.5 89.5q-2 90 127 176.5t377 86.5q166 0 275.5 -62.5t109.5 -193.5q0 -104 -81 -175t-218 -133q-18 -8 -60 -27.5t-60.5 -28.5t-51.5 -25.5t-48 -29t-33.5 -29.5t-26 -34.5t-7.5 -38.5q0 -41 28 -68.5t67 -27.5q59 0 110 64q31 33 76 105.5 t84 117.5t78 45q55 0 96 -52.5t65.5 -155.5t39 -208.5t26.5 -261.5h-506q82 90 177.5 288.5t95.5 284.5q0 31 -21 31q-18 0 -41.5 -47t-48.5 -118.5t-64.5 -153.5t-88 -154t-125 -119t-168.5 -47z" glyph-name="aring" horiz-adv-x="1144" unicode="å"/><glyph d="M324 -35q-127 0 -205 84t-78 203q0 63 22.5 114.5t49 81t85 60.5t90 43t105.5 37q127 45 188.5 96t61.5 145q0 63 -30.5 146.5t-75.5 138.5t-91 55q-37 0 -36 -45q0 -37 58 -126t58 -146q0 -94 -76.5 -152.5t-179.5 -58.5q-80 0 -143 39q41 18 41 84q0 35 -13.5 107.5 t-13.5 93.5q0 88 130 171t382 83q219 0 318 -105q109 102 342 103q61 0 109 -5.5t104.5 -25t94.5 -51t62.5 -89t24.5 -135.5q0 -252 -217 -329q-84 -31 -201 -31q-72 0 -157 12q-4 -57 -5 -90q0 -188 52.5 -323.5t109.5 -135.5q12 0 22.5 7.5t15.5 24.5t8 33.5t4 47.5 t1 53.5t-1 61.5t-1 61q0 102 62.5 159.5t148.5 57.5q74 0 124 -38t50 -109q-55 -2 -55 -166q0 -115 -111.5 -178.5t-269.5 -63.5q-178 0 -307 108.5t-166 321.5q-14 -23 -54 -88t-62.5 -100t-66.5 -88t-84 -81t-99 -50.5t-125 -22.5zM1147 616q141 -4 194 95q55 78 75 200.5 t9 210.5q-12 59 -65 35q-39 -10 -85 -64.5t-69 -123.5q-67 -167 -59 -353zM553 315q100 0 183 125t98 305q-51 -63 -216 -141q-57 -27 -88.5 -45t-58.5 -53t-27 -76q0 -53 30 -84t79 -31z" glyph-name="ae" horiz-adv-x="1755" unicode="æ"/><glyph d="M854 489q131 0 188 -73q-78 -16 -77 -137q0 -74 -11.5 -119t-50.5 -93.5t-126 -71t-224 -22.5h-16l-41 -69q59 10 122 10q102 0 152.5 -36t50.5 -87q0 -66 -76.5 -108.5t-175 -74.5t-123.5 -57l-65 121q182 63 182 129q0 57 -182 47l111 129q-199 23 -324 182.5 t-127 401.5q-2 350 145.5 504t419.5 154q74 0 131.5 -10.5t94 -25t62.5 -42t39 -47t20.5 -57.5t8.5 -57t3 -60q0 -37 3 -59.5t11 -48.5t25.5 -40t44.5 -20q-33 -68 -96.5 -105t-133.5 -37q-86 0 -145.5 47.5t-59.5 130.5q-2 121 93 293q43 80 30 95q-6 8 -28 8 q-106 0 -183 -185.5t-75 -478.5q2 -180 22.5 -300t50 -169t66.5 -49q57 0 33 209q-18 141 52 209.5t179 68.5z" glyph-name="ccedilla" horiz-adv-x="1073" unicode="ç"/><glyph d="M791 1290l-19 -10q-20 68 -89 113t-143.5 66.5t-162.5 67.5t-139 111l229 187q4 -49 56 -109.5t112.5 -113t110 -136.5t45.5 -176zM522 -35q-219 0 -350 126t-131 376q0 33 6 98q8 96 14.5 153.5t22.5 135.5t37.5 123t59.5 97t88 79t124 45.5t168 18.5q82 0 145.5 -12.5 t129 -45.5t98.5 -105.5t24 -181.5q-25 -299 -589 -309q-4 -35 -4 -108q0 -176 39.5 -312.5t103.5 -136.5q53 0 69.5 47t16.5 166v84q0 102 61.5 159.5t149.5 57.5q72 0 120 -38t48 -109q-55 -2 -55 -166q0 -113 -118 -177.5t-278 -64.5zM369 616q82 -6 148.5 52.5t101 145.5 t52 168t17.5 136q0 66 -45 66q-80 0 -145.5 -97.5t-97 -226.5t-31.5 -244z" glyph-name="egrave" horiz-adv-x="1007" unicode="è"/><glyph d="M334 1280l-19 10q-4 92 45.5 176t109.5 136.5t112.5 113t56.5 109.5l229 -187q-51 -66 -139 -111.5t-162.5 -67t-143.5 -66.5t-89 -113zM522 -35q-219 0 -350 126t-131 376q0 33 6 98q8 96 14.5 153.5t22.5 135.5t37.5 123t59.5 97t88 79t124 45.5t168 18.5 q82 0 145.5 -12.5t129 -45.5t98.5 -105.5t24 -181.5q-25 -299 -589 -309q-4 -35 -4 -108q0 -176 39.5 -312.5t103.5 -136.5q53 0 69.5 47t16.5 166v84q0 102 61.5 159.5t149.5 57.5q72 0 120 -38t48 -109q-55 -2 -55 -166q0 -113 -118 -177.5t-278 -64.5zM369 616 q82 -6 148.5 52.5t101 145.5t52 168t17.5 136q0 66 -45 66q-80 0 -145.5 -97.5t-97 -226.5t-31.5 -244z" glyph-name="eacute" horiz-adv-x="1007" unicode="é"/><glyph d="M381 1298l-238 138q61 76 144.5 125t140.5 93t86 130h18q23 -63 66 -106.5t86 -65t106.5 -67.5t114.5 -109l-237 -129q2 74 -62.5 195.5t-81.5 201.5q-16 -84 -79.5 -206t-63.5 -200zM522 -35q-219 0 -350 126t-131 376q0 33 6 98q8 96 14.5 153.5t22.5 135.5t37.5 123 t59.5 97t88 79t124 45.5t168 18.5q82 0 145.5 -12.5t129 -45.5t98.5 -105.5t24 -181.5q-25 -299 -589 -309q-4 -35 -4 -108q0 -176 39.5 -312.5t103.5 -136.5q53 0 69.5 47t16.5 166v84q0 102 61.5 159.5t149.5 57.5q72 0 120 -38t48 -109q-55 -2 -55 -166 q0 -113 -118 -177.5t-278 -64.5zM369 616q82 -6 148.5 52.5t101 145.5t52 168t17.5 136q0 66 -45 66q-80 0 -145.5 -97.5t-97 -226.5t-31.5 -244z" glyph-name="ecircumflex" horiz-adv-x="1007" unicode="ê"/><glyph d="M354 1329q-66 0 -109.5 42t-43.5 106q0 68 44 110.5t109 42.5q61 0 103.5 -43t42.5 -110q0 -63 -42.5 -105.5t-103.5 -42.5zM704.5 1329q-63.5 0 -108.5 43t-45 105q0 66 45 109.5t108.5 43.5t104.5 -43t41 -110q0 -63 -41 -105.5t-104.5 -42.5zM522 -35q-219 0 -350 126 t-131 376q0 33 6 98q8 96 14.5 153.5t22.5 135.5t37.5 123t59.5 97t88 79t124 45.5t168 18.5q82 0 145.5 -12.5t129 -45.5t98.5 -105.5t24 -181.5q-25 -299 -589 -309q-4 -35 -4 -108q0 -176 39.5 -312.5t103.5 -136.5q53 0 69.5 47t16.5 166v84q0 102 61.5 159.5 t149.5 57.5q72 0 120 -38t48 -109q-55 -2 -55 -166q0 -113 -118 -177.5t-278 -64.5zM369 616q82 -6 148.5 52.5t101 145.5t52 168t17.5 136q0 66 -45 66q-80 0 -145.5 -97.5t-97 -226.5t-31.5 -244z" glyph-name="edieresis" horiz-adv-x="1007" unicode="ë"/><glyph d="M526 1290l-18 -10q-20 68 -89 113t-143.5 66.5t-162.5 67.5t-140 111l230 187q4 -49 56 -109.5t112.5 -113t109.5 -136.5t45 -176zM473 0h-424q-12 100 2.5 179t44 125t62 95.5t56.5 88t26 104t-29 145.5q-25 68 -71 152t-69.5 149.5t-23.5 145.5h422q12 -90 -4 -164 t-44 -113t-52.5 -90t-27.5 -98t30 -135q45 -104 68.5 -195.5t26.5 -138.5t4 -131t3 -119z" glyph-name="igrave" horiz-adv-x="518" unicode="ì"/><glyph d="M70 1280l-19 10q-4 92 45 176t109.5 136.5t113 113t56.5 109.5l229 -187q-51 -66 -139 -111.5t-163 -67t-143.5 -66.5t-88.5 -113zM473 0h-424q-12 100 2.5 179t44 125t62 95.5t56.5 88t26 104t-29 145.5q-25 68 -71 152t-69.5 149.5t-23.5 145.5h422q12 -90 -4 -164 t-44 -113t-52.5 -90t-27.5 -98t30 -135q45 -104 68.5 -195.5t26.5 -138.5t4 -131t3 -119z" glyph-name="iacute" horiz-adv-x="518" unicode="í"/><glyph d="M117 1298l-238 138q61 76 144 125t140.5 93t86.5 130h18q23 -63 66 -106.5t86 -65t106.5 -67.5t114.5 -109l-238 -129q2 74 -62.5 195.5t-80.5 201.5q-16 -84 -79.5 -206t-63.5 -200zM473 0h-424q-12 100 2.5 179t44 125t62 95.5t56.5 88t26 104t-29 145.5 q-25 68 -71 152t-69.5 149.5t-23.5 145.5h422q12 -90 -4 -164t-44 -113t-52.5 -90t-27.5 -98t30 -135q45 -104 68.5 -195.5t26.5 -138.5t4 -131t3 -119z" glyph-name="icircumflex" horiz-adv-x="518" unicode="î"/><glyph d="M90 1329q-66 0 -109.5 42t-43.5 106q0 68 44 110.5t109 42.5q61 0 103.5 -43t42.5 -110q0 -63 -42.5 -105.5t-103.5 -42.5zM440.5 1329q-63.5 0 -108.5 43t-45 105q0 66 45 109.5t108.5 43.5t104.5 -43t41 -110q0 -63 -41 -105.5t-104.5 -42.5zM473 0h-424 q-12 100 2.5 179t44 125t62 95.5t56.5 88t26 104t-29 145.5q-25 68 -71 152t-69.5 149.5t-23.5 145.5h422q12 -90 -4 -164t-44 -113t-52.5 -90t-27.5 -98t30 -135q45 -104 68.5 -195.5t26.5 -138.5t4 -131t3 -119z" glyph-name="idieresis" horiz-adv-x="518" unicode="ï"/><glyph d="M575 -35q-221 0 -377.5 173t-156.5 480q0 279 105.5 441t322.5 164q23 2 104.5 -3.5t104.5 -5.5q45 0 24 54q-23 63 -151 215l-131 -82l-43 65l119 74q-94 88 -230 148l76 92q156 -74 270 -166l203 127l41 -66l-180 -112q201 -182 294 -420t93 -484q0 -150 -25.5 -270.5 t-80 -218.5t-152 -151.5t-230.5 -53.5zM582 39q49 0 88 38t39 109q0 55 -27 195.5t-14 245.5q4 51 25.5 168.5t21.5 171.5q0 152 -133 151q-29 0 -51.5 -6t-38 -21.5t-25.5 -31t-17.5 -47t-10.5 -55t-4 -69.5t-1 -79t1 -92.5t1 -100.5q0 -111 11.5 -225.5t11.5 -195.5 q2 -80 39 -118t84 -38z" glyph-name="eth" horiz-adv-x="1103" unicode="ð"/><glyph d="M729 1397q-61 0 -168.5 75.5t-171.5 81.5q-94 14 -94 -69h-45q-2 111 47 178.5t139 60.5q61 -4 170 -69.5t144 -71.5q39 -6 55 9.5t16 37.5h45q0 -233 -137 -233zM500 0h-418q-29 84 -29 172q0 102 54.5 287.5t66.5 265.5q16 115 -19.5 212t-113.5 97q2 76 47 130.5 t143 54.5q94 0 144.5 -70t64.5 -158q29 41 48.5 64.5t65.5 69.5t104.5 70t123.5 24q129 0 185.5 -64.5t56.5 -165.5q0 -84 -54.5 -214t-54.5 -218q0 -92 78 -254t94 -303h-417q20 96 14 168q0 84 -67.5 244.5t-67.5 257.5q0 76 28.5 141.5t63.5 104t63.5 85t28.5 86.5 q0 43 -41 43q-57 0 -137 -86t-121 -217q-23 -74 -22.5 -150.5t11.5 -130.5t36 -134q18 -66 26.5 -95.5t18.5 -89t9 -114t-13 -113.5z" glyph-name="ntilde" horiz-adv-x="1112" unicode="ñ"/><glyph d="M795 1290l-19 -10q-20 68 -89 113t-143.5 66.5t-162.5 67.5t-139 111l229 187q4 -49 56.5 -109.5t112.5 -113t109.5 -136.5t45.5 -176zM524 -35q-260 0 -371.5 86t-111.5 217q0 66 37 196t37 185q0 76 -28 154t-28 137q0 135 141.5 209t340.5 74q182 0 308 -63.5 t126 -176.5q0 -76 -52.5 -153.5t-52.5 -133.5q0 -66 72 -182.5t72 -194.5q0 -174 -131.5 -264t-358.5 -90zM526 6q139 0 140 141q0 61 -40 240.5t-40 271.5q0 63 29.5 211t29.5 201q0 117 -102 117q-119 0 -119 -174q0 -41 10 -164t8 -191q-2 -86 -31.5 -259t-29.5 -234 q0 -160 145 -160z" glyph-name="ograve" horiz-adv-x="1054" unicode="ò"/><glyph d="M338 1280l-19 10q-4 92 45.5 176t110 136.5t112.5 113t56 109.5l229 -187q-51 -66 -139 -111.5t-162.5 -67t-143.5 -66.5t-89 -113zM524 -35q-260 0 -371.5 86t-111.5 217q0 66 37 196t37 185q0 76 -28 154t-28 137q0 135 141.5 209t340.5 74q182 0 308 -63.5t126 -176.5 q0 -76 -52.5 -153.5t-52.5 -133.5q0 -66 72 -182.5t72 -194.5q0 -174 -131.5 -264t-358.5 -90zM526 6q139 0 140 141q0 61 -40 240.5t-40 271.5q0 63 29.5 211t29.5 201q0 117 -102 117q-119 0 -119 -174q0 -41 10 -164t8 -191q-2 -86 -31.5 -259t-29.5 -234 q0 -160 145 -160z" glyph-name="oacute" horiz-adv-x="1054" unicode="ó"/><glyph d="M385 1298l-238 138q61 76 144.5 125t140.5 93t86 130h19q23 -63 65.5 -106.5t85.5 -65t106.5 -67.5t114.5 -109l-237 -129q2 74 -62.5 195.5t-81.5 201.5q-16 -84 -79.5 -206t-63.5 -200zM524 -35q-260 0 -371.5 86t-111.5 217q0 66 37 196t37 185q0 76 -28 154t-28 137 q0 135 141.5 209t340.5 74q182 0 308 -63.5t126 -176.5q0 -76 -52.5 -153.5t-52.5 -133.5q0 -66 72 -182.5t72 -194.5q0 -174 -131.5 -264t-358.5 -90zM526 6q139 0 140 141q0 61 -40 240.5t-40 271.5q0 63 29.5 211t29.5 201q0 117 -102 117q-119 0 -119 -174 q0 -41 10 -164t8 -191q-2 -86 -31.5 -259t-29.5 -234q0 -160 145 -160z" glyph-name="ocircumflex" horiz-adv-x="1054" unicode="ô"/><glyph d="M698 1397q-61 0 -168.5 75.5t-171.5 81.5q-94 14 -94 -69h-45q-2 111 47 178.5t140 60.5q61 -4 169.5 -69.5t143.5 -71.5q39 -6 55.5 9.5t16.5 37.5h45q-1 -233 -138 -233zM524 -35q-260 0 -371.5 86t-111.5 217q0 66 37 196t37 185q0 76 -28 154t-28 137 q0 135 141.5 209t340.5 74q182 0 308 -63.5t126 -176.5q0 -76 -52.5 -153.5t-52.5 -133.5q0 -66 72 -182.5t72 -194.5q0 -174 -131.5 -264t-358.5 -90zM526 6q139 0 140 141q0 61 -40 240.5t-40 271.5q0 63 29.5 211t29.5 201q0 117 -102 117q-119 0 -119 -174 q0 -41 10 -164t8 -191q-2 -86 -31.5 -259t-29.5 -234q0 -160 145 -160z" glyph-name="otilde" horiz-adv-x="1054" unicode="õ"/><glyph d="M360 1329q-66 0 -109.5 42t-43.5 106q0 68 44 110.5t109 42.5q61 0 103.5 -43t42.5 -110q0 -63 -42.5 -105.5t-103.5 -42.5zM710.5 1329q-63.5 0 -108.5 43t-45 105q0 66 45 109.5t108.5 43.5t104.5 -43t41 -110q0 -63 -41 -105.5t-104.5 -42.5zM524 -35 q-260 0 -371.5 86t-111.5 217q0 66 37 196t37 185q0 76 -28 154t-28 137q0 135 141.5 209t340.5 74q182 0 308 -63.5t126 -176.5q0 -76 -52.5 -153.5t-52.5 -133.5q0 -66 72 -182.5t72 -194.5q0 -174 -131.5 -264t-358.5 -90zM526 6q139 0 140 141q0 61 -40 240.5t-40 271.5 q0 63 29.5 211t29.5 201q0 117 -102 117q-119 0 -119 -174q0 -41 10 -164t8 -191q-2 -86 -31.5 -259t-29.5 -234q0 -160 145 -160z" glyph-name="odieresis" horiz-adv-x="1054" unicode="ö"/><glyph d="M487 768q-78 0 -131 52t-53 130q0 82 53.5 135.5t130.5 53.5q80 0 133.5 -53.5t53.5 -135.5q0 -78 -53.5 -130t-133.5 -52zM793 606h-752v58h752v-58zM487 143q-78 0 -131 52.5t-53 130.5q0 82 53.5 135t130.5 53q80 0 133.5 -53t53.5 -135q0 -78 -53.5 -130.5 t-133.5 -52.5z" glyph-name="divide" horiz-adv-x="833" unicode="÷"/><glyph d="M870 696q0 -66 72 -182.5t72 -194.5q0 -174 -131 -264t-359 -90q-125 0 -207 21l-75 -183h-78l84 201q-207 74 -207 264q0 66 37 196t37 185q0 76 -28 154t-28 137q0 135 141.5 209t340.5 74q104 0 200 -23l74 178h78l-84 -200q166 -68 166 -195q0 -76 -52.5 -154 t-52.5 -133zM424 1014q0 -41 10 -164t8 -191q-2 -100 -32 -260l215 519q20 96 20 153q0 117 -102 117q-119 0 -119 -174zM526 6q139 0 140 141q0 61 -38 231.5t-42 258.5l-205 -496q10 -135 145 -135z" glyph-name="oslash" horiz-adv-x="1054" unicode="ø"/><glyph d="M840 1290l-19 -10q-20 68 -88.5 113t-143.5 66.5t-163 67.5t-139 111l229 187q4 -49 56.5 -109.5t112.5 -113t109.5 -136.5t45.5 -176zM907 -37q-94 0 -156.5 61.5t-62.5 174.5q0 51 6 112q-55 -164 -153.5 -255t-227.5 -91q-121 0 -195.5 92.5t-74.5 272.5 q0 104 41 294.5t41 303.5q0 127 -68 262l392 -2q53 -106 53 -225q0 -131 -64.5 -382t-64.5 -319q-4 -127 100 -127q51 0 113.5 69.5t107.5 196.5t37 263q-4 43 -34.5 159.5t-30.5 188.5q0 88 45 172h415q0 -88 -59 -355q-76 -328 -76 -481q0 -215 117 -307q-90 -78 -201 -78 z" glyph-name="ugrave" horiz-adv-x="1150" unicode="ù"/><glyph d="M383 1280l-18 10q-4 92 45 176t109.5 136.5t112.5 113t56 109.5l230 -187q-51 -66 -139.5 -111.5t-163 -67t-143.5 -66.5t-89 -113zM907 -37q-94 0 -156.5 61.5t-62.5 174.5q0 51 6 112q-55 -164 -153.5 -255t-227.5 -91q-121 0 -195.5 92.5t-74.5 272.5q0 104 41 294.5 t41 303.5q0 127 -68 262l392 -2q53 -106 53 -225q0 -131 -64.5 -382t-64.5 -319q-4 -127 100 -127q51 0 113.5 69.5t107.5 196.5t37 263q-4 43 -34.5 159.5t-30.5 188.5q0 88 45 172h415q0 -88 -59 -355q-76 -328 -76 -481q0 -215 117 -307q-90 -78 -201 -78z" glyph-name="uacute" horiz-adv-x="1150" unicode="ú"/><glyph d="M430 1298l-237 138q61 76 144 125t140.5 93t85.5 130h19q23 -63 65.5 -106.5t85.5 -65t106.5 -67.5t114.5 -109l-237 -129q2 74 -62.5 195.5t-81.5 201.5q-16 -84 -79.5 -206t-63.5 -200zM907 -37q-94 0 -156.5 61.5t-62.5 174.5q0 51 6 112q-55 -164 -153.5 -255 t-227.5 -91q-121 0 -195.5 92.5t-74.5 272.5q0 104 41 294.5t41 303.5q0 127 -68 262l392 -2q53 -106 53 -225q0 -131 -64.5 -382t-64.5 -319q-4 -127 100 -127q51 0 113.5 69.5t107.5 196.5t37 263q-4 43 -34.5 159.5t-30.5 188.5q0 88 45 172h415q0 -88 -59 -355 q-76 -328 -76 -481q0 -215 117 -307q-90 -78 -201 -78z" glyph-name="ucircumflex" horiz-adv-x="1150" unicode="û"/><glyph d="M406 1329q-66 0 -110 42t-44 106q0 68 44 110.5t110 42.5q61 0 103 -43t42 -110q0 -63 -42 -105.5t-103 -42.5zM755.5 1329q-63.5 0 -108.5 43t-45 105q0 66 45 109.5t108.5 43.5t104.5 -43t41 -110q0 -63 -41 -105.5t-104.5 -42.5zM907 -37q-94 0 -156.5 61.5 t-62.5 174.5q0 51 6 112q-55 -164 -153.5 -255t-227.5 -91q-121 0 -195.5 92.5t-74.5 272.5q0 104 41 294.5t41 303.5q0 127 -68 262l392 -2q53 -106 53 -225q0 -131 -64.5 -382t-64.5 -319q-4 -127 100 -127q51 0 113.5 69.5t107.5 196.5t37 263q-4 43 -34.5 159.5 t-30.5 188.5q0 88 45 172h415q0 -88 -59 -355q-76 -328 -76 -481q0 -215 117 -307q-90 -78 -201 -78z" glyph-name="udieresis" horiz-adv-x="1150" unicode="ü"/><glyph d="M334 1280l-19 10q-4 92 45.5 176t109.5 136.5t112.5 113t56.5 109.5l229 -187q-51 -66 -139 -111.5t-162.5 -67t-143.5 -66.5t-89 -113zM530 -319q-410 0 -409 260q0 78 49 120.5t121 42.5q90 0 162 -63q-33 -68 -33 -141q0 -76 34.5 -127.5t94.5 -51.5q63 0 108 71 t63.5 158t18.5 171q0 117 -39 117q-14 0 -110 -44t-189 -44q-215 0 -264 117.5t-6 420.5q12 90 -1 168t-36.5 124t-43 101.5t-17.5 102.5h407q55 -209 56 -402q0 -84 -9.5 -183t-16.5 -158.5t-6 -114t21.5 -78t67.5 -23.5q63 0 115.5 82t52.5 221q0 170 -51 316 q-18 51 -25.5 75.5t-17 70.5t-7 92t12.5 102h387q37 -154 37 -277q0 -115 -32 -207t-69.5 -142t-69.5 -121.5t-32 -147.5q0 -53 23.5 -95t52 -68t52.5 -74t24 -111q0 -94 -72 -154.5t-173.5 -83t-230.5 -22.5z" glyph-name="yacute" horiz-adv-x="1079" unicode="ý"/><glyph d="M469 -260h-428q8 117 43 225.5t70.5 180t64.5 185t27 242.5q-2 111 -47 254.5t-89 302t-44 308.5h428q-27 -72 -48.5 -183.5t-26.5 -180t3 -79.5q4 0 19.5 23.5t44 56.5t68.5 66t104.5 55.5t138.5 22.5q113 0 195.5 -93.5t119.5 -229.5t37 -294q0 -160 -53.5 -306 t-152.5 -240.5t-216 -94.5q-49 0 -87 15.5t-67.5 48t-47 59.5t-41 72t-33.5 61q-27 43 -29 16q-2 -8 -2 -40q0 -215 49 -453zM641 76q25 0 42 15t27.5 47t15.5 66t6 90t0 99t-2 112.5t-1 115.5q0 59 10.5 144t17.5 146.5t8 117.5t-19.5 80t-65.5 11q-80 -25 -140.5 -118 t-60.5 -289q0 -279 39 -458t123 -179z" glyph-name="thorn" horiz-adv-x="1189" unicode="þ"/><glyph d="M354 1329q-66 0 -109.5 42t-43.5 106q0 68 44 110.5t109 42.5q61 0 103.5 -43t42.5 -110q0 -63 -42.5 -105.5t-103.5 -42.5zM704.5 1329q-63.5 0 -108.5 43t-45 105q0 66 45 109.5t108.5 43.5t104.5 -43t41 -110q0 -63 -41 -105.5t-104.5 -42.5zM530 -319 q-410 0 -409 260q0 78 49 120.5t121 42.5q90 0 162 -63q-33 -68 -33 -141q0 -76 34.5 -127.5t94.5 -51.5q63 0 108 71t63.5 158t18.5 171q0 117 -39 117q-14 0 -110 -44t-189 -44q-215 0 -264 117.5t-6 420.5q12 90 -1 168t-36.5 124t-43 101.5t-17.5 102.5h407 q55 -209 56 -402q0 -84 -9.5 -183t-16.5 -158.5t-6 -114t21.5 -78t67.5 -23.5q63 0 115.5 82t52.5 221q0 170 -51 316q-18 51 -25.5 75.5t-17 70.5t-7 92t12.5 102h387q37 -154 37 -277q0 -115 -32 -207t-69.5 -142t-69.5 -121.5t-32 -147.5q0 -53 23.5 -95t52 -68t52.5 -74 t24 -111q0 -94 -72 -154.5t-173.5 -83t-230.5 -22.5z" glyph-name="ydieresis" horiz-adv-x="1079" unicode="ÿ"/><glyph d="M834 1667h-455v84h455v-84zM449 0h-418q-8 66 -8 131q0 111 37.5 220.5t81.5 185t82 178t38 200.5q0 72 -21.5 133.5t-47 101.5t-47 116.5t-21.5 175.5q68 -16 127 -17q57 0 196.5 26t213.5 26q178 0 312 -112t111 -302q-10 -80 -24 -187.5t-22.5 -167t-14.5 -137 t-6 -151.5q0 -178 84 -420h-418q-47 188 -47 385q0 18 3 76.5t3 85.5q-2 84 -74 84q-63 0 -88 -74q-80 -223 -80 -340q1 -108 48 -217zM602 686q57 0 74 74q4 23 15 79t15.5 81.5t12.5 74.5t12 82t7 75t3 81q0 88 -34.5 140t-81.5 57q-49 4 -83 -28t-34 -97 q0 -78 29.5 -176.5t29.5 -149.5q0 -109 -28 -227q-6 -29 13 -47.5t50 -18.5z" glyph-name="Amacron" horiz-adv-x="1126" unicode="Ā"/><glyph d="M805 1419h-455v84h455v-84zM324 -35q-127 0 -205 84t-78 203q0 45 12.5 83t24.5 63.5t47 53t51.5 40t67.5 34t65.5 26.5t73.5 26q127 45 193.5 99t66.5 154q0 92 -56.5 209t-117.5 119q-35 10 -41 -22q-8 -25 42 -119t52 -168q2 -94 -74.5 -151.5t-177.5 -57.5 q-80 0 -143 39q41 18 41 88q0 31 -13.5 98.5t-13.5 89.5q-2 90 127 176.5t377 86.5q166 0 275.5 -62.5t109.5 -193.5q0 -104 -81 -175t-218 -133q-18 -8 -60 -27.5t-60.5 -28.5t-51.5 -25.5t-48 -29t-33.5 -29.5t-26 -34.5t-7.5 -38.5q0 -41 28 -68.5t67 -27.5q59 0 110 64 q31 33 76 105.5t84 117.5t78 45q55 0 96 -52.5t65.5 -155.5t39 -208.5t26.5 -261.5h-506q82 90 177.5 288.5t95.5 284.5q0 31 -21 31q-18 0 -41.5 -47t-48.5 -118.5t-64.5 -153.5t-88 -154t-125 -119t-168.5 -47z" glyph-name="amacron" horiz-adv-x="1144" unicode="ā"/><glyph d="M614 1577q-135 0 -216 65.5t-81 184.5q0 68 19 125h26q12 -78 68.5 -117t183.5 -39q123 0 179.5 38t76.5 118h25q10 -41 10 -97q0 -121 -79 -199.5t-212 -78.5zM449 0h-418q-8 66 -8 131q0 111 37.5 220.5t81.5 185t82 178t38 200.5q0 72 -21.5 133.5t-47 101.5 t-47 116.5t-21.5 175.5q68 -16 127 -17q57 0 196.5 26t213.5 26q178 0 312 -112t111 -302q-10 -80 -24 -187.5t-22.5 -167t-14.5 -137t-6 -151.5q0 -178 84 -420h-418q-47 188 -47 385q0 18 3 76.5t3 85.5q-2 84 -74 84q-63 0 -88 -74q-80 -223 -80 -340q1 -108 48 -217z M602 686q57 0 74 74q4 23 15 79t15.5 81.5t12.5 74.5t12 82t7 75t3 81q0 88 -34.5 140t-81.5 57q-49 4 -83 -28t-34 -97q0 -78 29.5 -176.5t29.5 -149.5q0 -109 -28 -227q-6 -29 13 -47.5t50 -18.5z" glyph-name="Abreve" horiz-adv-x="1126" unicode="Ă"/><glyph d="M586 1329q-135 0 -216 65.5t-81 184.5q0 68 18 125h27q12 -78 68.5 -117t183.5 -39q123 0 179 38t77 118h24q10 -41 11 -96q0 -121 -79 -200t-212 -79zM324 -35q-127 0 -205 84t-78 203q0 45 12.5 83t24.5 63.5t47 53t51.5 40t67.5 34t65.5 26.5t73.5 26q127 45 193.5 99 t66.5 154q0 92 -56.5 209t-117.5 119q-35 10 -41 -22q-8 -25 42 -119t52 -168q2 -94 -74.5 -151.5t-177.5 -57.5q-80 0 -143 39q41 18 41 88q0 31 -13.5 98.5t-13.5 89.5q-2 90 127 176.5t377 86.5q166 0 275.5 -62.5t109.5 -193.5q0 -104 -81 -175t-218 -133 q-18 -8 -60 -27.5t-60.5 -28.5t-51.5 -25.5t-48 -29t-33.5 -29.5t-26 -34.5t-7.5 -38.5q0 -41 28 -68.5t67 -27.5q59 0 110 64q31 33 76 105.5t84 117.5t78 45q55 0 96 -52.5t65.5 -155.5t39 -208.5t26.5 -261.5h-506q82 90 177.5 288.5t95.5 284.5q0 31 -21 31 q-18 0 -41.5 -47t-48.5 -118.5t-64.5 -153.5t-88 -154t-125 -119t-168.5 -47z" glyph-name="abreve" horiz-adv-x="1144" unicode="ă"/><glyph d="M1108 0v-8q-82 -49 -89 -137t89 -150l-55 -117q-117 0 -175.5 52.5t-54.5 121t55.5 138t133.5 100.5h-328q-47 188 -47 385q0 18 3 76.5t3 85.5q-2 84 -74 84q-63 0 -88 -74q-80 -223 -80 -340q0 -109 48 -217h-418q-8 66 -8 131q0 111 37.5 220.5t81.5 185t82 178 t38 200.5q0 72 -21.5 133.5t-47 101.5t-47 116.5t-21.5 175.5q68 -16 127 -17q57 0 196.5 26t213.5 26q178 0 312 -112t111 -302q-10 -80 -24 -187.5t-22.5 -167t-14.5 -137t-6 -151.5q0 -178 84 -420h6zM676 760q4 23 15 79t15.5 81.5t12.5 74.5t12 82t7 75t3 81 q0 88 -34.5 140t-81.5 57q-49 4 -83 -28t-34 -97q0 -78 29.5 -176.5t29.5 -149.5q0 -109 -28 -227q-6 -29 13 -47.5t50 -18.5q58 0 74 74z" glyph-name="Aogonek" horiz-adv-x="1126" unicode="Ą"/><glyph d="M1114 2v-8q-82 -49 -89 -137t89 -150l-55 -117q-115 0 -174.5 52.5t-55 120t53.5 136t129 101.5h-404q82 90 177.5 288.5t95.5 284.5q0 31 -21 31q-18 0 -41.5 -47t-48.5 -118.5t-64.5 -153.5t-88 -154t-125 -119t-168.5 -47q-127 0 -205 84t-78 203q0 45 12.5 83 t24.5 63.5t47 53t51.5 40t67.5 34t65.5 26.5t73.5 26q127 45 193.5 99t66.5 154q0 92 -56.5 209t-117.5 119q-35 10 -41 -22q-8 -25 42 -119t52 -168q2 -94 -74.5 -151.5t-177.5 -57.5q-80 0 -143 39q41 18 41 88q0 31 -13.5 98.5t-13.5 89.5q-2 90 127 176.5t377 86.5 q166 0 275.5 -62.5t109.5 -193.5q0 -104 -81 -175t-218 -133q-18 -8 -60 -27.5t-60.5 -28.5t-51.5 -25.5t-48 -29t-33.5 -29.5t-26 -34.5t-7.5 -38.5q0 -41 28 -68.5t67 -27.5q59 0 110 64q31 33 76 105.5t84 117.5t78 45q55 0 96 -52.5t65.5 -155.5t39 -207.5t26.5 -260.5z " glyph-name="aogonek" horiz-adv-x="1144" unicode="ą"/><glyph d="M360 1534l-18 10q-4 92 45 176t109.5 136.5t113 113t56.5 109.5l229 -187q-51 -66 -139 -111.5t-163 -67t-144 -66.5t-89 -113zM539 -37q-274 2 -404.5 167t-114.5 464q20 451 146.5 665t421.5 214q139 0 232 -81t93 -200q0 -31 -1 -82t-1 -66q0 -61 8.5 -87.5 t34.5 -38.5q-57 -102 -176 -103q-76 0 -131 54.5t-55 152.5q0 43 21.5 165t21.5 156q0 94 -49 95q-72 0 -143.5 -339t-71.5 -530q0 -221 59 -395t123 -174q59 0 59 139q0 23 -4 86.5t-2 98.5q0 223 150 223q96 0 237 -78q-29 -20 -42 -68.5t-15 -102.5t-20.5 -114.5 t-52.5 -108.5t-116.5 -80t-207.5 -32z" glyph-name="Cacute" horiz-adv-x="1015" unicode="Ć"/><glyph d="M367 1280l-19 10q-4 92 45 176t109.5 136.5t113 113t56.5 109.5l229 -187q-51 -66 -139 -111.5t-163 -67t-143.5 -66.5t-88.5 -113zM553 -27q-221 0 -365.5 164t-146.5 424q-2 350 145.5 504t419.5 154q74 0 131.5 -10.5t94 -25t62.5 -42t39 -47t20.5 -57.5t8.5 -57 t3 -60q0 -37 3 -59.5t11 -48.5t25.5 -40t44.5 -20q-33 -68 -96.5 -105t-133.5 -37q-86 0 -145.5 47.5t-59.5 130.5q-2 121 93 293q43 80 30 95q-6 8 -28 8q-106 0 -183 -185.5t-75 -478.5q2 -180 22.5 -300t50 -169t66.5 -49q57 0 33 209q-18 141 52 209.5t179 68.5 q131 0 188 -73q-78 -16 -77 -137q0 -74 -11.5 -119t-50.5 -93.5t-126 -71t-224 -22.5z" glyph-name="cacute" horiz-adv-x="1073" unicode="ć"/><glyph d="M549 1536q-90 0 -140.5 59.5t-50.5 137t50.5 136t140.5 58.5q92 0 143 -56t51 -136t-51 -139.5t-143 -59.5zM539 -37q-274 2 -404.5 167t-114.5 464q20 451 146.5 665t421.5 214q139 0 232 -81t93 -200q0 -31 -1 -82t-1 -66q0 -61 8.5 -87.5t34.5 -38.5 q-57 -102 -176 -103q-76 0 -131 54.5t-55 152.5q0 43 21.5 165t21.5 156q0 94 -49 95q-72 0 -143.5 -339t-71.5 -530q0 -221 59 -395t123 -174q59 0 59 139q0 23 -4 86.5t-2 98.5q0 223 150 223q96 0 237 -78q-29 -20 -42 -68.5t-15 -102.5t-20.5 -114.5t-52.5 -108.5 t-116.5 -80t-207.5 -32z" glyph-name="Cdotaccent" horiz-adv-x="1015" unicode="Ċ"/><glyph d="M555 1282q-90 0 -140 59.5t-50 137t50 136t140 58.5q92 0 143.5 -56t51.5 -136t-51.5 -139.5t-143.5 -59.5zM553 -27q-221 0 -365.5 164t-146.5 424q-2 350 145.5 504t419.5 154q74 0 131.5 -10.5t94 -25t62.5 -42t39 -47t20.5 -57.5t8.5 -57t3 -60q0 -37 3 -59.5 t11 -48.5t25.5 -40t44.5 -20q-33 -68 -96.5 -105t-133.5 -37q-86 0 -145.5 47.5t-59.5 130.5q-2 121 93 293q43 80 30 95q-6 8 -28 8q-106 0 -183 -185.5t-75 -478.5q2 -180 22.5 -300t50 -169t66.5 -49q57 0 33 209q-18 141 52 209.5t179 68.5q131 0 188 -73 q-78 -16 -77 -137q0 -74 -11.5 -119t-50.5 -93.5t-126 -71t-224 -22.5z" glyph-name="cdotaccent" horiz-adv-x="1073" unicode="ċ"/><glyph d="M164 1919l237 137q0 -78 63.5 -199.5t80.5 -205.5q16 80 80.5 201.5t62.5 195.5l238 -129q-51 -63 -114.5 -109.5t-106.5 -68t-86.5 -64.5t-65.5 -106h-18q-29 86 -86.5 130t-140.5 93t-144 125zM539 -37q-274 2 -404.5 167t-114.5 464q20 451 146.5 665t421.5 214 q139 0 232 -81t93 -200q0 -31 -1 -82t-1 -66q0 -61 8.5 -87.5t34.5 -38.5q-57 -102 -176 -103q-76 0 -131 54.5t-55 152.5q0 43 21.5 165t21.5 156q0 94 -49 95q-72 0 -143.5 -339t-71.5 -530q0 -221 59 -395t123 -174q59 0 59 139q0 23 -4 86.5t-2 98.5q0 223 150 223 q96 0 237 -78q-29 -20 -42 -68.5t-15 -102.5t-20.5 -114.5t-52.5 -108.5t-116.5 -80t-207.5 -32z" glyph-name="Ccaron" horiz-adv-x="1015" unicode="Č"/><glyph d="M170 1665l238 137q0 -78 63.5 -199.5t79.5 -205.5q16 80 80.5 201.5t62.5 195.5l238 -129q-51 -63 -114.5 -109.5t-106.5 -68t-86 -64.5t-66 -106h-18q-29 86 -86.5 130t-140.5 93t-144 125zM553 -27q-221 0 -365.5 164t-146.5 424q-2 350 145.5 504t419.5 154 q74 0 131.5 -10.5t94 -25t62.5 -42t39 -47t20.5 -57.5t8.5 -57t3 -60q0 -37 3 -59.5t11 -48.5t25.5 -40t44.5 -20q-33 -68 -96.5 -105t-133.5 -37q-86 0 -145.5 47.5t-59.5 130.5q-2 121 93 293q43 80 30 95q-6 8 -28 8q-106 0 -183 -185.5t-75 -478.5q2 -180 22.5 -300 t50 -169t66.5 -49q57 0 33 209q-18 141 52 209.5t179 68.5q131 0 188 -73q-78 -16 -77 -137q0 -74 -11.5 -119t-50.5 -93.5t-126 -71t-224 -22.5z" glyph-name="ccaron" horiz-adv-x="1073" unicode="č"/><glyph d="M201 1919l237 137q0 -78 63.5 -199.5t80.5 -205.5q16 80 80.5 201.5t62.5 195.5l238 -129q-51 -63 -115 -109.5t-107 -68t-86 -64.5t-65 -106h-19q-29 86 -86 130t-140 93t-144 125zM457 0h-391q-45 193 6 340q14 41 38.5 91t42 83t35 85t16.5 95t-14 117 q-31 131 -72.5 236.5t-59 179t-17.5 211.5h477q72 0 140.5 -6.5t151.5 -27t143.5 -53t101.5 -92t41 -139.5q0 -82 -30 -205.5t-30 -177.5q0 -41 39 -153.5t39 -235.5q0 -78 -28.5 -138t-84 -96t-116 -60.5t-142 -35t-144 -14.5t-142.5 -4zM532 53q94 0 167 102.5t73 247.5 q0 141 -55 332q-25 70 -29 149t4 181t8 141q0 170 -147 170q-100 0 -127 -145q-25 -119 8 -518q2 -39 4 -60q8 -94 4 -181t-5 -163t3 -133t26.5 -90t65.5 -33z" glyph-name="Dcaron" horiz-adv-x="1155" unicode="Ď"/><glyph d="M1137 1196q78 139 26 408h267q0 -150 -75 -264.5t-218 -143.5zM233 -35q-88 0 -121.5 41t-33.5 121q0 45 16.5 170t16.5 199q0 92 -34 224t-34 224q0 274 256 275q100 0 179 -44.5t124 -106.5t77 -124.5t53.5 -106.5t37.5 -44t16 63q0 61 -62 186t-124.5 263.5 t-62.5 234.5h419q39 -127 39 -285q0 -125 -34.5 -364.5t-34.5 -349.5q0 -131 59 -281.5t59 -259.5h-423q68 160 67 242q0 33 -14 32q-10 0 -17 -14q-63 -119 -168.5 -207t-255.5 -88zM430 113q86 0 185.5 153.5t99.5 356.5q0 121 -33 220t-82 155.5t-96 86t-82 29.5 q-37 0 -37 -37q0 -20 18.5 -81.5t37 -167t18.5 -230.5q0 -111 -41 -253t-41 -171q0 -61 53 -61z" glyph-name="dcaron" horiz-adv-x="1470" unicode="ď"/><glyph d="M1012 737q0 -41 37.5 -153.5t37.5 -235.5q0 -92 -44 -159.5t-107.5 -103.5t-159.5 -55.5t-171 -24.5t-173 -5h-391q-45 193 6 340q10 33 68.5 151.5t62.5 196.5h-108v41h108q-4 41 -12 82q-31 131 -73 236.5t-59.5 179t-17.5 211.5h478q72 0 140 -6.5t150 -27t142.5 -53 t101.5 -92t41 -139.5q0 -82 -28.5 -206t-28.5 -177zM508 53q94 0 167 102.5t73 247.5q0 141 -56 332q-25 70 -29 149t4.5 181t8.5 141q0 170 -150 170q-100 0 -127 -145q-25 -123 9 -502h116v-41h-112q0 -6 1 -17.5t1 -17.5q8 -94 4 -181t-5 -163t3 -133t26.5 -90t65.5 -33z " glyph-name="Dcroat" horiz-adv-x="1146" unicode="Đ"/><glyph d="M995 1298h62v-41h-62v-2q0 -125 -34.5 -364.5t-34.5 -349.5q0 -131 59 -281.5t59 -259.5h-423q68 160 67 242q0 33 -14 32q-10 0 -17 -14q-63 -119 -168.5 -207t-255.5 -88q-88 0 -121.5 41t-33.5 121q0 45 16.5 170t16.5 199q0 92 -34 224t-34 224q0 274 256 275 q100 0 179 -44.5t124 -106.5t77 -124.5t53.5 -106.5t37.5 -44t16 63q0 33 -17 83t-37.5 92t-57.5 114t-56 112h-151v41h133q-63 145 -63 242h419q33 -103 39 -242zM430 113q86 0 185.5 153.5t99.5 356.5q0 121 -33 220t-82 155.5t-96 86t-82 29.5q-37 0 -37 -37 q0 -20 18.5 -81.5t37 -167t18.5 -230.5q0 -111 -41 -253t-41 -171q0 -61 53 -61z" glyph-name="dcroat" horiz-adv-x="1058" unicode="đ"/><glyph d="M735 1673h-454v84h454v-84zM520 -35q-63 0 -127.5 10.5t-152.5 41t-143.5 104.5t-55.5 182q0 78 58.5 207t58.5 219q0 94 -58.5 221t-58.5 205q0 315 475 315q242 0 337 -51t95 -153q0 -25 -11 -77t-11 -79q0 -41 14 -62.5t45 -13.5q-29 -76 -80 -114.5t-110 -38.5 q-72 0 -124.5 54t-52.5 142q0 61 34 159.5t34 143.5q0 57 -61 58q-123 0 -174 -240q-27 -154 -27 -258q0 -88 26.5 -136t86.5 -36q25 6 96.5 31.5t105.5 25.5q41 0 69 -23.5t28 -58.5q0 -47 -45 -69q-76 72 -185 61q-90 -8 -141 -74.5t-53 -175.5q-2 -156 51 -308t123 -161 q55 -12 73 60q14 51 -19.5 157.5t-35.5 157.5q0 92 53.5 151.5t128.5 61.5q61 2 114.5 -38t82.5 -117q-45 10 -55 -46.5t6 -115.5q6 -43 8 -87t-24.5 -86t-69.5 -75t-128 -53.5t-200 -20.5z" glyph-name="Emacron" horiz-adv-x="1026" unicode="Ē"/><glyph d="M741 1419h-454v84h454v-84zM522 -35q-219 0 -350 126t-131 376q0 33 6 98q8 96 14.5 153.5t22.5 135.5t37.5 123t59.5 97t88 79t124 45.5t168 18.5q82 0 145.5 -12.5t129 -45.5t98.5 -105.5t24 -181.5q-25 -299 -589 -309q-4 -35 -4 -108q0 -176 39.5 -312.5 t103.5 -136.5q53 0 69.5 47t16.5 166v84q0 102 61.5 159.5t149.5 57.5q72 0 120 -38t48 -109q-55 -2 -55 -166q0 -113 -118 -177.5t-278 -64.5zM369 616q82 -6 148.5 52.5t101 145.5t52 168t17.5 136q0 66 -45 66q-80 0 -145.5 -97.5t-97 -226.5t-31.5 -244z" glyph-name="emacron" horiz-adv-x="1007" unicode="ē"/><glyph d="M516 1536q-90 0 -140 59.5t-50 137t50 136t140 58.5q92 0 143.5 -56t51.5 -136t-51.5 -139.5t-143.5 -59.5zM520 -35q-63 0 -127.5 10.5t-152.5 41t-143.5 104.5t-55.5 182q0 78 58.5 207t58.5 219q0 94 -58.5 221t-58.5 205q0 315 475 315q242 0 337 -51t95 -153 q0 -25 -11 -77t-11 -79q0 -41 14 -62.5t45 -13.5q-29 -76 -80 -114.5t-110 -38.5q-72 0 -124.5 54t-52.5 142q0 61 34 159.5t34 143.5q0 57 -61 58q-123 0 -174 -240q-27 -154 -27 -258q0 -88 26.5 -136t86.5 -36q25 6 96.5 31.5t105.5 25.5q41 0 69 -23.5t28 -58.5 q0 -47 -45 -69q-76 72 -185 61q-90 -8 -141 -74.5t-53 -175.5q-2 -156 51 -308t123 -161q55 -12 73 60q14 51 -19.5 157.5t-35.5 157.5q0 92 53.5 151.5t128.5 61.5q61 2 114.5 -38t82.5 -117q-45 10 -55 -46.5t6 -115.5q6 -43 8 -87t-24.5 -86t-69.5 -75t-128 -53.5 t-200 -20.5z" glyph-name="Edotaccent" horiz-adv-x="1026" unicode="Ė"/><glyph d="M522 1282q-90 0 -140 59.5t-50 137t50 136t140 58.5q92 0 143.5 -56t51.5 -136t-51.5 -139.5t-143.5 -59.5zM522 -35q-219 0 -350 126t-131 376q0 33 6 98q8 96 14.5 153.5t22.5 135.5t37.5 123t59.5 97t88 79t124 45.5t168 18.5q82 0 145.5 -12.5t129 -45.5t98.5 -105.5 t24 -181.5q-25 -299 -589 -309q-4 -35 -4 -108q0 -176 39.5 -312.5t103.5 -136.5q53 0 69.5 47t16.5 166v84q0 102 61.5 159.5t149.5 57.5q72 0 120 -38t48 -109q-55 -2 -55 -166q0 -113 -118 -177.5t-278 -64.5zM369 616q82 -6 148.5 52.5t101 145.5t52 168t17.5 136 q0 66 -45 66q-80 0 -145.5 -97.5t-97 -226.5t-31.5 -244z" glyph-name="edotaccent" horiz-adv-x="1007" unicode="ė"/><glyph d="M786 604q61 2 114.5 -38t82.5 -117q-45 10 -55 -46.5t6 -115.5q51 -221 -184 -293q-61 -51 -57.5 -132t89.5 -130l-55 -117q-129 0 -186.5 62.5t-40 144.5t89.5 145q-23 -2 -70 -2q-63 0 -127.5 10.5t-152.5 41t-143.5 104.5t-55.5 182q0 78 58.5 207t58.5 219 q0 94 -58.5 221t-58.5 205q0 315 475 315q242 0 337 -51t95 -153q0 -25 -11 -77t-11 -79q0 -41 14 -62.5t45 -13.5q-29 -76 -80 -114.5t-110 -38.5q-72 0 -124.5 54t-52.5 142q0 61 34 159.5t34 143.5q0 57 -61 58q-123 0 -174 -240q-27 -154 -27 -258q0 -88 26.5 -136 t86.5 -36q25 6 96.5 31.5t105.5 25.5q41 0 69 -23.5t28 -58.5q0 -47 -45 -69q-76 72 -185 61q-90 -8 -141 -74.5t-53 -175.5q-2 -156 51 -308t123 -161q55 -12 73 60q14 51 -19.5 157.5t-35.5 157.5q0 92 53 151.5t129 61.5z" glyph-name="Eogonek" horiz-adv-x="1026" unicode="Ę"/><glyph d="M805 520q72 0 120 -38t48 -109q-55 -2 -55 -166q0 -102 -105 -170v-2q-82 -49 -89 -137t89 -150l-55 -117q-125 0 -182.5 58.5t-45 136.5t75.5 143q-57 -4 -84 -4q-219 0 -350 126t-131 376q0 33 6 98q8 96 14.5 153.5t22.5 135.5t37.5 123t59.5 97t88 79t124 45.5 t168 18.5q82 0 145.5 -12.5t129 -45.5t98.5 -105.5t24 -181.5q-25 -299 -589 -309q-4 -35 -4 -108q0 -176 39.5 -312.5t103.5 -136.5q53 0 69.5 47t16.5 166v84q0 102 61.5 159.5t149.5 57.5zM643 1184q-80 0 -145.5 -97.5t-97 -226.5t-31.5 -244q82 -6 148.5 52.5 t101 145.5t52 168t17.5 136q0 66 -45 66z" glyph-name="eogonek" horiz-adv-x="1007" unicode="ę"/><glyph d="M131 1919l238 137q0 -78 63.5 -199.5t79.5 -205.5q16 80 80.5 201.5t62.5 195.5l238 -129q-51 -63 -114.5 -109.5t-106.5 -68t-86 -64.5t-66 -106h-18q-29 86 -86.5 130t-140.5 93t-144 125zM520 -35q-63 0 -127.5 10.5t-152.5 41t-143.5 104.5t-55.5 182q0 78 58.5 207 t58.5 219q0 94 -58.5 221t-58.5 205q0 315 475 315q242 0 337 -51t95 -153q0 -25 -11 -77t-11 -79q0 -41 14 -62.5t45 -13.5q-29 -76 -80 -114.5t-110 -38.5q-72 0 -124.5 54t-52.5 142q0 61 34 159.5t34 143.5q0 57 -61 58q-123 0 -174 -240q-27 -154 -27 -258 q0 -88 26.5 -136t86.5 -36q25 6 96.5 31.5t105.5 25.5q41 0 69 -23.5t28 -58.5q0 -47 -45 -69q-76 72 -185 61q-90 -8 -141 -74.5t-53 -175.5q-2 -156 51 -308t123 -161q55 -12 73 60q14 51 -19.5 157.5t-35.5 157.5q0 92 53.5 151.5t128.5 61.5q61 2 114.5 -38t82.5 -117 q-45 10 -55 -46.5t6 -115.5q6 -43 8 -87t-24.5 -86t-69.5 -75t-128 -53.5t-200 -20.5z" glyph-name="Ecaron" horiz-adv-x="1026" unicode="Ě"/><glyph d="M137 1665l238 137q0 -78 63.5 -199.5t79.5 -205.5q16 80 81 201.5t63 195.5l237 -129q-51 -63 -114.5 -109.5t-106.5 -68t-86 -64.5t-66 -106h-18q-29 86 -86 130t-140.5 93t-144.5 125zM522 -35q-219 0 -350 126t-131 376q0 33 6 98q8 96 14.5 153.5t22.5 135.5 t37.5 123t59.5 97t88 79t124 45.5t168 18.5q82 0 145.5 -12.5t129 -45.5t98.5 -105.5t24 -181.5q-25 -299 -589 -309q-4 -35 -4 -108q0 -176 39.5 -312.5t103.5 -136.5q53 0 69.5 47t16.5 166v84q0 102 61.5 159.5t149.5 57.5q72 0 120 -38t48 -109q-55 -2 -55 -166 q0 -113 -118 -177.5t-278 -64.5zM369 616q82 -6 148.5 52.5t101 145.5t52 168t17.5 136q0 66 -45 66q-80 0 -145.5 -97.5t-97 -226.5t-31.5 -244z" glyph-name="ecaron" horiz-adv-x="1007" unicode="ě"/><glyph d="M535 1583q-135 0 -216 65.5t-81 184.5q0 68 18 125h27q12 -78 68.5 -117t183.5 -39q123 0 179 38t77 118h24q10 -41 10 -96q0 -121 -78.5 -200t-211.5 -79zM518 -35q-283 0 -405.5 105.5t-83.5 339.5q31 207 29.5 307t-29.5 350q-23 203 122.5 300t366.5 97 q174 0 307 -58t133 -146q0 -39 -6 -86.5t-9 -73t7.5 -59t36.5 -66.5q-68 -25 -136.5 -27t-124.5 18.5t-85 77t-14 138.5q20 113 -4.5 173t-73.5 60q-74 0 -139.5 -118.5t-65.5 -321.5q0 -123 27 -258q37 -193 41 -441q4 -158 32.5 -217t124.5 -59q45 0 61.5 33t6.5 92 t-25.5 112.5t-42 126t-34.5 101.5q-41 154 44 241t218 87q158 0 235 -105q-41 -2 -64.5 -32.5t-28.5 -81t-3 -95.5t10 -92q20 -92 10 -170t-49 -134t-136 -87t-253 -31z" glyph-name="Gbreve" horiz-adv-x="1075" unicode="Ğ"/><glyph d="M530 1329q-135 0 -216 65.5t-81 184.5q0 68 19 125h27q12 -78 68 -117t183 -39q123 0 179.5 38t76.5 118h25q10 -41 10 -96q0 -121 -79 -200t-212 -79zM522 -436q-324 0 -473 200l141 158q170 -125 285 -125q135 0 198.5 101.5t41.5 220.5q-53 -152 -262 -152 q-162 0 -286 87t-124 214q0 66 22.5 196t22.5 185q0 76 -13.5 154t-13.5 137q0 135 141.5 209t340.5 74q387 0 411 -217q8 -94 7.5 -151.5t-6 -147t-5.5 -121.5q0 -66 30 -243t32 -259q8 -219 -132.5 -369.5t-357.5 -150.5zM532.5 92q59.5 0 100.5 52.5t41 144.5 q0 63 -16.5 189t-16.5 173q0 80 4 225.5t4 194.5q0 117 -104 117q-74 0 -112 -43t-25 -135q8 -61 9 -129t-3 -141.5t-4 -102.5q0 -92 -13.5 -219t-13.5 -174q0 -68 45 -110t104.5 -42z" glyph-name="gbreve" horiz-adv-x="1060" unicode="ğ"/><glyph d="M535 1536q-90 0 -140.5 59.5t-50.5 137t50 136t141 58.5q92 0 143 -56t51 -136t-51 -139.5t-143 -59.5zM518 -35q-283 0 -405.5 105.5t-83.5 339.5q31 207 29.5 307t-29.5 350q-23 203 122.5 300t366.5 97q174 0 307 -58t133 -146q0 -39 -6 -86.5t-9 -73t7.5 -59 t36.5 -66.5q-68 -25 -136.5 -27t-124.5 18.5t-85 77t-14 138.5q20 113 -4.5 173t-73.5 60q-74 0 -139.5 -118.5t-65.5 -321.5q0 -123 27 -258q37 -193 41 -441q4 -158 32.5 -217t124.5 -59q45 0 61.5 33t6.5 92t-25.5 112.5t-42 126t-34.5 101.5q-41 154 44 241t218 87 q158 0 235 -105q-41 -2 -64.5 -32.5t-28.5 -81t-3 -95.5t10 -92q20 -92 10 -170t-49 -134t-136 -87t-253 -31z" glyph-name="Gdotaccent" horiz-adv-x="1075" unicode="Ġ"/><glyph d="M530 1282q-90 0 -140 59.5t-50 137t50 136t140 58.5q92 0 143.5 -56t51.5 -136t-51.5 -139.5t-143.5 -59.5zM522 -436q-324 0 -473 200l141 158q170 -125 285 -125q135 0 198.5 101.5t41.5 220.5q-53 -152 -262 -152q-162 0 -286 87t-124 214q0 66 22.5 196t22.5 185 q0 76 -13.5 154t-13.5 137q0 135 141.5 209t340.5 74q387 0 411 -217q8 -94 7.5 -151.5t-6 -147t-5.5 -121.5q0 -66 30 -243t32 -259q8 -219 -132.5 -369.5t-357.5 -150.5zM532.5 92q59.5 0 100.5 52.5t41 144.5q0 63 -16.5 189t-16.5 173q0 80 4 225.5t4 194.5 q0 117 -104 117q-74 0 -112 -43t-25 -135q8 -61 9 -129t-3 -141.5t-4 -102.5q0 -92 -13.5 -219t-13.5 -174q0 -68 45 -110t104.5 -42z" glyph-name="gdotaccent" horiz-adv-x="1060" unicode="ġ"/><glyph d="M518 -35q-283 0 -405.5 105.5t-83.5 339.5q31 207 29.5 307t-29.5 350q-23 203 122.5 300t366.5 97q174 0 307 -58t133 -146q0 -39 -6 -86.5t-9 -73t7.5 -59t36.5 -66.5q-68 -25 -136.5 -27t-124.5 18.5t-85 77t-14 138.5q20 113 -4.5 173t-73.5 60q-74 0 -139.5 -118.5 t-65.5 -321.5q0 -123 27 -258q37 -193 41 -441q4 -158 32.5 -217t124.5 -59q45 0 61.5 33t6.5 92t-25.5 112.5t-42 126t-34.5 101.5q-41 154 44 241t218 87q158 0 235 -105q-41 -2 -64.5 -32.5t-28.5 -81t-3 -95.5t10 -92q20 -92 10 -170t-49 -134t-136 -87t-253 -31z M410 -573l-41 14q31 47 34 106.5t-7.5 104.5t-2.5 103.5t47 107.5h250q-51 -53 -93 -148.5t-84 -174t-103 -113.5z" glyph-name="Gcommaaccent" horiz-adv-x="1075" unicode="Ģ"/><glyph d="M698 1368h-264q-27 119 20.5 251t180.5 191l43 -47q-68 -47 -83 -101t4 -94t54 -101.5t45 -98.5zM522 -436q-324 0 -473 200l141 158q170 -125 285 -125q135 0 198.5 101.5t41.5 220.5q-53 -152 -262 -152q-162 0 -286 87t-124 214q0 66 22.5 196t22.5 185 q0 76 -13.5 154t-13.5 137q0 135 141.5 209t340.5 74q387 0 411 -217q8 -94 7.5 -151.5t-6 -147t-5.5 -121.5q0 -66 30 -243t32 -259q8 -219 -132.5 -369.5t-357.5 -150.5zM532.5 92q59.5 0 100.5 52.5t41 144.5q0 63 -16.5 189t-16.5 173q0 80 4 225.5t4 194.5 q0 117 -104 117q-74 0 -112 -43t-25 -135q8 -61 9 -129t-3 -141.5t-4 -102.5q0 -92 -13.5 -219t-13.5 -174q0 -68 45 -110t104.5 -42z" glyph-name="gcommaaccent" horiz-adv-x="1060" unicode="ģ"/><glyph d="M936 780q0 -158 79 -450.5t85 -329.5h-486q-20 80 -20 162q0 143 62.5 329.5t62.5 213.5q0 43 -72 51q-55 8 -110 4q-57 -2 -94 -89t-37 -216q0 -236 116 -455h-491q0 131 77.5 395t77.5 369q0 94 -23.5 175t-51 132t-47 147.5t-13.5 219.5h445q8 -104 -54 -346h287 q-6 18 -32.5 86.5t-37 99.5t-21.5 79t-11 81h415q12 -104 13 -176q0 -119 -30 -198t-59.5 -141.5t-29.5 -142.5zM614 801q154 0 154 117q0 51 -25 131h-311q-14 -72 -14 -113q0 -63 28.5 -97t108.5 -38h59z" glyph-name="Hbar" horiz-adv-x="1128" unicode="Ħ"/><glyph d="M920 631q0 -59 32.5 -114.5t70.5 -97.5t70.5 -126t32.5 -195q0 -25 -8 -98h-418q47 135 30 242.5t-57 164t-82 126t-42 129.5q0 88 69.5 187t139 175t69.5 104q0 33 -61 33q-131 0 -241.5 -144.5t-110.5 -383.5q0 -80 33.5 -170t60.5 -203t14 -260h-448 q-37 104 -15.5 201.5t62.5 155t81 153.5t40 199q0 43 -83 226t-104 306h-86v41h82q-4 41 -4 64q0 102 43 194h418q0 -115 -74 -258h123v-41h-145q-6 -10 -25.5 -45t-27 -48t-21.5 -43t-21.5 -48.5t-15.5 -45t-11 -50t-3 -48.5q0 -84 10 -143q33 121 97.5 212t141 140 t150.5 73t139 24q129 0 206 -53.5t75 -147.5q-2 -59 -21.5 -102.5t-46 -69t-54.5 -52t-46 -67.5t-18 -96z" glyph-name="hbar" horiz-adv-x="1148" unicode="ħ"/><glyph d="M485 1673h-454v84h454v-84zM510 0h-465q-4 41 -4 57q0 90 104.5 292t104.5 300q0 86 -57 158q-94 117 -133.5 232.5t-36 194.5t25.5 204h449q-145 -236 -146 -420q0 -123 68 -211q74 -98 74 -305q0 -49 -7.5 -169t-3.5 -198t27 -135z" glyph-name="Imacron" horiz-adv-x="536" unicode="Ī"/><glyph d="M477 1419h-454v84h454v-84zM473 0h-424q-12 100 2.5 179t44 125t62 95.5t56.5 88t26 104t-29 145.5q-25 68 -71 152t-69.5 149.5t-23.5 145.5h422q12 -90 -4 -164t-44 -113t-52.5 -90t-27.5 -98t30 -135q45 -104 68.5 -195.5t26.5 -138.5t4 -131t3 -119z" glyph-name="imacron" horiz-adv-x="518" unicode="ī"/><glyph d="M510 0v-8q-82 -49 -89 -137t89 -150l-55 -117q-117 0 -175.5 52.5t-54.5 121t55.5 138t133.5 100.5h-369q-4 41 -4 57q0 90 104.5 292t104.5 300q0 86 -57 158q-94 117 -133.5 232.5t-36 194.5t25.5 204h449q-145 -236 -146 -420q0 -123 68 -211q74 -98 74 -305 q0 -49 -7.5 -169t-3.5 -198t27 -135z" glyph-name="Iogonek" horiz-adv-x="536" unicode="Į"/><glyph d="M258 1282q-90 0 -140 59.5t-50 137t50 136t140 58.5q92 0 143.5 -56t51.5 -136t-51.5 -139.5t-143.5 -59.5zM47 1184h422q12 -90 -4 -164t-44 -113t-52.5 -90t-27.5 -98t30 -135q45 -104 68.5 -195.5t26.5 -138.5t4 -131t3 -119v-8q-82 -49 -89 -137t89 -150l-55 -117 q-117 0 -175.5 52.5t-54 121t55.5 138t133 100.5h-328q-12 100 2.5 179t44 125t62 95.5t56.5 88t26 104t-29 145.5q-25 68 -71 152t-69.5 149.5t-23.5 145.5z" glyph-name="iogonek" horiz-adv-x="518" unicode="į"/><glyph d="M266 1536q-90 0 -140 59.5t-50 137t50 136t140 58.5q92 0 143.5 -56t51.5 -136t-51.5 -139.5t-143.5 -59.5zM510 0h-465q-4 41 -4 57q0 90 104.5 292t104.5 300q0 86 -57 158q-94 117 -133.5 232.5t-36 194.5t25.5 204h449q-145 -236 -146 -420q0 -123 68 -211 q74 -98 74 -305q0 -49 -7.5 -169t-3.5 -198t27 -135z" glyph-name="Idotaccent" horiz-adv-x="536" unicode="İ"/><glyph d="M473 0h-424q-12 100 2.5 179t44 125t62 95.5t56.5 88t26 104t-29 145.5q-25 68 -71 152t-69.5 149.5t-23.5 145.5h422q12 -90 -4 -164t-44 -113t-52.5 -90t-27.5 -98t30 -135q45 -104 68.5 -195.5t26.5 -138.5t4 -131t3 -119z" glyph-name="dotlessi" horiz-adv-x="518" unicode="ı"/><glyph d="M463 0h-418q-16 68 -16 139q0 94 34.5 179t75.5 137.5t76 125t35 146.5q0 59 -19.5 110.5t-45 98.5t-49 107.5t-35 161t-1.5 233.5h451q6 -100 -19.5 -188.5t-63.5 -145.5t-73 -131t-49 -145.5t6 -188.5q143 399 309 598t408 201v-398q-16 0 -65.5 1t-80 1t-85 -7 t-94 -21.5t-92 -43t-93.5 -70.5t-84 -106.5t-78 -148.5q27 14 71 58.5t83 87.5t99.5 76.5t121.5 33.5q94 0 164 -85t103.5 -220t45 -288.5t0.5 -307.5h-444q18 258 -27 456.5t-112 200.5q-25 2 -55.5 -28.5t-51.5 -77.5q-25 -57 -24.5 -117.5t14.5 -110t39 -143.5t39 -180z M442 -573l-41 14q31 47 34 106.5t-7 104.5t-2 103.5t47 107.5h250q-51 -53 -93 -148.5t-84.5 -174t-103.5 -113.5z" glyph-name="Kcommaaccent" horiz-adv-x="1138" unicode="Ķ"/><glyph d="M516 0h-459q-16 68 -16 139q0 94 35 179t76 137.5t75.5 125t34.5 146.5q0 86 -38 205t-75.5 274.5t-37.5 333.5h456q2 -18 2 -53q0 -131 -50 -294t-100 -291t-50 -175q0 -25 12 -37t33.5 12.5t38.5 65.5q92 229 178 337.5t223 108.5q70 0 150.5 -39.5t130.5 -39.5v-322 q-33 -25 -74 -25q-53 0 -147.5 75t-151.5 75q-94 0 -163 -48t-69 -87q0 -27 50 -27q31 0 78 14.5t77 14.5q63 0 114.5 -25.5t92.5 -95.5t67.5 -118t58.5 -170t42 -171t41 -196q4 -18 6 -29h-512q68 141 68 297q0 154 -62.5 264.5t-144.5 110.5q-45 0 -79 -49.5t-34 -106.5 q0 -61 52.5 -234t70.5 -282zM473 -573l-41 14q31 47 34 106.5t-7 104.5t-2 103.5t47 107.5h250q-51 -53 -93.5 -148.5t-84.5 -174t-103 -113.5z" glyph-name="kcommaaccent" horiz-adv-x="1198" unicode="ķ"/><glyph d="M168 1534l-18 10q-4 92 45 176t109.5 136.5t112.5 113t56 109.5l229 -187q-51 -66 -139 -111.5t-162.5 -67t-143.5 -66.5t-89 -113zM477 -35q-225 0 -339.5 104.5t-114.5 276.5q0 113 74.5 350.5t74.5 386.5q0 152 -51 355h475q10 -160 -47 -362t-122 -382t-65 -276 q-2 -190 79 -280.5t194 -90.5q61 0 61 39q0 16 -21.5 33.5t-48 33t-51 51.5t-28.5 83q-14 115 43 172t143 57q57 0 106.5 -24.5t69.5 -65.5q-72 -43 -57 -125q12 -53 14 -92t-14 -86t-55 -78t-120 -53.5t-200 -26.5z" glyph-name="Lacute" horiz-adv-x="931" unicode="Ĺ"/><glyph d="M102 1655l-18 10q-4 92 45 176t109.5 136.5t112.5 112.5t57 110l229 -187q-51 -66 -139 -112t-163 -67.5t-144 -66t-89 -112.5zM494 0h-455q0 111 28.5 217.5t65.5 177t72 156.5t47 155.5t-8 172.5q-33 135 -82 237.5t-74 184t-25 239.5h484q0 -92 -25.5 -167t-60.5 -119 t-72 -93t-60.5 -89t-25.5 -109.5t33 -151.5q16 -41 52 -132t44 -114.5t26.5 -92.5t21.5 -122t8.5 -141t5.5 -209z" glyph-name="lacute" horiz-adv-x="573" unicode="ĺ"/><glyph d="M477 -35q-225 0 -339.5 104.5t-114.5 276.5q0 113 74.5 350.5t74.5 386.5q0 152 -51 355h475q10 -160 -47 -362t-122 -382t-65 -276q-2 -190 79 -280.5t194 -90.5q61 0 61 39q0 16 -21.5 33.5t-48 33t-51 51.5t-28.5 83q-14 115 43 172t143 57q57 0 106.5 -24.5 t69.5 -65.5q-72 -43 -57 -125q12 -53 14 -92t-14 -86t-55 -78t-120 -53.5t-200 -26.5zM369 -573l-41 14q31 47 34 106.5t-7.5 104.5t-2.5 103.5t47 107.5h250q-51 -53 -93 -148.5t-84 -174t-103 -113.5z" glyph-name="Lcommaaccent" horiz-adv-x="931" unicode="Ļ"/><glyph d="M494 0h-455q0 111 28.5 217.5t65.5 177t72 156.5t47 155.5t-8 172.5q-33 135 -82 237.5t-74 184t-25 239.5h484q0 -92 -25.5 -167t-60.5 -119t-72 -93t-60.5 -89t-25.5 -109.5t33 -151.5q16 -41 52 -132t44 -114.5t26.5 -92.5t21.5 -122t8.5 -141t5.5 -209zM127 -573 l-41 14q31 47 34 106.5t-7.5 104.5t-2 103.5t47.5 107.5h250q-51 -53 -93.5 -148.5t-84.5 -174t-103 -113.5z" glyph-name="lcommaaccent" horiz-adv-x="573" unicode="ļ"/><glyph d="M477 -35q-225 0 -339.5 104.5t-114.5 276.5q0 113 74.5 350.5t74.5 386.5q0 152 -51 355h475q10 -160 -47 -362t-122 -382t-65 -276q-2 -190 79 -280.5t194 -90.5q61 0 61 39q0 16 -21.5 33.5t-48 33t-51 51.5t-28.5 83q-14 115 43 172t143 57q57 0 106.5 -24.5 t69.5 -65.5q-72 -43 -57 -125q12 -53 14 -92t-14 -86t-55 -78t-120 -53.5t-200 -26.5zM905 1014q78 139 27 407h266q0 -150 -75 -264t-218 -143z" glyph-name="Lcaron" horiz-adv-x="1323" unicode="Ľ"/><glyph d="M610 1137q45 82 48.5 188.5t-23.5 218.5h266q0 -152 -74 -265t-217 -142zM494 0h-455q0 111 28.5 217.5t65.5 177t72 156.5t47 155.5t-8 172.5q-33 135 -82 237.5t-74 184t-25 239.5h484q0 -92 -25.5 -167t-60.5 -119t-72 -93t-60.5 -89t-25.5 -109.5t33 -151.5 q16 -41 52 -132t44 -114.5t26.5 -92.5t21.5 -122t8.5 -141t5.5 -209z" glyph-name="lcaron" horiz-adv-x="927" unicode="ľ"/><glyph d="M909 426q-72 -43 -57 -125q12 -53 14 -92t-14 -86t-55 -78t-120 -53.5t-200 -26.5q-225 0 -339.5 104.5t-114.5 276.5q0 106 43 250l-97 -39l-20 57l141 58q82 262 82 411q0 152 -51 355h475q6 -96 -13.5 -212t-44 -197t-67.5 -204l111 45l20 -57l-158 -63 q-82 -231 -82 -332q-2 -190 79 -280.5t194 -90.5q61 0 61 39q0 16 -21.5 33.5t-48 33t-51 51.5t-28.5 83q-14 115 43 172t143 57q57 0 106.5 -24.5t69.5 -65.5z" glyph-name="Lslash" horiz-adv-x="931" unicode="Ł"/><glyph d="M578 938l20 -57l-250 -101q10 -29 42 -106.5t37 -94t23.5 -77t21.5 -92t11.5 -99t9.5 -139.5t1 -172h-455q0 115 31.5 226.5t70.5 185t74 164t41 165.5l-291 -116l-20 57l311 125q-2 33 -12 72q-33 135 -82 237.5t-74 184t-25 239.5h484q0 -104 -34 -189t-76 -130 t-81 -104.5t-49 -116t21 -164.5z" glyph-name="lslash" horiz-adv-x="573" unicode="ł"/><glyph d="M371 1534l-19 10q-4 92 45 176t109.5 136.5t113 113t56.5 109.5l229 -187q-51 -66 -139 -111.5t-163 -67t-143.5 -66.5t-88.5 -113zM471 0h-438q-2 154 20.5 328t58 358t44.5 254q16 131 -18 258t-115 148q43 129 178 129q90 0 160.5 -66t68.5 -168q123 209 383 209 q113 0 181.5 -57.5t68.5 -167.5q0 -84 -27.5 -155t-58.5 -113t-50.5 -116.5t-4.5 -168.5q12 -88 52 -158t69.5 -107.5t47 -142t-15.5 -264.5h-424q23 268 19 393t-37 316q-20 160 -6 255t42.5 197.5t28.5 132.5q0 68 -86 49q-86 -6 -154.5 -209.5t-68.5 -369.5 q0 -92 34 -225t52.5 -231.5t-4.5 -307.5z" glyph-name="Nacute" horiz-adv-x="1120" unicode="Ń"/><glyph d="M369 1280l-19 10q-4 92 45 176t109.5 136.5t113 113t56.5 109.5l229 -187q-51 -66 -139 -111.5t-163 -67t-143.5 -66.5t-88.5 -113zM500 0h-418q-29 84 -29 172q0 102 54.5 287.5t66.5 265.5q16 115 -19.5 212t-113.5 97q2 76 47 130.5t143 54.5q94 0 144.5 -70 t64.5 -158q29 41 48.5 64.5t65.5 69.5t104.5 70t123.5 24q129 0 185.5 -64.5t56.5 -165.5q0 -84 -54.5 -214t-54.5 -218q0 -92 78 -254t94 -303h-417q20 96 14 168q0 84 -67.5 244.5t-67.5 257.5q0 76 28.5 141.5t63.5 104t63.5 85t28.5 86.5q0 43 -41 43q-57 0 -137 -86 t-121 -217q-23 -74 -22.5 -150.5t11.5 -130.5t36 -134q18 -66 26.5 -95.5t18.5 -89t9 -114t-13 -113.5z" glyph-name="nacute" horiz-adv-x="1112" unicode="ń"/><glyph d="M471 0h-438q-2 154 20.5 328t58 358t44.5 254q16 131 -18 258t-115 148q43 129 178 129q90 0 160.5 -66t68.5 -168q123 209 383 209q113 0 181.5 -57.5t68.5 -167.5q0 -84 -27.5 -155t-58.5 -113t-50.5 -116.5t-4.5 -168.5q12 -88 52 -158t69.5 -107.5t47 -142 t-15.5 -264.5h-424q23 268 19 393t-37 316q-20 160 -6 255t42.5 197.5t28.5 132.5q0 68 -86 49q-86 -6 -154.5 -209.5t-68.5 -369.5q0 -92 34 -225t52.5 -231.5t-4.5 -307.5zM434 -573l-41 14q31 47 34 106.5t-7 104.5t-2 103.5t47 107.5h250q-51 -53 -93 -148.5t-84.5 -174 t-103.5 -113.5z" glyph-name="Ncommaaccent" horiz-adv-x="1120" unicode="Ņ"/><glyph d="M500 0h-418q-29 84 -29 172q0 102 54.5 287.5t66.5 265.5q16 115 -19.5 212t-113.5 97q2 76 47 130.5t143 54.5q94 0 144.5 -70t64.5 -158q29 41 48.5 64.5t65.5 69.5t104.5 70t123.5 24q129 0 185.5 -64.5t56.5 -165.5q0 -84 -54.5 -214t-54.5 -218q0 -92 78 -254 t94 -303h-417q20 96 14 168q0 84 -67.5 244.5t-67.5 257.5q0 76 28.5 141.5t63.5 104t63.5 85t28.5 86.5q0 43 -41 43q-57 0 -137 -86t-121 -217q-23 -74 -22.5 -150.5t11.5 -130.5t36 -134q18 -66 26.5 -95.5t18.5 -89t9 -114t-13 -113.5zM444 -573l-41 14q31 47 34 106.5 t-7 104.5t-2 103.5t47 107.5h250q-51 -53 -93 -148.5t-84.5 -174t-103.5 -113.5z" glyph-name="ncommaaccent" horiz-adv-x="1112" unicode="ņ"/><glyph d="M174 1919l238 137q0 -78 63.5 -199.5t79.5 -205.5q16 80 80.5 201.5t62.5 195.5l238 -129q-51 -63 -114.5 -109.5t-106.5 -68t-86 -64.5t-66 -106h-18q-29 86 -86.5 130t-140.5 93t-144 125zM471 0h-438q-2 154 20.5 328t58 358t44.5 254q16 131 -18 258t-115 148 q43 129 178 129q90 0 160.5 -66t68.5 -168q123 209 383 209q113 0 181.5 -57.5t68.5 -167.5q0 -84 -27.5 -155t-58.5 -113t-50.5 -116.5t-4.5 -168.5q12 -88 52 -158t69.5 -107.5t47 -142t-15.5 -264.5h-424q23 268 19 393t-37 316q-20 160 -6 255t42.5 197.5t28.5 132.5 q0 68 -86 49q-86 -6 -154.5 -209.5t-68.5 -369.5q0 -92 34 -225t52.5 -231.5t-4.5 -307.5z" glyph-name="Ncaron" horiz-adv-x="1120" unicode="Ň"/><glyph d="M172 1665l238 137q0 -78 63.5 -199.5t79.5 -205.5q16 80 80.5 201.5t62.5 195.5l238 -129q-51 -63 -114.5 -109.5t-106.5 -68t-86 -64.5t-66 -106h-18q-29 86 -86.5 130t-140.5 93t-144 125zM500 0h-418q-29 84 -29 172q0 102 54.5 287.5t66.5 265.5q16 115 -19.5 212 t-113.5 97q2 76 47 130.5t143 54.5q94 0 144.5 -70t64.5 -158q29 41 48.5 64.5t65.5 69.5t104.5 70t123.5 24q129 0 185.5 -64.5t56.5 -165.5q0 -84 -54.5 -214t-54.5 -218q0 -92 78 -254t94 -303h-417q20 96 14 168q0 84 -67.5 244.5t-67.5 257.5q0 76 28.5 141.5t63.5 104 t63.5 85t28.5 86.5q0 43 -41 43q-57 0 -137 -86t-121 -217q-23 -74 -22.5 -150.5t11.5 -130.5t36 -134q18 -66 26.5 -95.5t18.5 -89t9 -114t-13 -113.5z" glyph-name="ncaron" horiz-adv-x="1112" unicode="ň"/><glyph d="M922 672q12 -88 52 -158t69.5 -107.5t47 -142t-15.5 -264.5q-82 -391 -610 -324v58q96 0 140 59.5t46 206.5q23 268 19 393t-37 316q-20 160 -6 255t42.5 197.5t28.5 132.5q0 68 -86 49q-86 -6 -154.5 -209.5t-68.5 -369.5q0 -92 34 -225t52.5 -231.5t-4.5 -307.5h-438 q-2 154 20.5 328t58 358t44.5 254q16 131 -18 258t-115 148q43 129 178 129q90 0 160.5 -66t68.5 -168q123 209 383 209q113 0 181.5 -57.5t68.5 -167.5q0 -84 -27.5 -155t-58.5 -113t-50 -116.5t-5 -168.5z" glyph-name="Eng" horiz-adv-x="1120" unicode="Ŋ"/><glyph d="M651 -387q-127 0 -225 43v43q53 -14 98 -6q92 16 148.5 108.5t56.5 221.5q0 127 -90 328.5t-90 318.5q0 76 28.5 141.5t63.5 104t63.5 85t28.5 86.5q0 43 -41 43q-61 0 -140 -86t-120 -217q-20 -70 -19 -141.5t10 -117.5t32 -124q57 -225 57 -315q0 -76 -12 -129h-418 q-29 84 -29 172q0 102 55.5 291.5t65.5 273.5q14 113 -21.5 205t-111.5 92q2 76 47 130.5t143 54.5q61 0 96 -55.5t53.5 -113t39.5 -59.5q20 4 58 40t77 78t101.5 76t125.5 34q129 0 185.5 -64.5t56.5 -165.5q0 -84 -54.5 -214t-54.5 -218q0 -76 42 -158t85 -182t45 -217 q0 -188 -128 -287.5t-308 -99.5z" glyph-name="eng" horiz-adv-x="1128" unicode="ŋ"/><glyph d="M805 1673h-455v84h455v-84zM567 -18q-238 0 -364.5 99t-126.5 290q0 72 24 157q23 78 23 160q0 47 -11.5 148.5t-11.5 164.5q0 250 122 351.5t356 101.5q500 0 499 -324q0 -78 -56 -186t-56 -162q0 -39 32.5 -98t65.5 -142t33 -177q0 -98 -35 -171t-85 -113t-126 -63.5 t-140.5 -29.5t-142.5 -6zM582 20q96 0 133 68t37 217q0 84 -41 198.5t-41 207.5q0 127 34.5 249.5t34.5 223.5q0 121 -33.5 176t-121.5 55q-92 0 -127 -58.5t-35 -185.5q0 -61 37 -198t37 -262q0 -86 -37 -212t-37 -241q0 -238 160 -238z" glyph-name="Omacron" horiz-adv-x="1171" unicode="Ō"/><glyph d="M745 1419h-454v84h454v-84zM524 -35q-260 0 -371.5 86t-111.5 217q0 66 37 196t37 185q0 76 -28 154t-28 137q0 135 141.5 209t340.5 74q182 0 308 -63.5t126 -176.5q0 -76 -52.5 -153.5t-52.5 -133.5q0 -66 72 -182.5t72 -194.5q0 -174 -131.5 -264t-358.5 -90zM526 6 q139 0 140 141q0 61 -40 240.5t-40 271.5q0 63 29.5 211t29.5 201q0 117 -102 117q-119 0 -119 -174q0 -41 10 -164t8 -191q-2 -86 -31.5 -259t-29.5 -234q0 -160 145 -160z" glyph-name="omacron" horiz-adv-x="1054" unicode="ō"/><glyph d="M360 1534l-18 10q0 90 38 177t83 142.5t84 119t41 110.5l223 -149q-51 -70 -125 -124.5t-132 -83t-113.5 -79.5t-80.5 -123zM659 1530l-18 10q0 74 32 141.5t77 116.5t91 93t79.5 89t35.5 86l230 -188q-51 -63 -137 -107.5t-159 -64.5t-139.5 -65t-91.5 -111zM567 -18 q-238 0 -364.5 99t-126.5 290q0 72 24 157q23 78 23 160q0 47 -11.5 148.5t-11.5 164.5q0 250 122 351.5t356 101.5q500 0 499 -324q0 -78 -56 -186t-56 -162q0 -39 32.5 -98t65.5 -142t33 -177q0 -98 -35 -171t-85 -113t-126 -63.5t-140.5 -29.5t-142.5 -6zM582 20 q96 0 133 68t37 217q0 84 -41 198.5t-41 207.5q0 127 34.5 249.5t34.5 223.5q0 121 -33.5 176t-121.5 55q-92 0 -127 -58.5t-35 -185.5q0 -61 37 -198t37 -262q0 -86 -37 -212t-37 -241q0 -238 160 -238z" glyph-name="Ohungarumlaut" horiz-adv-x="1171" unicode="Ő"/><glyph d="M301 1280l-18 10q0 90 37.5 177t83 142.5t84 119t40.5 110.5l224 -149q-51 -70 -125 -124.5t-132.5 -83t-113.5 -79.5t-80 -123zM600 1276l-18 10q0 74 31.5 141.5t76.5 116.5t91 93t80 89.5t36 85.5l229 -188q-51 -63 -137 -107t-158.5 -64.5t-139 -65.5t-91.5 -111z M524 -35q-260 0 -371.5 86t-111.5 217q0 66 37 196t37 185q0 76 -28 154t-28 137q0 135 141.5 209t340.5 74q182 0 308 -63.5t126 -176.5q0 -76 -52.5 -153.5t-52.5 -133.5q0 -66 72 -182.5t72 -194.5q0 -174 -131.5 -264t-358.5 -90zM526 6q139 0 140 141q0 61 -40 240.5 t-40 271.5q0 63 29.5 211t29.5 201q0 117 -102 117q-119 0 -119 -174q0 -41 10 -164t8 -191q-2 -86 -31.5 -259t-29.5 -234q0 -160 145 -160z" glyph-name="ohungarumlaut" horiz-adv-x="1054" unicode="ő"/><glyph d="M598 -18q-297 0 -427 100t-130 260q0 104 60.5 228t60.5 184q0 43 -30 99t-58.5 133t-28.5 167q0 145 151.5 223t411.5 78q193 0 324 -43q119 59 325 59q242 0 337.5 -51t95.5 -153q0 -25 -11.5 -77t-11.5 -79q0 -41 14.5 -62.5t44.5 -13.5q-29 -80 -81 -121t-113 -41 q-74 0 -126 56.5t-52 148.5q0 63 35.5 163.5t35.5 143.5q0 53 -61 54q-141 0 -180 -275q-20 -145 -21 -395h291v-47h-291q4 -698 189 -698q63 0 63 63q0 49 -38 147.5t-38 161.5q0 94 55.5 151.5t133.5 57.5q63 0 116.5 -41t81.5 -121q-31 8 -45 -13t-14 -62q0 -29 10.5 -80 t10.5 -70q0 -231 -431 -231q-197 0 -313 55q-129 -59 -346 -59zM612 20q111 0 195 76t84 187q0 76 -26.5 215t-26.5 231q0 94 20.5 209t20.5 192q0 113 -84 199t-181 86q-90 0 -123.5 -58.5t-33.5 -185.5q0 -61 39 -198t39 -262q0 -86 -39 -201t-39 -229q0 -135 32.5 -198 t122.5 -63z" glyph-name="OE" horiz-adv-x="1767" unicode="Œ"/><glyph d="M526 -35q-260 0 -372.5 86t-112.5 217q0 66 37 196t37 185q0 76 -28 154t-28 137q0 135 142.5 209t341.5 74q180 0 297 -62q100 55 268 56q63 0 114.5 -6.5t109 -28t95 -57t59 -101.5t15.5 -154q-23 -303 -573 -307q-6 -59 0 -133q6 -156 45 -280.5t98 -124.5 q49 0 59.5 40.5t6.5 174.5q-2 39 -2 59q-2 104 61.5 162.5t151.5 58.5q72 0 122 -38t50 -109q-59 -2 -56 -164q2 -113 -107.5 -169t-271.5 -56q-158 0 -274 65q-97 -84 -285 -84zM528 6q53 0 70.5 90t14.5 257t-3 184q4 41 14.5 160.5t14.5 188t4 124.5q0 178 -98 178 q-117 0 -117 -174q0 -47 7 -169t5 -190q-2 -82 -29.5 -252t-27.5 -237q2 -78 34.5 -119t110.5 -41zM928 616q80 -6 143.5 52.5t95 148.5t48 172t14.5 139q0 55 -41 56q-80 0 -141.5 -98.5t-90 -225.5t-28.5 -244z" glyph-name="oe" horiz-adv-x="1550" unicode="œ"/><glyph d="M416 1534l-19 10q-4 92 45.5 176t109.5 136.5t112.5 113t56.5 109.5l229 -187q-51 -66 -139 -111.5t-163 -67t-143.5 -66.5t-88.5 -113zM543 0h-453q-39 98 -39 193q0 104 54.5 209.5t108.5 200.5t54 179q0 61 -24.5 113.5t-59 95.5t-69.5 90t-59.5 119t-24.5 162 q0 37 6 80q102 -37 186 -37q66 0 205 36t250 36q248 0 368.5 -111t120.5 -262q0 -141 -120.5 -244.5t-296.5 -140.5q152 0 220 -46t89 -134q10 -49 11 -153.5t15.5 -204t61.5 -181.5h-461q0 55 13.5 135t23.5 137.5t5 133t-34 143.5q-29 70 -74 109.5t-85 39.5 q-43 0 -71 -56t-28 -171q1 -229 107 -471zM575 752q86 -4 169 103.5t83 274.5q0 150 -53 232t-121 82q-49 0 -83.5 -43t-32.5 -115q0 -10 5 -52t5 -68.5t-8.5 -85t-26.5 -128.5q-25 -92 -6.5 -144t69.5 -56z" glyph-name="Racute" horiz-adv-x="1210" unicode="Ŕ"/><glyph d="M268 1280l-18 10q-4 92 45 176t109.5 136.5t112.5 113t56 109.5l230 -187q-51 -66 -139.5 -111.5t-163 -67t-143.5 -66.5t-89 -113zM487 0h-428q96 209 97 557q0 369 -115 627q78 51 168 51q156 0 225 -129q90 117 223 117q96 0 161 -49.5t65 -129.5q0 -41 -13.5 -119.5 t-13.5 -109.5q0 -72 55 -90q-53 -96 -182 -96q-86 0 -150.5 52t-64.5 144q0 63 37 132t74 119t37 69q0 27 -39 26q-80 0 -145.5 -103t-65.5 -263q0 -113 50 -298t50 -331q0 -88 -25 -176z" glyph-name="racute" horiz-adv-x="923" unicode="ŕ"/><glyph d="M543 0h-453q-39 98 -39 193q0 104 54.5 209.5t108.5 200.5t54 179q0 61 -24.5 113.5t-59 95.5t-69.5 90t-59.5 119t-24.5 162q0 37 6 80q102 -37 186 -37q66 0 205 36t250 36q248 0 368.5 -111t120.5 -262q0 -141 -120.5 -244.5t-296.5 -140.5q152 0 220 -46t89 -134 q10 -49 11 -153.5t15.5 -204t61.5 -181.5h-461q0 55 13.5 135t23.5 137.5t5 133t-34 143.5q-29 70 -74 109.5t-85 39.5q-43 0 -71 -56t-28 -171q1 -229 107 -471zM575 752q86 -4 169 103.5t83 274.5q0 150 -53 232t-121 82q-49 0 -83.5 -43t-32.5 -115q0 -10 5 -52t5 -68.5 t-8.5 -85t-26.5 -128.5q-25 -92 -6.5 -144t69.5 -56zM479 -573l-41 14q31 47 34 106.5t-7 104.5t-2 103.5t47 107.5h250q-51 -53 -93 -148.5t-84.5 -174t-103.5 -113.5z" glyph-name="Rcommaaccent" horiz-adv-x="1210" unicode="Ŗ"/><glyph d="M487 0h-428q96 209 97 557q0 369 -115 627q78 51 168 51q156 0 225 -129q90 117 223 117q96 0 161 -49.5t65 -129.5q0 -41 -13.5 -119.5t-13.5 -109.5q0 -72 55 -90q-53 -96 -182 -96q-86 0 -150.5 52t-64.5 144q0 63 37 132t74 119t37 69q0 27 -39 26q-80 0 -145.5 -103 t-65.5 -263q0 -113 50 -298t50 -331q0 -88 -25 -176zM238 -573l-41 14q31 47 33.5 106.5t-7.5 104.5t-2 103.5t47 107.5h250q-51 -53 -93 -148.5t-84 -174t-103 -113.5z" glyph-name="rcommaaccent" horiz-adv-x="923" unicode="ŗ"/><glyph d="M219 1919l238 137q0 -78 63.5 -199.5t79.5 -205.5q16 80 80.5 201.5t62.5 195.5l238 -129q-51 -63 -114.5 -109.5t-106.5 -68t-86 -64.5t-66 -106h-18q-29 86 -86.5 130t-140.5 93t-144 125zM543 0h-453q-39 98 -39 193q0 104 54.5 209.5t108.5 200.5t54 179 q0 61 -24.5 113.5t-59 95.5t-69.5 90t-59.5 119t-24.5 162q0 37 6 80q102 -37 186 -37q66 0 205 36t250 36q248 0 368.5 -111t120.5 -262q0 -141 -120.5 -244.5t-296.5 -140.5q152 0 220 -46t89 -134q10 -49 11 -153.5t15.5 -204t61.5 -181.5h-461q0 55 13.5 135t23.5 137.5 t5 133t-34 143.5q-29 70 -74 109.5t-85 39.5q-43 0 -71 -56t-28 -171q1 -229 107 -471zM575 752q86 -4 169 103.5t83 274.5q0 150 -53 232t-121 82q-49 0 -83.5 -43t-32.5 -115q0 -10 5 -52t5 -68.5t-8.5 -85t-26.5 -128.5q-25 -92 -6.5 -144t69.5 -56z" glyph-name="Rcaron" horiz-adv-x="1210" unicode="Ř"/><glyph d="M72 1665l237 137q0 -78 63.5 -199.5t80.5 -205.5q16 80 80.5 201.5t62.5 195.5l238 -129q-51 -63 -115 -109.5t-107 -68t-86 -64.5t-65 -106h-19q-29 86 -86 130t-140 93t-144 125zM487 0h-428q96 209 97 557q0 369 -115 627q78 51 168 51q156 0 225 -129q90 117 223 117 q96 0 161 -49.5t65 -129.5q0 -41 -13.5 -119.5t-13.5 -109.5q0 -72 55 -90q-53 -96 -182 -96q-86 0 -150.5 52t-64.5 144q0 63 37 132t74 119t37 69q0 27 -39 26q-80 0 -145.5 -103t-65.5 -263q0 -113 50 -298t50 -331q0 -88 -25 -176z" glyph-name="rcaron" horiz-adv-x="923" unicode="ř"/><glyph d="M332 1534l-19 10q-4 92 45.5 176t109.5 136.5t112.5 113t56.5 109.5l229 -187q-51 -66 -139 -111.5t-163 -67t-143.5 -66.5t-88.5 -113zM481 -35q-209 0 -317.5 92.5t-79.5 241.5q37 205 -37 285q55 6 85 9t87 5t91 -6t71 -22.5t55.5 -46t18.5 -77.5q0 -29 -20.5 -115.5 t-20.5 -142.5q0 -82 28.5 -130t71.5 -48q61 0 97 39t36 156q0 53 -12 145t-12 129q0 63 20.5 151.5t20.5 110.5q0 63 -91 45q-4 0 -95 -32.5t-146 -32.5q-133 0 -204 104.5t-71 245.5q0 211 121 305t371 94q199 0 320.5 -76.5t91.5 -203.5q-4 -23 -19.5 -60.5t-25 -62.5 t-6.5 -58.5t26 -62.5q-55 -14 -117.5 -16t-130 11t-105.5 68.5t-28 145.5q4 29 9 61.5t9.5 54t7.5 45t4 39t1 31t-5.5 23.5t-13.5 15.5t-20 10.5t-31 3q-61 0 -94 -109.5t-33 -253.5q0 -123 26.5 -200.5t82.5 -73.5q31 2 129 36.5t161 34.5q121 0 173.5 -98t52.5 -248 q0 -156 -42 -268.5t-118 -175t-168 -90t-205 -27.5z" glyph-name="Sacute" horiz-adv-x="1040" unicode="Ś"/><glyph d="M334 1280l-19 10q-4 92 45.5 176t109.5 136.5t112.5 113t56.5 109.5l229 -187q-51 -66 -139 -111.5t-162.5 -67t-143.5 -66.5t-89 -113zM477 -35q-180 0 -283.5 75t-99.5 189q0 25 12.5 78t12.5 88q0 109 -78 117q61 90 184 86q115 -2 194 -81t68 -210q-8 -88 -61 -217 q-20 -53 -15 -71.5t33 -18.5q66 0 117 133q47 133 47 256q6 186 -112 236q-49 23 -123 44t-123 35.5t-97.5 42t-73 75.5t-22.5 122q2 84 39 141.5t104.5 84t136.5 37t159 10.5q195 0 323.5 -71t130.5 -188q0 -47 -20.5 -88t-42 -61.5t-60.5 -50.5q-25 -18 -37 -28.5t-24 -25 t-11 -26.5t13 -25q-115 10 -171 65.5t-26 127.5q23 51 39.5 106.5t23.5 106.5t-7.5 85t-51.5 34q-59 0 -97 -101.5t-38 -224.5q0 -150 109 -203q45 -23 139 -47t156.5 -43.5t114 -78t51.5 -150.5q-3 -365 -533 -365z" glyph-name="sacute" horiz-adv-x="1050" unicode="ś"/><glyph d="M1014 526q0 -152 -40 -263t-113 -173.5t-161 -92.5t-198 -32l-37 -61q59 10 123 10q102 0 152.5 -36t50.5 -87q0 -66 -77 -108.5t-175.5 -74.5t-122.5 -57l-66 121q182 63 182 129q0 57 -182 47l103 117q-195 8 -295.5 99.5t-73.5 234.5q37 205 -37 285q55 6 85 9t87 5 t91 -6t71 -22.5t55.5 -46t18.5 -77.5q0 -29 -20.5 -115.5t-20.5 -142.5q0 -82 28.5 -130t71.5 -48q61 0 97 39t36 156q0 53 -12 145t-12 129q0 63 20.5 151.5t20.5 110.5q0 63 -91 45q-4 0 -95 -32.5t-146 -32.5q-133 0 -204 104.5t-71 245.5q0 211 121 305t371 94 q199 0 320.5 -76.5t91.5 -203.5q-4 -23 -19.5 -60.5t-25 -62.5t-6.5 -58.5t26 -62.5q-55 -14 -117.5 -16t-130 11t-105.5 68.5t-28 145.5q4 29 9 61.5t9.5 54t7.5 45t4 39t1 31t-5.5 23.5t-13.5 15.5t-20 10.5t-31 3q-61 0 -94 -109.5t-33 -253.5q0 -123 26.5 -200.5 t82.5 -73.5q31 2 129 36.5t161 34.5q121 0 173.5 -98t52.5 -248z" glyph-name="Scedilla" horiz-adv-x="1040" unicode="Ş"/><glyph d="M1010 330q-2 -356 -506 -365l-37 -61q59 10 123 10q102 0 152.5 -36t50.5 -87q0 -66 -77 -108.5t-175.5 -74.5t-122.5 -57l-66 121q182 63 183 129q0 57 -183 47l101 117q-168 6 -265.5 80t-93.5 184q0 25 12.5 78t12.5 88q0 109 -78 117q61 90 184 86q115 -2 194 -81 t68 -210q-8 -88 -61 -217q-20 -53 -15 -71.5t33 -18.5q66 0 117 133q47 133 47 256q6 186 -112 236q-49 23 -123 44t-123 35.5t-97.5 42t-73 75.5t-22.5 122q2 84 39 141.5t104.5 84t136.5 37t159 10.5q195 0 323.5 -71t130.5 -188q0 -47 -20.5 -88t-42 -61.5t-60.5 -50.5 q-25 -18 -37 -28.5t-24 -25t-11 -26.5t13 -25q-115 10 -171 65.5t-26 127.5q23 51 39.5 106.5t23.5 106.5t-7.5 85t-51.5 34q-59 0 -97 -101.5t-38 -224.5q0 -150 109 -203q45 -23 139 -47t156.5 -43.5t114 -78t51.5 -150.5z" glyph-name="scedilla" horiz-adv-x="1050" unicode="ş"/><glyph d="M135 1919l238 137q0 -78 63.5 -199.5t79.5 -205.5q16 80 81 201.5t62 195.5l238 -129q-51 -63 -114.5 -109.5t-106.5 -68t-86 -64.5t-66 -106h-18q-29 86 -86.5 130t-140.5 93t-144 125zM481 -35q-209 0 -317.5 92.5t-79.5 241.5q37 205 -37 285q55 6 85 9t87 5t91 -6 t71 -22.5t55.5 -46t18.5 -77.5q0 -29 -20.5 -115.5t-20.5 -142.5q0 -82 28.5 -130t71.5 -48q61 0 97 39t36 156q0 53 -12 145t-12 129q0 63 20.5 151.5t20.5 110.5q0 63 -91 45q-4 0 -95 -32.5t-146 -32.5q-133 0 -204 104.5t-71 245.5q0 211 121 305t371 94 q199 0 320.5 -76.5t91.5 -203.5q-4 -23 -19.5 -60.5t-25 -62.5t-6.5 -58.5t26 -62.5q-55 -14 -117.5 -16t-130 11t-105.5 68.5t-28 145.5q4 29 9 61.5t9.5 54t7.5 45t4 39t1 31t-5.5 23.5t-13.5 15.5t-20 10.5t-31 3q-61 0 -94 -109.5t-33 -253.5q0 -123 26.5 -200.5 t82.5 -73.5q31 2 129 36.5t161 34.5q121 0 173.5 -98t52.5 -248q0 -156 -42 -268.5t-118 -175t-168 -90t-205 -27.5z" glyph-name="Scaron" horiz-adv-x="1040" unicode="Š"/><glyph d="M137 1665l238 137q0 -78 63.5 -199.5t79.5 -205.5q16 80 81 201.5t63 195.5l237 -129q-51 -63 -114.5 -109.5t-106.5 -68t-86 -64.5t-66 -106h-18q-29 86 -86 130t-140.5 93t-144.5 125zM477 -35q-180 0 -283.5 75t-99.5 189q0 25 12.5 78t12.5 88q0 109 -78 117 q61 90 184 86q115 -2 194 -81t68 -210q-8 -88 -61 -217q-20 -53 -15 -71.5t33 -18.5q66 0 117 133q47 133 47 256q6 186 -112 236q-49 23 -123 44t-123 35.5t-97.5 42t-73 75.5t-22.5 122q2 84 39 141.5t104.5 84t136.5 37t159 10.5q195 0 323.5 -71t130.5 -188 q0 -47 -20.5 -88t-42 -61.5t-60.5 -50.5q-25 -18 -37 -28.5t-24 -25t-11 -26.5t13 -25q-115 10 -171 65.5t-26 127.5q23 51 39.5 106.5t23.5 106.5t-7.5 85t-51.5 34q-59 0 -97 -101.5t-38 -224.5q0 -150 109 -203q45 -23 139 -47t156.5 -43.5t114 -78t51.5 -150.5 q-3 -365 -533 -365z" glyph-name="scaron" horiz-adv-x="1050" unicode="š"/><glyph d="M938 938q-88 0 -115.5 84t11.5 258q29 115 -3 115q-33 0 -63 -72q-43 -96 -74.5 -249.5t-34.5 -301.5q-2 -170 37 -315.5t91.5 -267t64.5 -189.5h-258l-57 -96q59 10 122 10q102 0 152.5 -36t50.5 -87q0 -66 -76.5 -108.5t-175 -74.5t-123.5 -57l-65 121q182 63 182 129 q0 57 -182 47l131 152h-160q-33 106 -33 231q0 158 44.5 371t84 400.5t33.5 302.5q-6 106 -39 106q-25 0 -33 -39t-10 -166q-2 -117 -70.5 -178t-160.5 -61q-121 0 -170 88q33 8 52.5 54t39.5 157q39 205 385 204h184q233 0 331.5 -52t98.5 -152q0 -12 -1 -51t0 -59.5 t4.5 -50.5t14.5 -46.5t30 -24.5q-148 -96 -240 -96z" glyph-name="Tcommaaccent" horiz-adv-x="1187" unicode="Ţ"/><glyph d="M528 412q-8 147 79 192t278 21q-35 -45 -41 -109.5t2 -251.5q6 -158 -106.5 -228.5t-315.5 -70.5h-2l-37 -61q59 10 123 10q102 0 152.5 -36t50.5 -87q0 -66 -77 -108.5t-175.5 -74.5t-122.5 -57l-66 121q182 63 183 129q0 57 -183 47l103 119q-150 10 -232 91t-82 229 q0 133 61.5 422.5t61.5 472.5q0 129 -23.5 205.5t-72.5 152.5h367q18 -106 2.5 -154.5t-45 -122t-29.5 -135.5q0 -152 45 -151q33 0 96 86q115 160 223 160q63 0 106.5 -57.5t43.5 -137.5q0 -111 -74 -184q-86 96 -190 96q-129 0 -197 -141q-47 -104 -47 -267 q0 -215 8 -333.5t25.5 -158.5t46.5 -40q84 0 61 412z" glyph-name="tcommaaccent" horiz-adv-x="927" unicode="ţ"/><glyph d="M215 1919l238 137q0 -78 63.5 -199.5t79.5 -205.5q16 80 80.5 201.5t62.5 195.5l238 -129q-51 -63 -114.5 -109.5t-106.5 -68t-86 -64.5t-66 -106h-18q-29 86 -86.5 130t-140.5 93t-144 125zM852 0h-459q-33 106 -33 231q0 158 44.5 371t84 400.5t33.5 302.5 q-6 106 -39 106q-25 0 -33 -39t-10 -166q-2 -117 -70.5 -178t-160.5 -61q-121 0 -170 88q33 8 52.5 54t39.5 157q39 205 385 204h184q233 0 331.5 -52t98.5 -152q0 -12 -1 -51t0 -59.5t4.5 -50.5t14.5 -46.5t30 -24.5q-147 -96 -240 -96q-88 0 -115.5 84t11.5 258 q29 115 -3 115q-33 0 -63 -72q-43 -96 -74.5 -249.5t-34.5 -301.5q-2 -170 37 -315.5t91.5 -267t64.5 -189.5z" glyph-name="Tcaron" horiz-adv-x="1187" unicode="Ť"/><glyph d="M889 1196q45 82 48 188.5t-24 219.5h267q0 -152 -74 -265.5t-217 -142.5zM424 -35q-172 0 -268.5 81t-96.5 241q0 133 61.5 422.5t61.5 472.5q0 129 -23.5 205.5t-72.5 152.5h367q18 -106 2.5 -154.5t-45 -122t-29.5 -135.5q0 -152 45 -151q33 0 96 86q115 160 223 160 q63 0 106.5 -57.5t43.5 -137.5q0 -111 -74 -184q-86 96 -190 96q-129 0 -197 -141q-47 -104 -47 -267q0 -215 8 -333.5t25.5 -158.5t46.5 -40q84 0 61 412q-8 147 79 192t278 21q-35 -45 -41 -109.5t2 -251.5q6 -158 -106.5 -228.5t-315.5 -70.5z" glyph-name="tcaron" horiz-adv-x="1214" unicode="ť"/><glyph d="M1130 1266q0 -12 -1 -51t0 -59.5t4.5 -50.5t14.5 -46.5t30 -24.5q-147 -96 -240 -96q-88 0 -115.5 84t11.5 258q29 115 -3 115q-33 0 -63 -72q-43 -96 -74.5 -249.5t-34.5 -301.5v-43h162v-41h-159q6 -143 46 -273t86 -239.5t58 -175.5h-459q-33 106 -33 231 q0 182 60 457h-53v41h63q4 20 26.5 121.5t30 134.5t19.5 104.5t15 121t1 94.5q-6 106 -39 106q-25 0 -33 -39t-10 -166q-2 -117 -70.5 -178t-160.5 -61q-121 0 -170 88q33 8 52.5 54t39.5 157q39 205 385 204h184q233 0 331.5 -52t98.5 -152z" glyph-name="Tbar" horiz-adv-x="1187" unicode="Ŧ"/><glyph d="M528 412q-8 147 79 192t278 21q-35 -45 -41 -109.5t2 -251.5q6 -158 -106.5 -228.5t-315.5 -70.5q-172 0 -268.5 81t-96.5 241q0 127 64 436h-64v65h78q45 221 45 394q0 129 -23.5 205.5t-72.5 152.5h367q18 -106 2.5 -154.5t-45 -122t-29.5 -135.5q0 -152 45 -151 q33 0 96 86q115 160 223 160q63 0 106.5 -57.5t43.5 -137.5q0 -111 -74 -184q-86 96 -190 96q-129 0 -197 -141l-4 -11h84v-65h-106q-20 -92 -21 -191q0 -215 8 -333.5t25.5 -158.5t46.5 -40q84 0 61 412z" glyph-name="tbar" horiz-adv-x="927" unicode="ŧ"/><glyph d="M825 1673h-454v84h454v-84zM592 -35q-195 0 -343.5 104.5t-148.5 309.5q0 137 76 311q51 117 51 213q0 88 -45 172t-90 173t-45 190h414q63 -143 63 -365q0 -158 -37.5 -441.5t-37.5 -369.5q0 -252 143 -252q156 0 156 277q0 82 -31 338t-29 407q4 262 72 406h416 q0 -117 -67 -250t-67 -227q0 -109 56 -259q49 -127 49 -241q0 -119 -52.5 -217.5t-136.5 -156.5t-179 -90t-187 -32z" glyph-name="Umacron" horiz-adv-x="1216" unicode="Ū"/><glyph d="M791 1419h-455v84h455v-84zM907 -37q-94 0 -156.5 61.5t-62.5 174.5q0 51 6 112q-55 -164 -153.5 -255t-227.5 -91q-121 0 -195.5 92.5t-74.5 272.5q0 104 41 294.5t41 303.5q0 127 -68 262l392 -2q53 -106 53 -225q0 -131 -64.5 -382t-64.5 -319q-4 -127 100 -127 q51 0 113.5 69.5t107.5 196.5t37 263q-4 43 -34.5 159.5t-30.5 188.5q0 88 45 172h415q0 -88 -59 -355q-76 -328 -76 -481q0 -215 117 -307q-90 -78 -201 -78z" glyph-name="umacron" horiz-adv-x="1150" unicode="ū"/><glyph d="M608.5 1614q-112.5 0 -150.5 17.5t-38 51.5q0 14 7 49t7 57.5t-7 57.5t-7 49q0 35 38 52.5t150.5 17.5t150.5 -17.5t38 -52.5q0 -14 -7.5 -49t-7.5 -57.5t7.5 -57t7.5 -49.5q0 -35 -38 -52t-150.5 -17zM608 1628q49 0 49 162q0 156 -47 156q-51 0 -51 -156 q0 -162 49 -162zM592 -35q-195 0 -343.5 104.5t-148.5 309.5q0 137 76 311q51 117 51 213q0 88 -45 172t-90 173t-45 190h414q63 -143 63 -365q0 -158 -37.5 -441.5t-37.5 -369.5q0 -252 143 -252q156 0 156 277q0 82 -31 338t-29 407q4 262 72 406h416q0 -117 -67 -250 t-67 -227q0 -109 56 -259q49 -127 49 -241q0 -119 -52.5 -217.5t-136.5 -156.5t-179 -90t-187 -32z" glyph-name="Uring" horiz-adv-x="1216" unicode="Ů"/><glyph d="M573.5 1360q-112.5 0 -150.5 17.5t-38 52.5q0 14 7 48.5t7 57.5t-7 57.5t-7 48.5q0 35 38 52.5t150.5 17.5t150.5 -17.5t38 -52.5q0 -14 -7 -48.5t-7 -57.5t7 -57.5t7 -48.5q0 -35 -38 -52.5t-150.5 -17.5zM573.5 1374q49.5 0 49.5 162q0 156 -48 156q-51 0 -51 -156 q0 -162 49.5 -162zM907 -37q-94 0 -156.5 61.5t-62.5 174.5q0 51 6 112q-55 -164 -153.5 -255t-227.5 -91q-121 0 -195.5 92.5t-74.5 272.5q0 104 41 294.5t41 303.5q0 127 -68 262l392 -2q53 -106 53 -225q0 -131 -64.5 -382t-64.5 -319q-4 -127 100 -127q51 0 113.5 69.5 t107.5 196.5t37 263q-4 43 -34.5 159.5t-30.5 188.5q0 88 45 172h415q0 -88 -59 -355q-76 -328 -76 -481q0 -215 117 -307q-90 -78 -201 -78z" glyph-name="uring" horiz-adv-x="1150" unicode="ů"/><glyph d="M381 1534l-19 10q0 90 38 177t83 142.5t84 119t41 110.5l223 -149q-51 -70 -124.5 -124.5t-132 -83t-113.5 -79.5t-80 -123zM680 1530l-18 10q0 74 31.5 141.5t76.5 116.5t91 93t80 89t36 86l229 -188q-51 -63 -137 -107.5t-158.5 -64.5t-139 -65t-91.5 -111zM592 -35 q-195 0 -343.5 104.5t-148.5 309.5q0 137 76 311q51 117 51 213q0 88 -45 172t-90 173t-45 190h414q63 -143 63 -365q0 -158 -37.5 -441.5t-37.5 -369.5q0 -252 143 -252q156 0 156 277q0 82 -31 338t-29 407q4 262 72 406h416q0 -117 -67 -250t-67 -227q0 -109 56 -259 q49 -127 49 -241q0 -119 -52.5 -217.5t-136.5 -156.5t-179 -90t-187 -32z" glyph-name="Uhungarumlaut" horiz-adv-x="1216" unicode="Ű"/><glyph d="M346 1280l-18 10q0 90 37.5 177t83 142.5t84 119t40.5 110.5l224 -149q-51 -70 -125 -124.5t-132.5 -83t-113.5 -79.5t-80 -123zM645 1276l-18 10q0 74 31.5 141.5t76.5 116.5t91 93t80 89.5t36 85.5l229 -188q-51 -63 -137 -107t-158.5 -64.5t-139 -65.5t-91.5 -111z M907 -37q-94 0 -156.5 61.5t-62.5 174.5q0 51 6 112q-55 -164 -153.5 -255t-227.5 -91q-121 0 -195.5 92.5t-74.5 272.5q0 104 41 294.5t41 303.5q0 127 -68 262l392 -2q53 -106 53 -225q0 -131 -64.5 -382t-64.5 -319q-4 -127 100 -127q51 0 113.5 69.5t107.5 196.5t37 263 q-4 43 -34.5 159.5t-30.5 188.5q0 88 45 172h415q0 -88 -59 -355q-76 -328 -76 -481q0 -215 117 -307q-90 -78 -201 -78z" glyph-name="uhungarumlaut" horiz-adv-x="1150" unicode="ű"/><glyph d="M1042 961q0 -109 56 -259q49 -127 49 -241q0 -260 -229 -402q-61 -51 -57.5 -132t89.5 -130l-55 -116q-86 0 -141.5 28.5t-73.5 72.5t-11 95t40 100q-59 -12 -117 -12q-195 0 -343.5 104.5t-148.5 309.5q0 137 76 311q51 117 51 213q0 88 -45 172t-90 173t-45 190h414 q63 -143 63 -365q0 -158 -37.5 -441.5t-37.5 -369.5q0 -252 143 -252q156 0 156 277q0 82 -31 338t-29 407q4 262 72 406h416q0 -117 -67 -250t-67 -227z" glyph-name="Uogonek" horiz-adv-x="1216" unicode="Ų"/><glyph d="M991 348q0 -215 117 -307q-4 -4 -8 -6h8v-8q-82 -49 -89 -137.5t89 -149.5l-55 -117q-125 0 -183.5 59.5t-45 137.5t76.5 143q-92 2 -152.5 63.5t-60.5 172.5q0 51 6 112q-55 -164 -153.5 -255t-227.5 -91q-121 0 -195.5 92.5t-74.5 272.5q0 104 41 294.5t41 303.5 q0 127 -68 262l392 -2q53 -106 53 -225q0 -131 -64.5 -382t-64.5 -319q-4 -127 100 -127q51 0 113.5 69.5t107.5 196.5t37 263q-4 43 -34.5 159.5t-30.5 188.5q0 88 45 172h415q0 -88 -59 -355q-76 -327 -76 -481z" glyph-name="uogonek" horiz-adv-x="1150" unicode="ų"/><glyph d="M709 1552l-238 138q61 76 144 125t140.5 93t86.5 130h18q23 -63 66 -106.5t86 -65t106.5 -67.5t114.5 -109l-238 -129q2 74 -62.5 195.5t-80.5 201.5q-16 -84 -79.5 -206t-63.5 -200zM1198 -31q-238 0 -358 156q-33 -59 -129.5 -105.5t-216.5 -46.5q-59 0 -119 11.5 t-128.5 40t-111.5 92t-43 151.5q0 45 34 217t34 275q0 139 -23.5 263t-65.5 256t-48 159h487q23 -82 22 -166q0 -104 -67.5 -340t-67.5 -420q0 -217 59.5 -333t137.5 -116q41 0 67.5 42t26.5 116t-24 156q-53 176 -54 350q0 115 29 294t29 247q0 98 -33 170h414 q-23 -231 -103 -508t-80 -414q0 -154 39 -260q35 -109 92.5 -166t110.5 -57q76 0 76 96q0 37 -15 90q-2 6 -18 64.5t-22.5 80t-19.5 77t-18.5 90t-10.5 84t-5 92.5q0 158 73 361.5t73 369.5h460q-20 -88 -54 -163t-64.5 -125t-59 -103.5t-46 -127t-17.5 -167.5 q0 -68 40 -229t40 -281q0 -273 -322 -273z" glyph-name="Wcircumflex" horiz-adv-x="1703" unicode="Ŵ"/><glyph d="M707 1298l-238 138q61 76 144 125t140.5 93t86.5 130h18q23 -63 66 -106.5t86 -65t106.5 -67.5t114.5 -109l-238 -129q2 74 -62.5 195.5t-80.5 201.5q-16 -84 -79.5 -206t-63.5 -200zM1223 -31q-236 0 -361 158q-31 -55 -117 -102.5t-194 -51.5q-428 -18 -428 396 q0 55 13.5 149t13.5 123q0 88 -54.5 218t-54.5 220q0 47 12 107h418q10 -51 10 -109q0 -86 -50 -221t-52 -264q-4 -221 56.5 -387t172.5 -164q80 4 80 59q0 18 -47 122t-47 184q-2 70 20.5 126t49 88.5t49 86t22.5 118.5q0 123 -108 359h420q25 -135 24 -211q0 -90 -35 -164 t-69.5 -164t-34.5 -217q0 -176 81 -294t161 -118q66 0 65 90q0 68 -63.5 199t-63.5 207q0 78 82 216t82 249q0 100 -47 207h413q12 -74 13 -127q0 -72 -26.5 -130.5t-63.5 -98.5t-74 -74.5t-63.5 -76.5t-26.5 -89q0 -49 36 -97.5t71.5 -111t35.5 -143.5q0 -131 -88 -199 t-233 -68z" glyph-name="wcircumflex" horiz-adv-x="1695" unicode="ŵ"/><glyph d="M348 1552l-237 138q61 76 144 125t140.5 93t85.5 130h19q23 -63 65.5 -106.5t85.5 -65t106.5 -67.5t114.5 -109l-237 -129q2 74 -62.5 195.5t-80.5 201.5q-16 -84 -80 -206t-64 -200zM715 0h-531q0 113 37 214t81 159.5t81 110t37 75.5q0 45 -90 45q-27 2 -85.5 0 t-80.5 -2q-150 6 -150 193q0 57 11.5 126.5t33 171t31.5 158.5q14 63 2 99t-59 36q59 82 194 82q90 0 156 -47t66 -135q0 -147 -48.5 -318t-48.5 -200q0 -156 146 -156q68 0 104.5 54.5t36.5 109.5q0 61 -35 244.5t-35 271.5q0 84 69 130t157 46q109 0 174 -71 q-68 -27 -68 -166q0 -53 13.5 -185.5t13.5 -195.5q0 -244 -234 -252q-104 -6 -139 -49q-33 -35 -33 -111q0 -63 85 -198.5t108 -239.5z" glyph-name="Ycircumflex" horiz-adv-x="983" unicode="Ŷ"/><glyph d="M381 1298l-238 138q61 76 144.5 125t140.5 93t86 130h18q23 -63 66 -106.5t86 -65t106.5 -67.5t114.5 -109l-237 -129q2 74 -62.5 195.5t-81.5 201.5q-16 -84 -79.5 -206t-63.5 -200zM530 -319q-410 0 -409 260q0 78 49 120.5t121 42.5q90 0 162 -63q-33 -68 -33 -141 q0 -76 34.5 -127.5t94.5 -51.5q63 0 108 71t63.5 158t18.5 171q0 117 -39 117q-14 0 -110 -44t-189 -44q-215 0 -264 117.5t-6 420.5q12 90 -1 168t-36.5 124t-43 101.5t-17.5 102.5h407q55 -209 56 -402q0 -84 -9.5 -183t-16.5 -158.5t-6 -114t21.5 -78t67.5 -23.5 q63 0 115.5 82t52.5 221q0 170 -51 316q-18 51 -25.5 75.5t-17 70.5t-7 92t12.5 102h387q37 -154 37 -277q0 -115 -32 -207t-69.5 -142t-69.5 -121.5t-32 -147.5q0 -53 23.5 -95t52 -68t52.5 -74t24 -111q0 -94 -72 -154.5t-173.5 -83t-230.5 -22.5z" glyph-name="ycircumflex" horiz-adv-x="1079" unicode="ŷ"/><glyph d="M324 1583q-66 0 -110 42t-44 106q0 68 44 110.5t110 42.5q61 0 103 -43t42 -110q0 -63 -42 -105.5t-103 -42.5zM673.5 1583q-63.5 0 -108.5 43t-45 105q0 66 45 109.5t108.5 43.5t104.5 -43t41 -110q0 -63 -41 -105.5t-104.5 -42.5zM715 0h-531q0 113 37 214t81 159.5 t81 110t37 75.5q0 45 -90 45q-27 2 -85.5 0t-80.5 -2q-150 6 -150 193q0 57 11.5 126.5t33 171t31.5 158.5q14 63 2 99t-59 36q59 82 194 82q90 0 156 -47t66 -135q0 -147 -48.5 -318t-48.5 -200q0 -156 146 -156q68 0 104.5 54.5t36.5 109.5q0 61 -35 244.5t-35 271.5 q0 84 69 130t157 46q109 0 174 -71q-68 -27 -68 -166q0 -53 13.5 -185.5t13.5 -195.5q0 -244 -234 -252q-104 -6 -139 -49q-33 -35 -33 -111q0 -63 85 -198.5t108 -239.5z" glyph-name="Ydieresis" horiz-adv-x="983" unicode="Ÿ"/><glyph d="M309 1565l-18 10q-4 92 45 176t109.5 136t112.5 112.5t56 109.5l230 -186q-51 -66 -139.5 -112t-163 -67.5t-143.5 -66t-89 -112.5zM475 -27q-141 0 -231 25t-185 74q-37 141 -36 258q0 178 80.5 273t244.5 149q86 29 103 34q170 59 170 316q0 131 -42 225t-102 94 q-20 0 -28.5 -27.5t1 -90t35.5 -158.5q29 -104 -30 -184q-80 -102 -236 -103q-111 0 -199 72q10 6 25.5 16t22 13.5t16.5 12.5t12 16t6 19.5t3 29t-2 38t-5 51.5q-16 133 78 228.5t324 113.5q446 35 446 -321q0 -125 -44 -205t-116.5 -114.5t-147.5 -53t-153.5 -42 t-119.5 -60.5q-31 -29 -37 -83t13 -136t35.5 -131.5t47.5 -137.5q35 -125 86 -125q20 0 29.5 21.5t7.5 71t-12.5 115t-28.5 165.5q-23 117 63 193.5t201 76.5q131 0 172 -98q-123 -6 -31 -332q33 -127 -73.5 -213t-362.5 -86z" glyph-name="Zacute" horiz-adv-x="1048" unicode="Ź"/><glyph d="M291 1280l-19 10q-4 92 45.5 176t109.5 136.5t112.5 113t56.5 109.5l229 -187q-51 -66 -139 -111.5t-162.5 -67t-143.5 -66.5t-89 -113zM618 -23q-70 0 -209 20.5t-208 20.5q-74 0 -131 -18q-23 233 -23 332q0 145 54.5 194t156.5 56q229 12 297 73q43 37 59.5 109 t14.5 201q-8 100 -37 144t-84 42q-80 -2 -80 -201q0 -127 -39 -188.5t-133 -61.5q-156 0 -209 33q49 31 58.5 72t7.5 149q0 131 68.5 198t238.5 67q63 0 165.5 -21.5t149.5 -21.5q59 0 103 8q43 -33 53 -173.5t-14 -234.5q-12 -59 -47 -97t-65 -52.5t-94.5 -35t-90.5 -32.5 q-102 -43 -163 -136t-61 -292v-22q0 -35 1 -48.5t10.5 -23.5t29.5 -10q72 -2 137.5 55t65.5 147q0 29 -11 69t-11 58q0 74 66.5 120t154.5 46q66 0 123 -28q-25 -12 -33 -59.5t-8 -125.5v-82q-19 -250 -263 -250z" glyph-name="zacute" horiz-adv-x="944" unicode="ź"/><glyph d="M498 1567q-90 0 -140.5 59.5t-50.5 137t50.5 136t140.5 58.5q92 0 143 -56.5t51 -136t-51 -139t-143 -59.5zM475 -27q-141 0 -231 25t-185 74q-37 141 -36 258q0 178 80.5 273t244.5 149q86 29 103 34q170 59 170 316q0 131 -42 225t-102 94q-20 0 -28.5 -27.5t1 -90 t35.5 -158.5q29 -104 -30 -184q-80 -102 -236 -103q-111 0 -199 72q10 6 25.5 16t22 13.5t16.5 12.5t12 16t6 19.5t3 29t-2 38t-5 51.5q-16 133 78 228.5t324 113.5q446 35 446 -321q0 -125 -44 -205t-116.5 -114.5t-147.5 -53t-153.5 -42t-119.5 -60.5q-31 -29 -37 -83 t13 -136t35.5 -131.5t47.5 -137.5q35 -125 86 -125q20 0 29.5 21.5t7.5 71t-12.5 115t-28.5 165.5q-23 117 63 193.5t201 76.5q131 0 172 -98q-123 -6 -31 -332q33 -127 -73.5 -213t-362.5 -86z" glyph-name="Zdotaccent" horiz-adv-x="1048" unicode="Ż"/><glyph d="M479 1282q-90 0 -140 59.5t-50 137t50 136t140 58.5q92 0 143.5 -56t51.5 -136t-51.5 -139.5t-143.5 -59.5zM618 -23q-70 0 -209 20.5t-208 20.5q-74 0 -131 -18q-23 233 -23 332q0 145 54.5 194t156.5 56q229 12 297 73q43 37 59.5 109t14.5 201q-8 100 -37 144t-84 42 q-80 -2 -80 -201q0 -127 -39 -188.5t-133 -61.5q-156 0 -209 33q49 31 58.5 72t7.5 149q0 131 68.5 198t238.5 67q63 0 165.5 -21.5t149.5 -21.5q59 0 103 8q43 -33 53 -173.5t-14 -234.5q-12 -59 -47 -97t-65 -52.5t-94.5 -35t-90.5 -32.5q-102 -43 -163 -136t-61 -292v-22 q0 -35 1 -48.5t10.5 -23.5t29.5 -10q72 -2 137.5 55t65.5 147q0 29 -11 69t-11 58q0 74 66.5 120t154.5 46q66 0 123 -28q-25 -12 -33 -59.5t-8 -125.5v-82q-19 -250 -263 -250z" glyph-name="zdotaccent" horiz-adv-x="944" unicode="ż"/><glyph d="M113 1950l237 137q0 -78 63.5 -200t80.5 -206q16 80 80.5 202t62.5 196l237 -129q-51 -63 -114.5 -109.5t-106.5 -68t-86 -64.5t-65 -106h-19q-29 86 -86 130t-140 93t-144 125zM475 -27q-141 0 -231 25t-185 74q-37 141 -36 258q0 178 80.5 273t244.5 149q86 29 103 34 q170 59 170 316q0 131 -42 225t-102 94q-20 0 -28.5 -27.5t1 -90t35.5 -158.5q29 -104 -30 -184q-80 -102 -236 -103q-111 0 -199 72q10 6 25.5 16t22 13.5t16.5 12.5t12 16t6 19.5t3 29t-2 38t-5 51.5q-16 133 78 228.5t324 113.5q446 35 446 -321q0 -125 -44 -205 t-116.5 -114.5t-147.5 -53t-153.5 -42t-119.5 -60.5q-31 -29 -37 -83t13 -136t35.5 -131.5t47.5 -137.5q35 -125 86 -125q20 0 29.5 21.5t7.5 71t-12.5 115t-28.5 165.5q-23 117 63 193.5t201 76.5q131 0 172 -98q-123 -6 -31 -332q33 -127 -73.5 -213t-362.5 -86z" glyph-name="Zcaron" horiz-adv-x="1048" unicode="Ž"/><glyph d="M94 1665l238 137q0 -78 63.5 -199.5t79.5 -205.5q16 80 81 201.5t62 195.5l238 -129q-51 -63 -114.5 -109.5t-106.5 -68t-86 -64.5t-66 -106h-18q-29 86 -86 130t-140.5 93t-144.5 125zM618 -23q-70 0 -209 20.5t-208 20.5q-74 0 -131 -18q-23 233 -23 332 q0 145 54.5 194t156.5 56q229 12 297 73q43 37 59.5 109t14.5 201q-8 100 -37 144t-84 42q-80 -2 -80 -201q0 -127 -39 -188.5t-133 -61.5q-156 0 -209 33q49 31 58.5 72t7.5 149q0 131 68.5 198t238.5 67q63 0 165.5 -21.5t149.5 -21.5q59 0 103 8q43 -33 53 -173.5 t-14 -234.5q-12 -59 -47 -97t-65 -52.5t-94.5 -35t-90.5 -32.5q-102 -43 -163 -136t-61 -292v-22q0 -35 1 -48.5t10.5 -23.5t29.5 -10q72 -2 137.5 55t65.5 147q0 29 -11 69t-11 58q0 74 66.5 120t154.5 46q66 0 123 -28q-25 -12 -33 -59.5t-8 -125.5v-82 q-19 -250 -263 -250z" glyph-name="zcaron" horiz-adv-x="944" unicode="ž"/><glyph d="M481 -35q-209 0 -317.5 92.5t-79.5 241.5q37 205 -37 285q55 6 85 9t87 5t91 -6t71 -22.5t55.5 -46t18.5 -77.5q0 -29 -20.5 -115.5t-20.5 -142.5q0 -82 28.5 -130t71.5 -48q61 0 97 39t36 156q0 53 -12 145t-12 129q0 63 20.5 151.5t20.5 110.5q0 63 -91 45 q-4 0 -95 -32.5t-146 -32.5q-133 0 -204 104.5t-71 245.5q0 211 121 305t371 94q199 0 320.5 -76.5t91.5 -203.5q-4 -23 -19.5 -60.5t-25 -62.5t-6.5 -58.5t26 -62.5q-55 -14 -117.5 -16t-130 11t-105.5 68.5t-28 145.5q4 29 9 61.5t9.5 54t7.5 45t4 39t1 31t-5.5 23.5 t-13.5 15.5t-20 10.5t-31 3q-61 0 -94 -109.5t-33 -253.5q0 -123 26.5 -200.5t82.5 -73.5q31 2 129 36.5t161 34.5q121 0 173.5 -98t52.5 -248q0 -156 -42 -268.5t-118 -175t-168 -90t-205 -27.5zM395 -573l-41 14q31 47 34 106.5t-7 104.5t-2 103.5t47 107.5h250 q-51 -53 -93 -148.5t-84.5 -174t-103.5 -113.5z" glyph-name="Scommaaccent" horiz-adv-x="1040" unicode="Ș"/><glyph d="M477 -35q-180 0 -283.5 75t-99.5 189q0 25 12.5 78t12.5 88q0 109 -78 117q61 90 184 86q115 -2 194 -81t68 -210q-8 -88 -61 -217q-20 -53 -15 -71.5t33 -18.5q66 0 117 133q47 133 47 256q6 186 -112 236q-49 23 -123 44t-123 35.5t-97.5 42t-73 75.5t-22.5 122 q2 84 39 141.5t104.5 84t136.5 37t159 10.5q195 0 323.5 -71t130.5 -188q0 -47 -20.5 -88t-42 -61.5t-60.5 -50.5q-25 -18 -37 -28.5t-24 -25t-11 -26.5t13 -25q-115 10 -171 65.5t-26 127.5q23 51 39.5 106.5t23.5 106.5t-7.5 85t-51.5 34q-59 0 -97 -101.5t-38 -224.5 q0 -150 109 -203q45 -23 139 -47t156.5 -43.5t114 -78t51.5 -150.5q-3 -365 -533 -365zM397 -573l-41 14q31 47 34 106.5t-7 104.5t-2 103.5t47 107.5h250q-51 -53 -93 -148.5t-84.5 -174t-103.5 -113.5z" glyph-name="scommaaccent" horiz-adv-x="1050" unicode="ș"/><glyph d="M852 0h-459q-33 106 -33 231q0 158 44.5 371t84 400.5t33.5 302.5q-6 106 -39 106q-25 0 -33 -39t-10 -166q-2 -117 -70.5 -178t-160.5 -61q-121 0 -170 88q33 8 52.5 54t39.5 157q39 205 385 204h184q233 0 331.5 -52t98.5 -152q0 -12 -1 -51t0 -59.5t4.5 -50.5 t14.5 -46.5t30 -24.5q-147 -96 -240 -96q-88 0 -115.5 84t11.5 258q29 115 -3 115q-33 0 -63 -72q-43 -96 -74.5 -249.5t-34.5 -301.5q-2 -170 37 -315.5t91.5 -267t64.5 -189.5zM467 -573l-41 14q31 47 34 106.5t-7.5 104.5t-2 103.5t47.5 107.5h250q-51 -53 -93.5 -148.5 t-84.5 -174t-103 -113.5z" glyph-name="uni021A" horiz-adv-x="1187" unicode="Ț"/><glyph d="M424 -35q-172 0 -268.5 81t-96.5 241q0 133 61.5 422.5t61.5 472.5q0 129 -23.5 205.5t-72.5 152.5h367q18 -106 2.5 -154.5t-45 -122t-29.5 -135.5q0 -152 45 -151q33 0 96 86q115 160 223 160q63 0 106.5 -57.5t43.5 -137.5q0 -111 -74 -184q-86 96 -190 96 q-129 0 -197 -141q-47 -104 -47 -267q0 -215 8 -333.5t25.5 -158.5t46.5 -40q84 0 61 412q-8 147 79 192t278 21q-35 -45 -41 -109.5t2 -251.5q6 -158 -106.5 -228.5t-315.5 -70.5zM315 -573l-41 14q31 47 34 106.5t-7 104.5t-2 103.5t47 107.5h250q-51 -53 -93 -148.5 t-84.5 -174t-103.5 -113.5z" glyph-name="uni021B" horiz-adv-x="927" unicode="ț"/><glyph d="M-55 1290l-19 -10q-20 68 -88.5 113t-143.5 66.5t-163 67.5t-139 111l229 187q4 -49 56.5 -109.5t112.5 -113t109.5 -136.5t45.5 -176z" glyph-name="gravecomb" unicode="̀"/><glyph d="M-571 1280l-19 10q-4 92 45 176t109.5 136.5t113 113t56.5 109.5l229 -187q-51 -66 -139 -111.5t-163 -67t-143.5 -66.5t-88.5 -113z" glyph-name="acutecomb" unicode="́"/><glyph d="M-573 1298l-238 138q61 76 144 125t140.5 93t86.5 130h18q23 -63 66 -106.5t86 -65t106.5 -67.5t114.5 -109l-238 -129q2 74 -62.5 195.5t-80.5 201.5q-16 -84 -79.5 -206t-63.5 -200z" glyph-name="uni0302" unicode="̂"/><glyph d="M-262 1397q-61 0 -169 75.5t-171 81.5q-94 14 -94 -69h-45q-2 111 47 178.5t139 60.5q61 -4 170 -69.5t143 -71.5q39 -6 55.5 9.5t16.5 37.5h45q0 -233 -137 -233z" glyph-name="tildecomb" unicode="̃"/><glyph d="M-94 1440h-455v84h455v-84z" glyph-name="uni0304" unicode="̄"/><glyph d="M-406 1329q-135 0 -215.5 65.5t-80.5 184.5q0 68 18 125h27q12 -78 68.5 -117t182.5 -39q123 0 179.5 38t76.5 118h25q10 -41 10 -96q0 -121 -79 -200t-212 -79z" glyph-name="uni0306" unicode="̆"/><glyph d="M-248 1282q-90 0 -140 59.5t-50 137t50 136t140 58.5q92 0 143.5 -56t51.5 -136t-51.5 -139.5t-143.5 -59.5z" glyph-name="uni0307" unicode="̇"/><glyph d="M-547 1329q-66 0 -109.5 42t-43.5 106q0 68 44 110.5t109 42.5q61 0 103.5 -43t42.5 -110q0 -63 -42.5 -105.5t-103.5 -42.5zM-196.5 1329q-63.5 0 -108.5 43t-45 105q0 66 45 109.5t108.5 43.5t104.5 -43t41 -110q0 -63 -41 -105.5t-104.5 -42.5z" glyph-name="uni0308" unicode="̈"/><glyph d="M-373 1440h-10v90q88 8 134 54t46 106q0 53 -38 92t-101 39q-35 0 -84 -17l-6 13q47 18 98 18q84 0 147.5 -44t63.5 -118q0 -68 -67.5 -118t-182.5 -50v-65z" glyph-name="hookabovecomb" unicode="̉"/><glyph d="M-233.5 1360q-112.5 0 -150.5 17.5t-38 52.5q0 14 7 48.5t7 57.5t-7 57.5t-7 48.5q0 35 38 52.5t150.5 17.5t150.5 -17.5t38 -52.5q0 -14 -7 -48.5t-7 -57.5t7 -57.5t7 -48.5q0 -35 -38 -52.5t-150.5 -17.5zM-233.5 1374q49.5 0 49.5 162q0 156 -47 156q-51 0 -52 -156 q0 -162 49.5 -162z" glyph-name="uni030A" unicode="̊"/><glyph d="M-864 1280l-19 10q0 90 38 177t83 142.5t84 119t41 110.5l223 -149q-51 -70 -124.5 -124.5t-132 -83t-113.5 -79.5t-80 -123zM-565 1276l-19 10q0 74 32 141.5t77 116.5t91 93t80 89.5t36 85.5l229 -188q-51 -63 -137 -107t-159 -64.5t-139 -65.5t-91 -111z" glyph-name="uni030B" unicode="̋"/><glyph d="M-805 1665l238 137q0 -78 63.5 -199.5t79.5 -205.5q16 80 80.5 201.5t62.5 195.5l238 -129q-51 -63 -114.5 -109.5t-106.5 -68t-86 -64.5t-66 -106h-18q-29 86 -86.5 130t-140.5 93t-144 125z" glyph-name="uni030C" unicode="̌"/><glyph d="M-66 1368h-264q-27 119 20.5 251t180.5 191l43 -47q-68 -47 -83 -101t4.5 -94t54 -101.5t44.5 -98.5z" glyph-name="uni0312" unicode="̒"/><glyph d="M-512 1376v21q133 31 220 140.5t87 260.5v107h82q0 -437 -389 -529z" glyph-name="uni031B" unicode="̛"/><glyph d="M-176.5 -406q-22.5 0 -37.5 15.5t-15 38t15 38t37.5 15.5t38 -15.5t15.5 -38t-15.5 -38t-38 -15.5z" glyph-name="dotbelowcomb" unicode="̣"/><glyph d="M-367 -573l-41 14q31 47 34 106.5t-7 104.5t-2 103.5t47 107.5h250q-51 -53 -93 -148.5t-84.5 -174t-103.5 -113.5z" glyph-name="uni0326" unicode="̦"/><glyph d="M-485 -449l-66 121q182 63 182 129q0 57 -182 47l131 152h41l-57 -96q59 10 123 10q102 0 152 -36t50 -87q0 -66 -76.5 -108.5t-174.5 -74.5t-123 -57z" glyph-name="uni0327" unicode="̧"/><glyph d="M-123 -287l-55 -116q-117 0 -175.5 52t-54 120.5t55.5 138t133 100.5h96v-8q-82 -49 -89 -137.5t89 -149.5z" glyph-name="uni0328" unicode="̨"/><glyph d="M-82 645h-455v41h455v-41z" glyph-name="uni0335" unicode="̵"/><glyph d="M-123 645h-864v43h864v-43z" glyph-name="uni0336" unicode="̶"/><glyph d="M-31 881l-633 -256l-20 57l633 256z" glyph-name="uni0337" unicode="̷"/><glyph d="M-694 -72h-78l651 1575h78z" glyph-name="uni0338" unicode="̸"/><glyph d="M1118 1544l-18 -10q-20 68 -89 113t-143.5 66.5t-163 67.5t-139.5 111l230 187q4 -49 56 -109.5t112.5 -113t109.5 -136.5t45 -176zM1198 -31q-238 0 -358 156q-33 -59 -129.5 -105.5t-216.5 -46.5q-59 0 -119 11.5t-128.5 40t-111.5 92t-43 151.5q0 45 34 217t34 275 q0 139 -23.5 263t-65.5 256t-48 159h487q23 -82 22 -166q0 -104 -67.5 -340t-67.5 -420q0 -217 59.5 -333t137.5 -116q41 0 67.5 42t26.5 116t-24 156q-53 176 -54 350q0 115 29 294t29 247q0 98 -33 170h414q-23 -231 -103 -508t-80 -414q0 -154 39 -260q35 -109 92.5 -166 t110.5 -57q76 0 76 96q0 37 -15 90q-2 6 -18 64.5t-22.5 80t-19.5 77t-18.5 90t-10.5 84t-5 92.5q0 158 73 361.5t73 369.5h460q-20 -88 -54 -163t-64.5 -125t-59 -103.5t-46 -127t-17.5 -167.5q0 -68 40 -229t40 -281q0 -273 -322 -273z" glyph-name="Wgrave" horiz-adv-x="1703" unicode="Ẁ"/><glyph d="M1116 1290l-18 -10q-20 68 -89 113t-143.5 66.5t-163 67.5t-139.5 111l230 187q4 -49 56 -109.5t112.5 -113t109.5 -136.5t45 -176zM1223 -31q-236 0 -361 158q-31 -55 -117 -102.5t-194 -51.5q-428 -18 -428 396q0 55 13.5 149t13.5 123q0 88 -54.5 218t-54.5 220 q0 47 12 107h418q10 -51 10 -109q0 -86 -50 -221t-52 -264q-4 -221 56.5 -387t172.5 -164q80 4 80 59q0 18 -47 122t-47 184q-2 70 20.5 126t49 88.5t49 86t22.5 118.5q0 123 -108 359h420q25 -135 24 -211q0 -90 -35 -164t-69.5 -164t-34.5 -217q0 -176 81 -294t161 -118 q66 0 65 90q0 68 -63.5 199t-63.5 207q0 78 82 216t82 249q0 100 -47 207h413q12 -74 13 -127q0 -72 -26.5 -130.5t-63.5 -98.5t-74 -74.5t-63.5 -76.5t-26.5 -89q0 -49 36 -97.5t71.5 -111t35.5 -143.5q0 -131 -88 -199t-233 -68z" glyph-name="wgrave" horiz-adv-x="1695" unicode="ẁ"/><glyph d="M662 1534l-19 10q-4 92 45 176t109.5 136.5t113 113t56.5 109.5l229 -187q-51 -66 -139 -111.5t-163 -67t-143.5 -66.5t-88.5 -113zM1198 -31q-238 0 -358 156q-33 -59 -129.5 -105.5t-216.5 -46.5q-59 0 -119 11.5t-128.5 40t-111.5 92t-43 151.5q0 45 34 217t34 275 q0 139 -23.5 263t-65.5 256t-48 159h487q23 -82 22 -166q0 -104 -67.5 -340t-67.5 -420q0 -217 59.5 -333t137.5 -116q41 0 67.5 42t26.5 116t-24 156q-53 176 -54 350q0 115 29 294t29 247q0 98 -33 170h414q-23 -231 -103 -508t-80 -414q0 -154 39 -260q35 -109 92.5 -166 t110.5 -57q76 0 76 96q0 37 -15 90q-2 6 -18 64.5t-22.5 80t-19.5 77t-18.5 90t-10.5 84t-5 92.5q0 158 73 361.5t73 369.5h460q-20 -88 -54 -163t-64.5 -125t-59 -103.5t-46 -127t-17.5 -167.5q0 -68 40 -229t40 -281q0 -273 -322 -273z" glyph-name="Wacute" horiz-adv-x="1703" unicode="Ẃ"/><glyph d="M659 1280l-18 10q-4 92 45 176t109.5 136.5t113 113t56.5 109.5l229 -187q-51 -66 -139 -111.5t-163 -67t-144 -66.5t-89 -113zM1223 -31q-236 0 -361 158q-31 -55 -117 -102.5t-194 -51.5q-428 -18 -428 396q0 55 13.5 149t13.5 123q0 88 -54.5 218t-54.5 220 q0 47 12 107h418q10 -51 10 -109q0 -86 -50 -221t-52 -264q-4 -221 56.5 -387t172.5 -164q80 4 80 59q0 18 -47 122t-47 184q-2 70 20.5 126t49 88.5t49 86t22.5 118.5q0 123 -108 359h420q25 -135 24 -211q0 -90 -35 -164t-69.5 -164t-34.5 -217q0 -176 81 -294t161 -118 q66 0 65 90q0 68 -63.5 199t-63.5 207q0 78 82 216t82 249q0 100 -47 207h413q12 -74 13 -127q0 -72 -26.5 -130.5t-63.5 -98.5t-74 -74.5t-63.5 -76.5t-26.5 -89q0 -49 36 -97.5t71.5 -111t35.5 -143.5q0 -131 -88 -199t-233 -68z" glyph-name="wacute" horiz-adv-x="1695" unicode="ẃ"/><glyph d="M684 1583q-66 0 -110 42t-44 106q0 68 44 110.5t110 42.5q61 0 103 -43t42 -110q0 -63 -42 -105.5t-103 -42.5zM1034.5 1583q-63.5 0 -108.5 43t-45 105q0 66 45 109.5t108.5 43.5t104.5 -43t41 -110q0 -63 -41 -105.5t-104.5 -42.5zM1198 -31q-238 0 -358 156 q-33 -59 -129.5 -105.5t-216.5 -46.5q-59 0 -119 11.5t-128.5 40t-111.5 92t-43 151.5q0 45 34 217t34 275q0 139 -23.5 263t-65.5 256t-48 159h487q23 -82 22 -166q0 -104 -67.5 -340t-67.5 -420q0 -217 59.5 -333t137.5 -116q41 0 67.5 42t26.5 116t-24 156 q-53 176 -54 350q0 115 29 294t29 247q0 98 -33 170h414q-23 -231 -103 -508t-80 -414q0 -154 39 -260q35 -109 92.5 -166t110.5 -57q76 0 76 96q0 37 -15 90q-2 6 -18 64.5t-22.5 80t-19.5 77t-18.5 90t-10.5 84t-5 92.5q0 158 73 361.5t73 369.5h460q-20 -88 -54 -163 t-64.5 -125t-59 -103.5t-46 -127t-17.5 -167.5q0 -68 40 -229t40 -281q0 -273 -322 -273z" glyph-name="Wdieresis" horiz-adv-x="1703" unicode="Ẅ"/><glyph d="M682 1329q-66 0 -110 42t-44 106q0 68 44 110.5t110 42.5q61 0 103 -43t42 -110q0 -63 -42 -105.5t-103 -42.5zM1032.5 1329q-63.5 0 -108.5 43t-45 105q0 66 45 109.5t108.5 43.5t104.5 -43t41 -110q0 -63 -41 -105.5t-104.5 -42.5zM1223 -31q-236 0 -361 158 q-31 -55 -117 -102.5t-194 -51.5q-428 -18 -428 396q0 55 13.5 149t13.5 123q0 88 -54.5 218t-54.5 220q0 47 12 107h418q10 -51 10 -109q0 -86 -50 -221t-52 -264q-4 -221 56.5 -387t172.5 -164q80 4 80 59q0 18 -47 122t-47 184q-2 70 20.5 126t49 88.5t49 86t22.5 118.5 q0 123 -108 359h420q25 -135 24 -211q0 -90 -35 -164t-69.5 -164t-34.5 -217q0 -176 81 -294t161 -118q66 0 65 90q0 68 -63.5 199t-63.5 207q0 78 82 216t82 249q0 100 -47 207h413q12 -74 13 -127q0 -72 -26.5 -130.5t-63.5 -98.5t-74 -74.5t-63.5 -76.5t-26.5 -89 q0 -49 36 -97.5t71.5 -111t35.5 -143.5q0 -131 -88 -199t-233 -68z" glyph-name="wdieresis" horiz-adv-x="1695" unicode="ẅ"/><glyph d="M389 0h-348q14 160 87 351.5t73 320.5q0 74 -23.5 214t-23.5 224q0 170 143 266.5t330 96.5q209 0 289.5 -46.5t80.5 -199.5v-97q0 -88 -34.5 -138t-83 -61t-97.5 -11t-83.5 -6.5t-34.5 -30.5q0 -37 45 -58.5t108.5 -39t128 -45t109.5 -95t45 -172.5q0 -145 -40 -242.5 t-115 -145.5t-157.5 -66.5t-193.5 -18.5l-72 219q127 8 186.5 78t59.5 164q0 88 -19.5 150.5t-48 95t-57.5 56t-48.5 52.5t-19.5 68q0 57 78 166.5t78 189.5q0 70 -39 108.5t-98 38.5q-53 0 -93 -41.5t-34 -115.5q18 -209 18 -361q0 -238 -48 -493.5t-48 -374.5z" glyph-name="uni1E9E" horiz-adv-x="1140" unicode="ẞ"/><glyph d="M758 1544l-19 -10q-20 68 -88.5 113t-143.5 66.5t-163 67.5t-139 111l229 187q4 -49 56.5 -109.5t113 -113t109.5 -136.5t45 -176zM715 0h-531q0 113 37 214t81 159.5t81 110t37 75.5q0 45 -90 45q-27 2 -85.5 0t-80.5 -2q-150 6 -150 193q0 57 11.5 126.5t33 171 t31.5 158.5q14 63 2 99t-59 36q59 82 194 82q90 0 156 -47t66 -135q0 -147 -48.5 -318t-48.5 -200q0 -156 146 -156q68 0 104.5 54.5t36.5 109.5q0 61 -35 244.5t-35 271.5q0 84 69 130t157 46q109 0 174 -71q-68 -27 -68 -166q0 -53 13.5 -185.5t13.5 -195.5 q0 -244 -234 -252q-104 -6 -139 -49q-33 -35 -33 -111q0 -63 85 -198.5t108 -239.5z" glyph-name="Ygrave" horiz-adv-x="983" unicode="Ỳ"/><glyph d="M791 1290l-19 -10q-20 68 -89 113t-143.5 66.5t-162.5 67.5t-139 111l229 187q4 -49 56 -109.5t112.5 -113t110 -136.5t45.5 -176zM530 -319q-410 0 -409 260q0 78 49 120.5t121 42.5q90 0 162 -63q-33 -68 -33 -141q0 -76 34.5 -127.5t94.5 -51.5q63 0 108 71t63.5 158 t18.5 171q0 117 -39 117q-14 0 -110 -44t-189 -44q-215 0 -264 117.5t-6 420.5q12 90 -1 168t-36.5 124t-43 101.5t-17.5 102.5h407q55 -209 56 -402q0 -84 -9.5 -183t-16.5 -158.5t-6 -114t21.5 -78t67.5 -23.5q63 0 115.5 82t52.5 221q0 170 -51 316q-18 51 -25.5 75.5 t-17 70.5t-7 92t12.5 102h387q37 -154 37 -277q0 -115 -32 -207t-69.5 -142t-69.5 -121.5t-32 -147.5q0 -53 23.5 -95t52 -68t52.5 -74t24 -111q0 -94 -72 -154.5t-173.5 -83t-230.5 -22.5z" glyph-name="ygrave" horiz-adv-x="1079" unicode="ỳ"/><glyph d="M819 610h-778v62h778v-62z" glyph-name="endash" horiz-adv-x="860" unicode="–"/><glyph d="M971 610h-930v62h930v-62z" glyph-name="emdash" horiz-adv-x="1011" unicode="—"/><glyph d="M479 1608q-27 -20 -48 -43t-32.5 -52.5t-19.5 -50t-11 -56.5t-4.5 -51.5t0 -55t1.5 -46.5q0 -61 -45.5 -94t-110.5 -33q-59 0 -101 33t-42 94q0 145 106 240t307 115z" glyph-name="quoteleft" horiz-adv-x="522" unicode="‘"/><glyph d="M43 1122q27 20 48.5 43t32.5 52.5t19.5 50t11.5 56.5t4 51.5t0 55t-1 46.5q0 61 45 94t110 33q59 0 101.5 -33t42.5 -94q0 -145 -106.5 -240t-307.5 -115z" glyph-name="quoteright" horiz-adv-x="522" unicode="’"/><glyph d="M43 -170q27 20 48.5 43t32.5 52.5t19.5 50t11.5 56.5t4 51t0 55t-1 46q0 61 45 94t110 33q59 0 101.5 -32.5t42.5 -94.5q0 -145 -106.5 -239.5t-307.5 -114.5z" glyph-name="quotesinglbase" horiz-adv-x="522" unicode="‚"/><glyph d="M479 1485q-27 -20 -48 -43t-32.5 -52.5t-19.5 -50t-11 -56.5t-4.5 -51t0 -55t1.5 -47q0 -61 -45.5 -93.5t-110.5 -32.5q-59 0 -101 32.5t-42 93.5q0 145 106 240t307 115zM870 1485q-27 -20 -48 -43t-32.5 -52.5t-19.5 -50t-11 -56.5t-4 -51t0 -55t1 -47q0 -61 -45 -93.5 t-111 -32.5q-59 0 -101 32.5t-42 93.5q0 145 106 240t307 115z" glyph-name="quotedblleft" horiz-adv-x="913" unicode="“"/><glyph d="M479 1522q-27 -20 -48 -43t-32.5 -52.5t-19.5 -50t-11 -56.5t-4.5 -51.5t0 -55t1.5 -46.5q0 -61 -45.5 -94t-110.5 -33q-59 0 -101 33t-42 94q0 145 106 240t307 115zM852 1522q-27 -20 -48.5 -43t-32.5 -52.5t-19.5 -50t-11.5 -56.5t-4 -51.5t0 -55t1 -46.5 q0 -61 -45 -94t-110 -33q-59 0 -101.5 33t-42.5 94q0 145 106.5 240t307.5 115z" glyph-name="quotedblright" horiz-adv-x="894" unicode="”"/><glyph d="M43 -170q27 20 48.5 43t32.5 52.5t19.5 50t11.5 56.5t4 51t0 55t-1 46q0 61 45 94t110 33q59 0 101.5 -32.5t42.5 -94.5q0 -145 -106.5 -239.5t-307.5 -114.5zM434 -170q27 20 48.5 43t32.5 52.5t19.5 50t11.5 56.5t4 51t0 55t-1 46q0 61 45 94t111 33q59 0 101 -32.5 t42 -94.5q0 -145 -106.5 -239.5t-307.5 -114.5z" glyph-name="quotedblbase" horiz-adv-x="913" unicode="„"/><glyph d="M537 410h-172q0 51 1 129.5t1 109.5q0 160 -26 239t-110 136q113 0 164 84q31 49 31 72q0 16 -16 16q-20 0 -66 -27q-18 -10 -60 -41.5t-76 -47t-71 -15.5q-51 0 -73.5 48t-22.5 99q0 41 30.5 71t86.5 30q37 0 68.5 -12.5t66.5 -36t55 -31.5q43 -18 61.5 -18.5t18.5 14.5 q0 33 -43 78q-10 12 -36.5 42.5t-40 48t-26 45t-12.5 54.5q0 57 53.5 89t127 32t126 -31t52.5 -88q0 -27 -12.5 -55.5t-24.5 -46t-40 -51t-36 -43.5q-39 -45 -39 -76q0 -16 21 -17q18 0 67 25q14 8 51 31.5t66 35t66 11.5q55 0 85.5 -30t30.5 -71q0 -55 -20.5 -106 t-71.5 -51q-39 0 -74.5 19.5t-76.5 52t-66 47.5q-39 20 -59 20q-23 0 -23 -18q0 -37 55 -93q59 -59 142 -59q-84 -61 -108.5 -153.5t-24.5 -284.5v-176z" glyph-name="dagger" horiz-adv-x="905" unicode="†"/><glyph d="M543 117h-181q45 137 46 258q0 242 -170 356q78 2 129 36t51 87q0 20 -19 20q-14 0 -124.5 -54t-135.5 -54q-45 0 -71.5 35t-26.5 82q0 53 30.5 92t88.5 39q41 0 71.5 -9.5t75.5 -32t60 -28.5q27 -12 44 19.5t17 78.5q0 84 -37 84q-4 0 -85 -31.5t-167 -31.5 q-45 0 -71.5 35t-26.5 82q0 53 30.5 92t88.5 39q45 0 122.5 -62.5t94.5 -62.5q20 0 20 26q0 59 -64.5 153.5t-64.5 131.5q0 57 55.5 89t129 32t129 -32t55.5 -89q0 -35 -63.5 -128t-63.5 -155q0 -18 11 -26t26 0q10 6 80.5 64.5t122.5 58.5q57 0 87.5 -41t30.5 -99 q0 -49 -24.5 -83.5t-67.5 -34.5q-88 0 -173 36.5t-87 36.5q-27 0 -27 -77q0 -47 13.5 -82t36.5 -23q121 70 211 70q57 0 87.5 -41t30.5 -99q0 -49 -24.5 -83.5t-67.5 -34.5q-35 0 -137 59t-121 59q-25 0 -24 -20q0 -45 56 -83t118 -40q-74 -47 -119 -146.5t-45 -232.5 q0 -112 39 -235z" glyph-name="daggerdbl" horiz-adv-x="909" unicode="‡"/><glyph d="M391 299q-150 0 -250 100.5t-100 249.5q0 156 100.5 258.5t249.5 102.5q158 0 259.5 -101.5t101.5 -259.5q0 -150 -102.5 -250t-258.5 -100z" glyph-name="bullet" horiz-adv-x="868" unicode="•"/><glyph d="M223 -35q-76 0 -129 52.5t-53 129.5q0 82 52 135.5t130 53.5q82 0 135.5 -53.5t53.5 -135.5q0 -78 -53.5 -130t-135.5 -52zM684 -35q-78 0 -130 52.5t-52 129.5q0 82 52 135.5t130 53.5q82 0 135 -53.5t53 -135.5q0 -78 -53 -130t-135 -52zM1137 -35q-76 0 -129.5 52.5 t-53.5 129.5q0 82 52.5 135.5t130.5 53.5q82 0 135 -53.5t53 -135.5q0 -78 -53 -130t-135 -52z" glyph-name="ellipsis" horiz-adv-x="1388" unicode="…"/><glyph d="M319 723q-279 0 -278 186q0 53 18.5 119t18.5 94q0 20 -18.5 82t-18.5 123q0 66 76 102.5t207 36.5q45 0 87 -6t89 -21.5t75.5 -50t28.5 -83.5q0 -39 -12 -101.5t-12 -89.5q0 -18 17 -73.5t17 -118.5q0 -59 -29.5 -101.5t-77.5 -62t-93.5 -27.5t-94.5 -8zM326 741 q80 0 80 152q0 41 -10.5 98.5t-10.5 104.5q0 63 7 124.5t7 110.5q0 61 -15 89t-58 28q-41 0 -57.5 -29.5t-16.5 -93.5q0 -31 9 -99.5t9 -129.5q0 -43 -9 -100.5t-9 -112.5q0 -72 15.5 -107t58.5 -35zM360 0h-41l603 1438h39zM975 -35q-152 0 -215.5 54.5t-63.5 134.5 q0 53 18.5 117.5t18.5 95.5q0 18 -18.5 79.5t-18.5 124.5q0 66 76 103t207 37q45 0 87 -6.5t89 -21.5t76 -50t29 -84q0 -39 -12.5 -101.5t-12.5 -89.5q0 -18 17.5 -73.5t17.5 -118.5q0 -80 -54.5 -128t-112.5 -60.5t-128 -12.5zM1624 -37q-152 0 -215 54.5t-63 132.5 q0 55 18 119.5t18 92.5q0 20 -18 83t-18 124q0 66 75.5 103t206.5 37q63 0 119.5 -9.5t110 -48.5t53.5 -104q0 -39 -13.5 -102.5t-13.5 -90.5q0 -18 17.5 -73.5t17.5 -116.5q0 -80 -54.5 -128t-112.5 -60.5t-128 -12.5zM983 -14q43 0 60.5 36.5t17.5 114.5q0 41 -10.5 98.5 t-10.5 104.5q0 61 7.5 122.5t7.5 112.5q0 61 -14.5 89t-57.5 28t-59.5 -29.5t-16.5 -93.5q0 -31 9.5 -99.5t9.5 -129.5q0 -45 -9.5 -100.5t-9.5 -112.5q0 -72 16.5 -106.5t59.5 -34.5zM1632 -16q78 0 78 149q0 43 -10 100.5t-10 102.5q0 63 7 125.5t7 111.5q0 61 -14.5 88 t-57.5 27t-59.5 -28.5t-16.5 -92.5q0 -31 9.5 -100.5t9.5 -130.5q0 -43 -9.5 -99.5t-9.5 -113.5q0 -72 16.5 -105.5t59.5 -33.5z" glyph-name="perthousand" horiz-adv-x="1959" unicode="‰"/><glyph d="M717 336v-205q-72 57 -172.5 94t-183 57.5t-158.5 50t-119 94.5t-43 169t43 173t120 106.5t157.5 64.5t183 67t172.5 91v-187q0 -61 -49.5 -103t-122 -59.5t-157.5 -33t-158.5 -24.5t-123 -33.5t-49.5 -61.5q0 -47 103.5 -67.5t226.5 -25.5t226.5 -46t103.5 -121z" glyph-name="guilsinglleft" horiz-adv-x="757" unicode="‹"/><glyph d="M41 131v205q0 80 103.5 121t226.5 46t226 25.5t103 67.5q0 37 -49 61.5t-122.5 33.5t-158.5 24.5t-158 33t-122 59.5t-49 103v187q70 -51 172 -91t183 -67t158 -64.5t120 -106.5t43 -173t-43 -169t-119 -94.5t-159 -50t-183 -57.5t-172 -94z" glyph-name="guilsinglright" horiz-adv-x="757" unicode="›"/><glyph d="M98 0h-57l848 1438h57z" glyph-name="fraction" horiz-adv-x="991" unicode="⁄"/><glyph d="M797 547q96 0 237 -78q-29 -20 -42 -68.5t-15 -102.5t-20.5 -114.5t-52.5 -108.5t-116.5 -80t-207.5 -32q-274 2 -404.5 167t-114.5 464v14h-20v58h25q0 10 1 29.5t3 29.5h-29v57h35q37 350 164 520.5t389 170.5q139 0 232 -81t93 -200q0 -31 -1 -82t-1 -66 q0 -61 8.5 -87.5t34.5 -38.5q-57 -102 -176 -103q-76 0 -131 54.5t-55 152.5q0 43 21.5 165t21.5 156q0 94 -49 95q-55 0 -110.5 -207t-86.5 -449h363v-57h-371l-6 -59h377v-58h-381v-39q0 -221 59 -395t123 -174q59 0 59 139q0 23 -4 86.5t-2 98.5q0 223 150 223z" glyph-name="Euro" horiz-adv-x="1095" unicode="€"/><glyph d="M336 934h-162q-10 33 -10 82q0 66 28.5 196.5t26.5 178.5q0 39 -12 39q-14 0 -17 -74q0 -41 -23.5 -61.5t-55.5 -20.5q-45 0 -60 29q18 8 31 75q14 72 135 72h66q150 0 149 -72q0 -74 17 -82q-47 -33 -82 -32q-68 0 -37 118q10 41 -2.5 41t-20.5 -24q-39 -82 -39 -195 q-2 -80 32 -171t36 -99zM606 934h-151q-10 41 -11 80q0 57 24 173t24 152q0 66 -27 70h-6q16 37 59 37q25 0 44.5 -19.5t19.5 -52.5q63 76 127 76q35 0 59.5 -21.5t24.5 -54.5q63 74 161 74q41 0 71 -20.5t28 -57.5q0 -39 -53.5 -90t-47.5 -88q4 -37 33 -65.5t53.5 -61.5 t24.5 -84q0 -10 -4 -47h-160q16 39 16 72q0 41 -37.5 107.5t-37.5 121.5q0 70 84 154q23 27 6 28q-59 0 -106.5 -49t-47.5 -123q0 -39 29 -120t31 -130q4 -39 0 -61h-162q14 68 13 91.5t-9 76.5t-8 96q0 45 18.5 112.5t18.5 92.5q0 29 -25 29q-45 -4 -72.5 -69t-29.5 -138 q-2 -66 15 -164t11 -127z" glyph-name="trademark" horiz-adv-x="1105" unicode="™"/><glyph d="M793 606h-752v58h752v-58z" glyph-name="minus" horiz-adv-x="833" unicode="−"/><glyph d="M858 569q-100 0 -329.5 63.5t-309.5 63.5q-139 0 -139 -114h-39q0 156 72.5 263t191.5 107q160 0 384 -63.5t269 -63.5q106 0 93 123h18q39 -72 39 -143q0 -100 -65.5 -168t-184.5 -68zM858 150q-100 0 -329.5 63t-309.5 63q-139 0 -139 -114h-39q0 156 72.5 263 t191.5 107q160 0 384 -63t269 -63q106 0 93 122h18q39 -72 39 -143q0 -100 -65.5 -167.5t-184.5 -67.5z" glyph-name="approxequal" horiz-adv-x="1148" unicode="≈"/><glyph d="M793 764v-57h-279l-96 -150h375v-57h-410l-129 -201h-57l129 201h-285v57h319l97 150h-416v57h453l165 260h58l-166 -260h242z" glyph-name="notequal" horiz-adv-x="833" unicode="≠"/><glyph d="M719 336v-205q-72 57 -172.5 94t-183 57.5t-158.5 50t-119 94.5t-43 169t43 173t120 106.5t157.5 64.5t183 67t172.5 91v-187q0 -61 -49 -103t-122 -59.5t-158 -33t-158.5 -24.5t-123 -33.5t-49.5 -61.5q0 -47 103.5 -67.5t226.5 -25.5t226.5 -46t103.5 -121zM719 59v-57 h-678v57h678z" glyph-name="lessequal" horiz-adv-x="759" unicode="≤"/><glyph d="M41 131v205q0 80 103.5 121t226.5 46t226 25.5t103 67.5q0 37 -49 61.5t-122.5 33.5t-158.5 24.5t-158 33t-122 59.5t-49 103v187q70 -51 172 -91t183 -67t158 -64.5t120 -106.5t43 -173t-43 -169t-119 -94.5t-159 -50t-183 -57.5t-172 -94zM719 2h-678v57h678v-57z" glyph-name="greaterequal" horiz-adv-x="827" unicode="≥"/><glyph d="M571 0h-20l-498 721l498 717h20l496 -717zM217 721l342 -598l342 598l-340 622z" glyph-name="lozenge" horiz-adv-x="1118" unicode="◊"/><glyph d="M1372 -543q-360 0 -546.5 254t-184.5 670q0 61 4 160q0 43 -21.5 66.5t-54.5 23.5q-63 0 -88 -74q-80 -223 -80 -340q0 -109 48 -217h-418q-8 66 -8 131q0 143 49 274.5t110.5 262.5t79.5 247q27 195 -55 340.5t-266 147.5q-113 4 -113 -76q0 -63 58.5 -128.5 t150.5 -65.5q53 0 98 18q-8 -82 -69.5 -139.5t-145.5 -57.5q-102 0 -182 82t-80 195q0 111 70.5 191.5t187.5 80.5q49 0 181 -31.5t206 -31.5q55 0 169 18.5t190 18.5q178 0 312 -112t111 -302q-8 -61 -24.5 -186t-23.5 -184.5t-13 -164t-6 -215.5q0 -223 30.5 -380.5 t82 -233.5t102.5 -106.5t110 -30.5q72 0 147 85t112 210q121 -78 120 -176q0 -92 -101.5 -158t-248.5 -66zM602 686q57 0 74 74q4 23 15 79t15.5 81.5t12.5 74.5t12 82t7 75t3 81q0 88 -34.5 140t-81.5 57q-49 4 -83 -28t-34 -97q0 -78 29.5 -176.5t29.5 -149.5 q0 -109 -28 -227q-6 -29 13 -47.5t50 -18.5z" glyph-name="uniE100" horiz-adv-x="1126" unicode=""/><glyph d="M590 -35q-70 0 -143.5 19.5t-120.5 36t-121 14.5t-160 -37q12 133 42 233.5t57.5 151.5t50 136t22.5 194q0 145 -33.5 246.5t-68.5 175t-35 149.5q141 152 321 152q-6 -88 -8 -146.5t7.5 -146.5t16.5 -142.5t19.5 -136.5t18.5 -125q49 16 81.5 34t73.5 56.5t61.5 107.5 t20.5 167q0 186 -116.5 315t-270.5 113q-106 -12 -176 -65.5t-112 -175.5t-42 -316q-53 -25 -122.5 13t-69.5 138q0 141 91 245t227.5 151t295.5 47q250 0 432.5 -125t182.5 -340q0 -47 -5.5 -87t-11.5 -71t-22.5 -56.5t-26.5 -43t-34.5 -34.5t-37 -25.5t-45 -20.5 t-46 -16.5t-52.5 -14.5t-53 -14q18 -4 64 -13.5t59.5 -12.5t49.5 -13t47 -17.5t35.5 -21.5t33 -29.5t23 -39t19.5 -51t9 -63.5t4 -81q0 -223 -99.5 -318.5t-332.5 -95.5zM461 70q2 -35 43 -39q72 -8 121 82q59 104 53 307q-2 72 -12.5 123t-26.5 79.5t-37.5 48t-45.5 23.5 t-49.5 6t-49.5 0q31 -347 4 -630z" glyph-name="uniE101" horiz-adv-x="1062" unicode=""/><glyph d="M2232 -455l-174 -45q-63 137 -139 192.5t-188 55.5q-98 0 -382 -58.5t-411 -58.5q-162 0 -294 40t-220 104.5t-155.5 158t-104.5 185.5t-59.5 202.5t-29.5 195.5t-7 175q0 213 46 369t137 255t197.5 157.5t256.5 101.5q37 10 80.5 18.5t77.5 13.5t91.5 9t84 6t96 3t86 1 h96.5h88q127 0 199.5 3t163 13.5t143.5 36t80 66.5q82 -74 82 -182q0 -123 -75 -184.5t-206 -63.5q-80 -2 -185.5 34.5t-190.5 82t-190.5 83t-185.5 37.5q-78 0 -142 -12t-114.5 -36.5t-89.5 -58.5t-66.5 -77t-48 -94t-31.5 -108.5t-19.5 -122t-9.5 -132t-3 -139.5t0 -145 v-78q0 -422 166 -609.5t451 -187.5q154 0 434 60.5t381 60.5q150 0 219 -79t65 -249z" glyph-name="uniE102" horiz-adv-x="688" unicode=""/><glyph d="M457 0h-389q-45 195 8 340q12 39 39.5 108.5t40 107.5t23.5 107.5t11 147.5q-2 178 -73 326l375 188q-78 -354 -50 -672q14 -160 3 -293t8.5 -220t89.5 -87q94 0 160.5 100.5t66.5 249.5q0 158 -55 324q-25 70 -28 150.5t5 180t6 148.5q-2 88 -57 143.5t-168 55.5 q-47 0 -105.5 -11.5t-143.5 -54.5t-156.5 -111.5t-134 -197.5t-87.5 -299q-94 4 -147 59.5t-53 141.5q0 92 56 185t157.5 174t266.5 131.5t361 50.5q98 0 196.5 -17.5t195 -54.5t157 -109.5t60.5 -171.5q0 -82 -30 -203.5t-30 -175.5q0 -41 39 -155.5t39 -237.5 q0 -80 -28.5 -140.5t-84 -97t-115 -60t-143.5 -34t-144 -13.5t-142 -3z" glyph-name="uniE103" horiz-adv-x="1155" unicode=""/><glyph d="M1669 -219l-96 -289q-55 70 -148.5 109t-188.5 48t-198.5 31.5t-184.5 58.5t-139.5 129t-70.5 241q-18 102 1.5 224t47 226.5t27.5 145.5q0 43 -72 51q-55 8 -110 4q-57 -2 -94 -89t-37 -216q0 -236 116 -455h-499q0 131 81.5 395t81.5 369q0 94 -25.5 175t-54 132 t-49 147.5t-14.5 219.5h453q6 -98 -36 -274.5t-42 -227.5q0 -63 28.5 -97t108.5 -38h59q154 0 154 117q0 70 -71.5 258t-71.5 262h417q12 -104 13 -176q0 -143 -51.5 -305t-67.5 -316q-18 -131 -10 -281.5t30.5 -278.5t86 -212t159.5 -82q74 2 177.5 29.5t168 25.5 t121.5 -61z" glyph-name="uniE104" horiz-adv-x="1128" unicode=""/><glyph d="M80 -51q-135 0 -228.5 90t-93.5 225q0 100 65.5 173t149.5 73q111 0 185 -96l-95 -168q-45 74 -122 73q-37 0 -61.5 -21.5t-24.5 -57.5q0 -143 170 -144q88 0 149.5 100.5t54.5 288.5q-2 117 -38.5 251t-77.5 232.5t-64.5 226.5t-3.5 243h453q-150 -240 -140 -439 q2 -51 43 -149t81 -215t40 -215q0 -178 -120.5 -324.5t-321.5 -146.5z" glyph-name="uniE105" horiz-adv-x="536" unicode=""/><glyph d="M1415 -313l-123 -222q-53 43 -206.5 91.5t-389 115t-391.5 123.5q-141 51 -247.5 103.5t-200 120t-143.5 151.5t-50 180q0 102 39 175t105.5 110t134 53.5t143.5 16.5q205 0 285 -77t53 -249q-12 -70 -94 -215q-53 -94 -33 -117q14 -14 55 -14q61 0 107.5 40t70 103.5 t33.5 126t10 121.5q2 250 -67.5 527.5t-81.5 486.5h424q18 -178 18 -315.5t-9 -277.5t-9 -233q0 -8 2 -68.5t1 -92t-10.5 -97t-26.5 -105.5t-54 -93.5t-88 -83t-131 -51t-183 -21.5q-326 0 -260 293q78 360 -47 360q-72 0 -135 -109.5t-63 -234.5q2 -129 66.5 -218t183 -136 t240.5 -68.5t284 -29.5q25 -2 124 -6.5t133 -7.5t116.5 -10t123.5 -18.5t102.5 -27.5t105.5 -41.5t83 -58.5z" glyph-name="uniE106" horiz-adv-x="899" unicode=""/><glyph d="M463 0h-424q-16 68 -16 139q0 94 35.5 179t77.5 137.5t78 125t36 146.5q0 70 -30 140.5t-62.5 126t-52 172t-3.5 272.5h451q8 -98 -16.5 -185.5t-62.5 -144.5t-75 -133t-52 -147.5t5 -188.5q117 358 305.5 549.5t427.5 275.5q47 16 150.5 47t155 49.5t126 54.5t128 85 t96.5 117q137 -117 137 -242q0 -117 -114.5 -210t-342.5 -122q-365 -43 -645 -186q-135 -68 -233.5 -171.5t-108.5 -166.5q-6 -14 2 -27q6 -14 39 15q14 12 60.5 55t77 68.5t75.5 49t82 23.5q74 0 124 -55t78.5 -160.5t44 -208t34 -249t34.5 -230.5h-448q18 258 -25 456.5 t-110 200.5q-25 2 -55.5 -28.5t-51.5 -77.5q-25 -57 -24.5 -117.5t14.5 -110t39 -143.5t39 -180z" glyph-name="uniE107" horiz-adv-x="1138" unicode=""/><glyph d="M1622 -578q-317 0 -317 289q0 127 63 361q29 123 17.5 201.5t-49.5 157.5t-81 137.5t-75.5 138t-32.5 159.5q0 184 194 410q88 102 95 119q6 25 -31 26q-156 0 -297 -173t-141 -359q0 -106 90 -353t90 -405q0 -57 -12 -129h-461q33 106 38 202.5t-7.5 162t-26.5 174 t-14 215.5q0 131 53 323.5t53 259.5q0 43 -17.5 63.5t-54.5 18.5q-86 -8 -153.5 -104t-101 -224t-37.5 -262q-2 -186 47 -465.5t32 -363.5h-434q-29 100 -28 227q0 166 65.5 497t65.5 435q0 186 -74 197q-12 4 -21 2q55 104 170 104q74 0 129.5 -55t55.5 -147 q182 215 362 215q94 0 167 -64.5t71 -152.5q84 94 216 150t245 56q117 0 201.5 -58t82.5 -165q0 -59 -32.5 -115.5t-77.5 -99.5t-89 -86t-71 -96t-19 -111q10 -68 49.5 -129t81 -99t80.5 -95.5t50.5 -116.5t-11.5 -164q-45 -160 -67.5 -267.5t-25.5 -175t14.5 -97 t54.5 -29.5q55 0 168.5 78.5t235.5 157.5t198 79q88 0 138 -53t50 -129q0 -80 -53 -141q-74 49 -199 34.5t-228 -51.5t-217 -76t-167 -39z" glyph-name="uniE108" horiz-adv-x="1812" unicode=""/><glyph d="M987 0h-440q-2 154 19.5 328t57 358t44.5 254q10 76 10 142.5t-14.5 143.5t-63.5 123t-131 46q-109 0 -203 -62.5t-94 -138.5q0 -37 37 -48t117 -11h18q57 0 88 -2.5t73 -10.5t62.5 -29.5t24.5 -58.5q20 -57 -23 -112q-37 -59 -108 -52q10 33 10 66q0 37 -15.5 62.5 t-34 40t-54 24.5t-60 13t-67.5 7q-57 6 -83 10.5t-65 16.5t-55.5 38t-16.5 64q0 145 152 241.5t348 96.5q319 0 422 -311q104 117 191.5 164t195.5 47q113 0 181.5 -57.5t68.5 -167.5q0 -84 -27.5 -155t-58.5 -113t-50.5 -116.5t-4.5 -168.5q12 -88 52 -158t69.5 -107.5 t47 -142t-15.5 -264.5h-424q23 268 19 393t-37 316q-20 160 -6 255t42.5 197.5t28.5 132.5q0 68 -86 49q-86 -6 -154.5 -209.5t-68.5 -369.5q0 -92 34 -225t52.5 -231.5t-4.5 -307.5z" glyph-name="uniE109" horiz-adv-x="1636" unicode=""/><glyph d="M1139 -18q-254 0 -399.5 100t-145.5 289q0 63 23.5 155t23.5 162q0 47 -11.5 148.5t-11.5 164.5q0 250 134.5 349.5t402.5 93.5l6 -39q-88 4 -136 -55.5t-48 -178.5q0 -61 39 -198t39 -262q0 -86 -39 -212t-39 -241q0 -102 43 -170t133 -68t127 65t37 196q0 98 -41 219 t-41 211q0 127 37 251.5t37 223.5q0 61 -2 93t-17.5 84t-45.5 79.5t-90 49t-148 21.5q-109 0 -335.5 -97t-348.5 -97q-150 0 -281 104l127 195q121 -96 287 -96q84 0 275.5 35.5t301.5 35.5q319 0 476 -136t157 -320q0 -82 -56.5 -191.5t-56.5 -163.5q0 -39 33 -98 t65.5 -142t32.5 -177q1 -383 -544 -383z" glyph-name="uniE10A" horiz-adv-x="1724" unicode=""/><glyph d="M1069 0h-424q0 139 19.5 240.5t71.5 253t67 202.5q27 88 -11 196.5t-90.5 212t-54.5 159.5q47 0 135 14t156 29l70 14q-53 -86 -50 -313q4 -201 46.5 -334t130.5 -133q78 0 75 391v35q0 55 7.5 134t12.5 131t3 103t-23.5 77t-62.5 26q-76 0 -346.5 -67.5t-427.5 -67.5 q-215 0 -332 127l172 272q102 -131 237.5 -181.5t305.5 -52.5q92 -2 252.5 15.5t218.5 17.5q395 0 395 -516q0 -131 -14.5 -225t-52 -176t-111.5 -123t-184 -41q-51 0 -98.5 25.5t-74 55t-50 54.5t-33.5 25q-18 0 -25 -84q-6 -117 42 -263.5t48 -232.5z" glyph-name="uniE10B" horiz-adv-x="1662" unicode=""/><glyph d="M2374 -483q-82 51 -188.5 67.5t-194.5 8t-248 -32.5q-207 -33 -345 62t-138 259q0 86 20 219t19 238.5t-44 210.5q-29 68 -72.5 108.5t-84.5 40.5q-43 0 -71 -56t-28 -171q0 -229 107 -471h-455q-39 98 -39 193q0 84 34 168.5t76 143t75.5 134.5t33.5 143q0 47 -91 241 t-95 286l430 39q2 -8 9.5 -43t10.5 -67t6 -79t-4 -101t-24 -112q-23 -90 -4.5 -140t70.5 -54q86 -4 164.5 99t78.5 273q2 162 -58 236t-173 84q-104 8 -368.5 -39t-387.5 -47q-240 0 -354 131l160 221q227 -201 536 -201q100 0 294 26t284 26q410 0 409 -414 q0 -172 -116.5 -281.5t-294.5 -146.5q154 0 222.5 -50.5t82.5 -148.5q10 -66 13 -189.5t5 -233t14.5 -217t51.5 -171t106 -63.5q61 0 131 32.5t122.5 70.5t113.5 71t106 33q80 0 115 -59.5t26 -136.5t-48 -140z" glyph-name="uniE10C" horiz-adv-x="1771" unicode=""/><glyph d="M467 -147q-193 0 -193 161q0 31 7.5 75t14.5 74t22.5 87t21.5 78q70 276 -21 276q-68 0 -113.5 -59.5t-45.5 -136.5q0 -76 53 -129l-49 -154q-96 2 -147.5 54t-51.5 130q0 164 140.5 266.5t318.5 102.5q119 0 195.5 -60.5t62.5 -173.5q-6 -49 -109 -264 q-104 -221 -71 -256q6 -6 18 -8q100 -14 215 73t115 216q0 53 -12.5 145t-12.5 129q0 63 18.5 152.5t18.5 107.5q0 63 -82 47q-4 0 -95 -32.5t-146 -32.5q-133 0 -204 104.5t-71 245.5q0 211 121 305t371 94q199 0 320.5 -76.5t92.5 -203.5q-4 -23 -19 -60.5t-24.5 -62.5 t-6.5 -58.5t26 -62.5q-55 -14 -118.5 -16t-132.5 11t-109 68.5t-27 145.5q4 29 9 61.5t9 54t7 45t5.5 39t1 31t-5.5 23.5t-12 15.5t-20.5 10.5t-28.5 3q-59 0 -91 -109.5t-32 -253.5q0 -123 25.5 -200.5t79.5 -73.5q31 2 130 36.5t160 34.5q227 0 228 -346 q0 -125 -47.5 -234.5t-124 -188t-175 -136t-204 -86t-205.5 -28.5z" glyph-name="uniE10D" horiz-adv-x="1263" unicode=""/><glyph d="M1796 -233l-141 -299q-47 66 -105.5 118t-111 85.5t-124 57t-117.5 36t-123 17.5t-109.5 6t-106.5 0t-86 -1q-195 0 -307.5 113.5t-112.5 330.5q0 160 54.5 370t104.5 397.5t44 301.5q-6 102 -51 103q-31 0 -44.5 -49t-17.5 -168q-6 -102 -74.5 -160.5t-158.5 -58.5 q-121 0 -170 88q33 8 52.5 54t39.5 157q39 205 385 204h184q233 0 331.5 -52t98.5 -152q0 -12 -1 -51t0 -59.5t4.5 -50.5t14.5 -46.5t30 -24.5q-147 -96 -240 -96q-88 0 -115.5 84t11.5 258q12 51 -1.5 83t-41.5 32q-39 0 -70 -72q-53 -115 -74 -709q-8 -352 6 -446 q18 -160 99.5 -230.5t261.5 -46.5q197 25 325.5 28t215.5 -15.5t137.5 -49t103.5 -87.5z" glyph-name="uniE10E" horiz-adv-x="1187" unicode=""/><glyph d="M471 0h-416q0 137 49.5 260t107.5 194.5t107.5 146.5t49.5 128q0 35 -50.5 102.5t-109.5 139t-109.5 186.5t-50.5 232q0 18 4 59l400 -8q-47 -115 -47 -289q0 -164 38.5 -287t100.5 -123q111 0 117 97q2 47 -36 179t-44 202q-23 256 165.5 375.5t505.5 119.5 q313 0 648 -98l-185 -242q-362 260 -573 260q-285 0 -203 -489q16 -92 1 -157.5t-49 -97.5t-69 -52.5t-61.5 -37t-26.5 -34.5q0 -31 31 -76t76 -102.5t89 -133t74.5 -195.5t28.5 -259h-420q72 129 72 383q0 143 -38 233.5t-109 83.5q-39 -2 -37 -63q0 -20 19.5 -125.5 t19.5 -189.5q0 -177 -70 -322z" glyph-name="uniE112" horiz-adv-x="1062" unicode=""/><glyph d="M715 0h-531q0 113 37 214t81 159.5t81 110t37 75.5q0 45 -90 45h-88.5t-79.5 2q-147 8 -148 193q0 55 11.5 123.5t33 170t31.5 158.5q14 63 2 99t-59 36q59 82 194 82q90 0 154.5 -47t64.5 -135q0 -150 -48 -317.5t-48 -192.5q0 -164 148 -164q68 0 104.5 54.5 t36.5 109.5q0 59 -36 242.5t-34 273.5q2 156 163 247t376 91q293 0 438 -147l-129 -146q-211 238 -352 238q-164 0 -164 -344q0 -53 13.5 -185.5t13.5 -195.5q0 -244 -234 -252q-104 -6 -139 -49q-33 -35 -33 -111q0 -63 85 -198.5t108 -239.5z" glyph-name="uniE113" horiz-adv-x="983" unicode=""/><glyph d="M475 -27q-141 0 -231 25t-185 74q-37 141 -36 258q0 178 80.5 273t244.5 149q86 29 103 34q170 59 170 316q0 131 -42 225t-102 94q-20 0 -27.5 -27.5t2 -90t33.5 -158.5q29 -121 -42.5 -203t-188.5 -82q-70 0 -178.5 50.5t-226 85t-228.5 5.5v199q25 12 49.5 12t57 -5 t51.5 -5q96 0 260 -131q88 -70 104 -63q23 6 -12 118q-35 129 52 226.5t317 115.5q446 35 446 -321q0 -125 -44 -205t-116.5 -114.5t-147.5 -53t-153.5 -42t-119.5 -60.5q-31 -29 -37 -83t13 -136t35.5 -131.5t47.5 -137.5q35 -125 86 -125q20 0 29.5 21.5t7.5 71t-12.5 115 t-28.5 165.5q-23 117 63 193.5t201 76.5q131 0 172 -98q-123 -6 -31 -332q33 -127 -73.5 -213t-362.5 -86z" glyph-name="uniE114" horiz-adv-x="1048" unicode=""/><glyph d="M317 -219q-84 0 -179 38t-163.5 84t-146.5 84t-131 38q-68 0 -123 -58q-14 43 -14 88q0 82 51 138.5t137 56.5q70 0 132.5 -41t112.5 -98.5t100 -115.5t118 -100t141 -45q156 -4 245 150t81 412q-2 106 -21.5 170.5t-58.5 88t-63.5 27.5t-77.5 2q0 -84 26.5 -267 t18.5 -259q-8 -82 -60.5 -124t-128.5 -42q-145 0 -231 131q80 27 105.5 161t25.5 407v45q0 162 -3 235.5t-25.5 148t-67.5 101.5q100 55 195.5 47t133.5 -90q16 -37 13.5 -107.5t-10 -150.5t5.5 -197q49 16 81.5 34t73.5 56.5t61.5 107.5t20.5 167q0 141 -86 225t-211 84 q-188 0 -312 -132t-103 -331q-80 14 -148 64.5t-68 136.5q0 66 31 118t75 86t118.5 57.5t136 35.5t154 18.5t145.5 7.5t135 1q217 0 335 -85t118 -286q0 -104 -21.5 -173t-69 -107t-92.5 -56t-118 -39q-23 -4 -33 -8q20 -4 57 -12q70 -14 102.5 -23.5t76.5 -32t61.5 -54.5 t32 -88t14.5 -138q0 -115 -39 -216.5t-119 -187.5t-220.5 -137t-326.5 -51z" glyph-name="uniE115" horiz-adv-x="1062" unicode=""/><glyph d="M522 0h-499q0 147 77.5 433t87.5 341q115 678 -122 678q-55 0 -108.5 -31.5t-92.5 -69.5t-107.5 -70t-150.5 -32q-66 0 -111 31t-60.5 75t-9 91t34.5 78q76 -53 205 -54q106 0 332.5 48.5t310.5 48.5q162 0 187 -129q18 -98 -30 -278.5t-48 -223.5q0 -63 28.5 -97 t108.5 -38h59q154 0 154 117q0 70 -71.5 258t-71.5 262h417q12 -104 13 -176q0 -119 -30 -198t-59.5 -141.5t-29.5 -142.5q0 -158 81 -445.5t89 -334.5h-492q-20 80 -20 162q0 143 62.5 329.5t62.5 213.5q0 43 -72 51q-55 8 -110 4q-57 -2 -94 -89t-37 -216 q-1 -236 116 -455z" glyph-name="uniE116" horiz-adv-x="1128" unicode=""/></font>
</defs>
</svg>
