<svg xmlns="http://www.w3.org/2000/svg">
<defs>
<font horiz-adv-x="0" id="ywftsvg"><font-face ascent="1638" bbox="-987 -649 2955 2173" cap-height="1438" descent="-410" font-family="" font-stretch="normal" font-weight="400" panose-1="2 2 10 3 6 3 3 6 4 3" underline-position="0" underline-thickness="0" unicode-range="U+0020-E132" units-per-em="2048" x-height="1184"/><missing-glyph d="M829 680l-6 -8q-115 -4 -213 31.5t-98 107.5q0 45 46 73.5t101 28.5q63 0 107.5 -31.5t44.5 -76.5q0 -31 -25.5 -52.5t-74.5 -21.5q-45 0 -73 21.5t-30 48.5q-2 29 18.5 45t47.5 16q49 0 49 -26v-5q0 -16 -16 -16q4 0 4 6q0 12 -16.5 12.5t-16.5 -18.5q0 -20 31 -20 q16 0 30.5 10t12.5 26q-4 51 -82 52q-35 0 -59.5 -18.5t-24.5 -51.5q0 -66 73.5 -100.5t169.5 -32.5zM504 145q-74 0 -131.5 30t-57.5 85q0 72 85 112t202 40h37q-8 14 -8 34q0 37 23.5 88.5t42 84t12 32.5t-26.5 -28.5t-48 -84t-40 -108.5q-2 0 -12.5 1t-16.5 1 q-39 0 -57 -6q20 43 51 99.5t49.5 87t16.5 30.5q-4 0 -25.5 -24.5t-58.5 -78t-70 -116.5q-129 -25 -190 -92l-5 6q158 133 250 289q-66 -90 -176 -186.5t-172 -96.5q-55 0 -55 78q0 72 39 143q43 82 112.5 143.5t120.5 61.5q57 0 92 -16.5t37 -40.5q4 -43 -65 -68l-62 10 q66 66 66 90q0 8 -10 9q-53 0 -146.5 -138.5t-93.5 -201.5q0 -25 20 -25q41 0 135.5 81t153.5 167q16 25 45 25q12 0 19.5 -5.5t3.5 -11.5q-4 -8 -18.5 -32.5t-20.5 -39.5q68 82 82 82q31 0 31 -6q2 -2 0 -4l-21 -41q43 55 66 55q16 0 47.5 -9t25.5 -21q-92 -172 -80 -223 q109 -20 109 -52q0 -29 -18 -28q-78 0 -129 53q4 -2 15 -4t19 -6q10 -12 37 -22.5t44.5 -11.5t21.5 3q0 6 -29 19.5t-78 25.5t-96 12q-96 0 -145.5 -41t-49.5 -94q0 -43 34 -69.5t83 -26.5q39 0 64.5 15.5t23.5 45.5q-4 37 -53 37q-33 0 -33 -20q0 -18 25 -19q8 0 8 6 q0 10 -12 11q2 6 12 6q27 0 27 -23q0 -29 -52 -28q-39 0 -64.5 19t-25.5 52t28 57.5t77 24.5q47 0 85 -23.5t40 -64.5q4 -55 -45 -85t-121 -30zM811 408q-35 0 -55.5 17t-14.5 50q23 90 92.5 183.5t145.5 93.5q20 0 35.5 -7.5t15.5 -13.5q0 -20 -36 -40.5t-74 -26.5 q-39 -55 -69 -120t-30 -98q0 -20 15 -20q29 0 57.5 21.5t40.5 46.5h35q-16 -29 -65.5 -57.5t-92.5 -28.5zM934 680q70 12 88 45q6 12 -8 12q-37 0 -80 -57z" horiz-adv-x="1153"/><glyph d="M829 680l-6 -8q-115 -4 -213 31.5t-98 107.5q0 45 46 73.5t101 28.5q63 0 107.5 -31.5t44.5 -76.5q0 -31 -25.5 -52.5t-74.5 -21.5q-45 0 -73 21.5t-30 48.5q-2 29 18.5 45t47.5 16q49 0 49 -26v-5q0 -16 -16 -16q4 0 4 6q0 12 -16.5 12.5t-16.5 -18.5q0 -20 31 -20 q16 0 30.5 10t12.5 26q-4 51 -82 52q-35 0 -59.5 -18.5t-24.5 -51.5q0 -66 73.5 -100.5t169.5 -32.5zM504 145q-74 0 -131.5 30t-57.5 85q0 72 85 112t202 40h37q-8 14 -8 34q0 37 23.5 88.5t42 84t12 32.5t-26.5 -28.5t-48 -84t-40 -108.5q-2 0 -12.5 1t-16.5 1 q-39 0 -57 -6q20 43 51 99.5t49.5 87t16.5 30.5q-4 0 -25.5 -24.5t-58.5 -78t-70 -116.5q-129 -25 -190 -92l-5 6q158 133 250 289q-66 -90 -176 -186.5t-172 -96.5q-55 0 -55 78q0 72 39 143q43 82 112.5 143.5t120.5 61.5q57 0 92 -16.5t37 -40.5q4 -43 -65 -68l-62 10 q66 66 66 90q0 8 -10 9q-53 0 -146.5 -138.5t-93.5 -201.5q0 -25 20 -25q41 0 135.5 81t153.5 167q16 25 45 25q12 0 19.5 -5.5t3.5 -11.5q-4 -8 -18.5 -32.5t-20.5 -39.5q68 82 82 82q31 0 31 -6q2 -2 0 -4l-21 -41q43 55 66 55q16 0 47.5 -9t25.5 -21q-92 -172 -80 -223 q109 -20 109 -52q0 -29 -18 -28q-78 0 -129 53q4 -2 15 -4t19 -6q10 -12 37 -22.5t44.5 -11.5t21.5 3q0 6 -29 19.5t-78 25.5t-96 12q-96 0 -145.5 -41t-49.5 -94q0 -43 34 -69.5t83 -26.5q39 0 64.5 15.5t23.5 45.5q-4 37 -53 37q-33 0 -33 -20q0 -18 25 -19q8 0 8 6 q0 10 -12 11q2 6 12 6q27 0 27 -23q0 -29 -52 -28q-39 0 -64.5 19t-25.5 52t28 57.5t77 24.5q47 0 85 -23.5t40 -64.5q4 -55 -45 -85t-121 -30zM811 408q-35 0 -55.5 17t-14.5 50q23 90 92.5 183.5t145.5 93.5q20 0 35.5 -7.5t15.5 -13.5q0 -20 -36 -40.5t-74 -26.5 q-39 -55 -69 -120t-30 -98q0 -20 15 -20q29 0 57.5 21.5t40.5 46.5h35q-16 -29 -65.5 -57.5t-92.5 -28.5zM934 680q70 12 88 45q6 12 -8 12q-37 0 -80 -57z" glyph-name=".notdef" horiz-adv-x="1153"/><glyph glyph-name="glyph1"/><glyph glyph-name="glyph2" horiz-adv-x="681"/><glyph glyph-name="space" horiz-adv-x="471" unicode=" "/><glyph d="M297 428h-57q12 68 16 158q2 111 -16.5 232.5t-51 270t-43.5 201.5q-27 141 17.5 228.5t128.5 87.5q80 0 139 -70t59 -199q0 -102 -70.5 -276t-72.5 -287q0 -170 -49 -346zM281 23q-70 0 -110 46t-40 107.5t40 106.5t110 45q74 0 113.5 -44t39.5 -108q0 -61 -40.5 -107 t-112.5 -46z" glyph-name="exclam" horiz-adv-x="577" unicode="!"/><glyph d="M59 1217q59 72 65.5 183t-22.5 224h211q0 -152 -62.5 -263t-191.5 -144zM381 1217q59 72 65.5 183t-22.5 224h211q0 -152 -62.5 -263t-191.5 -144z" glyph-name="quotedbl" horiz-adv-x="688" unicode="&quot;"/><glyph d="M1083 899v-57h-241l-140 -357h265v-59h-287l-125 -322h-59l125 322h-248l-125 -322h-60l125 322h-272v59h295l139 357h-276v57h299l125 322h59l-125 -322h248l125 322h59l-125 -322h219zM395 485h248l139 357h-247z" glyph-name="numbersign" horiz-adv-x="1124" unicode="#"/><glyph d="M928 526q0 -514 -393 -557l-13 -119h-61l12 115h-14q-188 0 -292 93.5t-77 240.5q37 205 -37 285q166 20 217 8q98 -23 99 -146q0 -29 -15.5 -115.5t-15.5 -142.5q0 -92 43 -137t104 -45q168 0 168 199q0 53 -12 145t-12 129q0 61 24.5 149.5t24.5 121.5q0 80 -146 36 q-10 -2 -57 -20t-95 -31.5t-89 -13.5q-129 0 -187.5 101.5t-58.5 248.5q0 205 99.5 298t320.5 101l10 105h62l-11 -105q184 -4 279.5 -74.5t68.5 -187.5q-4 -23 -19 -60.5t-24.5 -62t-6.5 -58.5t26 -62q-53 -14 -100.5 -15.5t-92.5 12t-67.5 57.5t-14.5 116 q29 178 13.5 240.5t-113.5 62.5t-140 -105.5t-42 -257.5q0 -283 164 -274q33 2 122 36.5t146 34.5q106 0 154.5 -99.5t48.5 -246.5z" glyph-name="dollar" horiz-adv-x="1075" unicode="$"/><glyph d="M272 723q-139 0 -185 51t-46 135q0 53 18.5 119t18.5 94q0 20 -18.5 82t-18.5 123q0 139 235.5 139t235.5 -161q0 -39 -12.5 -101.5t-12.5 -89.5q0 -18 17.5 -73.5t17.5 -118.5q0 -199 -250 -199zM281 741q53 0 72.5 37t19.5 115q0 41 -10.5 98.5t-10.5 104.5 q0 63 7.5 124.5t7.5 110.5q0 63 -16.5 90t-69.5 27q-49 0 -66.5 -28.5t-17.5 -94.5q0 -31 9 -99.5t9 -129.5q0 -43 -9 -100.5t-9 -112.5q0 -72 17.5 -107t66.5 -35zM295 0h-41l602 1438h39zM883 -35q-141 0 -187.5 51.5t-46.5 137.5q0 53 18.5 117.5t18.5 95.5 q0 18 -18.5 79.5t-18.5 124.5q0 139 238 140q233 0 233 -162q0 -39 -12 -101.5t-12 -89.5q0 -18 17 -73.5t17 -118.5q1 -201 -247 -201zM889 -14q53 0 72.5 36.5t19.5 114.5q0 41 -10 98.5t-10 104.5q0 61 7 122.5t7 112.5q0 63 -16.5 90t-69.5 27q-49 0 -66.5 -28.5 t-17.5 -94.5q0 -33 9 -100.5t9 -128.5q0 -45 -9 -100.5t-9 -112.5q0 -72 17.5 -106.5t66.5 -34.5z" glyph-name="percent" horiz-adv-x="1171" unicode="%"/><glyph d="M1290 201l35 -164q-129 -66 -211 -66q-72 0 -127 39t-115 123q-119 -168 -333 -168q-182 0 -305 105.5t-123 283.5q0 137 77.5 245t221.5 230q-152 219 -152 355q0 131 74 208.5t237 77.5q383 0 383 -286q0 -63 -18.5 -117.5t-67.5 -111t-76.5 -83t-109.5 -91t-100 -79.5 q129 -201 190 -292q0 20 -4 69q-12 143 56.5 217t183.5 74q82 0 145 -51t47 -137q-18 29 -80 28q-45 0 -73.5 -56t-62.5 -168t-67 -177q80 -90 146 -90q75 0 229 82zM406 1085q0 -82 65 -204q96 80 146.5 128t97.5 126.5t47 156.5q0 68 -40 98.5t-77 30.5q-94 0 -166.5 -81 t-72.5 -255zM549 -8q68 0 134.5 83t82.5 224q-137 223 -236 363q-199 -172 -198 -381q0 -150 71.5 -219.5t145.5 -69.5z" glyph-name="ampersand" horiz-adv-x="1366" unicode="&amp;"/><glyph d="M78 1217q59 72 65.5 183t-22.5 224h211q0 -152 -62.5 -263t-191.5 -144z" glyph-name="quotesingle" horiz-adv-x="385" unicode="'"/><glyph d="M719 -211v-41q-182 0 -301 27.5t-182.5 85t-87 130t-23.5 179.5q0 61 13.5 227t13.5 268.5t-13.5 266.5t-13.5 225q0 104 23.5 174t85 125t177 82t291.5 27v-41q-223 0 -296.5 -58.5t-73.5 -212.5q0 -51 14 -245.5t14 -341.5q0 -143 -13 -338t-13 -248q0 -164 77 -227.5 t308 -63.5z" glyph-name="parenleft" horiz-adv-x="759" unicode="("/><glyph d="M41 -252v41q231 0 308 63.5t77 227.5q0 53 -13.5 247.5t-13.5 338.5q0 147 14.5 341.5t14.5 245.5q0 154 -73.5 212.5t-297.5 58.5v41q176 0 292 -27t177.5 -82t85 -124.5t23.5 -174.5q0 -61 -13.5 -225t-13.5 -266.5t13.5 -268.5t13.5 -227q0 -106 -23.5 -179 t-87 -130.5t-182.5 -85t-301 -27.5z" glyph-name="parenright" horiz-adv-x="759" unicode=")"/><glyph d="M487 1204v-26h-221l-2 -2l168 -170l-18 -19l-162 162v-209h-27v197l-149 -150l-19 19l168 168l-4 4h-235v26h209l-138 137l21 19l147 -148v230h27v-238h4l156 156l18 -19l-137 -137h194z" glyph-name="asterisk" horiz-adv-x="583" unicode="*"/><glyph d="M438 655h355v-41h-355v-356h-41v356h-356v41h356v355h41v-355z" glyph-name="plus" horiz-adv-x="833" unicode="+"/><glyph d="M53 -160q20 16 36.5 35t26 42.5t15.5 40.5t8 47t3 42t0 45t-1 39q0 51 35 79t84 28q47 0 81 -28t34 -79q0 -119 -83 -197t-239 -94z" glyph-name="comma" horiz-adv-x="522" unicode=","/><glyph d="M492 610h-451v62h451v-62z" glyph-name="hyphen" horiz-adv-x="532" unicode="-"/><glyph d="M186 -35q-61 0 -103 42t-42 104q0 63 42 105t103 42q63 0 105.5 -41t42.5 -106q0 -61 -42.5 -103.5t-105.5 -42.5z" glyph-name="period" horiz-adv-x="374" unicode="."/><glyph d="M115 -299h-62l537 1884h61z" glyph-name="slash" horiz-adv-x="692" unicode="/"/><glyph d="M506 -35q-150 0 -248 32t-142 90t-59.5 115.5t-15.5 135.5q0 111 36 240t36 186q0 41 -36 164t-36 248q0 135 119 206.5t354 71.5q63 0 119.5 -6t123 -26.5t115 -54.5t80 -94.5t31.5 -142.5q0 -78 -25.5 -203.5t-25.5 -178.5q0 -37 34.5 -148t34.5 -235q0 -98 -32.5 -172 t-82.5 -117t-120 -68.5t-131 -34t-129 -8.5zM520 4q106 0 145.5 74t39.5 227q0 84 -20.5 198.5t-20.5 207.5q0 127 14 249.5t14 223.5q0 125 -34.5 178t-137.5 53q-98 0 -134 -57.5t-36 -186.5q0 -61 18.5 -198t18.5 -262q0 -86 -18.5 -199t-18.5 -227q0 -143 36 -212 t134 -69z" glyph-name="zero" horiz-adv-x="1042" unicode="0"/><glyph d="M524 0h-395q137 301 137 803q0 156 -72.5 239.5t-152.5 83.5v80q84 25 146.5 62t94 64.5t109.5 105.5h74q-74 -162 -80 -334t29 -309.5t72.5 -360.5t37.5 -434z" glyph-name="one" horiz-adv-x="565" unicode="1"/><glyph d="M532 -35q-74 0 -220 17.5t-271 17.5q37 127 57.5 269.5t24.5 238.5t13 180t35 125t79 41q63 0 150 -25.5t112 -27.5q74 -10 113 71.5t39 202.5q0 152 -40 257.5t-130 105.5q-39 0 -62.5 -9.5t-35 -20.5t-12.5 -40t2 -51.5t12.5 -71.5t13.5 -84q10 -78 -8.5 -131 t-52.5 -75.5t-82 -28.5t-90 -2t-85 16q23 29 26 62.5t-6.5 58t-24.5 62.5t-19 61q-31 131 81.5 208.5t309.5 77.5q246 0 360.5 -93t114.5 -306q0 -143 -63.5 -246.5t-194.5 -103.5q-45 0 -124 11t-114 9q-53 -2 -88 -77.5t-40 -181t10.5 -211t62.5 -180.5t115 -79 q143 -8 143 176q0 55 -21.5 142.5t-21.5 115.5q0 84 53.5 121t126 31t152.5 -12q12 -2 18 -2q-74 -80 -37 -285q29 -152 -70.5 -243t-310.5 -91z" glyph-name="two" horiz-adv-x="991" unicode="2"/><glyph d="M506 -35q-35 0 -99.5 15.5t-119 30t-118 14.5t-108.5 -25q-20 96 -20 176q0 117 50 164t142 35q27 -160 107 -251t135 -91q86 0 125 98t39 305q0 125 -77 193.5t-175 72.5l-6 66q10 4 49 16.5t61.5 20.5t57.5 32.5t54.5 56.5t34.5 86t15 124q0 174 -35.5 250t-119.5 76 q-41 0 -56.5 -63.5t-45 -154t-95.5 -135.5q-45 -29 -85 -37t-124 -4q49 90 67.5 175t-1.5 227q41 4 131 20.5t192 16.5q221 0 310.5 -81t89.5 -290q0 -66 -8.5 -118t-28 -89t-38 -61.5t-50 -43t-52 -28.5t-57.5 -23.5t-53 -19.5q23 -6 78 -19.5t75.5 -20.5t56.5 -30.5 t49 -54.5t25.5 -86t12.5 -131q0 -223 -94 -318.5t-291 -95.5z" glyph-name="three" horiz-adv-x="931" unicode="3"/><glyph d="M823 0h-395q92 203 133 446h-520q145 164 281.5 474.5t173.5 517.5h292q-57 -156 -71.5 -316.5t-1 -293t52.5 -324.5q82 20 136 67t91 156l47 -281h-260q41 -237 41 -446zM506 494h65q14 109 15 241q0 53 22 426q-31 -66 -172 -497q-35 -104 -22.5 -137t92.5 -33z" glyph-name="four" horiz-adv-x="1083" unicode="4"/><glyph d="M424 -35q-209 0 -292 89t-54 245q37 205 -37 285q166 20 217 8q98 -23 98 -146q0 -29 -21.5 -115.5t-21.5 -142.5q0 -86 47.5 -131t96.5 -45q31 0 57.5 6.5t58 24.5t50 59t18.5 103v76v70.5v58t-1 56t-3 44.5t-6 42l-8 34q-14 70 -54.5 100.5t-134.5 40.5q-88 8 -258 8 q-92 0 -108 135q-10 78 9 301.5t-1 266.5q96 2 216 17t204 15q174 0 283.5 -59t88.5 -149q-8 -45 -30.5 -125t-26.5 -111q-4 -47 27 -86q-57 -14 -105.5 -17t-99.5 12t-76 72.5t-12 153.5q4 35 12 74t13 63.5t10.5 50t3.5 40t-9.5 26.5t-25 17.5t-45.5 5.5q-199 0 -199 -564 q0 -80 137 -79q39 -2 122 4t118 6q131 0 182 -69.5t51 -209.5q0 -305 -127.5 -433t-363.5 -128z" glyph-name="five" horiz-adv-x="956" unicode="5"/><glyph d="M397 -35q-162 0 -255 82t-99 238q-8 129 24.5 248.5t32.5 218.5q2 72 -19.5 189.5t-21.5 178.5q0 102 36 175t98.5 109t129 51t146.5 15q176 0 273.5 -64.5t97.5 -178.5q0 -39 -28 -107.5t-28 -105.5q0 -39 27 -74q-59 -16 -113 -16q-86 0 -134 50t-48 148 q0 41 10.5 94.5t17.5 88t9 67.5t-16.5 49.5t-59.5 16.5q-88 0 -126 -62.5t-35 -155t6.5 -200t-3.5 -197.5q115 43 222 43q145 0 239 -94t94 -315q0 -276 -120.5 -384t-356.5 -108zM444 12q61 0 115.5 55.5t54.5 196.5q0 266 -39.5 402.5t-136.5 136.5q-35 0 -62.5 -20.5 t-42 -63.5t-23.5 -79t-12 -100.5t-4 -91t-1 -86.5q0 -160 37.5 -255t113.5 -95z" glyph-name="six" horiz-adv-x="915" unicode="6"/><glyph d="M469 0h-236q-27 133 17.5 302t113 300t135 270.5t74.5 210.5q23 168 -23 261.5t-144 93.5q-29 0 -46.5 -5.5t-24.5 -17.5t-9 -26.5t3 -40t10 -50t13 -63.5t13 -74q18 -154 -56 -209q-74 -53 -237 -12q23 29 25.5 62.5t-6.5 58t-24.5 62.5t-19.5 61q-31 133 70.5 209.5 t296.5 76.5q84 0 203.5 -15t216.5 -17q-29 -330 -101 -488q-16 -39 -58 -130t-57.5 -128t-48 -113.5t-46 -114.5t-34 -101.5t-26.5 -102.5t-11.5 -89t0 -91t17.5 -80z" glyph-name="seven" horiz-adv-x="874" unicode="7"/><glyph d="M459 -35q-209 0 -313.5 79t-104.5 294q0 47 5 87t10 69.5t22.5 56.5t26 44t35 34.5t34.5 26t43 21.5t43 15t50 14.5t48 14.5q-16 6 -62 23.5t-70.5 27.5t-63.5 39t-59.5 63.5t-36 94t-15.5 135.5q0 209 89 290t311 81q223 0 321 -82t98 -289q0 -76 -15 -135.5t-34.5 -94 t-57.5 -63.5t-61.5 -39t-70.5 -27.5t-64 -23.5q145 -43 185 -68q125 -88 129 -315q0 -215 -105.5 -293t-316.5 -80zM461 776q182 53 182 328q0 168 -52 251t-140 83q-172 0 -172 -334q0 -271 182 -328zM459 14q88 0 129 90.5t41 290.5q0 225 -168 305q-168 -80 -168 -305 q0 -203 39 -292t127 -89z" glyph-name="eight" horiz-adv-x="921" unicode="8"/><glyph d="M518 1485q162 0 254 -82t98 -238q8 -129 -23.5 -248.5t-31.5 -218.5q-2 -72 19.5 -189.5t21.5 -178.5q0 -102 -36 -175t-98.5 -109t-129 -51t-146.5 -15q-176 0 -273 64.5t-97 178.5q0 39 27.5 107.5t27.5 105.5q0 39 -27 74q55 16 113 16q86 0 134 -50t48 -148 q0 -41 -10 -94.5t-17 -88t-9.5 -67.5t16 -49.5t59.5 -16.5q86 0 124 62.5t35 155t-5 200t4 197.5q-115 -43 -221 -43q-145 0 -239.5 94t-94.5 315q0 276 120.5 384t356.5 108zM469 1438q-59 0 -113.5 -56.5t-54.5 -195.5q0 -266 40 -402.5t136 -136.5q35 0 62.5 20.5 t42 63.5t23.5 79t12.5 100.5t4.5 91t1 85.5q0 162 -38 256.5t-116 94.5z" glyph-name="nine" horiz-adv-x="915" unicode="9"/><glyph d="M186 930q-61 0 -103 41t-42 104.5t42 105.5t103 42q63 0 105.5 -42t42.5 -105.5t-42.5 -104.5t-105.5 -41zM186 -35q-61 0 -103 42t-42 104q0 63 42 105t103 42q63 0 105.5 -41t42.5 -106q0 -61 -42.5 -103.5t-105.5 -42.5z" glyph-name="colon" horiz-adv-x="475" unicode=":"/><glyph d="M281 932q-61 0 -103.5 42t-42.5 103q0 63 42 105.5t104 42.5q63 0 105 -41t42 -107q0 -61 -42 -103t-105 -42zM53 -166q20 16 36.5 34.5t26 42t15.5 41t8 47.5t3 42t0 45t-1 39q0 51 35 78.5t84 27.5q47 0 81 -27.5t34 -78.5q0 -119 -83 -197t-239 -94z" glyph-name="semicolon" horiz-adv-x="569" unicode=";"/><glyph d="M717 305v-145q-72 57 -172.5 94t-183 55.5t-158.5 45t-119 85t-43 156.5q0 96 43 159.5t119 99.5t158.5 60.5t184 64.5t171.5 91v-141q0 -61 -49.5 -104.5t-122 -64t-157.5 -37.5t-158.5 -28.5t-123 -37t-49.5 -62.5q0 -39 68 -61.5t165 -35t194.5 -28.5t165 -58 t67.5 -108z" glyph-name="less" horiz-adv-x="757" unicode="&lt;"/><glyph d="M793 717h-752v39h752v-39zM793 510h-752v39h752v-39z" glyph-name="equal" horiz-adv-x="833" unicode="="/><glyph d="M41 160v145q0 66 67.5 108t165 58t194.5 28.5t164.5 35t67.5 61.5q0 37 -49 62.5t-122.5 37t-158.5 28.5t-158 37.5t-122 63.5t-49 105v141q70 -51 171 -91t184 -64.5t159 -60.5t119 -99.5t43 -159.5q0 -98 -43 -156.5t-119 -85t-159 -45t-183 -55.5t-172 -94z" glyph-name="greater" horiz-adv-x="757" unicode=">"/><glyph d="M348 444h-67v220q0 72 22.5 123t57 79.5t74.5 67.5t75 80t57.5 120.5t22.5 188.5q0 115 -27.5 175.5t-68.5 60.5q-47 0 -87 -84t-40 -215q-12 -53 -49 -84t-80 -31q-53 0 -89 44t-36 130q0 123 101 204t263 81q178 0 264 -90.5t86 -337.5q0 -70 -35.5 -133.5t-89 -108.5 t-115 -92t-114.5 -83t-89 -78t-36 -83v-154zM324 -35q-61 0 -102.5 42t-41.5 104q0 63 41 105t103 42q66 0 107.5 -42t41.5 -105q0 -61 -43 -103.5t-106 -42.5z" glyph-name="question" horiz-adv-x="954" unicode="?"/><glyph d="M981 -115q-399 0 -637 218.5t-238 607.5q0 100 28 201.5t90.5 203t151.5 180t225 126.5t298 48q176 0 310 -36.5t213 -100t126 -148.5t49 -184.5t-18 -205.5q-53 -238 -212 -382.5t-325 -144.5q-125 0 -124 148q0 29 8 55q23 80 118 227q41 68 19 72q-27 0 -75 -61.5 t-95 -136t-119 -136t-143 -61.5q-76 0 -116 46t-40 117.5t84 175t181.5 210t115.5 176.5q31 63 0 106q55 0 86 -20q63 -12 98 -63.5t35 -123.5q0 -63 -45 -113t-100.5 -77t-110.5 -67t-71 -80q-29 -51 -5 -68q14 -8 41 14q8 4 56.5 52.5t112 91.5t118.5 43q90 0 90 -68 q0 -59 -76.5 -204.5t-80.5 -170.5q-8 -47 28 -43q61 8 154 121q135 168 166 381q23 152 -8 287t-130.5 227t-252.5 92q-201 0 -393.5 -205.5t-266.5 -488.5q-43 -188 -17.5 -322.5t111.5 -224.5t185.5 -136t205.5 -56q477 -45 740 366l116 -205q-115 -123 -299 -191.5 t-362 -68.5z" glyph-name="at" horiz-adv-x="1734" unicode="@"/><glyph d="M348 0h-307q-8 66 -8 131q0 111 35.5 220.5t78.5 185t79 178t36 201t-59.5 234.5t-59.5 292q57 -16 113 -17q53 0 166 26t174 26q68 0 133.5 -21.5t123.5 -67t88 -129t15 -196.5q-10 -80 -24 -187.5t-22.5 -167t-14.5 -137t-6 -151.5q0 -178 84 -420h-307 q-55 221 -48 385q12 133 -2 188q-18 61 -110 62q-94 0 -129 -98q-76 -205 -76 -320q0 -108 47 -217zM537 684q47 0 82.5 33t46.5 82q57 252 57 434q0 88 -48 141t-116 56q-63 2 -108 -32t-45 -100q0 -59 30.5 -153t30.5 -168q0 -94 -25 -211q-8 -47 15 -64.5t80 -17.5z" glyph-name="A" horiz-adv-x="1005" unicode="A"/><glyph d="M518 -35q-74 0 -134 19.5t-93 37t-95.5 15.5t-154.5 -39q14 166 59 278.5t82 205.5t37 231q0 111 -31.5 205t-67.5 150t-57.5 153.5t-7.5 218.5q68 -25 127.5 -25t101.5 14.5t109.5 30t134.5 15.5q197 0 281 -82t84 -289q0 -145 -36 -223t-78 -100.5t-146 -51.5 q-16 -6 -27 -8q176 -39 236.5 -103.5t60.5 -238.5q0 -213 -81 -313.5t-304 -100.5zM383 739q66 14 109 33t87 57.5t65.5 107.5t21.5 167q0 365 -310 293q-4 -35 -6 -74t-3 -68.5t1 -81t3 -75t6 -88t7.5 -82t9.5 -96.5t9 -93zM381 88q6 -51 61 -63q82 -18 142 73 q70 106 67 322q0 70 -14 122t-34.5 80.5t-48.5 48t-57.5 23.5t-58 7.5t-53.5 -1.5q12 -74 3 -312.5t-7 -299.5z" glyph-name="B" horiz-adv-x="944" unicode="B"/><glyph d="M494 -37q-479 0 -463 592q4 172 18 301t49 251t90.5 197.5t144.5 122t210 46.5q139 0 219 -63.5t80 -182.5q0 -31 -1 -99.5t-1 -83.5q0 -61 8 -87.5t35 -38.5q-47 -78 -135 -78q-61 0 -106.5 42t-45.5 115q0 57 22.5 186.5t22.5 159.5q0 49 -31.5 72t-68.5 23 q-94 0 -172 -280.5t-78 -536.5q0 -274 58.5 -447.5t158.5 -173.5q35 0 59.5 13.5t36.5 28.5t17.5 52t6.5 58.5t1 70.5q0 20 -3 85t-1 95q4 139 112 140q86 0 185 -74q-29 -20 -43.5 -68.5t-17.5 -102.5t-21.5 -114.5t-49 -108.5t-106 -80t-190.5 -32z" glyph-name="C" horiz-adv-x="952" unicode="C"/><glyph d="M412 0h-346q-43 190 8 346q14 39 38.5 89t41 82t34 84t15.5 95t-13 115q-31 131 -72.5 236.5t-59 179t-17.5 211.5h432q92 0 173 -11.5t168 -41t138.5 -92t51.5 -154.5t-20.5 -210t-20.5 -173q0 -51 29.5 -169t29.5 -239q0 -348 -610 -348zM397 43q111 0 240 87t129 214 q0 82 -23.5 230.5t-27.5 189.5q-10 66 -12.5 127t2 153.5t4.5 149.5q0 88 -65.5 143.5t-162.5 55.5q-63 0 -107 -33t-57 -86q-10 -16 -7 -88t9.5 -119t20.5 -171t25 -243q10 -117 -15.5 -284.5t-23 -246.5t70.5 -79z" glyph-name="D" horiz-adv-x="1062" unicode="D"/><glyph d="M463 -35q-51 0 -97.5 5t-108.5 24.5t-107.5 54.5t-77 100.5t-31.5 153.5q0 80 45 208t45 218q0 94 -45 221t-45 205q0 315 401 315q238 0 322 -50t84 -154q0 -25 -11.5 -77t-11.5 -79q0 -41 14.5 -62.5t45.5 -13.5q-12 -59 -55.5 -91t-96.5 -32q-57 0 -99 39t-42 103 q0 76 23.5 166t23.5 137q0 82 -115 82q-141 0 -188 -197q-23 -98 -23 -287q0 -86 34 -141t93 -49q29 4 91.5 33.5t99.5 29.5q43 0 73.5 -25.5t30.5 -62.5q0 -25 -15 -45t-38 -24q-51 66 -164 61q-88 -4 -146.5 -63.5t-64.5 -167.5q-10 -137 20.5 -265.5t86.5 -168.5 q61 -61 137 -29q49 20 58 69.5t-12.5 150.5t-23.5 124q-6 88 30 153.5t110 69.5q59 4 104 -32.5t60 -106.5q-31 4 -46.5 -25.5t-13.5 -70.5t6 -82q2 -37 6.5 -80t-16 -86t-56.5 -78t-112 -56.5t-182 -21.5z" glyph-name="E" horiz-adv-x="925" unicode="E"/><glyph d="M412 0h-271q-18 182 15.5 369.5t33.5 302.5q0 63 -46 232t-46 249q0 315 353 315q84 0 139 -18t88 -59t45 -68t31 -84q6 -18 18 -69.5t26.5 -74t49.5 -40.5q-78 -86 -154 -86q-59 0 -98 55t-45 156q-23 254 -125 254q-55 0 -78.5 -73t-23.5 -220q0 -121 28 -226 q29 -113 109 -98q8 2 72.5 29.5t115.5 27.5q61 0 92 -31.5t31 -78.5t-29.5 -87t-83.5 -48q-29 61 -85 101t-109 40q-55 0 -87 -42t-18 -118q6 -41 19.5 -105.5t22 -109.5t15.5 -107.5t6 -134t-11 -153.5z" glyph-name="F" horiz-adv-x="825" unicode="F"/><glyph d="M487 -35q-276 0 -379.5 102.5t-64.5 342.5q31 207 30 307t-30 350q-23 205 103 301t341 96q170 0 281 -57t111 -147q0 -39 -6.5 -86.5t-9.5 -73t7.5 -59t36.5 -66.5q-90 -29 -160.5 -27t-107.5 62.5t-16 171.5q23 115 -12.5 179t-98.5 64q-90 0 -168 -122.5t-78 -337.5 q0 -109 25 -248q37 -190 28 -408q-10 -164 39.5 -236.5t180.5 -72.5q43 0 66.5 21.5t26.5 65.5t1 83t-21.5 105.5t-30 100.5t-32.5 95q-47 143 20.5 232.5t184.5 89.5q121 0 192 -84q-47 -2 -71.5 -32t-26.5 -81t2 -92t12 -94q2 -16 4 -23q20 -92 17.5 -170t-31.5 -134 t-119 -87t-246 -31z" glyph-name="G" horiz-adv-x="995" unicode="G"/><glyph d="M449 0h-381q0 131 64.5 395t64.5 369q0 127 -59.5 301t-49.5 373h315q6 -100 -26.5 -276.5t-32.5 -225.5q0 -66 28.5 -99.5t114.5 -35.5h119q152 0 152 117q0 70 -51.5 258t-51.5 262h306q12 -104 12 -176q0 -119 -30 -198t-59.5 -141.5t-29.5 -142.5q0 -119 24.5 -253 t65.5 -291.5t55 -235.5h-356q-20 80 -20 162q0 143 48 329.5t48 213.5q0 31 -19.5 39t-66.5 12q-111 8 -178 4q-57 -2 -90 -87t-33 -218q0 -236 117 -455z" glyph-name="H" horiz-adv-x="1054" unicode="H"/><glyph d="M428 0h-373q-4 41 -4 57q0 90 104.5 292t104.5 300q0 86 -57 158q-72 88 -111 170t-46 166t-2 140t24 155h356q-145 -236 -145 -420q0 -123 67 -211q66 -88 66 -305q0 -49 -7.5 -169t-3.5 -198t27 -135z" glyph-name="I" horiz-adv-x="471" unicode="I"/><glyph d="M342 -35q-57 0 -99 9.5t-65.5 31t-37 39.5t-16.5 54t-3 56.5t5 64.5t5 61q2 63 4 120.5t-26.5 101.5t-94.5 56q12 49 63.5 83t110.5 34q68 0 117 -52.5t57 -152.5q6 -98 -49 -234.5t-55 -173.5q0 -66 78 -65q82 0 141.5 83t83 176t25.5 177q8 272 -51.5 556t-67.5 448 h307q27 -207 2.5 -455t-18.5 -338q18 -213 10 -299q-37 -381 -426 -381z" glyph-name="J" horiz-adv-x="839" unicode="J"/><glyph d="M381 0h-307q-18 66 -19 139q0 119 42 219.5t84 188.5t42 180q0 70 -22.5 137.5t-48 121.5t-40 172t-1.5 280h311q6 -121 -16.5 -227.5t-52 -172t-46 -171t-0.5 -228.5q145 410 291.5 600.5t378.5 198.5v-303q-172 -16 -244 -43q-240 -86 -381 -430q8 6 78 70.5t126 95 t124 30.5q88 0 147.5 -65.5t88 -190.5t42 -241.5t23.5 -284.5q2 -51 4 -76h-326q18 254 -36 473t-121 229q-43 8 -104.5 -53t-86.5 -117q-25 -57 -24.5 -114.5t15.5 -104.5t40 -136t39 -177z" glyph-name="K" horiz-adv-x="1042" unicode="K"/><glyph d="M440 -35q-193 0 -300 105.5t-107 275.5q0 113 74.5 350.5t74.5 386.5q0 152 -51 355h367q10 -160 -43.5 -362t-112.5 -383t-61 -275q-6 -201 75.5 -296t202.5 -95q84 0 84 75q0 18 -38 65.5t-46 98.5q-25 98 17 147.5t112 49.5q90 0 131 -60q-33 -20 -36 -72t5 -102 q12 -45 0 -91t-40.5 -83t-107.5 -61.5t-200 -28.5z" glyph-name="L" horiz-adv-x="851" unicode="L"/><glyph d="M393 0h-332q-29 100 -28 227q0 166 65.5 497t65.5 435q0 154 -58 189q-18 18 -36 20q47 100 149 100q66 0 117 -62.5t51 -154.5q160 221 342 222q94 0 155.5 -68t55.5 -158q86 98 210 157.5t232.5 59.5t174 -51t61.5 -133q-4 -59 -49 -127t-95.5 -118t-86 -128 t-23.5 -159q10 -70 44 -128.5t74 -102.5t77.5 -93t63.5 -123t26 -168q0 -61 -15 -133h-350q43 109 43 199q0 78 -30.5 158.5t-68.5 141t-69 153.5t-31 192q0 193 172 416q76 98 78 114q-12 20 -41 25q-164 0 -309 -149.5t-154 -362.5q-4 -106 53.5 -292.5t67.5 -262.5 q53 -197 29 -332h-360q33 106 38 202.5t-7.5 162t-27 174t-14.5 215.5q0 131 53.5 323.5t53.5 259.5q0 94 -80 95q-123 -8 -231.5 -192.5t-124.5 -432.5q-10 -160 14 -328t45.5 -288.5t9.5 -190.5z" glyph-name="M" horiz-adv-x="1691" unicode="M"/><glyph d="M406 0h-336q-12 164 5 334t54 359.5t45 246.5q18 135 -15.5 258t-125.5 148q41 127 151 127q76 0 133.5 -72t53.5 -191q76 121 183.5 180.5t221.5 59.5q106 0 163.5 -53.5t57.5 -155.5q0 -74 -27.5 -144.5t-58 -119.5t-50 -130t-5.5 -175q12 -88 49 -162t65.5 -115 t46 -144.5t-6.5 -250.5h-330q25 258 19.5 379t-42.5 299q-23 162 -6 257t47.5 207.5t30.5 160.5q0 53 -47 62t-117 -30q-80 -29 -160.5 -207t-80.5 -364q0 -94 28.5 -213t49 -255t4.5 -296z" glyph-name="N" horiz-adv-x="1064" unicode="N"/><glyph d="M502 -18q-444 0 -445 389q0 72 25 157q23 78 22 160q0 47 -11 148.5t-11 164.5q0 250 107.5 351.5t322.5 101.5q473 0 473 -324q0 -78 -56.5 -186t-56.5 -162q0 -39 33 -98t66 -142t33 -177q0 -98 -32 -171t-79 -113t-119 -63.5t-133 -29.5t-139 -6zM516 20 q141 0 188.5 66t47.5 219q0 84 -41 198.5t-41 207.5q0 127 34.5 249.5t34.5 223.5q0 121 -49 176t-172 55t-170 -58.5t-47 -185.5q0 -61 33 -198t33 -262q0 -86 -33 -212t-33 -241q0 -238 215 -238z" glyph-name="O" horiz-adv-x="1060" unicode="O"/><glyph d="M414 0h-332q0 88 5 158.5t22.5 152.5t24.5 114t40 139.5t39 131.5q23 61 3.5 155.5t-51.5 170.5t-62.5 192.5t-30.5 223.5q104 -41 166 -41q45 0 172 38t241 38q188 0 242.5 -95.5t54.5 -400.5q0 -129 -13 -223.5t-47 -174t-98.5 -119.5t-158.5 -40q-51 0 -99.5 31.5 t-78 69.5t-54 69t-34.5 31q-31 0 -41 -125q-6 -117 42 -263.5t48 -232.5zM553 508q18 0 33.5 10t26 30.5t17.5 43t12 57.5t7 61.5t3 68.5t1 64.5v62.5v52q0 49 8.5 126t13.5 129.5t0 103.5t-33 77.5t-83 26.5q-98 0 -156.5 -113.5t-58.5 -291.5q0 -193 58.5 -350.5 t150.5 -157.5z" glyph-name="P" horiz-adv-x="989" unicode="P"/><glyph d="M1257 -426q-94 0 -191 51t-201.5 125t-174.5 100q-184 -90 -418 -90q-57 0 -92 17.5t-35 44.5q0 25 31 46t105.5 37.5t181.5 16.5q88 0 176 -16q121 133 121 352q0 113 -52.5 240t-52.5 213q0 127 46.5 249.5t46.5 223.5q0 121 -48.5 176t-173.5 55q-123 0 -163.5 -56 t-40.5 -188q0 -61 28.5 -198t28.5 -262q0 -86 -37 -212t-37 -241q0 -113 43 -179.5t164 -66.5v-39q-455 0 -455 398q0 72 25 157q23 78 22 160q0 47 -11 148.5t-11 164.5q0 254 104.5 353.5t333.5 99.5q481 0 481 -324q0 -78 -56 -186t-56 -162q0 -39 30.5 -98t61.5 -142 t31 -177q0 -147 -73 -271.5t-208 -206.5q35 -10 126 -47t176 -60.5t163 -23.5q176 0 369 148l39 -213q-167 -117 -347 -117zM346 -203q174 6 260 78q-33 6 -67 6q-74 0 -133.5 -13t-87 -28.5t-27.5 -29.5q0 -19 55 -13z" glyph-name="Q" horiz-adv-x="1060" unicode="Q"/><glyph d="M442 0h-342q-39 98 -39 193q0 84 33 168.5t71 143t70.5 134.5t32.5 143q0 74 -31.5 139.5t-68.5 111.5t-68.5 133t-31.5 196q0 37 6 80q102 -37 170 -37q63 0 169.5 35t190.5 35q217 0 330 -111t113 -260q0 -147 -100.5 -248.5t-270.5 -136.5q147 0 198.5 -54.5 t63.5 -152.5q4 -35 5 -145.5t18.5 -196.5t64.5 -170h-385q0 57 18.5 139t34 141.5t18.5 141.5t-26 137q-29 70 -91.5 100.5t-121.5 30.5q-49 0 -86 -56t-37 -163q0 -262 92 -471zM508 748q117 -20 209 86t92 296q0 147 -69.5 228.5t-159.5 81.5q-70 0 -120 -45t-52 -111 q0 -23 5 -62.5t4 -89t-14 -114.5q-14 -96 12.5 -178t92.5 -92z" glyph-name="R" horiz-adv-x="1089" unicode="R"/><glyph d="M463 -35q-188 0 -291.5 93.5t-77.5 240.5q37 205 -37 285q166 20 217 8q98 -23 99 -146q0 -29 -15.5 -115.5t-15.5 -142.5q0 -92 43 -137t104 -45q168 0 168 199q0 53 -12 145t-12 129q0 61 24.5 149.5t24.5 121.5q0 80 -145 36q-10 -2 -57.5 -20t-95.5 -31.5t-89 -13.5 q-129 0 -187.5 101.5t-58.5 248.5q0 215 108.5 307t354.5 92q193 0 293 -70.5t74 -191.5q-4 -23 -19.5 -60.5t-25 -62t-6.5 -58.5t26 -62q-53 -14 -100 -15.5t-92.5 12t-68 57.5t-13.5 116q29 178 13.5 240.5t-114 62.5t-140.5 -105.5t-42 -257.5q0 -283 164 -274 q33 2 122 36.5t146 34.5q106 0 154.5 -99t48.5 -247q0 -561 -469 -561z" glyph-name="S" horiz-adv-x="966" unicode="S"/><glyph d="M756 0h-348q-33 106 -33 231q0 193 69.5 564.5t63.5 507.5q-6 104 -72 104q-53 0 -69.5 -42t-18.5 -163q-2 -111 -52 -165t-128 -54q-90 0 -139 61q39 12 62.5 62.5t43.5 159.5q23 121 106 162.5t234 41.5h184q391 0 392 -204q0 -12 -1 -51t0 -59.5t4 -50.5t14 -46.5 t30 -24.5q-96 -66 -168 -65.5t-98.5 72t-0.5 204.5q12 74 -2 117t-51 43q-55 0 -96 -121q-76 -195 -82 -438q-12 -182 17.5 -343t79 -304.5t59.5 -198.5z" glyph-name="T" horiz-adv-x="1114" unicode="T"/><glyph d="M547 -35q-188 0 -317.5 102.5t-129.5 311.5q0 137 76 311q51 117 51 213q0 102 -80.5 257t-80.5 278h294q63 -143 64 -365q0 -162 -34 -438.5t-34 -347.5q0 -125 48.5 -201t142.5 -76q109 0 169 86t60 236q0 59 -32.5 296.5t-26.5 403.5q8 270 71 406h295 q0 -117 -66.5 -250t-66.5 -227q0 -109 56 -259q49 -127 49 -241q0 -233 -154.5 -364.5t-353.5 -131.5z" glyph-name="U" horiz-adv-x="1124" unicode="U"/><glyph d="M455 0q-47 0 -88 11.5t-92.5 54.5t-87 114.5t-61.5 203.5t-26 310q0 37 4.5 170t2 204t-19.5 179.5t-54 190.5h323q33 -78 39 -179.5t-5 -189.5t-32.5 -239.5t-29.5 -264.5q-14 -213 20.5 -361.5t112.5 -148.5q80 0 110.5 50.5t30.5 144.5q0 109 -37 459q-18 180 36 407 t40 322h358q4 -70 -25.5 -140.5t-66.5 -125t-68.5 -148.5t-31.5 -203q0 -61 18.5 -177t18.5 -181q0 -117 -30 -206t-72 -136t-99 -76t-100 -37t-88 -8z" glyph-name="V" horiz-adv-x="1032" unicode="V"/><glyph d="M1143 -31q-238 0 -359 156q-33 -59 -129 -105.5t-217 -46.5q-57 0 -111.5 11.5t-113.5 41t-95 92t-36 150.5q0 45 34 217t34 275q0 109 -14.5 220.5t-29 174t-41 161.5t-32.5 122h356q23 -82 23 -166q0 -104 -57.5 -340t-57.5 -420q0 -223 66.5 -336t175.5 -113 q45 0 81.5 49.5t36.5 133.5q0 57 -20 131q-53 176 -53 350q0 115 32.5 294t32.5 247q0 98 -33 170h332q-23 -231 -98.5 -508t-75.5 -414q0 -166 66 -291q47 -92 114.5 -141t128.5 -49q102 0 103 119q0 74 -29 155q-6 16 -23.5 69.5t-25.5 82t-20.5 76t-17.5 91.5t-5 89 q0 152 72.5 353.5t72.5 367.5h361q-20 -88 -54 -163t-65 -125t-59.5 -103.5t-46 -127t-17.5 -167.5q0 -66 45 -224.5t45 -285.5q0 -147 -65.5 -210t-210.5 -63z" glyph-name="W" horiz-adv-x="1603" unicode="W"/><glyph d="M356 0h-307q-2 125 41 248t96.5 199.5t97.5 154.5t44 127q0 35 -43 101.5t-95.5 138t-95.5 184.5t-43 227q0 18 4 68l299 -8q-45 -115 -45 -273q0 -164 48.5 -295t111.5 -131q57 0 105.5 46.5t48.5 111.5q0 53 -21.5 167t-21.5 169q0 127 38 203l285 2q-70 -117 -69 -303 q0 -88 -31 -157t-69 -101.5t-68.5 -66.5t-30.5 -58q0 -43 28.5 -92.5t69.5 -103.5t81 -125t65.5 -183.5t19.5 -249.5h-324q72 250 64 414q-6 131 -54 211t-116 75q-61 0 -74 -94q-4 -43 5.5 -158.5t9.5 -181.5q-1 -151 -54 -266z" glyph-name="X" horiz-adv-x="937" unicode="X"/><glyph d="M602 0h-383q0 113 27.5 211t62.5 152.5t62.5 103.5t27.5 74q0 47 -73 47q-121 0 -164 10q-131 23 -131 197q0 88 33.5 279.5t35.5 207.5q4 57 -8 84t-55 27q63 76 166 75q70 0 120 -42t50 -115q0 -127 -48.5 -303.5t-48.5 -239.5q0 -33 10.5 -63.5t52.5 -61.5t112 -31 q72 0 129 56.5t57 138.5q0 55 -35 228t-35 274q0 70 52.5 112.5t121.5 42.5q84 0 142 -59q-68 -27 -68 -170q0 -55 13.5 -188.5t13.5 -196.5q0 -121 -62.5 -189.5t-171.5 -72.5q-104 -2 -119 -62q-14 -31 -14 -98.5t53.5 -201.5t73.5 -226z" glyph-name="Y" horiz-adv-x="911" unicode="Y"/><glyph d="M440 -27q-90 0 -162.5 15.5t-105.5 31t-88 48.5q-41 123 -41 262q0 188 59.5 280t210.5 142q84 27 146 53q162 68 162 297q0 164 -45.5 242.5t-116.5 76.5q-63 -2 -70.5 -68.5t27.5 -185.5q29 -115 -6 -192q-25 -45 -82.5 -71.5t-120.5 -26.5q-82 0 -176 53 q68 29 89 70.5t13 164.5q-8 145 76 221t270 84q197 6 296 -66.5t99 -275.5q0 -111 -39.5 -182.5t-105 -104t-135.5 -53t-143.5 -49t-114.5 -71.5q-12 -12 -21.5 -28.5t-14.5 -38t-7 -40t0 -47.5t3 -46t7 -51t8 -48.5t10.5 -51t10.5 -47.5q14 -238 139 -237q45 0 66.5 20.5 t23.5 68.5t-3 92t-17.5 126t-18.5 137q-12 90 49.5 145.5t145.5 55.5q100 0 145 -74q-16 -2 -27.5 -11t-18.5 -24.5t-11 -31t-3 -41t2 -45t6 -53t9 -55t10.5 -61.5t10.5 -61q16 -111 -78.5 -179.5t-321.5 -68.5z" glyph-name="Z" horiz-adv-x="944" unicode="Z"/><glyph d="M463 -289h-375v1866h375v-59h-160v-1747h160v-60z" glyph-name="bracketleft" horiz-adv-x="503" unicode="["/><glyph d="M102 1585l537 -1884h-61l-537 1884h61z" glyph-name="backslash" horiz-adv-x="692" unicode="\"/><glyph d="M416 1577v-1866h-375v60h160v1747h-160v59h375z" glyph-name="bracketright" horiz-adv-x="503" unicode="]"/><glyph d="M193 928h-115q41 59 70.5 140t47 140.5t47 114.5t86 85t146.5 30q113 0 171.5 -46t73.5 -109.5t49 -169t89 -185.5h-117q-90 0 -133 77.5t-46 171t-21.5 171t-65.5 77.5q-37 0 -58.5 -36.5t-26.5 -92t-14 -120t-23.5 -120t-55.5 -92t-104 -36.5z" glyph-name="asciicircum" horiz-adv-x="933" unicode="^"/><glyph d="M819 -61h-778v61h778v-61z" glyph-name="underscore" horiz-adv-x="860" unicode="_"/><glyph d="M324 -35q-127 0 -205 83t-78 204q0 31 6 59.5t14.5 51t25.5 44t30.5 36t41 32t44 27.5t51.5 25.5t52.5 21.5t59.5 22.5t58 22.5q123 51 190.5 122.5t67.5 184.5q0 70 -33 146.5t-74 93.5q-39 45 -81 26q-35 -12 -39 -53t9 -131t15 -133q6 -100 -56.5 -153.5t-148.5 -53.5 q-78 0 -122 47q55 14 55 109q0 27 -8.5 80t-10.5 65q-8 96 96.5 185.5t313.5 89.5q166 0 266.5 -61.5t100.5 -194.5q0 -115 -86 -191t-238 -141q-10 -4 -51 -21.5t-53.5 -23.5t-47 -23.5t-47 -27t-38 -26.5t-36 -31.5t-23.5 -35t-18 -43t-5 -47.5q0 -55 36.5 -92t90.5 -37 q117 0 186 150q23 37 50.5 100.5t45 103t47 70.5t64.5 31q113 0 153.5 -196.5t8.5 -481.5h-396q82 88 160 283.5t78 306.5q0 35 -23 35q-18 0 -40.5 -49.5t-45 -122t-59.5 -158.5t-81 -159t-115.5 -122t-157.5 -49z" glyph-name="a" horiz-adv-x="1069" unicode="a"/><glyph d="M770 -35q-35 0 -67.5 9.5t-59.5 21.5t-55.5 36.5t-48 43t-45 53.5t-39 54.5t-35 58.5t-28.5 53t-26.5 52t-21.5 42q-31 63 -43 64q-20 0 -16 -45q0 -70 49 -199t110 -209h-403q0 145 27.5 258t53 163t38 149.5t-18.5 213.5q-10 47 -27.5 114t-26.5 102.5t-21.5 103 t-14.5 117t-6 141.5t6 178h336q27 -88 -3 -232.5t-75 -279.5t-47 -166q-4 -27 14 -26q16 0 33 24q39 61 73 106.5t97.5 112t146.5 103.5t177 37q113 0 168 -49.5t55 -135.5q0 -51 -28.5 -159.5t-28.5 -200.5q0 -72 23.5 -205t23.5 -203q0 -147 -66.5 -224t-179.5 -77z M723 90q57 33 37 133q-43 215 -43 422q0 106 34.5 262t34.5 172q0 68 -63 68q-104 0 -240.5 -149.5t-136.5 -309.5q0 -147 70.5 -305t142.5 -236q39 -45 88 -60t76 3z" glyph-name="b" horiz-adv-x="1067" unicode="b"/><glyph d="M487 -27q-193 0 -318.5 164t-127.5 424q-2 322 132 490t368 168q84 0 143 -17.5t90 -43t46.5 -67.5t18.5 -75t5 -80v-16q4 -150 104 -168q-23 -55 -74 -87t-106 -32q-63 0 -110.5 40t-53.5 115q-4 61 6.5 128t23.5 111t21.5 82t0 56.5t-41.5 18.5q-111 0 -193.5 -175 t-80.5 -460q6 -547 184 -547q37 0 68 68.5t29 177.5q-8 135 39 194.5t126 59.5q109 0 164 -86q-96 -6 -96 -137q0 -63 -12.5 -109.5t-47 -95.5t-112.5 -75t-195 -26z" glyph-name="c" horiz-adv-x="980" unicode="c"/><glyph d="M233 -35q-88 0 -121.5 41t-33.5 121q0 45 21.5 170t21.5 199q0 92 -34 224t-34 224q0 274 219 275q94 0 171 -44.5t123 -106.5t80 -124.5t57.5 -106.5t40 -44t16.5 63q0 68 -102.5 314.5t-102.5 369.5h319q39 -127 39 -285q0 -125 -34.5 -364.5t-34.5 -349.5 q0 -131 59.5 -281.5t59.5 -259.5h-336q51 182 51 266q0 33 -14 33q-10 0 -17 -14q-170 -320 -414 -320zM362 74q98 0 212 168t114 368q0 219 -116.5 376t-215.5 157q-45 0 -45 -47q0 -6 37 -166t37 -332q0 -111 -41 -262.5t-41 -179.5q0 -82 59 -82z" glyph-name="d" horiz-adv-x="997" unicode="d"/><glyph d="M496 -35q-455 0 -455 502q0 12 1 27.5t4 49.5t5 68q8 111 25.5 196t52.5 165t88 131t135 82t191 31q80 0 138 -11.5t114.5 -43.5t83 -97.5t16.5 -163.5q-16 -180 -187 -265t-421 -73q-4 -35 -4 -108q0 -121 18 -217.5t66.5 -164t121.5 -67.5q66 0 85.5 46t19.5 167v84 q0 88 44 137t116 49q111 0 131 -106q-49 -12 -49 -176q0 -115 -100.5 -178.5t-239.5 -63.5zM287 614q115 -20 201.5 33t127.5 141.5t59.5 167t16.5 129.5q-6 49 -31.5 74t-56.5 25q-109 0 -213 -168.5t-104 -401.5z" glyph-name="e" horiz-adv-x="929" unicode="e"/><glyph d="M383 0h-342q160 440 160 711q0 139 -45 260t-90.5 226.5t-45.5 207.5q0 137 86.5 211t247.5 74q76 0 128.5 -18.5t81 -57.5t41.5 -72t26 -84q35 -147 76 -172q-70 -63 -158 -63q-76 0 -106.5 38.5t-28.5 122.5q6 158 4 211q0 61 -56 62q-47 0 -82.5 -47t-35.5 -127 q0 -236 39 -369q45 -174 108 -174q20 0 41 52t59.5 103.5t102.5 51.5q51 0 82 -32t31 -77q0 -49 -33 -84q-53 27 -105 27q-82 0 -124 -83t-33 -245q26 -389 -29 -653z" glyph-name="f" horiz-adv-x="669" unicode="f"/><glyph d="M457 -426q-131 0 -245 50t-185 138l118 132q150 -141 310 -142q94 0 153.5 61.5t78 148.5t7.5 192q-33 -94 -106.5 -138.5t-165.5 -44.5q-164 0 -266.5 86t-102.5 211q0 66 16.5 196t16.5 185q0 76 -7 154t-7 137q0 137 116.5 210t309.5 73q354 0 366 -230 q6 -82 -6 -195.5t-12 -154.5q0 -59 8 -131t22.5 -167t20.5 -146q31 -254 -90 -439.5t-350 -185.5zM473 63q82 0 133 74t51 180q2 55 -22.5 168t-24.5 170q0 74 14.5 215.5t14.5 180.5q0 66 -40 101.5t-99 35.5q-88 0 -134.5 -45t-39.5 -131q4 -53 5 -114.5t-1 -138.5 t-2 -110q0 -106 -22.5 -246.5t-22.5 -177.5q0 -74 55 -118t135 -44z" glyph-name="g" horiz-adv-x="968" unicode="g"/><glyph d="M424 0h-328q-23 131 3 238.5t63 225.5t37 245q0 37 -64.5 260t-64.5 377q0 102 43 194h307q0 -127 -88 -325.5t-88 -301.5q0 -84 10 -143q27 96 75 176t102 129t116.5 83t115 47.5t97.5 13.5q111 0 172 -55.5t49 -145.5q-6 -47 -26.5 -84t-47 -62.5t-51.5 -52t-42 -69.5 t-17 -99q0 -59 31.5 -118.5t70.5 -103.5t70.5 -132t31.5 -199q0 -25 -8 -98h-307q35 123 33 202t-31 146.5t-61.5 111.5t-60 98t-27.5 104q0 88 61.5 187t122.5 175t61 104q0 33 -61 33q-135 0 -266 -146.5t-131 -381.5q0 -80 31.5 -170t55 -203t11.5 -260z" glyph-name="h" horiz-adv-x="1034" unicode="h"/><glyph d="M211 1331q-66 0 -102.5 44t-36.5 103.5t36.5 102.5t102.5 43q70 0 107.5 -42t37.5 -101.5t-38.5 -104.5t-106.5 -45zM403 0h-331q-14 106 3 197.5t50 143.5t61.5 116.5t35.5 122t-25 157.5q-20 53 -62.5 148.5t-59 156t-16.5 142.5h332q12 -90 0 -163t-35.5 -112t-43 -90 t-20.5 -98t30 -137q61 -160 64 -340.5t17 -243.5z" glyph-name="i" horiz-adv-x="446" unicode="i"/><glyph d="M211 1331q-66 0 -102.5 44t-36.5 103.5t36.5 102.5t102.5 43q70 0 107.5 -42t37.5 -101.5t-38.5 -104.5t-106.5 -45zM76 -311q-106 0 -180 55t-74 184h162q4 -96 27.5 -147t56 -51t60.5 50t42 158.5t0 251.5q-18 203 -49 333t-47.5 257t-16.5 404h328q0 -137 -51 -342 t-39 -391q8 -109 54 -255.5t38 -236.5q-12 -131 -93 -200.5t-218 -69.5z" glyph-name="j" horiz-adv-x="432" unicode="j"/><glyph d="M406 0h-349q-16 68 -16 139q0 94 25.5 179t57.5 137.5t57.5 125t25.5 146.5q0 86 -61.5 334t-61.5 479h336q2 -18 2 -53q0 -174 -73 -446.5t-73 -313.5q0 -25 12.5 -37t37 12.5t45.5 65.5q18 43 51 122t48 113.5t44 85t52.5 71t58 37.5t77.5 17q59 0 132 -39.5t124 -39.5 v-248q-33 -25 -73 -25q-53 0 -123 74t-121 74q-82 0 -137 -79t-55 -128q0 -27 49 -27q31 0 69.5 14.5t67.5 14.5q59 0 106 -25.5t79 -73t56.5 -111t41 -142t31 -165.5t26.5 -182q8 -72 14 -106h-381q68 141 68 297q0 166 -66.5 282.5t-183.5 116.5q-45 0 -85 -61.5 t-40 -118.5q0 -66 44.5 -242t60.5 -274z" glyph-name="k" horiz-adv-x="1030" unicode="k"/><glyph d="M391 0h-336q0 111 22.5 217.5t52.5 177t56.5 156.5t32.5 155.5t-14 172.5q-31 125 -73 235.5t-56.5 187t-14.5 238.5h357q0 -106 -25.5 -191t-56.5 -135.5t-55.5 -102.5t-23.5 -126t40 -174q31 -82 49.5 -140.5t29.5 -99.5t14 -107.5t3 -105.5t-1 -156.5t-1 -201.5z" glyph-name="l" horiz-adv-x="464" unicode="l"/><glyph d="M406 0h-332q-12 129 4 227.5t42.5 152.5t50.5 143t24 196q0 252 -80 344q-39 45 -74 16q18 59 69.5 96t110.5 35q66 0 111 -50t49 -150q47 86 155.5 147.5t196.5 61.5q104 0 143 -67t39 -214q43 137 140.5 208t210.5 71q117 0 191.5 -74t74.5 -205q0 -51 -22.5 -166 t-22.5 -219q0 -70 40 -228.5t40 -213.5q0 -51 -15 -111h-305q27 86 28 162t-13.5 126t-31 128t-16.5 155q0 94 32 217t36 168q6 74 -35 120t-94 46q-63 0 -127.5 -72.5t-97.5 -203.5q-23 -90 -9.5 -203t41 -204t39 -212t-15.5 -227h-295q29 76 19.5 167t-33 154.5t-47 149.5 t-23.5 152q0 143 37 240.5t37 144.5q0 117 -72 116q-78 0 -152.5 -126t-74.5 -279q0 -92 12 -197.5t23.5 -177.5t11.5 -165t-20 -179z" glyph-name="m" horiz-adv-x="1597" unicode="m"/><glyph d="M395 0h-307q-29 84 -29 172q0 102 55.5 300t67.5 276q18 129 -20.5 231t-120.5 102q12 137 152 138q43 0 76.5 -19.5t58 -55.5t37 -62.5t26.5 -65.5q164 203 363 203q219 0 219 -209q0 -72 -49.5 -203t-49.5 -232q0 -104 70 -271t86 -304h-307q8 125 -23 244 q-6 49 -48 171t-42 201q0 96 35 179.5t70 148t35 119.5q0 37 -22.5 57.5t-59.5 20.5q-84 0 -163 -78t-122 -203q-72 -205 -14 -475q51 -244 26 -385z" glyph-name="n" horiz-adv-x="1062" unicode="n"/><glyph d="M469 -35q-227 0 -327.5 87t-100.5 216q0 66 24.5 196t24.5 185q0 76 -15.5 154t-15.5 137q0 137 117 210t309 73q168 0 273.5 -62.5t105.5 -177.5q0 -76 -33.5 -153.5t-33.5 -133.5q0 -66 53 -182.5t53 -194.5q0 -174 -114.5 -264t-319.5 -90zM471 6q88 0 140.5 43 t52.5 115q0 57 -39 229t-39 266q0 68 20.5 210.5t20.5 181.5q0 66 -39 101.5t-101 35.5q-164 0 -163 -174q0 -18 9 -169t-1 -186q-6 -57 -34 -234t-28 -237q0 -182 201 -182z" glyph-name="o" horiz-adv-x="944" unicode="o"/><glyph d="M350 -362h-319q0 170 28.5 307t62.5 212.5t61.5 194.5t25.5 258q-4 442 -141 543q51 49 135 49q74 0 128 -42t60 -107q127 166 324 166q150 0 208 -52.5t58 -154.5q0 -55 -18.5 -211t-18.5 -248v-80.5v-85.5t-2 -80t-6 -80.5t-14.5 -69.5t-23.5 -66.5t-33.5 -51.5 t-47 -43t-63.5 -24.5t-82 -10.5q-25 0 -47.5 5t-44 17.5t-38 21.5t-36 31.5t-29.5 34t-29.5 39t-24.5 36t-23.5 38t-20.5 33.5q-23 37 -48.5 26.5t-29.5 -50.5q-2 -12 -6 -49.5t-5 -51.5t-3 -51t0 -59.5t5 -64.5t10 -80t19.5 -90t28.5 -109zM606 86q66 0 86.5 79t20.5 265 q0 125 9 313.5t9 241.5q0 96 -19.5 137t-80.5 35q-84 -10 -158 -138t-74 -396q0 -252 64.5 -394.5t142.5 -142.5z" glyph-name="p" horiz-adv-x="1034" unicode="p"/><glyph d="M877 -362h-357q29 57 50.5 110t33.5 101.5t20.5 83t11.5 78.5t4 64.5t0 63.5t-1 54q0 125 -16 114q-10 -6 -25 -74q-31 -113 -111.5 -185.5t-187.5 -72.5q-283 0 -240 304q29 150 2.5 325.5t-18.5 323.5q16 281 238 291q78 2 190.5 -23t191 -35t246.5 23 q-51 -94 -75.5 -195.5t-28.5 -170t-6 -245.5q-2 -180 38 -423.5t40 -511.5zM365 47q66 0 127 107.5t97 258t36 283.5q0 244 -62.5 359.5t-212.5 115.5q-74 0 -79 -71.5t26 -219t31 -227.5q0 -90 -31 -264t-21.5 -258t89.5 -84z" glyph-name="q" horiz-adv-x="935" unicode="q"/><glyph d="M406 0h-336q115 250 114 547q0 313 -143 637q66 35 133 35q143 0 188 -150q49 78 119 116t131 38q92 0 144.5 -45t52.5 -115q0 -49 -14.5 -138t-14.5 -120q0 -74 58 -80q-47 -94 -154 -94q-68 0 -119 45t-51 118.5t63.5 183t63.5 142.5q0 55 -57 56q-84 0 -161 -101.5 t-77 -269.5q0 -113 42 -298t42 -331q1 -88 -24 -176z" glyph-name="r" horiz-adv-x="866" unicode="r"/><glyph d="M432 -35q-178 0 -265 74t-73 190q2 18 9.5 50t11.5 60t4 56q0 109 -78 117q63 80 168 72q98 -10 148.5 -85t37.5 -196q-4 -53 -41 -166q-35 -137 70 -137q100 0 154 123q39 96 47 227q10 94 -36 170t-138 105q-37 14 -109 33.5t-110.5 35t-84 46t-65 80.5t-14.5 124 q4 111 62 173.5t137 81t198 18.5q180 0 296 -75t107 -194q-2 -27 -8 -48t-22.5 -42.5t-22.5 -30t-31.5 -33t-27.5 -26.5q-68 -70 -33 -115q-96 10 -144.5 56.5t-23.5 124.5q63 186 66 249q0 92 -80 97q-92 4 -137.5 -95.5t-45.5 -232.5q0 -63 40 -118.5t106 -84.5 q39 -16 106.5 -33.5t114.5 -33t95 -43t73 -79.5t25 -130q-2 -113 -44.5 -188.5t-117 -112.5t-150.5 -50.5t-174 -13.5z" glyph-name="s" horiz-adv-x="958" unicode="s"/><glyph d="M379 -35q-147 0 -238.5 82t-91.5 240q0 152 67.5 435.5t67.5 442.5q0 217 -108 375h317q18 -80 -22.5 -198.5t-40.5 -167.5q0 -145 57 -146q41 0 107 70q113 115 208 114q61 0 100.5 -46t39.5 -115q0 -115 -86 -162q-76 109 -174 108q-143 0 -220 -159q-66 -137 -65 -357 q-2 -481 104 -481q123 0 101 412q-8 152 55.5 193.5t245.5 19.5q-35 -45 -41 -109.5t2 -251.5q6 -158 -101.5 -228.5t-283.5 -70.5z" glyph-name="t" horiz-adv-x="854" unicode="t"/><glyph d="M842 -39q-70 0 -112 61.5t-42 176.5q0 51 6 112q-53 -158 -172 -252t-254 -94q-102 0 -158.5 91t-56.5 274q0 104 41 294.5t41 303.5q0 127 -67 262l288 -2q47 -94 47 -213q0 -147 -56 -411.5t-60 -311.5q-14 -168 104 -168q111 0 220.5 148.5t109.5 394.5 q0 45 -13.5 187t-13.5 222q0 86 35 148h305q0 -88 -59 -355q-76 -328 -76 -481q0 -215 117 -307q-92 -80 -174 -80z" glyph-name="u" horiz-adv-x="1067" unicode="u"/><glyph d="M424 -31q-367 68 -307 615q16 141 6 234t-28.5 132t-37 99.5t-18.5 134.5h332q18 -143 0.5 -202.5t-50 -189.5t-32.5 -268q0 -145 72.5 -277t177.5 -173q55 45 93 141t34 201q-2 49 -64.5 319.5t-46.5 448.5h334q-127 -258 -82 -652q25 -219 -73.5 -363.5t-309.5 -199.5z " glyph-name="v" horiz-adv-x="942" unicode="v"/><glyph d="M1178 -31q-106 0 -203.5 43t-161.5 117q-31 -57 -109.5 -104.5t-181.5 -51.5q-410 -12 -409 396q0 55 13 149t13 123q0 88 -49 218t-49 220q0 47 12 107h307q10 -51 11 -109q0 -90 -39 -225t-45 -260q-8 -139 19.5 -268t95 -216.5t161.5 -78.5q113 8 113 123 q0 29 -33 121t-37 143q-8 109 51.5 213t59.5 196q0 123 -109 359h346q25 -135 25 -211q0 -115 -64.5 -258.5t-64.5 -286.5q0 -164 93 -286t194 -122q94 0 94 134q0 68 -64.5 178t-64.5 192q0 84 76.5 218.5t76.5 234.5q0 104 -45 207h322q12 -74 12 -127q0 -72 -23.5 -130.5 t-56 -98.5t-65.5 -74.5t-56.5 -76.5t-23.5 -89q0 -49 36 -101.5t71.5 -115t35.5 -135.5q0 -106 -77.5 -186.5t-206.5 -80.5z" glyph-name="w" horiz-adv-x="1585" unicode="w"/><glyph d="M328 0h-285q-10 47 -10 86q0 33 7 66.5t24.5 67.5t32 58.5t42 59.5t41 51.5t45 50t37.5 41.5q55 59 55 109q0 20 -8 34.5t-18 23.5t-33 26q-41 27 -61.5 42t-42 50t-21.5 78q-4 133 -21.5 204.5t-62.5 135.5h197q68 0 90 -36t22 -134q0 -63 -8 -151.5t-8 -112.5 q0 -129 109 -129q33 -2 65.5 34.5t34.5 104.5q0 31 -8 114.5t-8 137.5q0 172 149 172h121q-14 -18 -24.5 -39t-15.5 -36t-7 -46t-3 -47.5t0 -66.5t1 -77q0 -76 -34 -115.5t-104 -80.5q-53 -35 -53 -76q0 -39 74 -131q55 -78 88 -129t66.5 -139t33.5 -166q0 -23 -2 -35h-307 q35 70 35 168q0 10 -16 184q-4 25 -8.5 67t-6.5 56q-14 104 -84 105q-72 0 -100 -111q-23 -57 -29 -135q-6 -57 -6 -178q0 -99 25 -156z" glyph-name="x" horiz-adv-x="860" unicode="x"/><glyph d="M461 -319q-164 0 -254 56t-90 204q0 162 112 161q63 0 138 -61q-33 -68 -33 -141q0 -78 38 -128.5t107 -50.5q209 0 209 400q0 121 -47 121q-14 0 -98 -34t-156 -34q-199 0 -251 103.5t-17 361.5q20 135 -1.5 229.5t-51 170t-29.5 145.5h297q4 -70 20.5 -203t16.5 -199 q0 -61 -4.5 -134t-8.5 -121t-5 -99t4 -82t19.5 -57.5t41 -38.5t69.5 -12q78 0 135.5 62t57.5 189q0 47 2 115t2 100.5t-4 71.5t-14 68q-18 51 -25.5 75.5t-17 70.5t-7.5 92t13 102h266q37 -154 37 -277q0 -115 -25.5 -207t-56.5 -142t-56.5 -121.5t-25.5 -147.5t56.5 -163 t56.5 -185q0 -260 -420 -260z" glyph-name="y" horiz-adv-x="964" unicode="y"/><glyph d="M553 -23q-70 0 -176.5 20.5t-175.5 20.5q-74 0 -131 -18q-23 233 -23 317q0 127 56.5 184.5t154.5 80.5q94 20 131 28t87 31t79 53q80 84 72 330q-78 127 -183 111q-82 -10 -82 -185q0 -133 -29.5 -191.5t-121.5 -58.5t-145 33q49 31 58 72t7 149q0 133 53.5 199 t190.5 66q66 0 160 -22.5t137 -22.5q53 0 88 10q35 -41 41 -176.5t-17 -231.5q-10 -47 -25.5 -79.5t-44 -54t-46 -31t-64.5 -27t-69 -25.5q-53 -23 -90 -46.5t-81.5 -69.5t-67 -122.5t-22.5 -179.5v-22q0 -35 1 -48.5t10.5 -23.5t29.5 -10q113 -8 176.5 43t63.5 149 q0 29 -11.5 69t-11.5 58q0 76 53.5 121t129.5 45q53 0 114 -28q-25 -10 -39 -47t-16 -72t-3 -87t-1 -61q-10 -135 -72.5 -192.5t-144.5 -57.5z" glyph-name="z" horiz-adv-x="862" unicode="z"/><glyph d="M467 -246q-76 0 -126 15.5t-96 59.5t-67.5 136t-21.5 234q0 133 -15.5 289.5t-52.5 175.5q39 18 63.5 189t24.5 294q0 94 12.5 165.5t32 117t53 75t63.5 44t77 19.5t78.5 4t85 -4t81.5 -3v-21q-80 0 -130 -37t-88 -154.5t-50 -330.5q-6 -127 -36.5 -205t-59.5 -98.5 t-73 -34.5t-52 -20q10 -6 42 -7.5t58.5 -13.5t56 -47t47 -128t17.5 -239q-2 -219 75 -332.5t193 -113.5v-21q-29 0 -94 -4t-98 -4z" glyph-name="braceleft" horiz-adv-x="700" unicode="{"/><glyph d="M82 -135h-41v1710h41v-1710z" glyph-name="bar" horiz-adv-x="143" unicode="|"/><glyph d="M233 -246q-33 0 -98 4t-94 4v21q117 0 193.5 113.5t74.5 332.5q0 145 17.5 238.5t47 128.5t56.5 47t58.5 13t41.5 8q-8 6 -52 20t-72.5 34.5t-59.5 98.5t-37 205q-12 213 -50 330.5t-88 154.5t-130 37v21q29 0 82 3t85 4t79 -4t76.5 -19.5t63.5 -44t53.5 -75t31.5 -117 t12 -165.5q0 -123 24.5 -294t63.5 -189q-37 -18 -52 -175t-15 -290q0 -141 -21.5 -233.5t-67.5 -136.5t-96.5 -59.5t-126.5 -15.5z" glyph-name="braceright" horiz-adv-x="700" unicode="}"/><glyph d="M889 434q-119 0 -339 69.5t-304 69.5q-82 0 -129 -33.5t-47 -88.5h-29q0 137 71.5 224t192.5 87q133 0 347 -68.5t270 -72.5q74 -6 105.5 23.5t23.5 90.5h18q35 -59 35 -119q0 -78 -57.5 -130t-157.5 -52z" glyph-name="asciitilde" horiz-adv-x="1148" unicode="~"/><glyph d="M281 1415q72 0 112.5 -46t40.5 -107q0 -63 -40 -107.5t-113 -44.5q-70 0 -110 45t-40 106.5t40 107.5t110 46zM240 1010h57q49 -174 49 -346q2 -113 72.5 -287t70.5 -277q0 -129 -59 -198.5t-139 -69.5q-84 0 -128 87t-18 228q10 53 43 202t51.5 270.5t16.5 232.5 q-4 95 -16 158z" glyph-name="exclamdown" horiz-adv-x="577" unicode="¡"/><glyph d="M883 502q109 0 161 -86q-72 -18 -71 -137q0 -131 -89 -221.5t-313 -90.5h-22l-25 -215h-20l24 217q-174 20 -281.5 182t-109.5 410q-2 360 126 509t374 149h27l28 254h21l-29 -256q76 -4 128 -27t77.5 -47.5t41 -70.5t17.5 -72.5t4 -79.5q4 -150 103 -168 q-35 -74 -92.5 -112t-116.5 -38q-137 0 -137 186q0 61 9 128t18 108t12.5 77t-9 52t-45.5 16h-14l-127 -1157q18 -8 45 -8q43 0 79 69.5t34 174.5q22 254 172 254zM420 485q2 -199 26.5 -313.5t85.5 -151.5l125 1143q-104 -33 -171.5 -227.5t-65.5 -450.5z" glyph-name="cent" horiz-adv-x="1120" unicode="¢"/><glyph d="M680 0h-555q41 70 54.5 101.5t26.5 132t13 278.5v92h-178v39h178v469q0 365 342 365q84 0 139.5 -27t77 -68t32.5 -90t14 -91t16.5 -74.5t42.5 -39.5q-20 -66 -85 -86t-121 17t-56 112q0 184 -11.5 246t-56.5 62q-51 0 -73.5 -86t-22.5 -285v-424h356v-39h-356v-123 q0 -143 -54.5 -268t-138.5 -154q479 0 570 285q55 -63 66 -142t-45 -140.5t-175 -61.5z" glyph-name="sterling" horiz-adv-x="987" unicode="£"/><glyph d="M201 362l-105 -118l-33 28l107 121q-100 106 -100 262q0 154 98 263l-105 118l33 29l103 -117q115 98 262 99q156 0 266 -105l109 123l34 -29l-112 -125q94 -106 94 -256q0 -143 -94 -258l112 -125l-34 -28l-109 123q-113 -102 -266 -103q-151 0 -260 98zM461 338 q133 0 226 93t93 224t-93 224.5t-226 93.5t-225.5 -93.5t-92.5 -224.5t92.5 -224t225.5 -93z" glyph-name="currency" horiz-adv-x="931" unicode="¤"/><glyph d="M897 1405q-68 -27 -68 -170q0 -55 13.5 -188.5t13.5 -196.5q0 -121 -62.5 -189.5t-170.5 -72.5q-100 -2 -117 -51h258v-39h-270q-2 -6 -7 -47h277v-39h-277q4 -61 55.5 -189.5t71.5 -222.5h-383q0 211 117 412h-242v39h267q2 4 12 21t14 26h-293v39h306v4q0 47 -74 47 q-119 0 -162 10q-131 23 -131 197q0 88 33 282.5t35 204.5q12 111 -64 111q63 76 168 75q70 0 119 -42t49 -115q0 -127 -48 -303.5t-48 -239.5q0 -33 10 -63.5t52 -61.5t112 -31q72 0 129 55.5t57 139.5q0 55 -34.5 228t-34.5 274q0 70 53 112.5t123 42.5q82 0 141 -59z" glyph-name="yen" horiz-adv-x="937" unicode="¥"/><glyph d="M82 872h-41v703h41v-703zM82 -127h-41v700h41v-700z" glyph-name="brokenbar" horiz-adv-x="143" unicode="¦"/><glyph d="M489 -35q-147 0 -225 57.5t-78 192.5q0 100 -39 115q84 23 138 22q137 0 137 -131q0 -119 22.5 -169t85.5 -50q80 0 118 57.5t38 186.5q0 66 -22.5 109.5t-67.5 67t-86 36t-106.5 26t-98.5 23.5q-127 37 -183 92t-56 172q0 113 120 225q-86 86 -86 207q0 127 115 196.5 t274 69.5q72 0 120 -23.5t68.5 -57t37 -67.5t40 -57.5t60.5 -23.5q0 -57 -41 -90t-96 -33q-51 0 -94 30t-54 81q-6 31 -5 48t4 43t3 36q0 39 -28.5 61.5t-67.5 22.5q-127 0 -129 -113q0 -84 33 -141.5t86 -86t116.5 -49t127 -42t117 -52t86 -91t32.5 -148.5q0 -115 -74 -195 q23 -27 33 -68.5t11.5 -71.5t1.5 -106q0 -160 -107 -235.5t-281 -75.5zM799 557q14 68 12 109t-35 71.5t-71.5 46t-100 34t-117 31.5t-124 41t-121.5 62q-37 -57 -37 -118q0 -74 65.5 -111t152.5 -46t197.5 -38t178.5 -82z" glyph-name="section" horiz-adv-x="946" unicode="§"/><glyph d="M774 -4q-309 0 -513 210t-204 513t204 513t513 210t513 -210t204 -513t-204 -513t-513 -210zM774 41q293 0 482.5 196.5t189.5 481.5t-189.5 481.5t-482.5 196.5t-482.5 -196.5t-189.5 -481.5t189.5 -481.5t482.5 -196.5zM772 285q-139 0 -229 116.5t-92 303.5 q0 231 96 352t262 121q45 0 81 -8.5t58.5 -16.5t37.5 -30.5t22.5 -34t11.5 -43t5 -40t1 -42.5q4 -106 76 -121q-35 -84 -129 -84q-47 0 -81 28.5t-36 81.5q-4 45 3 92.5t16.5 79t15.5 59t0 40t-29 12.5q-80 0 -139 -125t-57 -330q2 -391 133 -391q27 0 48 49t19 127 q-10 182 119 183q80 0 117 -62q-68 -6 -68 -100q0 -45 -8 -78t-33.5 -67.5t-81 -53t-139.5 -18.5z" glyph-name="copyright" horiz-adv-x="1548" unicode="©"/><glyph d="M184 766q-72 0 -115.5 47t-43.5 115q0 20 3 36.5t12 32t15 25.5t23.5 21.5t25 17.5t32 17.5t31.5 14.5t36.5 14t36.5 13q145 57 145 172q0 39 -18.5 82t-40.5 53q-25 25 -47 15q-18 -6 -20.5 -29.5t4.5 -74t7 -74.5q2 -55 -32.5 -86t-81.5 -31q-41 0 -70 27q31 8 31 61 q0 14 -4 45t-4 37q-4 55 54 104t175 49q207 0 207 -143q0 -66 -49.5 -108.5t-133.5 -77.5q-121 -51 -150.5 -83t-29.5 -75q0 -31 21.5 -51.5t50.5 -20.5q68 0 104 84q12 23 34 74t40.5 74.5t42.5 23.5q61 0 85 -110.5t5 -270.5h-221q45 51 89 160t44 172q0 18 -14 18.5 t-35.5 -58t-45.5 -127t-76 -127t-122 -58.5z" glyph-name="ordfeminine" horiz-adv-x="675" unicode="ª"/><glyph d="M717 305v-145q-72 57 -172.5 94t-183 55.5t-158.5 45t-119 85t-43 156.5q0 96 43 159.5t119 99.5t158.5 60.5t184 64.5t171.5 91v-141q0 -61 -49.5 -104.5t-122 -64t-157.5 -37.5t-158.5 -28.5t-123 -37t-49.5 -62.5q0 -39 68 -61.5t165 -35t194.5 -28.5t165 -58 t67.5 -108zM1475 305v-145q-72 57 -172.5 94t-183.5 55.5t-158.5 45t-118.5 85t-43 156.5q0 96 43 159.5t118.5 99.5t158.5 60.5t184.5 64.5t171.5 91v-141q0 -61 -49.5 -104.5t-122 -64t-157.5 -37.5t-159 -28.5t-123 -37t-49 -62.5q0 -39 67.5 -61.5t165 -35t194.5 -28.5 t165 -58t68 -108z" glyph-name="guillemotleft" horiz-adv-x="1515" unicode="«"/><glyph d="M492 610h-451v62h451v-62z" glyph-name="uni00AD" horiz-adv-x="532" unicode="­"/><glyph d="M505.5 537q-196.5 0 -325.5 132t-129 322.5t129 323.5t325.5 133t327 -133t130.5 -323.5t-130.5 -322.5t-327 -132zM506 578q178 -2 298 119.5t118 293.5q0 172 -119 294t-297 122q-176 0 -295 -122t-119 -294t119 -292.5t295 -120.5zM442 741h-123q-12 29 -12 68 q0 47 37 112.5t37 98.5q0 35 -36 90t-36 117q0 18 2 28q37 -14 59.5 -14t60.5 13.5t69 13.5q78 0 117.5 -40t39.5 -93q0 -51 -35.5 -88t-95.5 -50q51 0 69.5 -19.5t22.5 -53.5q2 -12 2.5 -52.5t6.5 -71t24 -59.5h-139q0 23 11.5 66t14.5 67.5t-10 65.5q-18 47 -75 47 q-43 0 -43 -78q-1 -96 32 -168zM465 1008q43 -6 75.5 31.5t32.5 105.5q0 53 -25.5 81.5t-55.5 28.5q-27 0 -44.5 -17t-17.5 -40q0 -4 2 -37t-4 -57q-12 -86 37 -96z" glyph-name="registered" horiz-adv-x="1013" unicode="®"/><glyph d="M295 979q-102 0 -178 66.5t-76 183.5t76 182.5t178 65.5t178 -65.5t76 -182.5t-76 -183.5t-178 -66.5zM293 1006q92 0 160.5 59t68.5 163.5t-67.5 164t-159.5 59.5t-158.5 -59.5t-66.5 -163.5q0 -106 66.5 -164.5t156.5 -58.5z" glyph-name="degree" horiz-adv-x="589" unicode="°"/><glyph d="M438 1010v-355h355v-41h-355v-356h-41v356h-356v41h356v355h41zM793 12h-752v39h752v-39z" glyph-name="plusminus" horiz-adv-x="833" unicode="±"/><glyph d="M287 700q-37 0 -111 8.5t-135 8.5q29 94 37 209.5t17 167t50 51.5q33 0 76 -12.5t55 -14.5q37 -6 56.5 35t19.5 102q0 180 -86 181q-20 0 -31.5 -4.5t-17.5 -10.5t-6 -20.5t2 -25.5t6 -35.5t6 -41.5q8 -63 -18.5 -92.5t-65.5 -26.5t-73 9q12 14 13 30.5t-3 29t-12.5 31.5 t-10.5 30q-14 66 41.5 104.5t153.5 38.5q123 0 181 -46t58 -153q0 -72 -32.5 -124t-98.5 -52q-23 0 -61.5 6.5t-56.5 3.5q-45 -2 -60.5 -92t10 -180t80.5 -92q37 -2 54.5 22.5t17.5 65.5q0 29 -10 72t-10 57q0 61 58 72.5t116 -2.5q-37 -41 -19 -144q14 -76 -36 -121 t-154 -45z" glyph-name="uni00B2" horiz-adv-x="577" unicode="²"/><glyph d="M285 702q-20 0 -69.5 12.5t-80.5 16.5t-74 -12q-10 57 -10 88q0 57 24.5 80.5t71.5 17.5q14 -80 54.5 -125t66.5 -45q82 0 82 203q0 61 -39 96t-88 37l-2 33q2 0 30 8t39 16.5t30.5 24.5t28.5 47t9 72q0 88 -18 125t-61 37q-20 0 -27.5 -32t-23 -77t-48.5 -68 q-39 -25 -102 -20q47 88 33 201q27 2 51 7t47.5 8t62.5 3q109 0 154 -40t45 -144q0 -45 -7 -78t-27.5 -52.5t-30 -27.5t-43 -20.5t-35.5 -14.5q12 -4 38.5 -10t37 -10t29 -15.5t24.5 -25.5t12 -42t6 -67q0 -113 -47 -160t-143 -47z" glyph-name="uni00B3" horiz-adv-x="536" unicode="³"/><glyph d="M442 -184h-41v1013q-176 0 -268 90.5t-92 217.5q0 123 98.5 213t274.5 90h217v-1624h-39v1585h-150v-1585z" glyph-name="paragraph" horiz-adv-x="671" unicode="¶"/><glyph d="M186 440q-61 0 -103 41t-42 103q0 63 42 106t103 43q63 0 105.5 -42t42.5 -107q0 -61 -42.5 -102.5t-105.5 -41.5z" glyph-name="periodcentered" horiz-adv-x="374" unicode="·"/><glyph d="M283 717h-199q70 150 70 401q0 78 -36 120t-77 42v41q43 12 73.5 29.5t47 33t53.5 52.5h39q-37 -82 -40 -167t14.5 -153.5t36 -181.5t18.5 -217z" glyph-name="uni00B9" horiz-adv-x="358" unicode="¹"/><glyph d="M281 766q-127 0 -184.5 49t-57.5 123q0 37 14.5 109.5t14.5 105.5q0 43 -9.5 86t-9.5 78q0 78 66.5 118t175.5 40q94 0 153.5 -35t59.5 -101q0 -43 -19.5 -86t-19.5 -73q0 -37 29.5 -103.5t29.5 -109.5q0 -98 -64 -149.5t-179 -51.5zM283 791q49 0 77.5 23.5t28.5 64.5 q0 33 -21.5 129t-21.5 149q0 39 12.5 119t12.5 102q0 37 -22.5 57.5t-57.5 20.5q-92 0 -92 -98q0 -10 5 -96t-1 -105q-4 -33 -19.5 -132t-15.5 -132q0 -102 115 -102z" glyph-name="ordmasculine" horiz-adv-x="743" unicode="º"/><glyph d="M41 160v145q0 66 67.5 108t165 58t194.5 28.5t164.5 35t67.5 61.5q0 37 -49 62.5t-122.5 37t-158.5 28.5t-158 37.5t-122 63.5t-49 105v141q70 -51 171 -91t184 -64.5t159 -60.5t119 -99.5t43 -159.5q0 -98 -43 -156.5t-119 -85t-159 -45t-183 -55.5t-172 -94zM799 160 v145q0 66 67.5 108t164.5 58t194.5 28.5t165 35t67.5 61.5q0 37 -49 62.5t-123 37t-159 28.5t-157.5 37.5t-121.5 63.5t-49 105v141q70 -51 171 -91t184 -64.5t159 -60.5t119 -99.5t43 -159.5q0 -98 -43 -156.5t-119 -85t-159 -45t-183 -55.5t-172 -94z" glyph-name="guillemotright" horiz-adv-x="1515" unicode="»"/><glyph d="M102 0h-41l848 1438h41zM283 717h-199q70 150 70 401q0 78 -36 120t-77 42v41q43 12 73.5 29.5t47 33t53.5 52.5h39q-37 -82 -40 -167t14.5 -153.5t36 -181.5t18.5 -217zM858 -4q-20 0 -69.5 13.5t-80 17.5t-73.5 -13q-10 57 -10 88q0 57 24.5 81t71.5 18q14 -80 54 -125 t67 -45q82 0 82 202q0 61 -39 96.5t-88 37.5l-2 32q2 0 29.5 8.5t38.5 16.5t30.5 24.5t29 47t9.5 71.5q0 88 -18.5 125t-59.5 37q-20 0 -28.5 -31.5t-24 -77t-47.5 -67.5q-39 -25 -103 -21q47 88 33 201q27 2 51.5 7t48 8.5t62.5 3.5q109 0 153.5 -40t44.5 -145 q0 -45 -7 -77.5t-27.5 -52t-29.5 -28t-43 -20.5t-36 -14q12 -4 39 -10.5t37 -10.5t28.5 -15t24.5 -25.5t12.5 -42t6.5 -66.5q0 -113 -47.5 -161t-143.5 -48z" glyph-name="onequarter" horiz-adv-x="1110" unicode="¼"/><glyph d="M98 0h-41l848 1438h41zM283 717h-199q70 150 70 401q0 78 -36 120t-77 42v41q43 12 73.5 29.5t47 33t53.5 52.5h39q-37 -82 -40 -167t14.5 -153.5t36 -181.5t18.5 -217zM829 -16q-39 0 -110.5 9t-134.5 9q29 94 37 210t17 167t50 51q33 0 76 -12t55 -15q37 -6 56.5 35 t19.5 103q0 180 -86 180q-20 0 -31.5 -4t-17.5 -10.5t-6 -20.5t2 -25.5t6 -36t6 -40.5q8 -63 -18.5 -93t-65.5 -27t-74 9q12 14 13.5 30.5t-3 29t-12.5 32t-10 29.5q-14 66 41 104.5t154 38.5q123 0 181 -46t58 -152q0 -72 -32.5 -124.5t-98.5 -52.5q-23 0 -61.5 6.5 t-57.5 4.5q-45 -2 -60 -92.5t10.5 -180.5t80.5 -92q37 -2 54.5 22.5t17.5 65.5q0 29 -10.5 72t-10.5 57q0 61 58.5 72.5t115.5 -2.5q-37 -41 -18 -143q14 -76 -36.5 -122t-154.5 -46z" glyph-name="onehalf" horiz-adv-x="1120" unicode="½"/><glyph d="M285 754q-20 0 -69.5 12t-80.5 16t-74 -12q-10 57 -10 88q0 57 24.5 81t71.5 17q14 -80 54.5 -125t66.5 -45q82 0 82 203q0 61 -39 96t-88 37l-2 33q2 0 30 8t39 16.5t30.5 25t28.5 47t9 71.5q0 88 -18 125t-61 37q-20 0 -27.5 -32t-23 -77t-48.5 -67q-39 -25 -102 -21 q47 88 33 201q27 2 51 7t47.5 8t62.5 3q109 0 154 -40t45 -144q0 -45 -7 -78t-27.5 -52t-30 -27.5t-43 -20.5t-35.5 -15q12 -4 38.5 -10t37 -10t29 -15.5t24.5 -25.5t12 -42t6 -66q0 -113 -47 -160t-143 -47zM178 0h-41l848 1438h41zM1051 0h-199q47 102 68 223h-261 q72 82 140.5 236.5t87.5 259.5h145q-27 -78 -35 -158t-0.5 -146.5t25.5 -162.5q84 20 115 110l22 -139h-129q21 -131 21 -223zM893 248h31q8 51 8 119q0 43 10 213q-12 -27 -84 -248q-18 -53 -12 -68.5t47 -15.5z" glyph-name="threequarters" horiz-adv-x="1255" unicode="¾"/><glyph d="M631 1473q61 0 103 -41t42 -103q0 -63 -42 -106t-103 -43q-63 0 -105.5 42t-42.5 107q0 61 42.5 102.5t105.5 41.5zM606 993h68v-219q0 -72 -22.5 -123t-57.5 -79.5t-75 -67.5t-74.5 -80t-57 -121t-22.5 -188q0 -115 27.5 -175.5t68.5 -60.5q49 0 89 84t40 215 q10 53 47 85t80 32q51 0 88 -45t37 -131q0 -123 -101.5 -204t-263.5 -81q-178 0 -264 90t-86 338q0 70 36 133.5t89 108.5t114.5 92t115 83t89 78t35.5 83v153z" glyph-name="questiondown" horiz-adv-x="954" unicode="¿"/><glyph d="M752 1540l-19 -10q-16 74 -79.5 123t-135.5 72.5t-157 72.5t-132 117l164 133q10 -43 53 -88t94.5 -84t100.5 -85t81 -110.5t30 -140.5zM348 0h-307q-8 66 -8 131q0 111 35.5 220.5t78.5 185t79 178t36 201t-59.5 234.5t-59.5 292q57 -16 113 -17q53 0 166 26t174 26 q68 0 133.5 -21.5t123.5 -67t88 -129t15 -196.5q-10 -80 -24 -187.5t-22.5 -167t-14.5 -137t-6 -151.5q0 -178 84 -420h-307q-55 221 -48 385q12 133 -2 188q-18 61 -110 62q-94 0 -129 -98q-76 -205 -76 -320q0 -108 47 -217zM537 684q47 0 82.5 33t46.5 82q57 252 57 434 q0 88 -48 141t-116 56q-63 2 -108 -32t-45 -100q0 -59 30.5 -153t30.5 -168q0 -94 -25 -211q-8 -47 15 -64.5t80 -17.5z" glyph-name="Agrave" horiz-adv-x="1005" unicode="À"/><glyph d="M385 1530l-18 10q-2 76 29.5 140.5t80.5 110.5t100.5 85t94.5 84t53 88l164 -133q-47 -68 -132 -117t-157 -72.5t-135.5 -72.5t-79.5 -123zM348 0h-307q-8 66 -8 131q0 111 35.5 220.5t78.5 185t79 178t36 201t-59.5 234.5t-59.5 292q57 -16 113 -17q53 0 166 26t174 26 q68 0 133.5 -21.5t123.5 -67t88 -129t15 -196.5q-10 -80 -24 -187.5t-22.5 -167t-14.5 -137t-6 -151.5q0 -178 84 -420h-307q-55 221 -48 385q12 133 -2 188q-18 61 -110 62q-94 0 -129 -98q-76 -205 -76 -320q0 -108 47 -217zM537 684q47 0 82.5 33t46.5 82q57 252 57 434 q0 88 -48 141t-116 56q-63 2 -108 -32t-45 -100q0 -59 30.5 -153t30.5 -168q0 -94 -25 -211q-8 -47 15 -64.5t80 -17.5z" glyph-name="Aacute" horiz-adv-x="1005" unicode="Á"/><glyph d="M379 1593l-193 103q55 78 129 128t126.5 93t78.5 125h17q29 -78 81 -121t128.5 -94t138.5 -127l-197 -101q6 74 -66.5 189t-91.5 184q-23 -74 -87 -188.5t-64 -190.5zM348 0h-307q-8 66 -8 131q0 111 35.5 220.5t78.5 185t79 178t36 201t-59.5 234.5t-59.5 292 q57 -16 113 -17q53 0 166 26t174 26q68 0 133.5 -21.5t123.5 -67t88 -129t15 -196.5q-10 -80 -24 -187.5t-22.5 -167t-14.5 -137t-6 -151.5q0 -178 84 -420h-307q-55 221 -48 385q12 133 -2 188q-18 61 -110 62q-94 0 -129 -98q-76 -205 -76 -320q0 -108 47 -217zM537 684 q47 0 82.5 33t46.5 82q57 252 57 434q0 88 -48 141t-116 56q-63 2 -108 -32t-45 -100q0 -59 30.5 -153t30.5 -168q0 -94 -25 -211q-8 -47 15 -64.5t80 -17.5z" glyph-name="Acircumflex" horiz-adv-x="1005" unicode="Â"/><glyph d="M702 1679q-53 0 -165.5 73t-182.5 77q-45 2 -70.5 -23.5t-23.5 -70.5h-35q-4 100 43 160.5t138 54.5q61 -4 174.5 -68.5t148.5 -71.5q37 -6 55.5 19.5t18.5 50.5h31q-1 -201 -132 -201zM348 0h-307q-8 66 -8 131q0 111 35.5 220.5t78.5 185t79 178t36 201t-59.5 234.5 t-59.5 292q57 -16 113 -17q53 0 166 26t174 26q68 0 133.5 -21.5t123.5 -67t88 -129t15 -196.5q-10 -80 -24 -187.5t-22.5 -167t-14.5 -137t-6 -151.5q0 -178 84 -420h-307q-55 221 -48 385q12 133 -2 188q-18 61 -110 62q-94 0 -129 -98q-76 -205 -76 -320q0 -108 47 -217z M537 684q47 0 82.5 33t46.5 82q57 252 57 434q0 88 -48 141t-116 56q-63 2 -108 -32t-45 -100q0 -59 30.5 -153t30.5 -168q0 -94 -25 -211q-8 -47 15 -64.5t80 -17.5z" glyph-name="Atilde" horiz-adv-x="1005" unicode="Ã"/><glyph d="M371 1597q-57 0 -96 37t-39 92q0 59 38.5 97.5t96.5 38.5q55 0 91 -38t36 -98q0 -55 -37 -92t-90 -37zM696 1597q-55 0 -95 37t-40 92q0 59 39 97.5t96 38.5q55 0 91 -38t36 -98q0 -55 -37 -92t-90 -37zM348 0h-307q-8 66 -8 131q0 111 35.5 220.5t78.5 185t79 178 t36 201t-59.5 234.5t-59.5 292q57 -16 113 -17q53 0 166 26t174 26q68 0 133.5 -21.5t123.5 -67t88 -129t15 -196.5q-10 -80 -24 -187.5t-22.5 -167t-14.5 -137t-6 -151.5q0 -178 84 -420h-307q-55 221 -48 385q12 133 -2 188q-18 61 -110 62q-94 0 -129 -98 q-76 -205 -76 -320q0 -108 47 -217zM537 684q47 0 82.5 33t46.5 82q57 252 57 434q0 88 -48 141t-116 56q-63 2 -108 -32t-45 -100q0 -59 30.5 -153t30.5 -168q0 -94 -25 -211q-8 -47 15 -64.5t80 -17.5z" glyph-name="Adieresis" horiz-adv-x="1005" unicode="Ä"/><glyph d="M530.5 1610q-110.5 0 -144.5 16t-34 53q0 14 7.5 49t7.5 57.5t-7.5 57.5t-7.5 49q0 37 34 53.5t144.5 16.5t144.5 -16.5t34 -53.5q0 -14 -7.5 -49t-7.5 -57.5t7.5 -57t7.5 -49.5q0 -37 -34 -53t-144.5 -16zM530.5 1624q34.5 0 47 38t12.5 124q0 84 -12.5 121t-45.5 37 q-61 0 -61 -158q0 -86 12.5 -124t47 -38zM348 0h-307q-8 66 -8 131q0 111 35.5 220.5t78.5 185t79 178t36 201t-59.5 234.5t-59.5 292q57 -16 113 -17q53 0 166 26t174 26q68 0 133.5 -21.5t123.5 -67t88 -129t15 -196.5q-10 -80 -24 -187.5t-22.5 -167t-14.5 -137 t-6 -151.5q0 -178 84 -420h-307q-55 221 -48 385q12 133 -2 188q-18 61 -110 62q-94 0 -129 -98q-76 -205 -76 -320q0 -108 47 -217zM537 684q47 0 82.5 33t46.5 82q57 252 57 434q0 88 -48 141t-116 56q-63 2 -108 -32t-45 -100q0 -59 30.5 -153t30.5 -168q0 -94 -25 -211 q-8 -47 15 -64.5t80 -17.5z" glyph-name="Aring" horiz-adv-x="1005" unicode="Å"/><glyph d="M1169 -14q-410 0 -436 295q-10 86 30 215t40 135h-371q-6 -20 -28.5 -81t-30.5 -88.5t-22.5 -75.5t-19.5 -88t-5 -81q0 -109 47 -217h-332q-8 66 -8 131q0 111 35.5 220.5t78.5 185t79 178t36 201t-59.5 234.5t-59.5 292q86 -16 129 -17q51 0 132 26t184 26 q166 0 250 -115q125 111 366 111q201 0 285 -51.5t84 -155.5q0 -25 -11.5 -77t-11.5 -79q0 -41 14.5 -62.5t45.5 -13.5q-12 -80 -58.5 -121t-107.5 -41q-70 0 -111 51.5t-41 129.5q0 68 22.5 161t22.5 99q12 61 -4 93t-82 32q-119 0 -168 -162q-45 -156 -45 -516h328v-29 h-328q0 -100 2 -167.5t7.5 -159t19.5 -151.5t35.5 -117.5t57.5 -85t83 -27.5q98 0 98 61q0 27 -27.5 113t-33.5 143q-25 117 23.5 190.5t136.5 73.5q63 0 110 -41t60 -121q-45 12 -56.5 -42t7.5 -113q6 -43 11 -86t-17.5 -82t-62.5 -69t-123 -47t-200 -17zM442 659h365 q20 98 -12.5 248t-32.5 217q0 154 -48 228.5t-130 74.5q-59 0 -98.5 -34.5t-39.5 -102.5q0 -61 28 -151t28 -158q-1 -144 -60 -322z" glyph-name="AE" horiz-adv-x="1650" unicode="Æ"/><glyph d="M737 543q86 0 185 -74q-29 -20 -43.5 -68.5t-17.5 -102.5t-21.5 -114.5t-49 -108.5t-106.5 -80t-190 -32h-37l-37 -59q59 10 123 10q84 0 131 -33t47 -80q0 -57 -74 -95t-168 -67.5t-121 -62.5l-53 96q37 27 100.5 56.5t96.5 52t33 51.5q0 39 -209 27l86 108 q-397 51 -381 588q4 172 18 301t49 251t90.5 197.5t144.5 122t210 46.5q139 0 219 -63.5t80 -182.5q0 -31 -1 -99.5t-1 -83.5q0 -61 8 -87.5t35 -38.5q-47 -78 -135 -78q-61 0 -106.5 42t-45.5 115q0 57 22.5 186.5t22.5 159.5q0 49 -31.5 72t-68.5 23q-94 0 -172 -280.5 t-78 -536.5q0 -274 58.5 -447.5t158.5 -173.5q35 0 59.5 13.5t36.5 28.5t17.5 52t6.5 58.5t1 70.5q0 20 -3 85t-1 95q3 140 112 140z" glyph-name="Ccedilla" horiz-adv-x="952" unicode="Ç"/><glyph d="M670 1544l-19 -10q-16 74 -79.5 123t-135 72.5t-156.5 72.5t-133 117l164 133q10 -43 53.5 -88t94.5 -84t100 -85t81 -110.5t30 -140.5zM463 -35q-51 0 -97.5 5t-108.5 24.5t-107.5 54.5t-77 100.5t-31.5 153.5q0 80 45 208t45 218q0 94 -45 221t-45 205q0 315 401 315 q238 0 322 -50t84 -154q0 -25 -11.5 -77t-11.5 -79q0 -41 14.5 -62.5t45.5 -13.5q-12 -59 -55.5 -91t-96.5 -32q-57 0 -99 39t-42 103q0 76 23.5 166t23.5 137q0 82 -115 82q-141 0 -188 -197q-23 -98 -23 -287q0 -86 34 -141t93 -49q29 4 91.5 33.5t99.5 29.5 q43 0 73.5 -25.5t30.5 -62.5q0 -25 -15 -45t-38 -24q-51 66 -164 61q-88 -4 -146.5 -63.5t-64.5 -167.5q-10 -137 20.5 -265.5t86.5 -168.5q61 -61 137 -29q49 20 58 69.5t-12.5 150.5t-23.5 124q-6 88 30 153.5t110 69.5q59 4 104 -32.5t60 -106.5q-31 4 -46.5 -25.5 t-13.5 -70.5t6 -82q2 -37 6.5 -80t-16 -86t-56.5 -78t-112 -56.5t-182 -21.5z" glyph-name="Egrave" horiz-adv-x="925" unicode="È"/><glyph d="M303 1534l-18 10q-2 76 29.5 140.5t80.5 110.5t100.5 85t94.5 84t53 88l164 -133q-47 -68 -132 -117t-157 -72.5t-135.5 -72.5t-79.5 -123zM463 -35q-51 0 -97.5 5t-108.5 24.5t-107.5 54.5t-77 100.5t-31.5 153.5q0 80 45 208t45 218q0 94 -45 221t-45 205 q0 315 401 315q238 0 322 -50t84 -154q0 -25 -11.5 -77t-11.5 -79q0 -41 14.5 -62.5t45.5 -13.5q-12 -59 -55.5 -91t-96.5 -32q-57 0 -99 39t-42 103q0 76 23.5 166t23.5 137q0 82 -115 82q-141 0 -188 -197q-23 -98 -23 -287q0 -86 34 -141t93 -49q29 4 91.5 33.5 t99.5 29.5q43 0 73.5 -25.5t30.5 -62.5q0 -25 -15 -45t-38 -24q-51 66 -164 61q-88 -4 -146.5 -63.5t-64.5 -167.5q-10 -137 20.5 -265.5t86.5 -168.5q61 -61 137 -29q49 20 58 69.5t-12.5 150.5t-23.5 124q-6 88 30 153.5t110 69.5q59 4 104 -32.5t60 -106.5 q-31 4 -46.5 -25.5t-13.5 -70.5t6 -82q2 -37 6.5 -80t-16 -86t-56.5 -78t-112 -56.5t-182 -21.5z" glyph-name="Eacute" horiz-adv-x="925" unicode="É"/><glyph d="M297 1597l-193 103q55 78 129 128t126.5 93t78.5 125h17q29 -78 81 -121t128.5 -94t138.5 -127l-197 -100q6 74 -66.5 188.5t-90.5 183.5q-23 -74 -87.5 -188.5t-64.5 -190.5zM463 -35q-51 0 -97.5 5t-108.5 24.5t-107.5 54.5t-77 100.5t-31.5 153.5q0 80 45 208t45 218 q0 94 -45 221t-45 205q0 315 401 315q238 0 322 -50t84 -154q0 -25 -11.5 -77t-11.5 -79q0 -41 14.5 -62.5t45.5 -13.5q-12 -59 -55.5 -91t-96.5 -32q-57 0 -99 39t-42 103q0 76 23.5 166t23.5 137q0 82 -115 82q-141 0 -188 -197q-23 -98 -23 -287q0 -86 34 -141t93 -49 q29 4 91.5 33.5t99.5 29.5q43 0 73.5 -25.5t30.5 -62.5q0 -25 -15 -45t-38 -24q-51 66 -164 61q-88 -4 -146.5 -63.5t-64.5 -167.5q-10 -137 20.5 -265.5t86.5 -168.5q61 -61 137 -29q49 20 58 69.5t-12.5 150.5t-23.5 124q-6 88 30 153.5t110 69.5q59 4 104 -32.5 t60 -106.5q-31 4 -46.5 -25.5t-13.5 -70.5t6 -82q2 -37 6.5 -80t-16 -86t-56.5 -78t-112 -56.5t-182 -21.5z" glyph-name="Ecircumflex" horiz-adv-x="925" unicode="Ê"/><glyph d="M291 1602q-57 0 -96 36.5t-39 92.5q0 59 38.5 97t96.5 38q55 0 91 -38t36 -97q0 -55 -37 -92t-90 -37zM616 1602q-55 0 -95 36.5t-40 92.5q0 59 39 97t96 38q55 0 91 -38t36 -97q0 -55 -37 -92t-90 -37zM463 -35q-51 0 -97.5 5t-108.5 24.5t-107.5 54.5t-77 100.5 t-31.5 153.5q0 80 45 208t45 218q0 94 -45 221t-45 205q0 315 401 315q238 0 322 -50t84 -154q0 -25 -11.5 -77t-11.5 -79q0 -41 14.5 -62.5t45.5 -13.5q-12 -59 -55.5 -91t-96.5 -32q-57 0 -99 39t-42 103q0 76 23.5 166t23.5 137q0 82 -115 82q-141 0 -188 -197 q-23 -98 -23 -287q0 -86 34 -141t93 -49q29 4 91.5 33.5t99.5 29.5q43 0 73.5 -25.5t30.5 -62.5q0 -25 -15 -45t-38 -24q-51 66 -164 61q-88 -4 -146.5 -63.5t-64.5 -167.5q-10 -137 20.5 -265.5t86.5 -168.5q61 -61 137 -29q49 20 58 69.5t-12.5 150.5t-23.5 124 q-6 88 30 153.5t110 69.5q59 4 104 -32.5t60 -106.5q-31 4 -46.5 -25.5t-13.5 -70.5t6 -82q2 -37 6.5 -80t-16 -86t-56.5 -78t-112 -56.5t-182 -21.5z" glyph-name="Edieresis" horiz-adv-x="925" unicode="Ë"/><glyph d="M459 1544l-19 -10q-16 74 -79.5 123t-135 72.5t-156.5 72.5t-132 117l163 133q10 -43 53.5 -88t94.5 -84t100 -85t81 -110.5t30 -140.5zM428 0h-373q-4 41 -4 57q0 90 104.5 292t104.5 300q0 86 -57 158q-72 88 -111 170t-46 166t-2 140t24 155h356q-145 -236 -145 -420 q0 -123 67 -211q66 -88 66 -305q0 -49 -7.5 -169t-3.5 -198t27 -135z" glyph-name="Igrave" horiz-adv-x="471" unicode="Ì"/><glyph d="M92 1534l-18 10q-2 76 29.5 140.5t80.5 110.5t100.5 85t94.5 84t53 88l164 -133q-47 -68 -132 -117t-156.5 -72.5t-135.5 -72.5t-80 -123zM428 0h-373q-4 41 -4 57q0 90 104.5 292t104.5 300q0 86 -57 158q-72 88 -111 170t-46 166t-2 140t24 155h356 q-145 -236 -145 -420q0 -123 67 -211q66 -88 66 -305q0 -49 -7.5 -169t-3.5 -198t27 -135z" glyph-name="Iacute" horiz-adv-x="471" unicode="Í"/><glyph d="M86 1597l-192 103q55 78 128.5 128t126 93t78.5 125h17q29 -78 81 -121t128.5 -94t138.5 -127l-197 -100q6 74 -66.5 188.5t-90.5 183.5q-23 -74 -87.5 -188.5t-64.5 -190.5zM428 0h-373q-4 41 -4 57q0 90 104.5 292t104.5 300q0 86 -57 158q-72 88 -111 170t-46 166 t-2 140t24 155h356q-145 -236 -145 -420q0 -123 67 -211q66 -88 66 -305q0 -49 -7.5 -169t-3.5 -198t27 -135z" glyph-name="Icircumflex" horiz-adv-x="471" unicode="Î"/><glyph d="M78 1602q-57 0 -96 36.5t-39 92.5q0 59 38.5 97t96.5 38q55 0 91 -38t36 -97q0 -55 -37 -92t-90 -37zM403 1602q-55 0 -95 36.5t-40 92.5q0 59 39 97t96 38q55 0 91 -38t36 -97q0 -55 -37 -92t-90 -37zM428 0h-373q-4 41 -4 57q0 90 104.5 292t104.5 300q0 86 -57 158 q-72 88 -111 170t-46 166t-2 140t24 155h356q-145 -236 -145 -420q0 -123 67 -211q66 -88 66 -305q0 -49 -7.5 -169t-3.5 -198t27 -135z" glyph-name="Idieresis" horiz-adv-x="471" unicode="Ï"/><glyph d="M999 756q0 -51 30 -169t30 -239q0 -348 -610 -348h-347q-43 190 9 346q16 45 49 108.5t54.5 119t25.5 114.5h-144v41h144q-4 41 -13 82q-31 131 -72.5 236.5t-59 179t-17.5 211.5h432q92 0 173 -11.5t168 -41t138 -92t51 -154.5t-20.5 -210t-20.5 -173zM434 43 q111 0 240 87t129 214q0 82 -23.5 230.5t-27.5 189.5q-10 66 -12.5 127t1.5 153.5t4 149.5q0 88 -65.5 143.5t-161.5 55.5q-63 0 -107 -33t-57 -86q-10 -12 -7 -81t8 -106.5t17.5 -149.5t22.5 -208h156v-41h-152q0 -6 1 -17.5t1 -17.5q10 -117 -15.5 -284.5t-22.5 -246.5 t71 -79z" glyph-name="Eth" horiz-adv-x="1099" unicode="Ð"/><glyph d="M707 1683q-53 0 -166 73t-183 77q-45 2 -70.5 -23.5t-23.5 -70.5h-35q-4 100 43 160.5t138 54.5q61 -4 174.5 -68.5t148.5 -70.5q37 -6 55.5 19.5t18.5 49.5h31q0 -201 -131 -201zM406 0h-336q-12 164 5 334t54 359.5t45 246.5q18 135 -15.5 258t-125.5 148 q41 127 151 127q76 0 133.5 -72t53.5 -191q76 121 183.5 180.5t221.5 59.5q106 0 163.5 -53.5t57.5 -155.5q0 -74 -27.5 -144.5t-58 -119.5t-50 -130t-5.5 -175q12 -88 49 -162t65.5 -115t46 -144.5t-6.5 -250.5h-330q25 258 19.5 379t-42.5 299q-23 162 -6 257t47.5 207.5 t30.5 160.5q0 53 -47 62t-117 -30q-80 -29 -160.5 -207t-80.5 -364q0 -94 28.5 -213t49 -255t4.5 -296z" glyph-name="Ntilde" horiz-adv-x="1064" unicode="Ñ"/><glyph d="M752 1544l-19 -10q-16 74 -79.5 123t-135.5 72.5t-157 72.5t-132 117l164 133q10 -43 53 -88t94.5 -84t100.5 -85t81 -110.5t30 -140.5zM502 -18q-444 0 -445 389q0 72 25 157q23 78 22 160q0 47 -11 148.5t-11 164.5q0 250 107.5 351.5t322.5 101.5q473 0 473 -324 q0 -78 -56.5 -186t-56.5 -162q0 -39 33 -98t66 -142t33 -177q0 -98 -32 -171t-79 -113t-119 -63.5t-133 -29.5t-139 -6zM516 20q141 0 188.5 66t47.5 219q0 84 -41 198.5t-41 207.5q0 127 34.5 249.5t34.5 223.5q0 121 -49 176t-172 55t-170 -58.5t-47 -185.5q0 -61 33 -198 t33 -262q0 -86 -33 -212t-33 -241q0 -238 215 -238z" glyph-name="Ograve" horiz-adv-x="1060" unicode="Ò"/><glyph d="M385 1534l-18 10q-2 76 29.5 140.5t80.5 110.5t100.5 85t94.5 84t53 88l164 -133q-47 -68 -132 -117t-157 -72.5t-135.5 -72.5t-79.5 -123zM502 -18q-444 0 -445 389q0 72 25 157q23 78 22 160q0 47 -11 148.5t-11 164.5q0 250 107.5 351.5t322.5 101.5q473 0 473 -324 q0 -78 -56.5 -186t-56.5 -162q0 -39 33 -98t66 -142t33 -177q0 -98 -32 -171t-79 -113t-119 -63.5t-133 -29.5t-139 -6zM516 20q141 0 188.5 66t47.5 219q0 84 -41 198.5t-41 207.5q0 127 34.5 249.5t34.5 223.5q0 121 -49 176t-172 55t-170 -58.5t-47 -185.5q0 -61 33 -198 t33 -262q0 -86 -33 -212t-33 -241q0 -238 215 -238z" glyph-name="Oacute" horiz-adv-x="1060" unicode="Ó"/><glyph d="M379 1597l-193 103q55 78 129 128t126.5 93t78.5 125h17q29 -78 81 -121t128.5 -94t138.5 -127l-197 -100q6 74 -66.5 188.5t-91.5 183.5q-23 -74 -87 -188.5t-64 -190.5zM502 -18q-444 0 -445 389q0 72 25 157q23 78 22 160q0 47 -11 148.5t-11 164.5q0 250 107.5 351.5 t322.5 101.5q473 0 473 -324q0 -78 -56.5 -186t-56.5 -162q0 -39 33 -98t66 -142t33 -177q0 -98 -32 -171t-79 -113t-119 -63.5t-133 -29.5t-139 -6zM516 20q141 0 188.5 66t47.5 219q0 84 -41 198.5t-41 207.5q0 127 34.5 249.5t34.5 223.5q0 121 -49 176t-172 55 t-170 -58.5t-47 -185.5q0 -61 33 -198t33 -262q0 -86 -33 -212t-33 -241q0 -238 215 -238z" glyph-name="Ocircumflex" horiz-adv-x="1060" unicode="Ô"/><glyph d="M702 1683q-53 0 -165.5 73t-182.5 77q-45 2 -70.5 -23.5t-23.5 -70.5h-35q-4 100 43 160.5t138 54.5q61 -4 174.5 -68.5t148.5 -70.5q37 -6 55.5 19.5t18.5 49.5h31q-1 -201 -132 -201zM502 -18q-444 0 -445 389q0 72 25 157q23 78 22 160q0 47 -11 148.5t-11 164.5 q0 250 107.5 351.5t322.5 101.5q473 0 473 -324q0 -78 -56.5 -186t-56.5 -162q0 -39 33 -98t66 -142t33 -177q0 -98 -32 -171t-79 -113t-119 -63.5t-133 -29.5t-139 -6zM516 20q141 0 188.5 66t47.5 219q0 84 -41 198.5t-41 207.5q0 127 34.5 249.5t34.5 223.5 q0 121 -49 176t-172 55t-170 -58.5t-47 -185.5q0 -61 33 -198t33 -262q0 -86 -33 -212t-33 -241q0 -238 215 -238z" glyph-name="Otilde" horiz-adv-x="1060" unicode="Õ"/><glyph d="M373 1602q-57 0 -96 36.5t-39 92.5q0 59 38.5 97t96.5 38q55 0 91 -38t36 -97q0 -55 -37 -92t-90 -37zM698 1602q-55 0 -95 36.5t-40 92.5q0 59 39 97t96 38q55 0 91 -38t36 -97q0 -55 -37 -92t-90 -37zM502 -18q-444 0 -445 389q0 72 25 157q23 78 22 160 q0 47 -11 148.5t-11 164.5q0 250 107.5 351.5t322.5 101.5q473 0 473 -324q0 -78 -56.5 -186t-56.5 -162q0 -39 33 -98t66 -142t33 -177q0 -98 -32 -171t-79 -113t-119 -63.5t-133 -29.5t-139 -6zM516 20q141 0 188.5 66t47.5 219q0 84 -41 198.5t-41 207.5 q0 127 34.5 249.5t34.5 223.5q0 121 -49 176t-172 55t-170 -58.5t-47 -185.5q0 -61 33 -198t33 -262q0 -86 -33 -212t-33 -241q0 -238 215 -238z" glyph-name="Odieresis" horiz-adv-x="1060" unicode="Ö"/><glyph d="M358 580l252 -254l-28 -29l-252 252l-252 -252l-29 29l252 252l-250 251l29 29l250 -252l252 252l26 -29z" glyph-name="multiply" horiz-adv-x="659" unicode="×"/><glyph d="M872 782q0 -39 33 -98t66 -142t33 -177q0 -98 -32 -171t-79 -113t-119 -63.5t-133 -29.5t-139 -6q-133 0 -230 36l-36 -88h-60l47 113q-166 96 -166 328q0 72 25 157q23 78 22 160q0 47 -11 148.5t-11 164.5q0 250 107.5 351.5t322.5 101.5q172 0 279 -41l36 92h60 l-47 -114q145 -76 145 -261q0 -78 -56.5 -186.5t-56.5 -161.5zM301 258v-25l430 1041q-16 72 -65.5 106.5t-147.5 34.5q-123 0 -170 -58.5t-47 -185.5q0 -61 33 -198t33 -262q0 -86 -33 -212t-33 -241zM516 20q141 0 188.5 66t47.5 219q0 84 -41 198.5t-41 207.5 q0 125 32.5 242.5t36.5 193.5l-420 -1012q45 -115 197 -115z" glyph-name="Oslash" horiz-adv-x="1060" unicode="Ø"/><glyph d="M784 1544l-18 -10q-16 74 -79.5 123t-135.5 72.5t-157 72.5t-132 117l164 133q10 -43 53 -88t94.5 -84t100.5 -85t80.5 -110.5t29.5 -140.5zM547 -35q-188 0 -317.5 102.5t-129.5 311.5q0 137 76 311q51 117 51 213q0 102 -80.5 257t-80.5 278h294q63 -143 64 -365 q0 -162 -34 -438.5t-34 -347.5q0 -125 48.5 -201t142.5 -76q109 0 169 86t60 236q0 59 -32.5 296.5t-26.5 403.5q8 270 71 406h295q0 -117 -66.5 -250t-66.5 -227q0 -109 56 -259q49 -127 49 -241q0 -233 -154.5 -364.5t-353.5 -131.5z" glyph-name="Ugrave" horiz-adv-x="1124" unicode="Ù"/><glyph d="M418 1534l-19 10q-2 76 30 140.5t81 110.5t100.5 85t94.5 84t53 88l164 -133q-47 -68 -132 -117t-157 -72.5t-135.5 -72.5t-79.5 -123zM547 -35q-188 0 -317.5 102.5t-129.5 311.5q0 137 76 311q51 117 51 213q0 102 -80.5 257t-80.5 278h294q63 -143 64 -365 q0 -162 -34 -438.5t-34 -347.5q0 -125 48.5 -201t142.5 -76q109 0 169 86t60 236q0 59 -32.5 296.5t-26.5 403.5q8 270 71 406h295q0 -117 -66.5 -250t-66.5 -227q0 -109 56 -259q49 -127 49 -241q0 -233 -154.5 -364.5t-353.5 -131.5z" glyph-name="Uacute" horiz-adv-x="1124" unicode="Ú"/><glyph d="M412 1597l-193 103q55 78 129 128t126 93t79 125h16q29 -78 81 -121t129 -94t139 -127l-197 -100q6 74 -66.5 188.5t-91.5 183.5q-23 -74 -87 -188.5t-64 -190.5zM547 -35q-188 0 -317.5 102.5t-129.5 311.5q0 137 76 311q51 117 51 213q0 102 -80.5 257t-80.5 278h294 q63 -143 64 -365q0 -162 -34 -438.5t-34 -347.5q0 -125 48.5 -201t142.5 -76q109 0 169 86t60 236q0 59 -32.5 296.5t-26.5 403.5q8 270 71 406h295q0 -117 -66.5 -250t-66.5 -227q0 -109 56 -259q49 -127 49 -241q0 -233 -154.5 -364.5t-353.5 -131.5z" glyph-name="Ucircumflex" horiz-adv-x="1124" unicode="Û"/><glyph d="M406 1602q-57 0 -96.5 36.5t-39.5 92.5q0 59 39 97t97 38q55 0 90.5 -38t35.5 -97q0 -55 -36.5 -92t-89.5 -37zM731 1602q-55 0 -95 36.5t-40 92.5q0 59 39 97t96 38q55 0 91 -38t36 -97q0 -55 -37 -92t-90 -37zM547 -35q-188 0 -317.5 102.5t-129.5 311.5q0 137 76 311 q51 117 51 213q0 102 -80.5 257t-80.5 278h294q63 -143 64 -365q0 -162 -34 -438.5t-34 -347.5q0 -125 48.5 -201t142.5 -76q109 0 169 86t60 236q0 59 -32.5 296.5t-26.5 403.5q8 270 71 406h295q0 -117 -66.5 -250t-66.5 -227q0 -109 56 -259q49 -127 49 -241 q0 -233 -154.5 -364.5t-353.5 -131.5z" glyph-name="Udieresis" horiz-adv-x="1124" unicode="Ü"/><glyph d="M311 1534l-18 10q-2 76 29.5 140.5t81 110.5t100.5 85t94 84t53 88l164 -133q-47 -68 -132 -117t-156.5 -72.5t-135.5 -72.5t-80 -123zM602 0h-383q0 113 27.5 211t62.5 152.5t62.5 103.5t27.5 74q0 47 -73 47q-121 0 -164 10q-131 23 -131 197q0 88 33.5 279.5 t35.5 207.5q4 57 -8 84t-55 27q63 76 166 75q70 0 120 -42t50 -115q0 -127 -48.5 -303.5t-48.5 -239.5q0 -33 10.5 -63.5t52.5 -61.5t112 -31q72 0 129 56.5t57 138.5q0 55 -35 228t-35 274q0 70 52.5 112.5t121.5 42.5q84 0 142 -59q-68 -27 -68 -170q0 -55 13.5 -188.5 t13.5 -196.5q0 -121 -62.5 -189.5t-171.5 -72.5q-104 -2 -119 -62q-14 -31 -14 -98.5t53.5 -201.5t73.5 -226z" glyph-name="Yacute" horiz-adv-x="911" unicode="Ý"/><glyph d="M442 0h-313q0 145 57.5 403.5t57.5 350.5q0 74 -44 185.5t-88 242.5t-44 256l280 -2q-2 -41 -20.5 -161t-18.5 -165q0 -57 22.5 -57t56.5 33.5t67.5 73.5t105.5 74t162 34q141 0 206.5 -105.5t65.5 -390.5q0 -131 -14 -223t-53 -172t-115 -121t-190 -41 q-66 0 -121.5 27.5t-84 60.5t-53 60.5t-36.5 27.5q-37 0 0 -94q8 -20 18 -41q84 -162 96 -256zM565 299q125 0 125 319q0 27 -1 72t-1 64q0 57 7 148t7 120q0 137 -100 137q-78 0 -173 -108.5t-93 -239.5q2 -217 68.5 -364.5t160.5 -147.5z" glyph-name="Thorn" horiz-adv-x="1036" unicode="Þ"/><glyph d="M315 0h-274q14 160 87 351.5t73 320.5q0 74 -23.5 214t-23.5 224q0 172 122.5 267.5t305.5 95.5q174 0 253.5 -65t79.5 -222q0 -100 -21.5 -152.5t-82.5 -79.5q-33 -12 -85 -19t-80 -17.5t-28 -34.5q0 -37 41 -58.5t99.5 -39t117 -45t99.5 -95t41 -172.5 q0 -145 -37 -242.5t-105.5 -145.5t-144.5 -66.5t-178 -18.5l-53 154q281 18 280 307q0 88 -23.5 150.5t-57 95t-67.5 56t-57.5 52.5t-23.5 68q0 33 25.5 56.5t56.5 41.5t56.5 81.5t25.5 168.5q0 172 -166 172q-55 0 -107.5 -49t-46.5 -125q29 -250 29 -426 q0 -221 -50.5 -449.5t-56.5 -353.5z" glyph-name="germandbls" horiz-adv-x="1058" unicode="ß"/><glyph d="M791 1290l-19 -10q-16 74 -79.5 123t-135.5 72.5t-157 72.5t-132 117l164 133q10 -43 53 -88t94.5 -84t100.5 -85t81 -110.5t30 -140.5zM324 -35q-127 0 -205 83t-78 204q0 31 6 59.5t14.5 51t25.5 44t30.5 36t41 32t44 27.5t51.5 25.5t52.5 21.5t59.5 22.5t58 22.5 q123 51 190.5 122.5t67.5 184.5q0 70 -33 146.5t-74 93.5q-39 45 -81 26q-35 -12 -39 -53t9 -131t15 -133q6 -100 -56.5 -153.5t-148.5 -53.5q-78 0 -122 47q55 14 55 109q0 27 -8.5 80t-10.5 65q-8 96 96.5 185.5t313.5 89.5q166 0 266.5 -61.5t100.5 -194.5 q0 -115 -86 -191t-238 -141q-10 -4 -51 -21.5t-53.5 -23.5t-47 -23.5t-47 -27t-38 -26.5t-36 -31.5t-23.5 -35t-18 -43t-5 -47.5q0 -55 36.5 -92t90.5 -37q117 0 186 150q23 37 50.5 100.5t45 103t47 70.5t64.5 31q113 0 153.5 -196.5t8.5 -481.5h-396q82 88 160 283.5 t78 306.5q0 35 -23 35q-18 0 -40.5 -49.5t-45 -122t-59.5 -158.5t-81 -159t-115.5 -122t-157.5 -49z" glyph-name="agrave" horiz-adv-x="1069" unicode="à"/><glyph d="M424 1280l-18 10q-2 76 29.5 140.5t80.5 110.5t100.5 85t94.5 84t53 88l164 -133q-47 -68 -132 -117t-157 -72.5t-135.5 -72.5t-79.5 -123zM324 -35q-127 0 -205 83t-78 204q0 31 6 59.5t14.5 51t25.5 44t30.5 36t41 32t44 27.5t51.5 25.5t52.5 21.5t59.5 22.5t58 22.5 q123 51 190.5 122.5t67.5 184.5q0 70 -33 146.5t-74 93.5q-39 45 -81 26q-35 -12 -39 -53t9 -131t15 -133q6 -100 -56.5 -153.5t-148.5 -53.5q-78 0 -122 47q55 14 55 109q0 27 -8.5 80t-10.5 65q-8 96 96.5 185.5t313.5 89.5q166 0 266.5 -61.5t100.5 -194.5 q0 -115 -86 -191t-238 -141q-10 -4 -51 -21.5t-53.5 -23.5t-47 -23.5t-47 -27t-38 -26.5t-36 -31.5t-23.5 -35t-18 -43t-5 -47.5q0 -55 36.5 -92t90.5 -37q117 0 186 150q23 37 50.5 100.5t45 103t47 70.5t64.5 31q113 0 153.5 -196.5t8.5 -481.5h-396q82 88 160 283.5 t78 306.5q0 35 -23 35q-18 0 -40.5 -49.5t-45 -122t-59.5 -158.5t-81 -159t-115.5 -122t-157.5 -49z" glyph-name="aacute" horiz-adv-x="1069" unicode="á"/><glyph d="M418 1343l-193 103q55 78 129 128t126 93t79 125h16q29 -78 81.5 -121t129 -94t138.5 -127l-197 -100q6 74 -66.5 188.5t-91.5 183.5q-23 -74 -87 -188.5t-64 -190.5zM324 -35q-127 0 -205 83t-78 204q0 31 6 59.5t14.5 51t25.5 44t30.5 36t41 32t44 27.5t51.5 25.5 t52.5 21.5t59.5 22.5t58 22.5q123 51 190.5 122.5t67.5 184.5q0 70 -33 146.5t-74 93.5q-39 45 -81 26q-35 -12 -39 -53t9 -131t15 -133q6 -100 -56.5 -153.5t-148.5 -53.5q-78 0 -122 47q55 14 55 109q0 27 -8.5 80t-10.5 65q-8 96 96.5 185.5t313.5 89.5 q166 0 266.5 -61.5t100.5 -194.5q0 -115 -86 -191t-238 -141q-10 -4 -51 -21.5t-53.5 -23.5t-47 -23.5t-47 -27t-38 -26.5t-36 -31.5t-23.5 -35t-18 -43t-5 -47.5q0 -55 36.5 -92t90.5 -37q117 0 186 150q23 37 50.5 100.5t45 103t47 70.5t64.5 31q113 0 153.5 -196.5 t8.5 -481.5h-396q82 88 160 283.5t78 306.5q0 35 -23 35q-18 0 -40.5 -49.5t-45 -122t-59.5 -158.5t-81 -159t-115.5 -122t-157.5 -49z" glyph-name="acircumflex" horiz-adv-x="1069" unicode="â"/><glyph d="M741 1430q-53 0 -165.5 72.5t-182.5 76.5q-45 2 -71.5 -23.5t-22.5 -70.5h-35q-4 100 43 160.5t137 54.5q61 -4 175 -68.5t149 -70.5q37 -6 55.5 19.5t18.5 49.5h30q0 -200 -131 -200zM324 -35q-127 0 -205 83t-78 204q0 31 6 59.5t14.5 51t25.5 44t30.5 36t41 32 t44 27.5t51.5 25.5t52.5 21.5t59.5 22.5t58 22.5q123 51 190.5 122.5t67.5 184.5q0 70 -33 146.5t-74 93.5q-39 45 -81 26q-35 -12 -39 -53t9 -131t15 -133q6 -100 -56.5 -153.5t-148.5 -53.5q-78 0 -122 47q55 14 55 109q0 27 -8.5 80t-10.5 65q-8 96 96.5 185.5 t313.5 89.5q166 0 266.5 -61.5t100.5 -194.5q0 -115 -86 -191t-238 -141q-10 -4 -51 -21.5t-53.5 -23.5t-47 -23.5t-47 -27t-38 -26.5t-36 -31.5t-23.5 -35t-18 -43t-5 -47.5q0 -55 36.5 -92t90.5 -37q117 0 186 150q23 37 50.5 100.5t45 103t47 70.5t64.5 31 q113 0 153.5 -196.5t8.5 -481.5h-396q82 88 160 283.5t78 306.5q0 35 -23 35q-18 0 -40.5 -49.5t-45 -122t-59.5 -158.5t-81 -159t-115.5 -122t-157.5 -49z" glyph-name="atilde" horiz-adv-x="1069" unicode="ã"/><glyph d="M412 1348q-57 0 -96.5 36.5t-39.5 92.5q0 59 39 97t97 38q55 0 91 -38t36 -97q0 -55 -37 -92t-90 -37zM737 1348q-55 0 -95 36.5t-40 92.5q0 59 39 97t96 38q55 0 91 -38t36 -97q0 -55 -37 -92t-90 -37zM324 -35q-127 0 -205 83t-78 204q0 31 6 59.5t14.5 51t25.5 44 t30.5 36t41 32t44 27.5t51.5 25.5t52.5 21.5t59.5 22.5t58 22.5q123 51 190.5 122.5t67.5 184.5q0 70 -33 146.5t-74 93.5q-39 45 -81 26q-35 -12 -39 -53t9 -131t15 -133q6 -100 -56.5 -153.5t-148.5 -53.5q-78 0 -122 47q55 14 55 109q0 27 -8.5 80t-10.5 65 q-8 96 96.5 185.5t313.5 89.5q166 0 266.5 -61.5t100.5 -194.5q0 -115 -86 -191t-238 -141q-10 -4 -51 -21.5t-53.5 -23.5t-47 -23.5t-47 -27t-38 -26.5t-36 -31.5t-23.5 -35t-18 -43t-5 -47.5q0 -55 36.5 -92t90.5 -37q117 0 186 150q23 37 50.5 100.5t45 103t47 70.5 t64.5 31q113 0 153.5 -196.5t8.5 -481.5h-396q82 88 160 283.5t78 306.5q0 35 -23 35q-18 0 -40.5 -49.5t-45 -122t-59.5 -158.5t-81 -159t-115.5 -122t-157.5 -49z" glyph-name="adieresis" horiz-adv-x="1069" unicode="ä"/><glyph d="M569.5 1360q-110.5 0 -144.5 16.5t-34 53.5q0 14 7.5 48.5t7.5 57.5t-7.5 57.5t-7.5 48.5q0 37 34 53.5t144.5 16.5t144.5 -16.5t34 -53.5q0 -14 -7.5 -48.5t-7.5 -57.5t7.5 -57.5t7.5 -48.5q0 -37 -34 -53.5t-144.5 -16.5zM569.5 1374q34.5 0 47 38t12.5 124 q0 84 -12.5 121t-45.5 37q-61 0 -61 -158q0 -86 12.5 -124t47 -38zM324 -35q-127 0 -205 83t-78 204q0 31 6 59.5t14.5 51t25.5 44t30.5 36t41 32t44 27.5t51.5 25.5t52.5 21.5t59.5 22.5t58 22.5q123 51 190.5 122.5t67.5 184.5q0 70 -33 146.5t-74 93.5q-39 45 -81 26 q-35 -12 -39 -53t9 -131t15 -133q6 -100 -56.5 -153.5t-148.5 -53.5q-78 0 -122 47q55 14 55 109q0 27 -8.5 80t-10.5 65q-8 96 96.5 185.5t313.5 89.5q166 0 266.5 -61.5t100.5 -194.5q0 -115 -86 -191t-238 -141q-10 -4 -51 -21.5t-53.5 -23.5t-47 -23.5t-47 -27 t-38 -26.5t-36 -31.5t-23.5 -35t-18 -43t-5 -47.5q0 -55 36.5 -92t90.5 -37q117 0 186 150q23 37 50.5 100.5t45 103t47 70.5t64.5 31q113 0 153.5 -196.5t8.5 -481.5h-396q82 88 160 283.5t78 306.5q0 35 -23 35q-18 0 -40.5 -49.5t-45 -122t-59.5 -158.5t-81 -159 t-115.5 -122t-157.5 -49z" glyph-name="aring" horiz-adv-x="1069" unicode="å"/><glyph d="M324 -35q-127 0 -205 83t-78 204q0 37 6 67.5t21.5 57t28 46t41 40t44 32t54 29t54 24.5t61.5 24.5t59 21.5q131 53 201.5 123.5t70.5 175.5q0 61 -28.5 129t-73.5 111q-47 47 -97 47q-29 0 -47 -18.5t-18 -51.5t42 -116t42 -138q0 -96 -65.5 -154.5t-162.5 -58.5 q-78 0 -122 47q57 12 57 94q0 31 -11.5 104t-11.5 87q0 90 110 167t339 77q182 0 270 -95q98 92 297 93q76 0 129 -9.5t105.5 -37t80 -87t27.5 -147.5q0 -274 -198 -356q-76 -31 -185 -31q-78 0 -157 14q-4 -66 -5 -100q0 -184 48.5 -318.5t115.5 -134.5q47 0 56.5 58.5 t9.5 234.5q0 86 49 136t117 50q55 0 97 -26.5t52 -79.5q-51 -12 -51 -176q0 -115 -96.5 -178.5t-235.5 -63.5q-166 0 -278.5 107.5t-139.5 320.5q-98 -211 -157 -289q-112 -139 -262 -139zM1061 606q96 -2 151.5 68.5t69.5 185.5q31 82 31 172t-33 123q-27 14 -64.5 -7.5 t-68.5 -66.5q-86 -106 -109 -299q-4 -106 23 -176zM457 207q113 0 195.5 144.5t107.5 357.5q-12 -14 -28.5 -28.5t-30 -25t-39 -25t-38 -20.5t-42 -22.5t-39.5 -20.5q-70 -33 -111 -57.5t-75.5 -68.5t-34.5 -95q0 -63 39 -101t96 -38z" glyph-name="ae" horiz-adv-x="1574" unicode="æ"/><glyph d="M786 502q109 0 164 -86q-96 -6 -96 -137q0 -63 -12.5 -109.5t-47 -95.5t-112.5 -75t-195 -26h-16l-41 -69q59 10 123 10q84 0 131 -33t47 -80q0 -57 -73.5 -95t-168 -67.5t-120.5 -62.5l-54 96q37 27 100.5 56.5t96.5 52t33 51.5q0 39 -209 27l92 118q-170 27 -277.5 186 t-109.5 398q-2 322 132 490t368 168q84 0 143 -17.5t90 -43t46.5 -67.5t18.5 -75t5 -80v-16q4 -150 104 -168q-23 -55 -74 -87t-106 -32q-63 0 -110.5 40t-53.5 115q-4 61 6.5 128t23.5 111t21.5 82t0 56.5t-41.5 18.5q-111 0 -193.5 -175t-80.5 -460q6 -547 184 -547 q37 0 68 68.5t29 177.5q-8 135 38.5 194.5t126.5 59.5z" glyph-name="ccedilla" horiz-adv-x="980" unicode="ç"/><glyph d="M735 1290l-18 -10q-16 74 -80 123t-135.5 72.5t-156.5 72.5t-132 117l164 133q10 -43 53 -88t94 -84t100.5 -85t81 -110.5t29.5 -140.5zM496 -35q-455 0 -455 502q0 12 1 27.5t4 49.5t5 68q8 111 25.5 196t52.5 165t88 131t135 82t191 31q80 0 138 -11.5t114.5 -43.5 t83 -97.5t16.5 -163.5q-16 -180 -187 -265t-421 -73q-4 -35 -4 -108q0 -121 18 -217.5t66.5 -164t121.5 -67.5q66 0 85.5 46t19.5 167v84q0 88 44 137t116 49q111 0 131 -106q-49 -12 -49 -176q0 -115 -100.5 -178.5t-239.5 -63.5zM287 614q115 -20 201.5 33t127.5 141.5 t59.5 167t16.5 129.5q-6 49 -31.5 74t-56.5 25q-109 0 -213 -168.5t-104 -401.5z" glyph-name="egrave" horiz-adv-x="929" unicode="è"/><glyph d="M369 1280l-19 10q-2 76 30 140.5t81 110.5t100 85t94 84t54 88l163 -133q-47 -68 -132 -117t-156.5 -72.5t-135 -72.5t-79.5 -123zM496 -35q-455 0 -455 502q0 12 1 27.5t4 49.5t5 68q8 111 25.5 196t52.5 165t88 131t135 82t191 31q80 0 138 -11.5t114.5 -43.5t83 -97.5 t16.5 -163.5q-16 -180 -187 -265t-421 -73q-4 -35 -4 -108q0 -121 18 -217.5t66.5 -164t121.5 -67.5q66 0 85.5 46t19.5 167v84q0 88 44 137t116 49q111 0 131 -106q-49 -12 -49 -176q0 -115 -100.5 -178.5t-239.5 -63.5zM287 614q115 -20 201.5 33t127.5 141.5t59.5 167 t16.5 129.5q-6 49 -31.5 74t-56.5 25q-109 0 -213 -168.5t-104 -401.5z" glyph-name="eacute" horiz-adv-x="929" unicode="é"/><glyph d="M362 1343l-192 103q55 78 129 128t126 93t79 125h16q29 -78 81 -121t129 -94t138 -127l-196 -100q6 74 -67 188.5t-91 183.5q-23 -74 -87.5 -188.5t-64.5 -190.5zM496 -35q-455 0 -455 502q0 12 1 27.5t4 49.5t5 68q8 111 25.5 196t52.5 165t88 131t135 82t191 31 q80 0 138 -11.5t114.5 -43.5t83 -97.5t16.5 -163.5q-16 -180 -187 -265t-421 -73q-4 -35 -4 -108q0 -121 18 -217.5t66.5 -164t121.5 -67.5q66 0 85.5 46t19.5 167v84q0 88 44 137t116 49q111 0 131 -106q-49 -12 -49 -176q0 -115 -100.5 -178.5t-239.5 -63.5zM287 614 q115 -20 201.5 33t127.5 141.5t59.5 167t16.5 129.5q-6 49 -31.5 74t-56.5 25q-109 0 -213 -168.5t-104 -401.5z" glyph-name="ecircumflex" horiz-adv-x="929" unicode="ê"/><glyph d="M356 1348q-57 0 -96 36.5t-39 92.5q0 59 39 97t96 38q55 0 91 -38t36 -97q0 -55 -37 -92t-90 -37zM682 1348q-55 0 -95 36.5t-40 92.5q0 59 39 97t96 38q55 0 91 -38t36 -97q0 -55 -37 -92t-90 -37zM496 -35q-455 0 -455 502q0 12 1 27.5t4 49.5t5 68q8 111 25.5 196 t52.5 165t88 131t135 82t191 31q80 0 138 -11.5t114.5 -43.5t83 -97.5t16.5 -163.5q-16 -180 -187 -265t-421 -73q-4 -35 -4 -108q0 -121 18 -217.5t66.5 -164t121.5 -67.5q66 0 85.5 46t19.5 167v84q0 88 44 137t116 49q111 0 131 -106q-49 -12 -49 -176 q0 -115 -100.5 -178.5t-239.5 -63.5zM287 614q115 -20 201.5 33t127.5 141.5t59.5 167t16.5 129.5q-6 49 -31.5 74t-56.5 25q-109 0 -213 -168.5t-104 -401.5z" glyph-name="edieresis" horiz-adv-x="929" unicode="ë"/><glyph d="M436 1290l-18 -10q-16 74 -80 123t-135.5 72.5t-156.5 72.5t-132 117l164 133q10 -43 53 -88t94 -84t100.5 -85t81 -110.5t29.5 -140.5zM387 0h-332q-14 106 3.5 197.5t50 143.5t61.5 116.5t36 122t-26 157.5q-20 53 -62 148.5t-58.5 156t-16.5 142.5h332 q12 -90 -0.5 -163t-36 -112t-43 -90t-21.5 -98t29 -137q63 -160 66.5 -340.5t17.5 -243.5z" glyph-name="igrave" horiz-adv-x="430" unicode="ì"/><glyph d="M70 1280l-19 10q-2 76 30 140.5t81 110.5t100 85t94 84t54 88l163 -133q-47 -68 -132 -117t-156.5 -72.5t-135 -72.5t-79.5 -123zM387 0h-332q-14 106 3.5 197.5t50 143.5t61.5 116.5t36 122t-26 157.5q-20 53 -62 148.5t-58.5 156t-16.5 142.5h332q12 -90 -0.5 -163 t-36 -112t-43 -90t-21.5 -98t29 -137q63 -160 66.5 -340.5t17.5 -243.5z" glyph-name="iacute" horiz-adv-x="430" unicode="í"/><glyph d="M63 1343l-192 103q55 78 129 128t126 93t79 125h16q29 -78 81 -121t129 -94t138 -127l-196 -100q6 74 -67 188.5t-91 183.5q-23 -74 -87.5 -188.5t-64.5 -190.5zM387 0h-332q-14 106 3.5 197.5t50 143.5t61.5 116.5t36 122t-26 157.5q-20 53 -62 148.5t-58.5 156 t-16.5 142.5h332q12 -90 -0.5 -163t-36 -112t-43 -90t-21.5 -98t29 -137q63 -160 66.5 -340.5t17.5 -243.5z" glyph-name="icircumflex" horiz-adv-x="430" unicode="î"/><glyph d="M57 1348q-57 0 -96 36.5t-39 92.5q0 59 39 97t96 38q55 0 91 -38t36 -97q0 -55 -37 -92t-90 -37zM383 1348q-55 0 -95 36.5t-40 92.5q0 59 39 97t96 38q55 0 91 -38t36 -97q0 -55 -37 -92t-90 -37zM387 0h-332q-14 106 3.5 197.5t50 143.5t61.5 116.5t36 122t-26 157.5 q-20 53 -62 148.5t-58.5 156t-16.5 142.5h332q12 -90 -0.5 -163t-36 -112t-43 -90t-21.5 -98t29 -137q63 -160 66.5 -340.5t17.5 -243.5z" glyph-name="idieresis" horiz-adv-x="430" unicode="ï"/><glyph d="M508 -35q-197 0 -332 172t-135 481q0 276 89 436t271 169q41 2 132.5 -3.5t105.5 -5.5q35 0 25 37q-14 74 -179 244l-137 -86l-29 49l127 80q-129 113 -237 162l65 80q160 -76 281 -176l203 129l26 -50l-186 -116q338 -322 338 -908q0 -154 -19.5 -271.5t-65.5 -216.5 t-133 -152.5t-210 -53.5zM514 39q59 0 111.5 39t52.5 131q0 61 -24.5 176t-18.5 203q4 72 26.5 187.5t22.5 172.5q0 90 -42 137.5t-128 44.5q-49 -2 -84 -11t-56.5 -40.5t-33.5 -55.5t-17.5 -93.5t-6.5 -110.5t-1 -147v-66q0 -88 14.5 -205.5t14.5 -177.5q4 -76 37 -120 t64.5 -54t68.5 -10z" glyph-name="eth" horiz-adv-x="976" unicode="ð"/><glyph d="M686 1430q-53 0 -165.5 72.5t-182.5 76.5q-45 2 -70.5 -23.5t-23.5 -70.5h-35q-4 100 43 160.5t137 54.5q61 -4 175 -68.5t149 -70.5q37 -6 55 19.5t18 49.5h31q0 -200 -131 -200zM395 0h-307q-29 84 -29 172q0 102 55.5 300t67.5 276q18 129 -20.5 231t-120.5 102 q12 137 152 138q43 0 76.5 -19.5t58 -55.5t37 -62.5t26.5 -65.5q164 203 363 203q219 0 219 -209q0 -72 -49.5 -203t-49.5 -232q0 -104 70 -271t86 -304h-307q8 125 -23 244q-6 49 -48 171t-42 201q0 96 35 179.5t70 148t35 119.5q0 37 -22.5 57.5t-59.5 20.5 q-84 0 -163 -78t-122 -203q-72 -205 -14 -475q51 -244 26 -385z" glyph-name="ntilde" horiz-adv-x="1062" unicode="ñ"/><glyph d="M694 1290l-18 -10q-16 74 -80 123t-135.5 72.5t-156.5 72.5t-132 117l164 133q10 -43 53 -88t94.5 -84t100.5 -85t80.5 -110.5t29.5 -140.5zM469 -35q-227 0 -327.5 87t-100.5 216q0 66 24.5 196t24.5 185q0 76 -15.5 154t-15.5 137q0 137 117 210t309 73 q168 0 273.5 -62.5t105.5 -177.5q0 -76 -33.5 -153.5t-33.5 -133.5q0 -66 53 -182.5t53 -194.5q0 -174 -114.5 -264t-319.5 -90zM471 6q88 0 140.5 43t52.5 115q0 57 -39 229t-39 266q0 68 20.5 210.5t20.5 181.5q0 66 -39 101.5t-101 35.5q-164 0 -163 -174q0 -18 9 -169 t-1 -186q-6 -57 -34 -234t-28 -237q0 -182 201 -182z" glyph-name="ograve" horiz-adv-x="944" unicode="ò"/><glyph d="M328 1280l-19 10q-2 76 30 140.5t81 110.5t100 85t94 84t54 88l163 -133q-47 -68 -132 -117t-156.5 -72.5t-135 -72.5t-79.5 -123zM469 -35q-227 0 -327.5 87t-100.5 216q0 66 24.5 196t24.5 185q0 76 -15.5 154t-15.5 137q0 137 117 210t309 73q168 0 273.5 -62.5 t105.5 -177.5q0 -76 -33.5 -153.5t-33.5 -133.5q0 -66 53 -182.5t53 -194.5q0 -174 -114.5 -264t-319.5 -90zM471 6q88 0 140.5 43t52.5 115q0 57 -39 229t-39 266q0 68 20.5 210.5t20.5 181.5q0 66 -39 101.5t-101 35.5q-164 0 -163 -174q0 -18 9 -169t-1 -186 q-6 -57 -34 -234t-28 -237q0 -182 201 -182z" glyph-name="oacute" horiz-adv-x="944" unicode="ó"/><glyph d="M322 1343l-193 103q55 78 129 128t126 93t79 125h16q29 -78 81 -121t129 -94t138 -127l-196 -100q6 74 -66.5 188.5t-91.5 183.5q-23 -74 -87 -188.5t-64 -190.5zM469 -35q-227 0 -327.5 87t-100.5 216q0 66 24.5 196t24.5 185q0 76 -15.5 154t-15.5 137q0 137 117 210 t309 73q168 0 273.5 -62.5t105.5 -177.5q0 -76 -33.5 -153.5t-33.5 -133.5q0 -66 53 -182.5t53 -194.5q0 -174 -114.5 -264t-319.5 -90zM471 6q88 0 140.5 43t52.5 115q0 57 -39 229t-39 266q0 68 20.5 210.5t20.5 181.5q0 66 -39 101.5t-101 35.5q-164 0 -163 -174 q0 -18 9 -169t-1 -186q-6 -57 -34 -234t-28 -237q0 -182 201 -182z" glyph-name="ocircumflex" horiz-adv-x="944" unicode="ô"/><glyph d="M645 1430q-53 0 -165.5 72.5t-182.5 76.5q-45 2 -70.5 -23.5t-23.5 -70.5h-35q-4 100 43 160.5t137 54.5q61 -4 175 -68.5t149 -70.5q37 -6 55 19.5t18 49.5h31q0 -200 -131 -200zM469 -35q-227 0 -327.5 87t-100.5 216q0 66 24.5 196t24.5 185q0 76 -15.5 154t-15.5 137 q0 137 117 210t309 73q168 0 273.5 -62.5t105.5 -177.5q0 -76 -33.5 -153.5t-33.5 -133.5q0 -66 53 -182.5t53 -194.5q0 -174 -114.5 -264t-319.5 -90zM471 6q88 0 140.5 43t52.5 115q0 57 -39 229t-39 266q0 68 20.5 210.5t20.5 181.5q0 66 -39 101.5t-101 35.5 q-164 0 -163 -174q0 -18 9 -169t-1 -186q-6 -57 -34 -234t-28 -237q0 -182 201 -182z" glyph-name="otilde" horiz-adv-x="944" unicode="õ"/><glyph d="M315 1348q-57 0 -96 36.5t-39 92.5q0 59 39 97t96 38q55 0 91 -38t36 -97q0 -55 -37 -92t-90 -37zM641 1348q-55 0 -95 36.5t-40 92.5q0 59 39 97t96 38q55 0 91 -38t36 -97q0 -55 -37 -92t-90 -37zM469 -35q-227 0 -327.5 87t-100.5 216q0 66 24.5 196t24.5 185 q0 76 -15.5 154t-15.5 137q0 137 117 210t309 73q168 0 273.5 -62.5t105.5 -177.5q0 -76 -33.5 -153.5t-33.5 -133.5q0 -66 53 -182.5t53 -194.5q0 -174 -114.5 -264t-319.5 -90zM471 6q88 0 140.5 43t52.5 115q0 57 -39 229t-39 266q0 68 20.5 210.5t20.5 181.5 q0 66 -39 101.5t-101 35.5q-164 0 -163 -174q0 -18 9 -169t-1 -186q-6 -57 -34 -234t-28 -237q0 -182 201 -182z" glyph-name="odieresis" horiz-adv-x="944" unicode="ö"/><glyph d="M451 768q-61 0 -103.5 42t-42.5 103q0 63 42 105.5t104 42.5q66 0 106.5 -41t40.5 -107q0 -61 -42 -103t-105 -42zM793 616h-752v39h752v-39zM451 197q-61 0 -103.5 42t-42.5 103q0 63 42 105t104 42q66 0 106.5 -41.5t40.5 -105.5q0 -61 -42 -103t-105 -42z" glyph-name="divide" horiz-adv-x="833" unicode="÷"/><glyph d="M797 696q0 -66 53 -182.5t53 -194.5q0 -174 -114.5 -264t-319.5 -90q-125 0 -215 29l-78 -191h-59l88 211q-164 78 -164 254q0 66 24.5 196t24.5 185q0 76 -15.5 154t-15.5 137q0 137 117 210t309 73q119 0 205 -31l78 186h59l-86 -209q123 -63 123 -186 q0 -76 -33.5 -154t-33.5 -133zM270 188v-12l357 860v15q0 66 -39 101.5t-101 35.5q-164 0 -163 -174q0 -18 9 -169t-1 -186q-6 -57 -34 -234.5t-28 -236.5zM471 6q88 0 140.5 43t52.5 115q0 57 -39 229t-39 266q0 66 14 170l-307 -743q47 -80 178 -80z" glyph-name="oslash" horiz-adv-x="944" unicode="ø"/><glyph d="M750 1290l-19 -10q-16 74 -79.5 123t-135.5 72.5t-157 72.5t-132 117l164 133q10 -43 53 -88t94.5 -84t100.5 -85t81 -110.5t30 -140.5zM842 -39q-70 0 -112 61.5t-42 176.5q0 51 6 112q-53 -158 -172 -252t-254 -94q-102 0 -158.5 91t-56.5 274q0 104 41 294.5t41 303.5 q0 127 -67 262l288 -2q47 -94 47 -213q0 -147 -56 -411.5t-60 -311.5q-14 -168 104 -168q111 0 220.5 148.5t109.5 394.5q0 45 -13.5 187t-13.5 222q0 86 35 148h305q0 -88 -59 -355q-76 -328 -76 -481q0 -215 117 -307q-92 -80 -174 -80z" glyph-name="ugrave" horiz-adv-x="1067" unicode="ù"/><glyph d="M383 1280l-18 10q-2 76 29.5 140.5t80.5 110.5t100.5 85t94.5 84t53 88l164 -133q-47 -68 -132 -117t-157 -72.5t-135.5 -72.5t-79.5 -123zM842 -39q-70 0 -112 61.5t-42 176.5q0 51 6 112q-53 -158 -172 -252t-254 -94q-102 0 -158.5 91t-56.5 274q0 104 41 294.5 t41 303.5q0 127 -67 262l288 -2q47 -94 47 -213q0 -147 -56 -411.5t-60 -311.5q-14 -168 104 -168q111 0 220.5 148.5t109.5 394.5q0 45 -13.5 187t-13.5 222q0 86 35 148h305q0 -88 -59 -355q-76 -328 -76 -481q0 -215 117 -307q-92 -80 -174 -80z" glyph-name="uacute" horiz-adv-x="1067" unicode="ú"/><glyph d="M377 1343l-193 103q55 78 129 128t126.5 93t78.5 125h17q29 -78 81 -121t128.5 -94t138.5 -127l-197 -100q6 74 -66.5 188.5t-91.5 183.5q-23 -74 -87 -188.5t-64 -190.5zM842 -39q-70 0 -112 61.5t-42 176.5q0 51 6 112q-53 -158 -172 -252t-254 -94q-102 0 -158.5 91 t-56.5 274q0 104 41 294.5t41 303.5q0 127 -67 262l288 -2q47 -94 47 -213q0 -147 -56 -411.5t-60 -311.5q-14 -168 104 -168q111 0 220.5 148.5t109.5 394.5q0 45 -13.5 187t-13.5 222q0 86 35 148h305q0 -88 -59 -355q-76 -328 -76 -481q0 -215 117 -307q-92 -80 -174 -80 z" glyph-name="ucircumflex" horiz-adv-x="1067" unicode="û"/><glyph d="M371 1348q-57 0 -96 36.5t-39 92.5q0 59 38.5 97t96.5 38q55 0 91 -38t36 -97q0 -55 -37 -92t-90 -37zM696 1348q-55 0 -95 36.5t-40 92.5q0 59 39 97t96 38q55 0 91 -38t36 -97q0 -55 -37 -92t-90 -37zM842 -39q-70 0 -112 61.5t-42 176.5q0 51 6 112 q-53 -158 -172 -252t-254 -94q-102 0 -158.5 91t-56.5 274q0 104 41 294.5t41 303.5q0 127 -67 262l288 -2q47 -94 47 -213q0 -147 -56 -411.5t-60 -311.5q-14 -168 104 -168q111 0 220.5 148.5t109.5 394.5q0 45 -13.5 187t-13.5 222q0 86 35 148h305q0 -88 -59 -355 q-76 -328 -76 -481q0 -215 117 -307q-92 -80 -174 -80z" glyph-name="udieresis" horiz-adv-x="1067" unicode="ü"/><glyph d="M328 1280l-19 10q-2 76 30 140.5t81 110.5t100 85t94 84t54 88l163 -133q-47 -68 -132 -117t-156.5 -72.5t-135 -72.5t-79.5 -123zM461 -319q-164 0 -254 56t-90 204q0 162 112 161q63 0 138 -61q-33 -68 -33 -141q0 -78 38 -128.5t107 -50.5q209 0 209 400 q0 121 -47 121q-14 0 -98 -34t-156 -34q-199 0 -251 103.5t-17 361.5q20 135 -1.5 229.5t-51 170t-29.5 145.5h297q4 -70 20.5 -203t16.5 -199q0 -61 -4.5 -134t-8.5 -121t-5 -99t4 -82t19.5 -57.5t41 -38.5t69.5 -12q78 0 135.5 62t57.5 189q0 47 2 115t2 100.5t-4 71.5 t-14 68q-18 51 -25.5 75.5t-17 70.5t-7.5 92t13 102h266q37 -154 37 -277q0 -115 -25.5 -207t-56.5 -142t-56.5 -121.5t-25.5 -147.5t56.5 -163t56.5 -185q0 -260 -420 -260z" glyph-name="yacute" horiz-adv-x="964" unicode="ý"/><glyph d="M395 -260h-354q8 117 43 225.5t70.5 180t64.5 185t27 242.5q-2 111 -47 254.5t-89 302t-44 308.5h354q-27 -72 -48.5 -183.5t-26.5 -180t3 -79.5q4 0 19.5 23.5t43 56.5t65.5 66t98.5 55.5t127.5 22.5q150 0 238 -186.5t88 -430.5q0 -164 -42 -307t-129 -238.5 t-204 -95.5q-49 0 -87 15.5t-67.5 48t-47 59.5t-41 72t-33.5 61q-27 43 -29 16q-2 -8 -2 -40q0 -215 49 -453zM575 57q31 0 54.5 10.5t39 31t26 45t16.5 60.5t9 69.5t3 81.5t-1 85t-2 90.5t-1 90.5q0 55 9 145t14.5 151.5t-1 122t-39 86t-96.5 13.5q-78 -18 -148.5 -124 t-70.5 -302q0 -266 51 -461t137 -195z" glyph-name="thorn" horiz-adv-x="1069" unicode="þ"/><glyph d="M315 1348q-57 0 -96 36.5t-39 92.5q0 59 39 97t96 38q55 0 91 -38t36 -97q0 -55 -37 -92t-90 -37zM641 1348q-55 0 -95 36.5t-40 92.5q0 59 39 97t96 38q55 0 91 -38t36 -97q0 -55 -37 -92t-90 -37zM461 -319q-164 0 -254 56t-90 204q0 162 112 161q63 0 138 -61 q-33 -68 -33 -141q0 -78 38 -128.5t107 -50.5q209 0 209 400q0 121 -47 121q-14 0 -98 -34t-156 -34q-199 0 -251 103.5t-17 361.5q20 135 -1.5 229.5t-51 170t-29.5 145.5h297q4 -70 20.5 -203t16.5 -199q0 -61 -4.5 -134t-8.5 -121t-5 -99t4 -82t19.5 -57.5t41 -38.5 t69.5 -12q78 0 135.5 62t57.5 189q0 47 2 115t2 100.5t-4 71.5t-14 68q-18 51 -25.5 75.5t-17 70.5t-7.5 92t13 102h266q37 -154 37 -277q0 -115 -25.5 -207t-56.5 -142t-56.5 -121.5t-25.5 -147.5t56.5 -163t56.5 -185q0 -260 -420 -260z" glyph-name="ydieresis" horiz-adv-x="964" unicode="ÿ"/><glyph d="M748 1679h-455v64h455v-64zM348 0h-307q-8 66 -8 131q0 111 35.5 220.5t78.5 185t79 178t36 201t-59.5 234.5t-59.5 292q57 -16 113 -17q53 0 166 26t174 26q68 0 133.5 -21.5t123.5 -67t88 -129t15 -196.5q-10 -80 -24 -187.5t-22.5 -167t-14.5 -137t-6 -151.5 q0 -178 84 -420h-307q-55 221 -48 385q12 133 -2 188q-18 61 -110 62q-94 0 -129 -98q-76 -205 -76 -320q0 -108 47 -217zM537 684q47 0 82.5 33t46.5 82q57 252 57 434q0 88 -48 141t-116 56q-63 2 -108 -32t-45 -100q0 -59 30.5 -153t30.5 -168q0 -94 -25 -211 q-8 -47 15 -64.5t80 -17.5z" glyph-name="Amacron" horiz-adv-x="1005" unicode="Ā"/><glyph d="M786 1430h-454v63h454v-63zM324 -35q-127 0 -205 83t-78 204q0 31 6 59.5t14.5 51t25.5 44t30.5 36t41 32t44 27.5t51.5 25.5t52.5 21.5t59.5 22.5t58 22.5q123 51 190.5 122.5t67.5 184.5q0 70 -33 146.5t-74 93.5q-39 45 -81 26q-35 -12 -39 -53t9 -131t15 -133 q6 -100 -56.5 -153.5t-148.5 -53.5q-78 0 -122 47q55 14 55 109q0 27 -8.5 80t-10.5 65q-8 96 96.5 185.5t313.5 89.5q166 0 266.5 -61.5t100.5 -194.5q0 -115 -86 -191t-238 -141q-10 -4 -51 -21.5t-53.5 -23.5t-47 -23.5t-47 -27t-38 -26.5t-36 -31.5t-23.5 -35t-18 -43 t-5 -47.5q0 -55 36.5 -92t90.5 -37q117 0 186 150q23 37 50.5 100.5t45 103t47 70.5t64.5 31q113 0 153.5 -196.5t8.5 -481.5h-396q82 88 160 283.5t78 306.5q0 35 -23 35q-18 0 -40.5 -49.5t-45 -122t-59.5 -158.5t-81 -159t-115.5 -122t-157.5 -49z" glyph-name="amacron" horiz-adv-x="1069" unicode="ā"/><glyph d="M528 1622q-131 0 -207.5 52t-76.5 153q0 74 16 123h25q12 -92 64 -130t179 -38q123 0 176.5 38t69.5 130h25q8 -33 8 -95q0 -102 -75 -167.5t-204 -65.5zM348 0h-307q-8 66 -8 131q0 111 35.5 220.5t78.5 185t79 178t36 201t-59.5 234.5t-59.5 292q57 -16 113 -17 q53 0 166 26t174 26q68 0 133.5 -21.5t123.5 -67t88 -129t15 -196.5q-10 -80 -24 -187.5t-22.5 -167t-14.5 -137t-6 -151.5q0 -178 84 -420h-307q-55 221 -48 385q12 133 -2 188q-18 61 -110 62q-94 0 -129 -98q-76 -205 -76 -320q0 -108 47 -217zM537 684q47 0 82.5 33 t46.5 82q57 252 57 434q0 88 -48 141t-116 56q-63 2 -108 -32t-45 -100q0 -59 30.5 -153t30.5 -168q0 -94 -25 -211q-8 -47 15 -64.5t80 -17.5z" glyph-name="Abreve" horiz-adv-x="1005" unicode="Ă"/><glyph d="M567 1372q-131 0 -207.5 52.5t-76.5 152.5q0 74 16 123h25q12 -92 64 -130t179 -38q123 0 176.5 38t69.5 130h25q8 -33 8 -94q0 -102 -75 -168t-204 -66zM324 -35q-127 0 -205 83t-78 204q0 31 6 59.5t14.5 51t25.5 44t30.5 36t41 32t44 27.5t51.5 25.5t52.5 21.5 t59.5 22.5t58 22.5q123 51 190.5 122.5t67.5 184.5q0 70 -33 146.5t-74 93.5q-39 45 -81 26q-35 -12 -39 -53t9 -131t15 -133q6 -100 -56.5 -153.5t-148.5 -53.5q-78 0 -122 47q55 14 55 109q0 27 -8.5 80t-10.5 65q-8 96 96.5 185.5t313.5 89.5q166 0 266.5 -61.5 t100.5 -194.5q0 -115 -86 -191t-238 -141q-10 -4 -51 -21.5t-53.5 -23.5t-47 -23.5t-47 -27t-38 -26.5t-36 -31.5t-23.5 -35t-18 -43t-5 -47.5q0 -55 36.5 -92t90.5 -37q117 0 186 150q23 37 50.5 100.5t45 103t47 70.5t64.5 31q113 0 153.5 -196.5t8.5 -481.5h-396 q82 88 160 283.5t78 306.5q0 35 -23 35q-18 0 -40.5 -49.5t-45 -122t-59.5 -158.5t-81 -159t-115.5 -122t-157.5 -49z" glyph-name="abreve" horiz-adv-x="1069" unicode="ă"/><glyph d="M997 0v-8q-39 -25 -68.5 -63t-40.5 -80t15.5 -81.5t93.5 -62.5l-43 -92q-113 0 -169 48t-52 112.5t54.5 130t132.5 96.5h-254q-55 221 -48 385q12 133 -2 188q-18 61 -110 62q-94 0 -129 -98q-76 -205 -76 -320q0 -109 47 -217h-307q-8 66 -8 131q0 111 35.5 220.5 t78.5 185t79 178t36 201t-59.5 234.5t-59.5 292q57 -16 113 -17q53 0 166 26t174 26q68 0 133.5 -21.5t123.5 -67t88 -129t15 -196.5q-10 -80 -24 -187.5t-22.5 -167t-14.5 -137t-6 -151.5q0 -178 84 -420h24zM666 799q57 252 57 434q0 88 -48 141t-116 56q-63 2 -108 -32 t-45 -100q0 -59 30.5 -153t30.5 -168q0 -94 -25 -211q-8 -47 14.5 -64.5t80.5 -17.5q47 0 83 33t46 82z" glyph-name="Aogonek" horiz-adv-x="1005" unicode="Ą"/><glyph d="M1004 0h-9q-39 -25 -67.5 -62.5t-37.5 -79.5t18.5 -81t92.5 -60l-43 -92q-141 0 -193 73t-11 163t141 139h-287q82 88 160 283.5t78 306.5q0 35 -23 35q-18 0 -40.5 -49.5t-45 -122t-59.5 -158.5t-81 -159t-115.5 -122t-157.5 -49q-127 0 -205 83t-78 204q0 31 6 59.5 t14.5 51t25.5 44t30.5 36t41 32t44 27.5t51.5 25.5t52.5 21.5t59.5 22.5t58 22.5q123 51 190.5 122.5t67.5 184.5q0 70 -33 146.5t-74 93.5q-39 45 -81 26q-35 -12 -39 -53t9 -131t15 -133q6 -100 -56.5 -153.5t-148.5 -53.5q-78 0 -122 47q55 14 55 109q0 27 -8.5 80 t-10.5 65q-8 96 96.5 185.5t313.5 89.5q166 0 266.5 -61.5t100.5 -194.5q0 -115 -86 -191t-238 -141q-10 -4 -51 -21.5t-53.5 -23.5t-47 -23.5t-47 -27t-38 -26.5t-36 -31.5t-23.5 -35t-18 -43t-5 -47.5q0 -55 36.5 -92t90.5 -37q117 0 186 150q23 37 50.5 100.5t45 103 t47 70.5t64.5 31q113 0 154 -196.5t8 -481.5z" glyph-name="aogonek" horiz-adv-x="1069" unicode="ą"/><glyph d="M352 1534l-18 10q-2 76 29.5 140.5t81 110.5t100.5 85t94 84t53 88l164 -133q-47 -68 -132 -117t-156.5 -72.5t-135.5 -72.5t-80 -123zM494 -37q-479 0 -463 592q4 172 18 301t49 251t90.5 197.5t144.5 122t210 46.5q139 0 219 -63.5t80 -182.5q0 -31 -1 -99.5t-1 -83.5 q0 -61 8 -87.5t35 -38.5q-47 -78 -135 -78q-61 0 -106.5 42t-45.5 115q0 57 22.5 186.5t22.5 159.5q0 49 -31.5 72t-68.5 23q-94 0 -172 -280.5t-78 -536.5q0 -274 58.5 -447.5t158.5 -173.5q35 0 59.5 13.5t36.5 28.5t17.5 52t6.5 58.5t1 70.5q0 20 -3 85t-1 95 q4 139 112 140q86 0 185 -74q-29 -20 -43.5 -68.5t-17.5 -102.5t-21.5 -114.5t-49 -108.5t-106 -80t-190.5 -32z" glyph-name="Cacute" horiz-adv-x="952" unicode="Ć"/><glyph d="M362 1280l-18 10q-2 76 30 140.5t81 110.5t100 85t94 84t53 88l164 -133q-47 -68 -132 -117t-156.5 -72.5t-135.5 -72.5t-80 -123zM487 -27q-193 0 -318.5 164t-127.5 424q-2 322 132 490t368 168q84 0 143 -17.5t90 -43t46.5 -67.5t18.5 -75t5 -80v-16q4 -150 104 -168 q-23 -55 -74 -87t-106 -32q-63 0 -110.5 40t-53.5 115q-4 61 6.5 128t23.5 111t21.5 82t0 56.5t-41.5 18.5q-111 0 -193.5 -175t-80.5 -460q6 -547 184 -547q37 0 68 68.5t29 177.5q-8 135 39 194.5t126 59.5q109 0 164 -86q-96 -6 -96 -137q0 -63 -12.5 -109.5t-47 -95.5 t-112.5 -75t-195 -26z" glyph-name="cacute" horiz-adv-x="980" unicode="ć"/><glyph d="M496 1579q-70 0 -110 46t-40 107.5t40 106.5t110 45q74 0 113.5 -44t39.5 -107q0 -61 -40.5 -107.5t-112.5 -46.5zM494 -37q-479 0 -463 592q4 172 18 301t49 251t90.5 197.5t144.5 122t210 46.5q139 0 219 -63.5t80 -182.5q0 -31 -1 -99.5t-1 -83.5q0 -61 8 -87.5 t35 -38.5q-47 -78 -135 -78q-61 0 -106.5 42t-45.5 115q0 57 22.5 186.5t22.5 159.5q0 49 -31.5 72t-68.5 23q-94 0 -172 -280.5t-78 -536.5q0 -274 58.5 -447.5t158.5 -173.5q35 0 59.5 13.5t36.5 28.5t17.5 52t6.5 58.5t1 70.5q0 20 -3 85t-1 95q4 139 112 140 q86 0 185 -74q-29 -20 -43.5 -68.5t-17.5 -102.5t-21.5 -114.5t-49 -108.5t-106 -80t-190.5 -32z" glyph-name="Cdotaccent" horiz-adv-x="952" unicode="Ċ"/><glyph d="M506 1325q-70 0 -110 46t-40 107.5t40 106.5t110 45q74 0 113.5 -44t39.5 -107q0 -61 -40.5 -107.5t-112.5 -46.5zM487 -27q-193 0 -318.5 164t-127.5 424q-2 322 132 490t368 168q84 0 143 -17.5t90 -43t46.5 -67.5t18.5 -75t5 -80v-16q4 -150 104 -168q-23 -55 -74 -87 t-106 -32q-63 0 -110.5 40t-53.5 115q-4 61 6.5 128t23.5 111t21.5 82t0 56.5t-41.5 18.5q-111 0 -193.5 -175t-80.5 -460q6 -547 184 -547q37 0 68 68.5t29 177.5q-8 135 39 194.5t126 59.5q109 0 164 -86q-96 -6 -96 -137q0 -63 -12.5 -109.5t-47 -95.5t-112.5 -75 t-195 -26z" glyph-name="cdotaccent" horiz-adv-x="980" unicode="ċ"/><glyph d="M147 1909l193 102q0 -76 64.5 -190.5t87.5 -188.5q18 70 90.5 184.5t66.5 188.5l197 -100q-61 -76 -138 -127.5t-129.5 -94.5t-80.5 -120h-17q-27 82 -79 125t-126 93t-129 128zM494 -37q-479 0 -463 592q4 172 18 301t49 251t90.5 197.5t144.5 122t210 46.5 q139 0 219 -63.5t80 -182.5q0 -31 -1 -99.5t-1 -83.5q0 -61 8 -87.5t35 -38.5q-47 -78 -135 -78q-61 0 -106.5 42t-45.5 115q0 57 22.5 186.5t22.5 159.5q0 49 -31.5 72t-68.5 23q-94 0 -172 -280.5t-78 -536.5q0 -274 58.5 -447.5t158.5 -173.5q35 0 59.5 13.5t36.5 28.5 t17.5 52t6.5 58.5t1 70.5q0 20 -3 85t-1 95q4 139 112 140q86 0 185 -74q-29 -20 -43.5 -68.5t-17.5 -102.5t-21.5 -114.5t-49 -108.5t-106 -80t-190.5 -32z" glyph-name="Ccaron" horiz-adv-x="952" unicode="Č"/><glyph d="M158 1655l192 102q0 -76 64.5 -190.5t87.5 -188.5q18 70 91 184.5t66 188.5l197 -100q-61 -76 -138 -127t-129 -94.5t-81 -120.5h-16q-27 82 -79.5 125t-126 93t-128.5 128zM487 -27q-193 0 -318.5 164t-127.5 424q-2 322 132 490t368 168q84 0 143 -17.5t90 -43 t46.5 -67.5t18.5 -75t5 -80v-16q4 -150 104 -168q-23 -55 -74 -87t-106 -32q-63 0 -110.5 40t-53.5 115q-4 61 6.5 128t23.5 111t21.5 82t0 56.5t-41.5 18.5q-111 0 -193.5 -175t-80.5 -460q6 -547 184 -547q37 0 68 68.5t29 177.5q-8 135 39 194.5t126 59.5q109 0 164 -86 q-96 -6 -96 -137q0 -63 -12.5 -109.5t-47 -95.5t-112.5 -75t-195 -26z" glyph-name="ccaron" horiz-adv-x="980" unicode="č"/><glyph d="M186 1909l193 102q0 -76 64.5 -190.5t86.5 -188.5q18 70 91 184.5t67 188.5l197 -100q-61 -76 -138 -127.5t-129.5 -94.5t-80.5 -120h-17q-27 82 -79 125t-126 93t-129 128zM412 0h-346q-43 190 8 346q14 39 38.5 89t41 82t34 84t15.5 95t-13 115q-31 131 -72.5 236.5 t-59 179t-17.5 211.5h432q92 0 173 -11.5t168 -41t138.5 -92t51.5 -154.5t-20.5 -210t-20.5 -173q0 -51 29.5 -169t29.5 -239q0 -348 -610 -348zM397 43q111 0 240 87t129 214q0 82 -23.5 230.5t-27.5 189.5q-10 66 -12.5 127t2 153.5t4.5 149.5q0 88 -65.5 143.5 t-162.5 55.5q-63 0 -107 -33t-57 -86q-10 -16 -7 -88t9.5 -119t20.5 -171t25 -243q10 -117 -15.5 -284.5t-23 -246.5t70.5 -79z" glyph-name="Dcaron" horiz-adv-x="1062" unicode="Ď"/><glyph d="M1069 1196q59 72 65.5 183.5t-22.5 224.5h211q0 -152 -61.5 -263.5t-192.5 -144.5zM233 -35q-88 0 -121.5 41t-33.5 121q0 45 21.5 170t21.5 199q0 92 -34 224t-34 224q0 274 219 275q94 0 171 -44.5t123 -106.5t80 -124.5t57.5 -106.5t40 -44t16.5 63q0 68 -102.5 314.5 t-102.5 369.5h319q39 -127 39 -285q0 -125 -34.5 -364.5t-34.5 -349.5q0 -131 59.5 -281.5t59.5 -259.5h-336q51 182 51 266q0 33 -14 33q-10 0 -17 -14q-170 -320 -414 -320zM362 74q98 0 212 168t114 368q0 219 -116.5 376t-215.5 157q-45 0 -45 -47q0 -6 37 -166t37 -332 q0 -111 -41 -262.5t-41 -179.5q0 -82 59 -82z" glyph-name="dcaron" horiz-adv-x="1366" unicode="ď"/><glyph d="M991 756q0 -51 30 -169t30 -239q0 -348 -611 -348h-346q-45 199 8 346q16 45 49 108.5t54.5 119t25.5 114.5h-143v41h143q-4 41 -12 82q-31 131 -73 236.5t-59 179t-17 211.5h432q92 0 172 -11.5t167 -41t138 -92t51 -154.5t-19.5 -210t-19.5 -173zM426 43q111 0 240 87 t129 214q0 82 -23.5 230.5t-28.5 189.5q-10 66 -12 127t2 153.5t4 149.5q0 88 -65.5 143.5t-161.5 55.5q-63 0 -107.5 -33t-56.5 -86q-10 -12 -7 -81t8 -106.5t17.5 -149.5t22.5 -208h156v-41h-152q0 -6 1 -17.5t1 -17.5q10 -117 -15.5 -284.5t-22.5 -246.5t71 -79z" glyph-name="Dcroat" horiz-adv-x="1099" unicode="Đ"/><glyph d="M913 1298h88v-41h-88v-2q0 -125 -34.5 -364.5t-34.5 -349.5q0 -131 59.5 -281.5t59.5 -259.5h-336q51 182 51 266q0 33 -14 33q-10 0 -17 -14q-170 -319 -414 -320q-88 0 -121.5 41t-33.5 121q0 45 21.5 170t21.5 199q0 92 -34 224t-34 224q0 274 219 275q94 0 171 -44.5 t123 -106.5t80 -124.5t57.5 -106.5t40 -44t16.5 63q0 43 -18.5 100.5t-61.5 161t-57 139.5h-183v41h166q-51 150 -51 242h319q33 -103 39 -242zM362 74q98 0 212 168t114 368q0 219 -116.5 376t-215.5 157q-45 0 -45 -47q0 -6 37 -166t37 -332q0 -111 -41 -262.5t-41 -179.5 q0 -82 59 -82z" glyph-name="dcroat" horiz-adv-x="989" unicode="đ"/><glyph d="M666 1683h-455v64h455v-64zM463 -35q-51 0 -97.5 5t-108.5 24.5t-107.5 54.5t-77 100.5t-31.5 153.5q0 80 45 208t45 218q0 94 -45 221t-45 205q0 315 401 315q238 0 322 -50t84 -154q0 -25 -11.5 -77t-11.5 -79q0 -41 14.5 -62.5t45.5 -13.5q-12 -59 -55.5 -91 t-96.5 -32q-57 0 -99 39t-42 103q0 76 23.5 166t23.5 137q0 82 -115 82q-141 0 -188 -197q-23 -98 -23 -287q0 -86 34 -141t93 -49q29 4 91.5 33.5t99.5 29.5q43 0 73.5 -25.5t30.5 -62.5q0 -25 -15 -45t-38 -24q-51 66 -164 61q-88 -4 -146.5 -63.5t-64.5 -167.5 q-10 -137 20.5 -265.5t86.5 -168.5q61 -61 137 -29q49 20 58 69.5t-12.5 150.5t-23.5 124q-6 88 30 153.5t110 69.5q59 4 104 -32.5t60 -106.5q-31 4 -46.5 -25.5t-13.5 -70.5t6 -82q2 -37 6.5 -80t-16 -86t-56.5 -78t-112 -56.5t-182 -21.5z" glyph-name="Emacron" horiz-adv-x="925" unicode="Ē"/><glyph d="M731 1430h-455v63h455v-63zM496 -35q-455 0 -455 502q0 12 1 27.5t4 49.5t5 68q8 111 25.5 196t52.5 165t88 131t135 82t191 31q80 0 138 -11.5t114.5 -43.5t83 -97.5t16.5 -163.5q-16 -180 -187 -265t-421 -73q-4 -35 -4 -108q0 -121 18 -217.5t66.5 -164t121.5 -67.5 q66 0 85.5 46t19.5 167v84q0 88 44 137t116 49q111 0 131 -106q-49 -12 -49 -176q0 -115 -100.5 -178.5t-239.5 -63.5zM287 614q115 -20 201.5 33t127.5 141.5t59.5 167t16.5 129.5q-6 49 -31.5 74t-56.5 25q-109 0 -213 -168.5t-104 -401.5z" glyph-name="emacron" horiz-adv-x="929" unicode="ē"/><glyph d="M446 1579q-70 0 -109.5 46t-39.5 107.5t40 106.5t109 45q74 0 114 -44t40 -107q0 -61 -41 -107.5t-113 -46.5zM463 -35q-51 0 -97.5 5t-108.5 24.5t-107.5 54.5t-77 100.5t-31.5 153.5q0 80 45 208t45 218q0 94 -45 221t-45 205q0 315 401 315q238 0 322 -50t84 -154 q0 -25 -11.5 -77t-11.5 -79q0 -41 14.5 -62.5t45.5 -13.5q-12 -59 -55.5 -91t-96.5 -32q-57 0 -99 39t-42 103q0 76 23.5 166t23.5 137q0 82 -115 82q-141 0 -188 -197q-23 -98 -23 -287q0 -86 34 -141t93 -49q29 4 91.5 33.5t99.5 29.5q43 0 73.5 -25.5t30.5 -62.5 q0 -25 -15 -45t-38 -24q-51 66 -164 61q-88 -4 -146.5 -63.5t-64.5 -167.5q-10 -137 20.5 -265.5t86.5 -168.5q61 -61 137 -29q49 20 58 69.5t-12.5 150.5t-23.5 124q-6 88 30 153.5t110 69.5q59 4 104 -32.5t60 -106.5q-31 4 -46.5 -25.5t-13.5 -70.5t6 -82q2 -37 6.5 -80 t-16 -86t-56.5 -78t-112 -56.5t-182 -21.5z" glyph-name="Edotaccent" horiz-adv-x="925" unicode="Ė"/><glyph d="M512 1325q-70 0 -110 46t-40 107.5t40 106.5t110 45q74 0 114 -44t40 -107q0 -61 -41 -107.5t-113 -46.5zM496 -35q-455 0 -455 502q0 12 1 27.5t4 49.5t5 68q8 111 25.5 196t52.5 165t88 131t135 82t191 31q80 0 138 -11.5t114.5 -43.5t83 -97.5t16.5 -163.5 q-16 -180 -187 -265t-421 -73q-4 -35 -4 -108q0 -121 18 -217.5t66.5 -164t121.5 -67.5q66 0 85.5 46t19.5 167v84q0 88 44 137t116 49q111 0 131 -106q-49 -12 -49 -176q0 -115 -100.5 -178.5t-239.5 -63.5zM287 614q115 -20 201.5 33t127.5 141.5t59.5 167t16.5 129.5 q-6 49 -31.5 74t-56.5 25q-109 0 -213 -168.5t-104 -401.5z" glyph-name="edotaccent" horiz-adv-x="929" unicode="ė"/><glyph d="M713 604q59 4 104 -32.5t60 -106.5q-31 4 -46.5 -25.5t-13.5 -70.5t6 -82q45 -240 -186 -301q-47 -41 -69.5 -89.5t0 -98.5t102.5 -77l-43 -92q-127 0 -182.5 59.5t-35 138.5t94.5 138h-41q-51 0 -97.5 5t-108.5 24.5t-107.5 54.5t-77 100.5t-31.5 153.5q0 80 45 208 t45 218q0 94 -45 221t-45 205q0 315 401 315q238 0 322 -50t84 -154q0 -25 -11.5 -77t-11.5 -79q0 -41 14.5 -62.5t45.5 -13.5q-12 -59 -55.5 -91t-96.5 -32q-57 0 -99 39t-42 103q0 76 23.5 166t23.5 137q0 82 -115 82q-141 0 -188 -197q-23 -98 -23 -287q0 -86 34 -141 t93 -49q29 4 91.5 33.5t99.5 29.5q43 0 73.5 -25.5t30.5 -62.5q0 -25 -15 -45t-38 -24q-51 66 -164 61q-88 -4 -146.5 -63.5t-64.5 -167.5q-10 -137 20.5 -265.5t86.5 -168.5q61 -61 137 -29q49 20 58 69.5t-12.5 150.5t-23.5 124q-6 88 30 153.5t110 69.5z" glyph-name="Eogonek" horiz-adv-x="925" unicode="Ę"/><glyph d="M895 901q-16 -180 -187 -265t-421 -73q-4 -35 -4 -108q0 -121 18 -217.5t66.5 -164t121.5 -67.5q66 0 85.5 46t19.5 167v84q0 88 44 137t116 49q111 0 131 -106q-49 -12 -49 -176q0 -104 -93 -172v-2q-39 -25 -68.5 -63t-40.5 -80t15.5 -81.5t93.5 -62.5l-43 -92 q-119 0 -175 53t-44.5 126t72.5 134q-18 -2 -57 -2q-455 0 -455 502q0 12 1 27.5t4 49.5t5 68q8 111 25.5 196t52.5 165t88 131t135 82t191 31q80 0 138 -11.5t114.5 -43.5t83 -97.5t16.5 -163.5zM604 1184q-109 0 -213 -168t-104 -402q115 -20 201.5 33t127.5 141.5 t59.5 167t16.5 129.5q-6 49 -31.5 74t-56.5 25z" glyph-name="eogonek" horiz-adv-x="929" unicode="ę"/><glyph d="M98 1909l193 102q0 -76 64.5 -190.5t86.5 -188.5q18 70 91 184.5t67 188.5l197 -100q-61 -76 -138 -127.5t-129.5 -94.5t-80.5 -120h-17q-27 82 -79 125t-126 93t-129 128zM463 -35q-51 0 -97.5 5t-108.5 24.5t-107.5 54.5t-77 100.5t-31.5 153.5q0 80 45 208t45 218 q0 94 -45 221t-45 205q0 315 401 315q238 0 322 -50t84 -154q0 -25 -11.5 -77t-11.5 -79q0 -41 14.5 -62.5t45.5 -13.5q-12 -59 -55.5 -91t-96.5 -32q-57 0 -99 39t-42 103q0 76 23.5 166t23.5 137q0 82 -115 82q-141 0 -188 -197q-23 -98 -23 -287q0 -86 34 -141t93 -49 q29 4 91.5 33.5t99.5 29.5q43 0 73.5 -25.5t30.5 -62.5q0 -25 -15 -45t-38 -24q-51 66 -164 61q-88 -4 -146.5 -63.5t-64.5 -167.5q-10 -137 20.5 -265.5t86.5 -168.5q61 -61 137 -29q49 20 58 69.5t-12.5 150.5t-23.5 124q-6 88 30 153.5t110 69.5q59 4 104 -32.5 t60 -106.5q-31 4 -46.5 -25.5t-13.5 -70.5t6 -82q2 -37 6.5 -80t-16 -86t-56.5 -78t-112 -56.5t-182 -21.5z" glyph-name="Ecaron" horiz-adv-x="925" unicode="Ě"/><glyph d="M164 1655l192 102q0 -76 64.5 -190.5t87.5 -188.5q18 70 91 184.5t67 188.5l196 -100q-61 -76 -138 -127t-129 -94.5t-81 -120.5h-16q-27 82 -79 125t-126 93t-129 128zM496 -35q-455 0 -455 502q0 12 1 27.5t4 49.5t5 68q8 111 25.5 196t52.5 165t88 131t135 82t191 31 q80 0 138 -11.5t114.5 -43.5t83 -97.5t16.5 -163.5q-16 -180 -187 -265t-421 -73q-4 -35 -4 -108q0 -121 18 -217.5t66.5 -164t121.5 -67.5q66 0 85.5 46t19.5 167v84q0 88 44 137t116 49q111 0 131 -106q-49 -12 -49 -176q0 -115 -100.5 -178.5t-239.5 -63.5zM287 614 q115 -20 201.5 33t127.5 141.5t59.5 167t16.5 129.5q-6 49 -31.5 74t-56.5 25q-109 0 -213 -168.5t-104 -401.5z" glyph-name="ecaron" horiz-adv-x="929" unicode="ě"/><glyph d="M498 1626q-131 0 -208 52.5t-77 152.5q0 74 16 123h25q12 -92 64.5 -130t179.5 -38q123 0 176 38t69 130h25q8 -33 8 -94q0 -102 -74.5 -168t-203.5 -66zM487 -35q-276 0 -379.5 102.5t-64.5 342.5q31 207 30 307t-30 350q-23 205 103 301t341 96q170 0 281 -57t111 -147 q0 -39 -6.5 -86.5t-9.5 -73t7.5 -59t36.5 -66.5q-90 -29 -160.5 -27t-107.5 62.5t-16 171.5q23 115 -12.5 179t-98.5 64q-90 0 -168 -122.5t-78 -337.5q0 -109 25 -248q37 -190 28 -408q-10 -164 39.5 -236.5t180.5 -72.5q43 0 66.5 21.5t26.5 65.5t1 83t-21.5 105.5 t-30 100.5t-32.5 95q-47 143 20.5 232.5t184.5 89.5q121 0 192 -84q-47 -2 -71.5 -32t-26.5 -81t2 -92t12 -94q2 -16 4 -23q20 -92 17.5 -170t-31.5 -134t-119 -87t-246 -31z" glyph-name="Gbreve" horiz-adv-x="995" unicode="Ğ"/><glyph d="M492 1372q-131 0 -208 52.5t-77 152.5q0 74 16 123h25q12 -92 64.5 -130t179.5 -38q123 0 176 38t69 130h25q8 -33 8 -94q0 -102 -74.5 -168t-203.5 -66zM457 -426q-131 0 -245 50t-185 138l118 132q150 -141 310 -142q94 0 153.5 61.5t78 148.5t7.5 192 q-33 -94 -106.5 -138.5t-165.5 -44.5q-164 0 -266.5 86t-102.5 211q0 66 16.5 196t16.5 185q0 76 -7 154t-7 137q0 137 116.5 210t309.5 73q354 0 366 -230q6 -82 -6 -195.5t-12 -154.5q0 -59 8 -131t22.5 -167t20.5 -146q31 -254 -90 -439.5t-350 -185.5zM473 63 q82 0 133 74t51 180q2 55 -22.5 168t-24.5 170q0 74 14.5 215.5t14.5 180.5q0 66 -40 101.5t-99 35.5q-88 0 -134.5 -45t-39.5 -131q4 -53 5 -114.5t-1 -138.5t-2 -110q0 -106 -22.5 -246.5t-22.5 -177.5q0 -74 55 -118t135 -44z" glyph-name="gbreve" horiz-adv-x="968" unicode="ğ"/><glyph d="M498 1579q-70 0 -110 46t-40 107.5t40 106.5t110 45q74 0 113.5 -44t39.5 -107q0 -61 -40.5 -107.5t-112.5 -46.5zM487 -35q-276 0 -379.5 102.5t-64.5 342.5q31 207 30 307t-30 350q-23 205 103 301t341 96q170 0 281 -57t111 -147q0 -39 -6.5 -86.5t-9.5 -73t7.5 -59 t36.5 -66.5q-90 -29 -160.5 -27t-107.5 62.5t-16 171.5q23 115 -12.5 179t-98.5 64q-90 0 -168 -122.5t-78 -337.5q0 -109 25 -248q37 -190 28 -408q-10 -164 39.5 -236.5t180.5 -72.5q43 0 66.5 21.5t26.5 65.5t1 83t-21.5 105.5t-30 100.5t-32.5 95q-47 143 20.5 232.5 t184.5 89.5q121 0 192 -84q-47 -2 -71.5 -32t-26.5 -81t2 -92t12 -94q2 -16 4 -23q20 -92 17.5 -170t-31.5 -134t-119 -87t-246 -31z" glyph-name="Gdotaccent" horiz-adv-x="995" unicode="Ġ"/><glyph d="M492 1325q-70 0 -110 46t-40 107.5t40 106.5t110 45q74 0 113.5 -44t39.5 -107q0 -61 -40.5 -107.5t-112.5 -46.5zM457 -426q-131 0 -245 50t-185 138l118 132q150 -141 310 -142q94 0 153.5 61.5t78 148.5t7.5 192q-33 -94 -106.5 -138.5t-165.5 -44.5q-164 0 -266.5 86 t-102.5 211q0 66 16.5 196t16.5 185q0 76 -7 154t-7 137q0 137 116.5 210t309.5 73q354 0 366 -230q6 -82 -6 -195.5t-12 -154.5q0 -59 8 -131t22.5 -167t20.5 -146q31 -254 -90 -439.5t-350 -185.5zM473 63q82 0 133 74t51 180q2 55 -22.5 168t-24.5 170q0 74 14.5 215.5 t14.5 180.5q0 66 -40 101.5t-99 35.5q-88 0 -134.5 -45t-39.5 -131q4 -53 5 -114.5t-1 -138.5t-2 -110q0 -106 -22.5 -246.5t-22.5 -177.5q0 -74 55 -118t135 -44z" glyph-name="gdotaccent" horiz-adv-x="968" unicode="ġ"/><glyph d="M487 -35q-276 0 -379.5 102.5t-64.5 342.5q31 207 30 307t-30 350q-23 205 103 301t341 96q170 0 281 -57t111 -147q0 -39 -6.5 -86.5t-9.5 -73t7.5 -59t36.5 -66.5q-90 -29 -160.5 -27t-107.5 62.5t-16 171.5q23 115 -12.5 179t-98.5 64q-90 0 -168 -122.5t-78 -337.5 q0 -109 25 -248q37 -190 28 -408q-10 -164 39.5 -236.5t180.5 -72.5q43 0 66.5 21.5t26.5 65.5t1 83t-21.5 105.5t-30 100.5t-32.5 95q-47 143 20.5 232.5t184.5 89.5q121 0 192 -84q-47 -2 -71.5 -32t-26.5 -81t2 -92t12 -94q2 -16 4 -23q20 -92 17.5 -170t-31.5 -134 t-119 -87t-246 -31zM354 -573l-32 14q45 68 40.5 211t59.5 211h194q-41 -51 -78.5 -147.5t-80 -175t-103.5 -113.5z" glyph-name="Gcommaaccent" horiz-adv-x="995" unicode="Ģ"/><glyph d="M606 1368h-192q-31 123 8 251t174 191l27 -36q-55 -37 -81 -76t-22 -81t16.5 -76t36 -86t33.5 -87zM457 -426q-131 0 -245 50t-185 138l118 132q150 -141 310 -142q94 0 153.5 61.5t78 148.5t7.5 192q-33 -94 -106.5 -138.5t-165.5 -44.5q-164 0 -266.5 86t-102.5 211 q0 66 16.5 196t16.5 185q0 76 -7 154t-7 137q0 137 116.5 210t309.5 73q354 0 366 -230q6 -82 -6 -195.5t-12 -154.5q0 -59 8 -131t22.5 -167t20.5 -146q31 -254 -90 -439.5t-350 -185.5zM473 63q82 0 133 74t51 180q2 55 -22.5 168t-24.5 170q0 74 14.5 215.5t14.5 180.5 q0 66 -40 101.5t-99 35.5q-88 0 -134.5 -45t-39.5 -131q4 -53 5 -114.5t-1 -138.5t-2 -110q0 -106 -22.5 -246.5t-22.5 -177.5q0 -74 55 -118t135 -44z" glyph-name="gcommaaccent" horiz-adv-x="968" unicode="ģ"/><glyph d="M854 780q0 -119 24.5 -253t65.5 -291.5t55 -235.5h-356q-20 80 -20 162q0 143 48 329.5t48 213.5q0 31 -19.5 39t-66.5 12q-111 8 -178 4q-57 -2 -90 -87t-33 -218q0 -236 117 -455h-381q0 131 64.5 395t64.5 369q0 127 -54 283h-47v32h35q-55 160 -43 359h315 q2 -43 -1 -95.5t-8 -84t-17 -96t-15 -83.5h369q-8 33 -30.5 117t-34 140.5t-11.5 101.5h306q12 -104 12 -176q0 -100 -23 -183h11v-32h-23q-10 -27 -34.5 -76t-37 -91.5t-12.5 -99.5zM606 801q152 0 152 117q0 45 -19 129h-383q-12 -61 -12 -111q0 -66 28.5 -99.5 t114.5 -35.5h119z" glyph-name="Hbar" horiz-adv-x="1054" unicode="Ħ"/><glyph d="M797 651q0 -59 31.5 -118.5t70.5 -103.5t70.5 -132t31.5 -199q0 -25 -8 -98h-307q35 123 33 202t-31 146.5t-61.5 111.5t-60 98t-27.5 104q0 88 61.5 187t122.5 175t61 104q0 33 -61 33q-135 0 -266 -146.5t-131 -381.5q0 -80 31.5 -170t55 -203t11.5 -260h-328 q-23 131 3 238.5t63 225.5t37 245q0 43 -54.5 225t-68.5 307h-107v41h103q-2 20 -2 64q0 102 43 194h307q0 -113 -60 -258h97v-41h-113q-2 -6 -14.5 -31.5t-15.5 -34t-13 -31t-13 -32.5t-11.5 -31.5t-11.5 -34t-8 -32t-7 -33.5t-4 -32.5t-2 -35.5q0 -84 10 -143 q27 96 75 176t102 129t116.5 83t115 47.5t97.5 13.5q111 0 172 -55.5t49 -145.5q-6 -47 -26.5 -84t-47 -62.5t-51.5 -52t-42 -70t-17 -98.5z" glyph-name="hbar" horiz-adv-x="1034" unicode="ħ"/><glyph d="M455 1683h-455v64h455v-64zM428 0h-373q-4 41 -4 57q0 90 104.5 292t104.5 300q0 86 -57 158q-72 88 -111 170t-46 166t-2 140t24 155h356q-145 -236 -145 -420q0 -123 67 -211q66 -88 66 -305q0 -49 -7.5 -169t-3.5 -198t27 -135z" glyph-name="Imacron" horiz-adv-x="471" unicode="Ī"/><glyph d="M432 1430h-455v63h455v-63zM387 0h-332q-14 106 3.5 197.5t50 143.5t61.5 116.5t36 122t-26 157.5q-20 53 -62 148.5t-58.5 156t-16.5 142.5h332q12 -90 -0.5 -163t-36 -112t-43 -90t-21.5 -98t29 -137q63 -160 66.5 -340.5t17.5 -243.5z" glyph-name="imacron" horiz-adv-x="430" unicode="ī"/><glyph d="M412 502q0 -49 -7.5 -169t-3 -198t26.5 -135h-2v-8q-39 -25 -68.5 -63t-41 -80t15 -81.5t94.5 -62.5l-43 -92q-113 0 -169 48t-52 112.5t54 130t132 96.5h-293q-4 41 -4 57q0 90 104.5 292t104.5 300q0 86 -57 158q-72 88 -111 170t-46 166t-2 140t24 155h356 q-145 -236 -145 -420q0 -123 67 -211q66 -88 66 -305z" glyph-name="Iogonek" horiz-adv-x="471" unicode="Į"/><glyph d="M213 1325q-70 0 -110 46t-40 107.5t40 106.5t110 45q74 0 114 -44t40 -107q0 -61 -41 -107.5t-113 -46.5zM387 0v-8q-39 -25 -68.5 -63t-41 -80t15 -81.5t94.5 -62.5l-43 -92q-113 0 -169 48t-52 112.5t54 130t132 96.5h-254q-14 106 3.5 197.5t50 143.5t61.5 116.5 t36 122t-26 157.5q-20 53 -62 148.5t-58.5 156t-16.5 142.5h332q12 -90 -0.5 -163t-36 -112t-43 -90t-21.5 -98t29 -137q63 -160 66.5 -340.5t17.5 -243.5z" glyph-name="iogonek" horiz-adv-x="430" unicode="į"/><glyph d="M236 1579q-70 0 -110 46t-40 107.5t40 106.5t110 45q74 0 113.5 -44t39.5 -107q0 -61 -40.5 -107.5t-112.5 -46.5zM428 0h-373q-4 41 -4 57q0 90 104.5 292t104.5 300q0 86 -57 158q-72 88 -111 170t-46 166t-2 140t24 155h356q-145 -236 -145 -420q0 -123 67 -211 q66 -88 66 -305q0 -49 -7.5 -169t-3.5 -198t27 -135z" glyph-name="Idotaccent" horiz-adv-x="471" unicode="İ"/><glyph d="M387 0h-332q-14 106 3.5 197.5t50 143.5t61.5 116.5t36 122t-26 157.5q-20 53 -62 148.5t-58.5 156t-16.5 142.5h332q12 -90 -0.5 -163t-36 -112t-43 -90t-21.5 -98t29 -137q63 -160 66.5 -340.5t17.5 -243.5z" glyph-name="dotlessi" horiz-adv-x="430" unicode="ı"/><glyph d="M381 0h-307q-18 66 -19 139q0 119 42 219.5t84 188.5t42 180q0 70 -22.5 137.5t-48 121.5t-40 172t-1.5 280h311q6 -121 -16.5 -227.5t-52 -172t-46 -171t-0.5 -228.5q145 410 291.5 600.5t378.5 198.5v-303q-172 -16 -244 -43q-240 -86 -381 -430q8 6 78 70.5t126 95 t124 30.5q88 0 147.5 -65.5t88 -190.5t42 -241.5t23.5 -284.5q2 -51 4 -76h-326q18 254 -36 473t-121 229q-43 8 -104.5 -53t-86.5 -117q-25 -57 -24.5 -114.5t15.5 -104.5t40 -136t39 -177zM377 -573l-33 14q45 68 41 211t59 211h195q-41 -51 -79 -147.5t-80 -175 t-103 -113.5z" glyph-name="Kcommaaccent" horiz-adv-x="1042" unicode="Ķ"/><glyph d="M406 0h-349q-16 68 -16 139q0 94 25.5 179t57.5 137.5t57.5 125t25.5 146.5q0 86 -61.5 334t-61.5 479h336q2 -18 2 -53q0 -174 -73 -446.5t-73 -313.5q0 -25 12.5 -37t37 12.5t45.5 65.5q18 43 51 122t48 113.5t44 85t52.5 71t58 37.5t77.5 17q59 0 132 -39.5t124 -39.5 v-248q-33 -25 -73 -25q-53 0 -123 74t-121 74q-82 0 -137 -79t-55 -128q0 -27 49 -27q31 0 69.5 14.5t67.5 14.5q59 0 106 -25.5t79 -73t56.5 -111t41 -142t31 -165.5t26.5 -182q8 -72 14 -106h-381q68 141 68 297q0 166 -66.5 282.5t-183.5 116.5q-45 0 -85 -61.5 t-40 -118.5q0 -66 44.5 -242t60.5 -274zM371 -573l-33 14q45 68 41 211t59 211h195q-41 -51 -79 -147.5t-80 -175t-103 -113.5z" glyph-name="kcommaaccent" horiz-adv-x="1030" unicode="ķ"/><glyph d="M160 1534l-19 10q-2 76 30 140.5t81 110.5t100 85t94 84t54 88l164 -133q-47 -68 -132.5 -117t-157 -72.5t-135 -72.5t-79.5 -123zM440 -35q-193 0 -300 105.5t-107 275.5q0 113 74.5 350.5t74.5 386.5q0 152 -51 355h367q10 -160 -43.5 -362t-112.5 -383t-61 -275 q-6 -201 75.5 -296t202.5 -95q84 0 84 75q0 18 -38 65.5t-46 98.5q-25 98 17 147.5t112 49.5q90 0 131 -60q-33 -20 -36 -72t5 -102q12 -45 0 -91t-40.5 -83t-107.5 -61.5t-200 -28.5z" glyph-name="Lacute" horiz-adv-x="851" unicode="Ĺ"/><glyph d="M109 1655l-19 10q-2 76 30 140.5t81 110.5t100 85t94 84t54 88l163 -133q-47 -68 -132 -117t-156.5 -72.5t-135 -72.5t-79.5 -123zM391 0h-336q0 111 22.5 217.5t52.5 177t56.5 156.5t32.5 155.5t-14 172.5q-31 125 -73 235.5t-56.5 187t-14.5 238.5h357 q0 -106 -25.5 -191t-56.5 -135.5t-55.5 -102.5t-23.5 -126t40 -174q31 -82 49.5 -140.5t29.5 -99.5t14 -107.5t3 -105.5t-1 -156.5t-1 -201.5z" glyph-name="lacute" horiz-adv-x="464" unicode="ĺ"/><glyph d="M440 -35q-193 0 -300 105.5t-107 275.5q0 113 74.5 350.5t74.5 386.5q0 152 -51 355h367q10 -160 -43.5 -362t-112.5 -383t-61 -275q-6 -201 75.5 -296t202.5 -95q84 0 84 75q0 18 -38 65.5t-46 98.5q-25 98 17 147.5t112 49.5q90 0 131 -60q-33 -20 -36 -72t5 -102 q12 -45 0 -91t-40.5 -83t-107.5 -61.5t-200 -28.5zM307 -573l-33 14q45 68 41 211t60 211h194q-41 -51 -78.5 -147.5t-80 -175t-103.5 -113.5z" glyph-name="Lcommaaccent" horiz-adv-x="851" unicode="Ļ"/><glyph d="M391 0h-336q0 111 22.5 217.5t52.5 177t56.5 156.5t32.5 155.5t-14 172.5q-31 125 -73 235.5t-56.5 187t-14.5 238.5h357q0 -106 -25.5 -191t-56.5 -135.5t-55.5 -102.5t-23.5 -126t40 -174q31 -82 49.5 -140.5t29.5 -99.5t14 -107.5t3 -105.5t-1 -156.5t-1 -201.5z M109 -573l-33 14q45 68 41 211t59 211h195q-41 -51 -79 -147.5t-80 -175t-103 -113.5z" glyph-name="lcommaaccent" horiz-adv-x="464" unicode="ļ"/><glyph d="M440 -35q-193 0 -300 105.5t-107 275.5q0 113 74.5 350.5t74.5 386.5q0 152 -51 355h367q10 -160 -43.5 -362t-112.5 -383t-61 -275q-6 -201 75.5 -296t202.5 -95q84 0 84 75q0 18 -38 65.5t-46 98.5q-25 98 17 147.5t112 49.5q90 0 131 -60q-33 -20 -36 -72t5 -102 q12 -45 0 -91t-40.5 -83t-107.5 -61.5t-200 -28.5zM934 1014q59 72 65.5 183.5t-22.5 223.5h211q0 -152 -62.5 -263t-191.5 -144z" glyph-name="Lcaron" horiz-adv-x="1323" unicode="Ľ"/><glyph d="M530 1137q61 72 67.5 183.5t-22.5 223.5h211q0 -152 -62.5 -263t-193.5 -144zM391 0h-336q0 111 22.5 217.5t52.5 177t56.5 156.5t32.5 155.5t-14 172.5q-31 125 -73 235.5t-56.5 187t-14.5 238.5h357q0 -106 -25.5 -191t-56.5 -135.5t-55.5 -102.5t-23.5 -126t40 -174 q31 -82 49.5 -140.5t29.5 -99.5t14 -107.5t3 -105.5t-1 -156.5t-1 -201.5z" glyph-name="lcaron" horiz-adv-x="841" unicode="ľ"/><glyph d="M819 403q-33 -20 -36 -72t5 -102q12 -45 0 -91t-40.5 -83t-107.5 -61.5t-200 -28.5q-193 0 -300 105.5t-107 275.5q0 109 53 283l-104 -43l-15 47l137 55q78 242 78 395q0 152 -51 355h367q6 -100 -14.5 -224t-43 -204t-67.5 -215l141 57l14 -45l-176 -72 q-70 -215 -71 -317q-6 -201 75.5 -296t202.5 -95q84 0 84 75q0 18 -38 65.5t-46 98.5q-25 98 17 147.5t112 49.5q90 -1 131 -60z" glyph-name="Lslash" horiz-adv-x="851" unicode="Ł"/><glyph d="M504 920l14 -46l-213 -86q29 -76 45.5 -131t26.5 -95t13 -105.5t3 -104.5t-1 -154.5t-1 -197.5h-336q0 147 42 285.5t83 255t41 213.5l-250 -101l-14 47l260 105q-4 37 -12 74q-31 125 -73 235.5t-56.5 187t-14.5 238.5h357q0 -90 -17.5 -163.5t-42 -118t-49 -91.5 t-40 -87t-12.5 -103.5t32 -142.5z" glyph-name="lslash" horiz-adv-x="464" unicode="ł"/><glyph d="M389 1534l-18 10q-2 76 29.5 140.5t80.5 110.5t100.5 85t94.5 84t53 88l164 -133q-47 -68 -132 -117t-157 -72.5t-135.5 -72.5t-79.5 -123zM406 0h-336q-12 164 5 334t54 359.5t45 246.5q18 135 -15.5 258t-125.5 148q41 127 151 127q76 0 133.5 -72t53.5 -191 q76 121 183.5 180.5t221.5 59.5q106 0 163.5 -53.5t57.5 -155.5q0 -74 -27.5 -144.5t-58 -119.5t-50 -130t-5.5 -175q12 -88 49 -162t65.5 -115t46 -144.5t-6.5 -250.5h-330q25 258 19.5 379t-42.5 299q-23 162 -6 257t47.5 207.5t30.5 160.5q0 53 -47 62t-117 -30 q-80 -29 -160.5 -207t-80.5 -364q0 -94 28.5 -213t49 -255t4.5 -296z" glyph-name="Nacute" horiz-adv-x="1064" unicode="Ń"/><glyph d="M369 1280l-19 10q-2 76 30 140.5t81 110.5t100 85t94 84t54 88l163 -133q-47 -68 -132 -117t-156.5 -72.5t-135 -72.5t-79.5 -123zM395 0h-307q-29 84 -29 172q0 102 55.5 300t67.5 276q18 129 -20.5 231t-120.5 102q12 137 152 138q43 0 76.5 -19.5t58 -55.5t37 -62.5 t26.5 -65.5q164 203 363 203q219 0 219 -209q0 -72 -49.5 -203t-49.5 -232q0 -104 70 -271t86 -304h-307q8 125 -23 244q-6 49 -48 171t-42 201q0 96 35 179.5t70 148t35 119.5q0 37 -22.5 57.5t-59.5 20.5q-84 0 -163 -78t-122 -203q-72 -205 -14 -475q51 -244 26 -385z " glyph-name="nacute" horiz-adv-x="1062" unicode="ń"/><glyph d="M406 0h-336q-12 164 5 334t54 359.5t45 246.5q18 135 -15.5 258t-125.5 148q41 127 151 127q76 0 133.5 -72t53.5 -191q76 121 183.5 180.5t221.5 59.5q106 0 163.5 -53.5t57.5 -155.5q0 -74 -27.5 -144.5t-58 -119.5t-50 -130t-5.5 -175q12 -88 49 -162t65.5 -115 t46 -144.5t-6.5 -250.5h-330q25 258 19.5 379t-42.5 299q-23 162 -6 257t47.5 207.5t30.5 160.5q0 53 -47 62t-117 -30q-80 -29 -160.5 -207t-80.5 -364q0 -94 28.5 -213t49 -255t4.5 -296zM389 -573l-33 14q45 68 41 211t60 211h194q-41 -51 -78.5 -147.5t-80 -175 t-103.5 -113.5z" glyph-name="Ncommaaccent" horiz-adv-x="1064" unicode="Ņ"/><glyph d="M395 0h-307q-29 84 -29 172q0 102 55.5 300t67.5 276q18 129 -20.5 231t-120.5 102q12 137 152 138q43 0 76.5 -19.5t58 -55.5t37 -62.5t26.5 -65.5q164 203 363 203q219 0 219 -209q0 -72 -49.5 -203t-49.5 -232q0 -104 70 -271t86 -304h-307q8 125 -23 244 q-6 49 -48 171t-42 201q0 96 35 179.5t70 148t35 119.5q0 37 -22.5 57.5t-59.5 20.5q-84 0 -163 -78t-122 -203q-72 -205 -14 -475q51 -244 26 -385zM418 -573l-33 14q45 68 41 211t59 211h195q-41 -51 -79 -147.5t-80 -175t-103 -113.5z" glyph-name="ncommaaccent" horiz-adv-x="1062" unicode="ņ"/><glyph d="M184 1909l193 102q0 -76 64.5 -190.5t86.5 -188.5q18 70 91 184.5t67 188.5l197 -100q-61 -76 -138 -127.5t-129.5 -94.5t-80.5 -120h-17q-27 82 -79 125t-126 93t-129 128zM406 0h-336q-12 164 5 334t54 359.5t45 246.5q18 135 -15.5 258t-125.5 148q41 127 151 127 q76 0 133.5 -72t53.5 -191q76 121 183.5 180.5t221.5 59.5q106 0 163.5 -53.5t57.5 -155.5q0 -74 -27.5 -144.5t-58 -119.5t-50 -130t-5.5 -175q12 -88 49 -162t65.5 -115t46 -144.5t-6.5 -250.5h-330q25 258 19.5 379t-42.5 299q-23 162 -6 257t47.5 207.5t30.5 160.5 q0 53 -47 62t-117 -30q-80 -29 -160.5 -207t-80.5 -364q0 -94 28.5 -213t49 -255t4.5 -296z" glyph-name="Ncaron" horiz-adv-x="1064" unicode="Ň"/><glyph d="M164 1655l192 102q0 -76 64.5 -190.5t87.5 -188.5q18 70 91 184.5t67 188.5l196 -100q-61 -76 -138 -127t-129 -94.5t-81 -120.5h-16q-27 82 -79 125t-126 93t-129 128zM395 0h-307q-29 84 -29 172q0 102 55.5 300t67.5 276q18 129 -20.5 231t-120.5 102q12 137 152 138 q43 0 76.5 -19.5t58 -55.5t37 -62.5t26.5 -65.5q164 203 363 203q219 0 219 -209q0 -72 -49.5 -203t-49.5 -232q0 -104 70 -271t86 -304h-307q8 125 -23 244q-6 49 -48 171t-42 201q0 96 35 179.5t70 148t35 119.5q0 37 -22.5 57.5t-59.5 20.5q-84 0 -163 -78t-122 -203 q-72 -205 -14 -475q51 -244 26 -385z" glyph-name="ncaron" horiz-adv-x="1062" unicode="ň"/><glyph d="M856 672q12 -88 49 -162t65.5 -115t46 -144.5t-6.5 -250.5q-37 -354 -494 -322v56q41 0 69.5 14t44 30.5t26 58.5t14.5 69.5t10 93.5q25 258 19.5 379t-42.5 299q-23 162 -6 257t47.5 207.5t30.5 160.5q0 53 -47 62t-117 -30q-80 -29 -160.5 -207t-80.5 -364 q0 -94 28.5 -213t49 -255t4.5 -296h-336q-12 164 5 334t54 359.5t45 246.5q18 135 -15.5 258t-125.5 148q41 127 151 127q76 0 133.5 -72t53.5 -191q76 121 183.5 180.5t221.5 59.5q106 0 163.5 -53.5t57.5 -155.5q0 -74 -27.5 -144.5t-58 -119.5t-50 -130t-5.5 -175z" glyph-name="Eng" horiz-adv-x="1064" unicode="Ŋ"/><glyph d="M631 -371q-113 0 -205 39v31q53 -16 102 -12q113 8 169.5 92t56.5 215q0 123 -72 318.5t-72 303.5q0 96 35 179.5t70 148t35 119.5q0 37 -22.5 57.5t-59.5 20.5q-92 0 -174 -77t-125 -202q-45 -133 -15 -332q4 -37 28 -182t24 -221q0 -55 -11 -127h-307q-29 84 -29 172 q0 106 59.5 319.5t65.5 307.5q8 113 -30.5 197.5t-112.5 84.5q12 137 152 138q53 0 88.5 -41t60.5 -95.5t39 -66.5q6 4 78.5 68.5t142.5 99.5t152 35q219 0 219 -209q0 -72 -49.5 -203t-49.5 -231.5t73 -267.5t83 -308q0 -184 -115.5 -277.5t-283.5 -93.5z" glyph-name="eng" horiz-adv-x="1071" unicode="ŋ"/><glyph d="M748 1683h-455v64h455v-64zM502 -18q-444 0 -445 389q0 72 25 157q23 78 22 160q0 47 -11 148.5t-11 164.5q0 250 107.5 351.5t322.5 101.5q473 0 473 -324q0 -78 -56.5 -186t-56.5 -162q0 -39 33 -98t66 -142t33 -177q0 -98 -32 -171t-79 -113t-119 -63.5t-133 -29.5 t-139 -6zM516 20q141 0 188.5 66t47.5 219q0 84 -41 198.5t-41 207.5q0 127 34.5 249.5t34.5 223.5q0 121 -49 176t-172 55t-170 -58.5t-47 -185.5q0 -61 33 -198t33 -262q0 -86 -33 -212t-33 -241q0 -238 215 -238z" glyph-name="Omacron" horiz-adv-x="1060" unicode="Ō"/><glyph d="M690 1430h-454v63h454v-63zM469 -35q-227 0 -327.5 87t-100.5 216q0 66 24.5 196t24.5 185q0 76 -15.5 154t-15.5 137q0 137 117 210t309 73q168 0 273.5 -62.5t105.5 -177.5q0 -76 -33.5 -153.5t-33.5 -133.5q0 -66 53 -182.5t53 -194.5q0 -174 -114.5 -264t-319.5 -90z M471 6q88 0 140.5 43t52.5 115q0 57 -39 229t-39 266q0 68 20.5 210.5t20.5 181.5q0 66 -39 101.5t-101 35.5q-164 0 -163 -174q0 -18 9 -169t-1 -186q-6 -57 -34 -234t-28 -237q0 -182 201 -182z" glyph-name="omacron" horiz-adv-x="944" unicode="ō"/><glyph d="M326 1534l-19 10q18 109 75.5 202t114 167t70.5 127l162 -111q-55 -68 -120.5 -119t-110.5 -77.5t-93 -76.5t-79 -122zM580 1530l-19 10q10 82 58.5 154.5t101.5 115.5t102 96.5t60 102.5l159 -133q-49 -59 -122.5 -101t-133 -62.5t-118.5 -65.5t-88 -117zM502 -18 q-444 0 -445 389q0 72 25 157q23 78 22 160q0 47 -11 148.5t-11 164.5q0 250 107.5 351.5t322.5 101.5q473 0 473 -324q0 -78 -56.5 -186t-56.5 -162q0 -39 33 -98t66 -142t33 -177q0 -98 -32 -171t-79 -113t-119 -63.5t-133 -29.5t-139 -6zM516 20q141 0 188.5 66t47.5 219 q0 84 -41 198.5t-41 207.5q0 127 34.5 249.5t34.5 223.5q0 121 -49 176t-172 55t-170 -58.5t-47 -185.5q0 -61 33 -198t33 -262q0 -86 -33 -212t-33 -241q0 -238 215 -238z" glyph-name="Ohungarumlaut" horiz-adv-x="1060" unicode="Ő"/><glyph d="M266 1280l-18 10q18 109 75.5 202t114 167t70.5 127l162 -111q-55 -68 -121 -119t-111 -77.5t-93 -76.5t-79 -122zM520 1276l-18 10q10 82 58 154.5t101.5 115.5t102.5 96.5t59 102.5l160 -133q-49 -59 -123 -101t-133 -62.5t-118.5 -65.5t-88.5 -117zM469 -35 q-227 0 -327.5 87t-100.5 216q0 66 24.5 196t24.5 185q0 76 -15.5 154t-15.5 137q0 137 117 210t309 73q168 0 273.5 -62.5t105.5 -177.5q0 -76 -33.5 -153.5t-33.5 -133.5q0 -66 53 -182.5t53 -194.5q0 -174 -114.5 -264t-319.5 -90zM471 6q88 0 140.5 43t52.5 115 q0 57 -39 229t-39 266q0 68 20.5 210.5t20.5 181.5q0 66 -39 101.5t-101 35.5q-164 0 -163 -174q0 -18 9 -169t-1 -186q-6 -57 -34 -234t-28 -237q0 -182 201 -182z" glyph-name="ohungarumlaut" horiz-adv-x="944" unicode="ő"/><glyph d="M518 -18q-477 0 -477 374q0 84 42 191.5t42 171.5q0 45 -35 155.5t-35 198.5q0 201 121 291t352 90q207 0 324 -57q104 74 317 73q238 0 322 -50t84 -154q0 -25 -11.5 -77t-11.5 -79q0 -41 14.5 -62.5t45.5 -13.5q-14 -80 -60.5 -121t-107.5 -41q-70 0 -110 51.5t-40 129 t30 184t30 137.5q0 33 -22.5 48.5t-80.5 15.5q-82 0 -128 -67.5t-66 -201.5q-18 -141 -19 -405h328v-37h-328q0 -100 2 -166.5t7.5 -159t19.5 -150.5t35.5 -115.5t57.5 -85t83 -27.5q100 0 100 61q0 37 -36.5 138.5t-36.5 172.5q0 96 47 152.5t123 56.5q63 0 110 -41 t62 -121q-31 8 -45.5 -13t-14.5 -62q0 -31 10.5 -87.5t10.5 -78.5q0 -215 -404 -215q-199 0 -305 65q-119 -69 -346 -69zM532 20q137 0 214 73t77 200q0 78 -21.5 211t-21.5 225q0 94 17.5 213t17.5 197q0 117 -78 196.5t-202 79.5q-123 0 -164 -56t-41 -188q0 -61 39 -198 t39 -262q0 -86 -39 -207t-39 -236q0 -123 40.5 -185.5t161.5 -62.5z" glyph-name="OE" horiz-adv-x="1652" unicode="Œ"/><glyph d="M481 -35q-227 0 -333.5 87t-106.5 216q0 66 24.5 196t24.5 185q0 76 -15.5 154t-15.5 137q0 137 122 210t317 73q207 0 303 -86q98 80 272 80q61 0 108.5 -6.5t96.5 -27t78.5 -55t46 -95t10.5 -144.5q-29 -377 -536 -326q-6 -49 -3 -121q4 -172 44 -300t110 -128 q53 0 63.5 51.5t8.5 235.5q0 86 49 137t119 51q127 0 147 -106q-53 -12 -49 -176q0 -113 -96 -173.5t-238 -60.5q-154 0 -258 84q-96 -92 -293 -92zM483 6q61 0 99.5 37t53.5 107.5t19 138t7 162.5v41q10 309 -3 477q-2 94 -49 156.5t-110 62.5q-164 0 -164 -174 q0 -197 -14 -371q-2 -23 -21.5 -191.5t-17.5 -263.5q5 -182 200 -182zM877 614q102 -23 173.5 30.5t100.5 147t39 177.5t4 145q-4 70 -59 70q-102 0 -180 -164t-78 -406z" glyph-name="oe" horiz-adv-x="1447" unicode="œ"/><glyph d="M403 1538l-18 10q-2 76 29.5 140.5t81 110.5t100.5 85t94 84t53 88l164 -133q-47 -68 -132 -117t-156.5 -72.5t-135.5 -72.5t-80 -123zM442 0h-342q-39 98 -39 193q0 84 33 168.5t71 143t70.5 134.5t32.5 143q0 74 -31.5 139.5t-68.5 111.5t-68.5 133t-31.5 196 q0 37 6 80q102 -37 170 -37q63 0 169.5 35t190.5 35q217 0 330 -111t113 -260q0 -147 -100.5 -248.5t-270.5 -136.5q147 0 198.5 -54.5t63.5 -152.5q4 -35 5 -145.5t18.5 -196.5t64.5 -170h-385q0 57 18.5 139t34 141.5t18.5 141.5t-26 137q-29 70 -91.5 100.5t-121.5 30.5 q-49 0 -86 -56t-37 -163q0 -262 92 -471zM508 748q117 -20 209 86t92 296q0 147 -69.5 228.5t-159.5 81.5q-70 0 -120 -45t-52 -111q0 -23 5 -62.5t4 -89t-14 -114.5q-14 -96 12.5 -178t92.5 -92z" glyph-name="Racute" horiz-adv-x="1089" unicode="Ŕ"/><glyph d="M268 1280l-18 10q-2 76 29.5 140.5t81 110.5t100.5 85t94 84t53 88l164 -133q-47 -68 -132 -117t-156.5 -72.5t-135.5 -72.5t-80 -123zM406 0h-336q115 250 114 547q0 313 -143 637q66 35 133 35q143 0 188 -150q49 78 119 116t131 38q92 0 144.5 -45t52.5 -115 q0 -49 -14.5 -138t-14.5 -120q0 -74 58 -80q-47 -94 -154 -94q-68 0 -119 45t-51 118.5t63.5 183t63.5 142.5q0 55 -57 56q-84 0 -161 -101.5t-77 -269.5q0 -113 42 -298t42 -331q1 -88 -24 -176z" glyph-name="racute" horiz-adv-x="866" unicode="ŕ"/><glyph d="M442 0h-342q-39 98 -39 193q0 84 33 168.5t71 143t70.5 134.5t32.5 143q0 74 -31.5 139.5t-68.5 111.5t-68.5 133t-31.5 196q0 37 6 80q102 -37 170 -37q63 0 169.5 35t190.5 35q217 0 330 -111t113 -260q0 -147 -100.5 -248.5t-270.5 -136.5q147 0 198.5 -54.5 t63.5 -152.5q4 -35 5 -145.5t18.5 -196.5t64.5 -170h-385q0 57 18.5 139t34 141.5t18.5 141.5t-26 137q-29 70 -91.5 100.5t-121.5 30.5q-49 0 -86 -56t-37 -163q0 -262 92 -471zM508 748q117 -20 209 86t92 296q0 147 -69.5 228.5t-159.5 81.5q-70 0 -120 -45t-52 -111 q0 -23 5 -62.5t4 -89t-14 -114.5q-14 -96 12.5 -178t92.5 -92zM403 -569l-32 14q45 68 41 211t59 211h195q-41 -51 -79 -147.5t-80.5 -175t-103.5 -113.5z" glyph-name="Rcommaaccent" horiz-adv-x="1089" unicode="Ŗ"/><glyph d="M406 0h-336q115 250 114 547q0 313 -143 637q66 35 133 35q143 0 188 -150q49 78 119 116t131 38q92 0 144.5 -45t52.5 -115q0 -49 -14.5 -138t-14.5 -120q0 -74 58 -80q-47 -94 -154 -94q-68 0 -119 45t-51 118.5t63.5 183t63.5 142.5q0 55 -57 56q-84 0 -161 -101.5 t-77 -269.5q0 -113 42 -298t42 -331q1 -88 -24 -176zM174 -573l-33 14q45 68 41 211t60 211h194q-41 -51 -79 -147.5t-80 -175t-103 -113.5z" glyph-name="rcommaaccent" horiz-adv-x="866" unicode="ŗ"/><glyph d="M199 1913l192 102q0 -76 64.5 -190.5t87.5 -188.5q18 70 91 184.5t66 188.5l197 -100q-61 -76 -138 -127t-129 -94t-81 -121h-17q-27 82 -79 125t-125.5 93t-128.5 128zM442 0h-342q-39 98 -39 193q0 84 33 168.5t71 143t70.5 134.5t32.5 143q0 74 -31.5 139.5 t-68.5 111.5t-68.5 133t-31.5 196q0 37 6 80q102 -37 170 -37q63 0 169.5 35t190.5 35q217 0 330 -111t113 -260q0 -147 -100.5 -248.5t-270.5 -136.5q147 0 198.5 -54.5t63.5 -152.5q4 -35 5 -145.5t18.5 -196.5t64.5 -170h-385q0 57 18.5 139t34 141.5t18.5 141.5t-26 137 q-29 70 -91.5 100.5t-121.5 30.5q-49 0 -86 -56t-37 -163q0 -262 92 -471zM508 748q117 -20 209 86t92 296q0 147 -69.5 228.5t-159.5 81.5q-70 0 -120 -45t-52 -111q0 -23 5 -62.5t4 -89t-14 -114.5q-14 -96 12.5 -178t92.5 -92z" glyph-name="Rcaron" horiz-adv-x="1089" unicode="Ř"/><glyph d="M63 1655l193 102q0 -76 64.5 -190.5t87.5 -188.5q18 70 90.5 184.5t66.5 188.5l197 -100q-61 -76 -138 -127t-129.5 -94.5t-80.5 -120.5h-17q-27 82 -79 125t-126 93t-129 128zM406 0h-336q115 250 114 547q0 313 -143 637q66 35 133 35q143 0 188 -150q49 78 119 116 t131 38q92 0 144.5 -45t52.5 -115q0 -49 -14.5 -138t-14.5 -120q0 -74 58 -80q-47 -94 -154 -94q-68 0 -119 45t-51 118.5t63.5 183t63.5 142.5q0 55 -57 56q-84 0 -161 -101.5t-77 -269.5q0 -113 42 -298t42 -331q1 -88 -24 -176z" glyph-name="rcaron" horiz-adv-x="866" unicode="ř"/><glyph d="M338 1534l-19 10q-2 76 30 140.5t81 110.5t100.5 85t94.5 84t53 88l164 -133q-47 -68 -132 -117t-157 -72.5t-135.5 -72.5t-79.5 -123zM463 -35q-188 0 -291.5 93.5t-77.5 240.5q37 205 -37 285q166 20 217 8q98 -23 99 -146q0 -29 -15.5 -115.5t-15.5 -142.5 q0 -92 43 -137t104 -45q168 0 168 199q0 53 -12 145t-12 129q0 61 24.5 149.5t24.5 121.5q0 80 -145 36q-10 -2 -57.5 -20t-95.5 -31.5t-89 -13.5q-129 0 -187.5 101.5t-58.5 248.5q0 215 108.5 307t354.5 92q193 0 293 -70.5t74 -191.5q-4 -23 -19.5 -60.5t-25 -62 t-6.5 -58.5t26 -62q-53 -14 -100 -15.5t-92.5 12t-68 57.5t-13.5 116q29 178 13.5 240.5t-114 62.5t-140.5 -105.5t-42 -257.5q0 -283 164 -274q33 2 122 36.5t146 34.5q106 0 154.5 -99t48.5 -247q0 -561 -469 -561z" glyph-name="Sacute" horiz-adv-x="966" unicode="Ś"/><glyph d="M334 1280l-19 10q-2 76 30 140.5t81 110.5t100.5 85t94.5 84t53 88l164 -133q-47 -68 -132 -117t-157 -72.5t-135.5 -72.5t-79.5 -123zM432 -35q-178 0 -265 74t-73 190q2 18 9.5 50t11.5 60t4 56q0 109 -78 117q63 80 168 72q98 -10 148.5 -85t37.5 -196 q-4 -53 -41 -166q-35 -137 70 -137q100 0 154 123q39 96 47 227q10 94 -36 170t-138 105q-37 14 -109 33.5t-110.5 35t-84 46t-65 80.5t-14.5 124q4 111 62 173.5t137 81t198 18.5q180 0 296 -75t107 -194q-2 -27 -8 -48t-22.5 -42.5t-22.5 -30t-31.5 -33t-27.5 -26.5 q-68 -70 -33 -115q-96 10 -144.5 56.5t-23.5 124.5q63 186 66 249q0 92 -80 97q-92 4 -137.5 -95.5t-45.5 -232.5q0 -63 40 -118.5t106 -84.5q39 -16 106.5 -33.5t114.5 -33t95 -43t73 -79.5t25 -130q-2 -113 -44.5 -188.5t-117 -112.5t-150.5 -50.5t-174 -13.5z" glyph-name="sacute" horiz-adv-x="958" unicode="ś"/><glyph d="M463 -35l-37 -61q59 10 123 10q84 0 131 -33t47 -80q0 -57 -73.5 -95t-168 -67.5t-120.5 -62.5l-54 96q37 27 100.5 56.5t96.5 52t33 51.5q0 39 -209 27l84 108q-168 12 -258 103.5t-64 228.5q37 205 -37 285q166 20 217 8q98 -23 99 -146q0 -29 -15.5 -115.5 t-15.5 -142.5q0 -92 43 -137t104 -45q168 0 168 199q0 53 -12 145t-12 129q0 61 24.5 149.5t24.5 121.5q0 80 -145 36q-10 -2 -57.5 -20t-95.5 -31.5t-89 -13.5q-129 0 -187.5 101.5t-58.5 248.5q0 215 108.5 307t354.5 92q193 0 293 -70.5t74 -191.5q-4 -23 -19.5 -60.5 t-25 -62t-6.5 -58.5t26 -62q-53 -14 -100 -15.5t-92.5 12t-68 57.5t-13.5 116q29 178 13.5 240.5t-114 62.5t-140.5 -105.5t-42 -257.5q0 -283 164 -274q33 2 122 36.5t146 34.5q106 0 154.5 -99t48.5 -247q0 -561 -469 -561z" glyph-name="Scedilla" horiz-adv-x="966" unicode="Ş"/><glyph d="M504 649q39 -16 106.5 -33.5t114.5 -33t95 -43t73 -79.5t25 -130q-4 -356 -459 -365l-37 -61q59 10 123 10q84 0 131 -33t47 -80q0 -57 -74 -95t-168 -67.5t-121 -62.5l-53 96q37 27 100.5 56.5t96.5 52t33 51.5q0 39 -209 27l84 106q-168 4 -250 78t-68 186q2 18 9.5 50 t11.5 60t4 56q0 109 -78 117q63 80 168 72q98 -10 148.5 -85t37.5 -196q-4 -53 -41 -166q-35 -137 70 -137q100 0 154 123q39 96 47 227q10 94 -36 170t-138 105q-37 14 -109 33.5t-110.5 35t-84 46t-65 80.5t-14.5 124q4 111 62 173.5t137 81t198 18.5q180 0 296 -75 t107 -194q-2 -27 -8 -48t-22.5 -42.5t-22.5 -30t-31.5 -33t-27.5 -26.5q-68 -70 -33 -115q-96 10 -144.5 56.5t-23.5 124.5q63 186 66 249q0 92 -80 97q-92 4 -137.5 -95.5t-45.5 -232.5q0 -63 40 -118.5t106 -84.5z" glyph-name="scedilla" horiz-adv-x="958" unicode="ş"/><glyph d="M133 1909l193 102q0 -76 64.5 -190.5t86.5 -188.5q18 70 91 184.5t67 188.5l196 -100q-61 -76 -138 -127.5t-129 -94.5t-81 -120h-16q-27 82 -79 125t-126 93t-129 128zM463 -35q-188 0 -291.5 93.5t-77.5 240.5q37 205 -37 285q166 20 217 8q98 -23 99 -146 q0 -29 -15.5 -115.5t-15.5 -142.5q0 -92 43 -137t104 -45q168 0 168 199q0 53 -12 145t-12 129q0 61 24.5 149.5t24.5 121.5q0 80 -145 36q-10 -2 -57.5 -20t-95.5 -31.5t-89 -13.5q-129 0 -187.5 101.5t-58.5 248.5q0 215 108.5 307t354.5 92q193 0 293 -70.5t74 -191.5 q-4 -23 -19.5 -60.5t-25 -62t-6.5 -58.5t26 -62q-53 -14 -100 -15.5t-92.5 12t-68 57.5t-13.5 116q29 178 13.5 240.5t-114 62.5t-140.5 -105.5t-42 -257.5q0 -283 164 -274q33 2 122 36.5t146 34.5q106 0 154.5 -99t48.5 -247q0 -561 -469 -561z" glyph-name="Scaron" horiz-adv-x="966" unicode="Š"/><glyph d="M129 1655l193 102q0 -76 64.5 -190.5t86.5 -188.5q18 70 91 184.5t67 188.5l196 -100q-61 -76 -138 -127t-129 -94.5t-81 -120.5h-16q-27 82 -79 125t-126 93t-129 128zM432 -35q-178 0 -265 74t-73 190q2 18 9.5 50t11.5 60t4 56q0 109 -78 117q63 80 168 72 q98 -10 148.5 -85t37.5 -196q-4 -53 -41 -166q-35 -137 70 -137q100 0 154 123q39 96 47 227q10 94 -36 170t-138 105q-37 14 -109 33.5t-110.5 35t-84 46t-65 80.5t-14.5 124q4 111 62 173.5t137 81t198 18.5q180 0 296 -75t107 -194q-2 -27 -8 -48t-22.5 -42.5t-22.5 -30 t-31.5 -33t-27.5 -26.5q-68 -70 -33 -115q-96 10 -144.5 56.5t-23.5 124.5q63 186 66 249q0 92 -80 97q-92 4 -137.5 -95.5t-45.5 -232.5q0 -63 40 -118.5t106 -84.5q39 -16 106.5 -33.5t114.5 -33t95 -43t73 -79.5t25 -130q-2 -113 -44.5 -188.5t-117 -112.5t-150.5 -50.5 t-174 -13.5z" glyph-name="scaron" horiz-adv-x="958" unicode="š"/><glyph d="M1051 1266q0 -12 -1 -51t0 -59.5t4 -50.5t14 -46.5t30 -24.5q-96 -66 -168 -65.5t-98.5 72t-0.5 204.5q12 74 -2 117t-51 43q-55 0 -96 -121q-76 -195 -82 -438q-12 -182 17.5 -343t78.5 -304.5t60 -198.5h-203l-57 -96q59 10 122 10q84 0 131.5 -33t47.5 -80 q0 -57 -74 -95t-168 -67.5t-121 -62.5l-53 96q37 27 100.5 56.5t96 52t32.5 51.5q0 39 -209 27l111 141h-104q-33 106 -33 231q0 193 69.5 564.5t63.5 507.5q-6 104 -72 104q-53 0 -69.5 -42t-18.5 -163q-2 -111 -52 -165t-128 -54q-90 0 -139 61q39 12 62.5 62.5 t43.5 159.5q23 121 106 162.5t234 41.5h184q392 1 392 -204z" glyph-name="Tcommaaccent" horiz-adv-x="1114" unicode="Ţ"/><glyph d="M502 412q-8 152 55.5 193.5t245.5 19.5q-35 -45 -41 -109.5t2 -251.5q6 -158 -101.5 -228.5t-283.5 -70.5h-12l-37 -61q59 10 123 10q84 0 131 -33t47 -80q0 -57 -74 -95t-168 -67.5t-121 -62.5l-53 96q37 27 100.5 56.5t96 52t32.5 51.5q0 39 -208 27l86 110 q-125 14 -199 94t-74 224q0 152 67.5 435.5t67.5 442.5q0 217 -108 375h317q18 -80 -22.5 -198.5t-40.5 -167.5q0 -145 57 -146q41 0 107 70q113 115 208 114q61 0 100.5 -46t39.5 -115q0 -115 -86 -162q-76 109 -174 108q-143 0 -220 -159q-66 -137 -65 -357 q-2 -481 104 -481q124 0 101 412z" glyph-name="tcommaaccent" horiz-adv-x="854" unicode="ţ"/><glyph d="M238 1909l192 102q0 -76 64.5 -190.5t87.5 -188.5q18 70 90.5 184.5t66.5 188.5l197 -100q-61 -76 -138 -127.5t-129.5 -94.5t-80.5 -120h-17q-27 82 -79 125t-125.5 93t-128.5 128zM756 0h-348q-33 106 -33 231q0 193 69.5 564.5t63.5 507.5q-6 104 -72 104 q-53 0 -69.5 -42t-18.5 -163q-2 -111 -52 -165t-128 -54q-90 0 -139 61q39 12 62.5 62.5t43.5 159.5q23 121 106 162.5t234 41.5h184q391 0 392 -204q0 -12 -1 -51t0 -59.5t4 -50.5t14 -46.5t30 -24.5q-96 -66 -168 -65.5t-98.5 72t-0.5 204.5q12 74 -2 117t-51 43 q-55 0 -96 -121q-76 -195 -82 -438q-12 -182 17.5 -343t79 -304.5t59.5 -198.5z" glyph-name="Tcaron" horiz-adv-x="1114" unicode="Ť"/><glyph d="M858 1196q61 72 67.5 183.5t-22.5 224.5h211q0 -152 -62.5 -263.5t-193.5 -144.5zM379 -35q-147 0 -238.5 82t-91.5 240q0 152 67.5 435.5t67.5 442.5q0 217 -108 375h317q18 -80 -22.5 -198.5t-40.5 -167.5q0 -145 57 -146q41 0 107 70q113 115 208 114q61 0 100.5 -46 t39.5 -115q0 -115 -86 -162q-76 109 -174 108q-143 0 -220 -159q-66 -137 -65 -357q-2 -481 104 -481q123 0 101 412q-8 152 55.5 193.5t245.5 19.5q-35 -45 -41 -109.5t2 -251.5q6 -158 -101.5 -228.5t-283.5 -70.5z" glyph-name="tcaron" horiz-adv-x="1126" unicode="ť"/><glyph d="M1051 1266q0 -12 -1 -51t0 -59.5t4 -50.5t14 -46.5t30 -24.5q-96 -66 -168 -65.5t-98.5 72t-0.5 204.5q12 74 -2 117t-51 43q-55 0 -96 -121q-76 -195 -82 -438q-4 -82 -4 -117h184v-41h-182q6 -139 38 -271t70.5 -246t49.5 -171h-348q-33 106 -33 231q0 186 51 457h-100 v41h106q6 31 23.5 123t23.5 131t16.5 106.5t12.5 117.5t0 96q-6 104 -72 104q-53 0 -69.5 -42t-18.5 -163q-2 -111 -52 -165t-128 -54q-90 0 -139 61q39 12 62.5 62.5t43.5 159.5q23 121 106 162.5t234 41.5h184q392 1 392 -204z" glyph-name="Tbar" horiz-adv-x="1114" unicode="Ŧ"/><glyph d="M502 412q-8 152 55.5 193.5t245.5 19.5q-35 -45 -41 -109.5t2 -251.5q6 -158 -101.5 -228.5t-283.5 -70.5q-147 0 -238.5 82t-91.5 240q0 147 72 454h-72v54h84q51 213 51 370q0 217 -108 375h317q18 -80 -22.5 -198.5t-40.5 -167.5q0 -145 57 -146q41 0 107 70 q113 115 208 114q61 0 100.5 -46t39.5 -115q0 -115 -86 -162q-76 109 -174 108q-143 0 -220 -159l-18 -43h160v-54h-176q-31 -117 -31 -260q-2 -481 104 -481q124 0 101 412z" glyph-name="tbar" horiz-adv-x="854" unicode="ŧ"/><glyph d="M780 1683h-454v64h454v-64zM547 -35q-188 0 -317.5 102.5t-129.5 311.5q0 137 76 311q51 117 51 213q0 102 -80.5 257t-80.5 278h294q63 -143 64 -365q0 -162 -34 -438.5t-34 -347.5q0 -125 48.5 -201t142.5 -76q109 0 169 86t60 236q0 59 -32.5 296.5t-26.5 403.5 q8 270 71 406h295q0 -117 -66.5 -250t-66.5 -227q0 -109 56 -259q49 -127 49 -241q0 -233 -154.5 -364.5t-353.5 -131.5z" glyph-name="Umacron" horiz-adv-x="1124" unicode="Ū"/><glyph d="M745 1430h-454v63h454v-63zM842 -39q-70 0 -112 61.5t-42 176.5q0 51 6 112q-53 -158 -172 -252t-254 -94q-102 0 -158.5 91t-56.5 274q0 104 41 294.5t41 303.5q0 127 -67 262l288 -2q47 -94 47 -213q0 -147 -56 -411.5t-60 -311.5q-14 -168 104 -168q111 0 220.5 148.5 t109.5 394.5q0 45 -13.5 187t-13.5 222q0 86 35 148h305q0 -88 -59 -355q-76 -328 -76 -481q0 -215 117 -307q-92 -80 -174 -80z" glyph-name="umacron" horiz-adv-x="1067" unicode="ū"/><glyph d="M563.5 1614q-110.5 0 -144.5 16.5t-34 52.5q0 14 7 49t7 57.5t-7 57.5t-7 49q0 37 34 53.5t144.5 16.5t144 -16.5t33.5 -53.5q0 -14 -7 -49t-7 -57.5t7 -57t7 -49.5q0 -37 -33.5 -53t-144 -16zM563 1628q35 0 47.5 38t12.5 124q0 84 -12.5 121t-45.5 37q-61 0 -61 -158 q0 -86 12 -124t47 -38zM547 -35q-188 0 -317.5 102.5t-129.5 311.5q0 137 76 311q51 117 51 213q0 102 -80.5 257t-80.5 278h294q63 -143 64 -365q0 -162 -34 -438.5t-34 -347.5q0 -125 48.5 -201t142.5 -76q109 0 169 86t60 236q0 59 -32.5 296.5t-26.5 403.5q8 270 71 406 h295q0 -117 -66.5 -250t-66.5 -227q0 -109 56 -259q49 -127 49 -241q0 -233 -154.5 -364.5t-353.5 -131.5z" glyph-name="Uring" horiz-adv-x="1124" unicode="Ů"/><glyph d="M528.5 1360q-110.5 0 -144.5 16.5t-34 53.5q0 14 7.5 48.5t7.5 57.5t-7.5 57.5t-7.5 48.5q0 37 34 53.5t144.5 16.5t144.5 -16.5t34 -53.5q0 -14 -7.5 -48.5t-7.5 -57.5t7.5 -57.5t7.5 -48.5q0 -37 -34 -53.5t-144.5 -16.5zM528.5 1374q34.5 0 47 38t12.5 124 q0 84 -12.5 121t-45.5 37q-61 0 -61 -158q0 -86 12.5 -124t47 -38zM842 -39q-70 0 -112 61.5t-42 176.5q0 51 6 112q-53 -158 -172 -252t-254 -94q-102 0 -158.5 91t-56.5 274q0 104 41 294.5t41 303.5q0 127 -67 262l288 -2q47 -94 47 -213q0 -147 -56 -411.5t-60 -311.5 q-14 -168 104 -168q111 0 220.5 148.5t109.5 394.5q0 45 -13.5 187t-13.5 222q0 86 35 148h305q0 -88 -59 -355q-76 -328 -76 -481q0 -215 117 -307q-92 -80 -174 -80z" glyph-name="uring" horiz-adv-x="1067" unicode="ů"/><glyph d="M356 1534l-18 10q18 109 75.5 202t114 167t70.5 127l162 -111q-55 -68 -121 -119t-111 -77.5t-93 -76.5t-79 -122zM610 1530l-18 10q10 82 58 154.5t101.5 115.5t102.5 96.5t59 102.5l160 -133q-49 -59 -122.5 -101t-133 -62.5t-119 -65.5t-88.5 -117zM547 -35 q-188 0 -317.5 102.5t-129.5 311.5q0 137 76 311q51 117 51 213q0 102 -80.5 257t-80.5 278h294q63 -143 64 -365q0 -162 -34 -438.5t-34 -347.5q0 -125 48.5 -201t142.5 -76q109 0 169 86t60 236q0 59 -32.5 296.5t-26.5 403.5q8 270 71 406h295q0 -117 -66.5 -250 t-66.5 -227q0 -109 56 -259q49 -127 49 -241q0 -233 -154.5 -364.5t-353.5 -131.5z" glyph-name="Uhungarumlaut" horiz-adv-x="1124" unicode="Ű"/><glyph d="M322 1280l-19 10q18 109 75.5 202t114 167t70.5 127l162 -111q-55 -68 -120.5 -119t-110.5 -77.5t-93 -76.5t-79 -122zM575 1276l-18 10q10 82 58.5 154.5t101.5 115.5t102 96.5t60 102.5l159 -133q-49 -59 -122.5 -101t-133 -62.5t-119 -65.5t-88.5 -117zM842 -39 q-70 0 -112 61.5t-42 176.5q0 51 6 112q-53 -158 -172 -252t-254 -94q-102 0 -158.5 91t-56.5 274q0 104 41 294.5t41 303.5q0 127 -67 262l288 -2q47 -94 47 -213q0 -147 -56 -411.5t-60 -311.5q-14 -168 104 -168q111 0 220.5 148.5t109.5 394.5q0 45 -13.5 187t-13.5 222 q0 86 35 148h305q0 -88 -59 -355q-76 -328 -76 -481q0 -215 117 -307q-92 -80 -174 -80z" glyph-name="uhungarumlaut" horiz-adv-x="1067" unicode="ű"/><glyph d="M950 961q0 -109 56 -259q49 -127 49 -241q0 -150 -65.5 -257.5t-176.5 -168.5q-33 -29 -53.5 -65t-24.5 -72.5t24.5 -70.5t88.5 -54l-43 -92q-113 0 -169 48t-52 115.5t53 128.5q-39 -8 -90 -8q-188 0 -317.5 102.5t-129.5 311.5q0 137 76 311q51 117 51 213 q0 102 -80.5 257t-80.5 278h294q63 -143 64 -365q0 -162 -34 -438.5t-34 -347.5q0 -125 48.5 -201t142.5 -76q109 0 169 86t60 236q0 59 -32.5 296.5t-26.5 403.5q8 270 71 406h295q0 -117 -66.5 -250t-66.5 -227z" glyph-name="Uogonek" horiz-adv-x="1124" unicode="Ų"/><glyph d="M899 348q0 -215 117 -307l-4 -4h4v-8q-39 -25 -68.5 -63t-41 -80t15 -82t94.5 -62l-43 -92q-119 0 -175.5 53t-46 125t71.5 135q-61 8 -98 68.5t-37 167.5q0 51 6 112q-53 -158 -172 -252t-254 -94q-102 0 -158.5 91t-56.5 274q0 104 41 294.5t41 303.5q0 127 -67 262 l288 -2q47 -94 47 -213q0 -147 -56 -411.5t-60 -311.5q-14 -168 104 -168q111 0 220.5 148.5t109.5 394.5q0 45 -13.5 187t-13.5 222q0 86 35 148h305q0 -88 -59 -355q-76 -327 -76 -481z" glyph-name="uogonek" horiz-adv-x="1067" unicode="ų"/><glyph d="M645 1597l-192 103q55 78 128.5 128t126 93t78.5 125h17q29 -78 81 -121t129 -94t138 -127l-197 -100q6 74 -66.5 188.5t-90.5 183.5q-23 -74 -87.5 -188.5t-64.5 -190.5zM1143 -31q-238 0 -359 156q-33 -59 -129 -105.5t-217 -46.5q-57 0 -111.5 11.5t-113.5 41t-95 92 t-36 150.5q0 45 34 217t34 275q0 109 -14.5 220.5t-29 174t-41 161.5t-32.5 122h356q23 -82 23 -166q0 -104 -57.5 -340t-57.5 -420q0 -223 66.5 -336t175.5 -113q45 0 81.5 49.5t36.5 133.5q0 57 -20 131q-53 176 -53 350q0 115 32.5 294t32.5 247q0 98 -33 170h332 q-23 -231 -98.5 -508t-75.5 -414q0 -166 66 -291q47 -92 114.5 -141t128.5 -49q102 0 103 119q0 74 -29 155q-6 16 -23.5 69.5t-25.5 82t-20.5 76t-17.5 91.5t-5 89q0 152 72.5 353.5t72.5 367.5h361q-20 -88 -54 -163t-65 -125t-59.5 -103.5t-46 -127t-17.5 -167.5 q0 -66 45 -224.5t45 -285.5q0 -147 -65.5 -210t-210.5 -63z" glyph-name="Wcircumflex" horiz-adv-x="1603" unicode="Ŵ"/><glyph d="M653 1343l-192 103q55 78 129 128t126 93t79 125h16q29 -78 81 -121t129 -94t138 -127l-196 -100q6 74 -67 188.5t-91 183.5q-23 -74 -87.5 -188.5t-64.5 -190.5zM1178 -31q-106 0 -203.5 43t-161.5 117q-31 -57 -109.5 -104.5t-181.5 -51.5q-410 -12 -409 396 q0 55 13 149t13 123q0 88 -49 218t-49 220q0 47 12 107h307q10 -51 11 -109q0 -90 -39 -225t-45 -260q-8 -139 19.5 -268t95 -216.5t161.5 -78.5q113 8 113 123q0 29 -33 121t-37 143q-8 109 51.5 213t59.5 196q0 123 -109 359h346q25 -135 25 -211q0 -115 -64.5 -258.5 t-64.5 -286.5q0 -164 93 -286t194 -122q94 0 94 134q0 68 -64.5 178t-64.5 192q0 84 76.5 218.5t76.5 234.5q0 104 -45 207h322q12 -74 12 -127q0 -72 -23.5 -130.5t-56 -98.5t-65.5 -74.5t-56.5 -76.5t-23.5 -89q0 -49 36 -101.5t71.5 -115t35.5 -135.5 q0 -106 -77.5 -186.5t-206.5 -80.5z" glyph-name="wcircumflex" horiz-adv-x="1585" unicode="ŵ"/><glyph d="M305 1597l-192 103q55 78 128.5 128t126 93t78.5 125h17q29 -78 81 -121t129 -94t138 -127l-197 -100q6 74 -66.5 188.5t-90.5 183.5q-23 -74 -87.5 -188.5t-64.5 -190.5zM602 0h-383q0 113 27.5 211t62.5 152.5t62.5 103.5t27.5 74q0 47 -73 47q-121 0 -164 10 q-131 23 -131 197q0 88 33.5 279.5t35.5 207.5q4 57 -8 84t-55 27q63 76 166 75q70 0 120 -42t50 -115q0 -127 -48.5 -303.5t-48.5 -239.5q0 -33 10.5 -63.5t52.5 -61.5t112 -31q72 0 129 56.5t57 138.5q0 55 -35 228t-35 274q0 70 52.5 112.5t121.5 42.5q84 0 142 -59 q-68 -27 -68 -170q0 -55 13.5 -188.5t13.5 -196.5q0 -121 -62.5 -189.5t-171.5 -72.5q-104 -2 -119 -62q-14 -31 -14 -98.5t53.5 -201.5t73.5 -226z" glyph-name="Ycircumflex" horiz-adv-x="911" unicode="Ŷ"/><glyph d="M322 1343l-193 103q55 78 129 128t126 93t79 125h16q29 -78 81 -121t129 -94t138 -127l-196 -100q6 74 -66.5 188.5t-91.5 183.5q-23 -74 -87 -188.5t-64 -190.5zM461 -319q-164 0 -254 56t-90 204q0 162 112 161q63 0 138 -61q-33 -68 -33 -141q0 -78 38 -128.5 t107 -50.5q209 0 209 400q0 121 -47 121q-14 0 -98 -34t-156 -34q-199 0 -251 103.5t-17 361.5q20 135 -1.5 229.5t-51 170t-29.5 145.5h297q4 -70 20.5 -203t16.5 -199q0 -61 -4.5 -134t-8.5 -121t-5 -99t4 -82t19.5 -57.5t41 -38.5t69.5 -12q78 0 135.5 62t57.5 189 q0 47 2 115t2 100.5t-4 71.5t-14 68q-18 51 -25.5 75.5t-17 70.5t-7.5 92t13 102h266q37 -154 37 -277q0 -115 -25.5 -207t-56.5 -142t-56.5 -121.5t-25.5 -147.5t56.5 -163t56.5 -185q0 -260 -420 -260z" glyph-name="ycircumflex" horiz-adv-x="964" unicode="ŷ"/><glyph d="M299 1602q-57 0 -96 36.5t-39 92.5q0 59 39 97t96 38q55 0 91 -38t36 -97q0 -55 -37 -92t-90 -37zM625 1602q-55 0 -95.5 36.5t-40.5 92.5q0 59 39 97t97 38q55 0 91 -38t36 -97q0 -55 -37 -92t-90 -37zM602 0h-383q0 113 27.5 211t62.5 152.5t62.5 103.5t27.5 74 q0 47 -73 47q-121 0 -164 10q-131 23 -131 197q0 88 33.5 279.5t35.5 207.5q4 57 -8 84t-55 27q63 76 166 75q70 0 120 -42t50 -115q0 -127 -48.5 -303.5t-48.5 -239.5q0 -33 10.5 -63.5t52.5 -61.5t112 -31q72 0 129 56.5t57 138.5q0 55 -35 228t-35 274q0 70 52.5 112.5 t121.5 42.5q84 0 142 -59q-68 -27 -68 -170q0 -55 13.5 -188.5t13.5 -196.5q0 -121 -62.5 -189.5t-171.5 -72.5q-104 -2 -119 -62q-14 -31 -14 -98.5t53.5 -201.5t73.5 -226z" glyph-name="Ydieresis" horiz-adv-x="911" unicode="Ÿ"/><glyph d="M334 1567l-19 10q-2 76 30 140.5t81 110.5t100.5 85t94.5 84t53 88l164 -133q-47 -68 -132 -117t-157 -72.5t-135.5 -72.5t-79.5 -123zM440 -27q-90 0 -162.5 15.5t-105.5 31t-88 48.5q-41 123 -41 262q0 188 59.5 280t210.5 142q84 27 146 53q162 68 162 297 q0 164 -45.5 242.5t-116.5 76.5q-63 -2 -70.5 -68.5t27.5 -185.5q29 -115 -6 -192q-25 -45 -82.5 -71.5t-120.5 -26.5q-82 0 -176 53q68 29 89 70.5t13 164.5q-8 145 76 221t270 84q197 6 296 -66.5t99 -275.5q0 -111 -39.5 -182.5t-105 -104t-135.5 -53t-143.5 -49 t-114.5 -71.5q-12 -12 -21.5 -28.5t-14.5 -38t-7 -40t0 -47.5t3 -46t7 -51t8 -48.5t10.5 -51t10.5 -47.5q14 -238 139 -237q45 0 66.5 20.5t23.5 68.5t-3 92t-17.5 126t-18.5 137q-12 90 49.5 145.5t145.5 55.5q100 0 145 -74q-16 -2 -27.5 -11t-18.5 -24.5t-11 -31t-3 -41 t2 -45t6 -53t9 -55t10.5 -61.5t10.5 -61q16 -111 -78.5 -179.5t-321.5 -68.5z" glyph-name="Zacute" horiz-adv-x="944" unicode="Ź"/><glyph d="M291 1280l-19 10q-2 76 30 140.5t81 110.5t100.5 85t94.5 84t53 88l164 -133q-47 -68 -132 -117t-157 -72.5t-135.5 -72.5t-79.5 -123zM553 -23q-70 0 -176.5 20.5t-175.5 20.5q-74 0 -131 -18q-23 233 -23 317q0 127 56.5 184.5t154.5 80.5q94 20 131 28t87 31t79 53 q80 84 72 330q-78 127 -183 111q-82 -10 -82 -185q0 -133 -29.5 -191.5t-121.5 -58.5t-145 33q49 31 58 72t7 149q0 133 53.5 199t190.5 66q66 0 160 -22.5t137 -22.5q53 0 88 10q35 -41 41 -176.5t-17 -231.5q-10 -47 -25.5 -79.5t-44 -54t-46 -31t-64.5 -27t-69 -25.5 q-53 -23 -90 -46.5t-81.5 -69.5t-67 -122.5t-22.5 -179.5v-22q0 -35 1 -48.5t10.5 -23.5t29.5 -10q113 -8 176.5 43t63.5 149q0 29 -11.5 69t-11.5 58q0 76 53.5 121t129.5 45q53 0 114 -28q-25 -10 -39 -47t-16 -72t-3 -87t-1 -61q-10 -135 -72.5 -192.5t-144.5 -57.5z" glyph-name="zacute" horiz-adv-x="862" unicode="ź"/><glyph d="M477 1612q-70 0 -109.5 46t-39.5 107.5t40 106.5t109 45q74 0 114 -44t40 -108q0 -61 -41 -107t-113 -46zM440 -27q-90 0 -162.5 15.5t-105.5 31t-88 48.5q-41 123 -41 262q0 188 59.5 280t210.5 142q84 27 146 53q162 68 162 297q0 164 -45.5 242.5t-116.5 76.5 q-63 -2 -70.5 -68.5t27.5 -185.5q29 -115 -6 -192q-25 -45 -82.5 -71.5t-120.5 -26.5q-82 0 -176 53q68 29 89 70.5t13 164.5q-8 145 76 221t270 84q197 6 296 -66.5t99 -275.5q0 -111 -39.5 -182.5t-105 -104t-135.5 -53t-143.5 -49t-114.5 -71.5q-12 -12 -21.5 -28.5 t-14.5 -38t-7 -40t0 -47.5t3 -46t7 -51t8 -48.5t10.5 -51t10.5 -47.5q14 -238 139 -237q45 0 66.5 20.5t23.5 68.5t-3 92t-17.5 126t-18.5 137q-12 90 49.5 145.5t145.5 55.5q100 0 145 -74q-16 -2 -27.5 -11t-18.5 -24.5t-11 -31t-3 -41t2 -45t6 -53t9 -55t10.5 -61.5 t10.5 -61q16 -111 -78.5 -179.5t-321.5 -68.5z" glyph-name="Zdotaccent" horiz-adv-x="944" unicode="Ż"/><glyph d="M434 1325q-70 0 -109.5 46t-39.5 107.5t40 106.5t109 45q74 0 114 -44t40 -107q0 -61 -41 -107.5t-113 -46.5zM553 -23q-70 0 -176.5 20.5t-175.5 20.5q-74 0 -131 -18q-23 233 -23 317q0 127 56.5 184.5t154.5 80.5q94 20 131 28t87 31t79 53q80 84 72 330 q-78 127 -183 111q-82 -10 -82 -185q0 -133 -29.5 -191.5t-121.5 -58.5t-145 33q49 31 58 72t7 149q0 133 53.5 199t190.5 66q66 0 160 -22.5t137 -22.5q53 0 88 10q35 -41 41 -176.5t-17 -231.5q-10 -47 -25.5 -79.5t-44 -54t-46 -31t-64.5 -27t-69 -25.5 q-53 -23 -90 -46.5t-81.5 -69.5t-67 -122.5t-22.5 -179.5v-22q0 -35 1 -48.5t10.5 -23.5t29.5 -10q113 -8 176.5 43t63.5 149q0 29 -11.5 69t-11.5 58q0 76 53.5 121t129.5 45q53 0 114 -28q-25 -10 -39 -47t-16 -72t-3 -87t-1 -61q-10 -135 -72.5 -192.5t-144.5 -57.5z" glyph-name="zdotaccent" horiz-adv-x="862" unicode="ż"/><glyph d="M129 1942l193 102q0 -76 64.5 -190.5t86.5 -188.5q18 70 91 184.5t67 188.5l196 -101q-61 -76 -138 -127t-129 -94t-81 -121h-16q-27 82 -79 125t-126 93.5t-129 128.5zM440 -27q-90 0 -162.5 15.5t-105.5 31t-88 48.5q-41 123 -41 262q0 188 59.5 280t210.5 142 q84 27 146 53q162 68 162 297q0 164 -45.5 242.5t-116.5 76.5q-63 -2 -70.5 -68.5t27.5 -185.5q29 -115 -6 -192q-25 -45 -82.5 -71.5t-120.5 -26.5q-82 0 -176 53q68 29 89 70.5t13 164.5q-8 145 76 221t270 84q197 6 296 -66.5t99 -275.5q0 -111 -39.5 -182.5t-105 -104 t-135.5 -53t-143.5 -49t-114.5 -71.5q-12 -12 -21.5 -28.5t-14.5 -38t-7 -40t0 -47.5t3 -46t7 -51t8 -48.5t10.5 -51t10.5 -47.5q14 -238 139 -237q45 0 66.5 20.5t23.5 68.5t-3 92t-17.5 126t-18.5 137q-12 90 49.5 145.5t145.5 55.5q100 0 145 -74q-16 -2 -27.5 -11 t-18.5 -24.5t-11 -31t-3 -41t2 -45t6 -53t9 -55t10.5 -61.5t10.5 -61q16 -111 -78.5 -179.5t-321.5 -68.5z" glyph-name="Zcaron" horiz-adv-x="944" unicode="Ž"/><glyph d="M86 1655l193 102q0 -76 64.5 -190.5t86.5 -188.5q18 70 91 184.5t67 188.5l196 -100q-61 -76 -138 -127t-129 -94.5t-81 -120.5h-16q-27 82 -79 125t-126 93t-129 128zM553 -23q-70 0 -176.5 20.5t-175.5 20.5q-74 0 -131 -18q-23 233 -23 317q0 127 56.5 184.5 t154.5 80.5q94 20 131 28t87 31t79 53q80 84 72 330q-78 127 -183 111q-82 -10 -82 -185q0 -133 -29.5 -191.5t-121.5 -58.5t-145 33q49 31 58 72t7 149q0 133 53.5 199t190.5 66q66 0 160 -22.5t137 -22.5q53 0 88 10q35 -41 41 -176.5t-17 -231.5q-10 -47 -25.5 -79.5 t-44 -54t-46 -31t-64.5 -27t-69 -25.5q-53 -23 -90 -46.5t-81.5 -69.5t-67 -122.5t-22.5 -179.5v-22q0 -35 1 -48.5t10.5 -23.5t29.5 -10q113 -8 176.5 43t63.5 149q0 29 -11.5 69t-11.5 58q0 76 53.5 121t129.5 45q53 0 114 -28q-25 -10 -39 -47t-16 -72t-3 -87t-1 -61 q-10 -135 -72.5 -192.5t-144.5 -57.5z" glyph-name="zcaron" horiz-adv-x="862" unicode="ž"/><glyph d="M463 -35q-188 0 -291.5 93.5t-77.5 240.5q37 205 -37 285q166 20 217 8q98 -23 99 -146q0 -29 -15.5 -115.5t-15.5 -142.5q0 -92 43 -137t104 -45q168 0 168 199q0 53 -12 145t-12 129q0 61 24.5 149.5t24.5 121.5q0 80 -145 36q-10 -2 -57.5 -20t-95.5 -31.5t-89 -13.5 q-129 0 -187.5 101.5t-58.5 248.5q0 215 108.5 307t354.5 92q193 0 293 -70.5t74 -191.5q-4 -23 -19.5 -60.5t-25 -62t-6.5 -58.5t26 -62q-53 -14 -100 -15.5t-92.5 12t-68 57.5t-13.5 116q29 178 13.5 240.5t-114 62.5t-140.5 -105.5t-42 -257.5q0 -283 164 -274 q33 2 122 36.5t146 34.5q106 0 154.5 -99t48.5 -247q0 -561 -469 -561zM338 -573l-33 14q45 68 41 211t60 211h194q-41 -51 -79 -147.5t-80 -175t-103 -113.5z" glyph-name="Scommaaccent" horiz-adv-x="966" unicode="Ș"/><glyph d="M432 -35q-178 0 -265 74t-73 190q2 18 9.5 50t11.5 60t4 56q0 109 -78 117q63 80 168 72q98 -10 148.5 -85t37.5 -196q-4 -53 -41 -166q-35 -137 70 -137q100 0 154 123q39 96 47 227q10 94 -36 170t-138 105q-37 14 -109 33.5t-110.5 35t-84 46t-65 80.5t-14.5 124 q4 111 62 173.5t137 81t198 18.5q180 0 296 -75t107 -194q-2 -27 -8 -48t-22.5 -42.5t-22.5 -30t-31.5 -33t-27.5 -26.5q-68 -70 -33 -115q-96 10 -144.5 56.5t-23.5 124.5q63 186 66 249q0 92 -80 97q-92 4 -137.5 -95.5t-45.5 -232.5q0 -63 40 -118.5t106 -84.5 q39 -16 106.5 -33.5t114.5 -33t95 -43t73 -79.5t25 -130q-2 -113 -44.5 -188.5t-117 -112.5t-150.5 -50.5t-174 -13.5zM334 -573l-33 14q45 68 41 211t59 211h195q-41 -51 -79 -147.5t-80 -175t-103 -113.5z" glyph-name="scommaaccent" horiz-adv-x="958" unicode="ș"/><glyph d="M756 0h-348q-33 106 -33 231q0 193 69.5 564.5t63.5 507.5q-6 104 -72 104q-53 0 -69.5 -42t-18.5 -163q-2 -111 -52 -165t-128 -54q-90 0 -139 61q39 12 62.5 62.5t43.5 159.5q23 121 106 162.5t234 41.5h184q391 0 392 -204q0 -12 -1 -51t0 -59.5t4 -50.5t14 -46.5 t30 -24.5q-96 -66 -168 -65.5t-98.5 72t-0.5 204.5q12 74 -2 117t-51 43q-55 0 -96 -121q-76 -195 -82 -438q-12 -182 17.5 -343t79 -304.5t59.5 -198.5zM408 -573l-33 14q45 68 41 211t59 211h195q-41 -51 -79 -147.5t-80 -175t-103 -113.5z" glyph-name="uni021A" horiz-adv-x="1114" unicode="Ț"/><glyph d="M379 -35q-147 0 -238.5 82t-91.5 240q0 152 67.5 435.5t67.5 442.5q0 217 -108 375h317q18 -80 -22.5 -198.5t-40.5 -167.5q0 -145 57 -146q41 0 107 70q113 115 208 114q61 0 100.5 -46t39.5 -115q0 -115 -86 -162q-76 109 -174 108q-143 0 -220 -159q-66 -137 -65 -357 q-2 -481 104 -481q123 0 101 412q-8 152 55.5 193.5t245.5 19.5q-35 -45 -41 -109.5t2 -251.5q6 -158 -101.5 -228.5t-283.5 -70.5zM242 -573l-33 14q45 68 41 211t59 211h195q-41 -51 -79 -147.5t-80 -175t-103 -113.5z" glyph-name="uni021B" horiz-adv-x="854" unicode="ț"/><glyph d="M-100 1290l-19 -10q-16 74 -79.5 123t-135.5 72.5t-156.5 72.5t-132.5 117l164 133q10 -43 53.5 -88t94.5 -84t100 -85t81 -110.5t30 -140.5z" glyph-name="gravecomb" unicode="̀"/><glyph d="M-526 1280l-19 10q-2 76 30 140.5t81 110.5t100 85t94 84t54 88l163 -133q-47 -68 -132 -117t-156.5 -72.5t-135 -72.5t-79.5 -123z" glyph-name="acutecomb" unicode="́"/><glyph d="M-582 1343l-192 103q55 78 129 128t126 93t79 125h16q29 -78 81 -121t129 -94t138 -127l-196 -100q6 74 -67 188.5t-91 183.5q-23 -74 -87.5 -188.5t-64.5 -190.5z" glyph-name="uni0302" unicode="̂"/><glyph d="M-260 1430q-53 0 -166 72.5t-182 76.5q-45 2 -71 -23.5t-23 -70.5h-35q-4 100 43 160.5t137 54.5q61 -4 175 -68.5t149 -70.5q37 -6 55 19.5t18 49.5h31q0 -200 -131 -200z" glyph-name="tildecomb" unicode="̃"/><glyph d="M-94 1450h-455v63h455v-63z" glyph-name="uni0304" unicode="̄"/><glyph d="M-406 1372q-131 0 -207.5 52.5t-76.5 152.5q0 74 16 123h25q12 -92 64.5 -130t178.5 -38q123 0 176.5 38t69.5 130h25q8 -33 8 -94q0 -102 -75 -168t-204 -66z" glyph-name="uni0306" unicode="̆"/><glyph d="M-248 1325q-70 0 -109.5 46t-39.5 107.5t40 106.5t109 45q74 0 114 -44t40 -107q0 -61 -41 -107.5t-113 -46.5z" glyph-name="uni0307" unicode="̇"/><glyph d="M-535 1348q-57 0 -96 36.5t-39 92.5q0 59 39 97t96 38q55 0 91 -38t36 -97q0 -55 -37 -92t-90 -37zM-209 1348q-55 0 -95 36.5t-40 92.5q0 59 39 97t96 38q55 0 91 -38t36 -97q0 -55 -37 -92t-90 -37z" glyph-name="uni0308" unicode="̈"/><glyph d="M-373 1440h-10v90q88 8 134 54t46 106q0 53 -38 92t-101 39q-35 0 -84 -17l-6 13q47 18 98 18q84 0 147.5 -44t63.5 -118q0 -68 -67.5 -118t-182.5 -50v-65z" glyph-name="hookabovecomb" unicode="̉"/><glyph d="M-233.5 1360q-110.5 0 -144.5 16.5t-34 53.5q0 14 7.5 48.5t7.5 57.5t-7.5 57.5t-7.5 48.5q0 37 34 53.5t144.5 16.5t144.5 -16.5t34 -53.5q0 -14 -7.5 -48.5t-7.5 -57.5t7.5 -57.5t7.5 -48.5q0 -37 -34 -53.5t-144.5 -16.5zM-233.5 1374q34.5 0 47 38t12.5 124 q0 84 -12.5 121t-44.5 37q-61 0 -62 -158q0 -86 12.5 -124t47 -38z" glyph-name="uni030A" unicode="̊"/><glyph d="M-819 1280l-19 10q18 109 75.5 202t114 167t70.5 127l162 -111q-55 -68 -120.5 -119t-110.5 -77.5t-93 -76.5t-79 -122zM-565 1276l-19 10q10 82 58.5 154.5t101.5 115.5t102.5 96.5t59.5 102.5l160 -133q-49 -59 -123 -101t-133.5 -62.5t-118.5 -65.5t-88 -117z" glyph-name="uni030B" unicode="̋"/><glyph d="M-768 1655l193 102q0 -76 64.5 -190.5t86.5 -188.5q18 70 91 184.5t67 188.5l196 -100q-61 -76 -138 -127t-129 -94.5t-81 -120.5h-16q-27 82 -79 125t-126 93t-129 128z" glyph-name="uni030C" unicode="̌"/><glyph d="M-119 1368h-192q-31 123 8 251t174 191l27 -36q-55 -37 -81 -76t-22 -81t16.5 -76t36 -86t33.5 -87z" glyph-name="uni0312" unicode="̒"/><glyph d="M-512 1376v21q133 31 220 140.5t87 260.5v107h82q0 -437 -389 -529z" glyph-name="uni031B" unicode="̛"/><glyph d="M-176.5 -406q-22.5 0 -37.5 15.5t-15 38t15 38t37.5 15.5t38 -15.5t15.5 -38t-15.5 -38t-38 -15.5z" glyph-name="dotbelowcomb" unicode="̣"/><glyph d="M-385 -573l-33 14q45 68 41 211t60 211h194q-41 -51 -79 -147.5t-80 -175t-103 -113.5z" glyph-name="uni0326" unicode="̦"/><glyph d="M-498 -424l-53 96q37 27 100.5 56.5t96 52t32.5 51.5q0 39 -208 27l110 141h41l-57 -96q59 10 123 10q84 0 131 -33t47 -80q0 -57 -74 -95t-168 -67.5t-121 -62.5z" glyph-name="uni0327" unicode="̧"/><glyph d="M-123 -287l-43 -92q-113 0 -169 48t-52 112.5t54 130t132 96.5h78v-8q-39 -25 -68.5 -62.5t-41 -79.5t15 -82t94.5 -63z" glyph-name="uni0328" unicode="̨"/><glyph d="M-82 645h-455v41h455v-41z" glyph-name="uni0335" unicode="̵"/><glyph d="M-123 649h-864v33h864v-33z" glyph-name="uni0336" unicode="̶"/><glyph d="M-2 874l-547 -221l-14 47l547 220z" glyph-name="uni0337" unicode="̷"/><glyph d="M-702 -70h-60l651 1575h60z" glyph-name="uni0338" unicode="̸"/><glyph d="M1018 1544l-19 -10q-16 74 -79.5 123t-135 72.5t-156.5 72.5t-132 117l163 133q10 -43 53.5 -88t94.5 -84t100 -85t81 -110.5t30 -140.5zM1143 -31q-238 0 -359 156q-33 -59 -129 -105.5t-217 -46.5q-57 0 -111.5 11.5t-113.5 41t-95 92t-36 150.5q0 45 34 217t34 275 q0 109 -14.5 220.5t-29 174t-41 161.5t-32.5 122h356q23 -82 23 -166q0 -104 -57.5 -340t-57.5 -420q0 -223 66.5 -336t175.5 -113q45 0 81.5 49.5t36.5 133.5q0 57 -20 131q-53 176 -53 350q0 115 32.5 294t32.5 247q0 98 -33 170h332q-23 -231 -98.5 -508t-75.5 -414 q0 -166 66 -291q47 -92 114.5 -141t128.5 -49q102 0 103 119q0 74 -29 155q-6 16 -23.5 69.5t-25.5 82t-20.5 76t-17.5 91.5t-5 89q0 152 72.5 353.5t72.5 367.5h361q-20 -88 -54 -163t-65 -125t-59.5 -103.5t-46 -127t-17.5 -167.5q0 -66 45 -224.5t45 -285.5 q0 -147 -65.5 -210t-210.5 -63z" glyph-name="Wgrave" horiz-adv-x="1603" unicode="Ẁ"/><glyph d="M1026 1290l-18 -10q-16 74 -80 123t-135.5 72.5t-156.5 72.5t-132 117l164 133q10 -43 53 -88t94 -84t100.5 -85t81 -110.5t29.5 -140.5zM1178 -31q-106 0 -203.5 43t-161.5 117q-31 -57 -109.5 -104.5t-181.5 -51.5q-410 -12 -409 396q0 55 13 149t13 123q0 88 -49 218 t-49 220q0 47 12 107h307q10 -51 11 -109q0 -90 -39 -225t-45 -260q-8 -139 19.5 -268t95 -216.5t161.5 -78.5q113 8 113 123q0 29 -33 121t-37 143q-8 109 51.5 213t59.5 196q0 123 -109 359h346q25 -135 25 -211q0 -115 -64.5 -258.5t-64.5 -286.5q0 -164 93 -286 t194 -122q94 0 94 134q0 68 -64.5 178t-64.5 192q0 84 76.5 218.5t76.5 234.5q0 104 -45 207h322q12 -74 12 -127q0 -72 -23.5 -130.5t-56 -98.5t-65.5 -74.5t-56.5 -76.5t-23.5 -89q0 -49 36 -101.5t71.5 -115t35.5 -135.5q0 -106 -77.5 -186.5t-206.5 -80.5z" glyph-name="wgrave" horiz-adv-x="1585" unicode="ẁ"/><glyph d="M651 1534l-18 10q-2 76 29.5 140.5t81 110.5t100.5 85t94 84t53 88l164 -133q-47 -68 -132 -117t-156.5 -72.5t-135.5 -72.5t-80 -123zM1143 -31q-238 0 -359 156q-33 -59 -129 -105.5t-217 -46.5q-57 0 -111.5 11.5t-113.5 41t-95 92t-36 150.5q0 45 34 217t34 275 q0 109 -14.5 220.5t-29 174t-41 161.5t-32.5 122h356q23 -82 23 -166q0 -104 -57.5 -340t-57.5 -420q0 -223 66.5 -336t175.5 -113q45 0 81.5 49.5t36.5 133.5q0 57 -20 131q-53 176 -53 350q0 115 32.5 294t32.5 247q0 98 -33 170h332q-23 -231 -98.5 -508t-75.5 -414 q0 -166 66 -291q47 -92 114.5 -141t128.5 -49q102 0 103 119q0 74 -29 155q-6 16 -23.5 69.5t-25.5 82t-20.5 76t-17.5 91.5t-5 89q0 152 72.5 353.5t72.5 367.5h361q-20 -88 -54 -163t-65 -125t-59.5 -103.5t-46 -127t-17.5 -167.5q0 -66 45 -224.5t45 -285.5 q0 -147 -65.5 -210t-210.5 -63z" glyph-name="Wacute" horiz-adv-x="1603" unicode="Ẃ"/><glyph d="M659 1280l-18 10q-2 76 29.5 140.5t81 110.5t100.5 85t94 84t53 88l164 -133q-47 -68 -132 -117t-156.5 -72.5t-135.5 -72.5t-80 -123zM1178 -31q-106 0 -203.5 43t-161.5 117q-31 -57 -109.5 -104.5t-181.5 -51.5q-410 -12 -409 396q0 55 13 149t13 123q0 88 -49 218 t-49 220q0 47 12 107h307q10 -51 11 -109q0 -90 -39 -225t-45 -260q-8 -139 19.5 -268t95 -216.5t161.5 -78.5q113 8 113 123q0 29 -33 121t-37 143q-8 109 51.5 213t59.5 196q0 123 -109 359h346q25 -135 25 -211q0 -115 -64.5 -258.5t-64.5 -286.5q0 -164 93 -286 t194 -122q94 0 94 134q0 68 -64.5 178t-64.5 192q0 84 76.5 218.5t76.5 234.5q0 104 -45 207h322q12 -74 12 -127q0 -72 -23.5 -130.5t-56 -98.5t-65.5 -74.5t-56.5 -76.5t-23.5 -89q0 -49 36 -101.5t71.5 -115t35.5 -135.5q0 -106 -77.5 -186.5t-206.5 -80.5z" glyph-name="wacute" horiz-adv-x="1585" unicode="ẃ"/><glyph d="M639 1602q-57 0 -96 36.5t-39 92.5q0 59 39 97t96 38q55 0 91 -38t36 -97q0 -55 -37 -92t-90 -37zM965 1602q-55 0 -95.5 36.5t-40.5 92.5q0 59 39 97t97 38q55 0 91 -38t36 -97q0 -55 -37 -92t-90 -37zM1143 -31q-238 0 -359 156q-33 -59 -129 -105.5t-217 -46.5 q-57 0 -111.5 11.5t-113.5 41t-95 92t-36 150.5q0 45 34 217t34 275q0 109 -14.5 220.5t-29 174t-41 161.5t-32.5 122h356q23 -82 23 -166q0 -104 -57.5 -340t-57.5 -420q0 -223 66.5 -336t175.5 -113q45 0 81.5 49.5t36.5 133.5q0 57 -20 131q-53 176 -53 350 q0 115 32.5 294t32.5 247q0 98 -33 170h332q-23 -231 -98.5 -508t-75.5 -414q0 -166 66 -291q47 -92 114.5 -141t128.5 -49q102 0 103 119q0 74 -29 155q-6 16 -23.5 69.5t-25.5 82t-20.5 76t-17.5 91.5t-5 89q0 152 72.5 353.5t72.5 367.5h361q-20 -88 -54 -163t-65 -125 t-59.5 -103.5t-46 -127t-17.5 -167.5q0 -66 45 -224.5t45 -285.5q0 -147 -65.5 -210t-210.5 -63z" glyph-name="Wdieresis" horiz-adv-x="1603" unicode="Ẅ"/><glyph d="M647 1348q-57 0 -96 36.5t-39 92.5q0 59 39 97t96 38q55 0 91 -38t36 -97q0 -55 -37 -92t-90 -37zM973 1348q-55 0 -95 36.5t-40 92.5q0 59 38.5 97t96.5 38q55 0 91 -38t36 -97q0 -55 -37 -92t-90 -37zM1178 -31q-106 0 -203.5 43t-161.5 117q-31 -57 -109.5 -104.5 t-181.5 -51.5q-410 -12 -409 396q0 55 13 149t13 123q0 88 -49 218t-49 220q0 47 12 107h307q10 -51 11 -109q0 -90 -39 -225t-45 -260q-8 -139 19.5 -268t95 -216.5t161.5 -78.5q113 8 113 123q0 29 -33 121t-37 143q-8 109 51.5 213t59.5 196q0 123 -109 359h346 q25 -135 25 -211q0 -115 -64.5 -258.5t-64.5 -286.5q0 -164 93 -286t194 -122q94 0 94 134q0 68 -64.5 178t-64.5 192q0 84 76.5 218.5t76.5 234.5q0 104 -45 207h322q12 -74 12 -127q0 -72 -23.5 -130.5t-56 -98.5t-65.5 -74.5t-56.5 -76.5t-23.5 -89q0 -49 36 -101.5 t71.5 -115t35.5 -135.5q0 -106 -77.5 -186.5t-206.5 -80.5z" glyph-name="wdieresis" horiz-adv-x="1585" unicode="ẅ"/><glyph d="M315 0h-274q14 160 87 351.5t73 320.5q0 74 -23.5 214t-23.5 224q0 172 122.5 267.5t305 95.5t258 -47.5t75.5 -198.5v-97q0 -88 -30.5 -138t-74.5 -61t-87 -11t-74 -6.5t-31 -30.5q0 -37 41 -58.5t99.5 -39t117 -45t99.5 -95t41 -172.5q0 -145 -37 -242.5t-106.5 -145.5 t-145.5 -66.5t-178 -18.5l-51 154q127 8 203.5 108t76.5 199q0 88 -23.5 150.5t-57 95t-67.5 56t-57.5 52.5t-23.5 68q0 51 43 108.5t86 120t43 127.5q0 147 -172 147q-57 0 -109.5 -43t-46.5 -114q18 -209 19 -361q0 -238 -48.5 -493.5t-48.5 -374.5z" glyph-name="uni1E9E" horiz-adv-x="1058" unicode="ẞ"/><glyph d="M678 1544l-19 -10q-16 74 -79.5 123t-135 72.5t-156.5 72.5t-132 117l163 133q10 -43 53.5 -88t94.5 -84t100 -85t81 -110.5t30 -140.5zM602 0h-383q0 113 27.5 211t62.5 152.5t62.5 103.5t27.5 74q0 47 -73 47q-121 0 -164 10q-131 23 -131 197q0 88 33.5 279.5 t35.5 207.5q4 57 -8 84t-55 27q63 76 166 75q70 0 120 -42t50 -115q0 -127 -48.5 -303.5t-48.5 -239.5q0 -33 10.5 -63.5t52.5 -61.5t112 -31q72 0 129 56.5t57 138.5q0 55 -35 228t-35 274q0 70 52.5 112.5t121.5 42.5q84 0 142 -59q-68 -27 -68 -170q0 -55 13.5 -188.5 t13.5 -196.5q0 -121 -62.5 -189.5t-171.5 -72.5q-104 -2 -119 -62q-14 -31 -14 -98.5t53.5 -201.5t73.5 -226z" glyph-name="Ygrave" horiz-adv-x="911" unicode="Ỳ"/><glyph d="M694 1290l-18 -10q-16 74 -80 123t-135.5 72.5t-156.5 72.5t-132 117l164 133q10 -43 53 -88t94.5 -84t100.5 -85t80.5 -110.5t29.5 -140.5zM461 -319q-164 0 -254 56t-90 204q0 162 112 161q63 0 138 -61q-33 -68 -33 -141q0 -78 38 -128.5t107 -50.5q209 0 209 400 q0 121 -47 121q-14 0 -98 -34t-156 -34q-199 0 -251 103.5t-17 361.5q20 135 -1.5 229.5t-51 170t-29.5 145.5h297q4 -70 20.5 -203t16.5 -199q0 -61 -4.5 -134t-8.5 -121t-5 -99t4 -82t19.5 -57.5t41 -38.5t69.5 -12q78 0 135.5 62t57.5 189q0 47 2 115t2 100.5t-4 71.5 t-14 68q-18 51 -25.5 75.5t-17 70.5t-7.5 92t13 102h266q37 -154 37 -277q0 -115 -25.5 -207t-56.5 -142t-56.5 -121.5t-25.5 -147.5t56.5 -163t56.5 -185q0 -260 -420 -260z" glyph-name="ygrave" horiz-adv-x="964" unicode="ỳ"/><glyph d="M819 610h-778v62h778v-62z" glyph-name="endash" horiz-adv-x="860" unicode="–"/><glyph d="M971 610h-930v62h930v-62z" glyph-name="emdash" horiz-adv-x="1011" unicode="—"/><glyph d="M469 1597q-20 -16 -36.5 -34.5t-26 -42t-15.5 -41t-8 -47t-3 -42t0 -45t1 -38.5q0 -51 -35 -79t-84 -28q-47 0 -81 27.5t-34 79.5q0 119 83 196.5t239 93.5z" glyph-name="quoteleft" horiz-adv-x="522" unicode="‘"/><glyph d="M53 1133q20 16 36.5 34.5t26 42t15.5 41t8 47t3 42t0 45t-1 38.5q0 51 35 79t84 28q47 0 81 -27.5t34 -79.5q0 -119 -83 -195.5t-239 -94.5z" glyph-name="quoteright" horiz-adv-x="522" unicode="’"/><glyph d="M53 -160q20 16 36.5 35t26 42.5t15.5 40.5t8 47t3 42t0 45t-1 39q0 51 35 79t84 28q47 0 81 -28t34 -79q0 -119 -83 -197t-239 -94z" glyph-name="quotesinglbase" horiz-adv-x="522" unicode="‚"/><glyph d="M469 1475q-20 -16 -36.5 -35t-26 -42.5t-15.5 -41t-8 -47t-3 -42t0 -45t1 -38.5q0 -51 -35 -79t-84 -28q-47 0 -81 28t-34 79q0 119 83 197t239 94zM860 1475q-25 -18 -42 -44t-25.5 -45.5t-13.5 -54.5t-6 -48t0 -54t1 -45q0 -51 -36 -79t-85 -28q-47 0 -79.5 28 t-32.5 79q0 119 81.5 197t237.5 94z" glyph-name="quotedblleft" horiz-adv-x="913" unicode="“"/><glyph d="M469 1511q-20 -16 -36.5 -34.5t-26 -42t-15.5 -41t-8 -47t-3 -42t0 -45t1 -38.5q0 -51 -35 -79t-84 -28q-47 0 -81 27.5t-34 79.5q0 119 83 196.5t239 93.5zM842 1511q-25 -18 -42.5 -43.5t-25.5 -45t-13 -54.5t-6 -48t0 -54t1 -45q0 -51 -36 -79t-85 -28q-47 0 -80 27.5 t-33 79.5q0 119 82 196.5t238 93.5z" glyph-name="quotedblright" horiz-adv-x="894" unicode="”"/><glyph d="M53 -160q20 16 36.5 35t26 42.5t15.5 40.5t8 47t3 42t0 45t-1 39q0 51 35 79t84 28q47 0 81 -28t34 -79q0 -119 -83 -197t-239 -94zM444 -160q20 16 37 35t26 42.5t15 40.5t8 47t3.5 42t0 45t-1.5 39q0 51 35 79t84 28q47 0 81 -28t34 -79q0 -119 -83 -197t-239 -94z" glyph-name="quotedblbase" horiz-adv-x="913" unicode="„"/><glyph d="M500 410h-99q0 51 1 129.5t1 109.5q0 147 -32.5 227t-120.5 148q104 0 156 84q31 49 30 72q0 16 -16 16q-31 0 -76 -27q-2 -2 -19.5 -12t-20.5 -11t-18.5 -9.5t-20.5 -10.5t-19.5 -9t-20.5 -8t-19 -6t-22.5 -6t-21.5 -2t-25 -1q-49 0 -73.5 34.5t-24.5 75.5 q0 39 30.5 66.5t86.5 27.5q39 0 66.5 -7t73.5 -31.5t52 -26.5q43 -18 72 -19q18 0 18 15q0 41 -43 78q-111 102 -110 190q0 57 47 89t118.5 32t115.5 -29.5t44 -87.5q0 -98 -104 -198q-39 -35 -39 -76q0 -16 31 -17q18 0 67 25q10 4 34 17.5t35 18.5t30.5 13t40 11t43.5 3 q55 0 86.5 -28.5t31.5 -67.5q0 -45 -25.5 -84t-76.5 -39q-39 0 -70.5 12.5t-77 42t-61.5 40.5q-39 20 -59 20q-33 0 -33 -18q0 -37 55 -93q59 -59 133 -59q-88 -70 -119.5 -159t-31.5 -247v-208z" glyph-name="dagger" horiz-adv-x="905" unicode="†"/><glyph d="M524 117h-143q45 137 45 258q0 123 -35 207t-117 149q143 18 144 133q0 20 -19 21q-14 0 -124.5 -50.5t-135.5 -50.5q-47 0 -73.5 30t-26.5 71q0 45 31.5 77.5t89.5 32.5q33 0 63.5 -6t45 -11t51 -22.5t47.5 -21.5q29 -12 50 22.5t21 85.5q0 94 -37 95q-4 0 -90 -28 t-172 -28q-47 0 -73.5 30t-26.5 71q0 45 31.5 77.5t89.5 32.5q45 0 129 -58t98 -58q20 0 21 26q0 59 -70 158.5t-70 136.5q0 57 55.5 89t129 32t129 -32t55.5 -89q0 -35 -68.5 -133t-68.5 -160q0 -18 11 -26.5t26 0.5q23 12 62.5 43.5t75.5 51t75 19.5q57 0 88.5 -34.5 t31.5 -83.5q0 -43 -24.5 -73t-69.5 -30q-88 0 -178 33t-92 33q-27 0 -27 -88q0 -51 18.5 -89t41.5 -26q106 61 211 61q57 0 88.5 -34.5t31.5 -83.5q0 -43 -24.5 -73t-69.5 -30q-35 0 -137 55.5t-121 55.5q-25 0 -24 -21q0 -47 39.5 -86t97.5 -47q-145 -129 -146 -379 q0 -112 39 -235z" glyph-name="daggerdbl" horiz-adv-x="909" unicode="‡"/><glyph d="M279 360q-102 0 -170 68t-68 170q0 106 67.5 175t170.5 69q106 0 174.5 -68.5t68.5 -175.5q0 -102 -68.5 -170t-174.5 -68z" glyph-name="bullet" horiz-adv-x="868" unicode="•"/><glyph d="M186 -35q-61 0 -103 42t-42 104q0 63 42 105t103 42q63 0 105.5 -41t42.5 -106q0 -61 -42.5 -103.5t-105.5 -42.5zM647 -35q-61 0 -103 42t-42 104q0 63 42 105t103 42q66 0 107 -41t41 -106q0 -61 -42.5 -103.5t-105.5 -42.5zM1100 -35q-61 0 -103.5 42t-42.5 104 q0 63 42 105t104 42q63 0 105 -41t42 -106q0 -61 -42 -103.5t-105 -42.5z" glyph-name="ellipsis" horiz-adv-x="1388" unicode="…"/><glyph d="M272 723q-139 0 -185 51t-46 135q0 53 18.5 119t18.5 94q0 20 -18.5 82t-18.5 123q0 139 235.5 139t235.5 -161q0 -39 -12.5 -101.5t-12.5 -89.5q0 -18 17.5 -73.5t17.5 -118.5q0 -199 -250 -199zM281 741q53 0 72.5 37t19.5 115q0 41 -10.5 98.5t-10.5 104.5 q0 63 7.5 124.5t7.5 110.5q0 63 -16.5 90t-69.5 27q-49 0 -66.5 -28.5t-17.5 -94.5q0 -31 9 -99.5t9 -129.5q0 -43 -9 -100.5t-9 -112.5q0 -72 17.5 -107t66.5 -35zM295 0h-41l602 1438h39zM883 -35q-141 0 -187.5 51.5t-46.5 137.5q0 53 18.5 117.5t18.5 95.5 q0 18 -18.5 79.5t-18.5 124.5q0 139 238 140q233 0 233 -162q0 -39 -12 -101.5t-12 -89.5q0 -18 17 -73.5t17 -118.5q1 -201 -247 -201zM1456 -39q-139 0 -185 51t-46 135q0 55 18.5 120t18.5 93q0 20 -18.5 83t-18.5 124q0 139 235.5 139.5t235.5 -161.5 q0 -39 -12.5 -102.5t-12.5 -90.5q0 -18 17.5 -73.5t17.5 -116.5q0 -201 -250 -201zM889 -14q53 0 72.5 36.5t19.5 114.5q0 41 -10 98.5t-10 104.5q0 61 7 122.5t7 112.5q0 63 -16.5 90t-69.5 27q-49 0 -66.5 -28.5t-17.5 -94.5q0 -33 9 -100.5t9 -128.5q0 -45 -9 -100.5 t-9 -112.5q0 -72 17.5 -106.5t66.5 -34.5zM1464 -18q53 0 72.5 36.5t19.5 112.5q0 43 -10 100.5t-10 102.5q0 63 7 125.5t7 111.5q0 61 -17 88t-69 27q-49 0 -66.5 -28.5t-17.5 -92.5q0 -33 9.5 -100.5t9.5 -130.5q0 -43 -9.5 -99.5t-9.5 -113.5q0 -72 17.5 -105.5 t66.5 -33.5z" glyph-name="perthousand" horiz-adv-x="1746" unicode="‰"/><glyph d="M717 305v-145q-72 57 -172.5 94t-183 55.5t-158.5 45t-119 85t-43 156.5q0 96 43 159.5t119 99.5t158.5 60.5t184 64.5t171.5 91v-141q0 -61 -49.5 -104.5t-122 -64t-157.5 -37.5t-158.5 -28.5t-123 -37t-49.5 -62.5q0 -39 68 -61.5t165 -35t194.5 -28.5t165 -58 t67.5 -108z" glyph-name="guilsinglleft" horiz-adv-x="757" unicode="‹"/><glyph d="M41 160v145q0 66 67.5 108t165 58t194.5 28.5t164.5 35t67.5 61.5q0 37 -49 62.5t-122.5 37t-158.5 28.5t-158 37.5t-122 63.5t-49 105v141q70 -51 171 -91t184 -64.5t159 -60.5t119 -99.5t43 -159.5q0 -98 -43 -156.5t-119 -85t-159 -45t-183 -55.5t-172 -94z" glyph-name="guilsinglright" horiz-adv-x="757" unicode="›"/><glyph d="M82 0h-41l848 1438h41z" glyph-name="fraction" horiz-adv-x="991" unicode="⁄"/><glyph d="M778 543q86 0 185 -74q-29 -20 -43.5 -68.5t-17.5 -102.5t-21.5 -114.5t-49 -108.5t-106.5 -80t-190 -32q-479 0 -463 592q0 10 1 30.5t1 30.5h-33v39h35q0 29 4 78h-39v39h41q29 342 141.5 521.5t360.5 179.5q139 0 219 -63.5t80 -182.5q0 -31 -1 -99.5t-1 -83.5 q0 -61 8 -87.5t35 -38.5q-47 -78 -136 -78q-61 0 -106 42t-45 115q0 57 22.5 186.5t22.5 159.5q0 49 -32 72t-68 23q-80 0 -150 -209t-92 -457h453v-39h-457q0 -12 -1 -38.5t-3 -39.5h461v-39h-461q0 -272 58.5 -444t158.5 -172q35 0 59.5 13.5t36.5 28.5t17.5 52t6.5 58.5 t1 70.5q0 20 -3 85t-1 95q3 140 112 140z" glyph-name="Euro" horiz-adv-x="1095" unicode="€"/><glyph d="M301 934h-121q-12 41 -12 82q0 68 24.5 197.5t22.5 177.5q-2 37 -25 36q-18 0 -24 -14t-8 -57q0 -78 -62 -78q-31 0 -49 22q25 8 37 78q14 72 119 72h65q137 0 138 -72v-17v-21.5t1 -17.5t5 -16.5t10 -9.5q-35 -23 -60 -22q-53 0 -34 96q10 57 -19 57q-18 0 -33 -43 q-25 -59 -28 -153q-4 -63 6 -119.5t26.5 -108t20.5 -69.5zM549 934h-115q-10 31 -10 80q0 57 22.5 173t22.5 152q0 55 -20 68q-6 6 -13 6q16 35 53 35q23 0 40.5 -21.5t17.5 -54.5q57 78 121 78q33 0 54 -23.5t19 -56.5q68 78 156 78q37 0 60.5 -18.5t21.5 -47.5 q-2 -27 -48 -83t-40 -103q6 -37 52 -93t46 -122q0 -29 -4 -47h-123q14 37 15 70q0 39 -35 105.5t-35 119.5q0 70 72 160q16 33 2 34q-57 0 -108.5 -52t-53.5 -126q-2 -37 17.5 -102.5t23.5 -91.5q20 -70 10 -117h-125q14 68 13 91.5t-9 76.5t-8 96q0 45 18.5 112.5 t18.5 92.5q0 33 -27 33q-45 -4 -83 -67.5t-44 -151.5q-4 -70 13.5 -163t11.5 -120z" glyph-name="trademark" horiz-adv-x="1036" unicode="™"/><glyph d="M793 616h-752v39h752v-39z" glyph-name="minus" horiz-adv-x="833" unicode="−"/><glyph d="M889 608q-119 0 -339 70t-304 70q-82 0 -129 -34t-47 -89h-29q0 137 71.5 224t192.5 87q133 0 347 -68.5t270 -72.5q74 -6 105.5 23.5t23.5 90.5h18q35 -59 35 -118q0 -78 -57.5 -130.5t-157.5 -52.5zM889 188q-119 0 -339 70t-304 70q-82 0 -129 -34t-47 -89h-29 q0 137 71.5 224t192.5 87q133 0 347 -68.5t270 -72.5q74 -6 105.5 23.5t23.5 90.5h18q35 -59 35 -118q0 -78 -57.5 -130.5t-157.5 -52.5z" glyph-name="approxequal" horiz-adv-x="1148" unicode="≈"/><glyph d="M793 756v-39h-285l-107 -168h392v-39h-416l-135 -211h-45l135 211h-291v39h315l107 168h-422v39h446l172 268h46l-173 -268h261z" glyph-name="notequal" horiz-adv-x="833" unicode="≠"/><glyph d="M719 305v-145q-72 57 -172.5 94t-183 55.5t-158.5 45t-119 85t-43 156.5q0 96 43 159.5t119 99.5t158.5 60.5t184 64.5t171.5 91v-141q0 -61 -49 -104.5t-122 -64t-158 -37.5t-158.5 -28.5t-123 -37t-49.5 -62.5q0 -39 68 -61.5t165 -35t194.5 -28.5t165 -58t67.5 -108z M719 51v-39h-678v39h678z" glyph-name="lessequal" horiz-adv-x="759" unicode="≤"/><glyph d="M41 160v145q0 66 67.5 108t165 58t194.5 28.5t164.5 35t67.5 61.5q0 37 -49 62.5t-122.5 37t-158.5 28.5t-158 37.5t-122 63.5t-49 105v141q70 -51 171 -91t184 -64.5t159 -60.5t119 -99.5t43 -159.5q0 -98 -43 -156.5t-119 -85t-159 -45t-183 -55.5t-172 -94zM719 12 h-678v39h678v-39z" glyph-name="greaterequal" horiz-adv-x="827" unicode="≥"/><glyph d="M571 0h-20l-459 721l459 717h20l465 -717zM193 721l366 -639l373 639l-371 653z" glyph-name="lozenge" horiz-adv-x="1118" unicode="◊"/><glyph d="M1337 -539q-354 0 -532 247t-174 657q0 141 -6 180q-16 90 -119 90q-94 0 -129 -98q-76 -205 -76 -320q0 -109 47 -217h-307q-8 66 -8 131q0 141 52 273.5t110.5 261.5t66.5 249q12 223 -77 358.5t-240 147.5q-141 18 -142 -73q0 -76 59.5 -143.5t147.5 -67.5 q61 0 117 32q-2 -94 -57.5 -150t-132.5 -56q-100 0 -181.5 86t-81.5 211q0 113 65.5 182t168.5 69q49 0 168 -32.5t190 -32.5q53 0 157.5 15.5t172.5 15.5t133.5 -21.5t123.5 -67t88 -129t15 -196.5q-8 -72 -24.5 -187.5t-23.5 -175t-13 -149.5t-6 -182q0 -365 118.5 -598.5 t290.5 -233.5q86 0 161 89t79 212q133 -51 133 -157q0 -86 -94.5 -153t-239.5 -67zM537 684q47 0 82.5 33t46.5 82q57 252 57 434q0 88 -48 141t-116 56q-63 2 -108 -32t-45 -100q0 -59 30.5 -153t30.5 -168q0 -94 -25 -211q-8 -47 15 -64.5t80 -17.5z" glyph-name="uniE100" horiz-adv-x="1005" unicode=""/><glyph d="M518 -35q-59 0 -121.5 18.5t-102.5 36t-101.5 15.5t-131.5 -35q14 166 54.5 278.5t72 204.5t31.5 230q0 150 -32.5 251t-68.5 173.5t-40 146.5q45 49 119.5 84t138.5 33q-20 -129 2 -342t45 -320q66 14 109 33t87 57.5t65.5 107.5t21.5 167q0 174 -108.5 284.5 t-256.5 100.5q-172 -8 -284.5 -139t-120.5 -392q-57 -10 -110.5 25t-53.5 119q0 143 101 240.5t244.5 137.5t309.5 40q223 0 364.5 -103.5t141.5 -312.5q0 -145 -36 -223t-78 -100.5t-146 -51.5q-16 -6 -27 -8q176 -39 236.5 -103.5t60.5 -238.5q0 -213 -81 -313.5 t-304 -100.5zM381 88q6 -51 61 -63q82 -18 142 73q70 106 67 322q0 70 -14 122t-34.5 80.5t-48.5 48t-57.5 23.5t-58 7.5t-53.5 -1.5q12 -74 3 -312.5t-7 -299.5z" glyph-name="uniE101" horiz-adv-x="944" unicode=""/><glyph d="M2042 -453l-174 -49q-59 131 -143.5 188.5t-202.5 57.5q-98 0 -332 -55.5t-354 -55.5q-188 0 -333 68t-227.5 170t-135 241.5t-70 261.5t-17.5 251q0 442 182.5 678.5t528.5 275.5q145 12 234 9t235.5 -12t218.5 -9q166 0 267.5 25.5t135.5 99.5q70 -68 70 -158 q0 -86 -55 -138.5t-158 -62.5q-80 -8 -179 22.5t-181 75t-191.5 81t-206.5 36.5q-141 0 -246.5 -51t-171 -138t-105.5 -215t-55.5 -266.5t-15.5 -308.5q0 -238 66 -425t209 -303.5t346 -116.5q147 0 404 73.5t403 73.5q150 0 213.5 -89.5t40.5 -234.5z" glyph-name="uniE102" horiz-adv-x="604" unicode=""/><glyph d="M412 0h-334q-45 199 8 346q10 31 32.5 86t33 86t22.5 79t15.5 99.5t0.5 114.5q-12 225 -90 350l297 160l-12 -82q-10 -82 -12 -111.5t-7.5 -110.5t-1 -168t12.5 -196q8 -111 -7.5 -282.5t-6 -249.5t78.5 -78q106 0 209 82t103 219q0 92 -41 379q-14 86 -11 211t-6 260 q-12 227 -264 227q-63 0 -129.5 -15t-150.5 -61.5t-154 -120t-127 -203.5t-82 -298q-156 51 -156 203q0 223 244 386t584 163q90 0 178 -17.5t174 -53.5t138.5 -104.5t52.5 -160.5t-20.5 -201t-20.5 -166q0 -51 29.5 -177t29.5 -247q0 -94 -40 -161.5t-96.5 -103.5 t-146.5 -55.5t-159.5 -23.5t-167.5 -4z" glyph-name="uniE103" horiz-adv-x="1062" unicode=""/><glyph d="M1626 -231l-106 -244q-66 86 -161 126t-186.5 47t-179.5 17.5t-159.5 59.5t-106.5 151q-63 86 -65.5 227.5t27.5 316.5t30 235q0 31 -19.5 39t-66.5 12q-111 8 -178 4q-57 -2 -90 -87t-33 -218q0 -236 117 -455h-416q0 131 82 395t82 369q0 94 -26 175t-54.5 132 t-49 147.5t-14.5 219.5h350q6 -100 -26.5 -276.5t-32.5 -225.5q0 -66 28.5 -99.5t114.5 -35.5h119q152 0 152 117q0 70 -57.5 258t-57.5 262h318q12 -104 12 -176q0 -131 -56.5 -301t-62.5 -310q-6 -141 4 -281.5t43 -279.5t105.5 -221t179.5 -72q63 6 143 24.5t120 26 t88 -9t89 -69.5z" glyph-name="uniE104" horiz-adv-x="1054" unicode=""/><glyph d="M61 -41q-141 0 -232 88t-91 211q0 98 64.5 162.5t150.5 64.5q121 0 186 -100l-112 -154q-23 35 -60 57.5t-71.5 22.5t-56 -22.5t-21.5 -65.5q0 -74 53 -112.5t127 -38.5q117 0 190.5 136t30.5 402q-14 121 -52 250t-66.5 204t-47 183.5t1.5 190.5h369 q-160 -260 -121 -504q4 -33 75 -235.5t71 -327.5q0 -166 -110 -289t-278 -123z" glyph-name="uniE105" horiz-adv-x="471" unicode=""/><glyph d="M1382 -315l-120 -220q-66 57 -186 111.5t-217 85.5t-284.5 84t-265.5 78q-127 37 -213 67.5t-181 76.5t-151.5 94.5t-93.5 118t-37 151.5q0 182 124 276t290 94q197 0 278 -78.5t54 -244.5q-8 -47 -31.5 -103.5t-43 -96.5t-32 -74.5t2 -53t61.5 -18.5q82 0 135 74.5 t70.5 157.5t19.5 169q6 256 -47 542t-59 462h329q18 -178 18.5 -315.5t-9 -277.5t-9.5 -233q0 -10 2 -67.5t2 -92t-8 -98t-23.5 -105.5t-49 -93.5t-79.5 -82t-120 -52t-166 -21.5q-74 0 -124 20.5t-74.5 50t-33 77t-6.5 88t13 98.5q35 154 17.5 244t-103.5 90 q-72 0 -122 -62.5t-69.5 -140.5t-17.5 -152q2 -86 33.5 -154.5t93 -114.5t129 -78t168 -52t182.5 -31.5t199 -21.5q360 -29 489 -60q166 -40 266 -116z" glyph-name="uniE106" horiz-adv-x="839" unicode=""/><glyph d="M381 0h-332q-16 68 -16 139q0 94 29.5 179t65.5 137.5t65.5 125t29.5 146.5q0 82 -44 196.5t-68.5 208t6.5 306.5h311q23 -106 1.5 -211t-56.5 -174.5t-58.5 -181t-7.5 -232.5q137 393 374 643t488 287q74 10 177.5 16t162 12.5t124 23.5t107.5 56t68 105q94 -98 95 -195 q0 -100 -83 -167.5t-243 -82.5q-137 -8 -224 -5t-188.5 -6t-203.5 -42q-174 -55 -345.5 -239.5t-230.5 -315.5q-20 -37 -14 -47q4 -6 24 10q184 176 277 176q57 0 100 -41t69.5 -101t48 -157.5t34 -180.5t30 -199.5t31.5 -188.5h-338q18 256 -31 474t-114 228 q-43 8 -104.5 -53t-86.5 -117q-25 -57 -24.5 -114.5t15.5 -104.5t40 -136t39 -177z" glyph-name="uniE107" horiz-adv-x="1042" unicode=""/><glyph d="M1636 -580q-174 0 -273 78t-99 277q0 127 53 336q33 117 8 226t-68 176t-85 166t-42 193q0 178 166 402q80 106 84 125q4 23 -22 26q-8 2 -19 2q-162 0 -313.5 -166.5t-151.5 -365.5q0 -106 82 -353t82 -405q0 -57 -12 -131h-360q33 109 38 204t-7.5 161.5t-27 175 t-14.5 215.5q0 131 53.5 323.5t53.5 260.5q0 45 -20.5 69.5t-59.5 22.5q-123 -6 -232.5 -191.5t-125.5 -431.5q-8 -160 16.5 -328t46 -289.5t6.5 -191.5h-332q-29 102 -28 227q0 168 65.5 499t65.5 435q0 152 -55 187q-14 18 -39 20q49 100 151 101q63 0 114.5 -62.5 t51.5 -155.5q162 223 344 224q94 0 154.5 -67.5t56.5 -158.5q86 98 209 158t231.5 60t175 -51.5t62.5 -135.5q-4 -49 -34 -100t-67.5 -97.5t-74.5 -94.5t-56.5 -109.5t-9 -129t43 -131t66.5 -106.5t66.5 -104.5t42 -124t-5.5 -168.5q-12 -55 -32 -156q-53 -203 -51.5 -309.5 t94.5 -106.5q76 0 201.5 82t254.5 165t209 83q68 0 111 -42t43 -109q0 -72 -47 -148q-76 49 -183.5 29.5t-188.5 -61.5t-186.5 -85t-179.5 -43z" glyph-name="uniE108" horiz-adv-x="1691" unicode=""/><glyph d="M948 0h-348q-12 164 5.5 334t54 359.5t45.5 246.5q12 59 7 148.5t-19.5 172t-59.5 141t-113 58.5q-113 0 -231.5 -104.5t-118.5 -186.5q0 -49 96 -49h49h53.5t46 -2t47 -6t36 -12t28.5 -21q84 -29 64 -98q-20 -98 -121 -96q12 35 8 61q-2 39 -20.5 64.5t-54 37 t-62.5 14.5t-72 5q-145 8 -190 35q-57 33 -58 108q0 139 157 240.5t353 101.5q272 0 371 -358q197 256 418 256q106 0 163.5 -53.5t57.5 -155.5q0 -74 -27.5 -144.5t-58.5 -119.5t-50.5 -130t-4.5 -175q12 -88 49 -162t65.5 -115t46 -144.5t-7.5 -250.5h-331 q25 262 20.5 379t-41.5 299q-23 162 -6.5 257t47.5 207.5t31 160.5q0 53 -47 62t-117 -30q-80 -29 -161 -207t-81 -364q0 -94 29 -213t49 -255t4 -296z" glyph-name="uniE109" horiz-adv-x="1607" unicode=""/><glyph d="M1130 -18q-229 0 -350 99t-121 290q0 63 24 155t24 162q0 47 -11.5 148.5t-11.5 164.5q0 248 132 341.5t358 62.5l2 -39q-100 23 -172 -27.5t-72 -167.5q0 -61 39 -198t39 -262q0 -86 -39 -212t-39 -241q0 -238 213 -238q123 0 167 65t44 208q0 92 -41 208.5t-41 209.5 q0 129 43 261t43 220q0 166 -52.5 246t-205.5 80q-106 0 -378.5 -98.5t-410.5 -98.5q-160 0 -272 104l133 181q111 -121 297 -121q94 0 307 44t322 44q266 0 393 -111.5t127 -300.5q0 -98 -56.5 -214t-56.5 -165q0 -39 33 -98t65.5 -142t32.5 -177q0 -98 -32.5 -171 t-80.5 -113t-120 -63.5t-134.5 -29.5t-140.5 -6z" glyph-name="uniE10A" horiz-adv-x="1679" unicode=""/><glyph d="M1026 0h-332q0 74 5.5 143.5t11.5 114.5t22.5 114.5t24.5 98.5t32.5 112t32.5 113q25 63 11.5 152.5t-35 150t-50 138t-36.5 118.5q55 0 150 13.5t128 21.5q-43 -80 -26 -307q12 -197 62 -336t138 -139q113 0 113 485q6 279 -6 342q-20 106 -105 107q-61 0 -330.5 -64.5 t-474.5 -64.5q-211 0 -321 125l149 204q80 -109 189.5 -151.5t257.5 -48.5q121 -8 324.5 24.5t263.5 32.5q158 0 247 -109.5t89 -377.5q0 -129 -13.5 -228.5t-47.5 -185.5t-98.5 -132t-158.5 -46q-66 0 -125 50t-95 100.5t-46 50.5q-31 0 -41 -125q-6 -117 42 -263.5 t48 -232.5z" glyph-name="uniE10B" horiz-adv-x="1601" unicode=""/><glyph d="M2347 -469q-39 29 -85 46t-83 24.5t-103.5 4.5t-103.5 -6t-127 -15.5t-133 -16.5q-229 -29 -348 68.5t-119 281.5q0 80 18.5 176t35 163t16.5 147.5t-29 148.5q-31 70 -93.5 103.5t-117.5 33.5q-49 0 -86 -56t-37 -163q0 -262 92 -471h-354q-39 98 -39 193q0 84 34 168.5 t76 143t75.5 134.5t33.5 143q0 98 -97 284.5t-107 244.5l346 51q0 -16 5 -86t3 -140.5t-14 -142.5q-12 -94 13 -163.5t91 -81.5q109 -20 188.5 72.5t79.5 281.5q4 203 -42 285.5t-148 87.5q-106 4 -391 -65t-420 -69q-223 0 -336 132l162 206q166 -182 467 -182 q115 0 325.5 31t290.5 31q184 0 263 -108t79 -329q0 -162 -91 -265t-259 -138q156 0 210 -70.5t44 -222.5q-2 -35 -5 -106.5t-5 -117.5t-3 -117t3 -119t10 -106.5t21.5 -96t35 -72.5t51 -51.5t70.5 -16.5q82 0 188.5 59.5t203 119t153.5 59.5q70 0 105.5 -50.5t30.5 -126 t-44 -153.5z" glyph-name="uniE10C" horiz-adv-x="1691" unicode=""/><glyph d="M483 -150q-129 0 -129 105q0 45 50.5 172t62.5 182q29 133 -6 213t-125 80q-78 0 -126 -51t-48 -119q0 -102 110 -149l-63 -160q-96 14 -150.5 60t-54.5 114q0 176 143.5 277.5t335.5 101.5q129 0 198 -67.5t60 -166.5q-4 -76 -67.5 -184t-110.5 -188t-24 -109 q20 -31 82.5 -22.5t129 34t119 90t52.5 142.5q0 53 -12.5 145t-12.5 129q0 63 18.5 152.5t18.5 107.5q0 33 -26.5 48.5t-82.5 -1.5q-10 -2 -57 -20t-95 -31.5t-89 -13.5q-129 0 -187.5 101.5t-58.5 248.5q0 215 108.5 307t354.5 92q193 0 293 -70.5t73 -191.5 q-4 -23 -19 -60.5t-24.5 -62t-6.5 -58.5t26 -62q-51 -14 -103.5 -15.5t-101.5 12t-75.5 57.5t-18.5 116q29 178 17.5 240.5t-93.5 62.5q-90 0 -130 -105.5t-40 -257.5q0 -283 152 -274q33 2 120.5 36.5t147.5 34.5q106 0 154.5 -99t48.5 -247q0 -324 -193 -500t-545 -176z " glyph-name="uniE10D" horiz-adv-x="1261" unicode=""/><glyph d="M1759 -233l-90 -261q-127 113 -250 179.5t-233.5 86t-188 20.5t-178 -10t-141.5 -11q-176 0 -259 126t-83 334q0 160 50 370t97 397.5t41 301.5q-2 47 -24.5 75t-53.5 28q-55 0 -74.5 -47t-23.5 -162q-2 -106 -53 -158.5t-127 -52.5q-90 0 -139 61q39 12 62.5 62.5 t43.5 159.5q23 121 106 162.5t234 41.5h184q391 0 392 -204q0 -12 -1 -51t0 -59.5t4 -50.5t14 -46.5t30 -24.5q-96 -66 -168 -65.5t-98.5 72t-0.5 204.5q12 72 -9 116t-62 44q-61 0 -103 -121q-39 -109 -69 -555q-29 -356 -21 -508q8 -215 95.5 -304t291.5 -44 q285 55 480.5 33t324.5 -139z" glyph-name="uniE10E" horiz-adv-x="1114" unicode=""/><glyph d="M381 0h-295q-2 102 25.5 193.5t66.5 157t79 125t68.5 125t28.5 128.5q0 35 -42 101.5t-92 138t-92 184.5t-42 227q0 31 6 68l297 -8q-43 -117 -43 -273q0 -176 46 -301t134 -125q41 0 78 29t49 84q4 33 -1 77t-17 108.5t-17 103.5q-35 262 132.5 396t486.5 134 q268 0 588 -88l-144 -211q-365 225 -581 225q-307 0 -248 -462q14 -109 -10.5 -182.5t-61.5 -101.5t-69.5 -54.5t-32.5 -50.5q0 -29 42 -90.5t92 -134t89 -214t33 -309.5h-311q63 211 63 414q0 127 -48 209t-116 77q-53 0 -70.5 -28.5t-11.5 -108.5q0 -16 10.5 -86.5 t10.5 -120.5q0 -198 -80 -356z" glyph-name="uniE112" horiz-adv-x="991" unicode=""/><glyph d="M602 0h-383q0 113 27.5 211t62.5 152.5t62.5 103.5t27.5 74q0 47 -73 47q-113 0 -174 26q-121 37 -121 195q0 80 33.5 265.5t35.5 207.5q4 57 -8 84t-55 27q63 76 162 75q68 0 114.5 -41t46.5 -116q0 -131 -48 -297t-48 -207q0 -80 42 -137.5t145 -57.5q72 0 129 56.5 t57 138.5q0 49 -38 224t-32 278q8 152 153.5 234.5t342.5 82.5q135 0 255 -40t185 -111l-123 -132q-82 111 -178 176.5t-180 65.5q-92 0 -149.5 -87t-57.5 -263q0 -55 13.5 -188.5t13.5 -196.5q0 -121 -62.5 -189.5t-171.5 -72.5q-104 -2 -119 -62q-14 -31 -14 -98.5 t53.5 -201.5t73.5 -226z" glyph-name="uniE113" horiz-adv-x="911" unicode=""/><glyph d="M440 -27q-90 0 -162.5 15.5t-105.5 31t-88 48.5q-41 123 -41 262q0 188 59.5 280t210.5 142q84 27 146 53q162 68 162 297q0 164 -45.5 242.5t-116.5 76.5q-61 -2 -65.5 -68.5t22.5 -185.5q16 -129 -53.5 -205.5t-229.5 -76.5q-61 0 -159.5 36.5t-203 62.5t-200.5 5v213 q66 6 171 -65.5t163 -71.5q33 0 72.5 -10.5t66.5 -19.5t56.5 -13t40 7t18.5 43t-8 93q-16 145 63.5 221t265.5 84q197 6 296 -66.5t99 -275.5q0 -111 -39.5 -182.5t-105 -104t-135.5 -53t-143.5 -49t-114.5 -71.5q-12 -12 -21.5 -28.5t-14.5 -38t-7 -40t0 -47.5t3 -46t7 -51 t8 -48.5t10.5 -51t10.5 -47.5q14 -238 139 -237q45 0 66.5 20.5t23.5 68.5t-3 92t-17.5 126t-18.5 137q-12 90 49.5 145.5t145.5 55.5q100 0 145 -74q-16 -2 -27.5 -11t-18.5 -24.5t-11 -31t-3 -41t2 -45t6 -53t9 -55t10.5 -61.5t10.5 -61q16 -111 -78.5 -179.5 t-321.5 -68.5z" glyph-name="uniE114" horiz-adv-x="944" unicode=""/><glyph d="M287 -188q-117 0 -244 61t-231.5 121.5t-163.5 60.5q-55 0 -101 -49q-10 31 -10 72q0 68 41 111.5t119 43.5q66 0 128 -36.5t112.5 -90t102.5 -106.5t121.5 -91t145.5 -38q154 -2 251 139.5t93 372.5q0 80 -14 138.5t-34.5 91t-48.5 54t-57.5 25.5t-58 8.5t-53.5 -0.5 q0 -106 24.5 -275t22.5 -226q2 -94 -48 -144.5t-124 -50.5q-55 0 -109.5 28.5t-89.5 82.5q51 0 81 35.5t42.5 122.5t14.5 153t2 205v55q0 504 -150 549q33 41 87.5 61.5t111.5 5t88 -72.5q23 -39 28 -103.5t6 -178t11 -208.5q66 14 109 33t87 57.5t65.5 107.5t21.5 167 q0 154 -93.5 241t-230.5 87q-182 0 -315 -133.5t-129 -352.5q-68 8 -121 48t-53 120q0 360 743 361q207 0 316.5 -85t109.5 -286q0 -188 -66.5 -264t-220.5 -119q84 -20 132 -41t90 -60.5t58.5 -103t16.5 -162.5q0 -92 -32.5 -182t-101.5 -173t-193.5 -135t-288.5 -52z" glyph-name="uniE115" horiz-adv-x="944" unicode=""/><glyph d="M449 0h-416q0 139 77.5 418.5t90.5 386.5q76 686 -166 686q-55 0 -111.5 -35t-100.5 -77t-118 -76.5t-158 -34.5q-80 0 -121.5 47t-37.5 106.5t43 98.5q45 -53 153 -54q90 0 319.5 55.5t319.5 55.5q170 0 180 -139q12 -88 -23.5 -271.5t-35.5 -230.5q0 -66 28.5 -99.5 t114.5 -35.5h119q152 0 152 117q0 70 -57.5 258t-57.5 262h318q12 -104 12 -176q0 -119 -30 -198t-59.5 -141.5t-29.5 -142.5q0 -158 79 -441.5t89 -338.5h-379q-20 80 -20 162q0 143 48 329.5t48 213.5q0 31 -19.5 39t-66.5 12q-111 8 -178 4q-57 -2 -90 -87t-33 -218 q0 -236 117 -455z" glyph-name="uniE116" horiz-adv-x="1054" unicode=""/><glyph d="M2513 -430l-117 -219q-41 100 -124 171.5t-197.5 113.5t-243.5 68t-287 38t-300 20.5t-310 20.5t-291 31q-287 45 -444.5 159.5t-157.5 341.5q0 94 52 173t130 120t160 57.5t150.5 -10t93.5 -88.5q61 -35 86.5 -86t41 -130t29.5 -115q10 -18 19.5 -39t13.5 -26t7 -14.5 t9.5 -4t10.5 6.5t18.5 14t26.5 22q70 111 112.5 411.5t19 565t-125.5 264.5q-82 0 -95.5 -73t11.5 -181q4 -31 6 -47q14 -94 -29 -138.5t-172 -52.5q27 66 -21 172.5t-48 149.5q0 98 92 150t268 52q129 0 204 -42t98.5 -116.5t27.5 -180t-8 -232.5q-4 -66 -6 -100 q-2 -57 -3 -143.5t-2 -143.5t-8.5 -132t-20.5 -124t-43 -101.5t-74 -83t-113.5 -50t-159.5 -19.5q-274 0 -244 334q16 182 4 233q-20 94 -119 95q-63 0 -107 -30t-65.5 -78t-30 -94t-8.5 -93q0 -176 117 -301t316 -166q160 -33 409.5 -38t465.5 -2t427 -10.5t356.5 -82 t192.5 -197.5z" glyph-name="uniE117" horiz-adv-x="1277" unicode=""/><glyph d="M1862 -399l-144 -127q-25 76 -57.5 110.5t-85.5 34.5q-57 0 -195.5 -45t-228.5 -45q-395 0 -373 557q23 252 3.5 403.5t-55.5 215t-87 63.5q-43 0 -86 -54.5t-64 -121.5q-18 -59 -27 -108.5t-5 -116t7 -97t20.5 -131t23.5 -139.5h-332q-37 156 33 352q16 88 84.5 250 t68.5 275q0 160 -41.5 324.5t-132 283.5t-202.5 104q-74 -8 -52 -86q6 -33 91.5 -175t85.5 -228q0 -152 -191 -197q20 29 16 76t-14 77.5t-33 82.5q-76 178 -82 262q-10 119 84.5 192.5t247.5 73.5q127 0 211 -50t126 -152.5t55.5 -233.5t5.5 -316q121 328 366.5 532 t577.5 204q39 0 97 -1t90 -1t77 1t69.5 5t56.5 10t48 18.5t33.5 29t27 40t13.5 53.5q106 -94 106 -204q0 -106 -95 -172t-251 -52q-80 6 -224.5 33t-229.5 24t-183 -42q-141 -23 -272 -157t-279 -429q150 90 299 35q186 -47 197 -529q0 -53 -3 -134t-5 -142.5t-1 -133 t10 -121.5t27.5 -95t55.5 -67.5t88 -22.5q63 0 159.5 60t191.5 121.5t153 61.5q107 1 125 -239z" glyph-name="uniE118" horiz-adv-x="1169" unicode=""/><glyph d="M901 0h-330q-29 100 -28 227q0 160 66.5 525.5t68.5 474.5q14 274 -139 274q-113 -2 -231 -111.5t-132 -197.5q-6 -25 9.5 -36t47.5 -13q31 0 86.5 2t94.5 2t78.5 -5t61 -20.5t21.5 -44.5q0 -70 -124 -203l-113 15q119 209 -74 209q-147 0 -188 20q-55 27 -56 99 q0 123 160 229t361 106q160 0 254 -91t100 -210q162 221 344 222q94 0 155.5 -68t55.5 -158q86 98 209 157.5t231.5 59.5t175 -51t62.5 -133q-4 -49 -35 -101.5t-71 -97.5t-77.5 -94t-59 -110.5t-11.5 -128.5q10 -70 44 -128.5t73 -102.5t76.5 -93t63.5 -123t26 -168 q0 -61 -15 -133h-350q37 86 37 221q0 80 -30 161t-65.5 140.5t-65.5 151.5t-30 190q0 178 166 402q80 106 84 125q4 23 -22 26q-8 2 -19 2q-162 0 -313.5 -167t-151.5 -365q0 -106 82 -353t82 -405q0 -59 -12 -129h-360q33 106 38 202.5t-7.5 162t-27 174t-14.5 215.5 q0 131 53.5 323.5t53.5 259.5q0 94 -80 95q-123 -8 -232.5 -192.5t-126.5 -432.5q-8 -160 16.5 -328t46 -288.5t7.5 -190.5z" glyph-name="uniE119" horiz-adv-x="2201" unicode=""/></font>
</defs>
</svg>
